<svg xmlns="http://www.w3.org/2000/svg" viewBox="0 0 768 768"><metadata><?xpacket begin="﻿" id="W5M0MpCehiHzreSzNTczkc9d"?>
<x:xmpmeta xmlns:x="adobe:ns:meta/" x:xmptk="Adobe XMP Core 6.0-c002 79.164488, 2020/07/10-22:06:53        ">
   <rdf:RDF xmlns:rdf="http://www.w3.org/1999/02/22-rdf-syntax-ns#">
      <rdf:Description rdf:about=""
            xmlns:dc="http://purl.org/dc/elements/1.1/"
            xmlns:photoshop="http://ns.adobe.com/photoshop/1.0/"
            xmlns:xmpRights="http://ns.adobe.com/xap/1.0/rights/"
            xmlns:xmp="http://ns.adobe.com/xap/1.0/"
            xmlns:xmpMM="http://ns.adobe.com/xap/1.0/mm/"
            xmlns:stEvt="http://ns.adobe.com/xap/1.0/sType/ResourceEvent#">
         <dc:creator>
            <rdf:Seq>
               <rdf:li>orsolya veres</rdf:li>
            </rdf:Seq>
         </dc:creator>
         <dc:rights>
            <rdf:Alt>
               <rdf:li xml:lang="x-default">orsolya veres / www.fitmithanno.fun</rdf:li>
            </rdf:Alt>
         </dc:rights>
         <photoshop:Country>austria</photoshop:Country>
         <xmpRights:WebStatement>www.fitmithanno.fun</xmpRights:WebStatement>
         <xmp:MetadataDate>2021-01-31T20:32:01+01:00</xmp:MetadataDate>
         <xmpMM:InstanceID>xmp.iid:01c2fc70-d2dc-4b54-ad0a-221847a2e2d1</xmpMM:InstanceID>
         <xmpMM:DocumentID>xmp.did:01c2fc70-d2dc-4b54-ad0a-221847a2e2d1</xmpMM:DocumentID>
         <xmpMM:OriginalDocumentID>xmp.did:01c2fc70-d2dc-4b54-ad0a-221847a2e2d1</xmpMM:OriginalDocumentID>
         <xmpMM:History>
            <rdf:Seq>
               <rdf:li>
                  <rdf:Description>
                     <stEvt:action>saved</stEvt:action>
                     <stEvt:instanceID>xmp.iid:01c2fc70-d2dc-4b54-ad0a-221847a2e2d1</stEvt:instanceID>
                     <stEvt:when>2021-01-31T20:32:01+01:00</stEvt:when>
                     <stEvt:softwareAgent>Adobe Bridge 2021 (Macintosh)</stEvt:softwareAgent>
                     <stEvt:changed>/metadata</stEvt:changed>
                  </rdf:Description>
               </rdf:li>
            </rdf:Seq>
         </xmpMM:History>
      </rdf:Description>
   </rdf:RDF>
</x:xmpmeta>
                                                                                                    
                                                                                                    
                                                                                                    
                                                                                                    
                                                                                                    
                                                                                                    
                                                                                                    
                                                                                                    
                                                                                                    
                                                                                                    
                                                                                                    
                                                                                                    
                                                                                                    
                                                                                                    
                                                                                                    
                                                                                                    
                                                                                                    
                                                                                                    
                                                                                                    
                                                                                                    
                           
<?xpacket end="w"?></metadata>
<defs><style>.cls-1{fill:#fff;}.cls-2{opacity:0.85;}.cls-3{fill:#202020;}</style></defs><g id="drawing"><path class="cls-1" d="M392.26,597.78c21.84-19,34.51-40.35,40.15-66.11a44.16,44.16,0,0,1-18.91-6.17,64.3,64.3,0,0,1,10.14-24l-45.14-23c-7.32,22.94-48,45.14-57.15,13.75a103.81,103.81,0,0,0-11.87-3.81c-5.11,3.9-11.18,5.24-17.1,2.9-14.1,26.19-62.51,32.65-85,17.17C115,613.1,345.5,721.25,392.26,597.78"/><path class="cls-1" d="M303.36,652.68c-1.3,41-12.36,54.32-16.86,72.82,19.5,17.5,81.5,19.5,97-16,0,0-15-45.93-13-79.25"/><path class="cls-1" d="M433.64,490.32a59.64,59.64,0,0,0-10,11.21l-45.14-23c4.58-12.44,3.11-28.93-4-38.52a19.32,19.32,0,0,0-8-6.48c-5.54-2.34-11.9-1.54-18.08,1.31-10.12,4.65-19.75,14.79-24.46,25.6.79-15.9-9.28-34.78-24.09-35.91a21.36,21.36,0,0,0-11.52,2.6,62.31,62.31,0,0,1,5.14-6,58.77,58.77,0,0,1,9.34-7.79c1.5-1,3.05-1.95,4.67-2.83,27.67-15.08,62.11-5.51,83,8A88.38,88.38,0,0,1,406.68,432a93.34,93.34,0,0,1,8.07,9.82C424.89,456,431.16,472.86,433.64,490.32Z"/><path class="cls-1" d="M463.5,522.5a44.21,44.21,0,0,1-50,3,64.3,64.3,0,0,1,10.14-24,59.64,59.64,0,0,1,10-11.21,56.16,56.16,0,0,1,4.86-3.82,62.47,62.47,0,0,1,40-11A44.13,44.13,0,0,1,463.5,522.5Z"/><path class="cls-1" d="M294.58,485.66a26,26,0,0,1-2.2,5.68c-3.78,7.21-11.09,13.67-20.62,18.29a73.81,73.81,0,0,1-22.59,6.6c-16.4,2.12-31.61-1.06-41.76-7.72-7-4.57-11.55-10.77-12.49-18-2.31-17.8,18.25-35.14,45.91-38.72,1.45-.19,2.87-.33,4.3-.44h0c2.5-.18,5-.25,7.38-.19a66.31,66.31,0,0,1,17.89,2.77c1.58.48,3.11,1,4.57,1.62,11.17,4.56,18.85,12.35,20.1,22A21.72,21.72,0,0,1,294.58,485.66Z"/></g><g id="brushstrokes"><g class="cls-2"><path class="cls-3" d="M355.21,641.29c-1,.61-2.09,1.09-3.14,1.62s-2.1,1.09-3.21,1.52c1.12-.42,2.16-1,3.26-1.46A22.9,22.9,0,0,0,355.21,641.29Z"/><path class="cls-3" d="M342.77,646.83l-1.18.42-1,.38Z"/><path class="cls-3" d="M330.93,650.26l3.12-.73,1.51-.36,1.47-.44C335.33,649.26,333.29,649.65,330.93,650.26Z"/><path class="cls-3" d="M340.45,647.79c-.74.18-1.1.26.08-.14l.05,0c-1.17.38-2.34.72-3.55,1.1Z"/><path class="cls-3" d="M340.45,647.79l2.19-.69Z"/><path class="cls-3" d="M337.7,649.48a6.41,6.41,0,0,1-1.24.27c-.39.08-.93.17-2.13.48a93.51,93.51,0,0,1-16,2.81c-2.46.31-6.39.18-8.86.28-1.46,0-3.49.06-5.56,0s-4.22-.07-5.9-.22c-3.35-.22-4.88-.28-.5.11a123.26,123.26,0,0,0,17.35.23,116.9,116.9,0,0,0,16.19-2.19,99.36,99.36,0,0,0,13.69-4.17c1.12-.39,2.19-.92,3.29-1.38s2.2-.94,3.26-1.51l3.24-1.65,3.17-1.85c1.21-.66,2.31-1.42,3.41-2.15s2.2-1.4,3.21-2.21a81.76,81.76,0,0,1-9.07,5.67A93.42,93.42,0,0,1,337.7,649.48Z"/><path class="cls-3" d="M389.74,603.37l-1.55,3.36a101.88,101.88,0,0,1-9.1,14.42l1.65-2a15.37,15.37,0,0,0,1.11-1.57,7.28,7.28,0,0,0,.41-.69c.05-.14-.29.4-1.17,1.58a80.86,80.86,0,0,0,9.64-17.06A8.29,8.29,0,0,0,389.74,603.37Z"/><path class="cls-3" d="M392.18,597.9c-.49,1.18-1,2.38-1.45,3.54l.07-.12,1.43-3.55Z"/><path class="cls-3" d="M304.89,652.74a141.9,141.9,0,0,1-45.9-9.37,27.43,27.43,0,0,1-3.32-1.23l-3.25-1.44c-2-.93-4-1.78-6-2.78l-2.09-1-.06,0c-1.12-.53-.81-.33-.14,0l2,1.11-2-1.11c-.93-.48-1.94-1-3.12-1.71l-2.72-1.46-2.75-1.64,2.92,1.69L241,635.2c1.12.61,2.21,1.18,3.32,1.7l1,.46c-2.27-1.1-4.46-2.34-6.67-3.54-1.09-.61-2.16-1.27-3.24-1.91s-2.15-1.28-3.19-2-1.91-1.21-2.66-1.7c-1.52-1-3-2.05-4.35-3s-2.46-1.89-3.32-2.62c-.71-.52-1.41-1.09-2.1-1.68l.39.35-.77-.66-2.17-1.82c-.73-.61-1.41-1.27-2.12-1.9L213,615l-2-2-1.35-1.28-1.31-1.35c-.86-.92-1.77-1.81-2.6-2.77l-1.55-2c-.35-.38-.78-.84-1.25-1.38l-1.47-1.87c.6.83,1.13,1.66,1.71,2.4l1.68,2.15a29.17,29.17,0,0,0,2.82,3.11c.52.53,1.05,1.07,1.57,1.63s1.06,1.09,1.56,1.67c-.5-.58-1-1.12-1.56-1.67s-1-1.1-1.57-1.63a29.17,29.17,0,0,1-2.82-3.11l-1.68-2.15c-.58-.74-1.11-1.57-1.71-2.4A70.41,70.41,0,0,1,195,592.19l1.75,2.86.82,1.36.83,1.27,1.56,2.41c.51.77,1,1.48,1.53,2.19l1.47,1.87c.47.54.9,1,1.25,1.38l1.55,2c.83,1,1.74,1.85,2.6,2.77l1.31,1.35L211,613a94.75,94.75,0,0,1-14-17.64C190.46,584.86,186.5,573,186.2,561a61.88,61.88,0,0,1,2.09-17.72,75.71,75.71,0,0,1,6.7-16.53A92.13,92.13,0,0,1,205.12,512l1.45-1.73.61-.73.26-.31.07-.07.08.05.17.11.73.47c.33.2.65.42,1,.61l2,1.11a51.32,51.32,0,0,0,8.61,3.34,61.18,61.18,0,0,0,9.12,1.86,71.36,71.36,0,0,0,9.37.63,82.06,82.06,0,0,0,19-2.14,69,69,0,0,0,19.33-7.56,44.18,44.18,0,0,0,14.9-14l.59-1,.18-.3.09-.15s.11,0,.16,0l.33.12.17.06.32.09a12.73,12.73,0,0,0,1.25.33,16.53,16.53,0,0,0,5.2.29,17.91,17.91,0,0,0,5-1.28,19.19,19.19,0,0,0,2.32-1.14,12.42,12.42,0,0,0,1.1-.67,6.22,6.22,0,0,0,.54-.35l.39-.28c.16-.2.38-.05.63,0l1.18.33,2.36.69c1.57.49,3.12,1,4.66,1.56l2.17.81c.08.06.23.06.26.15l.08.26.4,1.2a18.74,18.74,0,0,0,.94,2.34l.52,1.16.64,1.11a18.47,18.47,0,0,0,16.71,9.7,30.69,30.69,0,0,0,9.69-1.63,44.91,44.91,0,0,0,8.82-4.05A52.86,52.86,0,0,0,373,490.46a40.36,40.36,0,0,0,5.09-8.15l.5-1.1a2.48,2.48,0,0,0,.15-.38l.11-.29L379,480s0-.06,0-.06l0,0,.09.05.18.09,3.79,1.94,33.61,17.26,4.24,2.19.71.37c.08.05.18.09.25.14l-.65.95a68,68,0,0,0-8.08,17.95c-.23.8-.44,1.61-.64,2.42l-.14.61-.2.93L412,526l0,.14s0,0,0,.07l.06,0,.23.14.47.28.93.56.38.22.28.15c.37.21.74.42,1.12.61.75.4,1.51.77,2.28,1.13a44.77,44.77,0,0,0,8.14,2.81c.75.18,1.52.35,2.31.49l1.2.21.6.09.54.07s0,0,0,0h0l-.07.29-.29,1.19a119.38,119.38,0,0,1-6.69,19.68,112.94,112.94,0,0,1-10.1,18,125.71,125.71,0,0,1-10.76,13.49c-2.19,2.39-4,4.32-5.47,5.81s-2.59,2.66-3.43,3.51c-1.66,1.7-2.08,2.31-1.87,2.34.4,0,3.33-2.22,3.81-2.61A103.27,103.27,0,0,0,412.55,577a115.25,115.25,0,0,0,8.7-13.3,117,117,0,0,0,8.67-19.45L429.3,546l-.57,1.48-.81,2c-.39,1-.51,1.17-.39.78.22-.81,1.46-4,2.86-8.61.66-2.3,1.44-4.93,2.09-7.78l.32-1.32.18-.75.09-.38.05-.19,0-.09a.43.43,0,0,1,0-.05h0l-1.56-.17-1.34-.17a41.84,41.84,0,0,1-4.48-.91,42.3,42.3,0,0,1-8.56-3.26c-.67-.34-1.32-.69-1.94-1.06l-.23-.13-.13-.08-.24-.16-.12-.07c-.05,0-.09,0-.06-.1l.06-.24c.16-.61.31-1.21.46-1.79s.37-1.3.55-1.92A70.08,70.08,0,0,1,420,510.16c.95-1.82,2-3.65,3.12-5.43.14-.23.28-.46.43-.68l.62-.92.86-1.27.43-.64.11-.17c.05-.05-.09-.06-.12-.1l-.34-.18-4.07-2.1c-7.95-4.13-16.39-8.44-25-12.83l-13.1-6.63-4.24-2.15-.77-.4c-.17-.15-.16.09-.22.18l-.13.36-.52,1.43-.51,1.43-.38.84a33.57,33.57,0,0,1-3.52,6.19,48.83,48.83,0,0,1-9.86,10.28,54.81,54.81,0,0,1-5.84,3.94,44.28,44.28,0,0,1-6.24,2.95A27.64,27.64,0,0,1,337,506.14a15.51,15.51,0,0,1-6.64-2.57,17.33,17.33,0,0,1-5.07-5.59l-.64-1.11-.53-1.18-.52-1.18-.42-1.23-.58-1.73c0-.54-.58-.51-.94-.71l-.89-.34c-.86-.33-1.72-.65-2.59-.95q-2.59-.92-5.23-1.68l-1.31-.37-1.57-.43-.61-.16c-.1,0-.21-.06-.31-.07l-.27.2-1,.69c-.34.25-.7.46-1.05.69a16,16,0,0,1-9.34,2.54,13.88,13.88,0,0,1-2.4-.34c-.4-.09-.8-.22-1.2-.33l-1.22-.43-.63-.22-.31-.11s-.05,0-.08,0l0,.07-.09.15-1.9,3.2L288.2,495a46.07,46.07,0,0,1-16,12.74,71.72,71.72,0,0,1-19.8,6.4,79.35,79.35,0,0,1-21,.83,53.43,53.43,0,0,1-20.2-5.82c-.39-.22-.79-.4-1.16-.64l-1.48-.95-1.11-.7-.28-.18c-.09,0-.15.14-.22.2l-.42.5L205.15,509c-1.17,1.44-2.43,2.82-3.54,4.33s-2.25,3-3.32,4.54l-3.07,4.76a76.11,76.11,0,0,0-8.91,21.22,61.7,61.7,0,0,0-1.26,23.39,70.39,70.39,0,0,0,6.25,20.49A94.49,94.49,0,0,0,199,601a102.39,102.39,0,0,0,8.79,10.69,116,116,0,0,0,13.51,12.12A126.81,126.81,0,0,0,235,632.9a131,131,0,0,1-13.55-9.14,119,119,0,0,1-13-11.53c-3-3.25-1.91-2.16.45.24,1.24,1.14,2.76,2.66,4.33,4s3.07,2.74,4.23,3.63c1,.76,2.15,1.86,3.39,2.88s2.49,2,3.5,2.77A138,138,0,0,0,238,634.42c2.22,1.15,1.85,1.22,3,1.79a167.9,167.9,0,0,0,17.5,7.66c3.58,1.4,6.86,2.53,10.09,3.56,2.05.59,4.08,1.25,6.28,1.75,1.37.31,2.78.69,4.21,1a8.16,8.16,0,0,1-1.84-.69c1,.28,2.24.53,3.47.81s2.45.58,3.49.75c-1-.17-2.26-.48-3.49-.75s-2.47-.53-3.47-.81a8.16,8.16,0,0,0,1.84.69A134.85,134.85,0,0,0,312.47,653h-.15a108.34,108.34,0,0,1-19.61-1c1.44.23,2.08.31,1.94.32a26.24,26.24,0,0,1-2.73-.29l-2.52-.45c5.77.8,11.56,1.15,17.05,1.42l3.72-.06a7.87,7.87,0,0,1,2.15.1c1.27-.07,2.56-.07,3.85-.2-.68,0-1.73,0-2.91.05s-2.51.06-3.75,0Z"/><path class="cls-3" d="M240.9,635.12c.78.41,1.72,1,2.77,1.45-1.87-1-3.7-2-5.55-3s-3.65-2.12-5.42-3.28c.9.68,2.17,1.42,3.58,2.27S239.28,634.27,240.9,635.12Z"/></g><g class="cls-2"><path class="cls-3" d="M370.83,652.12l.27,2.65c0-.45-.05-.89-.06-1.35A6.79,6.79,0,0,0,370.83,652.12Z"/><path class="cls-3" d="M371.37,657.21l.06.47.08.4Z"/><path class="cls-3" d="M372.08,661.79c-.1-.81-.22-1.59-.34-2.33C371.81,660.12,371.92,660.89,372.08,661.79Z"/><path class="cls-3" d="M371.62,658.13c0,.29,0,.43-.1,0v0c.08.45.15.91.23,1.38C371.68,659,371.64,658.51,371.62,658.13Z"/><path class="cls-3" d="M371.62,658.13l0-.86C371.59,657.52,371.6,657.81,371.62,658.13Z"/><path class="cls-3" d="M372.62,659.17c.1.46-.16.38,0,1.29s.37,2,.55,3,.39,1.91.55,2.91.19,2.38.4,3.28c.46,2.12,1.83,7.48,1.2,4.28-.48-2.4-.9-4.38-1.24-6.31s-.73-3.79-1-6c-.3-1.76-.59-3.49-.89-5.23s-.48-3.51-.72-5.32c-.14-1-.19-2-.23-2.93,0,1.26.12,2.54.25,4C371.64,654,372.12,656.27,372.62,659.17Z"/><path class="cls-3" d="M370.21,632.53c0,.46,0,1.39,0,1.39a23.6,23.6,0,0,0-.17,3.17c0,1.07.09,2.15.15,3.23l.09-1c0-1.24-.11-1.38-.14-.28,0-2.53.2-4.91.22-7.35C370.33,631.88,370.26,631.85,370.21,632.53Z"/><path class="cls-3" d="M370.43,630.3l0,1.43,0-.05V630.3Z"/><path class="cls-3" d="M373.92,671.44c1.12,6,2.39,11.71,3.69,17.22a7.6,7.6,0,0,1,.39,1.26c.06.44.15.88.24,1.31l.59,2.4.24.84v0c.14.44.14.3.11,0s-.11-.6-.14-.85l.14.85c.07.39.15.81.27,1.31.21.72.42,1.48.62,2.27-.27-.87-.46-1.62-.62-2.27-.13-.46-.26-.9-.39-1.34l-.12-.38c.48,1.82.93,3.64,1.43,5.45.12.41.24.81.34,1.13a30.33,30.33,0,0,1,.93,3.44l.27,1,0-.2.09.37,1.2,4c.14.19,0,.36-.07.55l-.27.63-.57,1.3-.53.8A11.88,11.88,0,0,1,381,714a16.75,16.75,0,0,0,1.24-1.74,7.89,7.89,0,0,0,.65-1.43,7.51,7.51,0,0,1,.34-.77c.08-.26.39-.5.26-.79.13.29-.18.53-.26.79a7.51,7.51,0,0,0-.34.77,7.89,7.89,0,0,1-.65,1.43A16.75,16.75,0,0,1,381,714a21.65,21.65,0,0,1-1.17,1.88c-.48.61-1,1.22-1.45,1.74a23.9,23.9,0,0,1,1.42-1.94c.42-.61.81-1.17,1.2-1.68a11.88,11.88,0,0,0,.72-1.41l.53-.8.57-1.3.27-.63c.07-.19.21-.36.07-.55a.83.83,0,0,1,.06.21l-.1.19-.22.43-.46.93c-.33.61-.6,1.26-1,1.86l-1.12,1.79-.57.89-.64.86c-5.46,7.42-13.15,12.43-21.41,15.67a79.34,79.34,0,0,1-26.86,5,84.61,84.61,0,0,1-29.45-4.45A48.46,48.46,0,0,1,289,726.26l-1.17-1-.12-.11a.15.15,0,0,1-.06-.05l0-.08.11-.39c.31-1.11.58-2.24.95-3.34.68-2.22,1.45-4.41,2.25-6.6,1.62-4.37,3.38-8.73,5-13.22s3.11-9.12,4.44-13.93a121,121,0,0,0,2.85-14.43c.69-5.38,1.13-10.75,1.32-14.42.07-9.86-1.2-4.78-1.28-4.34-.59,3-.77,5.65-1.15,9.08-.16,1.72-.33,3.63-.66,5.86-.16,1.11-.33,2.3-.51,3.6s-.52,2.66-.81,4.16c.79-4.07.69-2.54.17,1-.3,1.76-.75,4-1.28,6.26s-1.19,4.55-1.89,6.39c-1.9,5.35-4.18,11.78-6.75,18.57-1.27,3.39-2.55,6.91-3.64,10.47-.27.9-.58,1.77-.8,2.68-.3,1.14-.61,2.28-.91,3.41,0,0-.05.11,0,.15l.12.1.24.2.49.4.78.64c.36.3.72.61,1.09.89l2.27,1.59a48.56,48.56,0,0,0,10.64,5,76.52,76.52,0,0,0,16,3.71,92,92,0,0,0,16.17.61A86.36,86.36,0,0,0,349,736.75a69.67,69.67,0,0,0,16-6A44.59,44.59,0,0,0,378,720a41.52,41.52,0,0,0,6.06-9.21l.57-1.15a.17.17,0,0,0,0-.18l-.06-.18-.11-.36-.18-.57c-.18-.55-.35-1.09-.52-1.62l-1-3.1c-.62-2-1.21-3.93-1.78-5.81.61,2.11,1.14,3.93,1.72,5.8.29.94.59,1.89.9,2.9l.5,1.55.34,1,.12.36c.05.12-.08.23-.11.35l-.32.65c-.37.76-.51,1-.49.9a2.76,2.76,0,0,1,.13-.38l.13-.34.2-.48a2.6,2.6,0,0,0,.26-.71l-.29-.8c-.14-.36-.27-.73-.41-1.09l-.69-2c-.32-.87-.46-2.34-.78-3.21-.55-1.93-1.15-3.68-1.78-5.75-.29-.88,0-.84-.17-1.28-.83-2.83-1.65-5-2.05-6.81-.31-1.39-.55-2.66-.81-3.89-.16-.78-.33-1.55-.53-2.36-.13-.51-.27-1-.4-1.56a1.65,1.65,0,0,1-.1.77c-.13-.77-.33-1.85-.47-2.62.14.77.34,1.85.47,2.62a1.65,1.65,0,0,0,.1-.77c-1-3.75-2-8.12-2.8-12.2v.06c.43,2.4.9,4.72,1.22,7.24-.16-1.09-.06-1,.19.25l.08,1a49.85,49.85,0,0,1-1.2-6.28s-.23-.9-.33-1.35c-.08-.68,0-.67,0-.82l-.26-1.41c0,.51.14,1.56.24,2.48Z"/><path class="cls-3" d="M379.47,695.86l-.32-1.13c.4,1.53.78,3.06,1.2,4.58A34.46,34.46,0,0,0,379.47,695.86Z"/></g><g class="cls-2"><path class="cls-3" d="M423.81,456.48c-.61-1.3-1.29-2.57-1.94-3.85.32.64.62,1.3.92,2C423.2,455.44,423.47,455.86,423.81,456.48Z"/><path class="cls-3" d="M419.93,449.15l-.39-.66-.36-.55Z"/><path class="cls-3" d="M415.84,442.86C416.6,444,417.3,445,418,446,417.4,445.11,416.72,444.05,415.84,442.86Z"/><path class="cls-3" d="M419,447.9c-.2-.41-.29-.63.13,0v0c-.38-.64-.79-1.26-1.22-1.9C418.39,446.72,418.76,447.35,419,447.9Z"/><path class="cls-3" d="M419,447.9l.64,1.24Z"/><path class="cls-3" d="M417.33,446.75a15.55,15.55,0,0,0-1-1.82c-2-2.85-3.83-5.2-5.9-7.71-1-1.11-2.3-3.06-3.35-4.11-1.2-1.26-3.45-3.4-5-4.69s-2.26-1.83-.32-.08a92.21,92.21,0,0,1,7.21,7.38,87.62,87.62,0,0,1,6,7.66,98.69,98.69,0,0,1,8.79,14.75c.71,1.49,1.3,2.92,1.89,4.35-.75-1.88-1.55-3.8-2.53-5.89A86.2,86.2,0,0,0,417.33,446.75Z"/><path class="cls-3" d="M433.24,486.63l-.48-2.19a66.6,66.6,0,0,0-2.36-10.07c.1.5.2,1,.3,1.53.53,1.93.66,2.14.24.41.91,4,1.68,7.75,2.34,11.64A2.75,2.75,0,0,0,433.24,486.63Z"/><path class="cls-3" d="M433.66,490.23c-.13-.76-.25-1.53-.38-2.28V488l.39,2.28Z"/><path class="cls-3" d="M405.59,430.74a89.79,89.79,0,0,0-11-9.5c-1.91-1.39-3.85-2.71-5.85-3.89s-4-2.33-6-3.42c-.64-.31-1.11-.46-1.95-.9-.63-.34-1.26-.68-1.9-1-1.2-.6-2.43-1.11-3.65-1.62l-1.31-.53h0c-.71-.27-.51-.15-.1.07l1.26.61-1.26-.61a20.77,20.77,0,0,0-2-.86c-1.15-.39-2.35-.82-3.58-1.27,1.39.46,2.57.89,3.58,1.27.74.24,1.42.53,2.11.8l.61.23c-.71-.29-1.4-.6-2.11-.88l-2.14-.77c-1.43-.52-2.85-1.07-4.31-1.48-.67-.19-1.32-.37-1.84-.53-2.1-.65-4.26-1-5.55-1.5l-1.59-.38.3.09c-.23-.07-.43-.11-.59-.15l-3.39-.63-1.7-.31-1.72-.22c-1.49-.11-3-.29-4.55-.35l-1.54-.2c-.63,0-1.53,0-2.57,0l3.41.37a11.52,11.52,0,0,0,1.21.08l1.31.08a15.72,15.72,0,0,1,2.72.36,15.72,15.72,0,0,0-2.72-.36l-1.31-.08a11.52,11.52,0,0,1-1.21-.08l-3.41-.37c-1.09-.08-2.34,0-3.6,0s-2.54-.07-3.67,0a29.65,29.65,0,0,1,3.91-.16,27.51,27.51,0,0,1,3.36.14c1,0,1.94,0,2.57,0l1.54.2c1.54.06,3.06.24,4.55.35l-3.36-.41c-1.13-.13-2.27-.14-3.41-.22s-2.29-.18-3.44-.15l-3.48.06a33.46,33.46,0,0,0-3.61.21l-3.58.34-3.53.61-1.75.31c-.59.12-1.16.29-1.73.44l-3.44.91c-1.14.31-2.23.79-3.35,1.17l-1.66.61a12.19,12.19,0,0,0-1.63.68l-3.19,1.53c-.53.26-1.07.5-1.59.78l-1.52.91-3,1.83a58.61,58.61,0,0,0-5.65,4.28,63.17,63.17,0,0,0-5.13,5c-1,1.1-2,2.28-2.91,3.42l-1.37,1.74-.34.45c0,.06-.15.18-.13.19h.27c.06,0,.09,0,.13.06.9-.44,1.87-.89,2.79-1.31a21.43,21.43,0,0,1,2.56-1,16.15,16.15,0,0,1,2.06-.5,16.82,16.82,0,0,1,1.87-.26,18,18,0,0,1,7.54.93c4.9,1.7,9,5.44,12.08,9.9a40.09,40.09,0,0,1,5.4,11.79,41.29,41.29,0,0,1,1.25,6.28c.07.44.12,1.28.18,2s0,1.62.06,2.43,0,1.78,0,2.67l-.07,2.59c1.1-2.16,2.45-5.27,3.84-7.62l.42-.72c.12-.2.24-.4.37-.59l.77-1.17c.49-.79,1.07-1.52,1.6-2.28a55.62,55.62,0,0,1,7.49-8.13,48,48,0,0,1,9.4-6.56,29,29,0,0,1,10.57-3.31,18.82,18.82,0,0,1,5.41.27,16.52,16.52,0,0,1,5,1.93,20.58,20.58,0,0,1,7.3,7.82c3.6,6.39,4.9,14,4.62,21.47a44,44,0,0,1-1.87,11.12l-.54,1.58-.43,1.26L377,479l0,.16s.09.05.13.08l.6.31,3.23,1.7,5.25,2.79c5.4,2.88,13.18,6.87,20.91,10.81l11.28,5.73,2.6,1.32,1.68.85,1.21.62.15.07s.11.1.13,0l.19-.28.38-.54,1.2-1.68.73-1c.48-.63,1-1.23,1.41-1.78,2.4-3,4.07-4.76,5-5.84s1.16-1.47,1-1.54c-.33-.14-2.17,1.16-2.45,1.41a41,41,0,0,0-5.18,4.93c-.79.9-1.57,1.85-2.34,2.87l-.41.55-.18.24c-.08,0-.18-.07-.27-.11l-1.52-.8c-4.95-2.58-11.05-5.7-19.75-10.43,11.88,6.39-9.12-4-20.19-10.34l-1.53-.87-.12-.07-.05,0-.11-.08-.11-.07s0-.08,0-.12l.11-.24.33-.88c.21-.6.37-1.22.56-1.84a41.79,41.79,0,0,0,1.45-7.94,46.62,46.62,0,0,0-1.67-17.32,34.48,34.48,0,0,0-3.71-8.43,23.59,23.59,0,0,0-6.36-6.93,18.9,18.9,0,0,0-8.83-3.33,24.61,24.61,0,0,0-9.09.84,42.06,42.06,0,0,0-16.4,9.55,57,57,0,0,0-7.91,8.61c-.55.8-1.15,1.56-1.66,2.38l-.79,1.22-.57.95,0,0v0l0-.21v-.09l0-.41-.12-.92a44.38,44.38,0,0,0-1.68-7.23,40.81,40.81,0,0,0-7-13.11,29.94,29.94,0,0,0-5.47-5.25,22.49,22.49,0,0,0-6.91-3.44,20.06,20.06,0,0,0-7.79-.68c-.65.07-1.3.17-1.94.3-.32.07-.64.13-1,.22l-.16,0-.29.12s-.12.08-.08,0l.07-.1.17-.2.34-.38,1-1.07c.69-.71,1.4-1.4,2.12-2.07a51.21,51.21,0,0,1,9.66-7.15,62.21,62.21,0,0,1,6.17-3.26,29.45,29.45,0,0,1,3.1-1.29l3.06-1.18,3.08-.89a31.24,31.24,0,0,1,3.05-.81l3.05-.6,1.52-.3,1.52-.17a72.07,72.07,0,0,1,17.11.09,104,104,0,0,1,20,4.25c-3.36-1.06-6.29-1.9-9.37-2.56-1.52-.39-3.1-.64-4.77-.93-.83-.14-1.69-.31-2.58-.44l-2.8-.31c-2.6-.3-1.69-.27.3-.12,1,.09,2.27.13,3.5.33l3.27.5c1.49.15,3.69,1,5.15,1.32s3.05.81,4.58,1.22c.76.21,1.53.41,2.32.64l2.39.8a13.69,13.69,0,0,1,1.88.85c2.21.84,4.18,1.57,5.93,2.26s3.28,1.39,4.61,2.12c2,1.14,3.83,2.11,5.51,3.23,1.08.69,2.18,1.32,3.3,2.08.71.45,1.43.92,2.15,1.41a4.26,4.26,0,0,1-.81-.88c1,.72,2.43,1.8,3.41,2.58-1-.78-2.38-1.86-3.41-2.58a4.26,4.26,0,0,0,.81.88,86,86,0,0,1,15.2,13.17l-.05-.08c-2.62-2.92-5.33-5.63-8.32-8.42,1.3,1.21,1.09,1.11-.44-.2l-1.1-1.08a56.39,56.39,0,0,1,7.54,7s1.07,1.05,1.59,1.58c.72.85.63.86.73,1.08L410,436c-.47-.67-1.53-2-2.51-3.13S405.59,430.74,405.59,430.74Z"/><path class="cls-3" d="M371.78,409.05c.51.16,1.13.39,1.78.67-1.16-.53-2.39-.9-3.58-1.36s-2.39-.9-3.62-1.24C367.64,407.57,369.69,408.35,371.78,409.05Z"/></g><g class="cls-2"><path class="cls-3" d="M474.32,510.66c.36-.55.64-1.15,1-1.72-.18.28-.35.56-.55.83A7.57,7.57,0,0,0,474.32,510.66Z"/><path class="cls-3" d="M476.15,507.34l.14-.32.1-.28Z"/><path class="cls-3" d="M477.46,504.17c-.21.57-.47,1.09-.68,1.61A11.65,11.65,0,0,0,477.46,504.17Z"/><path class="cls-3" d="M476.32,506.65c.12-.18.19-.26.08.07v0l.39-1C476.62,506.11,476.46,506.4,476.32,506.65Z"/><path class="cls-3" d="M476.32,506.65l-.34.54A5.75,5.75,0,0,0,476.32,506.65Z"/><path class="cls-3" d="M475.9,505.52c.11-.32.3-.15.52-.79s.46-1.44.69-2.12.45-1.35.63-2.06.67-1.61.8-2.27.31-2.17.41-3.07,0-1.32-.13-.16c-.33,1.74-.57,3.19-1,4.55a41.42,41.42,0,0,1-1.31,4.19c-.44,1.21-.91,2.4-1.42,3.58l-.85,1.74-.43.88-.51.85c-.39.64-.78,1.22-1.17,1.81.53-.76,1.06-1.54,1.65-2.4a13.18,13.18,0,0,0,1-2.06c.16-.4.35-.81.52-1.25S475.69,506,475.9,505.52Z"/><path class="cls-3" d="M464.91,521.55l.72-.72a11,11,0,0,0,1.76-1.52,18,18,0,0,0,1.61-1.77l-.55.45c-.64.66-.67.77-.05.24-.72.6-1.39,1.21-2,1.82s-1.35,1.15-2,1.75C464.47,521.78,464.5,521.86,464.91,521.55Z"/><path class="cls-3" d="M463.55,522.5l.79-.7h0l-.78.71Z"/><path class="cls-3" d="M479.33,497.18a45.8,45.8,0,0,0,.87-12.88,4,4,0,0,1-.17-1q0-.49,0-1c0-.6-.19-1.2-.27-1.79l-.13-.63v0c-.08-.33-.1-.23-.1,0s0,.45,0,.64l0-.64c0-.29,0-.61-.1-1l-.42-1.68a12.43,12.43,0,0,1,.42,1.68l.21,1,.07.28c-.19-1.39-.54-2.67-.88-4.1l-.13-.48-.06-.23c0-.09-.13,0-.18,0a17.93,17.93,0,0,1-2.7-.18l-.75,0,.15,0-.28,0c-1.05,0-2.1,0-3.15,0-.67.08-1.37.15-2.07.25l-.71-.06a9.91,9.91,0,0,1-1.15.22c.57,0,1.09.06,1.57.07.7.05,1.55-.36,2.39-.16-.84-.2-1.69.21-2.39.16-.48,0-1-.06-1.57-.07-1,.16-2.26.25-3.3.31a12.59,12.59,0,0,1,3.3-.31,9.91,9.91,0,0,0,1.15-.22l.71.06c.7-.1,1.4-.17,2.07-.25-2.05,0-4.12.24-6.23.48a60.58,60.58,0,0,0-9.86,2.09c-1.61.44-3.15,1-4.71,1.6s-3.07,1.25-4.55,2A60.48,60.48,0,0,0,429.8,493.2a65.46,65.46,0,0,0-12.73,18.32,60.5,60.5,0,0,0-3.67,10.06c-.23.85-.44,1.71-.62,2.56l-.21,1-.11.52,0,.26V526l.05,0,.11.06,1.68,1a44.2,44.2,0,0,0,4.74,2.32,49,49,0,0,0,21.08,3.71,39,39,0,0,0,5-.58,43.58,43.58,0,0,0,15.62-6.24c.75-.55,1.33-1,1.79-1.41a13,13,0,0,0,1-1c.44-.52.5-.78.37-.88s-1.24.2-1.39.27c-2,1-3.71,1.94-6,3a35.15,35.15,0,0,1-9.42,3.27c1.48-.3,1.95-.39,1.75-.27a13.38,13.38,0,0,1-2.32.75,30.7,30.7,0,0,1-9.42.84,65.91,65.91,0,0,1-13.93-2.52,43.26,43.26,0,0,1-7.23-3l-1-.52c0-.05,0-.09,0-.14l.18-.81c.3-1.27.64-2.51,1-3.71a71.45,71.45,0,0,1,2.9-7.72,65.48,65.48,0,0,1,13.06-18.78,54.8,54.8,0,0,1,9-7.26,57.18,57.18,0,0,1,10.67-5.52,75.6,75.6,0,0,1,11.35-3.54,61.27,61.27,0,0,1,7.74-.81c1.72-.09,3.32-.13,4.85-.13.69,0,1.74,0,1.78,0s.19.09.24.22l0,.1.05.17.15.52-.22-.83-.06-.2c-.05,0-.14,0-.2,0l-1.75,0c-1.42,0-2.89,0-4.66.14-2.36.13,1.63-.42,3.21-.46.68-.05,1.73.23,2.4.21l.81,0h.25c.09,0,.07.13.11.19l.1.25.15.47.33,1.09c.21.64,0,.62,0,.94.21,1,.46,2,.68,2.78a16.57,16.57,0,0,1,.33,2.27,28.21,28.21,0,0,1,0,2.89c0,.57,0,1.15,0,1.75v1.17a1.12,1.12,0,0,1,.28-.52l-.18,1.93.18-1.93a1.12,1.12,0,0,0-.28.52,39.71,39.71,0,0,1-1,9.05l0,0c.26-.85.4-1.72.6-2.59s.43-1.73.59-2.65c-.15.79-.21.68-.11-.22l.21-.68c-.08.79-.11,1.59-.25,2.36a20,20,0,0,1-.56,2.25s-.07.68-.15,1c-.17.48-.24.44-.33.52l-.26,1c.15-.34.43-1.07.66-1.71S479.33,497.18,479.33,497.18Z"/><path class="cls-3" d="M479.42,478.88l.17.85c-.15-1.17-.49-2.25-.75-3.43A15.77,15.77,0,0,0,479.42,478.88Z"/></g><g class="cls-2"><path class="cls-3" d="M289.73,465.24a25.76,25.76,0,0,0-1.82-1.95c.3.33.6.66.89,1A9.22,9.22,0,0,0,289.73,465.24Z"/><path class="cls-3" d="M286.09,461.63l-.37-.3-.34-.23Z"/><path class="cls-3" d="M282.3,459c.7.43,1.32.91,1.95,1.32A19.14,19.14,0,0,0,282.3,459Z"/><path class="cls-3" d="M285.27,461.14c-.2-.2-.29-.32.1-.05h0c-.37-.27-.72-.56-1.13-.82A10.87,10.87,0,0,1,285.27,461.14Z"/><path class="cls-3" d="M285.27,461.14l.62.6C285.72,461.56,285.51,461.36,285.27,461.14Z"/><path class="cls-3" d="M283.85,461.11c-.39-.24-.16-.37-.94-.85a50.18,50.18,0,0,0-5.21-2.81c-.82-.37-2-1.16-2.88-1.48-1-.33-2.84-.87-4-1.19s-1.74-.39-.22.09a46.38,46.38,0,0,1,11.16,4.92,32,32,0,0,1,8,6.61,20.1,20.1,0,0,1,1.65,2.36,18.5,18.5,0,0,0-1-1.59c-.37-.52-.76-1.07-1.22-1.6A27,27,0,0,0,283.85,461.11Z"/><path class="cls-3" d="M295.21,483.46c.05-.46.08-1.39.08-1.39a15.75,15.75,0,0,0-.37-6.35l0,1c.22,1.21.31,1.35.18.25a26,26,0,0,1-.23,7.28C295,484.09,295.07,484.13,295.21,483.46Z"/><path class="cls-3" d="M294.62,485.62c.11-.47.21-.93.29-1.4l0,0c-.08.47-.17.94-.27,1.4Z"/><path class="cls-3" d="M273.42,454.9c-1.44-.49-2.84-1.06-4.28-1.44s-2.86-.74-4.29-1a69.55,69.55,0,0,0-8.47-1.19,7.43,7.43,0,0,1-1.32,0c-.43-.06-.87-.11-1.31-.15-.82,0-1.64-.06-2.45-.07l-.87,0h0c-.46,0-.33.07,0,.1l.86.09-.86-.09c-.39,0-.82,0-1.32,0l-2.34.1a22.72,22.72,0,0,1,2.34-.1l1.38-.06.4,0c-1.88,0-3.74.05-5.6.17h-.1l-.1.05c-.06-.05.12.13.1.12h.16l-.17-.16-1.05.12a28.61,28.61,0,0,1-3.52.32l-1,.14h.2l-.38,0c-1.39.17-2.79.43-4.18.69-.89.25-1.81.47-2.71.75l-1,.11c-.36.15-.88.32-1.49.52.75-.15,1.45-.23,2.09-.34a22.92,22.92,0,0,1,3.15-.72,22.92,22.92,0,0,0-3.15.72c-.64.11-1.34.19-2.09.34-1.28.39-2.94.87-4.3,1.21a20.78,20.78,0,0,1,4.3-1.21c.61-.2,1.13-.37,1.49-.52l1-.11c.9-.28,1.82-.5,2.71-.75a72.66,72.66,0,0,0-8.18,2.08c-8.76,2.78-16.82,7.05-23.29,13.34A33.63,33.63,0,0,0,196,479.05a22.86,22.86,0,0,0-1.14,14A25.7,25.7,0,0,0,203,506a43.11,43.11,0,0,0,12.81,7.69,58.86,58.86,0,0,0,14,3.56,72.72,72.72,0,0,0,14.13.48,81.87,81.87,0,0,0,27.93-6.6,52.68,52.68,0,0,0,12.56-7.84,42.88,42.88,0,0,0,5.63-5.75,34.75,34.75,0,0,0,3.7-5.68,17,17,0,0,0,1.55-4.82c.12-.93,0-1.24-.15-1.23-.33,0-1,1.28-1.08,1.48a49.88,49.88,0,0,1-4.68,7.66,38.27,38.27,0,0,1-9.9,9.07c1.69-1.13,2.22-1.5,2-1.26a19.44,19.44,0,0,1-2.6,2,45.28,45.28,0,0,1-11.48,5.71,109.23,109.23,0,0,1-18.87,4.37,67.91,67.91,0,0,1-21.22-.36,61.78,61.78,0,0,1-10.7-2.91,41.34,41.34,0,0,1-13.07-8,22.73,22.73,0,0,1-7.11-12.72,21.86,21.86,0,0,1,2.88-14.47,38,38,0,0,1,10.86-11.65,67.19,67.19,0,0,1,14-7.82,68.86,68.86,0,0,1,10.11-2.9c1-.21,1.95-.42,2.9-.58s1.86-.34,2.76-.48c1.8-.3,3.53-.45,5.21-.68l-1-1v.09a.87.87,0,0,0,0,.13.86.86,0,0,0,.37.57.92.92,0,0,0,.36.16l.19,0h.11a1.06,1.06,0,0,0,.32-.08l.17-.1.12-.1-.62.28,1.52-.14-1.52.11.6-.27,0,0,0,0a.66.66,0,0,1-.21.14l-.06,0-.19,0h-.21l-.36-.09a.87.87,0,0,1-.41-.39.72.72,0,0,1-.09-.2,2.13,2.13,0,0,1,0-.22v-.05l1,.94a87.55,87.55,0,0,0-10.59,1.67c-3.13.69,2.1-.81,4.22-1.17.89-.19,2.34-.14,3.24-.27,1.07-.1,2.08-.24,3.12-.39l-.85-.78v.16a.49.49,0,0,0,0,.13.67.67,0,0,0,.16.26.8.8,0,0,0,.52.24.84.84,0,0,0,.34-.05.76.76,0,0,0,.17-.09l.11-.09-.5.22c.88-.09,1.79-.19,2.76-.25s.81.16,1.27.12a57.06,57.06,0,0,1,7-.12c1.4.14,2.67.31,3.89.51l2.36.37c.51.06,1,.14,1.56.22a1.74,1.74,0,0,1-.66-.38c.76.14,1.81.41,2.55.59-.74-.18-1.79-.45-2.55-.59a1.74,1.74,0,0,0,.66.38A56.11,56.11,0,0,1,270,454.2c1,.29,2,.64,3,1a28.56,28.56,0,0,1,2.95,1l0,0c-1.09-.51-2.24-.84-3.36-1.28s-2.24-.89-3.44-1.28c1,.35.88.37-.31,0l-.88-.36a28.64,28.64,0,0,1,6,2s.89.24,1.32.4c.61.3.55.36.66.48.43.19.88.35,1.31.56-.43-.28-1.36-.74-2.18-1.16Z"/><path class="cls-3" d="M249,451.06l1.17,0c-1.57,0-3.14.06-4.71.15C246.29,451.23,247.64,451.12,249,451.06Z"/></g><g class="cls-2"><path class="cls-3" d="M320.83,488.35l-.07-.47a1.18,1.18,0,0,1,0,.25C320.71,488.23,320.77,488.28,320.83,488.35Z"/><path class="cls-3" d="M320.71,487.44v-.08l0-.07Z"/><path class="cls-3" d="M320.54,486.63a2.83,2.83,0,0,0,.06.42A1.37,1.37,0,0,0,320.54,486.63Z"/><path class="cls-3" d="M320.57,487.29c0-.05.06-.08.1,0h0l-.07-.24A.88.88,0,0,1,320.57,487.29Z"/><path class="cls-3" d="M320.57,487.29a.88.88,0,0,0-.06.17Z"/><path class="cls-3" d="M319.7,487.2c0-.08.2-.09.13-.25a6.82,6.82,0,0,1-.31-1.08c-.07-.16.17-.45.11-.61-.12-.39-.5-1.38-.45-.78.11.89.23,1.47.37,2.27.18.63.38,1.24.59,1.88a3.43,3.43,0,0,1,.06.54v-.74C320.19,488.09,319.83,487.73,319.7,487.2Z"/><path class="cls-3" d="M321.43,491.8l-.15-.22a1.91,1.91,0,0,0-.23-1.12l-.08.19c.07.22.14.23.14,0a3.21,3.21,0,0,0,.19,1.32C321.35,491.94,321.42,491.93,321.43,491.8Z"/><path class="cls-3" d="M321.38,492.23l-.08-.24h0l.1.24Z"/><path class="cls-3" d="M320.14,484.9a31.49,31.49,0,0,1-.14-3.16c-.05-.08-.1-.14-.08-.24a1.17,1.17,0,0,0,.09-.24v-.47l0-.16h0c0-.08-.06,0-.1,0a.76.76,0,0,1-.09.18l.09-.18a1.31,1.31,0,0,0,.07-.27,1.61,1.61,0,0,1,0-.44,1.62,1.62,0,0,1,0,.44l0,.26,0,.07q0-.56.06-1.14l0-.21a1.4,1.4,0,0,1,.09-.8l0-.22,0,.08,0-.12.09-1c0-.1-.1-.14-.13-.23l.17-.55c-.07.1-.11.11-.13.05l-.27,1c-.14.43.23-.17,0,.52.25-.69-.12-.09,0-.52l.27-1a4.92,4.92,0,0,1,.24-1.36c.11,0-.06.72-.24,1.36,0,.06.06.05.13-.05l-.17.55c0,.09.09.13.13.23l.24-2.1.17-1.39.09-.68c0-.19.09-.56,0-.46-.68,1.32-1.58,3.06-2.46,4.63-.22.41-.44.79-.68,1.15s-.46.75-.71,1.11-.43.64-.64.92-.4.54-.62.81a27.12,27.12,0,0,1-3.7,3.85l-1.9,1.59-2.72,2.09c.71.26,1.57.49,2.36.74l2.36.75a27.45,27.45,0,0,1,2.9,1.21c.31.14.69.28,1.11.43s.86.34,1.31.5l2.41.81c1.78.22,1.31-1,1.25-1.13-.71-1.19-1.68-1-3.6-2.26,1.32.79-1.22.13-2.43-.8a6.92,6.92,0,0,0-2.4-1.19c-.05,0-.06,0-.13,0a1.1,1.1,0,0,1-.25,0,.43.43,0,0,1,.23-.15h.07l0,0,.17-.15.82-.78a23.49,23.49,0,0,0,3.95-4.53l.42-.62.2-.32.17-.26a.35.35,0,0,1,0-.13.94.94,0,0,1,.13-.25c0-.05.11-.34.25-.78a2.48,2.48,0,0,1,.21-.48c0,.09-.12.66-.12.78s.07.27.17.48c0-.28-.1-.39-.12-.57a.66.66,0,0,1,.16-.33c.09-.11.18-.11.21-.06s-.23.54-.17.53c0,.15.1.19.16.38s-.18.17-.16.19.12.17.2.37a1.47,1.47,0,0,1,.11.58l-.1.73a2.17,2.17,0,0,0,0,.44l.07.29a.52.52,0,0,1,.25-.14l-.06.48.06-.48a.52.52,0,0,0-.25.14l.53,2.25,0,0a3.33,3.33,0,0,1,0-1.33c0,.2-.11.18-.14,0l.11-.18A1.89,1.89,0,0,1,320,485l.1.24c0,.13-.09.13-.16.16l.05.26A4.2,4.2,0,0,0,320.14,484.9Z"/><path class="cls-3" d="M320,480.36v.22l.05-.94A1.2,1.2,0,0,0,320,480.36Z"/></g><g class="cls-2"><path class="cls-3" d="M315.88,581.39l-1,.69.55-.28A1.35,1.35,0,0,0,315.88,581.39Z"/><path class="cls-3" d="M314,582.72l-.18.12-.13.13Z"/><path class="cls-3" d="M312.3,584a9.64,9.64,0,0,0,.87-.62A9.85,9.85,0,0,0,312.3,584Z"/><path class="cls-3" d="M313.7,583.07c-.13,0-.2,0,0-.1h0l-.5.39A4.12,4.12,0,0,1,313.7,583.07Z"/><path class="cls-3" d="M313.7,583.07l.37-.16A2.76,2.76,0,0,0,313.7,583.07Z"/><path class="cls-3" d="M313.76,584.07c-.16.14-.26-.08-.57.21-.78.61-1.41,1.17-2.18,1.69-.32.28-1,.44-1.33.72-.79.59-2.74,2.24-1.5,1.41,1.88-1.23,3-2.13,4.67-3.29,1.29-1,2.49-2,3.8-3.07.38-.28.73-.53,1.1-.78l-1.53,1C315.48,582.39,314.82,583.24,313.76,584.07Z"/><path class="cls-3" d="M323.06,576.16l-.45.45a11.59,11.59,0,0,0-2.32,1.75l.42-.18c.44-.35.45-.44,0-.18a21.86,21.86,0,0,0,2.73-1.93C323.36,576.06,323.33,576,323.06,576.16Z"/><path class="cls-3" d="M324,575.66l-.5.41h0l.49-.42Z"/><path class="cls-3" d="M308.73,586.66c-2.33,1.54-4.57,2.92-6.79,4.22a1.55,1.55,0,0,1-.48.36,4.84,4.84,0,0,0-.57.23l-1,.55-.33.21h0c-.17.13-.1.13,0,.09l.38-.12-.38.12a5.15,5.15,0,0,0-.56.25,10.24,10.24,0,0,1-.93.52c.35-.21.66-.39.93-.52l.53-.35.15-.11c-.75.43-1.49.83-2.25,1.22l-.47.27a5.49,5.49,0,0,1-1.44.72l-.41.21.09,0-.16.06-1.75.84-1.08.7-.44.08a2.38,2.38,0,0,1-.6.42c.35-.08.67-.15.95-.24.45-.08.77-.65,1.33-.67-.56,0-.88.59-1.33.67-.28.09-.6.16-.95.24a9.26,9.26,0,0,1-1.9.74,5.85,5.85,0,0,1,1.9-.74,2.38,2.38,0,0,0,.6-.42l.44-.08,1.08-.7c-1.13.56-2.29,1.1-3.49,1.61a86.63,86.63,0,0,1-23.64,7,58.64,58.64,0,0,1-13.54.21,69.33,69.33,0,0,1-12.49-2.38,50.53,50.53,0,0,1-11.7-5.09c-1.44-.89-3.55-2-5.58-3.32-1-.6-2-1.29-2.94-1.89l-1.31-.86-1.1-.8c-3.76-2.28-2.57-.12-2.42.05a12.46,12.46,0,0,0,3,2.93l5.16,3.68c-1.56-1.12-.88-.87.52-.05s3.63,2.1,5.16,3.12a29.83,29.83,0,0,0,8.33,3.89c3.22,1,6.67,1.69,9.87,2.34a52.86,52.86,0,0,0,5.29.62,56.2,56.2,0,0,0,14.85-.56A87.67,87.67,0,0,0,282,602,62.22,62.22,0,0,0,289,598.9c1.53-.76,3.26-1.39,4.5-2a55.16,55.16,0,0,0,5.11-2.89c-1.75,1-3,1.77-5,2.78-1.33.68.8-.74,1.65-1.24.36-.23,1.06-.32,1.41-.57.81-.44,1.51-.93,2.34-1.46.35-.26.42,0,.59-.15,1.14-.72,1.89-1.51,2.67-1.88l1.61-.85c.31-.18.63-.35,1-.56l.59-.44a.68.68,0,0,1-.42,0L306,589l-1.08.56a.68.68,0,0,0,.42,0l4.59-3.4h0a19.42,19.42,0,0,1-2.87,1.71c.44-.23.43-.14,0,.18l-.43.14a11.27,11.27,0,0,1,2.46-1.55l.49-.42c.27-.14.3-.07.39-.06l.53-.38a9.73,9.73,0,0,0-1,.49Z"/><path class="cls-3" d="M299,592.58l.46-.28c-.63.35-1.26.69-1.9,1A4.64,4.64,0,0,0,299,592.58Z"/></g><g class="cls-2"><path class="cls-3" d="M462,494.24l-.23.4a.79.79,0,0,1,.19-.17C462,494.4,462,494.33,462,494.24Z"/><path class="cls-3" d="M461.52,495l0,.07,0,.07Z"/><path class="cls-3" d="M461.2,495.72a2,2,0,0,0,.18-.36A1.21,1.21,0,0,0,461.2,495.72Z"/><path class="cls-3" d="M461.55,495.19c-.06,0-.1,0-.09-.05h0l-.08.22A.91.91,0,0,1,461.55,495.19Z"/><path class="cls-3" d="M461.55,495.19l.14-.08Z"/><path class="cls-3" d="M462.19,495.78c0,.09-.21,0-.24.12a3.34,3.34,0,0,1-.38,1c0,.17-.4.24-.44.4-.14.35-.4,1.35-.1.86.42-.75.7-1.24,1-1.93l.61-1.78a3.23,3.23,0,0,1,.27-.44l-.43.56C462.3,494.81,462.39,495.3,462.19,495.78Z"/><path class="cls-3" d="M463.47,491.29l0,.25a1.68,1.68,0,0,0-.47,1l.18-.1c.07-.2,0-.25-.11-.1a3.29,3.29,0,0,0,.64-1.09C463.62,491.23,463.55,491.19,463.47,491.29Z"/><path class="cls-3" d="M463.77,491l-.08.23h0l.07-.24Z"/><path class="cls-3" d="M460.51,497.25c-.28.44-.55.88-.83,1.29l-.9,1.16c0,.09,0,.16-.08.23a.69.69,0,0,0-.2.13l-.26.33-.08.13h0c0,.08,0,.09.07.07l.16-.07-.16.07a1.62,1.62,0,0,0-.19.13,1.26,1.26,0,0,1-.26.31,1.37,1.37,0,0,1,.26-.31,1.32,1.32,0,0,0,.12-.2l0-.07c-.2.26-.43.47-.65.71l-.11.17c-.13.19-.26.39-.44.42l-.12.13,0,0-.06,0-.5.53a2.26,2.26,0,0,1-.22.44l-.2,0a.55.55,0,0,1-.11.27,2.75,2.75,0,0,0,.4-.12c.21,0,.08-.42.37-.42-.29,0-.16.39-.37.42a2.75,2.75,0,0,1-.4.12,1.27,1.27,0,0,1-.62.46.91.91,0,0,1,.62-.46.55.55,0,0,0,.11-.27l.2,0a2.26,2.26,0,0,0,.22-.44c-.32.34-.69.65-1,1a47.92,47.92,0,0,1-7.29,5.72,37.85,37.85,0,0,1-4.51,2.4c-3,1.34-5.61,2.92-8.93,3.6-1.26.27-3.43,1.21-4.6,1.62-1.43.92-.3,1.62-.2,1.64,1.25.48,1.87-.19,4-.47-1.45.22.79-.89,2.27-.86,2.18.1,4.49-1.71,6.75-2.65a14.34,14.34,0,0,0,1.78-.91c3.48-1.6,6.26-3.91,9.35-6.49a12.66,12.66,0,0,0,1.89-2.23c.43-.49,1-.9,1.38-1.29a14.67,14.67,0,0,0,1.33-1.83c-.47.61-.79,1.08-1.33,1.76-.37.44,0-.51.23-.84.06-.16.43-.18.5-.33a5.78,5.78,0,0,0,.55-.91c.06-.16.24,0,.27-.07.27-.44.26-.95.51-1.17l.5-.49a2.16,2.16,0,0,0,.27-.33l.12-.26a.56.56,0,0,1-.29,0c.09-.11.26-.22.34-.33-.08.11-.25.22-.34.33a.56.56,0,0,0,.29,0c.27-.63.56-1.37.87-2h0a3.19,3.19,0,0,1-.79,1c.14-.13.18-.07.08.12l-.19.07a1.82,1.82,0,0,1,.62-.91l.06-.24a.18.18,0,0,1,.22,0l.12-.22A3.48,3.48,0,0,0,460.51,497.25Z"/><path class="cls-3" d="M458,500.73l.11-.17c-.17.2-.37.39-.55.59C457.77,501.12,457.9,500.92,458,500.73Z"/></g><path d="M378.5,478.5c-5.06,13.76-18.31,24.74-30.78,28.18-6.33,1.76-12.46,1.57-17.22-1.18-4.58-2.65-7.55-7.47-9.15-13.25a46.82,46.82,0,0,1-1.1-17.62,36.93,36.93,0,0,1-10.77,13.81,18.68,18.68,0,0,1-10.7,4.06,17,17,0,0,1-6.4-1.16,26,26,0,0,0,2.2-5.68,21.72,21.72,0,0,0,.5-8.15c-1.25-9.63-8.93-17.42-20.1-22-1.46-.6-3-1.14-4.57-1.62a29.32,29.32,0,0,1,1.19-6.41c2.43-7.94,8.85-16.26,16.75-20.4a21.36,21.36,0,0,1,11.52-2.6c14.81,1.13,24.88,20,24.09,35.91,4.71-10.81,14.34-21,24.46-25.6,6.18-2.85,12.54-3.65,18.08-1.31a19.32,19.32,0,0,1,8,6.48C381.61,449.57,383.08,466.06,378.5,478.5Z"/><g class="cls-2"><path class="cls-3" d="M378.9,447.75l-.68-1.79-.8-1.74c.25.59.51,1.17.73,1.79A16.1,16.1,0,0,0,378.9,447.75Z"/><path class="cls-3" d="M375.68,441.13l-.38-.57-.35-.47Z"/><path class="cls-3" d="M371.27,436.11a24,24,0,0,1,2.42,2.41A15.71,15.71,0,0,0,371.27,436.11Z"/><path class="cls-3" d="M374.82,440.07c-.21-.36-.29-.55.12,0v0a18.42,18.42,0,0,0-1.26-1.57A14.49,14.49,0,0,1,374.82,440.07Z"/><path class="cls-3" d="M374.82,440.07l.62,1.07Z"/><path class="cls-3" d="M373.14,439.28c-.44-.47-.14-.53-1.08-1.42a16.68,16.68,0,0,0-14.44-5.08,23.1,23.1,0,0,0-3,.61,11.65,11.65,0,0,0-1.55.52c-.12.06.24,0,1.33-.31a20.35,20.35,0,0,1,8.78-.32,16.48,16.48,0,0,1,7.41,3.56,20.61,20.61,0,0,1,2.63,2.57,30.42,30.42,0,0,1,2.19,3,33,33,0,0,1,3.21,6.84,37.55,37.55,0,0,1,1.06,4c-.19-.87-.38-1.75-.6-2.66s-.49-1.83-.85-2.78A27.66,27.66,0,0,0,373.14,439.28Z"/><path class="cls-3" d="M379.66,475.43l.27-1.21c.1-.41.15-.73.15-.73a33.52,33.52,0,0,0,1.15-9.07c-.05.45-.11.91-.17,1.37-.11,1.76-.08,2,.11.41a55.92,55.92,0,0,1-2,10.29C379.31,476.3,379.39,476.38,379.66,475.43Z"/><path class="cls-3" d="M378.55,478.44l.63-1.95,0,.07c-.21.65-.41,1.31-.61,1.95Z"/><path class="cls-3" d="M358.08,432.11A29.8,29.8,0,0,0,345.92,436a48.67,48.67,0,0,0-9.89,7.3c-.43.45-.68.81-1.29,1.38a17.08,17.08,0,0,0-1.37,1.32c-.82.85-1.57,1.77-2.33,2.66l-.75,1,0,0c-.38.54-.23.41.05.11l.82-.93-.82.93a17.73,17.73,0,0,0-1.19,1.48c-.63.88-1.24,1.82-1.87,2.8a31.45,31.45,0,0,1,1.87-2.8c.38-.57.77-1.09,1.16-1.62l.34-.46c-.85,1.05-1.63,2.14-2.41,3.24l-1.1,1.69c-.37.56-.7,1.16-1,1.65s-.52,1-.72,1.36-.53,1-.75,1.55l-.34.74-.16.34-.08.16c0,.05,0,0,0,0v-.1c0-.62.07-1.17.1-1.65l0-1.27v-.23c0-.89-.1-1.73-.21-2.72s-.28-2-.47-3c-.3-1.29-.68-2.6-1.1-3.89,0,0-.2-.91-.3-1.35s-.53-1.24-.88-2.1c.33,1.05.58,2,.81,2.92.28,1.34,1.08,2.87,1.16,4.51-.08-1.64-.88-3.17-1.16-4.51-.23-.9-.48-1.87-.81-2.92-.73-1.78-1.76-4.05-2.69-5.84a23.89,23.89,0,0,1,2.69,5.84c.35.86.66,1.59.88,2.1s.3,1.35.3,1.35c.42,1.29.8,2.6,1.1,3.89a43.48,43.48,0,0,0-3.93-11.48,35,35,0,0,0-5.65-8.1,24.15,24.15,0,0,0-7.93-5.69,18.82,18.82,0,0,0-9.6-1.46,23.23,23.23,0,0,0-9.18,3.11,36.76,36.76,0,0,0-13.43,14,31.2,31.2,0,0,0-3.43,9.42c-.08.42-.14.84-.2,1.26l-.08.64-.09.82-.07.83.79.29L272,455l2.37.85c.79.29,1.55.67,2.33,1a39.93,39.93,0,0,1,9.14,5.83,30.34,30.34,0,0,1,3.7,3.82,26.38,26.38,0,0,1,2.81,4.42,23.49,23.49,0,0,1,1.69,4.9,21.44,21.44,0,0,1,.43,5.11,21.86,21.86,0,0,1-.83,5,22.85,22.85,0,0,1-.83,2.41c-.17.41-.31.73-.53,1.21s-.61,1.23-.93,1.84l-.19.36c.48.23,1.07.41,1.61.61s1.2.38,1.5.45a17.23,17.23,0,0,0,2.36.45,16.29,16.29,0,0,0,4.78-.16,20.66,20.66,0,0,0,8.48-3.83,32.32,32.32,0,0,0,6.47-6.43c.46-.6.91-1.21,1.33-1.83l.35-.51.2-.33a14.36,14.36,0,0,0,.73-1.33s0-.05,0,0V479l0,.25,0,.48c0,.33,0,.65-.05,1v.75l0,1.43c0,1,.1,1.9.19,2.86A37.54,37.54,0,0,0,321.88,497a20.63,20.63,0,0,0,7.49,9.25,20.38,20.38,0,0,0,11.88,3,32.58,32.58,0,0,0,9.74-2,47,47,0,0,0,10.33-5.29,52.52,52.52,0,0,0,8.75-7.44,50,50,0,0,0,5.9-7.58,34.51,34.51,0,0,0,2-4c.23-.55.43-1,.59-1.44s.25-.8.34-1.12c.35-1.28.34-1.69.17-1.68-.36,0-1.36,1.77-1.51,2.06a64,64,0,0,1-7.47,10.56c-.78.94-1.72,1.83-2.67,2.83s-2.09,1.95-3.34,2.94a46.29,46.29,0,0,1-9.4,5.89c2.64-1.26,3.42-1.77,3.09-1.47a25.9,25.9,0,0,1-4.14,2.32,34.28,34.28,0,0,1-8.53,2.8,21.86,21.86,0,0,1-9.19-.14,16.21,16.21,0,0,1-7.25-3.92,21,21,0,0,1-4.95-7.69,37,37,0,0,1-2.23-9.78c-.08-.86-.13-1.72-.18-2.59l0-1.31v-1.12c0-.43,0-.88,0-1.32l.06-1.33.13-1.44.29-3,.58-5.83-2.54,5.26-1.3,2.63-.62,1.23c-.21.4-.41.72-.61,1.08-.41.7-.81,1.4-1.23,2l-.37.55-.35.49c-.45.65-.94,1.27-1.43,1.89a27.53,27.53,0,0,1-6.85,6.13,17.75,17.75,0,0,1-6.65,2.53,13.68,13.68,0,0,1-3.73,0,14.54,14.54,0,0,1-1.93-.36l-.3-.09h-.05s-.07,0-.08,0h0l.06-.1c.19-.41.41-.92.59-1.39a24.77,24.77,0,0,0,1-2.91,22.86,22.86,0,0,0-2.5-17.72,30.43,30.43,0,0,0-3.61-4.8,36.13,36.13,0,0,0-4.45-3.95A44,44,0,0,0,275.09,454l-2.77-1-.33-.11h0v-.15a26.27,26.27,0,0,1,1.16-5.33,33.49,33.49,0,0,1,5.18-9.78,34.32,34.32,0,0,1,8.16-7.83,22.18,22.18,0,0,1,10.57-3.92A18.34,18.34,0,0,1,308,428.55a26.76,26.76,0,0,1,7.83,7.36,35.27,35.27,0,0,1,3.77,6.86,47.33,47.33,0,0,1,2.17,6.78c.22.94.41,1.87.56,2.78.09.46.16.91.21,1.36l.1.68c0,.08,0,.31,0,.48l.05.55a47.38,47.38,0,0,1,.13,4.92c0,1.72-.07,3.41-.1,5.07l2.86-6.13.71-1.5c.24-.46.47-.92.71-1.34l.59-1c.14-.26.28-.51.43-.75-.36.57-.55.95-1.15,2s-1,1.9-1.44,2.89-1,2-1.37,2.9l-.65,1.42-.33.71a3.89,3.89,0,0,1-.3.59c0-1.55.07-3.09.1-4.66,0-.86,0-1.59,0-2.39v-1.2l-.08-1c-.12-1.59-.23-2.19-.37-3.13s-.33-1.82-.55-2.79c-.55-2.21-.28-1.46.21.21.23.85.48,1.93.68,3l.13.79c0,.26.09.48.12.88.07.71.15,1.31.18,1.87,0,.94,0,2.09-.06,3.6s-.14,3-.2,4.2a3,3,0,0,0,.29-.58l1.51-3.27,1.55-3.27c.26-.49.51-1,.78-1.45l.57-1,1.15-1.89c.71-1.11.82-.84,1.17-1.39a48.36,48.36,0,0,1,6.36-7.74,47.18,47.18,0,0,1,4.34-3.57c.88-.7,1.82-1.3,2.79-2,.61-.4,1.23-.85,1.89-1.24a3.52,3.52,0,0,1-1,.31c.94-.56,2.32-1.29,3.32-1.75-1,.46-2.38,1.19-3.32,1.75a3.52,3.52,0,0,0,1-.31,34,34,0,0,1,7.84-3.63,21.74,21.74,0,0,1,8.86-.92l-.07,0a25.65,25.65,0,0,0-10.27,1.06c1.5-.41,1.32-.31-.35.26-.44.11-.88.23-1.31.37a21.19,21.19,0,0,1,8.84-1.94s1.32-.07,2,0c1,.11.92.2,1.12.28a17.38,17.38,0,0,1,2,.37,14.86,14.86,0,0,0-3.46-.7A18.32,18.32,0,0,0,358.08,432.11Z"/><path class="cls-3" d="M329.08,451.33c.26-.39.59-.87,1-1.36a51.9,51.9,0,0,0-3.77,5.57c.32-.41.74-1.14,1.23-1.85S328.51,452.13,329.08,451.33Z"/></g><path d="M628.83,283.62C622,387.48,506.53,437.79,414.75,441.8a93.34,93.34,0,0,0-8.07-9.82,281.39,281.39,0,0,0,67.55-9.19,52.88,52.88,0,0,0,39.57-52.17c-.62-31.86-11.76-63.18-40.75-79.84-10.71-5.76-1.39-22.51,9.16-16.39,6.66,5.84,10.75,17,16.3,24.13,19.18,25.8,26.53,57.43,25.55,89a10.3,10.3,0,0,0,15.36,9.24,208.28,208.28,0,0,0,22.94-15.06,93.87,93.87,0,0,0,33.5-100c-11.53-41.57-35.78-79.41-75.09-99.54-10-4.66-2.46-20.34,7.44-15.34,38.44,35.7,65.28,65.89,79,112.08a6.14,6.14,0,0,0,12-1.15c8.27-84.3-22.29-183.87-112.39-204-12.53-2.65-6.12-21.68,5.52-16C609.82,100.56,639,182.48,628.83,283.62Z"/><g class="cls-2"><path class="cls-3" d="M609.5,145.19c-.64-1.28-1.28-2.56-1.93-3.84l-2.1-3.76c-.72-1.25-1.37-2.53-2.14-3.75l-2.28-3.67,2.26,3.7c.76,1.23,1.41,2.53,2.12,3.81l2.26,4Z"/><path class="cls-3" d="M591.92,117.11l-1.85-2.43-1.7-2,1.83,2.17Z"/><path class="cls-3" d="M571.58,95.12c2,1.73,3.79,3.62,5.63,5.38s3.52,3.6,5.19,5.4c-1.48-1.59-3-3.36-4.86-5.1L574.72,98l-1.51-1.46Z"/><path class="cls-3" d="M588,112.43c-1.16-1.43-1.71-2.15.27.16l.08.1-2.9-3.42c-1-1.16-2-2.23-3.07-3.37C584.63,108.24,586.45,110.5,588,112.43Z"/><path class="cls-3" d="M588,112.43l2,2.4c.63.84,1.19,1.61,1.48,2l-1.55-2.11Z"/><path class="cls-3" d="M582.44,107.29c-1-1.1-1.39-1.56-2-2.28a37.47,37.47,0,0,0-3.59-3.81,195.86,195.86,0,0,0-30.38-24.38c-1.22-.85-2.7-1.7-4.22-2.68l-4.78-3-4.9-2.82c-1.57-.9-3-1.77-4.38-2.41-3.14-1.57-7.46-3.81-12.06-5.81l-3.42-1.55c-.58-.27-1.12-.49-1.67-.71a10.91,10.91,0,0,0-1.66-.42,6.89,6.89,0,0,0-5.72,1.65A8.65,8.65,0,0,0,501.19,63a8.8,8.8,0,0,0-.39,2.27c0,.28,0,0,.14-.89a9.22,9.22,0,0,1,.52-1.84A8.67,8.67,0,0,1,503,59.93a6.86,6.86,0,0,1,4.48-2.39,7.94,7.94,0,0,1,2.52.2,14.33,14.33,0,0,1,2.44.93c3.31,1.55,6.55,3,9.61,4.48l4.51,2.29c1.49.76,3,1.48,4.37,2.3l4.23,2.36c1.41.77,2.79,1.55,4.13,2.4a197.63,197.63,0,0,1,31.46,23.21,169.34,169.34,0,0,1,40.66,55.14q1,2.27,2,4.47c.67,1.47,1.19,3,1.79,4.44s1.17,2.92,1.7,4.38l1.52,4.43a172.7,172.7,0,0,0-9.83-23.75C603.17,133.94,595.23,121.38,582.44,107.29Z"/><path class="cls-3" d="M630.2,268.84c.21-3,.37-9,.37-9a266.59,266.59,0,0,0-1.07-41.36c.21,2,.27,4.11.41,6.21.34,4,.44,6.23.48,6.57,0,.17,0-.13,0-.92s-.07-2.06-.2-3.84c.16,2,.22,4.06.3,6.08s.18,4,.2,6c0,4,.14,7.94,0,11.88,0,7.87-.51,15.67-1,23.56A47,47,0,0,0,630.2,268.84Z"/><path class="cls-3" d="M628.89,283.29c.27-3.09.54-6.19.8-9.23l-.05.33c-.26,3.1-.53,6.2-.78,9.23Z"/><path class="cls-3" d="M518.54,60.49c-2.26-1-4.5-2.1-6.77-3.1a9.38,9.38,0,0,0-3.61-.79,7.43,7.43,0,0,0-3.58.9,9.22,9.22,0,0,0-4.33,5.75,8.67,8.67,0,0,0,1,7.06,7.74,7.74,0,0,0,2.68,2.44c.28.14.54.29.82.41l.85.32c.58.17,1.17.32,1.75.47l7,1.78a136.48,136.48,0,0,1,13.48,4.66,125.54,125.54,0,0,1,45.44,31.46c1,1,1.81,1.87,2.67,2.86s1.82,2.08,3,3.53c1.77,2.23,3.46,4.57,5.19,6.83,1.51,2.21,3,4.39,4.53,6.61s2.83,4.51,4.17,6.8l2.75,4.91.08.13c.75,1.3,1,1.78,1,1.7a14.28,14.28,0,0,0-.75-1.52l-2.65-4.94,2.65,4.94c1.18,2.22,2.35,4.78,3.82,7.71,1,2.21,2,4.5,3.06,6.81s1.91,4.77,2.88,7.21c-1.11-2.71-2-5.26-3.08-7.58l-2.86-6.44-2-4.07c-.68-1.33-1.32-2.67-2.07-4l-1.28-2.26a187.07,187.07,0,0,1,14.44,33.42l2.25,7.29a208.23,208.23,0,0,1,5.16,22.4c.39,2.11.7,4.28,1.06,6.43l-.18-1.24c.14.95.26,1.76.36,2.42a271.63,271.63,0,0,1,2.6,27.44c.11,3,.31,6,.31,9.05l.06,4.6c0,1.53,0,3.07-.06,4.61,0,0,0,1-.1,2.33s-.14,2.84-.23,3.86c-.08,2.5-.18,6.07-.55,10.25.25-2.48.48-4.84.61-7.12s.35-4.45.4-6.57c.13-3.09.21-6.55.1-10.15,0-1.8,0-3.64-.1-5.48s-.11-3.68-.12-5.51c0,1.83.05,3.67.12,5.51s.05,3.68.1,5.48c.11,3.6,0,7.06-.1,10.15,0,2.12-.26,4.3-.4,6.57s-.36,4.64-.61,7.12c-.09,1.08-.18,2.21-.27,3.37a6.5,6.5,0,0,1-1.08,3.3,6.19,6.19,0,0,1-6.51,2.34,5.48,5.48,0,0,1-3.08-1.95,9.61,9.61,0,0,1-1.5-3.34l-2.12-6.84,2.53,7.74a6.48,6.48,0,0,0,1.92,3.08,5.55,5.55,0,0,0,3.21,1.32,6,6,0,0,0,5.71-2.81,2.7,2.7,0,0,0,.36-.72,6.71,6.71,0,0,0,.27-.75,12,12,0,0,0,.25-1.59c.11-1.07.21-2.12.31-3.15.37-4.18.47-7.75.55-10.25.09-1,.19-2.57.23-3.86s.1-2.33.1-2.33c0-1.54.08-3.08.06-4.61l-.06-4.6c0-3.05-.2-6.07-.31-9.05a262,262,0,0,1-.21,27.16l-.19,3.42-.29,3.42-.29,3.43a8.22,8.22,0,0,1-.74,3.23,5.92,5.92,0,0,1-5.47,3,5.61,5.61,0,0,1-5.08-3.62,194.83,194.83,0,0,0-17.45-40.89,223.51,223.51,0,0,0-25.78-35.54c-9.59-11-19.88-21.26-30.43-31.21l-4-3.72-1-.93-.52-.49a.72.72,0,0,0-.35-.22l-.33-.15a8.65,8.65,0,0,0-2.74-.75,7.9,7.9,0,0,0-5.41,1.47,10.1,10.1,0,0,0-3.41,4.45,9.37,9.37,0,0,0-.48,5.59,8,8,0,0,0,1.15,2.61,8.43,8.43,0,0,0,2,2,27.23,27.23,0,0,0,2.42,1.39l2.37,1.31c1.56.9,3.19,1.7,4.71,2.68,3,2,6.15,3.82,9,6l2.2,1.6c.73.54,1.47,1.07,2.15,1.66l4.19,3.48a135.3,135.3,0,0,1,15.31,15.53c2.44,2.72,4.54,5.72,6.79,8.6,1.06,1.49,2.08,3,3.12,4.53l1.55,2.27,1.44,2.34c1,1.57,1.93,3.13,2.87,4.71l2.66,4.84c.92,1.6,1.71,3.27,2.53,4.93s1.66,3.3,2.4,5c1.48,3.4,3,6.77,4.3,10.27s2.55,7,3.77,10.52A123.48,123.48,0,0,1,598,295.16a98.76,98.76,0,0,1,.09,22.67l-.8,5.66c-.41,1.87-.81,3.74-1.22,5.61a26.46,26.46,0,0,1-.74,2.78l-.81,2.77a56.84,56.84,0,0,1-1.89,5.46,91.83,91.83,0,0,1-28.92,39.65c-1.56,1.32-3.22,2.55-4.88,3.75s-3.34,2.39-5,3.54c-3.39,2.3-6.85,4.49-10.35,6.58l-2.64,1.55a29.91,29.91,0,0,1-2.63,1.43,9.25,9.25,0,0,1-5.61.65,10.1,10.1,0,0,1-5-2.62,9.23,9.23,0,0,1-2.67-4.93,6.71,6.71,0,0,1-.17-1.41c0-.47,0-.95,0-1.47l0-3.06c.06-2,0-4.07,0-6.1q-.13-6.09-.72-12.14a150.92,150.92,0,0,0-4.21-23.85,127.29,127.29,0,0,0-20.36-43.28c-3.77-4.91-6.44-10.55-9.74-15.91a44.25,44.25,0,0,0-5.68-7.6l-.88-.83-.22-.22a1.33,1.33,0,0,0-.35-.26l-.59-.31a10.26,10.26,0,0,0-2.38-.87,9,9,0,0,0-5.07.29,11.21,11.21,0,0,0-6.64,7.14,10.4,10.4,0,0,0-.4,5,9,9,0,0,0,2.21,4.56c.27.32.6.59.9.89s.67.52,1,.76l1,.63,1,.61,3.83,2.41c1.23.87,2.42,1.8,3.63,2.7a38.51,38.51,0,0,1,3.47,2.89,76.7,76.7,0,0,1,6.41,6.34l2.85,3.48a18,18,0,0,1,1.35,1.8l1.29,1.84,1.29,1.85,1.15,1.93,1.15,1.93.58,1,.5,1,2,4,1.76,4.13a104,104,0,0,1,5.21,17.15,133,133,0,0,1,2.4,17.76c.11,3,.34,6,.19,8.93,0,.74,0,1.48-.09,2.21l-.25,2.2a34,34,0,0,1-.71,4.37,51.85,51.85,0,0,1-33.43,38.31l-4.24,1.3-4.38,1.11c-2.92.7-5.86,1.37-8.81,2Q452,426.73,443,428t-18.09,2c-3,.24-6.07.42-9.11.56l-4.58.16-7.11.14L407,434l1.26,1.41.76.89q1.53,1.8,2.95,3.68l1.45,1.95.62.86.15.21h.26l.53,0,1.49-.09,4.81-.27c1.6-.07,3.21-.2,4.81-.35l4.82-.41c3.21-.29,6.42-.72,9.64-1.08a311.46,311.46,0,0,0,38.55-7.43,291,291,0,0,0,41.16-14,246.56,246.56,0,0,0,22.62-11.08c3.81-2,7.48-4.34,11.23-6.58,1.84-1.18,3.65-2.41,5.48-3.61l2.73-1.82,2.66-1.93a176.2,176.2,0,0,0,36.83-35.19,142.83,142.83,0,0,0,20.56-37.32c.17-.47.36-.92.52-1.39l.42-1.38c.28-.91.56-1.8.82-2.67.52-1.74,1.06-3.38,1.49-4.95l2-8.58c.4-2.57.75-4.83,1.06-6.81.14-1,.28-1.9.4-2.75s.13-1.65.18-2.38c.43-5.81.43-7.56.24-7.24a39.28,39.28,0,0,0-.93,5.2c-.17,1.25-.35,2.51-.49,3.56s-.34,1.87-.39,2.24c-.46,2.39-.91,4.74-1.35,7.08s-1.17,4.59-1.73,6.87c-.31,1.14-.54,2.29-.92,3.41l-1.1,3.35c-.76,2.23-1.39,4.51-2.35,6.69a134,134,0,0,1-14,27.14,156.53,156.53,0,0,1-24.75,28.87,203,203,0,0,1-41.74,29.13c5.95-3.14,9.7-5.5,11.86-6.75s2.62-1.57,1.82-1-3,1.89-6.22,3.85c-1.58,1-3.5,2-5.61,3.22s-4.45,2.49-7,3.75A268.52,268.52,0,0,1,496.3,426.1a289.1,289.1,0,0,1-41.93,10.27c-8,1.37-16.36,2.42-25.1,3.2-2.19.17-4.39.38-6.62.53l-6.75.36-.47,0c-.05,0-.08,0-.1-.07l-.86-1.17c-.69-.94-1.41-1.87-2.14-2.78s-1.49-1.83-2.27-2.72l-.41-.48h1l.76,0,1.59-.05c2.11-.05,4.24-.17,6.38-.27,4.27-.25,8.59-.59,12.93-1,8.69-.91,17.51-2.24,26.35-4,4.42-.88,8.85-1.91,13.28-3,1.11-.3,2.21-.53,3.33-.88l3.35-1c1.11-.37,2.18-.86,3.28-1.28.54-.23,1.1-.43,1.63-.68l1.57-.8a49.46,49.46,0,0,0,11.72-7.9,52.78,52.78,0,0,0,9.34-10.71,53.43,53.43,0,0,0,8.9-26.87l.08-3.57c0-1.19-.07-2.36-.11-3.53s-.07-2.35-.17-3.52l-.3-3.51c-.14-2.34-.54-4.66-.82-7s-.8-4.62-1.21-6.92a101.07,101.07,0,0,0-9.31-26.25,76.41,76.41,0,0,0-16.78-21.59l-1.62-1.45-.82-.72-.87-.66-3.52-2.65c-1.19-.87-2.49-1.61-3.74-2.42l-1.89-1.2a14.28,14.28,0,0,1-1.65-1.08A6.94,6.94,0,0,1,469.8,282a9.37,9.37,0,0,1,4.17-6.44,7,7,0,0,1,3.66-1,7.89,7.89,0,0,1,3.74,1s0,0,.06.05l.18.17.4.38a8.53,8.53,0,0,1,.79.8l.76.83.73.88a42.45,42.45,0,0,1,2.7,3.8c1.72,2.66,3.29,5.49,4.94,8.38a75,75,0,0,0,5.52,8.63,127.83,127.83,0,0,1,21.26,46.95,153.48,153.48,0,0,1,3.61,25.47c.12,2.14.24,4.27.25,6.41l.06,3.21,0,3.21,0,1.6c0,.56,0,1,0,1.68a9.53,9.53,0,0,0,.16,1.84l.17.91.28.89a12,12,0,0,0,1.73,3.28,12.33,12.33,0,0,0,2.67,2.53,11.59,11.59,0,0,0,6.95,2.16l.93,0c.31,0,.61-.1.92-.14a9.25,9.25,0,0,0,1.79-.47,11.49,11.49,0,0,0,1.69-.73c.56-.28,1-.54,1.46-.81q5.63-3.25,11-6.82T563,383.1c1.7-1.36,3.37-2.77,5.06-4.15a29.63,29.63,0,0,0,2.42-2.2l2.37-2.26a95.38,95.38,0,0,0,25.28-45.17,93.85,93.85,0,0,0,2.56-26.1c-.1-2.2-.34-4.39-.51-6.58a32.91,32.91,0,0,0-.44-3.27l-.52-3.26-.26-1.63-.38-1.61-.76-3.22c-.46-2.17-1.13-4.25-1.76-6.35a185.19,185.19,0,0,0-21.94-48.06,152.14,152.14,0,0,0-16.64-21.09A130.79,130.79,0,0,0,537,190.35l-1.39-1-1.44-.92-2.89-1.85c-1-.6-1.92-1.25-2.91-1.83l-3-1.67-3-1.67a15,15,0,0,1-2.63-1.6,6.15,6.15,0,0,1-2.2-5,8.42,8.42,0,0,1,2.15-5.35,6.42,6.42,0,0,1,5-2.27,7.05,7.05,0,0,1,2.78.73l.06,0,.27.25.63.59L529.6,170l5,4.75c14.2,13.54,27.1,26.73,38,40.58,1.34,1.75,2.73,3.44,4,5.2l3.8,5.27c1.24,1.76,2.39,3.57,3.58,5.34s2.28,3.59,3.38,5.4c2.25,3.58,4.18,7.31,6.18,11,1.81,3.75,3.71,7.43,5.26,11.24.59,1.39,1.2,2.77,1.77,4.17l1.59,4.27c.52,1.43,1.1,2.84,1.56,4.29l1.4,4.36.7,2.18.35,1.08c.14.4.31.82.47,1.23a6.79,6.79,0,0,0,3.86,3.54,7.56,7.56,0,0,0,5.18,0,6.82,6.82,0,0,0,3.86-3.45c.16-.41.33-.82.46-1.23l.24-1.27c.07-.74.13-1.48.2-2.22.12-1.47.25-2.94.37-4.39.25-2.9.35-5.76.52-8.55s.16-5.52.24-8.16,0-5.21,0-7.68c-.59-31-5.91-57.66-14.93-81.61,2.47,6.71,4.58,13.05,6.24,19.32.42,1.56.84,3.11,1.25,4.66s.73,3.11,1.09,4.66c.77,3.09,1.32,6.21,1.95,9.35s1.07,6.32,1.62,9.56.91,6.57,1.25,10,.71,6.95.91,10.62.39,7.48.54,11.46c.07,5.32,0,7.05,0,6.44s0-3.56-.21-7.61L621,237c-.17-2.42-.36-4.95-.55-7.46s-.51-5-.74-7.24-.57-4.35-.78-6.1c-.36-3-1-6.8-1.53-10.63-.31-1.91-.68-3.81-1-5.61s-.65-3.49-1-5c-.74-3.19-1.44-6.32-2.32-9.39-.43-1.53-.85-3.07-1.27-4.6s-1-3-1.43-4.57c-.91-3.07-2.08-6.09-3.17-9.21-.53-1.57-1.22-3.1-1.84-4.69s-1.24-3.19-2-4.79c-2.52-5.48-1.94-5-3.3-7.67a153.3,153.3,0,0,0-13-22.15c-2.13-3.16-4.4-6-6.49-8.64-1-1.36-2.18-2.56-3.22-3.8s-2-2.46-3.1-3.55A128.42,128.42,0,0,0,555,94.65l-3.14-2.29-3.29-2.11-3.34-2.12-3.55-2-2.26-1.23c-.75-.42-1.52-.82-2.32-1.17l-4.78-2.22c2.5,1.26,3.37,1.76,4.17,2.24a129.35,129.35,0,0,0-15.92-6.62,129.35,129.35,0,0,1,15.92,6.62c-.8-.48-1.67-1-4.17-2.24-1.42-.7-2.92-1.23-4.42-1.83L523.37,78l-4.7-1.5c-1.58-.48-3.14-1.07-4.78-1.43L509,73.8a22.15,22.15,0,0,1-4.71-1.47A7,7,0,0,1,501,68.87a8.35,8.35,0,0,1-.48-4.8,9.44,9.44,0,0,1,2.1-4.43,7.24,7.24,0,0,1,4.15-2.47c3.35-.74,6.43,1.48,9.57,2.76l4.7,2.15,4.59,2.31c1.52.78,3.06,1.52,4.56,2.33l4.43,2.46-.31-.19c-1.72-.95-3.42-1.94-5.15-2.86L524,63.46l-2.61-1.33-2.66-1.24-5.34-2.48a11.22,11.22,0,0,0-5.54-1.53,7.36,7.36,0,0,0-5.14,2.39,9.59,9.59,0,0,0-2.48,5.28,8.2,8.2,0,0,0,1.22,5.76,7.76,7.76,0,0,1-1.26-3.53c-.06-.78,0-1.07,0-.91a11.45,11.45,0,0,0,.25,1.87,7.4,7.4,0,0,0,2.34,3.84,7.89,7.89,0,0,0,2.58,1.56c.94.37,1.95.59,2.93.88l-2.54-.65a9.61,9.61,0,0,1-2.35-1.13,7,7,0,0,1-1.87-1.8,7.1,7.1,0,0,1-1.13-2.33,9.56,9.56,0,0,1,2.8-9.5,7.38,7.38,0,0,1,4.68-1.91,10,10,0,0,1,4.91,1.24c3.08,1.46,6.15,2.86,9.13,4.34l8,4A45.66,45.66,0,0,1,534.35,69c1.34.76,2.71,1.48,4,2.28l4,2.44-2.57-1.64c-1-.65-2.15-1.37-3.4-2.07-2.49-1.4-5.23-3.07-7.88-4.46l-7-3.61Z"/><path class="cls-3" d="M599.84,151.74l-3.4-6.79a188.68,188.68,0,0,1,11.87,28.19A181.59,181.59,0,0,0,599.84,151.74Z"/></g><path d="M309.27,275.81c-32,6.69-51,24.15-60.13,47.53-13.4,34.22,4.7,72.81,39.3,85.2q7.14,2.56,14.39,4.79a58.77,58.77,0,0,0-9.34,7.79c-185.06-60.35-205.2-232-48.67-343,4.29-3.4,8.84-6.93,13-10.45,8.33-7.24,19.7,5.94,11.09,13a211.83,211.83,0,0,0-54.21,38c-43.49,39.18-73.47,100.12-61.59,158.07,1.49,7.3,11.9,7.51,13.69.27,12-48.58,38.07-79.57,89.32-101.6,16-7.31,19.5,20.14,2.19,17.08-14.5-3.59-28.54,4.53-39.58,13.19-27,21.43-40,54.52-44.16,88.28a68.94,68.94,0,0,0,18.83,56.27,199.55,199.55,0,0,0,26.66,23.06,8.7,8.7,0,0,0,13.77-6.78c1-27.59,7.94-55.84,28.72-75.06,10.93-10.75,24-19,36.05-28.49C306.81,256,317.68,269,309.27,275.81Z"/><g class="cls-2"><path class="cls-3" d="M236.41,340.92c-1,5.11-1.74,10.31-2.25,15.53.31-2.62.57-5.21,1-7.85C235.67,345.21,236,343.46,236.41,340.92Z"/><path class="cls-3" d="M232.35,370.53a8.67,8.67,0,0,1-1.69,2c-.32.24-.63.5-.94.72s-.64.39-1,.54A8.36,8.36,0,0,0,232.35,370.53Z"/><path class="cls-3" d="M210.15,365.29c1.85,1.54,3.7,3,5.53,4.4l2.74,2.06c.92.66,1.82,1.37,2.74,1.9-.81-.48-1.63-1.11-2.49-1.74l-2.65-2C214.19,368.52,212.23,367,210.15,365.29Z"/><path class="cls-3" d="M228.46,374.07a5.76,5.76,0,0,1-1.42.41s.06,0,.32-.11l.53-.16.77-.33.1-.05a8.27,8.27,0,0,1-7.6-.18A8.35,8.35,0,0,0,228.46,374.07Z"/><path class="cls-3" d="M228.46,374.07a8.79,8.79,0,0,0,2.35-1.4,11.17,11.17,0,0,0,.91-.92l.58-.71A8.74,8.74,0,0,1,228.46,374.07Z"/><path class="cls-3" d="M221.64,374.89a6.16,6.16,0,0,1-1.47-.81,10.32,10.32,0,0,1-1-.74c-.66-.55-1.61-1.29-3.79-2.93-5.1-3.85-9.67-7.64-14-11.56a121.62,121.62,0,0,1-12.3-12.54,61.48,61.48,0,0,1-5.59-8.05c-.83-1.56-1.75-3.07-2.43-4.59-.37-.74-.72-1.47-1.06-2.16s-.6-1.38-.87-2c-.68-1.46-1.31-3.27-2-5.24l-1-3.1c-.32-1.07-.57-2.19-.86-3.3A72.82,72.82,0,0,1,173.47,305c-.18-3.71,0-6.42,0-7,0-.29,0,0-.07.9s-.17,2.55-.08,5a69.35,69.35,0,0,0,11.17,36.26c.41.62.78,1.24,1.21,1.84l1.28,1.76c.83,1.2,1.79,2.3,2.7,3.43,1.89,2.23,3.9,4.34,6,6.41,4.18,4.15,8.68,8.23,13.72,12.36q3.07,2.51,6.22,4.88c1,.79,2.1,1.57,3.16,2.33a12.31,12.31,0,0,0,3.55,2,9.4,9.4,0,0,0,8-1.12,9.22,9.22,0,0,0,4.07-6.91c.26-5.25.52-10.4,1.16-15.63a149.21,149.21,0,0,1,2.78-15.69,105.54,105.54,0,0,1,5.49-16.4,108.35,108.35,0,0,0-6.86,22.3,130.59,130.59,0,0,0-2.29,18.39c-.14,1.72-.15,3.49-.23,5.31a18.08,18.08,0,0,1-.26,2.85,7.2,7.2,0,0,1-.42,1.44c-.1.24-.18.48-.29.71l-.38.67a9.28,9.28,0,0,1-4.81,4A9,9,0,0,1,221.64,374.89Z"/><path class="cls-3" d="M310,263.77a9.23,9.23,0,0,0-4.38-2.64,7.62,7.62,0,0,0-2.19-.22c-.56,0-.91.1-.91.1a8.55,8.55,0,0,0-4.13,2l-3.69,2.8-7.54,5.58c-5.08,3.73-10.23,7.52-15.16,11.58,1.47-1.15,3-2.28,4.52-3.42,5.8-4.43,6.46-5,1.24-1.12,6-4.44,11.88-8.57,17.59-12.9,1.44-1.06,2.82-2.21,4.27-3.25a7.38,7.38,0,0,1,5.1-1.19,8.53,8.53,0,0,1,4.72,2.37,9.25,9.25,0,0,1,2.66,4.59,7.5,7.5,0,0,0-.25-1.19A8.75,8.75,0,0,0,310,263.77Z"/><path class="cls-3" d="M309.52,275.63a8,8,0,0,0,2.41-3.43,7.43,7.43,0,0,0,.17-4.15l0,.3a7.29,7.29,0,0,1-.36,4.16,8.24,8.24,0,0,1-2.5,3.32Z"/><path class="cls-3" d="M176.42,319.79a68.64,68.64,0,0,1-1.62-26.56A177,177,0,0,1,180,267.64c4.66-16.55,12-32.1,22.33-45.15a63.21,63.21,0,0,1,5-6c.91-.92,1.75-1.93,2.72-2.8l2.84-2.69c.86-.86,1.79-1.65,2.72-2.43l2.78-2.35c1.88-1.52,3.83-3,5.81-4.33,1.38-1,2.81-1.9,4.29-2.8l.12-.07c2.33-1.42,1.61-1,.14-.2-.82.46-1.59.93-2.31,1.39s-1.41.87-2,1.28c.39-.26,1.11-.73,1.92-1.23s1.69-1,2.41-1.44a65,65,0,0,1,7-3.55A39.07,39.07,0,0,1,249,191.84a37,37,0,0,0-3.81.48c-.61.11-1.2.27-1.79.39s-1.15.26-1.7.44c-1.1.32-2.17.63-3.16,1s-2,.74-2.86,1.13a61.29,61.29,0,0,0-7.24,3.82c-.67.4-1.32.83-2,1.27a65.69,65.69,0,0,1,7.22-4.09,46.47,46.47,0,0,1,7.7-3,32.24,32.24,0,0,1,16.31-.72,17.52,17.52,0,0,0,3.7.34,10,10,0,0,0,3.23-.65,7.88,7.88,0,0,0,4.34-4,10.45,10.45,0,0,0,.92-5.58,9.81,9.81,0,0,0-4.76-7.74,8.92,8.92,0,0,0-5.91-.7c.37-.05.77-.12,1.15-.16l-1.23.19a9.5,9.5,0,0,0-1,.25,55.75,55.75,0,0,0-5.79,2.44l-5.71,2.6L241,182.42l-2.81,1.43c-.92.5-1.83,1-2.74,1.55l-3.55,2.08c-1.19.69-2.39,1.38-3.54,2.18-2.31,1.55-4.69,3-7,4.65l-4.63,3.24c-1.86,1.32-4.27,3.53-7.21,6l5.07-4.07c1.65-1.26,3.31-2.36,4.86-3.49,1.17-.79,2.33-1.73,3.63-2.57l4-2.65a84.46,84.46,0,0,1,8.59-5.1,84.46,84.46,0,0,0-8.59,5.1l-4,2.65c-1.3.84-2.46,1.78-3.63,2.57-1.55,1.13-3.21,2.23-4.86,3.49l-5.07,4.07-1.16,1-1.14,1.08-2.36,2.23-2.45,2.3-2.35,2.5c-.79.83-1.57,1.67-2.36,2.51-.39.42-.79.82-1.17,1.25l-1.08,1.31-4.16,5a116.8,116.8,0,0,1,18.23-19.16c2.94-2.43,5.35-4.64,7.21-6l4.63-3.24c2.28-1.63,4.66-3.1,7-4.65,1.15-.8,2.35-1.49,3.54-2.18l3.55-2.08-5.36,3.07c-1.75,1.08-3.47,2.22-5.21,3.33l-2.6,1.68c-.85.59-1.68,1.22-2.52,1.82-1.67,1.23-3.37,2.44-5,3.69a144.69,144.69,0,0,0-18.31,17.27,132.65,132.65,0,0,0-21.28,34.39c-.69,1.53-1.23,3.12-1.85,4.68s-1.23,3.11-1.79,4.69L170,264.79c-.5,1.59-1.08,3.16-1.48,4.78l-1.31,4.82-.66,2.41a8.63,8.63,0,0,1-.9,2.19,6.35,6.35,0,0,1-3.67,2.75,7.11,7.11,0,0,1-4.62-.29,6.27,6.27,0,0,1-3.28-3.17,22.76,22.76,0,0,1-1.11-4.72l-.43-2.44-.34-2.45c-.23-1.63-.45-3.26-.58-4.9a135.3,135.3,0,0,1-.5-19.72,154.38,154.38,0,0,1,7.18-38.72,182.55,182.55,0,0,1,16.14-36.18,204.29,204.29,0,0,1,23.39-32.54q6.66-7.61,14.1-14.6l7.49-7c2.51-2.32,5.12-4.55,7.75-6.75a213.83,213.83,0,0,1,34.61-23.21c1.7-.89,3.37-1.8,5.08-2.64l1.27-.65.64-.32.34-.17a1.36,1.36,0,0,0,.38-.27,9.84,9.84,0,0,0,2-2.3,8,8,0,0,0,.94-5.9,10.09,10.09,0,0,0-3-5.14,9.3,9.3,0,0,0-5.34-2.59,7.74,7.74,0,0,0-3,.22,9.58,9.58,0,0,0-2.72,1.29l-8.86,7.07-4.38,3.5c-1.47,1.16-3,2.22-4.53,3.33-3,2.16-6,4.47-9,6.73-1.5,1.12-2.93,2.32-4.38,3.48s-2.92,2.32-4.33,3.52c-2.83,2.42-5.7,4.78-8.42,7.29-22.09,19.7-41.14,42.46-54.78,68.06a206.67,206.67,0,0,0-9,19.56,171.78,171.78,0,0,0-6.63,20.3,157,157,0,0,0-5.19,41.82,149.43,149.43,0,0,0,6.45,41.22,155.25,155.25,0,0,0,17.47,37.66A178.88,178.88,0,0,0,189,362.35a219.23,219.23,0,0,0,32.69,26.19A274.06,274.06,0,0,0,258.87,409c3.24,1.49,6.53,2.89,9.83,4.31l5,2,2.5,1,2.54.94,5.07,1.9c1.69.63,3.41,1.19,5.12,1.79l2.58.89,1.83.63.31.11.15.05c.06,0,.1,0,.13,0l.46-.45.83-.84q1.91-1.86,4-3.54c.67-.54,1.28-1,2.08-1.62l1-.75,1.19-.82,2.56-1.73-11.11-3.73c-2.88-1-5.95-1.92-8.89-3.14a71.93,71.93,0,0,1-8.79-4.46,68.63,68.63,0,0,1-8.34-6.05,64.54,64.54,0,0,1-21.57-37.15,63.72,63.72,0,0,1-.25-21.9,65.31,65.31,0,0,1,2.66-10.34c.31-.83.58-1.65.91-2.47l1-2.4c.63-1.62,1.45-3.13,2.19-4.66A68.55,68.55,0,0,1,277.65,290,89.64,89.64,0,0,1,293,281.91c2.18-.79,4.07-1.55,5.76-2.12l4.39-1.4c5-1.39,6.53-1.88,6.21-2a31.7,31.7,0,0,0-4.73.69c-1.12.18-2.25.48-3.18.72l-2,.51a80.91,80.91,0,0,0-23.65,10.59c-1.87,1.14-3.57,2.56-5.38,3.89-.87.72-1.71,1.48-2.58,2.22-.43.38-.87.75-1.29,1.14l-1.23,1.23a65.51,65.51,0,0,0-9.29,11.28,77.76,77.76,0,0,0-7.54,14.5,65.78,65.78,0,0,0-4.25,18.21A65.07,65.07,0,0,0,246,363a66.89,66.89,0,0,0,10.65,22.89,61.93,61.93,0,0,1-5.73-9.59,32.87,32.87,0,0,1-1.52-3.44,87,87,0,0,0,4.86,9,68.21,68.21,0,0,0,7.07,9.3,67.36,67.36,0,0,0,10.9,9.66,65.94,65.94,0,0,0,14.39,7.74c1.31.54,2.64,1,4,1.42l4,1.36,4,1.35,1.6.54c.34.13.76.25,1,.38l-.85.58c-.27.18-.53.37-1.11.81-1,.76-2,1.55-2.91,2.36s-1.84,1.64-2.72,2.5l-.36.35c0,.08-.12,0-.19,0l-.21-.08-1.58-.55-6.54-2.31-6.12-2.34c-7.77-3.1-15.9-6.53-24.14-10.56s-16.64-8.57-25-13.73a219,219,0,0,1-47.42-38.9A177.58,177.58,0,0,1,163,326.07,155.19,155.19,0,0,1,149.19,297a145,145,0,0,1-7.33-62.43c2-20.43,8.22-41.79,19.64-63.59a221.76,221.76,0,0,1,12.34-20.36c1.14-1.62,2.21-3.28,3.4-4.86l3.51-4.76c2.43-3.11,4.82-6.23,7.38-9.22s5.14-5.94,7.75-8.86,5.35-5.74,8.14-8.48,5.62-5.44,8.43-8.15,5.77-5.27,8.77-7.76c5.9-5.11,12-9.9,18.28-14.58,6.41-4.47,12.43-9.57,18.59-14.45a17.31,17.31,0,0,1,2.11-1.57,6.38,6.38,0,0,1,2.22-.73,6.48,6.48,0,0,1,4.52,1.18,8.48,8.48,0,0,1,3.08,3.8,6.34,6.34,0,0,1,.09,4.63,6,6,0,0,1-1.27,2,3,3,0,0,1-.43.44l-.31.29-1.2.6c-1.76.88-3.5,1.8-5.24,2.73-3.47,1.87-6.92,3.8-10.28,5.86a209.36,209.36,0,0,0-37.61,29A212,212,0,0,0,182,153.75,193,193,0,0,0,159.2,197.1a155.75,155.75,0,0,0-10,49.17A129.29,129.29,0,0,0,151,272.51c.19,1.05.39,2.1.58,3.14.11.53.17,1,.31,1.58l.26.89a3.43,3.43,0,0,0,.34.85l.42.83c.16.27.37.51.55.76a7.86,7.86,0,0,0,1.3,1.34,8.43,8.43,0,0,0,3.3,1.56,10,10,0,0,0,1.8.24,9.7,9.7,0,0,0,1.79-.18,8.48,8.48,0,0,0,3.32-1.4,8.24,8.24,0,0,0,1.32-1.25l.57-.7.44-.79a7.54,7.54,0,0,0,.67-1.64c.19-.58.27-1,.42-1.5,3.94-15.48,9.31-30,17.17-42.71a120.78,120.78,0,0,1,20.76-25.47,152,152,0,0,1,23.85-18c3-1.76,6-3.48,8.94-5.13s6-3.08,8.9-4.51l8.82-4a11.4,11.4,0,0,1,4.21-1,7,7,0,0,1,3.91,1c4.68,2.86,5.22,11,.89,14-2.11,1.56-5,1.73-7.73,1.18a30.57,30.57,0,0,0-8.94-.67,33.88,33.88,0,0,1,9.59.81c2.77.45,5.73.06,7.62-1.71,3.86-3.53,3-10.89-1.28-13.64a7.1,7.1,0,0,0-3.62-1.05,10.86,10.86,0,0,0-3.94.77l-1,.4-1,.47-2.06.94-4.19,1.91c-5.62,2.66-11.44,5.7-17.62,9.36-1,.58-1.88,1.12-2.56,1.57l-1.6,1c-.78.49-1,.62-.78.46l1.88-1.27,1.71-1.15,2.19-1.29a206.27,206.27,0,0,1,22.17-11.53,22.74,22.74,0,0,1,4.14-1.63,8.82,8.82,0,0,1,4.7.05,7.54,7.54,0,0,1,3.66,2.74,10.11,10.11,0,0,1,1.6,3.85,9,9,0,0,1-1.75,7.54,6.93,6.93,0,0,1-3.21,2.08,11,11,0,0,1-4,.4c-1.3-.1-2.82-.47-4.28-.71l-2.26-.22c-.76-.06-1.52,0-2.29,0a36.53,36.53,0,0,0-9.32,1.39,60.15,60.15,0,0,0-7.26,2.49,72.22,72.22,0,0,0-10.73,6.31c-1.6,1.12-3.11,2.26-4.56,3.4s-2.76,2.36-4.09,3.48a108.7,108.7,0,0,0-12.86,13.54,115.22,115.22,0,0,0-12.82,19.73l-1.6,3.15c-.53,1.06-1,2.16-1.46,3.24s-1,2.18-1.45,3.3l-1.33,3.44-.83,2.18-.75,2.25c-.49,1.51-1,3-1.48,4.55a35,35,0,0,1,1.59-4c-1.6,4.32-3.32,10.59-4.42,15.06,1.1-4.47,2.82-10.74,4.42-15.06a35,35,0,0,0-1.59,4,166.89,166.89,0,0,0-6.69,35.72,68.42,68.42,0,0,0,1.77,18.81,70.06,70.06,0,0,0,6.69,17.45l-.14-.3a68,68,0,0,1-7.45-42c-.41,3.2-.51,4.61-.53,4.3s.05-.74.14-1.75l.17-1.82.33-2.43c.31-1.86.57-3.73,1-5.55-.29,1.58-.49,3.16-.7,4.75s-.48,3.16-.59,4.75l-.21,2.37-.09,2.38c-.1,1.59,0,3.17,0,4.75a72.31,72.31,0,0,0,3.05,18.28s.39,1.31,1,2.91,1.42,3.47,2,4.71c1.72,3.67,1.59,3.53,1.93,4.32.71,1.21,1.36,2.46,2.13,3.66s1.49,2.41,2.36,3.54c-.44-.6-.95-1.41-1.52-2.34s-1.24-1.95-1.85-3.11-1.31-2.35-1.89-3.62l-.91-1.89-.8-1.91c-.56-1.25-1-2.49-1.39-3.63l-.58-1.63-.42-1.45-.63-2.12Z"/><path class="cls-3" d="M236,195.18a61.47,61.47,0,0,0-6.15,3.11,52.89,52.89,0,0,1,12.77-5.37c1.13-.23,2.25-.55,3.4-.68.58-.08,1.15-.18,1.72-.25l1.74-.12a12.46,12.46,0,0,1,1.73,0l1.74,0,1.73.18a11.16,11.16,0,0,1,1.72.26,28.54,28.54,0,0,0-9.25-.3A41.26,41.26,0,0,0,236,195.18Z"/></g></g></svg>