<svg xmlns="http://www.w3.org/2000/svg" viewBox="0 0 768 768"><metadata><?xpacket begin="﻿" id="W5M0MpCehiHzreSzNTczkc9d"?>
<x:xmpmeta xmlns:x="adobe:ns:meta/" x:xmptk="Adobe XMP Core 6.0-c002 79.164488, 2020/07/10-22:06:53        ">
   <rdf:RDF xmlns:rdf="http://www.w3.org/1999/02/22-rdf-syntax-ns#">
      <rdf:Description rdf:about=""
            xmlns:dc="http://purl.org/dc/elements/1.1/"
            xmlns:photoshop="http://ns.adobe.com/photoshop/1.0/"
            xmlns:xmpRights="http://ns.adobe.com/xap/1.0/rights/"
            xmlns:xmp="http://ns.adobe.com/xap/1.0/"
            xmlns:xmpMM="http://ns.adobe.com/xap/1.0/mm/"
            xmlns:stEvt="http://ns.adobe.com/xap/1.0/sType/ResourceEvent#">
         <dc:creator>
            <rdf:Seq>
               <rdf:li>orsolya veres</rdf:li>
            </rdf:Seq>
         </dc:creator>
         <dc:rights>
            <rdf:Alt>
               <rdf:li xml:lang="x-default">orsolya veres / www.fitmithanno.fun</rdf:li>
            </rdf:Alt>
         </dc:rights>
         <photoshop:Country>austria</photoshop:Country>
         <xmpRights:WebStatement>www.fitmithanno.fun</xmpRights:WebStatement>
         <xmp:MetadataDate>2021-01-31T20:35:05+01:00</xmp:MetadataDate>
         <xmpMM:InstanceID>xmp.iid:5ab994e3-5d65-4893-871d-05f67098da1e</xmpMM:InstanceID>
         <xmpMM:DocumentID>xmp.did:5ab994e3-5d65-4893-871d-05f67098da1e</xmpMM:DocumentID>
         <xmpMM:OriginalDocumentID>xmp.did:5ab994e3-5d65-4893-871d-05f67098da1e</xmpMM:OriginalDocumentID>
         <xmpMM:History>
            <rdf:Seq>
               <rdf:li>
                  <rdf:Description>
                     <stEvt:action>saved</stEvt:action>
                     <stEvt:instanceID>xmp.iid:5ab994e3-5d65-4893-871d-05f67098da1e</stEvt:instanceID>
                     <stEvt:when>2021-01-31T20:35:05+01:00</stEvt:when>
                     <stEvt:softwareAgent>Adobe Bridge 2021 (Macintosh)</stEvt:softwareAgent>
                     <stEvt:changed>/metadata</stEvt:changed>
                  </rdf:Description>
               </rdf:li>
            </rdf:Seq>
         </xmpMM:History>
      </rdf:Description>
   </rdf:RDF>
</x:xmpmeta>
                                                                                                    
                                                                                                    
                                                                                                    
                                                                                                    
                                                                                                    
                                                                                                    
                                                                                                    
                                                                                                    
                                                                                                    
                                                                                                    
                                                                                                    
                                                                                                    
                                                                                                    
                                                                                                    
                                                                                                    
                                                                                                    
                                                                                                    
                                                                                                    
                                                                                                    
                                                                                                    
                           
<?xpacket end="w"?></metadata>
<defs><style>.cls-1,.cls-16{fill:#e4c4af;}.cls-15,.cls-2{fill:#fee9d6;}.cls-3{fill:#c4e4cd;}.cls-4{fill:#e3f2eb;}.cls-21,.cls-5{fill:#7d8b96;}.cls-22,.cls-6{fill:#bfc9d2;}.cls-10,.cls-12,.cls-23,.cls-7{fill:none;}.cls-21,.cls-22,.cls-23,.cls-7{opacity:0.5;}.cls-8{fill:#928f00;}.cls-14,.cls-9{fill:#ffe354;}.cls-11,.cls-18{fill:#896e59;}.cls-11,.cls-12,.cls-13,.cls-14,.cls-15,.cls-16,.cls-20,.cls-21,.cls-22,.cls-23,.cls-25,.cls-26,.cls-27,.cls-28,.cls-29{fill-rule:evenodd;}.cls-13{fill:#caa869;}.cls-17,.cls-20{fill:#b48559;}.cls-19,.cls-25{fill:#987562;}.cls-24,.cls-29{fill:#d2d3d5;}.cls-27,.cls-30{fill:#ef5160;}.cls-28,.cls-32{fill:#7d2b42;}.cls-31{font-size:48px;font-family:FeltTipRoman, Felt Tip Roman;}.cls-33{opacity:0.85;}.cls-34{fill:#202020;}</style></defs><g id="hanno"><path class="cls-1" d="M308.34,325.89a74.39,74.39,0,0,0-17.73-5.54c.11-1.19.21-2.39.29-3.6.4,0,.79.06,1.17.08.7.05,1.38.07,2,.08a28.89,28.89,0,0,0,6.41-.41c1.06-.24,2.61-.64,4.5-1.23.64-.19,1.3-.41,2-.65h0A30.33,30.33,0,0,0,308.34,325.89Z"/><path class="cls-2" d="M332.5,349.5C328,427.71,295.68,409.7,279.2,375a104.71,104.71,0,0,1-7.49-21.53c6.14-3.69,10.64-7.93,13.75-13.45,0,0,0,0,0,0,2.71-4.8,4.37-11.89,5.14-19.6a74.39,74.39,0,0,1,17.73,5.54C310.67,333.71,316.79,343.71,332.5,349.5Z"/><path class="cls-1" d="M395.16,470q-1.5,2.37-2.89,4.72h0c-13.25-7.94-21.35-31.53-29.21-50.35a122.2,122.2,0,0,0-8-16.54,27.75,27.75,0,0,0-5.41-6.67l-.21-1.14c-.15-.77-.29-1.57-.44-2.38-.11-.6-.22-1.22-.33-1.85,3.09,2.36,7,5.46,8.16,7.3a122.2,122.2,0,0,1,8,16.54,265.61,265.61,0,0,0,14.57,30.25C384.23,458.25,389.57,465.59,395.16,470Z"/><path class="cls-2" d="M398,465.64q-1.47,2.21-2.87,4.38c-5.59-4.43-10.93-11.77-15.77-20.12a265.61,265.61,0,0,1-14.57-30.25,122.2,122.2,0,0,0-8-16.54c-1.14-1.84-5.07-4.94-8.16-7.3,0-.21-.07-.42-.11-.64-.08-.42-.15-.85-.22-1.28-.23-1.3-.45-2.64-.67-4s-.44-2.76-.67-4.19c-.14-.95-.29-1.92-.44-2.89s-.28-1.91-.42-2.88c-.05-.33-.1-.66-.14-1-1-6.61-1.85-13.6-2.62-20.53-.05-.38-.09-.76-.13-1.13,14,12.41,21.32,29.56,27.88,47.88,1.59,4.44,3.13,8.94,4.71,13.47C381.5,434.84,387.63,451.3,398,465.64Z"/><path class="cls-3" d="M375.5,545.5a77.3,77.3,0,0,1-7.33,5.61c-22.88,15.47-52.93,18.6-78.2,15.92-6.65-2.23-13.09-4.7-19.32-7.32,66.26-8.27,91.56-24,99.32-83.29C374.4,493.94,377,513.47,375.5,545.5Z"/><path class="cls-4" d="M370,476.42c-7.76,59.25-33.06,75-99.32,83.29-7.54-3.16-14.76-6.56-21.59-10.09-11.34-61.15,18.09-109.32,15.51-166.12,0-.34,0-.69-.05-1-.08-1.45-.17-2.91-.3-4.37q-.24-3.09-.63-6.21c0-.43-.11-.86-.17-1.28-.13-1-.28-2-.43-3-.08-.57-.17-1.13-.27-1.71-.22-1.36-.47-2.73-.75-4.1q-.21-1.11-.45-2.22A31.34,31.34,0,0,1,267,356q2.5-1.25,4.71-2.58A104.71,104.71,0,0,0,279.2,375c16.48,34.75,48.78,52.76,53.3-25.45a66.44,66.44,0,0,1,10.74,7.76c0,.37.08.75.13,1.13.77,6.93,1.66,13.92,2.62,20.53,0,.34.09.67.14,1q.21,1.45.42,2.88c.15,1,.3,1.94.44,2.89.22,1.42.44,2.82.67,4.19s.44,2.71.67,4c.07.43.14.86.22,1.28,0,.22.08.43.11.64.11.63.22,1.25.33,1.85.15.81.29,1.61.44,2.38l.21,1.14c.46,2.41.92,4.75,1.4,7h0c1.16,5.58,2.36,10.72,3.58,15.52l.12.53,0,.11s0,.05,0,.08a17.75,17.75,0,0,0,.87,3.35C360.8,447.19,366.08,461,370,476.42Z"/><path class="cls-2" d="M99.77,369.79l-2.44,1.73c-1.21-1.34-2.6-2.78-4.14-4.33l1.06-.5.3.18.23.13h0C96.3,367.9,98,368.81,99.77,369.79Z"/><path class="cls-1" d="M264.57,383.5c-32,26.56-66.76,85.09-77.57,90.5-2.83,1.41-5,1-10-3s-52-69-63.67-74.65c-4.92-2.38-9.31-2.46-13.48-3.71a17.08,17.08,0,0,1-7.23-4.13,24.08,24.08,0,0,1-3.33-3.94l3.41-2.35a17,17,0,0,0,4.59,3.12c3.1,1.43,6.28,1.77,9.68,2.54a28.31,28.31,0,0,1,6.4,2.14C125,395.67,172,460.67,177,464.67s7.17,4.41,10,3c10.17-5.09,46.28-60.87,77.18-89.58.13,1.46.22,2.92.3,4.37C264.54,382.81,264.55,383.16,264.57,383.5Z"/><path class="cls-2" d="M264.22,378.09c-30.9,28.71-67,84.49-77.18,89.58-2.83,1.41-5,1-10-3s-52-69-63.67-74.65a28.31,28.31,0,0,0-6.4-2.14c-3.4-.77-6.58-1.11-9.68-2.54a17,17,0,0,1-4.59-3.12l2.06-1.41c3.52,1.5,6.07,1.36,7.24.19.93-.93.56-2.5-.79-4.62l4.45-3.05h0c.27.2.53.39.77.59s.48.38.7.57l.85.73,1,.85.64.57.34.3c.24.2.47.39.7.56a5.45,5.45,0,0,0,.51.37,5.74,5.74,0,0,0,.53.32,2.31,2.31,0,0,0,.35.18,2.87,2.87,0,0,0,.4.18h0a4.76,4.76,0,0,0,.57.19,4.37,4.37,0,0,0,.52.12l.24,0a4.63,4.63,0,0,0,.55.06c.21,0,.44,0,.68,0,2.31,0,3.42-1.32,3.42-3.28,0-.14,0-.28,0-.43a3.47,3.47,0,0,0-.06-.45c0-.11,0-.22,0-.33a2.74,2.74,0,0,0-.09-.39c-.06-.21-.12-.42-.19-.63s-.19-.55-.31-.83a8.36,8.36,0,0,0-.5-1.06c-.12-.23-.24-.46-.38-.69s-.35-.56-.55-.85a4.5,4.5,0,0,0,1.1.68l.28.11.27.09a3.15,3.15,0,0,0,.42.09,2.63,2.63,0,0,0,.49.07,4.56,4.56,0,0,0,.54,0c.32,0,.67,0,1.06,0a3.48,3.48,0,0,0,.47,0,3.07,3.07,0,0,0,1.28-.41.91.91,0,0,0,.16-.11,1.56,1.56,0,0,0,.2-.16,1.35,1.35,0,0,0,.27-.32.76.76,0,0,0,.12-.19,2.46,2.46,0,0,0,.3-.8,1,1,0,0,0,0-.25.44.44,0,0,0,0-.16,2.5,2.5,0,0,0,0-.4,3.73,3.73,0,0,0,0-.66c0-.08,0-.16,0-.24a5.77,5.77,0,0,0-.13-.78.9.9,0,0,0,0-.16.24.24,0,0,0,0-.08c0-.15-.07-.3-.11-.45a10.32,10.32,0,0,0-.34-1.13c0-.1-.06-.19-.1-.29a1.72,1.72,0,0,0-.11-.29c-.08-.23-.17-.47-.27-.7-.15-.39-.33-.79-.51-1.19l1.26-.86.41-.29,6-4.1a34.77,34.77,0,0,0-.81,4.81h0c-.08.79-.12,1.56-.15,2.31a40.61,40.61,0,0,0,.78,8.84c.27,1.43.58,2.74.88,3.93.15.59.26,1.14.35,1.66v0a19.29,19.29,0,0,1,0,5.84h0A18.19,18.19,0,0,0,132,396c4,9,43,44,53,55,4-4,11.43-11.3,9-21-.9-3.58-13.81-18.37-10.9-27.9h0a8.37,8.37,0,0,1,1.71-3.09c7.05-8.12,22.47,4.32,30.19,2,10-3,33.74-31.13,46.52-41.38q.24,1.11.45,2.22c.28,1.37.53,2.74.75,4.1.1.58.19,1.14.27,1.71.15,1,.3,2,.43,3,.06.42.12.85.17,1.28Q264,375,264.22,378.09Z"/><path class="cls-2" d="M133.94,345.48l-15.49,11c-.21-.32-.41-.64-.62-.95L119,355C122,345.18,132.61,336.32,133.94,345.48Z"/><path class="cls-2" d="M89,377.43l-2.77,2c-1-2-2-4.31-3.08-7,.9.84,1.85,1.7,2.83,2.56S88.05,376.72,89,377.43Z"/><polygon class="cls-5" points="89.04 405.52 79.19 411.7 76.79 408.07 72.77 402.01 83.07 395.01 86.72 401.43 89.04 405.52"/><polygon class="cls-6" points="83.07 395.01 72.77 402.01 57.33 378.69 69.54 371.16 77.68 385.5 80.55 390.57 83.07 395.01"/><polygon class="cls-6" points="55.19 413.95 43.78 421.71 26 398 38.78 390.12 55.19 413.95"/><polygon class="cls-5" points="86 421.99 69 434 61.35 422.89 59.23 419.81 76.79 408.07 79.19 411.7 86 421.99"/><polygon class="cls-6" points="76.79 408.07 59.23 419.81 55.19 413.95 38.78 390.12 31.12 379 50.33 368.11 57.33 378.69 72.77 402.01 76.79 408.07"/><polygon class="cls-5" points="162.16 355.86 152 363 149.56 359.39 145.12 352.82 155.83 345.55 160.03 352.39 162.16 355.86"/><polygon class="cls-6" points="155.83 345.55 145.12 352.82 142.08 348.32 138.14 342.49 127 326 139.38 318.76 155.83 345.55"/><polygon class="cls-6" points="183.03 327.06 172.28 334.37 155.89 309.09 168 302 183.03 327.06"/><polygon class="cls-5" points="185 354 169 367 162.16 355.86 160.03 352.39 176.72 341.23 178.68 344.25 185 354"/><polygon class="cls-6" points="176.72 341.23 160.03 352.39 155.83 345.55 139.38 318.76 134 310 150 300 155.89 309.09 172.28 334.37 176.72 341.23"/><path class="cls-6" d="M142.08,348.32l-12.78,8.77h0l-6,4.1-.41.29-1.26.86a50.53,50.53,0,0,0-3.2-5.85l1.61-1.15,13.88-9.87,4.2-3Z"/><path class="cls-6" d="M94.76,380.81l-2.06,1.41-3.41,2.35-8.74,6-2.87-5.07,8.57-6.09,2.77-2A28.08,28.08,0,0,0,94.76,380.81Z"/><path class="cls-1" d="M102,381c-1.17,1.17-3.72,1.31-7.24-.19A28.08,28.08,0,0,1,89,377.43c-1-.71-2-1.52-3-2.43s-1.93-1.72-2.83-2.56c-3.88-3.66-6.86-7.13-7.48-9.71a53.27,53.27,0,0,0,4.68,4.91c.9.84,1.85,1.7,2.83,2.56s2,1.72,3,2.43A28.08,28.08,0,0,0,92,376c3.52,1.5,6.07,1.36,7.24.19a2,2,0,0,0,.42-2,25,25,0,0,1,1.59,2.18C102.56,378.5,102.93,380.07,102,381Z"/><path class="cls-2" d="M99.2,376.2C98,377.37,95.48,377.51,92,376a28.08,28.08,0,0,1-5.74-3.38c-1-.71-2-1.52-3-2.43s-1.93-1.72-2.83-2.56a53.27,53.27,0,0,1-4.68-4.91c-.42-1.71.2-3,2.31-3.73,6-2,8,1,15,8l.19.19c1.54,1.55,2.93,3,4.14,4.33.43.48.84.94,1.22,1.38.19.22.38.44.55.66s.36.42.52.63h0A2,2,0,0,1,99.2,376.2Z"/><path class="cls-6" d="M105.66,373.33l-4.45,3.05a25,25,0,0,0-1.59-2.18h0c-.16-.21-.34-.42-.52-.63s-.36-.44-.55-.66c-.38-.44-.79-.9-1.22-1.38l2.44-1.73L102,371A31.34,31.34,0,0,1,105.66,373.33Z"/><path class="cls-1" d="M118.42,375.72c0,2-1.11,3.28-3.42,3.28-.24,0-.47,0-.68,0a4.63,4.63,0,0,1-.55-.06l-.24,0a4.37,4.37,0,0,1-.52-.12,4.76,4.76,0,0,1-.57-.19h0a2.87,2.87,0,0,1-.4-.18,2.31,2.31,0,0,1-.35-.18l-.53-.32-.51-.37c-.23-.17-.46-.36-.7-.56l-.34-.3-.64-.57-1-.85-.85-.73c-.22-.19-.46-.38-.7-.57s-.5-.39-.77-.59h0A31.34,31.34,0,0,0,102,371l-2.23-1.21c-1.78-1-3.47-1.89-5-2.76h0l-.23-.13-.3-.18c-4.29-2.54-6.88-4.63-6-6.41a2.8,2.8,0,0,1,.94-1,30.2,30.2,0,0,0,4.48,3.07c1.63,1,3.51,2,5.52,3.1l2.23,1.21a31.34,31.34,0,0,1,3.66,2.33h0c4.31,3.18,5.28,5.67,9.33,5.67,1.77,0,2.84-.77,3.23-2,.12.28.22.56.31.83s.13.42.19.63a2.74,2.74,0,0,1,.09.39c0,.11,0,.22,0,.33a3.47,3.47,0,0,1,.06.45C118.41,375.44,118.42,375.58,118.42,375.72Z"/><path class="cls-2" d="M94.55,366.87l.23.13h0Z"/><path class="cls-2" d="M117.7,372.66c-.39,1.24-1.46,2-3.23,2-4,0-5-2.49-9.33-5.67h0a31.34,31.34,0,0,0-3.66-2.33l-2.23-1.21c-2-1.1-3.89-2.13-5.52-3.1a30.2,30.2,0,0,1-4.48-3.07A10.37,10.37,0,0,1,92,358c5.1-1.7,7.92-.59,13.81,3.23,1,.61,2,1.3,3.11,2L110,364c.72.48,1.4,1,2,1.51l0,0,4.19,4.51c.2.29.38.57.55.85s.26.46.38.69A8.36,8.36,0,0,1,117.7,372.66Z"/><path class="cls-2" d="M117.7,372.66a5,5,0,0,1,.31.83C117.92,373.22,117.82,372.94,117.7,372.66Z"/><path class="cls-7" d="M108.92,363.28,110,364c.72.48,1.4,1,2,1.51"/><path class="cls-1" d="M123.32,368.32a2.5,2.5,0,0,1,0,.4.44.44,0,0,1,0,.16,1.87,1.87,0,0,1,0,.25,2.46,2.46,0,0,1-.3.8.76.76,0,0,1-.12.19,2.08,2.08,0,0,1-.27.32,1.56,1.56,0,0,1-.2.16.91.91,0,0,1-.16.11,3.07,3.07,0,0,1-1.28.41,3.48,3.48,0,0,1-.47,0c-.39,0-.74,0-1.06,0l-.54,0a2.63,2.63,0,0,1-.49-.07,3.15,3.15,0,0,1-.42-.09l-.27-.09-.28-.11a4.5,4.5,0,0,1-1.1-.68,19.18,19.18,0,0,0-2.1-2.58,23,23,0,0,0-2.09-1.93l0,0c-.69-.79-1.5-1.69-2.44-2.72l-1.09-1.17c-.35-.37-.7-.76-1.06-1.17a50.94,50.94,0,0,1-3.49-4.39h0c-2.69-3.83-4.54-7.79-3.13-9.83.9,3.22,3.92,7.43,6.84,10.73.36.41.71.8,1.06,1.17l1.09,1.17c.63.69,1.2,1.32,1.7,1.89l.2.22.54.61,0,0a23,23,0,0,1,2.09,1.93,19.18,19.18,0,0,1,2.1,2.58c1.17.94,2.17,1.13,4.16,1.09a2.68,2.68,0,0,0,2.47-1.17.9.9,0,0,1,0,.16,5.77,5.77,0,0,1,.13.78c0,.08,0,.16,0,.24A3.73,3.73,0,0,1,123.32,368.32Z"/><path class="cls-2" d="M123.09,366.4a.24.24,0,0,1,0,.08,2.68,2.68,0,0,1-2.47,1.17c-2,0-3-.15-4.16-1.09a19.18,19.18,0,0,0-2.1-2.58,23,23,0,0,0-2.09-1.93l0,0-.54-.61-.2-.22c-.5-.57-1.07-1.2-1.7-1.89l-1.09-1.17c-.35-.37-.7-.76-1.06-1.17-2.92-3.3-5.94-7.51-6.84-10.73A3.31,3.31,0,0,1,103,345c3.6-.7,6.58-.34,11.79,6.35,1,1.24,2,2.69,3,4.24.21.31.41.63.62.95a50.53,50.53,0,0,1,3.2,5.85c.18.4.36.8.51,1.19.1.23.19.47.27.7a1.72,1.72,0,0,1,.11.29c0,.1.07.19.1.29A10.32,10.32,0,0,1,123,366C123,366.1,123.06,366.25,123.09,366.4Z"/><path class="cls-8" d="M371.94,579.79c-29,1-56.89-4.31-82-12.76,25.27,2.68,55.32-.45,78.2-15.92C368,572,368.87,572.58,371.94,579.79Z"/><path class="cls-9" d="M384,579q-6.06.59-12.06.79c-3.07-7.21-3.94-7.79-3.77-28.68a77.3,77.3,0,0,0,7.33-5.61C375.5,568.5,376.5,567.5,384,579Z"/><line class="cls-10" x1="334.16" y1="236.91" x2="334.15" y2="236.9"/><path class="cls-2" d="M247.81,294.74c-.24-.4-.48-.8-.71-1.21l-.12-.23c-.2-.35-.38-.71-.56-1.08-.41-.84-.8-1.69-1.14-2.58-.13-.32-.26-.65-.36-1s-.15-.4-.22-.61c-.17-.48-.32-1-.46-1.47-.29-1-.54-2-.74-3.08a42.19,42.19,0,0,1,2.92-26,38.21,38.21,0,0,0-4.72-1.08l-1.34-.18-1.16-.12-.88-.05-.87,0h-.09a48.73,48.73,0,0,0-9.33.9c-5.81.92-11,1.41-20-4.94,22,29,9,29.13,21,43,13.51,7.72,18.64.54,19,0A2.75,2.75,0,0,1,247.81,294.74ZM227.54,272.8c-2.62-3-2.6-5.9-1.68-7.27,4.89,3.24,9.64,10.18,11.84,17.05A29.85,29.85,0,0,0,227.54,272.8Z"/><path class="cls-7" d="M248,295l0,0"/><path class="cls-11" d="M341.8,216.15c-5.72-11.34-30.3-13.65-38.3-16.65-5.76-2.16-13-8-17-8-7,0-10.84,2.95-16.5,10.5-2.92,3.9-17.73,6.37-10.14,20.39-2.74-4.29-10.29-11.09-20.36-2.52-9.74,8.3-11.25,31.8-11.47,37.07a48.73,48.73,0,0,1,9.33-.9h.09l.87,0,.88.05,1.16.12,1.34.18c.21-.52.43-1,.65-1.56s.48-1.09.73-1.62c.15-.34.31-.67.48-1q1.26-2.6,2.74-5c.13-.23.27-.46.42-.68.32-.52.64-1,1-1.53s.63-.95,1-1.41c1.11-1.58,2.29-3.1,3.52-4.56.22-.26.44-.52.67-.77l.06-.07c.28-.33.57-.65.86-1,.46-.5.92-1,1.39-1.47s1-1,1.43-1.42c1.37-1.31,2.78-2.54,4.25-3.71l.69-.55,1-.78.74-.54.27-.18c.49-.36,1-.7,1.49-1s.8-.53,1.21-.78.91-.58,1.38-.85l1.26-.73.91-.49,1.44-.75c.46-.24.94-.47,1.41-.69l1.29-.58c.38-.17.76-.33,1.15-.48s.88-.37,1.32-.53l.15-.06c.55-.21,1.11-.41,1.67-.6s1-.35,1.57-.51l.61-.19.15,0c.45-.14.91-.26,1.37-.38s1.13-.29,1.69-.42l.18,0c.62-.14,1.24-.27,1.87-.39h0c.63-.12,1.26-.23,1.89-.32s1.26-.18,1.89-.25h0l1.36-.14h0l1.4-.1c.46,0,.93,0,1.4-.06l1.38,0,1.28,0c.43,0,.86,0,1.28.05l1.09.07.45,0,.82.08,1.21.14,1.46.21c.5.08,1,.16,1.51.26s1,.2,1.51.32,1,.22,1.46.35h.06c.3.07.59.15.89.24l.9.26c.3.08.59.17.89.27l.89.3c.59.2,1.18.42,1.77.64s1.09.43,1.63.66l.13.06c.59.25,1.17.52,1.75.8s1.16.56,1.74.87.92.48,1.37.75c.23.12.46.25.68.39l1.29.77.55.35.83.55c.48.31,1,.64,1.43,1s.71.51,1.06.78.87.66,1.3,1l1.07.88a62.07,62.07,0,0,1,6.77,6.64c.33-.71.66-1.37,1-2C339.82,220.31,344.5,221.5,341.8,216.15Zm-81.91,6.29a9.38,9.38,0,0,1,.61,1.06C260.28,223.14,260.08,222.79,259.89,222.44Z"/><path class="cls-12" d="M259.89,222.44l0-.05,0,.05"/><path class="cls-1" d="M307.05,314.61h0c-.71.24-1.37.46-2,.65-1.89.59-3.44,1-4.5,1.23a28.89,28.89,0,0,1-6.41.41c-.64,0-1.32,0-2-.08l-1.17-.08c-12.88-1-33.39-6.33-42.92-21.72a2.75,2.75,0,0,1-.17-.29c10.56,9.53,26,13.19,36.39,14l1.17.08c.7,0,1.38.07,2,.08a28.89,28.89,0,0,0,6.41-.41c1.06-.24,2.61-.64,4.5-1.23.64-.19,1.3-.41,2-.65h0C314,302,340.05,289.49,339,265.13a36.75,36.75,0,0,0-1.17-7.67,61.89,61.89,0,0,0-8.08-18.85q1.39,1.3,2.7,2.79c5.2,5.89,9.42,13.78,12.08,24.1a36.75,36.75,0,0,1,1.17,7.67C346.75,297.53,320.73,310,307.05,314.61Z"/><path class="cls-2" d="M300.35,306.57h0c-.71.24-1.37.46-2,.65-1.89.59-3.44,1-4.5,1.23a28.89,28.89,0,0,1-6.41.41c-.64,0-1.32,0-2-.08l-1.17-.08c-10.42-.78-25.83-4.44-36.39-14-.24-.4-.48-.8-.71-1.21l-.12-.23c-.19-.36-.38-.72-.56-1.08-.41-.84-.8-1.69-1.14-2.58-.13-.32-.26-.65-.36-1s-.15-.4-.22-.61c-.17-.48-.32-1-.46-1.47-.29-1-.54-2-.74-3.08a42.19,42.19,0,0,1,2.92-26c7.52-16.5,25-27.26,40.08-30,11.67-2.12,24.75-1.15,35.8,5.46a42.22,42.22,0,0,1,7.42,5.65,61.89,61.89,0,0,1,8.08,18.85,36.75,36.75,0,0,1,1.17,7.67C340.05,289.49,314,302,300.35,306.57Z"/><path class="cls-7" d="M248,295l0,0"/><path class="cls-13" d="M334.15,236.9a38.64,38.64,0,0,0-1.73,4.5q-1.31-1.49-2.7-2.79A42.22,42.22,0,0,0,322.3,233a44.46,44.46,0,0,0-15.09-13.26c.3.07.59.15.89.24l.9.26c.3.08.59.17.89.27l.89.3c.59.2,1.18.42,1.77.64s1.09.43,1.63.66l.13.06c.59.25,1.17.52,1.75.8s1.16.56,1.74.87.92.48,1.37.75c.23.12.46.25.68.39l1.29.77.55.35.83.55c.48.31,1,.64,1.43,1s.71.51,1.06.78.87.66,1.3,1l1.07.88A62.07,62.07,0,0,1,334.15,236.9Z"/><path class="cls-14" d="M322.3,233c-11.05-6.61-24.13-7.58-35.8-5.46-15.1,2.75-32.56,13.51-40.08,30a38.21,38.21,0,0,0-4.72-1.08c.21-.52.43-1,.65-1.56s.48-1.09.73-1.62c.15-.34.31-.67.48-1q1.26-2.6,2.74-5c.13-.23.27-.46.42-.68.32-.52.64-1,1-1.53s.63-.95,1-1.41c1.11-1.58,2.29-3.1,3.52-4.56.22-.26.44-.52.67-.77l.06-.07c.28-.33.57-.65.86-1,.46-.5.92-1,1.39-1.47s1-1,1.43-1.42c1.37-1.31,2.78-2.54,4.25-3.71l.69-.55,1-.78.74-.54.27-.18c.49-.36,1-.7,1.49-1s.8-.53,1.21-.78.91-.58,1.38-.85l1.26-.73.91-.49,1.44-.75c.46-.24.94-.47,1.41-.69l1.29-.58c.38-.17.76-.33,1.15-.48s.88-.37,1.32-.53l.15-.06c.55-.21,1.11-.41,1.67-.6s1-.35,1.57-.51l.61-.19.15,0c.45-.14.91-.26,1.37-.38s1.13-.29,1.69-.42l.18,0c.62-.14,1.24-.27,1.87-.39h0c.63-.12,1.26-.23,1.89-.32s1.26-.18,1.89-.25h0l1.36-.14h0l1.4-.1c.46,0,.93,0,1.4-.06l1.38,0,1.28,0c.43,0,.86,0,1.28.05l1.09.07.45,0,.82.08,1.21.14,1.46.21c.5.08,1,.16,1.51.26s1,.2,1.51.32,1,.22,1.46.35h.06A44.46,44.46,0,0,1,322.3,233Z"/><path class="cls-15" d="M362,213c-7.07,14.91-19.22,8.27-26.84,21.91-.35.62-.68,1.28-1,2a38.64,38.64,0,0,0-1.73,4.5c5.2,5.89,9.42,13.78,12.08,24.1a36.75,36.75,0,0,1,1.17,7.67c10.68-3.84,14.67-3.48,18.33-12.17C372,242,357,238,362,213Zm-12.93,44.68A42.13,42.13,0,0,1,352.15,231a10.21,10.21,0,0,1,3.59,6.42C353.29,240.87,350.86,247.7,349.07,257.68Z"/><path class="cls-16" d="M355.74,237.37c-2.45,3.5-4.88,10.33-6.67,20.31A42.13,42.13,0,0,1,352.15,231,10.21,10.21,0,0,1,355.74,237.37Z"/><path class="cls-10" d="M289.49,218.47h0"/><path class="cls-10" d="M308.34,325.89C324.5,333.32,331,344,331,344"/><path class="cls-10" d="M290.61,320.35A90.76,90.76,0,0,0,279,319"/><path class="cls-10" d="M372,454c-.47,8.1-1.13,15.55-2,22.42"/><path class="cls-10" d="M270.65,559.71c-8.62,1.08-17.94,2-28,2.93"/><line class="cls-10" x1="189" y1="323" x2="183.03" y2="327.06"/><line class="cls-10" x1="43.78" y1="421.71" x2="36" y2="427"/><polygon class="cls-5" points="189 337 178.68 344.25 176.72 341.23 172.28 334.37 183.03 327.06 187.29 334.16 189 337"/><line class="cls-10" x1="195" y1="329" x2="187.29" y2="334.16"/><polygon class="cls-5" points="61.35 422.89 50 430 48 427.33 43.78 421.71 55.19 413.95 59.23 419.81 61.35 422.89"/><line class="cls-10" x1="48" y1="427.33" x2="44" y2="430"/><path class="cls-16" d="M237.7,282.58a29.85,29.85,0,0,0-10.16-9.78c-2.62-3-2.6-5.9-1.68-7.27C230.75,268.77,235.5,275.71,237.7,282.58Z"/><path class="cls-12" d="M239,290a24.33,24.33,0,0,0-1.3-7.42"/><path class="cls-12" d="M225.86,265.53c-.29-.19-.57-.37-.86-.53"/><path class="cls-12" d="M351,263a19.78,19.78,0,0,1-1.93-5.32"/><path class="cls-12" d="M356,225a30.4,30.4,0,0,0-3.85,5.95"/><path class="cls-12" d="M356,237c-.09.12-.18.24-.26.37"/><path class="cls-12" d="M349.07,257.68q-.52,2.82-1,6"/><path class="cls-12" d="M356.46,243.08a56.68,56.68,0,0,0-.72-5.71"/><path class="cls-12" d="M345.7,229.23a10.15,10.15,0,0,1,6.45,1.72"/><path class="cls-10" d="M287,213a61.9,61.9,0,0,1,20.19,6.69h0"/><path class="cls-10" d="M329,249a39.52,39.52,0,0,0-6.7-16"/><path class="cls-10" d="M241.7,290a41.06,41.06,0,0,0-4-7.42"/><path class="cls-10" d="M227.54,272.8a16.06,16.06,0,0,0-2.54-1.09"/><path class="cls-10" d="M225.86,265.53A1.45,1.45,0,0,1,228,265"/><path class="cls-10" d="M230,275a13.88,13.88,0,0,1-2.46-2.2"/></g><g id="rudi"><path class="cls-17" d="M519.8,386.8a13.17,13.17,0,0,0-15.3,1.7,18.54,18.54,0,0,0-6.29,14,22.22,22.22,0,0,0,3.39,10.94c3.24,105.39-52.49,133.12-112,149-16.51-41.12-11.11-64.52,2.62-87.7h0c1.78-3,3.71-6,5.76-9.1,5.39-8.06,11.57-16.37,18-25.64,5.69-15.17,8.68-27.94,11.69-38.75v0c1.16-4.18,2.32-8.06,3.65-11.68,2.37-6.48,5.25-12.1,9.55-17h0a47.19,47.19,0,0,1,12.76-10.13q2.49-1.39,5.35-2.7a45,45,0,0,0,6.51-17,47,47,0,0,0,.54-6.88,21.46,21.46,0,0,0,2.95.3h0a49.16,49.16,0,0,0,16,1.7c0,1.48,0,2.82,0,4.05.14,5.81.89,9.14,4.65,13h0C503.79,358.44,513.4,370.59,519.8,386.8Z"/><path class="cls-18" d="M530.77,485.23A262.27,262.27,0,0,1,528,513c-1.88,11.26-9.53,26.14-21,40-29.3,10.67-66.18,19.5-110.21,24.61a26.83,26.83,0,0,1-2.5-4.32l-.42-.92c63.16-5.9,141.26-38.52,112.72-151.73C515.6,434.7,523.79,464.45,530.77,485.23Z"/><path class="cls-19" d="M393.91,572.39q-2.34-5.14-4.27-9.95c59.47-15.85,115.2-43.58,112-149a37.82,37.82,0,0,0,2.9,4.18,34.37,34.37,0,0,1,2.13,3C535.17,533.87,457.07,566.49,393.91,572.39Z"/><path class="cls-20" d="M650.88,394C636.5,408.5,626.5,401,622,401.75l-.28.22h0a15.71,15.71,0,0,0-4.9-.63c-18.5,13.75-56.5,69.75-65.5,101.75a7.62,7.62,0,0,1-6.61,5.55,21.07,21.07,0,0,1-3.2-1.14c-3.12-1.39-6.73-10.36-10.73-22.27-7-20.78-15.17-50.53-24.14-64.57a34.37,34.37,0,0,0-2.13-3,37.82,37.82,0,0,1-2.9-4.18,22.22,22.22,0,0,1-3.39-10.94,18.54,18.54,0,0,1,6.29-14,13.17,13.17,0,0,1,15.3-1.7,15.35,15.35,0,0,1,3.7,2.7c1.7,2.46,3.38,8.83,5.12,17.1,5.08,24,10.7,63.95,18.88,69.9,9-28,55-78,65-84-7-13,0-23,4-26a28.26,28.26,0,0,0-1.08-16.06,25,25,0,0,0-1.72-3.68c-2.09-3.67-4.8-6.05-7.2-6.26,1-4,3-6,6-7s6.87,0,10.25,2.47L620,337l2,3.52,3.88-1.69a18.65,18.65,0,0,1,1.37,1.78l0,0,.78,1.6,1.75,3.56v0a18.74,18.74,0,0,1,.82,5.67,21.74,21.74,0,0,0-8.44,14.3h0a0,0,0,0,0,0,0c0,.1-.08.21-.12.31-.09.28-.19.57-.27.86l0,.11a9.12,9.12,0,0,0-.23.9,1.87,1.87,0,0,0-.08.32c-.07.29-.12.58-.17.87s-.11.65-.15,1-.08.85-.1,1.28,0,.68,0,1c0,11.87,10.75,21.5,24,21.5q.88,0,1.74-.06c.38,0,.75-.05,1.11-.1a.2.2,0,0,0,.11,0c.39,0,.78-.09,1.16-.16a2,2,0,0,0,.35-.05,8.74,8.74,0,0,0,.89-.17,1.8,1.8,0,0,0,.32-.06C650.85,393.79,650.93,394,650.88,394Z"/><path class="cls-11" d="M621.71,402c-18.6,14.11-56.26,69.69-65.21,101.53-.87,3.5-4.81,7-11.8,5.14a7.62,7.62,0,0,0,6.61-5.55c9-32,47-88,65.5-101.75A15.71,15.71,0,0,1,621.71,402Z"/><path class="cls-21" d="M665.58,383.56a24,24,0,0,1-14.9,9.83,1.8,1.8,0,0,1-.32.06c-.29.07-.59.12-.89.17a2,2,0,0,1-.35.05c-.38.07-.77.12-1.16.16a.2.2,0,0,1-.11,0c-.36.05-.73.08-1.11.1q-.86.06-1.74.06c-13.25,0-24-9.63-24-21.5q0-.51,0-1c0-.43.06-.85.1-1.28s.09-.65.15-1,.11-.58.17-.87a1.87,1.87,0,0,1,.08-.32,9.12,9.12,0,0,1,.23-.9l0-.11c.08-.29.18-.58.27-.86,0-.1.07-.21.12-.31a19.34,19.34,0,0,0-.18,2.65c0,12.43,11.19,22.5,25,22.5A26.25,26.25,0,0,0,665.58,383.56Z"/><path class="cls-22" d="M671.28,373.84a21.67,21.67,0,0,1-5.66,9.67l0,.05A26.25,26.25,0,0,1,647,391c-13.81,0-25-10.07-25-22.5a19.34,19.34,0,0,1,.18-2.65,0,0,0,0,1,0,0h0a21.74,21.74,0,0,1,8.44-14.3q.69-.56,1.44-1.05l.51-.33c-5,12.29-1.45,20.33,5.48,24.59h0c8.9,5.47,23.28,4.73,32-1.24A4.52,4.52,0,0,0,671.28,373.84Z"/><path class="cls-23" d="M641.76,346.5a25.4,25.4,0,0,0-3.48.91"/><polygon class="cls-21" points="630.65 333.01 624.64 335.26 622 329.87 628 328 630.65 333.01"/><path class="cls-21" d="M638.28,347.41a26,26,0,0,0-5.7,2.71l-.51.33-2.26-4.62v0a18.42,18.42,0,0,0-1.57-3.63,17.11,17.11,0,0,0-1-1.53l0,0-1-2,6-2.59,2,3.84Z"/><polygon class="cls-21" points="637 334 632.27 336.06 626.3 338.65 625.88 338.83 622 340.52 620 337 622.75 335.97 624.64 335.26 630.65 333.01 636 331 637 334"/><path class="cls-20" d="M664.33,342.52h0c-1.27,8.81-6.88,21.94-14.43,17.84.63-6.35,2.53-7.66,2.49-13.84a27.69,27.69,0,0,0-10.63,0c8.74-13,13.74-10,18.74-9C662.52,337.9,663.88,339.7,664.33,342.52Z"/><path class="cls-11" d="M664.4,346.5a27.53,27.53,0,0,1-1,5,43.88,43.88,0,0,1-3.89,9c-3,5.33-8,3-9.67.67,0-.28,0-.54.07-.8,7.55,4.1,13.16-9,14.43-17.84A16.15,16.15,0,0,1,664.4,346.5Z"/><path class="cls-12" d="M652.39,346.53a44.81,44.81,0,0,0-.41-5.42"/><path class="cls-20" d="M678.34,353.57h0c-3.61,7.54-12.27,16.05-18.47,13.57a4.35,4.35,0,0,1-.36-1.65c0-2.33,4.61-6.53,7-11.08a22.46,22.46,0,0,0-3.1-2.9,27.53,27.53,0,0,0,1-5c6.1-7,7.88-4.61,11.1-3C678.37,344.94,679.38,348.86,678.34,353.57Z"/><path class="cls-11" d="M678.33,353.58a21.49,21.49,0,0,1-1.3,3.93,30.05,30.05,0,0,1-7.53,10.25c-.3.26-.6.53-.92.78h0c-.36.31-.74.61-1.13.91-3.25,2.5-6.53.24-7.59-2.31C666.06,369.63,674.72,361.12,678.33,353.58Z"/><path class="cls-12" d="M667.82,350.45a11.57,11.57,0,0,1-1.33,4"/><path class="cls-11" d="M679.5,371.5c-1.48,2.22-5.71,2.8-8.21,2.34h0a4.52,4.52,0,0,1-1.19-.37,1.45,1.45,0,0,1-.59-.47,4,4,0,0,1-.52-1.11h0s0,0,0,0c3.84.4,8.47-5.22,10.27-11.11C681.1,364.26,681.6,368.35,679.5,371.5Z"/><path class="cls-24" d="M496.5,109.5c-26-18-45,15-54,33,12-14,23-21,41-6,4,5-2,6-4,4-30-20-56,27-18,67-15-22,15-38,27-32,3,1,4,3,0,5-43.6,5.69-24.32,27.54,3.36,50.24a31.31,31.31,0,0,0-8.69.79c-100-68.44-17.35-159.75,18.33-125C501.5,106.5,507.5,111.5,496.5,109.5Z"/><path class="cls-11" d="M520.5,301.5c-7.67,24.3-19.84,35.1-35.5,36.26a49.16,49.16,0,0,1-16-1.7h0a78.07,78.07,0,0,1-8.43-2.71c37.57-3.43,64.5-40.43,61.56-90.26C533.12,255,529.19,274,520.5,301.5Z"/><path class="cls-25" d="M460.59,333.35h0q-2.58-1-5.22-2.14a99.09,99.09,0,0,1-17.85-9.84c-14.85-10.7-17.59-22.57-12.11-37.08,2.3-6.07,5.1-9.66,8.33-11.91a21.79,21.79,0,0,0,12,4.54c9.54.79,17.71-3.84,18.24-10.33a7.67,7.67,0,0,0,0-1.07,74.73,74.73,0,0,1,11.85,1.26c.55.1,1.1.22,1.64.34a51.38,51.38,0,0,1,5.2,1.41h0c1.06.34,2.09.71,3.09,1.12a43.18,43.18,0,0,1,7.33,3.75h0a41.49,41.49,0,0,1,9.06,7.89c10.41-18.33,7.62-35.93-3-49.59,1.06.22,2.15.49,3.25.8a55.33,55.33,0,0,1,11.76,4.63h0a31.48,31.48,0,0,1,6.27,4.39c.56.51,1.09,1,1.59,1.57C525.09,292.92,498.16,329.92,460.59,333.35Z"/><path class="cls-20" d="M502.22,281.29a41.49,41.49,0,0,0-9.06-7.89,21.6,21.6,0,0,0,5.55-7c4-7.77,3-16.22-2.18-18.88-4.62-2.36-11,.69-15.19,6.9.81-6.73-1.53-12.55-5.9-13.74-5.09-1.39-11,4.06-13.21,12.16a22.31,22.31,0,0,0-.81,6.68,14.08,14.08,0,0,0-1.41-1.37c3.75-14.35,11.55-23.9,23.16-26.64a31.31,31.31,0,0,1,8.69-.79,42.35,42.35,0,0,1,7.38,1h0C509.84,245.36,512.63,263,502.22,281.29Z"/><path class="cls-26" d="M491.17,263.59c-1.34,3.15-3.45,5.45-5.35,6.06-1-.41-2-.78-3.09-1.12h0c-1-1.74-.89-5,.51-8.3.15-.36.32-.71.49-1.05-.07,1,.23,1.77.83,2,.81.27,1.86-.66,2.34-2.08s.2-2.79-.61-3.06a1,1,0,0,0-.33,0c1.52-1.6,3.21-2.35,4.52-1.79C492.67,255.11,493,259.33,491.17,263.59Z"/><path class="cls-12" d="M502.22,281.29h0c.82.95,1.61,1.95,2.36,3"/><path class="cls-27" d="M457.61,258a7.67,7.67,0,0,1,0,1.07c-.53,6.49-8.7,11.12-18.24,10.33a23,23,0,0,1-9.64-2.89,8.31,8.31,0,0,1-.24-2.77c.53-6.49,8.7-11.12,18.24-10.33a23.25,23.25,0,0,1,9.63,2.88A7.62,7.62,0,0,1,457.61,258Z"/><path class="cls-28" d="M464,265.52a7.67,7.67,0,0,1,0,1.07c-.53,6.49-8.7,11.12-18.24,10.33a21.79,21.79,0,0,1-12-4.54,11.56,11.56,0,0,1-4-5.87,23,23,0,0,0,9.64,2.89c9.54.79,17.71-3.84,18.24-10.33a8,8,0,0,0-.25-2.78,16.51,16.51,0,0,1,2.67,1.88,14.08,14.08,0,0,1,1.41,1.37A9.81,9.81,0,0,1,464,265.52Z"/><path class="cls-20" d="M440.9,372.51h0c-4.3,4.92-7.18,10.54-9.55,17-1.33,3.62-2.49,7.5-3.65,11.68v0c-11.89,1-29.17,7.32-51.86,17.36-1.58-4.53-3.12-9-4.71-13.47C391.07,400.44,413.11,390.33,440.9,372.51Z"/><path class="cls-20" d="M363.05,424.39l-7.38,3.42c-.29-1.1-.58-2.21-.87-3.35,0,0,0-.06,0-.08l0-.11-.12-.53c-1.23-5.56-3.18-14.91-3.58-15.52h0c1.33-.09,2.67-.2,4-.34A122.2,122.2,0,0,1,363.05,424.39Z"/><path class="cls-29" d="M522,241.53h-1.48a31.48,31.48,0,0,0-6.27-4.39q3.78.15,7.37,0c42.05-2.18,63.5-38,31.84-48.6-2.5-.5-3.5-3.5,2-5,14,1,32,18,8,46,86.5-31.5,55.5-74.5,29-72-3.5,1.5-8.5-.5-2-5,7-6,37.5,3.5,36,36,37.5-57.5-2.5-66.5-17-63-2.83.68-6.5-2.5-1-6C690.75,109.74,636.11,242,522,241.53Z"/><path class="cls-12" d="M475.44,240.7c-5.09-1.39-11,4.06-13.21,12.16a22.31,22.31,0,0,0-.81,6.68,9.81,9.81,0,0,1,2.61,6,74.73,74.73,0,0,1,11.85,1.26,15.83,15.83,0,0,0,1.71-2.12,0,0,0,0,1,0,0,21.59,21.59,0,0,1,2.35-7.82,25,25,0,0,1,1.39-2.37h0C482.15,247.71,479.81,241.89,475.44,240.7Zm-1.92,17.71c-1.21,4.47-4,7.61-6.18,7s-3-4.71-1.77-9.17a16.36,16.36,0,0,1,1.07-2.89,1.46,1.46,0,0,0,.82,1.31c.81.28,1.85-.65,2.33-2.07a2.88,2.88,0,0,0-.26-2.86,2.72,2.72,0,0,1,2.22-.5C474,249.84,474.74,253.94,473.52,258.41Z"/><path class="cls-26" d="M473.52,258.41c-1.21,4.47-4,7.61-6.18,7s-3-4.71-1.77-9.17a16.36,16.36,0,0,1,1.07-2.89,1.46,1.46,0,0,0,.82,1.31c.81.28,1.85-.65,2.33-2.07a2.88,2.88,0,0,0-.26-2.86,2.72,2.72,0,0,1,2.22-.5C474,249.84,474.74,253.94,473.52,258.41Z"/><path class="cls-12" d="M498.71,266.42a21.6,21.6,0,0,1-5.55,7h0a43.18,43.18,0,0,0-7.33-3.75c1.9-.61,4-2.91,5.35-6.06,1.81-4.26,1.5-8.48-.7-9.41-1.31-.56-3,.19-4.52,1.79a1,1,0,0,1,.33,0c.81.27,1.08,1.64.61,3.06s-1.53,2.35-2.34,2.08c-.6-.21-.9-1-.83-2-.17.34-.34.69-.49,1.05-1.4,3.3-1.53,6.56-.51,8.3a51.38,51.38,0,0,0-5.2-1.41,15.76,15.76,0,0,1,.07-2.46,0,0,0,0,1,0,0,21.59,21.59,0,0,1,2.35-7.82,25,25,0,0,1,1.39-2.37h0c4.16-6.21,10.57-9.26,15.19-6.9C501.71,250.2,502.69,258.65,498.71,266.42Z"/><path class="cls-20" d="M679.24,360.72h0c-1.8,5.89-6.43,11.51-10.27,11.11a4.08,4.08,0,0,1-.1-1.54v0c.13-1.15.63-2.09.63-2.51A30.05,30.05,0,0,0,677,357.51,17.27,17.27,0,0,1,679.24,360.72Z"/></g><g id="band"><path class="cls-30" d="M601,557c4,17-77,96-225.07,95-142.15-.94-204.44-66.5-218.68-98.26,0-.45,18-51.66,19.62-56.42L159,543s-25-19-48-24a67.2,67.2,0,0,1,33-20c-8-19-8-43-8-43,22,15,38,24,49,40-2.72-1.22-6.53-2.71-7-2-.71,1.07,1.06,4.11,5,8.46,10,11.05,33.79,30.52,66.08,47.16A294.87,294.87,0,0,0,290,567c25.08,8.45,52.93,13.79,82,12.76q6-.21,12.06-.79,6.51-.63,12.83-1.37c44-5.11,80.91-13.94,110.21-24.61,34-12.37,57.72-27.21,70.61-41.63,5.31-5.93,8.78-11.8,10.35-17.39-9-5-16-4-16-4,12-13,66-35,66-35s-9,24-25,45c24,6,44,23,44,23-33,2-57,21-57,21l-11-48Z"/><text class="cls-31" transform="translate(181.51 564.7) rotate(40.5)">w</text><text class="cls-31" transform="translate(205.47 584.79) rotate(32.21)">w</text><text class="cls-31" transform="matrix(0.91, 0.42, -0.42, 0.91, 231.75, 601.12)">w</text><text class="cls-31" transform="translate(259.11 613.29) rotate(20.1)">.</text><text class="cls-31" transform="translate(270.3 617.68) rotate(15.6)">fi</text><text class="cls-31" transform="matrix(0.98, 0.18, -0.18, 0.98, 299.03, 625.4)">t</text><text class="cls-31" transform="translate(320.51 629.46) rotate(4.81)">m</text><text class="cls-31" transform="translate(353.71 631.8) rotate(0.67)">i</text><text class="cls-31" transform="translate(364.99 631.93) rotate(-1.56)">t</text><text class="cls-31" transform="translate(385.61 631.29) rotate(-4.19)">h</text><text class="cls-31" transform="translate(411.52 629.43) rotate(-7.03)">a</text><text class="cls-31" transform="matrix(0.98, -0.18, 0.18, 0.98, 441.05, 625.68)">n</text><text class="cls-31" transform="translate(463.19 621.63) rotate(-13.77)">n</text><text class="cls-31" transform="translate(485.27 616.16) rotate(-17.85)">o</text><text class="cls-31" transform="translate(504.92 609.65) rotate(-21.48)">.</text><text class="cls-31" transform="translate(516.24 605.38) rotate(-26.11)">f</text><text class="cls-31" transform="matrix(0.82, -0.57, 0.57, 0.82, 538.14, 594.6)">u</text><text class="cls-31" transform="translate(561.3 578.1) rotate(-45.47)">n</text><path class="cls-28" d="M185,496l-2,6.46c-3.92-4.35-5.69-7.39-5-8.46C178.47,493.29,182.28,494.78,185,496Z"/><path class="cls-32" d="M588,494c-1.57,5.59-5,11.46-10.35,17.39L572,490S579,489,588,494Z"/></g><g id="brushstrokes"><g id="mund"><g class="cls-33"><path class="cls-34" d="M442.31,323.05l.6.14a2,2,0,0,1-.29-.15A.37.37,0,0,0,442.31,323.05Z"/><path class="cls-34" d="M443.46,323.33l.11,0h.1Z"/><path class="cls-34" d="M444.53,323.5a2.88,2.88,0,0,0-.54-.11A2.33,2.33,0,0,0,444.53,323.5Z"/><path class="cls-34" d="M443.7,323.26c.06.05.08.09,0,.09h0l.32,0A1.57,1.57,0,0,1,443.7,323.26Z"/><path class="cls-34" d="M443.7,323.26l-.18-.13Z"/><path class="cls-34" d="M444.14,322.48c.11,0,0,.23.25.22.5,0,.93.05,1.39.11.22,0,.5.29.72.27.51,0,1.8-.13,1.07-.22-1.11-.15-1.86-.13-2.84-.34l-2.46-.23c-.23,0-.44-.11-.66-.17l.87.3A11.45,11.45,0,0,0,444.14,322.48Z"/><path class="cls-34" d="M438,321.7h.33a3.13,3.13,0,0,0,1.41.45l-.18-.18c-.28-.07-.33,0-.1.11a5.74,5.74,0,0,0-1.59-.61C437.85,321.55,437.82,321.62,438,321.7Z"/><path class="cls-34" d="M437.52,321.4l.32.08v0l-.32-.05Z"/><path class="cls-34" d="M446.81,323.67c1.41.21,2.73.44,4,.52a.41.41,0,0,1,.31-.05,1.82,1.82,0,0,0,.3.11l.57.05h.21c.11,0,.08-.06,0-.1l-.19-.1.19.1a2.13,2.13,0,0,0,.3.09,3.44,3.44,0,0,1,.55,0,2.37,2.37,0,0,1-.55,0h-.41c.43,0,.86.1,1.3.12l.27,0a1.49,1.49,0,0,1,.83,0h.23l0,0,.08,0,1,0,.65-.14.22.12a.9.9,0,0,1,.37-.12l-.5-.2c-.22-.12-.49.24-.75,0,.26.22.53-.14.75,0l.5.2a2.29,2.29,0,0,1,1,0,1.59,1.59,0,0,1-1,0,.9.9,0,0,0-.37.12l-.22-.12-.65.14a18.49,18.49,0,0,0,2,0A37.84,37.84,0,0,0,470.27,322c.57-.22,1.16-.37,1.7-.64l1.62-.75c.53-.25,1.09-.46,1.6-.75l1.52-.87c.5-.29,1-.58,1.48-.88l1.33-1.05a19.81,19.81,0,0,0,2.52-2.22c.39-.39.78-.79,1.18-1.18l.61-.59c.19-.21.36-.43.55-.65.73-.86,1.53-1.7,2.33-2.58a31.25,31.25,0,0,0,1.92-2.93c.63-1.13,1.09-2.33,1.46-3.12.63-2.28-.84-1.56-.93-1.5a4.15,4.15,0,0,0-1.43,1.66,11,11,0,0,1-1.75,2.62c.62-.74.56-.37.16.34a9.65,9.65,0,0,1-.8,1.22c-.16.21-.33.42-.5.61a3.2,3.2,0,0,1-.59.47,8.75,8.75,0,0,0-1.6,1.41l-.75.87c-.27.27-.55.56-.82.86-.55.58-1.07,1.22-1.64,1.8a23.45,23.45,0,0,1-1.88,1.51,22.59,22.59,0,0,1-2.08,1.45c-4.17,2.36-8.28,4.34-13.36,5.15-1.33.29-2.5.58-3.64.8a13.42,13.42,0,0,1-2.43.05,27.88,27.88,0,0,0-2.91.19l2.84-.14c.74,0-.51.31-1,.38-.22.05-.54-.21-.76-.16-.45,0-.88.14-1.37.15-.22,0-.18-.2-.29-.18a14.27,14.27,0,0,1-1.63.18l-.9-.18a4.87,4.87,0,0,0-.55-.06,2.29,2.29,0,0,1-.37,0,.51.51,0,0,1,.13.28l-.59-.17.59.17a.51.51,0,0,0-.13-.28c-.9,0-1.93,0-2.9-.05v0a5.82,5.82,0,0,1,1.65.39c-.24-.09-.2-.15.09-.12l.2.15a3.13,3.13,0,0,1-1.46-.25l-.33,0c-.15-.06-.13-.13-.15-.2l-.33,0A6.34,6.34,0,0,0,446.81,323.67Z"/><path class="cls-34" d="M452.57,324.3h-.27c.36,0,.72.09,1.09.11A1.6,1.6,0,0,0,452.57,324.3Z"/></g></g><g id="uhrzeiger"><g class="cls-33"><path class="cls-34" d="M640.4,357.26l.14.32a.6.6,0,0,1,0-.19C640.54,357.31,640.47,357.29,640.4,357.26Z"/><path class="cls-34" d="M640.66,357.88l0,.06,0,0Z"/><path class="cls-34" d="M641,358.41a1,1,0,0,0-.14-.28A.74.74,0,0,0,641,358.41Z"/><path class="cls-34" d="M640.82,358c0,.05,0,.08-.09,0h0l.1.15A1.09,1.09,0,0,1,640.82,358Z"/><path class="cls-34" d="M640.82,358c0-.05,0-.12,0-.14Z"/><path class="cls-34" d="M641.66,357.73c.05,0-.18.13-.08.22a4.19,4.19,0,0,1,.5.65c.1.09-.07.38,0,.47s.78.76.59.37c-.3-.57-.54-.93-.82-1.44s-.58-.75-.86-1.16a1.58,1.58,0,0,1-.14-.36l.12.52C641,357.26,641.45,357.4,641.66,357.73Z"/><path class="cls-34" d="M639.46,354.85l.15.14a1,1,0,0,0,.31.78l.06-.17c-.08-.14-.15-.13-.14,0a1.87,1.87,0,0,0-.27-.94C639.52,354.73,639.45,354.76,639.46,354.85Z"/><path class="cls-34" d="M639.47,354.52l.1.16h0l-.12-.16Z"/><path class="cls-34" d="M641.71,359.5c.35.73.66,1.43.95,2.12.07,0,.13.05.14.13a.6.6,0,0,0,0,.19l.12.3.07.1h0c0,.05.07,0,.09,0l0-.14,0,.14a.55.55,0,0,0,0,.18,1,1,0,0,1,.14.28.62.62,0,0,1-.14-.28l-.1-.15,0,0,.28.69.09.13c.1.15.2.3.14.45l0,.13v0l.21.52.28.29-.06.16a.39.39,0,0,1,.2.14,2.45,2.45,0,0,0,.06-.34c.06-.16-.33-.15-.19-.38-.14.23.25.22.19.38a2.45,2.45,0,0,1-.06.34.82.82,0,0,1,.14.59.57.57,0,0,1-.14-.59.39.39,0,0,0-.2-.14l.06-.16-.28-.29.41,1.05c.44,1.14.9,2.21,1.37,3.3l.71,1.65c.22.52.53,1.23.63,1.52a7.78,7.78,0,0,1,.26.77l-.82,0h-.35l-.61,0c-2.59.16-4.85.88-7.52.73a20.52,20.52,0,0,0-3.78.57.9.9,0,0,0-.3,1.56c.93.73,1.46.15,3.14.38-1.13-.1.71-.69,1.84-.28,1.64.65,3.63-.44,5.5-.52.46,0,.94-.15,1.49-.22l.71-.06,1.27-.19,2.54-.41c-.41-.88-.83-1.76-1.25-2.65l-.54-1.12-.34-.66c-.45-.88-.9-1.79-1.31-2.75a12,12,0,0,0-1.23-1.84,13.73,13.73,0,0,1-.52-1.32,9.1,9.1,0,0,0-.88-1.46c.28.51.51.87.82,1.44.19.39-.41-.14-.59-.37s.06-.38,0-.47a3.58,3.58,0,0,0-.49-.65c-.1-.09.13-.17.08-.22-.22-.33-.62-.47-.67-.73l-.12-.52a1.25,1.25,0,0,0-.12-.3l-.14-.16a.69.69,0,0,1-.19.19c0-.1,0-.25-.07-.35,0,.1,0,.25.07.35a.69.69,0,0,0,.19-.19c-.34-.41-.7-.9-1-1.35h0a2.1,2.1,0,0,1,.27.94c0-.15.06-.16.14,0l-.06.17a1.08,1.08,0,0,1-.32-.79l-.15-.13c0-.09.07-.12.12-.17l-.1-.16A2.77,2.77,0,0,0,641.71,359.5Z"/><path class="cls-34" d="M643.09,362.5l-.08-.13.23.58C643.3,362.8,643.19,362.65,643.09,362.5Z"/></g></g><g class="cls-33"><path class="cls-34" d="M626.88,342.82l.1,0h-.06S626.89,342.79,626.88,342.82Z"/><polygon class="cls-34" points="627.08 342.75 627.09 342.75 627.11 342.73 627.08 342.75"/><path class="cls-34" d="M627.24,342.67l-.09,0Z"/><path class="cls-34" d="M627.09,342.7s0,0,0,0h0l0,0Z"/><path class="cls-34" d="M627.09,342.7l0,0Z"/><path class="cls-34" d="M627,342.36s0,.08.07,0a1.3,1.3,0,0,1,.2-.15s.12.05.15,0,.24-.26.12-.21l-.46.23-.36.26-.12,0,.17,0C626.87,342.57,626.91,342.42,627,342.36Z"/><path class="cls-34" d="M626.11,343l0-.05a.25.25,0,0,0,.25-.08l0,0c-.05,0,0,.05,0,.05a.58.58,0,0,0-.3.05S626.08,343,626.11,343Z"/><path class="cls-34" d="M626,343l0,0h0l0,0Z"/><path class="cls-34" d="M627.58,342.44l.67-.24s0-.05,0-.05h.07l.09,0,0,0h0s0,0,0,0l-.05,0,.05,0h.06a.19.19,0,0,1,.09,0l-.09,0,0,0v0l.22-.08,0,0s.09-.07.14,0h0l.17-.06.08-.09.06,0a.1.1,0,0,1,0-.07l-.11,0s0,.12-.12.05c.08.07.07-.08.12-.05l.11,0a.2.2,0,0,1,.19,0,.14.14,0,0,1-.19,0,.1.1,0,0,0,0,.07l-.06,0-.08.09.33-.1c.71-.23,1.35-.5,2.09-.75.4-.14.79-.25,1.17-.35a15.09,15.09,0,0,1,2.23-.66,5,5,0,0,0,1.1-.42.4.4,0,0,0-.06-.61c-.36-.24-.47,0-1,0,.35,0-.15.3-.53.2-.57-.16-1.07.36-1.63.48-.14,0-.28.11-.44.17a23.41,23.41,0,0,0-2.43,1,3.14,3.14,0,0,0-.57.38,2.58,2.58,0,0,1-.42.14,2,2,0,0,0-.45.27l.45-.25c.12-.05,0,.15-.11.21s-.12,0-.15,0a.94.94,0,0,0-.2.16s-.06-.06-.07,0-.14.21-.22.22l-.17,0-.09,0-.06,0a.31.31,0,0,1,.07.09h0a.31.31,0,0,0-.07-.09,3.56,3.56,0,0,1-.42.32h0a.49.49,0,0,1,.3,0s-.06,0,0-.06l0,0a.25.25,0,0,1-.25.08l0,.05s0,0,0-.06l-.05,0A.63.63,0,0,0,627.58,342.44Z"/><path class="cls-34" d="M628.53,342.08l0,0,.18-.06S628.58,342.05,628.53,342.08Z"/></g><g class="cls-33"><path class="cls-34" d="M602.77,351.87c-.41.25-.84.5-1.25.77a5.21,5.21,0,0,1,.67-.33A2.37,2.37,0,0,0,602.77,351.87Z"/><path class="cls-34" d="M600.38,353.38l-.22.14-.17.14Z"/><path class="cls-34" d="M598.32,354.89c.38-.25.72-.5,1.06-.76C599.07,354.33,598.71,354.58,598.32,354.89Z"/><path class="cls-34" d="M600,353.77c-.15.06-.24.07,0-.1h0l-.61.47C599.61,354,599.83,353.86,600,353.77Z"/><path class="cls-34" d="M600,353.77l.44-.19C600.33,353.63,600.18,353.69,600,353.77Z"/><path class="cls-34" d="M600,354.84c-.19.16-.28-.07-.66.27-.94.73-1.68,1.44-2.57,2.09-.37.35-1.17.63-1.54,1-.9.78-3.08,2.93-1.68,1.8,2.08-1.71,3.44-2.81,5.36-4.27,1.55-1.21,3-2.38,4.71-3.49a15.32,15.32,0,0,1,1.4-.81c-.63.3-1.24.66-1.93,1A32.39,32.39,0,0,0,600,354.84Z"/><path class="cls-34" d="M612.46,347.06c-.22.13-.68.37-.68.37a13.94,13.94,0,0,0-3.23,1.42l.53-.12c.62-.3.66-.39.09-.18.66-.23,1.29-.47,1.91-.74l1.86-.75C612.84,347,612.83,347,612.46,347.06Z"/><path class="cls-34" d="M613.66,346.74l-.72.32h0l.72-.34Z"/><path class="cls-34" d="M594.13,358.33c-2.66,2.1-5.13,4.13-7.6,6a2,2,0,0,1-.53.5l-.63.38-1.09.81-.37.3h0c-.19.17-.11.15,0,.09l.43-.21-.43.21c-.19.1-.4.22-.64.37s-.67.52-1,.77a11.37,11.37,0,0,1,1-.77l.61-.47.16-.15c-.85.59-1.68,1.21-2.55,1.76l-.52.38a6.75,6.75,0,0,1-1.68,1l-.47.29.1,0-.18.09-2,1.14-1.32.82-.52.13a3,3,0,0,1-.74.47,9.31,9.31,0,0,0,1.14-.31c.53-.13.94-.75,1.6-.83-.66.08-1.07.7-1.6.83a9.31,9.31,0,0,1-1.14.31,8.92,8.92,0,0,1-2.32.85,12.41,12.41,0,0,1,2.32-.85,3,3,0,0,0,.74-.47l.52-.13,1.32-.82-2.07,1c-.71.3-1.41.63-2.15.91a42.71,42.71,0,0,1-14.45,2.83,66.67,66.67,0,0,1-15-1.52,51.57,51.57,0,0,1-15.22-6,100.62,100.62,0,0,1-12.67-8.94c-4-3.23-7.83-6.69-12.1-10.2-.85-.64-1.88-1.42-3-2.23s-2.47-1.59-3.82-2.3a42.33,42.33,0,0,0-7.56-3.17c-5.51-1.09-2.89.69-2.7.8,1.49.87,2.87,1.27,4.58,2.08a21.36,21.36,0,0,1,2.9,1.36,26.26,26.26,0,0,1,3.64,2.27c-1.85-1.31-1.08-1,.6,0,.42.25.9.53,1.39.86l1.5,1.11c.51.39,1,.79,1.49,1.18s.9.83,1.28,1.22c4.4,4.45,11.52,9.91,17.91,14.54a59.23,59.23,0,0,0,5.48,3.38,51,51,0,0,0,16.94,6.17,75.52,75.52,0,0,0,9,1.1,59.18,59.18,0,0,0,9.47-.22,35,35,0,0,0,9-2.41,55.42,55.42,0,0,0,5.59-2.36,41.56,41.56,0,0,0,6-3.92,54.34,54.34,0,0,1-5.91,3.8c-.81.42-.56.21,0-.19s1.47-1,2-1.35,1.24-.52,1.65-.84a32.16,32.16,0,0,0,2.69-2c.39-.34.48-.11.67-.29,1.3-1,2.11-2,3-2.61l1.8-1.27c.35-.27.7-.53,1.05-.83l.65-.6a.75.75,0,0,1-.47.05l1.19-.85-1.19.85a.75.75,0,0,0,.47-.05c1.58-1.45,3.42-3.1,5.17-4.58h0c-1,.83-2.08,1.63-3.26,2.39.5-.34.49-.24,0,.2l-.48.24a15.58,15.58,0,0,1,2.77-2.16l.56-.54c.32-.2.35-.13.45-.13l.62-.5C595.62,357.37,594.13,358.33,594.13,358.33Z"/><path class="cls-34" d="M583.27,366.83l.52-.39c-.72.49-1.41,1-2.15,1.48A6.87,6.87,0,0,0,583.27,366.83Z"/></g><g class="cls-33"><path class="cls-34" d="M601.21,362.42,599.57,364c.28-.25.57-.49.88-.72A5.57,5.57,0,0,0,601.21,362.42Z"/><path class="cls-34" d="M598.05,365.41l-.29.28-.23.25Z"/><path class="cls-34" d="M595.26,368.19c.51-.48,1-.95,1.44-1.4C596.27,367.17,595.8,367.63,595.26,368.19Z"/><path class="cls-34" d="M597.56,366.05c-.2.14-.31.2,0-.1h0l-.83.85C597,366.5,597.3,366.26,597.56,366.05Z"/><path class="cls-34" d="M597.56,366.05l.58-.44C598,365.73,597.77,365.88,597.56,366.05Z"/><path class="cls-34" d="M597.43,367.35c-.26.3-.36.06-.89.64-1.27,1.33-2.33,2.5-3.57,3.7-.52.59-1.6,1.25-2.13,1.83-1.28,1.34-4.49,4.8-2.48,2.88,3-2.89,4.92-4.84,7.58-7.48,2.11-2.18,4.13-4.3,6.34-6.5.63-.6,1.23-1.15,1.84-1.69L601.58,363C600.38,364,599.19,365.57,597.43,367.35Z"/><path class="cls-34" d="M613.78,351.51l-.87.8a33,33,0,0,0-4.17,3.49l.69-.45c.79-.7.84-.83.1-.26,1.71-1.29,3.28-2.57,4.9-3.88C614.28,351.24,614.26,351.17,613.78,351.51Z"/><path class="cls-34" d="M615.37,350.44l-.94.77h0l.93-.78Z"/><path class="cls-34" d="M589.42,374.14c-3.78,3.61-7.41,6.94-11.08,10a5.09,5.09,0,0,1-.81.78l-.92.65L575,386.93l-.57.48h0c-.3.26-.18.22,0,.1l.63-.39-.63.39c-.28.18-.58.39-.93.64s-1,.83-1.58,1.23c.6-.48,1.12-.9,1.58-1.23l.91-.75.26-.23c-1.28,1-2.52,2-3.82,2.88l-.8.61a16.33,16.33,0,0,1-2.49,1.7l-.71.48.15-.08-.28.17c-1,.64-2,1.3-3.05,1.93l-2,1.35s-.5.21-.76.3a11.64,11.64,0,0,1-1.12.76c.61-.26,1.17-.47,1.67-.7.76-.32,1.44-1.15,2.38-1.45-.94.3-1.62,1.13-2.38,1.45-.5.23-1.06.44-1.67.7a20.48,20.48,0,0,1-3.43,1.65,30.42,30.42,0,0,1,3.43-1.65,11.64,11.64,0,0,0,1.12-.76c.26-.09.76-.3.76-.3l2-1.35c-2,1.21-4.1,2.39-6.29,3.47-14,7-28.91,9.35-45,7.17a66.28,66.28,0,0,1-23.83-8.32c-1.82-1-3.51-2.1-5.22-3.14s-3.34-2.23-4.91-3.45a84.73,84.73,0,0,1-9-7.66,68.13,68.13,0,0,1-7.79-8.89,46.53,46.53,0,0,1-5.92-10.42,30.94,30.94,0,0,1-1.62-5.14,14.63,14.63,0,0,1-.19-6,8.55,8.55,0,0,1,1-2.68,8.66,8.66,0,0,1,1.77-2.07c.34-.28.72-.52,1.07-.77s.75-.42,1.13-.6l1.11-.47,1.15-.36c7.66-2.78,3.4-2.54,3-2.47a35.32,35.32,0,0,0-3.72.68,13.11,13.11,0,0,0-3.86,1.51,10.37,10.37,0,0,0-3.72,3.76,13.16,13.16,0,0,0-1.55,6.9c0-1.88.17-2.46.19-2.18s0,1.42.19,3a28.38,28.38,0,0,0,1.25,5.44c.3,1,.7,1.91,1,2.84s.76,1.77,1.07,2.57c1.88,4.62,5.46,9.55,9.77,14.09a101.83,101.83,0,0,0,14.28,12.28,81.39,81.39,0,0,0,8.4,5.21,65.76,65.76,0,0,0,26.27,8.56A82.29,82.29,0,0,0,542,405.93a64.44,64.44,0,0,0,13.32-5.09c2.89-1.4,6-2.91,8.2-4.3a82.07,82.07,0,0,0,9-6.34,102.72,102.72,0,0,1-8.79,6.17c-2.4,1.46,1.53-1.25,3-2.36.64-.46,1.8-1,2.42-1.47,1.42-1,2.63-2,4.06-3.19.59-.53.66-.29,1-.55,2-1.6,3.25-3.08,4.51-4.07,1-.76,1.82-1.45,2.64-2.14.52-.44,1-.87,1.56-1.36l1-1a1.22,1.22,0,0,1-.63.22c.51-.42,1.23-1,1.73-1.46-.5.43-1.22,1-1.73,1.46a1.22,1.22,0,0,0,.63-.22c2.36-2.33,5-5,7.52-7.57h0c-1.48,1.46-3,2.83-4.62,4.2.71-.6.68-.47-.09.26l-.67.47a47.08,47.08,0,0,1,4-3.7l.8-.88c.44-.38.48-.31.61-.35l.87-.86C591.48,372.37,589.42,374.14,589.42,374.14Z"/><path class="cls-34" d="M573.46,388.18l.77-.62c-1.07.81-2.11,1.64-3.21,2.41A14.76,14.76,0,0,0,573.46,388.18Z"/></g><g id="hanno-2" data-name="hanno"><g id="linke_ohr" data-name="linke ohr"><g class="cls-33"><path class="cls-34" d="M239.36,287l0-.3a.77.77,0,0,1,0,.15A.25.25,0,0,0,239.36,287Z"/><path class="cls-34" d="M239.3,286.43v-.06l0,0Z"/><path class="cls-34" d="M239.22,285.9a2,2,0,0,0,0,.27A1.48,1.48,0,0,0,239.22,285.9Z"/><path class="cls-34" d="M239.24,286.32s0-.05,0,0h0l0-.16A.66.66,0,0,1,239.24,286.32Z"/><path class="cls-34" d="M239.24,286.32l0,.11A.36.36,0,0,0,239.24,286.32Z"/><path class="cls-34" d="M238.89,286.24c0-.06.08-.06.05-.16s-.13-.44-.17-.67,0-.28,0-.38-.28-.84-.22-.48l.26,1.4.26,1.2c0,.11,0,.22,0,.33V287A8,8,0,0,0,238.89,286.24Z"/><path class="cls-34" d="M239.55,289.23l-.05-.15a2,2,0,0,0-.07-.73l0,.12c0,.14.05.15.06,0a3.34,3.34,0,0,0,0,.84A.11.11,0,0,0,239.55,289.23Z"/><path class="cls-34" d="M239.51,289.49l0-.16h0l0,.16Z"/><path class="cls-34" d="M239,284.81c-.1-.7-.2-1.34-.29-2a.2.2,0,0,1-.05-.14.85.85,0,0,0,0-.16l0-.27,0-.1h0s0,0,0,0a.31.31,0,0,1,0,.1v-.1a.38.38,0,0,0,0-.15l-.06-.27a1.68,1.68,0,0,1,.06.27l0,.15,0,0-.11-.63,0-.13a1,1,0,0,1-.06-.4l0-.12v0l-.08-.48-.12-.3,0-.12a.61.61,0,0,1-.09-.16l0,.25c0,.12.14.22.08.36.06-.14-.1-.24-.08-.36l0-.25a1.44,1.44,0,0,1-.09-.51,1,1,0,0,1,.09.51.61.61,0,0,0,.09.16l0,.12.12.3a8.48,8.48,0,0,0-.2-1,23.16,23.16,0,0,0-2.08-5.91,13.57,13.57,0,0,0-.93-1.51l-.51-.71-.59-.64c-1.59-1.71-3.59-2.48-5.44-3.73-.74-.46-2.14-1.18-2.83-1.61-1-.44-.76.2-.73.25.41.65,1,.8,2.09,1.64-.78-.56.73.15,1.42.76,1,.93,2.77,1.49,3.93,2.51a9.59,9.59,0,0,1,.93.82,15.25,15.25,0,0,1,3.49,6.14c.22.64.43,1.2.63,1.74a11.3,11.3,0,0,1,.26,1.19c.11.53.23,1,.36,1.41-.11-.48-.21-.87-.33-1.38s.17.22.24.46,0,.28,0,.38.13.42.21.66-.06.1,0,.15c.09.33.27.55.27.77l0,.46a1.24,1.24,0,0,0,0,.27l.05.18a.18.18,0,0,1,.09-.1v0a.18.18,0,0,0-.09.1c.12.42.25.92.36,1.38h0a3.86,3.86,0,0,1-.07-.84c0,.13,0,.12-.06,0l0-.12a1.82,1.82,0,0,1,.1.73l0,.15c0,.08,0,.08,0,.1l0,.16A3.87,3.87,0,0,0,239,284.81Z"/><path class="cls-34" d="M238.51,282l0,.13-.1-.53A.88.88,0,0,0,238.51,282Z"/></g></g><g id="rechte_ohr" data-name="rechte ohr"><g class="cls-33"><path class="cls-34" d="M350.92,260.48l-.08-.29a.81.81,0,0,1,0,.16A.27.27,0,0,0,350.92,260.48Z"/><path class="cls-34" d="M350.77,259.92v-.05l0,0Z"/><path class="cls-34" d="M350.6,259.42a2,2,0,0,0,.08.26A1.08,1.08,0,0,0,350.6,259.42Z"/><path class="cls-34" d="M350.69,259.83s0-.05,0,0h0l-.06-.15A.76.76,0,0,1,350.69,259.83Z"/><path class="cls-34" d="M350.69,259.83v0Z"/><path class="cls-34" d="M350.33,259.79c0-.05.07-.06,0-.16a4.59,4.59,0,0,1-.24-.64c-.05-.1,0-.29,0-.38-.08-.24-.37-.82-.27-.46l.42,1.37.44,1.14c0,.11.06.22.09.33l-.08-.45C350.63,260.33,350.44,260.11,350.33,259.79Z"/><path class="cls-34" d="M351.5,262.63l-.08-.14a1.76,1.76,0,0,0-.2-.7v.12c0,.13.08.14.06,0a3.63,3.63,0,0,0,.19.82S351.51,262.71,351.5,262.63Z"/><path class="cls-34" d="M351.51,262.89l-.05-.15h0l.06.15Z"/><path class="cls-34" d="M350.24,258.36c-.19-.67-.34-1.31-.46-1.94a.37.37,0,0,1-.07-.14.43.43,0,0,0,0-.16l0-.27,0-.1h0c0-.05,0,0,0,0s0,.08,0,.11l0-.11a.86.86,0,0,0,0-.15,1.1,1.1,0,0,1-.06-.26,1.58,1.58,0,0,1,.06.26l.05.15,0,0q-.07-.31-.12-.63l0-.13a.85.85,0,0,1-.05-.4l0-.11v0l-.08-.48-.11-.3,0-.12a.54.54,0,0,1-.08-.17c0,.09,0,.18,0,.25s.14.22.08.37c.06-.15-.11-.25-.08-.37s0-.16,0-.25a1.45,1.45,0,0,1,0-.51,1,1,0,0,1,0,.51.54.54,0,0,0,.08.17l0,.12.11.3c-.05-.31-.1-.63-.14-1a43.3,43.3,0,0,1-.5-6.18,16.48,16.48,0,0,1,.06-1.73,15,15,0,0,1,.17-1.66,20.26,20.26,0,0,1,1.5-6.19c.36-.76.91-2.22,1.3-2.93.35-1-.26-.75-.31-.71a2.51,2.51,0,0,0-.68.83l-.33.6c-.11.23-.25.5-.43.81.49-.84-.1.71-.57,1.51-.79,1.15-.92,3.08-1.23,4.67-.09.4-.09.84-.15,1.32a30.9,30.9,0,0,0,.18,7.49,12.59,12.59,0,0,0,.4,1.86c.09.42.1.89.17,1.23.11.54.23,1,.36,1.43-.11-.49-.21-.88-.33-1.4s.17.23.24.47,0,.28,0,.38a6.41,6.41,0,0,0,.21.67c0,.1-.06.1,0,.15a6.49,6.49,0,0,1,.3.77l.06.45c0,.09,0,.18.05.28l.07.17a.24.24,0,0,1,.08-.11l0,.31,0-.31a.24.24,0,0,0-.08.11c.17.47.34.94.5,1.35h0a3.69,3.69,0,0,1-.15-.83c0,.13,0,.12-.06,0l0-.12a1.94,1.94,0,0,1,.17.71l.07.14a.11.11,0,0,1-.05.11l.05.16A3.55,3.55,0,0,0,350.24,258.36Z"/><path class="cls-34" d="M349.58,255.59l0,.13-.1-.53A.76.76,0,0,0,349.58,255.59Z"/></g></g><g id="mund-2" data-name="mund"><g class="cls-33"><path class="cls-34" d="M322.67,282.16c-.13.21-.24.43-.37.63l.21-.3A1.42,1.42,0,0,0,322.67,282.16Z"/><path class="cls-34" d="M321.93,283.36l-.07.11-.05.09Z"/><path class="cls-34" d="M321.22,284.41a5.66,5.66,0,0,0,.37-.53Z"/><path class="cls-34" d="M321.83,283.6c-.06.06-.09.08,0,0h0l-.22.32Z"/><path class="cls-34" d="M321.83,283.6a2.09,2.09,0,0,0,.16-.18Z"/><path class="cls-34" d="M321.92,284.06c-.06.11-.13,0-.26.25a13,13,0,0,1-1,1.38c-.15.21-.49.45-.64.66-.38.47-1.36,1.67-.73,1a30.38,30.38,0,0,0,2.22-2.7,23.53,23.53,0,0,0,1.51-2.58c.14-.25.25-.49.38-.73-.16.31-.34.63-.55,1S322.37,283.37,321.92,284.06Z"/><path class="cls-34" d="M324.39,277.13c0,.12,0,.38,0,.38-.14.55-.23,1.13-.37,1.72l.12-.25c.07-.33.05-.37,0-.09a6.19,6.19,0,0,0,.37-2S324.42,276.94,324.39,277.13Z"/><path class="cls-34" d="M324.49,276.51l0,.4h0v-.4Z"/><path class="cls-34" d="M319.57,286.55a34.18,34.18,0,0,1-3.53,3.34,1.33,1.33,0,0,1-.27.25l-.3.2c-.18.15-.37.28-.55.42l-.18.15h0c-.09.09-.05.08,0,0l.21-.11-.21.11-.31.2a5.59,5.59,0,0,1-.53.39c.2-.16.38-.28.53-.39l.3-.24.08-.07c-.41.31-.84.61-1.26.9l-.26.2a5.23,5.23,0,0,1-.83.53l-.23.15.05,0-.1,0-1,.61c-.21.15-.42.3-.64.44l-.26.09a1.86,1.86,0,0,1-.35.26l.54-.22c.26-.09.47-.37.78-.46-.31.09-.52.37-.78.46l-.54.22a6.85,6.85,0,0,1-1.12.55,5.72,5.72,0,0,1,1.12-.55,1.86,1.86,0,0,0,.35-.26l.26-.09c.22-.14.43-.29.64-.44-.66.39-1.34.77-2,1.13a40,40,0,0,1-6.9,2.82,28,28,0,0,1-7.47,1.2,39.1,39.1,0,0,1-8.25-.63,49.26,49.26,0,0,1-7.53-2,31.75,31.75,0,0,1-7-3.45c-.86-.57-2.07-1.39-3.21-2.29-.58-.44-1.1-.95-1.6-1.37L266,287.4c-1.75-1.95-1.25-.66-1.18-.53a9.39,9.39,0,0,0,.63,1.07c.26.32.55.64.88,1a36.69,36.69,0,0,0,2.86,2.59c-.9-.75-.52-.54.28.06l3,2.07a21.9,21.9,0,0,0,4.94,2.54,56.76,56.76,0,0,0,5.84,1.81c.95.28,2,.42,3.14.66a36.46,36.46,0,0,0,8.95.52,30.81,30.81,0,0,0,9-1.92,28.76,28.76,0,0,0,4.19-2c.92-.48,1.92-1,2.65-1.42a28.38,28.38,0,0,0,2.95-2c-1,.73-1.73,1.23-2.89,2-.78.47.49-.44,1-.78.2-.16.6-.3.8-.46.47-.3.86-.65,1.34-1,.2-.16.23-.07.32-.16.65-.51,1.07-1,1.49-1.31s.59-.47.87-.69.34-.28.51-.44l.31-.32a.38.38,0,0,1-.22.06l.56-.48-.56.48a.38.38,0,0,0,.22-.06c.76-.78,1.59-1.71,2.31-2.61h0a11.41,11.41,0,0,1-1.42,1.45c.23-.2.22-.16,0,.09l-.22.16a14.93,14.93,0,0,1,1.24-1.27s.16-.2.23-.31.15-.11.19-.12l.26-.31c-.11.09-.32.29-.5.47Z"/><path class="cls-34" d="M314.42,291.16l.26-.2c-.35.26-.71.51-1.07.76A4.26,4.26,0,0,0,314.42,291.16Z"/></g></g><g id="nase"><g class="cls-33"><path class="cls-34" d="M300,271.55l-.1-.18a.36.36,0,0,1,0,.11S300,271.53,300,271.55Z"/><path class="cls-34" d="M299.8,271.2l0,0,0,0Z"/><path class="cls-34" d="M299.59,270.89l.1.16A.41.41,0,0,0,299.59,270.89Z"/><path class="cls-34" d="M299.72,271.16s0-.05,0,0h0l-.07-.09A.23.23,0,0,1,299.72,271.16Z"/><path class="cls-34" d="M299.72,271.16v.07A.17.17,0,0,0,299.72,271.16Z"/><path class="cls-34" d="M299.39,271.25s.06-.07,0-.12a2.51,2.51,0,0,1-.31-.35c-.06,0,0-.2-.09-.25s-.48-.38-.33-.18.39.48.59.75l.53.66a1.89,1.89,0,0,1,.09.21c0-.1-.06-.2-.1-.3S299.52,271.44,299.39,271.25Z"/><path class="cls-34" d="M300.63,273l-.08-.08a.89.89,0,0,0-.19-.47v.09c0,.09.07.08,0,0a1.71,1.71,0,0,0,.19.55S300.64,273,300.63,273Z"/><path class="cls-34" d="M300.64,273.16l-.05-.1h0l.06.1Z"/><path class="cls-34" d="M299.09,270.3a10.8,10.8,0,0,0-.9-1.07s-.07,0-.09-.05a.31.31,0,0,0-.05-.1c0-.05-.1-.09-.14-.14l-.06,0h0s0,0,0,0l0,.07,0-.07-.06-.09a.79.79,0,0,1-.15-.12l.15.12.09.06,0,0c-.11-.1-.22-.21-.34-.3l-.08-.05c-.09-.05-.19-.1-.22-.18l-.06,0h0l0,0-.28-.18-.23-.06,0-.07h-.13l.12.14c0,.07.19,0,.23.11,0-.13-.19,0-.23-.11l-.12-.14a1.14,1.14,0,0,1-.32-.18.43.43,0,0,1,.32.18h.13l0,.07.23.06a5,5,0,0,0-.61-.31,4.73,4.73,0,0,0-2.16-.35,7.82,7.82,0,0,0-2.18.41,4.82,4.82,0,0,0-2.05,1.43c-1.06,1.3-1.28,2.81-1.72,4.35A10.28,10.28,0,0,0,288,276c.15.78.57.37.59.33.37-.46.14-.84.42-1.78-.15.65-.21-.5.13-1.07.45-.81.46-2.06,1-2.94.14-.21.27-.45.44-.68a4.57,4.57,0,0,1,1.76-1.27,6.22,6.22,0,0,1,2.32-.41,8.63,8.63,0,0,1,1.17.06,3.5,3.5,0,0,1,.7.32l.82.45a5.46,5.46,0,0,0-.79-.46c-.21-.1.2,0,.36,0s.1.16.17.19.26.12.4.21,0,.1,0,.11c.18.12.39.15.48.28l.18.24a.79.79,0,0,0,.12.15l.09.07a.18.18,0,0,1,0-.1l.11.17-.11-.17a.18.18,0,0,0,0,.1,5.68,5.68,0,0,1,.71.68h0a1.74,1.74,0,0,1-.3-.49c0,.08,0,.08-.05,0V270a.91.91,0,0,1,.29.41l.09.07c0,.05,0,.07,0,.09l.07.09A1.47,1.47,0,0,0,299.09,270.3Z"/><path class="cls-34" d="M297.76,268.84l.07.05-.28-.25A.45.45,0,0,0,297.76,268.84Z"/></g></g><g id="rechte_auge" data-name="rechte auge"><g class="cls-33"><path class="cls-34" d="M302.18,255.85c.06.13.12.26.19.38a.68.68,0,0,1-.07-.2A.47.47,0,0,0,302.18,255.85Z"/><polygon class="cls-34" points="302.57 256.57 302.61 256.63 302.66 256.68 302.57 256.57"/><path class="cls-34" d="M303.06,257.12l-.26-.27A2.13,2.13,0,0,0,303.06,257.12Z"/><path class="cls-34" d="M302.7,256.66s0,.07,0,0h0c0,.05.09.11.14.17A.7.7,0,0,1,302.7,256.66Z"/><path class="cls-34" d="M302.7,256.66l-.06-.13A.38.38,0,0,0,302.7,256.66Z"/><path class="cls-34" d="M303.07,256.6c.05,0,0,.09.07.18a6.53,6.53,0,0,0,.71.53c.12.06.24.27.38.31s1.09.28.65.13a4.13,4.13,0,0,1-1.54-.9,3.74,3.74,0,0,1-.94-1.24,2.25,2.25,0,0,1-.13-.42,4.47,4.47,0,0,0,.16.57A2.92,2.92,0,0,0,303.07,256.6Z"/><path class="cls-34" d="M302.07,252.82l0,.22a1.91,1.91,0,0,0-.14,1l.05-.14c0-.2,0-.22-.05,0,.08-.39.16-.75.27-1.11C302.14,252.74,302.11,252.72,302.07,252.82Z"/><path class="cls-34" d="M302.24,252.51l-.07.21h0l.07-.22Z"/><path class="cls-34" d="M304.36,257.94a3.78,3.78,0,0,0,2.67.28.53.53,0,0,1,.16-.13,1.18,1.18,0,0,0,.19-.11,1.83,1.83,0,0,0,.24-.31l.05-.13h0c0-.07,0-.06,0,0l-.09.1.09-.1a1.42,1.42,0,0,0,.11-.18l.09-.36a1.58,1.58,0,0,1-.09.36c0,.07-.05.14-.08.2l0,.06a2.51,2.51,0,0,0,.27-.84l0-.18A2.12,2.12,0,0,1,308,256v-.18a4.91,4.91,0,0,0-.06-.67c0-.14-.1-.28-.15-.42v-.16a1.08,1.08,0,0,1-.12-.22l0,.34c0,.15.17.29.11.48.06-.19-.12-.33-.11-.48l0-.34a4.75,4.75,0,0,1-.21-.67,1.31,1.31,0,0,1,.21.67,1.08,1.08,0,0,0,.12.22v.16c0,.14.11.28.15.42a5.94,5.94,0,0,0-.35-1.28,8.09,8.09,0,0,0-1.06-1.86,6,6,0,0,0-1.53-1.48,2.13,2.13,0,0,0-1.06-.36,1.28,1.28,0,0,0-1.07.52,2.88,2.88,0,0,0-.18,2.26A30.77,30.77,0,0,0,304,257.5c.18.49.37,1,.58,1.44l.68-.35c-1.16-2.14-2.33-4.14-3.39-6.43l-1-2.24,0,2.54v0a6.83,6.83,0,0,0,.44,2.38,7.89,7.89,0,0,0,1.15,2.09c1.17,1.14.93.19.9.15a9.43,9.43,0,0,0-.65-1.26,5.65,5.65,0,0,1-.68-1.93c.23,1.05-.39-.29-.3-1.49l-.55.16q.12.28.21.54c.54,1.72,2,3.76,3,5.71l.11.21,1-.5c-.19-.42-.4-.87-.59-1.37a36.53,36.53,0,0,1-1.37-4.64,3.31,3.31,0,0,1-.07-1,.65.65,0,0,1,.36-.54c.35-.18,1.14.22,1.65.81a10.4,10.4,0,0,1,1.52,1.85,5,5,0,0,1,.49,1.47,5.54,5.54,0,0,1,.09,1.79,4.53,4.53,0,0,0-.06-1.75c-.1-.46.2.29.23.61,0,.13-.07.34-.06.48a6.18,6.18,0,0,1-.06.85c0,.14-.11.09-.12.15-.11.36-.22.66-.46.75a1.52,1.52,0,0,1-.52.07h-.58a.21.21,0,0,1,.1.11c-.12,0-.28-.05-.39-.07.11,0,.27.06.39.07a.21.21,0,0,0-.1-.11,3.91,3.91,0,0,1-1.79-.44h0c.32.18.64.34,1,.5-.16-.07-.13-.09.06,0l.12.08a1.94,1.94,0,0,1-.91-.34l-.2-.08c-.09-.06-.07-.08-.07-.12l-.19-.11A3.83,3.83,0,0,0,304.36,257.94Z"/><path class="cls-34" d="M307.75,257.33a.7.7,0,0,1-.06.17,2.79,2.79,0,0,0,.22-.71A3.25,3.25,0,0,0,307.75,257.33Z"/></g></g><g id="linke_auge" data-name="linke auge"><g class="cls-33"><path class="cls-34" d="M274.26,262.93l-.09-.27a.76.76,0,0,1,0,.15A.36.36,0,0,0,274.26,262.93Z"/><path class="cls-34" d="M274.08,262.42v-.05l0,0Z"/><path class="cls-34" d="M273.9,262a1.57,1.57,0,0,0,.09.23A.84.84,0,0,0,273.9,262Z"/><path class="cls-34" d="M274,262.34s0,0,0,0h0l-.06-.14C274,262.25,274,262.3,274,262.34Z"/><path class="cls-34" d="M274,262.34v.1A.31.31,0,0,0,274,262.34Z"/><path class="cls-34" d="M273.64,262.34s.07-.07,0-.16a3.89,3.89,0,0,1-.26-.6c0-.09,0-.26,0-.35s-.35-.78-.26-.43c.14.51.25.84.41,1.28s.33.69.51,1l.11.3L274,263C274,262.81,273.77,262.63,273.64,262.34Z"/><path class="cls-34" d="M275.09,264.81l-.1-.11a1.74,1.74,0,0,0-.3-.61v.12c.06.11.09.11.06,0a2.26,2.26,0,0,0,.31.71S275.11,264.88,275.09,264.81Z"/><path class="cls-34" d="M275.15,265.05l-.08-.13h0l.08.13Z"/><path class="cls-34" d="M273.53,261a12.88,12.88,0,0,1-.33-1.83.24.24,0,0,1-.05-.14.71.71,0,0,0,0-.14l0-.26v-.09h0s0,0,0,0l0,.1,0-.1s0-.09,0-.14a2,2,0,0,1,0-.25,1.19,1.19,0,0,1,0,.25l0,.15v0c0-.2,0-.4,0-.6l0-.12a.79.79,0,0,1,0-.38v-.12a3.15,3.15,0,0,1,0-.44.94.94,0,0,1,0-.29l.08-.07a.21.21,0,0,1,0-.16.71.71,0,0,0-.18.16c-.09.09,0,.24-.08.34.1-.1,0-.25.08-.34a.71.71,0,0,1,.18-.16.46.46,0,0,1,.37-.22,4,4,0,0,1-.37.22.21.21,0,0,0,0,.16l-.08.07a.94.94,0,0,0,0,.29.82.82,0,0,1,.4-.66,1.16,1.16,0,0,1,1.21.17,3.73,3.73,0,0,1,.84,1.07,24,24,0,0,1,1.34,2.58,6.8,6.8,0,0,1,.78,2.94,2.14,2.14,0,0,1-.45,1.19,1.47,1.47,0,0,1-.36.32c-.08.05-.18.07-.2,0l-.28-.51-.34-.66c-.21-.45-.41-.91-.59-1.4-.29-.75-.94-2.06-1.24-2.77-.54-.88-.72-.24-.72-.18-.08.72.28,1.11.65,2.38-.27-.85.47.5.65,1.35a6,6,0,0,0,.85,2l.16.27a4.67,4.67,0,0,0,.3.43l.15.21.08.11s.08,0,.12,0a4.74,4.74,0,0,0,.5-.15,3,3,0,0,0,.47-.24,2.82,2.82,0,0,0,.3-.25,2.91,2.91,0,0,0,.45-.56,2.84,2.84,0,0,0,.4-1.42,4.82,4.82,0,0,0-.33-1.89c-.21-.56-.45-1.07-.7-1.59a26.52,26.52,0,0,0-1.83-3.12,2.22,2.22,0,0,0-.87-.7,1.76,1.76,0,0,0-1.12-.11,1.47,1.47,0,0,0-.77.38,1.31,1.31,0,0,0-.37.69,5.06,5.06,0,0,0,.07,1.46,7,7,0,0,1-.05-1.42c0-.22.05-.13.05,0s0,.4.06.52-.08.26-.05.36a3.69,3.69,0,0,0,.1.64c0,.1-.07.1-.05.15.05.31.2.54.2.75l0,.43a1.22,1.22,0,0,0,0,.26l.06.16a.18.18,0,0,1,.08-.09l0,.28,0-.28a.18.18,0,0,0-.08.09c.12.4.29.86.44,1.28h0a2.22,2.22,0,0,1-.13-.77c0,.12,0,.11-.06,0l0-.11a1.74,1.74,0,0,1,.14.66l.07.14a.09.09,0,0,1,0,.1l0,.15A3,3,0,0,0,273.53,261Z"/><path class="cls-34" d="M273.1,258.38l0,.13,0-.5A.76.76,0,0,0,273.1,258.38Z"/></g></g></g><path class="cls-30" d="M266.77,275.44c-.89.44-1.92,1.62-2.65.44a1.51,1.51,0,0,1,1-2.21C266.18,273.67,267.21,274.56,266.77,275.44Z"/><path class="cls-30" d="M259.26,272.79c-.88.44-1.91,1.62-2.65.44a1.52,1.52,0,0,1,1-2.21C258.67,271,259.7,271.91,259.26,272.79Z"/><path class="cls-30" d="M267.85,268.86c-.88.44-1.91,1.62-2.65.44a1.52,1.52,0,0,1,1-2.21C267.27,267.09,268.3,268,267.85,268.86Z"/><path class="cls-30" d="M323.43,264.26c-1-.16-2.5.19-2.41-1.19a1.51,1.51,0,0,1,2.13-1.19C324,262.48,324.3,263.8,323.43,264.26Z"/><path class="cls-30" d="M318.89,257.72c-1-.16-2.5.2-2.41-1.19a1.51,1.51,0,0,1,2.13-1.19C319.45,255.94,319.77,257.26,318.89,257.72Z"/><path class="cls-30" d="M328.16,259.56c-1-.16-2.5.19-2.41-1.2a1.52,1.52,0,0,1,2.13-1.19C328.72,257.78,329,259.1,328.16,259.56Z"/></g></svg>