<svg xmlns="http://www.w3.org/2000/svg" viewBox="0 0 768 768"><metadata><?xpacket begin="﻿" id="W5M0MpCehiHzreSzNTczkc9d"?>
<x:xmpmeta xmlns:x="adobe:ns:meta/" x:xmptk="Adobe XMP Core 6.0-c002 79.164488, 2020/07/10-22:06:53        ">
   <rdf:RDF xmlns:rdf="http://www.w3.org/1999/02/22-rdf-syntax-ns#">
      <rdf:Description rdf:about=""
            xmlns:dc="http://purl.org/dc/elements/1.1/"
            xmlns:photoshop="http://ns.adobe.com/photoshop/1.0/"
            xmlns:xmpRights="http://ns.adobe.com/xap/1.0/rights/"
            xmlns:xmp="http://ns.adobe.com/xap/1.0/"
            xmlns:xmpMM="http://ns.adobe.com/xap/1.0/mm/"
            xmlns:stEvt="http://ns.adobe.com/xap/1.0/sType/ResourceEvent#">
         <dc:creator>
            <rdf:Seq>
               <rdf:li>orsolya veres</rdf:li>
            </rdf:Seq>
         </dc:creator>
         <dc:rights>
            <rdf:Alt>
               <rdf:li xml:lang="x-default">orsolya veres / www.fitmithanno.fun</rdf:li>
            </rdf:Alt>
         </dc:rights>
         <photoshop:Country>austria</photoshop:Country>
         <xmpRights:WebStatement>www.fitmithanno.fun</xmpRights:WebStatement>
         <xmp:MetadataDate>2021-01-31T20:36:10+01:00</xmp:MetadataDate>
         <xmpMM:InstanceID>xmp.iid:393d9d45-3b93-45b0-942a-ed15939317fe</xmpMM:InstanceID>
         <xmpMM:DocumentID>xmp.did:393d9d45-3b93-45b0-942a-ed15939317fe</xmpMM:DocumentID>
         <xmpMM:OriginalDocumentID>xmp.did:393d9d45-3b93-45b0-942a-ed15939317fe</xmpMM:OriginalDocumentID>
         <xmpMM:History>
            <rdf:Seq>
               <rdf:li>
                  <rdf:Description>
                     <stEvt:action>saved</stEvt:action>
                     <stEvt:instanceID>xmp.iid:393d9d45-3b93-45b0-942a-ed15939317fe</stEvt:instanceID>
                     <stEvt:when>2021-01-31T20:36:10+01:00</stEvt:when>
                     <stEvt:softwareAgent>Adobe Bridge 2021 (Macintosh)</stEvt:softwareAgent>
                     <stEvt:changed>/metadata</stEvt:changed>
                  </rdf:Description>
               </rdf:li>
            </rdf:Seq>
         </xmpMM:History>
      </rdf:Description>
   </rdf:RDF>
</x:xmpmeta>
                                                                                                    
                                                                                                    
                                                                                                    
                                                                                                    
                                                                                                    
                                                                                                    
                                                                                                    
                                                                                                    
                                                                                                    
                                                                                                    
                                                                                                    
                                                                                                    
                                                                                                    
                                                                                                    
                                                                                                    
                                                                                                    
                                                                                                    
                                                                                                    
                                                                                                    
                                                                                                    
                           
<?xpacket end="w"?></metadata>
<defs><style>.cls-1{opacity:0.7;}.cls-2{fill:#f58253;}.cls-18,.cls-3,.cls-4{fill:none;}.cls-3{stroke:#fac3ad;}.cls-3,.cls-4{stroke-width:0.01px;}.cls-4{stroke:#f58253;}.cls-5{fill:#bfc9d2;}.cls-6{fill:#fee9d6;}.cls-7{fill:#82c3eb;}.cls-8{fill:#e4edf2;}.cls-9{fill:#ef5160;}.cls-10{fill:#7d2b42;}.cls-11{fill:#e4c4af;}.cls-12{fill:#2d63a9;}.cls-13{fill:#ffe354;}.cls-14{fill:#928f00;}.cls-15{fill:#c4e4cd;}.cls-16{fill:#e3f2eb;}.cls-17{fill:#987562;}.cls-19{fill:#896e59;}.cls-20{fill:#b48559;}.cls-21{fill:#d2d3d5;}.cls-22{fill:#fff;}.cls-23{fill:#7d8b96;}.cls-24{fill:#4e6a15;}.cls-25{fill:#5f7e3a;}.cls-26{fill:#caa869;}.cls-27{opacity:0.85;}.cls-28{fill:#202020;}</style></defs><g id="color"><g id="resistance_band" data-name="resistance band"><g class="cls-1"><path class="cls-2" d="M236.07,376.19s-3.33,2.38-3.57,1.38c-.61,0-1.21,0-1.82.07-1.28.49-2.58.93-3.85,1.46.25-.37.5-.75.76-1.1l3.1-1.74c1.27-.69,3-1.59,5.46-2.86s5.55-2.78,9.57-4.6c8-3.68,19.49-8.76,36.31-14.66,8.39-3,18.16-6,29.5-9.05l8.82-2.21c3-.74,6.21-1.34,9.46-2.05,1.63-.34,3.27-.73,5-1l5.14-.88c3.49-.59,7.06-1.26,10.78-1.66l8.43-1.08c2.73-.28,6.11-.5,10-.82,2-.15,4.08-.33,6.33-.38l3.47-.12,3.68,0a164.85,164.85,0,0,1,16.54.81c6,.59,12.31,1.58,19,2.68a442.81,442.81,0,0,0,44.14,5.48s1.8.12,5.19.25c1.7.05,3.79.1,6.25.08s5.31-.11,8.59-.06a50.38,50.38,0,0,1,10.86,1.35,49.58,49.58,0,0,1,12.19,4.35,22.62,22.62,0,0,1,5.89,4.52,16.14,16.14,0,0,1,2.32,3.28,17.11,17.11,0,0,1,1.42,3.87c.15.67.26,1.35.36,2,0,.34.09.63.1,1v1.18a5.47,5.47,0,0,1-.11,1.1l-.16,1.06c-.14.68-.32,1.34-.47,2-.72,2.64-1.6,5.23-2.51,7.86-1.82,5.23-3.82,10.63-5.36,16.31a65.22,65.22,0,0,0-1.82,8.7l-.21,2.23c-.06.74,0,1.47,0,2.22a22.16,22.16,0,0,0,.09,2.28c0,.77.11,1.54.19,2.31.15,1.55.39,3.09.67,4.63s.7,3,1.09,4.7a13.1,13.1,0,0,1,.36,2.79,7.63,7.63,0,0,1-.64,3,12.85,12.85,0,0,1-.63,1.29l-.71,1.15a7.3,7.3,0,0,1-2.28,2.21,8.36,8.36,0,0,1-6,.86,12.89,12.89,0,0,1-5.21-2.47,16.71,16.71,0,0,1-5.92-9.53,20.67,20.67,0,0,1-.44-2.82c0-.51,0-1,0-1.52s.07-1,.15-1.46a31.12,31.12,0,0,1,1.42-5.39c1.2-3.47,2.7-6.76,4.21-10.05,3-6.58,6.35-13.09,9-19.87a54.61,54.61,0,0,0,3.08-10.36c.55-3.5.65-7-1.28-9.83a19.8,19.8,0,0,0-3.22-4.1c-.67-.57-1.3-1.18-2-1.71a25.24,25.24,0,0,0-2.21-1.5,40.31,40.31,0,0,0-10-4.23,97.1,97.1,0,0,0-22.1-3.09c-7.5-.31-15-.11-22.5.3s-14.92,1.06-22.29,1.77-14.72,1.4-21.78,2.54l-5.29,1-5.19,1.23-1.29.31-1.28.36-2.54.73-2.53.73-2.49.84c-3.32,1.06-6.55,2.33-9.76,3.56s-6.31,2.63-9.37,4.07c-12.26,5.63-23.59,11.95-34.39,17.58-5.38,2.84-10.65,5.5-15.74,8-2.57,1.21-5.09,2.39-7.57,3.51s-4.95,2.14-7.37,3.07a197.24,197.24,0,0,1-26.52,8.47,139.17,139.17,0,0,1-20.06,3.44l-1.94.2-1.81.11-3.19.17c-1.92.06-3.46,0-4.57,0h3.33c1.09,0,2.42-.12,4-.19.79-.06,1.63-.08,2.53-.17l2.86-.3c4-.38,8.89-1.21,14.43-2.31s11.71-2.79,18.33-4.95,13.7-4.85,21-8.1,14.82-7.15,22.57-11.19c15.49-8.08,31.78-17.36,49.4-23.74a139.15,139.15,0,0,1,27.08-6.87c2.31-.29,4.57-.63,6.89-.87l6.91-.71c4.59-.47,9.13-.91,13.61-1.29,9-.76,17.7-1.34,26.05-1.43a146.44,146.44,0,0,1,23.63,1.33c7.28,1.1,14,3,19.11,6.19a22.23,22.23,0,0,1,6.23,5.61l.59.78c.18.26.32.55.48.82a10,10,0,0,1,.85,1.6,11,11,0,0,1,.78,3.23,22.51,22.51,0,0,1-.52,6.25,48.29,48.29,0,0,1-1.38,5.07c-1,2.93-1.79,5-2.21,6,0,0,.42-1,1.14-2.89a56.46,56.46,0,0,0,2.51-8.31,21.86,21.86,0,0,0,.52-5.95c0-.53-.12-1.05-.19-1.58a10.24,10.24,0,0,0-.46-1.55l-.3-.75c-.14-.26-.3-.52-.45-.78a12.23,12.23,0,0,0-1-1.57c-2.8-4.19-7.92-7.43-14-9.52s-13.19-3.22-20.73-3.76a209.23,209.23,0,0,0-23.94-.1c-8.34.39-17,1.11-25.79,2-4.4.43-8.86.87-13.33,1.37l-6.65.87-6.62,1.23a150.16,150.16,0,0,0-25.75,8.05c-8.32,3.39-16.32,7.33-24.05,11.32-15.45,8-29.95,16.11-43.45,21.93-6.72,3-13.2,5.24-19.13,7.18-3,.93-5.81,1.81-8.52,2.5s-5.25,1.33-7.63,1.88a138.59,138.59,0,0,1-19,2.91l3.05-.32c2-.17,4.91-.63,8.61-1.21A183.73,183.73,0,0,0,284.42,396c6.08-2.24,12.63-4.82,19.35-8.07s13.73-6.81,20.94-10.63c14.44-7.6,29.78-16.16,46.36-22.17a139,139,0,0,1,25.52-6.7c2.16-.33,4.34-.58,6.49-.88s4.36-.47,6.52-.7l12.87-1.27c17-1.55,33.23-2.46,47.49-1.13a98.82,98.82,0,0,1,10.24,1.49,57.09,57.09,0,0,1,9.11,2.67C495,350.7,499.42,354.12,502,358c2.79,3.83,2.33,8.06,1.84,11.2a53.46,53.46,0,0,1-1.78,6.95l.22-.68c.14-.44.38-1.1.62-2a32.41,32.41,0,0,0,1.39-7.65,13.21,13.21,0,0,0-.77-5.3l-.27-.68c-.12-.22-.26-.44-.38-.67-.27-.45-.52-.92-.81-1.38a21.82,21.82,0,0,0-2.11-2.62c-3.15-3.47-8-6.09-13.58-7.9a68.84,68.84,0,0,0-9-2.16c-3.16-.53-6.46-.93-9.88-1.2a196.12,196.12,0,0,0-21.69-.3c-7.56.26-15.4.83-23.41,1.55l-12.12,1.17-6.13.63-6.12.79A140.6,140.6,0,0,0,374,353.63,201.34,201.34,0,0,0,351.34,363c-7.26,3.47-14.24,7.14-21,10.69s-13.19,6.95-19.38,10.06a224.3,224.3,0,0,1-33,13.75c-2.33.69-4.5,1.4-6.52,1.95l-5.59,1.49c-3.41.75-6.07,1.41-7.94,1.7l2-.39,5.46-1.26c4.54-1.17,10.72-2.84,17.11-5.14,12.9-4.33,26.47-11.25,32.15-14.2-3.32,1.7-6.67,3.32-10,4.95s-6.76,3.14-10.21,4.53c11-4.66,21.65-10.3,32.24-15.9,6.13-3.22,12.24-6.47,18.44-9.56,0,0-3.16,1.56-7.89,4l-17.53,9.15c-6.48,3.33-13.08,6.68-18.4,9.05-1.33.6-2.55,1.18-3.69,1.66l-3,1.26c-1.77.72-3,1.24-3.44,1.38,0,0-6,2.36-.1.12,1.46-.57,3.62-1.51,6.8-2.85s7.28-3.32,12.58-6,11.79-6.08,19.75-10.33,17.4-9.32,29-14.51l2.58-1.07L365,356.2l4.48-1.7c3.42-1.26,7.71-2.71,12.89-4.13,1.28-.39,2.65-.67,4.06-1s2.87-.7,4.39-1c3.06-.56,6.31-1.22,9.82-1.6s7.19-.82,11.09-1.23,8-.8,12.32-1.18c8.61-.75,18-1.46,28.22-1.59,5.1-.05,10.4,0,15.86.48A87.9,87.9,0,0,1,484.83,346a42.61,42.61,0,0,1,8.3,3.18,27.16,27.16,0,0,1,7.38,5.41l.8.85c.25.3.47.63.71.94l.71.94c.21.33.39.68.6,1a10.92,10.92,0,0,1,1.63,4.45,25.05,25.05,0,0,1-.9,9.63c-1.7,6.35-4.51,12.51-7.41,18.77l-4.45,9.49a94.29,94.29,0,0,0-4,9.94A23.32,23.32,0,0,0,487,416a14.85,14.85,0,0,0,.75,5.39,14.34,14.34,0,0,0,6.85,8.43,8.84,8.84,0,0,0,5.42,1,5.33,5.33,0,0,0,2.55-1.11,7.4,7.4,0,0,0,1.75-2.2,8.34,8.34,0,0,0,1.05-2.64,7.57,7.57,0,0,0-.13-2.84c-.42-1.9-1-3.8-1.31-5.75a58.42,58.42,0,0,1-.77-5.92,38,38,0,0,1-.06-6,63.18,63.18,0,0,1,2.35-12c1.12-4,2.47-7.89,3.85-11.84s2.86-7.93,3.84-12l.18-.77.12-.78a6.83,6.83,0,0,0,.14-1.55v-.78l-.1-.79c-.08-.52-.15-1.05-.27-1.56a13.72,13.72,0,0,0-2.63-5.72,18.14,18.14,0,0,0-4.81-4.2A30.22,30.22,0,0,0,503,350.7c-1-.43-2-.9-3-1.26a56.31,56.31,0,0,0-6.33-1.89,51.49,51.49,0,0,0-6.54-1.18c-4.43-.51-8.95-.21-13.52-.2a238.1,238.1,0,0,1-27.78-1.73c-9.37-1-18.84-2.45-28.4-4-4.78-.77-9.59-1.53-14.45-2.13s-9.78-1-14.73-1.14-9.95-.05-15,.15l-7.55.58-3.79.29-1.9.15-1.9.23-7.6,1c-1.28.17-2.55.31-3.82.51l-3.81.65L335.17,342c-2.55.48-5.09,1.07-7.64,1.6-10.24,2.14-20.44,5-30.68,8.08A395.47,395.47,0,0,0,236.07,376.19Z"/><path class="cls-3" d="M224.34,379.62l1.45-.87c.94-.59,2.38-1.38,4.25-2.4,3.76-2,9.31-4.89,16.53-8.16s16-7.11,26.36-10.93S295,349.4,308,345.87a337.28,337.28,0,0,1,42.68-8.73l5.79-.73,2.92-.36c1-.1,2-.16,2.95-.24l6-.44c2-.13,4-.36,6-.39a172.42,172.42,0,0,1,24.81.65c8.39.85,16.78,2.35,25.23,3.7s17,2.54,25.64,3.4A206,206,0,0,0,476.12,344c2.19,0,4.4-.1,6.66,0a48.84,48.84,0,0,1,6.82.62,61.49,61.49,0,0,1,6.62,1.47c1.09.33,2.19.6,3.27,1l1.61.57c.54.21,1.07.45,1.6.67l.84.36c.56.26,1.36.69,2.42,1.25l1.71,1.07c.6.43,1.27.92,1.95,1.49a17.51,17.51,0,0,1,4,4.79,17.81,17.81,0,0,1,2,7.41c0,.4,0,.8,0,1.21a7.69,7.69,0,0,1-.14,1.1c0,.36-.11.73-.17,1.1s-.17.69-.25,1.05c-.16.71-.35,1.42-.56,2.11s-.42,1.43-.66,2.13c-1.83,5.7-4.28,11.89-6.3,18.81A70.5,70.5,0,0,0,505.18,403c-.06.94-.23,1.89-.21,2.83s-.06,1.87,0,2.89a58.87,58.87,0,0,0,.62,6c.31,2,.81,4,1.33,6.15a10.94,10.94,0,0,1,.35,3.82,9.64,9.64,0,0,1-1.37,3.75,14.39,14.39,0,0,1-1.09,1.62,7.14,7.14,0,0,1-1.65,1.45,7.9,7.9,0,0,1-4.11,1.22,12.16,12.16,0,0,1-7.43-2.67,16.49,16.49,0,0,1-4.83-6.09,17.92,17.92,0,0,1-1.25-3.7,17,17,0,0,1-.43-4,27.5,27.5,0,0,1,1.71-7.54c.84-2.35,1.81-4.64,2.81-6.9,2-4.53,4.21-9,6.3-13.48a124.08,124.08,0,0,0,5.58-13.75,39.52,39.52,0,0,0,1.64-7.05,13.71,13.71,0,0,0-.54-6.65l-.3-.73-.43-.75A12.46,12.46,0,0,0,501,358c-.35-.46-.68-.93-1-1.39l-1.19-1.27a26.47,26.47,0,0,0-5.69-4.17,49.26,49.26,0,0,0-13.7-4.64,105.52,105.52,0,0,0-14.45-1.74,234.9,234.9,0,0,0-28.29.37c-9.14.58-17.91,1.45-26.19,2.3l-6.11.64-5.83.76-1.43.19-1.39.25-2.76.51c-.91.18-1.82.32-2.7.52l-2.62.62c-3.47.74-6.71,1.76-9.8,2.64-3.05,1-6,1.93-8.6,3-10.66,4.05-18.09,7.87-21.76,9.63,0,0-4.94,2.45-13,6.73l-14.3,7.56c-5.45,2.83-11.47,6-18.06,9a198.33,198.33,0,0,1-44,14.64,126.65,126.65,0,0,1-23.22,2.56,64.9,64.9,0,0,1-21.35-3"/><path class="cls-4" d="M501.86,373.65A113.5,113.5,0,0,1,496,388.39l-5.31,11.28c-.95,2.09-1.94,4.27-2.87,6.6a41.57,41.57,0,0,0-2.35,7.58,16.46,16.46,0,0,0-.29,2.17,13.42,13.42,0,0,0,.09,2.3,18.59,18.59,0,0,0,1,4.35,16.45,16.45,0,0,0,5.47,7.51,13.09,13.09,0,0,0,4.43,2.22,9.33,9.33,0,0,0,5.34,0A7.3,7.3,0,0,0,504,431a8.57,8.57,0,0,0,1.74-2.15,10.49,10.49,0,0,0,.62-1.1,8.27,8.27,0,0,0,.54-1.24,9.61,9.61,0,0,0,.38-1.38,8.07,8.07,0,0,0,.09-1.46,24.28,24.28,0,0,0-.91-4.84c-.35-1.45-.63-2.89-.87-4.36s-.39-2.95-.5-4.45c0-.75-.11-1.51-.13-2.25v-2.18c.33-5.88,2-11.86,3.91-17.67s4.14-11.52,5.85-17.46c.21-.76.38-1.54.56-2.3.08-.39.14-.81.2-1.22a7,7,0,0,0,.13-1.27c0-.46,0-.93,0-1.38s-.08-.76-.15-1.16a18.29,18.29,0,0,0-.48-2.36,16.05,16.05,0,0,0-2-4.46,17.63,17.63,0,0,0-3.13-3.57,27.09,27.09,0,0,0-7.56-4.57c-1.3-.6-2.62-1-3.91-1.46s-2.6-.79-3.88-1.08a54.25,54.25,0,0,0-7.57-1.4,60.88,60.88,0,0,0-7.15-.28c-4.49.06-8.47.13-12,0s-6.64-.3-9.18-.51-4.52-.41-5.88-.52l-2.07-.2c-9.19-.9-19.63-2.38-30.93-4.27-5.65-.92-11.54-1.92-17.65-2.63a163.65,163.65,0,0,0-18.85-1.15l-4.82,0-4.84.17c-3.23.18-6.47.47-9.72.71-1.62.13-3.26.21-4.88.4l-4.86.61-4.86.61-2.43.3-2.41.41-9.62,1.64c-3.18.61-6.32,1.33-9.46,2-1.56.35-3.13.64-4.67,1l-4.61,1.15c-3.05.8-6.1,1.47-9.05,2.36a410.1,410.1,0,0,0-59.33,21.59c-7.38,3.32-13.19,6.34-17.2,8.46-2,1.1-3.54,1.93-4.57,2.57l-1.57.95"/><path class="cls-4" d="M503.94,368.1l.08-.61c.07-.4.09-1,.13-1.76a11.23,11.23,0,0,0,0-1.29,9.34,9.34,0,0,0-.14-1.52,11.79,11.79,0,0,0-.38-1.71c-.09-.3-.23-.58-.35-.89l-.19-.46-.27-.46a21.61,21.61,0,0,0-7.18-7.64,42.06,42.06,0,0,0-13-5.36c-10.22-2.52-22.81-3-36.42-2.58s-28.38,1.95-43.46,3.59-30,6.27-43.8,12.39-26.74,13.4-38.84,19.69c-6.06,3.15-11.88,6.13-17.47,8.72l-4.13,1.91-4.05,1.72c-2.63,1.16-5.24,2.1-7.71,3.06a181.87,181.87,0,0,1-24.21,7.3"/><path class="cls-3" d="M490.11,425.72l-.41-.59a15.75,15.75,0,0,1-1-1.81,16.19,16.19,0,0,1-1.11-3.17,13.56,13.56,0,0,1-.38-4.5c.36-3.4,1.87-7.38,3.79-11.8s4.37-9.35,6.9-14.79c1.26-2.72,2.54-5.57,3.73-8.59a66.13,66.13,0,0,0,3.08-9.6,28.35,28.35,0,0,0,.69-5.26,14.24,14.24,0,0,0-.83-5.41,20.43,20.43,0,0,0-2.92-4.78c-.64-.69-1.26-1.41-2-2.06a27.75,27.75,0,0,0-2.21-1.82,37.34,37.34,0,0,0-10.41-5.15,70.49,70.49,0,0,0-11.64-2.65A151.81,151.81,0,0,0,451,342.45c-16.45.29-33,2-48.7,3.73S372,352.73,359.8,358s-22.44,10.89-30.34,15-13.43,7.05-15.8,8.24"/></g></g><path class="cls-5" d="M328.74,549H310.18a7.43,7.43,0,0,1,1.41-5,15.25,15.25,0,0,1,3.06-3.38,30.5,30.5,0,0,0,4,3.38A33.71,33.71,0,0,0,328.74,549Z"/><path class="cls-6" d="M300.89,475.81c-5.18-6-10.77-12.1-16.47-18.11h0a84,84,0,0,1-4.25-13.15,292.48,292.48,0,0,0,24.74,26h0C305.46,472,303.2,475,300.89,475.81Z"/><path class="cls-7" d="M310.65,475.76c0,1.93-3.12,5.39-5.58,5l-1.33-1.59c2.34.15,5.15-3,5.28-4.83Z"/><path class="cls-8" d="M309,474.3c-.13,1.86-2.94,5-5.28,4.83q-1.39-1.65-2.85-3.32c2.31-.78,4.57-3.86,4-5.29Q307,472.47,309,474.3Z"/><path class="cls-5" d="M355,509l-2,6.68-7.43,24.76a115.17,115.17,0,0,0-.44-12.91l7.44-20C354.14,508.5,355,509,355,509Z"/><path class="cls-9" d="M345.13,527.53,339,544a17.9,17.9,0,0,0-6.89-6.19,81.3,81.3,0,0,0-4.61-23.31,75,75,0,0,0-7.37-13.81c4.65.94,10.82-7.09,8.87-9.73,3.35,2.59,6.49,4.92,9.35,7C341.88,506.35,344.2,517,345.13,527.53Z"/><path class="cls-10" d="M352.57,507.52l-7.44,20c-.93-10.55-3.25-21.18-6.78-29.61C344.79,502.55,349.79,505.78,352.57,507.52Z"/><path class="cls-6" d="M270.4,432.18a59.62,59.62,0,0,1-7.46,3.73c-7-6.93-13.7-13.33-19.47-18.84,4.56-2,7.41-5.17,11.74-8.41A218.54,218.54,0,0,0,270.4,432.18Z"/><path class="cls-8" d="M320.13,500.69a214.27,214.27,0,0,0-15.06-20c2.46.43,5.58-3,5.58-5,6.5,5.78,12.72,10.86,18.35,15.2C331,493.6,324.78,501.63,320.13,500.69Z"/><path class="cls-8" d="M288,465.15q-2.65-1.15-5.39-2.39a83.41,83.41,0,0,1-4.53-11.65,98.82,98.82,0,0,1-3-12.81c-.44-2.63-.81-5.39-1.08-8.3h4a88.55,88.55,0,0,0,2.15,14.53h0a84,84,0,0,0,4.25,13.15h0A81.61,81.61,0,0,0,288,465.15Z"/><path class="cls-6" d="M228.26,405.22c.12.6.26,1.21.43,1.82-1.85.79-3.7,1.52-5.53,2.22-10.86,4.15-20.94,7-25.15,10.7,1.56,0,3,0,4.44.1,9.61.43,15.77,2.33,20.26,4.75a17,17,0,0,0-7.51,10.77,91.89,91.89,0,0,0-28.57-2.16c-20.85-7.09-1.09-25.67,17.2-39.06,1.08-.8,2.16-1.57,3.22-2.32,2.78-2,5.47-3.79,7.9-5.4,4.66,5.53,8.66,7.75,17.06,4.24C227.89,395.08,227.21,399.93,228.26,405.22Z"/><path class="cls-5" d="M294.69,480.61c-3.79,3-9.85,3.46-13.69-2.61a43.88,43.88,0,0,0-5.08-6.52,25.53,25.53,0,0,1,9.83-2.84A68.64,68.64,0,0,0,294.69,480.61Z"/><path class="cls-10" d="M285.75,468.64a25.53,25.53,0,0,0-9.83,2.84c-7.78-8.34-19.79-15.63-35.47-22a15,15,0,0,1-.12-5.91c14.89,5.9,29.18,13.27,42.27,19.21C283.61,464.89,284.67,466.85,285.75,468.64Z"/><path class="cls-11" d="M214.75,440.69q-11.34-3.29-24.25-6.19a36.58,36.58,0,0,1-3.87-1.08,91.89,91.89,0,0,1,28.57,2.16A21.06,21.06,0,0,0,214.75,440.69Z"/><path class="cls-12" d="M223,437.56a18.83,18.83,0,0,0-1,5.31l-2-.63a19,19,0,0,1,.87-5.28Z"/><path class="cls-5" d="M220.83,437a19,19,0,0,0-.87,5.28c-1.71-.52-3.44-1-5.21-1.55a21.06,21.06,0,0,1,.45-5.11Q218,436.21,220.83,437Z"/><path class="cls-5" d="M240.45,449.46Q231.93,446,222,442.87a18.83,18.83,0,0,1,1-5.31,183.73,183.73,0,0,1,17.37,6A15,15,0,0,0,240.45,449.46Z"/><path class="cls-13" d="M246,382c0,6-6,5-11.5,7.74-.87.43-1.69.81-2.48,1.13h0c-8.4,3.51-12.4,1.29-17.06-4.24.55-.37,1.09-.72,1.62-1.06,4.51,5.38,8.31,7.26,17.29,2.79,4.85-2.41,10.14-1.53,10.14-6.82,0-2.85-.57-6.85-3.12-9.68l1.63-.78C245.36,374.29,246,378.79,246,382Z"/><path class="cls-14" d="M244,381.55c0,5.29-5.29,4.41-10.14,6.82-9,4.47-12.78,2.59-17.29-2.79,3.46-2.26,6.27-4,7.93-5.08a175.83,175.83,0,0,1,16.38-8.63C243.43,374.7,244,378.7,244,381.55Z"/><path class="cls-14" d="M258.24,382.08a34.76,34.76,0,0,1-9.73,13.32,66.81,66.81,0,0,1-16,10h0c-.48.23-1,.45-1.45.66-.07-.23-.14-.45-.2-.68-1.45-5-1.62-10,5.61-13.7,6.23-3.19,13.11-2,13.11-8.82,0-3.83-.8-9.27-4.44-12.94q3-1.36,6.27-2.82A32.37,32.37,0,0,1,258.24,382.08Z"/><path class="cls-15" d="M251.39,367.06q-3.3,1.45-6.27,2.82l-2.61,1.21-1.63.78a175.83,175.83,0,0,0-16.38,8.63c-1.66,1.05-4.47,2.82-7.93,5.08-.53.34-1.07.69-1.62,1.06-2.43,1.61-5.12,3.43-7.9,5.4,3.44-14.44,16.45-19,18.95-27,4.5-14.39-4.76-15.84-3-32.73C228.1,344,234.16,353.15,245,361A33.31,33.31,0,0,1,251.39,367.06Z"/><path class="cls-16" d="M226,365c-2.5,8-15.51,12.6-18.95,27-1.06.75-2.14,1.52-3.22,2.32-3.74-3.3-7.36-8.27-10.33-15.86-6.48-16.56-3.89-31.83-6.79-49.16a77.28,77.28,0,0,0-5.83-19.44c1.32-.8,2.77-1.32,3.86-1.95,4.12,6,4,17.26,11.19,20,7.58,2.87,9.8-15.46,7.56-27.64a36,36,0,0,0,5.22,1c.11,6.79-.13,15.45,3.29,19.73,3.21,4,6.39,4.16,7.27,2,1.21,3.27,2.43,6.34,3.71,9.26,0,0,0,0,0,0C221.24,349.16,230.5,350.61,226,365Z"/><path class="cls-17" d="M424.25,340.83l-.18.13h0a23.66,23.66,0,0,0-3.33,2.7A37,37,0,0,1,418,340a10.63,10.63,0,0,1-2-6.95c0-2.24,2-5,4-3C421.81,331.81,422,336.91,424.25,340.83Z"/><path class="cls-18" d="M337.81,343.66l-.22-.11"/><path class="cls-18" d="M339.12,344.33l0,0,.08,0"/><path class="cls-6" d="M195.93,327.94c-7.17-2.73-7.07-14-11.19-20a2.83,2.83,0,0,0,1.76-2.45,22.2,22.2,0,0,0-1.8-6.84,45.32,45.32,0,0,0,13.82-.2h0a25.81,25.81,0,0,0,5,1.84C205.73,312.48,203.51,330.81,195.93,327.94Z"/><path class="cls-11" d="M198.52,298.46a45.32,45.32,0,0,1-13.82.2c-1.41-3.57-3.42-7.33-5.12-9.08A14.54,14.54,0,0,0,182,288a43.38,43.38,0,0,0,3.68-3.26C188.44,288.33,190.84,294.67,198.52,298.46Z"/><path class="cls-18" d="M185.68,284.74c-.05-.08-.12-.16-.18-.24"/><path class="cls-18" d="M339.12,344.33l0,0,.08,0"/><path class="cls-18" d="M337.81,343.66l-.22-.11,0,0,0,0"/><path class="cls-6" d="M340.79,339.93h0c-1.9-.86-3.28-1.43-3.28-1.43a22.1,22.1,0,0,0-11-5,27.31,27.31,0,0,0-10,0c-10-4-92-31.31-105-32-1-.05-1.9-.13-2.79-.23.11,6.79-.13,15.45,3.29,19.73,3.21,4,6.39,4.16,7.27,2-1.3-3.49-2.6-7.2-4-11.14,18.28-.33,73.52,16,97.21,26.65,0,0-2,1,1,4a15.82,15.82,0,0,1,2.1,2.64,14.66,14.66,0,0,1,1.9,12.36c-2,6,4,5,5,4s4-7,3-12,2,1,7,5,8.59,5.41,10,4c1.94-1.94-8.38-10.49-9-11,.78.51,15,9.9,17,7s-7.33-8-11.27-10.11c3.22,1.59,10,4.62,12.27,3.11S345.57,342.09,340.79,339.93Zm-3,3.73c.28.13.73.36,1.31.67Z"/><path class="cls-18" d="M333.53,347.52l0,0"/><path class="cls-6" d="M186.71,329.34C174,333.68,145.93,371.24,144,378c-.45,1.34-7,4-11,2s-7-10-9.44-15S106,341,106,341s-5.87,1.19-9.25-1.33c1.22.64,2.17.61,2.85-.57a3.09,3.09,0,0,0,.27-.59c.91-2.41-1.1-4.81-3.87-8.51l0,0c.32.36.64.7,1,1,4,4,8,7,9.5,4.39a3.57,3.57,0,0,0,.41-1c.52-2.15-1.45-4.18-4.91-9.37a28.53,28.53,0,0,0-2.09-2.81L100,322c5.1,5.1,7.1,10.81,10,10a2,2,0,0,0,1.16-.78c1.24-1.7,0-5.57-2.4-9.56-.42-.7-.83-1.34-1.25-1.91.1-4.64,1.14-8.25,4-8.25,3,0,4,3,4,3s-3,7-1,14c1.4,4.9-2,9-2,9s19,28,21,29,4,2,7,1,33-43,34-46,2.22-7.52,4.38-10a8.05,8.05,0,0,1,2-1.6A77.28,77.28,0,0,1,186.71,329.34Z"/><path class="cls-18" d="M179.58,289.58l-.08-.08"/><path class="cls-18" d="M96.75,339.67A5.9,5.9,0,0,1,96,339"/><path class="cls-6" d="M106.91,334.37c-3.28.69-7.12-2.3-10.22-5.75a42.14,42.14,0,0,1-4.91-6.72h0A1.78,1.78,0,0,1,93,320c2.43-.81,4.2-1,6.91,2.19A28.53,28.53,0,0,1,102,325C105.46,330.19,107.43,332.22,106.91,334.37Z"/><path class="cls-11" d="M106.91,334.37a3.57,3.57,0,0,1-.41,1C105,338,101,335,97,331c-.34-.34-.66-.68-1-1l-.48-.56-.09-.11c-.24-.33-.48-.63-.71-.91-1.75-2.33-3-4.8-3-6.48a42.14,42.14,0,0,0,4.91,6.72C99.79,332.07,103.63,335.06,106.91,334.37Z"/><path class="cls-6" d="M99.87,338.51A7.79,7.79,0,0,1,96,337.33c-3.58-2.06-7-6.4-8.91-9.43A3.09,3.09,0,0,1,88,326c1.79-1.79,3.32-1.79,6.74,2.38.22.31.46.61.71.91l.09.11.46.6C98.77,333.7,100.78,336.1,99.87,338.51Z"/><path class="cls-11" d="M99.87,338.51a3.09,3.09,0,0,1-.27.59c-.68,1.18-1.63,1.21-2.85.57-.12-.07-.24-.13-.36-.21A51.59,51.59,0,0,1,91,335c-2.35-2.05-4.15-4.88-3.91-7.1,1.9,3,5.33,7.37,8.91,9.43A7.79,7.79,0,0,0,99.87,338.51Z"/><path class="cls-6" d="M111.16,331.22c-2.77-.76-6.22-5.65-9.26-9.79a50.81,50.81,0,0,0-3.61-4.52A4.2,4.2,0,0,1,100,316c2.59-.79,5,.35,7.51,3.75.42.57.83,1.21,1.25,1.91C111.13,325.65,112.4,329.52,111.16,331.22Z"/><path class="cls-11" d="M111.16,331.22A2,2,0,0,1,110,332c-2.9.81-4.9-4.9-10-10-2.26-2.26-2.87-4-1.71-5.09a50.81,50.81,0,0,1,3.61,4.52C104.94,325.57,108.39,330.46,111.16,331.22Z"/><path class="cls-9" d="M282.6,462.76c-13.09-5.94-27.38-13.31-42.27-19.21a9.46,9.46,0,0,1,3.5-5.4,33.19,33.19,0,0,0,19.11-2.24,59.62,59.62,0,0,0,7.46-3.73c1.18-.67,2.38-1.4,3.6-2.18.27,2.91.64,5.67,1.08,8.3a98.82,98.82,0,0,0,3,12.81A83.41,83.41,0,0,0,282.6,462.76Z"/><path class="cls-11" d="M149,282h0c-.41.45-7.08,7.86-10,4-1.53-2-.21-4.33,1.46-6.09C143.32,280.66,146.16,281.38,149,282Z"/><path class="cls-13" d="M193.69,272.75a32.31,32.31,0,0,1-2.42,5l-.2.32a.76.76,0,0,0-.11-.14,76.45,76.45,0,0,0-12-12.33c-1.14-3.16-3.48-5.82-4.53-10.48A78.63,78.63,0,0,1,193.69,272.75Z"/><path class="cls-11" d="M191.07,278.08a33.89,33.89,0,0,1-5.39,6.66A43.38,43.38,0,0,1,182,288a14.54,14.54,0,0,1-2.42,1.58c-7.11,3.77-16,1.21-22.49-2.11A35.46,35.46,0,0,1,149,282c3.11.71,6.21,1.3,9.3,1.71,10.78,1.45,21.52.66,32.64-5.79A.76.76,0,0,1,191.07,278.08Z"/><path class="cls-13" d="M170.4,252.73a21.91,21.91,0,0,0-4.91,4c-7-3.46-14.75-5.42-22.41-4.31a23.25,23.25,0,0,1,3.37-5.23C154.69,246.2,163,248.69,170.4,252.73Z"/><path class="cls-19" d="M196,265a31.65,31.65,0,0,1-2.31,7.75,78.63,78.63,0,0,0-19.24-17.62A24.4,24.4,0,0,1,174,248c-.52,2.43-1.89,3.56-3.6,4.73-7.43-4-15.71-6.53-24-5.51.17-.21.36-.42.55-.62,7-7.4,15-14.6,31-17.6-4,2,3,.78,6,2-3,.23-1,3-4,5,2-1,4.5-1,9,0-3.5,1,2,6,5,5-8,6,5,8,5,8C201,254,197,256,196,265Z"/><path class="cls-5" d="M297,478a9.87,9.87,0,0,1-2.31,2.61,68.64,68.64,0,0,1-8.94-12c-1.08-1.79-2.14-3.75-3.15-5.88q2.73,1.23,5.39,2.39c.69,1.27,1.37,2.44,2,3.52A55.17,55.17,0,0,0,297,478Z"/><path class="cls-20" d="M604.33,330.62c-.16.6-.32,1.22-.46,1.84C585.15,358,587.06,368.54,559,390c-9.45,7.23-28.75,12.26-45.38,3-1.35-20.48,22.9-34.9,32.17-46.7,3.7-.05,6.6-.13,8.21-.31C561.44,345.17,591.24,335.83,604.33,330.62Z"/><path class="cls-19" d="M599.15,362.85C597.23,376.27,594.48,390.6,588,404c-5.75,11.89-15.17,18.46-25.38,20.8h0a38.91,38.91,0,0,1-6.53.93,43.52,43.52,0,0,1-26.25-7A38.25,38.25,0,0,1,523,413.1a34.62,34.62,0,0,1-4-5.1,36.64,36.64,0,0,1-3.86-7.73c18.1,13.26,43.78,15.44,53.86,7.73C590.46,391.59,592.8,379.56,599.15,362.85Z"/><path class="cls-17" d="M603.87,332.46c-2.11,8.79-3.13,19.27-4.72,30.39C592.8,379.56,590.46,391.59,569,408c-10.08,7.71-35.76,5.53-53.86-7.73a26.7,26.7,0,0,1-1.52-7.26c16.63,9.25,35.93,4.22,45.38-3C587.06,368.54,585.15,358,603.87,332.46Z"/><path class="cls-20" d="M609.94,317.35c-2.93.12-5.71,2.16-7.94,3.65-3,2-43,17-49,18-.58.1-1.63.22-3,.37,4.31-7.86,9.12-15.76,15.1-22.34a62.54,62.54,0,0,1,4.47-4.45h0a43.94,43.94,0,0,1,24.73-11.41h0c3.94-1.95,6.15-4,7.69-6.37a39.24,39.24,0,0,0,4,.2,31.19,31.19,0,0,0,5-.4,16.75,16.75,0,0,0-2,10.11h0C611.9,307.09,613.28,311,609.94,317.35Z"/><path class="cls-20" d="M640.5,268.89v0c-11.35,18.25-39.85,22.87-52.88,19.19a14.73,14.73,0,0,1-3.18-10.7A10.62,10.62,0,0,1,587,271a19.22,19.22,0,0,1,3.47-2.71A14.2,14.2,0,0,0,595,269c4,0,7.44-1.52,9-3.72.53.07,1.06.17,1.59.29h0c4,.92,8.28,3.19,12.61,7.55,4.07-1.9,12.55-6.48,9.74-12.12-2.65-5.31-8.43.33-14,5.21,4.71-4.31,7.7-8.47,6-10.21s-6.34-.5-11.62,5.87c5.92-7.55,11.68-11.66,17.18-12.8a15.59,15.59,0,0,1,4.75-.26,17.89,17.89,0,0,1,7.74,2.81h0A23.72,23.72,0,0,1,640,253a5.5,5.5,0,0,1,.88.86C643.26,256.82,643,262.59,640.5,268.89Z"/><path class="cls-18" d="M606,265.13c-.11.14-.21.29-.32.44"/><path class="cls-18" d="M620,275c-.58-.67-1.16-1.29-1.74-1.88"/><path class="cls-17" d="M640.49,268.92c-4.25,10.86-15,23.3-29.51,25.68a31.19,31.19,0,0,1-5,.4,39.24,39.24,0,0,1-4-.2c-7.14-.72-11.69-3.37-14.36-6.69C600.64,291.79,629.14,287.17,640.49,268.92Z"/><path class="cls-10" d="M605,262.5a4.64,4.64,0,0,1-1,2.78c-1.6,2.2-5,3.72-9,3.72a14.2,14.2,0,0,1-4.53-.71c-2.81-.92-4.85-2.69-5.35-4.78A12.57,12.57,0,0,0,593,266c5.52,0,10-2.91,10-6.5a4.29,4.29,0,0,0-.12-1A5.28,5.28,0,0,1,605,262.5Z"/><path class="cls-9" d="M603,259.5c0,3.59-4.48,6.5-10,6.5a12.57,12.57,0,0,1-7.88-2.49,4.29,4.29,0,0,1-.12-1c0-3.59,4.48-6.5,10-6.5a12.57,12.57,0,0,1,7.88,2.49A4.29,4.29,0,0,1,603,259.5Z"/><path class="cls-21" d="M653,191c-12.29-8.19-27,11-30,16,5-3,12.31-5.25,17,1,3,4,.51,4.69-4,1-11-9-25,16-18,27,5-14,16-11,18-9s-.52,7.34-3,3c-3.85-6.73-23.4,8.72-2.69,18.81a15.59,15.59,0,0,0-4.75.26A23.29,23.29,0,0,1,614,233c-5-24,24-60,44-42C659,191.85,659,195,653,191Z"/><path class="cls-21" d="M663,254c-5.35.41-13.74,1-22.12-.14A5.5,5.5,0,0,0,640,253a23.72,23.72,0,0,0-1.94-1.37c22.69,5.54,40.46-13.22,31.94-16.63-5-2-5-5-1-4,10.72,2.68,5,13-1,19,37-13,26-25,23-27s-3.76-1-6-1c-2,0-5-4,1-5,5-.84,16,8,12,17,7-4,13-15,13-20s-4-8-9-9-8-10,0-5C738.82,223,676,253,663,254Z"/><path class="cls-18" d="M614,266.21l-.38.34"/><path class="cls-18" d="M607.93,262.43c-.23.29-.47.59-.7.91"/><path class="cls-18" d="M614,266.21l-.38.34a2.91,2.91,0,0,1-.27.24c-.34.3-.69.61-1,.91l-.45.38"/><path class="cls-6" d="M191,277.94c-11.12,6.45-21.86,7.24-32.64,5.79-3.09-.41-6.19-1-9.3-1.71l0,0h0c-2.83-.63-5.67-1.35-8.53-2.1A20.66,20.66,0,0,1,144,277c-5.48-5.48-4.83-16.48-.92-24.55,7.66-1.11,15.37.85,22.41,4.31a21.91,21.91,0,0,1,4.91-4c1.71-1.17,3.08-2.3,3.6-4.73a24.4,24.4,0,0,0,.45,7.13c1.05,4.66,3.39,7.32,4.53,10.48A76.45,76.45,0,0,1,191,277.94Z"/><path class="cls-22" d="M628,261c-2.65-5.31-8.43.33-14,5.21,4.71-4.31,7.7-8.47,6-10.21s-6.34-.5-11.62,5.87l-.45.56-.7.91q-.33.44-.66.9c-.21.28-.42.58-.62.89l-.3.44c4,.92,8.28,3.19,12.61,7.55C622.33,271.22,630.81,266.64,628,261Zm-18,5.5c-1.14-.84-.75-3.31.88-5.53.13-.17.26-.34.39-.49-.17.46-.14.86.1,1s1.07-.09,1.58-.79.64-1.48.28-1.75a.35.35,0,0,0-.22-.08c1.11-.72,2.19-.92,2.88-.42,1.14.84.74,3.31-.88,5.53S611.19,267.33,610.05,266.5ZM621.76,269c-1.9,2-4.27,2.8-5.29,1.82s-.3-3.38,1.6-5.36a5.77,5.77,0,0,1,.44-.42c-.21.42-.24.82,0,1s1.07.06,1.68-.57.82-1.39.5-1.7a.35.35,0,0,0-.19-.1c1.19-.57,2.28-.63,2.89,0C624.38,264.6,623.66,267,621.76,269Z"/><path d="M621.76,269c-1.9,2-4.27,2.8-5.29,1.82s-.3-3.38,1.6-5.36a5.77,5.77,0,0,1,.44-.42c-.21.42-.24.82,0,1s1.07.06,1.68-.57.82-1.39.5-1.7a.35.35,0,0,0-.19-.1c1.19-.57,2.28-.63,2.89,0C624.38,264.6,623.66,267,621.76,269Z"/><path d="M615.06,264c-1.63,2.21-3.87,3.32-5,2.49s-.75-3.31.88-5.53c.13-.17.26-.34.39-.49-.17.46-.14.86.1,1s1.07-.09,1.58-.79.64-1.48.28-1.75a.35.35,0,0,0-.22-.08c1.11-.72,2.19-.92,2.88-.42C617.08,259.32,616.68,261.79,615.06,264Z"/><path class="cls-18" d="M609,305a2.85,2.85,0,0,1,0-.29"/><path class="cls-18" d="M424,351.91l0,.09s0-.08,0-.11Z"/><path class="cls-20" d="M434.26,340.83h0a7.77,7.77,0,0,1-1.36,1.48,8.37,8.37,0,0,1-.89.68c-.39.26-.8.55-1.21.88h0c-.46.36-.92.74-1.39,1.16-3.44.28-9.18,2.69-12.95,4.72a15.5,15.5,0,0,1,3.13-4.9h0a16.12,16.12,0,0,1,1.15-1.2,23.66,23.66,0,0,1,3.33-2.7h0l.18-.13A17.89,17.89,0,0,1,431,338C435.18,337.3,435.48,339,434.26,340.83Z"/><path class="cls-20" d="M443,341a2.31,2.31,0,0,1-.67,1.53,5.66,5.66,0,0,1-.71.65l-.34.27h0c-.92.7-2.14,1.43-3.45,2.36-3.63-.24-9.2.46-12.06,3.08a27.4,27.4,0,0,1,3.63-3.85c.47-.42.93-.8,1.39-1.16h0c.41-.33.82-.62,1.21-.88a8.37,8.37,0,0,0,.89-.68,7.77,7.77,0,0,0,1.36-1.48h0C440.43,337.79,443,339.4,443,341Z"/><path class="cls-20" d="M447.72,344.2a3.19,3.19,0,0,1-.77,1,6.07,6.07,0,0,1-.95.76c-1.61,1.08-3,2.05-4.26,2.94-3-.67-7-.29-9.32,2.36a19.76,19.76,0,0,1,5.4-5.49c1.31-.93,2.53-1.66,3.45-2.36h0l.34-.27a5.66,5.66,0,0,0,.71-.65A9.4,9.4,0,0,1,446,342a1.81,1.81,0,0,1,1.77.95A1.42,1.42,0,0,1,447.72,344.2Z"/><path class="cls-19" d="M441.74,348.94l-.07.05a32.28,32.28,0,0,0-3.67,3c-.91.91-5.09,3.45-6.62.95A8.66,8.66,0,0,0,432,352c.13-.23.27-.46.41-.68,0,0,0,0,0,0C434.71,348.65,438.77,348.27,441.74,348.94Z"/><path class="cls-19" d="M569.53,312.58a62.54,62.54,0,0,0-4.47,4.45c-20.62,9.91-50.73,19.08-78.72,25.1h0c-7.14-1.84-13.5-1.43-18.25,1.22h0c-.37.2-.72.42-1.07.65-.82.55-1.56,1.07-2.24,1.59-.35.26-.69.53-1,.79h0c-7.89,1.24-15.28,2.13-21.86,2.6h0l-.14,0c1.23-.89,2.65-1.86,4.26-2.94a6.07,6.07,0,0,0,.95-.76l4.15-.69h0c2.91-.49,6-1,9.17-1.63h0C494.15,336.61,541.71,324.92,569.53,312.58Z"/><path class="cls-18" d="M441.88,349h-.21"/><path class="cls-18" d="M475.89,355.4h0A7.07,7.07,0,0,1,478,355"/><path class="cls-19" d="M490.05,351l-.05,0c-8.34,8.34-14.11,9.81-14.11,4.4-4.77,1.51-10.94,6.6-10.1-1-3.41,1.67-6.79,3.78-6.79-.39a8,8,0,0,1,2.52-5.54C473.93,347.07,483.5,346.83,490.05,351Z"/><path class="cls-18" d="M470,353a10.65,10.65,0,0,0-4.21,1.39"/><path class="cls-5" d="M482,544.17a38.84,38.84,0,0,1-6.41,4.33A26.14,26.14,0,0,1,467,545a16.52,16.52,0,0,1-.7-5.25C470,543.86,476.37,545,482,544.17Z"/><path class="cls-23" d="M496,544a25.22,25.22,0,0,1-15,5,26.91,26.91,0,0,1-5.4-.5,38.84,38.84,0,0,0,6.41-4.33c5.13-.73,9.65-3,11-6.17Z"/><path class="cls-20" d="M490.6,531c-1.13,5.41-4.55,9.81-8.59,13.18-5.64.81-12-.31-15.71-4.42.07-6.58,3-15,10.7-15.75A13.44,13.44,0,0,1,490.6,531Z"/><path class="cls-17" d="M493,538c-1.34,3.12-5.86,5.44-11,6.17,4-3.37,7.46-7.77,8.59-13.18a17.08,17.08,0,0,1,1.24,2.59h0A19.83,19.83,0,0,1,493,538Z"/><path class="cls-20" d="M529.84,418.74C514.68,438.39,501,463.31,500,470c-1,7-4,74-4,74l-3-6a19.83,19.83,0,0,0-1.16-4.41h0c.08-13.21,3.16-59.06,3.16-62.58a4.41,4.41,0,0,1-4-6,4.46,4.46,0,0,1,6-3c1.82-6.36,18.5-36.66,26-48.9A38.25,38.25,0,0,0,529.84,418.74Z"/><path class="cls-5" d="M530.84,555a42.87,42.87,0,0,1-5.58,3.41h0a28.37,28.37,0,0,1-7-3.15,11.77,11.77,0,0,1-.37-4.91C521,553.63,526,555,530.84,555Z"/><path class="cls-23" d="M547.2,554.14v.15a25.22,25.22,0,0,1-15,5,26.14,26.14,0,0,1-6.94-.85,42.87,42.87,0,0,0,5.58-3.41c6.39,0,12.59-2.36,14.16-6Z"/><path class="cls-20" d="M541.41,540.06c-1.24,6.4-5.65,11.39-10.57,15-4.87,0-9.85-1.4-13-4.65.67-6.08,4.84-13.57,11.17-15.38C533.2,533.8,538.14,536.21,541.41,540.06Z"/><path class="cls-17" d="M545,549c-1.57,3.67-7.77,6-14.16,6,4.92-3.58,9.33-8.57,10.57-15a17.69,17.69,0,0,1,1.63,2.3h0A13.1,13.1,0,0,1,545,549Z"/><path class="cls-20" d="M562.62,424.81C560.07,447.59,552,470.37,551,477c-1,6.81-3.65,73.55-3.8,77.14L545,549a13.1,13.1,0,0,0-2-6.63h0c.22-15.24,3-60,3-63.36-2,0-3-1.76-3-4,0-2,3-4,5-3,1.9-6.66,8.33-34.13,8.09-46.26A38.91,38.91,0,0,0,562.62,424.81Z"/><path class="cls-24" d="M263,404a41,41,0,0,0-6.74,3.9c-.52-.06-1-.12-1.55-.16a63.72,63.72,0,0,0-19.48,1.46c-1,.23-2,.47-2.89.73a.14.14,0,0,0,0-.06c.88-.3,1.75-.61,2.63-.94a70.75,70.75,0,0,0,9.2-4.15h0a55.37,55.37,0,0,0,6.75-4.33q1.83-1.36,3.59-2.95a10.89,10.89,0,0,0,2.5-3.42c0,.57.33,4,3.9,7.92A21.44,21.44,0,0,0,263,404Z"/><path class="cls-14" d="M256.26,407.9c-.36.25-.71.51-1,.76-4.33,3.24-7.18,6.42-11.74,8.41A25.22,25.22,0,0,1,235,419c-2.79-1.11-6.5-4.4-9.25-7.1l3.11-.92h0l.95-.29,1.07-.35h0c.45-.13.92-.27,1.39-.39.93-.26,1.89-.5,2.89-.73a63.72,63.72,0,0,1,19.48-1.46C255.22,407.78,255.74,407.84,256.26,407.9Z"/><path class="cls-18" d="M229.85,410.68v0"/><path class="cls-13" d="M249.56,382.82c0,6.84-6.88,5.63-13.11,8.82-7.23,3.71-7.06,8.67-5.61,13.7.06.23.13.45.2.68-.78.36-1.56.7-2.35,1-.17-.61-.31-1.22-.43-1.82-1-5.29-.37-10.14,3.75-14.34h0c.79-.32,1.61-.7,2.48-1.13C240,387,246,388,246,382c0-3.21-.64-7.71-3.49-10.91l2.61-1.21C248.76,373.55,249.56,379,249.56,382.82Z"/><path class="cls-18" d="M228.86,411c-1,.33-2,.68-2.86,1"/><path class="cls-8" d="M227.53,428a17,17,0,0,0-6.7,8.95q-2.81-.75-5.63-1.38a17,17,0,0,1,7.51-10.77A33.32,33.32,0,0,1,227.53,428Z"/><path class="cls-8" d="M243.83,438.15a9.46,9.46,0,0,0-3.5,5.4,183.73,183.73,0,0,0-17.37-6,17,17,0,0,1,6.15-8.25c4.32,3.71,7.44,7.4,13.89,8.69C243.28,438.06,243.55,438.11,243.83,438.15Z"/><path class="cls-7" d="M229.11,429.31a17,17,0,0,0-6.15,8.25l-2.13-.6a17,17,0,0,1,6.7-8.95C228.08,428.44,228.6,428.87,229.11,429.31Z"/><path class="cls-8" d="M345.57,540.44h0L343,549H328.74a33.71,33.71,0,0,1-10.1-5,30.5,30.5,0,0,1-4-3.38c4.36-3.63,11.22-5.81,17.46-2.81A17.9,17.9,0,0,1,339,544l6.13-16.47A115.17,115.17,0,0,1,345.57,540.44Z"/><path class="cls-25" d="M257,394.08a10.89,10.89,0,0,1-2.5,3.42q-1.75,1.59-3.59,2.95a55.37,55.37,0,0,1-6.75,4.33h0a70.75,70.75,0,0,1-9.2,4.15c-.88.33-1.75.64-2.63.94-.42-1.27-.88-2.56-1.28-3.85.49-.21,1-.43,1.45-.66h0a66.81,66.81,0,0,0,16-10,34.76,34.76,0,0,0,9.73-13.32A20.54,20.54,0,0,1,257,394.08Z"/><path class="cls-26" d="M232.32,409.87l-1.37.45h0l-1.08.33c-.45-1.22-.84-2.43-1.15-3.62.79-.32,1.57-.66,2.35-1C231.44,407.31,231.9,408.6,232.32,409.87Z"/><path class="cls-11" d="M229.84,410.66l-.94.31h0l-3.11.92c-9,2.57-17.36,4.33-23.3,8.16-1.4-.07-2.88-.11-4.44-.1,4.21-3.7,14.29-6.55,25.15-10.7,1.83-.7,3.68-1.43,5.53-2.22C229,408.23,229.39,409.44,229.84,410.66Z"/><path class="cls-18" d="M442,349l-.11,0"/><path class="cls-19" d="M437.82,345.81a19.76,19.76,0,0,0-5.4,5.49s0,0,0,0c-.14.22-.28.45-.41.68a8.66,8.66,0,0,1-.62.95s0,0,0,0c-3.09,4.35-6.57,1.65-7.34-1.06a11.86,11.86,0,0,1,1.73-3C428.62,346.27,434.19,345.57,437.82,345.81Z"/><path class="cls-19" d="M429.39,345a27.4,27.4,0,0,0-3.63,3.85,11.86,11.86,0,0,0-1.73,3v0s0,.07,0,.11c-1,3-8,6.08-8,0a6.49,6.49,0,0,1,.44-2.24C420.21,347.73,426,345.32,429.39,345Z"/><path class="cls-17" d="M610,328a29.52,29.52,0,0,1-4.36,2.08c-.41.18-.85.35-1.31.54C591.24,335.83,561.44,345.17,554,346c-1.61.18-4.51.26-8.21.31-13,.18-36-.06-48.25,2.06a32.16,32.16,0,0,0-4.53,1.06,7.7,7.7,0,0,0-3,1.53c-6.55-4.13-16.12-3.89-28.53-2.5a21,21,0,0,1,2.23-2.08h0c.31-.26.65-.53,1-.79.68-.52,1.42-1,2.24-1.59.35-.23.7-.45,1.07-.65h0c4.75-2.65,11.11-3.06,18.25-1.22h0A48,48,0,0,1,492,344s44.84-3.26,58-4.63c1.41-.15,2.46-.27,3-.37,6-1,46-16,49-18,2.23-1.49,5-3.53,7.94-3.65A6.07,6.07,0,0,1,613,318a3.28,3.28,0,0,1,1.38,1.25C615.64,321.29,614.76,324.83,610,328Z"/></g><g id="brushstrokes"><g class="cls-27"><path class="cls-28" d="M147.84,267l-.14-.1.06.06A.15.15,0,0,0,147.84,267Z"/><path class="cls-28" d="M147.58,266.82l0,0h0Z"/><path class="cls-28" d="M147.36,266.64l.11.1A.55.55,0,0,0,147.36,266.64Z"/><path class="cls-28" d="M147.52,266.8s0,0,0,0h0l-.07-.05Z"/><path class="cls-28" d="M147.52,266.8l0,.05Z"/><path class="cls-28" d="M147.36,266.88s0-.05,0-.08a1.28,1.28,0,0,1-.3-.26c-.05,0-.07-.15-.13-.21s-.41-.58-.28-.32a3,3,0,0,0,.61.77,3.92,3.92,0,0,0,.58.39l.16.11-.2-.16C147.66,267,147.51,267,147.36,266.88Z"/><path class="cls-28" d="M148.92,267.58h-.09a2.06,2.06,0,0,0-.37-.16l0,0c.07,0,.08,0,0,0a1.49,1.49,0,0,0,.43.19S149,267.6,148.92,267.58Z"/><path class="cls-28" d="M149.05,267.66l-.09,0h0l.09,0Z"/><path class="cls-28" d="M146.93,266.2a1.12,1.12,0,0,1-.2-.42l.54.1a.07.07,0,0,1,.08,0l.07,0,.16,0h0s0,0,0,0l0,0,0,0,.08,0,.14,0-.14,0h-.11l.34.1H148a.51.51,0,0,1,.21.08l.06,0h0l.25.1.17.05.05,0,.1,0-.1-.1c-.05-.05-.15,0-.2-.08s.15,0,.2.08l.1.1a.51.51,0,0,1,.24.15.9.9,0,0,1-.24-.15l-.1,0-.05,0-.17-.05.48.24a3.14,3.14,0,0,1,1.21,1.13,1.66,1.66,0,0,1,.22.77.46.46,0,0,1-.47.47,2.68,2.68,0,0,1-.88-.26,7.11,7.11,0,0,1-.82-.44,6.29,6.29,0,0,1-1.34-1.11,3.34,3.34,0,0,1-.48-.7c-.12-.24-.09-.23,0-.19h0l.18,0a3.69,3.69,0,0,1,.46.08,3.58,3.58,0,0,1,.8.26c.54.2.4-.11.37-.14-.26-.33-.57-.41-1.34-.65.27.07.16.08-.07.05l-.43-.06-.68,0c-.06.14.13.57.24.83a3.54,3.54,0,0,0,.38.6,7.75,7.75,0,0,0,1.06,1,4.59,4.59,0,0,0,.63.42,5.64,5.64,0,0,0,1,.48,2.1,2.1,0,0,0,1.15.22.88.88,0,0,0,.59-.48,1.12,1.12,0,0,0,.05-.67,2.33,2.33,0,0,0-.55-1.07,2.74,2.74,0,0,0-.91-.66,5,5,0,0,0-.63-.34,4.18,4.18,0,0,0-.8-.24,6.86,6.86,0,0,1,.78.24c.2.08-.16,0-.3,0s-.13-.1-.19-.11a2.32,2.32,0,0,0-.38-.07c-.06,0-.05-.05-.08-.06a3.22,3.22,0,0,1-.48-.05l-.35-.08-.21,0h-.13l.14.07-.17,0s0,0,0,0,0,0,0,0l.17,0-.14-.07h-.08a2.86,2.86,0,0,0,.48.77h0a1.13,1.13,0,0,1-.24-.42c0,.06,0,.05-.05,0v-.05a2.8,2.8,0,0,1,.2.37l.07.07a.07.07,0,0,1,0,.06l.06.07Z"/><path class="cls-28" d="M147.72,266l-.07,0,.29.09A.44.44,0,0,0,147.72,266Z"/></g><path class="cls-9" d="M161.1,272.32a1.52,1.52,0,0,1,2.13-1.2c.84.61,1.16,1.93.28,2.39"/><path class="cls-9" d="M158.09,268.06a1.52,1.52,0,0,1,2.13-1.2c.84.61,1.16,1.93.28,2.39"/><path class="cls-9" d="M155.41,273.33a1.51,1.51,0,0,1,2.13-1.19c.84.6,1.16,1.92.28,2.38"/><g class="cls-27"><path class="cls-28" d="M273.42,462.78l0,.06,0,0S273.42,462.79,273.42,462.78Z"/><polygon class="cls-28" points="273.36 462.89 273.35 462.9 273.35 462.92 273.36 462.89"/><path class="cls-28" d="M273.31,463s0,0,0-.06Z"/><path class="cls-28" d="M273.37,462.93h0v0Z"/><path class="cls-28" d="M273.37,462.93l0,0Z"/><path class="cls-28" d="M273.5,463s0,0,0,0a.42.42,0,0,1,0,.16s-.07,0-.07.06,0,.21,0,.14l.12-.3.07-.28a.25.25,0,0,1,0-.07l-.07.09S273.53,463,273.5,463Z"/><path class="cls-28" d="M273.66,462.33v0a.19.19,0,0,0-.08.15h0s0,0,0,0a.57.57,0,0,0,.11-.16Z"/><path class="cls-28" d="M273.71,462.29v0h0v0Z"/><path class="cls-28" d="M273.24,463.25a3.64,3.64,0,0,1-.23.39s0,0,0,0l0,0,0,.06v0h0s0,0,0,0h0l0,0,0,.05a.05.05,0,0,1,0-.05v0h0l-.08.12v0s0,.06-.06.07v0h0l-.06.09v.08h0a0,0,0,0,1,0,.05l.07,0s0-.07,0-.07,0,.06,0,.07l-.07,0a.15.15,0,0,1-.08.08.1.1,0,0,1,.08-.08,0,0,0,0,0,0-.05h0v-.08l-.12.18c-.28.39-.53.75-.85,1.12a5.73,5.73,0,0,1-.54.56,6.28,6.28,0,0,1-1.08,1,5,5,0,0,0-.55.48.18.18,0,0,0,.11.29c.23,0,.27-.11.57-.26-.2.11,0-.18.27-.24s.54-.49.82-.73a2.19,2.19,0,0,0,.2-.22,8.33,8.33,0,0,0,1-1.35,1.76,1.76,0,0,0,.18-.4c.05-.08.13-.16.17-.23a2,2,0,0,0,.14-.3l-.15.29c0,.08,0-.08,0-.14s.07,0,.07-.05a.75.75,0,0,0,.05-.16s0,0,0,0,0-.15,0-.19l.07-.08,0-.05v0h-.05l0-.06,0,.06h.05l.09-.33h0a.42.42,0,0,1-.11.16s0,0,0,0h0a.19.19,0,0,1,.08-.15v0s0,0,0,0l0,0A.32.32,0,0,0,273.24,463.25Z"/><path class="cls-28" d="M272.92,463.81l0,0-.07.11S272.91,463.85,272.92,463.81Z"/></g><g class="cls-27"><path class="cls-28" d="M269.55,459.4l0,.07s0,0,0,0S269.56,459.42,269.55,459.4Z"/><path class="cls-28" d="M269.5,459.53h0Z"/><path class="cls-28" d="M269.47,459.64l0-.06A.14.14,0,0,0,269.47,459.64Z"/><path class="cls-28" d="M269.51,459.56h0v0Z"/><path class="cls-28" d="M269.51,459.56l0,0Z"/><path class="cls-28" d="M269.66,459.65s0,0,0,0a.76.76,0,0,1,0,.16s-.06,0-.06.07,0,.22,0,.13.06-.2.1-.31,0-.19.05-.29l0-.07-.06.09S269.68,459.57,269.66,459.65Z"/><path class="cls-28" d="M269.77,458.94v0a.15.15,0,0,0-.07.15l0,0s0,0,0,0a.32.32,0,0,0,.09-.17S269.79,458.92,269.77,458.94Z"/><path class="cls-28" d="M269.83,458.89l0,0h0v0Z"/><path class="cls-28" d="M269.41,459.9l-.18.43a0,0,0,0,1,0,0l0,0,0,.06v0h0s0,0,0,0h0l0,0a.14.14,0,0,1,0,.06s0-.05,0-.06v0h0l-.06.14v0s0,.07,0,.08l0,0h0l0,.1s0,.05,0,.08h0a.09.09,0,0,1,0,.05l.06,0s0-.07,0-.08,0,.07,0,.08l-.06,0a.14.14,0,0,1-.07.1.11.11,0,0,1,.07-.1.09.09,0,0,0,0-.05h0s0-.05,0-.08l-.1.2c-.21.44-.37.86-.58,1.32-.12.25-.24.48-.36.71a10,10,0,0,1-.67,1.35,4.76,4.76,0,0,0-.3.7c0,.27.22.23.24.22.22-.08.18-.23.39-.49-.13.18,0-.2.15-.34s.31-.66.49-1c0-.08.07-.18.12-.28.27-.51.4-1,.64-1.58a1.84,1.84,0,0,0,.09-.43,2.09,2.09,0,0,1,.13-.26,2.34,2.34,0,0,0,.09-.33c0,.11-.06.2-.1.32s0-.08,0-.14.07,0,.07-.07a.78.78,0,0,0,0-.16s0,0,0,0,0-.15,0-.19l.06-.09,0-.06v0h-.05l0-.06,0,.06h.05a2,2,0,0,1,.06-.34h0a.42.42,0,0,1-.1.17s0,0,0,0h0a.21.21,0,0,1,.07-.15v0h0v0A.38.38,0,0,0,269.41,459.9Z"/><path class="cls-28" d="M269.16,460.51v0l-.05.11S269.15,460.55,269.16,460.51Z"/></g><g class="cls-27"><path class="cls-28" d="M267.61,457.74l-.05.06,0,0S267.61,457.76,267.61,457.74Z"/><polygon class="cls-28" points="267.51 457.86 267.5 457.87 267.5 457.88 267.51 457.86"/><path class="cls-28" d="M267.44,458l0-.05Z"/><path class="cls-28" d="M267.52,457.89s0,0,0,0h0l0,0Z"/><path class="cls-28" d="M267.52,457.89h0Z"/><path class="cls-28" d="M267.63,458s0,0-.05,0a.6.6,0,0,1-.08.16s-.07,0-.08.06-.07.23,0,.15l.2-.31.14-.28.06-.07-.09.08S267.67,458,267.63,458Z"/><path class="cls-28" d="M268,457.31v0a.24.24,0,0,0-.12.14h0s0,0,0,0a.43.43,0,0,0,.15-.15Z"/><path class="cls-28" d="M268.05,457.28l0,0h0l0,0Z"/><path class="cls-28" d="M267.3,458.23l-.31.41s0,0,0,0l0,0-.05.05v0h0s0,0,0,0h0l0,0a.21.21,0,0,1,0,.06l0-.06,0,0h0l-.1.13v0s0,.07-.07.07l0,0h0l-.08.1,0,.08h0a.07.07,0,0,1,0,0l.07,0s0-.08.05-.08,0,.07-.05.08l-.07,0a.18.18,0,0,1-.09.1.13.13,0,0,1,.09-.1.07.07,0,0,0,0,0h0l0-.08-.15.19c-.34.43-.61.85-.93,1.31l-.53.71c-.34.46-.55.94-.94,1.39a4.88,4.88,0,0,0-.42.74c-.06.29.19.25.2.24.24-.07.22-.24.48-.5-.17.19,0-.21.21-.35s.43-.68.68-1c.06-.08.11-.18.18-.28.38-.51.63-1,1-1.58.09-.15.14-.3.21-.44s.14-.17.19-.25A1.5,1.5,0,0,0,267,459l-.18.31c-.05.08,0-.09,0-.15s.08,0,.08-.06a.8.8,0,0,0,.08-.16s0,0,0,0,0-.17.08-.2l.08-.08.05-.06v0l-.05,0,.06,0-.06,0,.05,0,.16-.34h0a.43.43,0,0,1-.15.15s0,0,0,0h0c0-.06,0-.12.12-.14v0s0,0,0,0l0,0A.54.54,0,0,0,267.3,458.23Z"/><path class="cls-28" d="M266.87,458.81l0,0-.09.11S266.85,458.85,266.87,458.81Z"/></g><g class="cls-27"><path class="cls-28" d="M265.09,452.7l0,.09a.08.08,0,0,1,0,0A.09.09,0,0,0,265.09,452.7Z"/><polygon class="cls-28" points="264.99 452.87 264.98 452.88 264.97 452.9 264.99 452.87"/><path class="cls-28" d="M264.91,453l0-.08A.29.29,0,0,0,264.91,453Z"/><path class="cls-28" d="M265,452.91s0,0,0,0h0l0,.05Z"/><path class="cls-28" d="M265,452.91l0,0Z"/><path class="cls-28" d="M265.12,453s-.05,0-.06,0a1.43,1.43,0,0,1-.08.22s-.08.06-.08.09-.08.3,0,.19l.2-.44.15-.38.06-.09-.09.12C265.15,452.82,265.16,452.93,265.12,453Z"/><path class="cls-28" d="M265.49,452.07v.05a.42.42,0,0,0-.13.21l0,0s0-.06,0,0a.92.92,0,0,0,.17-.22S265.51,452.05,265.49,452.07Z"/><path class="cls-28" d="M265.56,452l0,.05h0l0-.05Z"/><path class="cls-28" d="M264.77,453.38l-.32.59a.07.07,0,0,1,0,0l0,0,0,.08,0,0h0l0,0,0,0,0,0,0,.09a.25.25,0,0,1,0-.09v-.05h0l-.11.19v0a.27.27,0,0,1-.07.12l0,0h0l-.08.14,0,.11,0,0s0,0,0,.06l.07-.06s0-.09.05-.11,0,.09-.05.11l-.07.06a.36.36,0,0,1-.1.15.23.23,0,0,1,.1-.15s0-.05,0-.06l0,0,0-.11-.15.29c-.33.63-.58,1.24-.86,1.91l-.46,1.07c-.29.7-.44,1.37-.75,2.07a8.73,8.73,0,0,0-.28,1.09c0,.38.24.23.26.22.22-.19.16-.38.38-.81-.14.29-.06-.26.14-.52a7.86,7.86,0,0,0,.53-1.49l.15-.41c.32-.76.53-1.5.89-2.29.09-.22.13-.42.19-.6a3.15,3.15,0,0,1,.19-.37,3.83,3.83,0,0,0,.18-.45l-.19.44c0,.11,0-.11,0-.19s.08-.06.08-.1a.81.81,0,0,0,.07-.22s.05,0,.05,0,0-.21.07-.27l.09-.12.05-.08v-.06h0l.06-.08-.06.08h0l.16-.46h0a.91.91,0,0,1-.16.24s0,0,0,0l0,0a.48.48,0,0,1,.12-.21l0-.06s0,0,0,0l0-.05A.66.66,0,0,0,264.77,453.38Z"/><path class="cls-28" d="M264.32,454.23l0-.05-.09.16S264.31,454.28,264.32,454.23Z"/></g><g class="cls-27"><path class="cls-28" d="M261.34,452.88l0,.07,0,0A.06.06,0,0,0,261.34,452.88Z"/><path class="cls-28" d="M261.26,453h0v0Z"/><path class="cls-28" d="M261.21,453.14l0-.06Z"/><path class="cls-28" d="M261.27,453.05h0v0Z"/><path class="cls-28" d="M261.27,453.05l0,0Z"/><path class="cls-28" d="M261.41,453.16s-.05,0-.05,0a.84.84,0,0,1-.05.17s-.07,0-.07.08,0,.24,0,.15l.14-.35.09-.31,0-.08-.07.1S261.44,453.07,261.41,453.16Z"/><path class="cls-28" d="M261.63,452.36v.05a.27.27,0,0,0-.1.17l0,0s0,0,0,0a.44.44,0,0,0,.12-.18Z"/><path class="cls-28" d="M261.69,452.32l0,0h0v0Z"/><path class="cls-28" d="M261.12,453.43l-.24.47s0,0,0,0l0,0,0,.07v0h0s0,0,0,0h0l0,0,0,.07,0-.07v0h0l-.08.15v0a.16.16,0,0,1,0,.1l0,0h0l-.06.11v.09l0,0a0,0,0,0,1,0,.05l.07,0s0-.08,0-.09,0,.07,0,.09l-.07,0a.26.26,0,0,1-.07.11.14.14,0,0,1,.07-.11,0,0,0,0,0,0-.05l0,0v-.09l-.12.23c-.27.49-.47,1-.73,1.48l-.41.81c-.29.52-.43,1-.76,1.55a5.21,5.21,0,0,0-.33.82c0,.3.22.23.23.22.23-.11.19-.27.42-.58-.15.21,0-.21.16-.39s.34-.76.55-1.13c.05-.09.09-.2.14-.31.31-.58.48-1.17.78-1.79a3.29,3.29,0,0,0,.15-.48c0-.1.11-.2.15-.28a2.05,2.05,0,0,0,.13-.37l-.14.36c0,.09,0-.09,0-.16s.07,0,.07-.07a1.21,1.21,0,0,0,.05-.18s0,0,0,0,0-.17,0-.22l.07-.1,0-.06v-.05h-.05l.05-.07-.05.07h.05l.1-.37h0a.46.46,0,0,1-.13.18s0,0,0,0l0,0c0-.07,0-.13.09-.17v-.05h0v0A.47.47,0,0,0,261.12,453.43Z"/><path class="cls-28" d="M260.79,454.1v0l-.07.13A.17.17,0,0,0,260.79,454.1Z"/></g><g class="cls-27"><path class="cls-28" d="M258.13,450l0,.08,0,0S258.13,450,258.13,450Z"/><path class="cls-28" d="M258.05,450.13v0h0Z"/><path class="cls-28" d="M258,450.27l0-.07Z"/><path class="cls-28" d="M258.05,450.17s0,0,0,0h0l0,0Z"/><path class="cls-28" d="M258.05,450.17h0Z"/><path class="cls-28" d="M258.18,450.29s0,0,0,0,0,.12-.07.18-.07.05-.08.08-.05.25,0,.16l.17-.36.11-.33.05-.08-.08.1C258.2,450.11,258.22,450.2,258.18,450.29Z"/><path class="cls-28" d="M258.46,449.46v.05a.3.3,0,0,0-.1.17h0s0-.05,0,0a.49.49,0,0,0,.14-.19Z"/><path class="cls-28" d="M258.52,449.42l0,0h0v0Z"/><path class="cls-28" d="M257.87,450.56l-.27.49a.06.06,0,0,1,0,0l0,0,0,.07v0h0s0,0,0,0l0,0,0,0,0,0a.21.21,0,0,1,0,.06.09.09,0,0,1,0-.06v-.05h0l-.1.15v0s0,.08-.07.09v0h0l-.07.12a.29.29,0,0,1,0,.09l0,0a.11.11,0,0,1,0,.05l.07,0s0-.08.05-.09,0,.08-.05.09l-.07,0a.2.2,0,0,1-.09.12.19.19,0,0,1,.09-.12.11.11,0,0,0,0-.05l0,0a.29.29,0,0,0,0-.09c0,.08-.09.15-.14.23-.31.5-.57,1-.89,1.5-.17.28-.34.55-.52.8a15.28,15.28,0,0,1-1,1.53,7.16,7.16,0,0,0-.46.8c-.08.31.18.27.19.26.25-.08.24-.26.52-.55-.18.21,0-.22.22-.38s.46-.75.72-1.12c.06-.09.11-.2.18-.32.39-.57.64-1.17,1-1.8a4.44,4.44,0,0,0,.19-.49c.05-.11.13-.21.18-.3a4,4,0,0,0,.17-.37l-.17.36c0,.09,0-.09,0-.16s.07,0,.08-.07a1.06,1.06,0,0,0,.06-.19s0,0,0,0,0-.18.06-.23l.08-.1,0-.06v-.05h0l0-.06,0,.06h0l.13-.39h0a.67.67,0,0,1-.14.19s0,0,0,0l0,0a.28.28,0,0,1,.11-.17v-.05s0,0,.05,0l0,0A.89.89,0,0,0,257.87,450.56Z"/><path class="cls-28" d="M257.49,451.26v0l-.08.13S257.47,451.3,257.49,451.26Z"/></g><g class="cls-27"><path class="cls-28" d="M253.35,446.92l0,.1,0,0S253.35,446.94,253.35,446.92Z"/><path class="cls-28" d="M253.29,447.11v0Z"/><path class="cls-28" d="M253.26,447.29s0-.06,0-.09A.29.29,0,0,0,253.26,447.29Z"/><path class="cls-28" d="M253.31,447.15s0,0,0,0h0a.07.07,0,0,0,0,.05Z"/><path class="cls-28" d="M253.31,447.15l0,0Z"/><path class="cls-28" d="M253.46,447.24s-.05,0-.05,0a.93.93,0,0,1,0,.24s-.07.08-.07.12,0,.31,0,.19.06-.32.1-.49,0-.28.05-.42l0-.11-.06.15C253.44,447,253.48,447.13,253.46,447.24Z"/><path class="cls-28" d="M253.57,446.18v.06a.48.48,0,0,0-.07.24l0,0c0-.05,0-.06,0,0a1,1,0,0,0,.1-.27A0,0,0,0,0,253.57,446.18Z"/><path class="cls-28" d="M253.62,446.1v.06h0v-.06Z"/><path class="cls-28" d="M253.2,447.68q-.09.35-.18.66a.06.06,0,0,1,0,.06l0,.05,0,.09v0h0s0,0,0,0l0,0,0,0,0,.05a.29.29,0,0,1,0,.09.64.64,0,0,1,0-.09v-.06h0l-.06.21s0,0,0,.05,0,.1,0,.13l0,0h0l-.05.16v.12l0,0a.13.13,0,0,1,0,.06l.06-.07s0-.09,0-.12,0,.09,0,.12l-.06.07a.36.36,0,0,1-.07.17.26.26,0,0,1,.07-.17.13.13,0,0,0,0-.06l0,0v-.12l-.09.32c-.22.7-.38,1.35-.59,2.07-.12.4-.24.77-.37,1.14-.24.73-.36,1.42-.67,2.14a9.05,9.05,0,0,0-.31,1.1c0,.39.23.25.25.24.23-.19.18-.39.4-.83-.14.3,0-.26.15-.53a6.73,6.73,0,0,0,.5-1.57c0-.13.07-.28.12-.44.28-.81.4-1.6.64-2.47a5.74,5.74,0,0,0,.1-.65c0-.14.09-.29.12-.4a2.53,2.53,0,0,0,.09-.5c0,.17-.05.29-.09.48s0-.1,0-.18.06-.08.06-.12a2,2,0,0,0,0-.24s0,0,0,0,0-.22,0-.29l.06-.14a.3.3,0,0,0,0-.1v-.06h-.06l0-.09,0,.09h.06c0-.15,0-.33,0-.5h0a1,1,0,0,1-.1.27s0,0,0,0l0,0a.37.37,0,0,1,.07-.25v-.05s0,0,0,0a.13.13,0,0,1,0-.06A.63.63,0,0,0,253.2,447.68Z"/><path class="cls-28" d="M253,448.63a.43.43,0,0,0,0-.05l-.05.18S252.94,448.68,253,448.63Z"/></g><g class="cls-27"><path class="cls-28" d="M249.59,446.36l0,.07,0,0S249.6,446.37,249.59,446.36Z"/><path class="cls-28" d="M249.55,446.49h0Z"/><path class="cls-28" d="M249.54,446.61a.13.13,0,0,0,0-.06A.13.13,0,0,0,249.54,446.61Z"/><path class="cls-28" d="M249.57,446.52s0,0,0,0h0v0Z"/><path class="cls-28" d="M249.57,446.52l0,0Z"/><path class="cls-28" d="M249.73,446.59s0,0,0,0a.85.85,0,0,1,0,.16s-.05.06-.05.08,0,.22.05.13,0-.21,0-.33,0-.18,0-.28a.24.24,0,0,1,0-.08l0,.1C249.69,446.44,249.74,446.51,249.73,446.59Z"/><path class="cls-28" d="M249.73,445.86v0a.2.2,0,0,0-.05.16l0,0s0,0,0,0a.45.45,0,0,0,.07-.18Z"/><path class="cls-28" d="M249.77,445.81v0h0v0Z"/><path class="cls-28" d="M249.53,446.87c0,.16-.07.31-.11.45s0,0,0,0l0,0,0,.07v0h0a.05.05,0,0,0,0,0s0,0,0,.06a.08.08,0,0,1,0-.06v0h0a.74.74,0,0,0,0,.14v0s0,.07,0,.09v0h0l0,.11a.22.22,0,0,0,0,.08l0,0a.06.06,0,0,1,0,0l0,0s0-.07,0-.09,0,.07,0,.09l0,0a.16.16,0,0,1-.05.11c0-.05,0-.08.05-.11a.06.06,0,0,0,0,0l0,0a.22.22,0,0,1,0-.08l-.06.21c-.14.47-.23.91-.36,1.4-.07.27-.15.52-.23.76a12.12,12.12,0,0,1-.44,1.45,4.7,4.7,0,0,0-.18.74c0,.27.26.18.27.17.21-.11.14-.26.31-.55-.11.2-.08-.18.08-.36s.2-.7.32-1.05a2.21,2.21,0,0,0,.07-.3,16.36,16.36,0,0,0,.37-1.67,2.22,2.22,0,0,0,0-.44c0-.1.06-.19.07-.27a1.37,1.37,0,0,0,0-.34c0,.12,0,.2,0,.33s-.05-.07-.05-.13.05-.05.05-.08a.85.85,0,0,0,0-.16s0,0,0,0,0-.15,0-.19a1,1,0,0,1,0-.1.14.14,0,0,0,0-.06v-.05h-.06a.21.21,0,0,0,0-.07.21.21,0,0,1,0,.07h.06c0-.1,0-.22,0-.34h0a.44.44,0,0,1-.07.19s0,0,0,0l0,0c0-.06,0-.12,0-.16v0s0,0,0,0v0Z"/><path class="cls-28" d="M249.38,447.52v0l0,.12S249.38,447.55,249.38,447.52Z"/></g><g class="cls-27"><path class="cls-28" d="M240.84,459l.19-.6-.11.3A1.5,1.5,0,0,0,240.84,459Z"/><path class="cls-28" d="M241.21,457.85l0-.1,0-.09Z"/><path class="cls-28" d="M241.56,456.81c-.07.18-.13.36-.18.53Z"/><path class="cls-28" d="M241.26,457.64c0-.07.05-.09,0,0h0l.1-.32Z"/><path class="cls-28" d="M241.26,457.64l-.08.18Z"/><path class="cls-28" d="M241.19,457.32c0-.11.07-.07.13-.28.16-.49.28-.91.45-1.36.07-.21.24-.52.31-.73.17-.48.61-1.73.32-1-.43,1.09-.68,1.81-1,2.8-.26.81-.5,1.59-.74,2.43l-.2.68.29-.91C240.87,458.52,241,458,241.19,457.32Z"/><path class="cls-28" d="M239.88,463.53v-.33c0-.48.12-1,.21-1.5l-.07.22c0,.29,0,.33,0,.07a4.85,4.85,0,0,0-.16,1.73A1.49,1.49,0,0,0,239.88,463.53Z"/><path class="cls-28" d="M240,464.05l-.08-.33h0l.08.33Z"/><path class="cls-28" d="M242.33,454.61A20.86,20.86,0,0,1,244,451c.06,0,.11-.06.17,0a.52.52,0,0,1,.3.07,2.33,2.33,0,0,1,.26.17,4.17,4.17,0,0,1,.47.36l.15.13h0c.09.07.07,0,0,0l-.15-.15.15.15.21.23a4.78,4.78,0,0,1,.39.39l-.39-.39-.24-.23-.07-.06c.33.3.63.63.93,1l.19.21a7,7,0,0,1,.53.65l.15.19,0,0,.05.07.61.82.41.53.11.2.23.29-.25-.43c-.11-.2-.33-.39-.45-.64.12.25.34.44.45.64l.25.43a10.47,10.47,0,0,1,.55.91,9.19,9.19,0,0,1-.55-.91l-.23-.29-.11-.2-.41-.53c.38.53.75,1.09,1.12,1.66a29.17,29.17,0,0,1,1.55,2.84,10.77,10.77,0,0,1,1,3,2.7,2.7,0,0,1-.18,1.52,2,2,0,0,1-1.12,1,1.06,1.06,0,0,1-1.22-.67c-.26-.48-.51-1-.75-1.5a42.34,42.34,0,0,1-2.51-6.69c-.32-1.13-.58-2.17-.83-3.34-.09-.43-.18-1-.27-1.26s-.16-1-.3-.31a8.37,8.37,0,0,0-.31,1.1c0,.21-.08.44-.09.65s0,.28,0,.43c-.06,2.29.83,4.45.81,6.73a4.94,4.94,0,0,1-.89,3.07,4.25,4.25,0,0,1-2.59,1.66,1,1,0,0,1-.83-.25c-.12-.13-.18-.16-.2-.14s.06.36.12.38a1.12,1.12,0,0,0,1,.4,3,3,0,0,0,1.11-.32,6,6,0,0,0,1.18-.82,5,5,0,0,0,1.19-1.53c-.23.47-.36.58-.32.51a4.55,4.55,0,0,0,.34-.75,8.35,8.35,0,0,0,.33-3.14c0-1.38-.5-3-.69-4.66a10.62,10.62,0,0,1,0-1.26l0-.33,0-.09c0-.11,0,0,0,0l.14.7c.18.82.41,1.69.69,2.65a41.27,41.27,0,0,0,2.77,7.14l.44.86a2.67,2.67,0,0,0,.62.86,1.29,1.29,0,0,0,1.15.26,2,2,0,0,0,1-.59,2.44,2.44,0,0,0,.56-.93,2.88,2.88,0,0,0,.12-1.08,7.46,7.46,0,0,0-.46-2,19.37,19.37,0,0,0-1.8-3.53c-.47-.77-1-1.57-1.4-2.17a21.5,21.5,0,0,0-1.95-2.36,24.16,24.16,0,0,1,1.9,2.31c.46.64-.36-.41-.69-.81-.14-.17-.32-.47-.47-.63a12.2,12.2,0,0,0-1-1.06c-.16-.15-.11-.17-.19-.24a3.27,3.27,0,0,0-1.5-.92.45.45,0,0,0-.28.06,3.25,3.25,0,0,0-.43.64l-.26.53-.15.35a.65.65,0,0,1,.12-.14l-.27.58.27-.58a.65.65,0,0,0-.12.14c-.35.86-.73,1.86-1.06,2.79h0a17.12,17.12,0,0,1,.67-1.61c-.11.23-.11.2,0-.08l.11-.2c-.19.48-.36,1-.58,1.41l-.1.31a.56.56,0,0,1-.1.17l-.12.32Z"/><path class="cls-28" d="M245.61,451.94l-.2-.19c.27.25.53.52.78.8A5.12,5.12,0,0,0,245.61,451.94Z"/></g><g class="cls-27"><path class="cls-28" d="M330.66,504.32l-.07.05h0S330.66,504.34,330.66,504.32Z"/><path class="cls-28" d="M330.52,504.41h0Z"/><path class="cls-28" d="M330.4,504.51l.06-.05Z"/><path class="cls-28" d="M330.51,504.45s0,0,0,0h0l0,0Z"/><path class="cls-28" d="M330.51,504.45h0Z"/><path class="cls-28" d="M330.57,504.61s0,0-.05,0a1,1,0,0,1-.15.14s-.09,0-.11,0-.16.2-.08.14l.33-.26.26-.25.08-.05-.12.06C330.67,504.45,330.65,504.55,330.57,504.61Z"/><path class="cls-28" d="M331.21,504l0,0a.31.31,0,0,0-.18.12h0s0,0,0,0a.45.45,0,0,0,.21-.12S331.23,504,331.21,504Z"/><path class="cls-28" d="M331.29,504l0,0h0l0,0Z"/><path class="cls-28" d="M330.16,504.73l-.49.32s0,0,0,0h-.05l-.07,0,0,0h0s0,0,0,0h0l-.07,0,.07,0,0,0h0l-.16.09,0,0s-.07.06-.1.05l0,0h0l-.12.08-.06.07h0l0,0H329s0-.08.09-.06-.05.06-.09.06h-.08a.2.2,0,0,1-.14.06.25.25,0,0,1,.14-.06l0,0h0l.06-.07-.24.14-1.57.91c-.3.17-.6.32-.89.45a13.29,13.29,0,0,1-1.7.82,6.2,6.2,0,0,0-.85.44c-.25.22,0,.32,0,.33.26.06.35-.1.76-.2-.27.08.13-.19.41-.21s.83-.41,1.26-.6c.11-.05.21-.12.33-.19.66-.31,1.2-.72,1.86-1.11a3,3,0,0,0,.42-.36c.11-.07.23-.12.31-.18a1.9,1.9,0,0,0,.34-.26l-.33.25c-.09.06,0-.09.08-.14s.09,0,.11,0a.61.61,0,0,0,.15-.13s0,0,.05,0,.11-.16.17-.18l.12-.06.07,0,0,0a.05.05,0,0,1-.05,0l.08,0-.08,0a.05.05,0,0,0,.05,0l.3-.29h0a.94.94,0,0,1-.22.12s0,0,0,0h0a.38.38,0,0,1,.18-.11l0,0s0,0,0,0l0,0A.62.62,0,0,0,330.16,504.73Z"/><path class="cls-28" d="M329.47,505.19l0,0-.14.08S329.43,505.22,329.47,505.19Z"/></g><g class="cls-27"><path class="cls-28" d="M335.74,534.29l-.06,0,0,0Z"/><polygon class="cls-28" points="335.62 534.23 335.6 534.23 335.59 534.23 335.62 534.23"/><path class="cls-28" d="M335.49,534.19l.06,0Z"/><path class="cls-28" d="M335.58,534.24h0Z"/><path class="cls-28" d="M335.58,534.24l0,0Z"/><path class="cls-28" d="M335.49,534.39s0,0,0,0l-.17,0s0-.06-.07-.06-.22,0-.14,0l.33.09.29.06.07,0-.09-.06S335.57,534.41,335.49,534.39Z"/><path class="cls-28" d="M336.22,534.54h0a.21.21,0,0,0-.16-.08l0,0s0,0,0,0a.36.36,0,0,0,.17.11A0,0,0,0,0,336.22,534.54Z"/><path class="cls-28" d="M336.26,534.59h0Z"/><path class="cls-28" d="M335.23,534.14l-.45-.17s0,0,0,0l0,0-.06,0h0s0,0,0,0l0,0,0,0s0,0,0,0h.05l-.14,0h0s-.08,0-.09,0h0l-.11,0h-.08l0,0h0l0,.06s.07,0,.09,0-.07,0-.09,0l0-.06a.18.18,0,0,1-.12,0,.13.13,0,0,1,.12,0h0l0,0h.08l-.22-.08a11.1,11.1,0,0,0-1.46-.33l-.82-.15c-.54-.09-1,0-1.59-.11a3.55,3.55,0,0,0-.8.06.18.18,0,0,0-.08.31c.19.16.3,0,.64.11-.23,0,.16-.13.37,0s.74,0,1.12.08l.31,0c.57.1,1.11.1,1.71.24a3.64,3.64,0,0,0,.45,0l.27.09.34.06-.33-.07c-.08,0,.08,0,.14,0s.05.06.07.06h.17s0,0,0,0,.16,0,.2,0l.1,0,.06,0h0v-.06l.06,0-.06,0v.06a2.27,2.27,0,0,1,.35.05h0a.36.36,0,0,1-.18-.1s0,0,0,0v0a.24.24,0,0,1,.16.07h0a.06.06,0,0,1,0,0h0Z"/><path class="cls-28" d="M334.58,533.91h0l-.12,0A.12.12,0,0,0,334.58,533.91Z"/></g><g class="cls-27"><path class="cls-28" d="M336.88,529.66h-.09l0,0S336.87,529.67,336.88,529.66Z"/><path class="cls-28" d="M336.71,529.65h0Z"/><path class="cls-28" d="M336.55,529.65h0Z"/><path class="cls-28" d="M336.67,529.67s0,0,0,0h-.05Z"/><path class="cls-28" d="M336.67,529.67s0,0,0,0Z"/><path class="cls-28" d="M336.62,529.84s0-.05,0,0l-.21,0s-.08-.05-.11,0-.27.06-.15.07h.43l.37,0h.1l-.14,0C336.81,529.77,336.73,529.83,336.62,529.84Z"/><path class="cls-28" d="M337.55,529.72l-.05,0a.33.33,0,0,0-.22,0l0,0s0,0,0,0a.69.69,0,0,0,.25,0S337.57,529.73,337.55,529.72Z"/><path class="cls-28" d="M337.63,529.76h0Z"/><path class="cls-28" d="M336.21,529.68l-.6,0s0,0-.05,0l0,0h-.12s0,0,0,0l0,0,0,0,0,0h-.17c-.05,0-.09,0-.12,0h-.19l-.09,0,0,0-.05,0,.07,0s.07,0,.11,0-.08,0-.11,0l-.07,0a.2.2,0,0,1-.15,0,.24.24,0,0,1,.15,0l.05,0,0,0,.09,0-.29,0c-.63-.06-1.21-.09-1.87-.14-.35,0-.7-.07-1-.12-.67-.09-1.28-.06-1.95-.21a6.69,6.69,0,0,0-1-.07c-.34.06-.18.28-.16.29.2.19.36.1.78.22-.29-.07.21-.1.48,0s.94.09,1.42.16c.12,0,.25,0,.4,0,.74.1,1.44.06,2.22.11a3.32,3.32,0,0,0,.57,0c.13,0,.27,0,.37,0a3.16,3.16,0,0,0,.44,0h-.43c-.11,0,.08-.06.16-.07s.08.05.11,0l.21,0s0,0,0,0,.18-.07.25-.05l.13,0h.14a.14.14,0,0,1,0-.06l.09,0-.09,0a.14.14,0,0,0,0,.06c.13,0,.29,0,.43-.06h0a.77.77,0,0,1-.25,0s0,0,0,0l0,0a.34.34,0,0,1,.22,0l0,0a0,0,0,0,1,0,0h.05A.48.48,0,0,0,336.21,529.68Z"/><path class="cls-28" d="M335.35,529.63h0l-.16,0A.12.12,0,0,0,335.35,529.63Z"/></g><g class="cls-27"><path class="cls-28" d="M339,523.67l-.1,0H339Z"/><polygon class="cls-28" points="338.83 523.72 338.81 523.73 338.8 523.74 338.83 523.72"/><path class="cls-28" d="M338.65,523.79l.09,0Z"/><path class="cls-28" d="M338.8,523.76s0,0,0,0h0l-.06,0Z"/><path class="cls-28" d="M338.8,523.76h0Z"/><path class="cls-28" d="M338.8,523.94s0,0-.06,0l-.22.11s-.11,0-.14,0-.29.17-.16.13l.49-.18.4-.19.12,0-.17,0C339,523.8,338.92,523.89,338.8,523.94Z"/><path class="cls-28" d="M339.8,523.44l-.05,0a.57.57,0,0,0-.25.08h.05s0,0,0,0a.69.69,0,0,0,.29-.07S339.83,523.44,339.8,523.44Z"/><path class="cls-28" d="M339.9,523.44l-.06,0h0l0,0Z"/><path class="cls-28" d="M338.28,524l-.7.19a.06.06,0,0,1-.05,0h0l-.1,0h0s0,0,0,0h-.06l-.09,0,.09,0,0,0h0l-.23,0,0,0a.21.21,0,0,1-.15,0h0l-.18,0-.1,0h-.05l-.05,0,.09,0s.08-.07.13,0-.09.05-.13,0l-.09,0a.4.4,0,0,1-.19,0,.25.25,0,0,1,.19,0l.05,0h.05l.1,0-.34.07c-.74.14-1.43.27-2.2.37-.43.05-.83.09-1.23.11a15.09,15.09,0,0,1-2.33.07,11.57,11.57,0,0,0-1.18,0c-.39.08-.19.29-.17.3.25.17.44.08,1,.16-.35,0,.25-.12.58,0a5.93,5.93,0,0,0,1.72,0,4.62,4.62,0,0,0,.48,0,19.42,19.42,0,0,0,2.65-.42,4.52,4.52,0,0,0,.65-.21c.15,0,.32-.05.44-.08a5.07,5.07,0,0,0,.51-.17l-.5.15c-.13,0,.08-.08.16-.11s.11,0,.14,0a2.18,2.18,0,0,0,.23-.09s.05,0,.06,0,.19-.13.27-.13l.17,0,.09,0,.06,0,0,0h0l0,0,.48-.21h0a.72.72,0,0,1-.29.06s0,0,0,0h0a.45.45,0,0,1,.25-.07l.05,0s0,0,0,0l.06,0Z"/><path class="cls-28" d="M337.29,524.22h0l-.19,0A.29.29,0,0,0,337.29,524.22Z"/></g><g class="cls-27"><path class="cls-28" d="M337.29,519.32l-.11,0h.06S337.27,519.34,337.29,519.32Z"/><polygon class="cls-28" points="337.09 519.39 337.07 519.39 337.05 519.4 337.09 519.39"/><path class="cls-28" d="M336.91,519.46l.09,0Z"/><path class="cls-28" d="M337.06,519.42s0,0,0,0h0l-.05,0Z"/><path class="cls-28" d="M337.06,519.42h0Z"/><path class="cls-28" d="M337.07,519.6s0,0-.06,0l-.23.11s-.11,0-.14,0-.28.17-.16.12l.49-.18.4-.2.12,0-.17,0C337.25,519.46,337.18,519.55,337.07,519.6Z"/><path class="cls-28" d="M338.05,519.06l-.05,0a.48.48,0,0,0-.25.09h.05s.05,0,0,0a.89.89,0,0,0,.29-.08S338.08,519.06,338.05,519.06Z"/><path class="cls-28" d="M338.15,519.06l-.06,0h0l0,0Z"/><path class="cls-28" d="M336.54,519.62a6.77,6.77,0,0,1-.7.2,0,0,0,0,1,0,0h-.05l-.1,0h0s0,0,0,0h-.06l-.09,0,.09,0,.05,0h0l-.23,0-.05,0a.18.18,0,0,1-.14,0h-.05l-.17,0-.11,0,0,0-.06,0,.09,0c.05,0,.08-.07.13,0s-.08,0-.13,0l-.09,0a.4.4,0,0,1-.19,0,.25.25,0,0,1,.19,0l.06,0,0,0,.11,0-.34,0a18,18,0,0,1-2.24.26q-.63,0-1.23,0a11.34,11.34,0,0,1-2.32-.23c-.3-.08-.86-.14-1.16-.19s-.24.25-.22.26c.21.21.42.17.91.33-.33-.1.27-.07.58.08a5.25,5.25,0,0,0,1.73.19c.15,0,.31,0,.48,0a14.81,14.81,0,0,0,2.71-.23,4.07,4.07,0,0,0,.67-.19c.15,0,.32,0,.44-.07a3.07,3.07,0,0,0,.51-.16l-.5.15c-.13,0,.08-.08.16-.12s.11,0,.14,0a1,1,0,0,0,.24-.09s0,0,.06,0,.19-.12.27-.13l.17,0,.09,0,.06,0,0,0h0l0,0,.48-.22h0a1,1,0,0,1-.3.06s0,0,0,0h0a.45.45,0,0,1,.25-.07l.05,0a.06.06,0,0,1,.05,0l.05,0A.61.61,0,0,0,336.54,519.62Z"/><path class="cls-28" d="M335.55,519.91l0,0-.19,0A.44.44,0,0,0,335.55,519.91Z"/></g><g class="cls-27"><path class="cls-28" d="M336.39,514.37l-.1,0h.06S336.38,514.38,336.39,514.37Z"/><polygon class="cls-28" points="336.2 514.43 336.19 514.43 336.17 514.44 336.2 514.43"/><path class="cls-28" d="M336,514.49l.09,0Z"/><path class="cls-28" d="M336.18,514.46s0,0,0,0h0l0,0Z"/><path class="cls-28" d="M336.18,514.46h0Z"/><path class="cls-28" d="M336.19,514.63s0,0-.06,0a.93.93,0,0,1-.2.1s-.1,0-.13,0-.26.16-.14.12l.44-.17.37-.18a.35.35,0,0,1,.11,0l-.15,0C336.35,514.5,336.29,514.59,336.19,514.63Z"/><path class="cls-28" d="M337.09,514.15l0,0a.37.37,0,0,0-.23.07h0q.08,0,0,0a.76.76,0,0,0,.27-.06S337.12,514.15,337.09,514.15Z"/><path class="cls-28" d="M337.18,514.15l-.05,0h0l.05,0Z"/><path class="cls-28" d="M335.7,514.64c-.22.08-.43.13-.63.19,0,0,0,0-.05,0h0l-.09,0,0,0h0s0,0,0,0h-.05l-.08,0,.08,0,.05,0h0l-.2,0h-.05a.21.21,0,0,1-.13,0h0l-.16,0-.1,0h0l-.05,0,.09,0s.07-.06.12,0-.08,0-.12,0l-.09,0a.32.32,0,0,1-.17,0,.26.26,0,0,1,.17,0l.05,0h0l.1,0-.31.06c-.68.14-1.31.27-2,.36a11.08,11.08,0,0,1-1.12.1,12.76,12.76,0,0,1-2.14.07,9.69,9.69,0,0,0-1.08,0c-.36.08-.17.28-.16.3.23.17.41.08.88.16-.32-.05.22-.12.53,0a4.71,4.71,0,0,0,1.58,0c.14,0,.28,0,.44,0a18,18,0,0,0,2.44-.41,4.05,4.05,0,0,0,.59-.21c.14,0,.29-.05.4-.08a2.58,2.58,0,0,0,.47-.16l-.46.15c-.12,0,.07-.08.15-.11s.1,0,.13,0a1.31,1.31,0,0,0,.21-.1s0,0,.05,0,.18-.12.25-.13l.15,0,.09,0,.05,0,0,0h0l0,0,.43-.21h0a.81.81,0,0,1-.27.05s0,0,0,0h-.05a.41.41,0,0,1,.24-.06l0,0s0,0,0,0l.05,0Z"/><path class="cls-28" d="M334.8,514.91l0,0-.17,0A.22.22,0,0,0,334.8,514.91Z"/></g><g class="cls-27"><path class="cls-28" d="M334,509l-.09.05h.05S333.94,509.05,334,509Z"/><polygon class="cls-28" points="333.78 509.12 333.77 509.13 333.75 509.14 333.78 509.12"/><path class="cls-28" d="M333.64,509.22l.07,0S333.67,509.2,333.64,509.22Z"/><path class="cls-28" d="M333.76,509.16s0,0,0,0h0l-.05,0Z"/><path class="cls-28" d="M333.76,509.16h0Z"/><path class="cls-28" d="M333.81,509.33s0,0-.05,0a2.2,2.2,0,0,1-.18.14s-.09,0-.12,0-.2.21-.1.15l.38-.27.31-.24a.19.19,0,0,1,.1,0l-.14,0C333.94,509.17,333.9,509.27,333.81,509.33Z"/><path class="cls-28" d="M334.6,508.72l0,0a.37.37,0,0,0-.22.1h0s0,0,0,0a.73.73,0,0,0,.26-.09S334.63,508.71,334.6,508.72Z"/><path class="cls-28" d="M334.69,508.71l0,0h0l0,0Z"/><path class="cls-28" d="M333.35,509.45l-.55.35s0,0,0,0h0l-.08,0,0,0h0s0,0,0,0h-.05l-.07.05a.18.18,0,0,1,.07-.05l0,0h0l-.18.11,0,0a.19.19,0,0,1-.12.07l0,0h0l-.13.09-.07.08H332a.09.09,0,0,1,0,.05h.09s0-.09.1-.07-.06.07-.1.07H332a.41.41,0,0,1-.15.07.23.23,0,0,1,.15-.07.09.09,0,0,0,0-.05h.05l.07-.08-.27.16c-.58.36-1.1.72-1.71,1.07a9.19,9.19,0,0,1-1,.5,5.68,5.68,0,0,1-1.94.64c-.27,0-.75.11-1,.11s-.18.29-.16.3c.22.16.41.1.88.12-.32,0,.21-.13.52-.1.48.08,1-.3,1.52-.48l.39-.19a15,15,0,0,0,2.07-1.27c.19-.13.32-.28.47-.4s.24-.15.33-.22a2.37,2.37,0,0,0,.38-.29l-.37.28c-.1.07,0-.1.09-.15s.1,0,.12-.05a1.14,1.14,0,0,0,.17-.15s0,0,.05,0,.12-.16.19-.19l.13-.06.08-.05,0,0-.05,0,.09,0-.09,0,.05,0c.11-.11.24-.21.35-.31h0a.66.66,0,0,1-.24.11s0,0,0,0h0a.41.41,0,0,1,.2-.12l0,0s0,0,0,0l0,0Z"/><path class="cls-28" d="M332.57,510l0,0-.15.1A.15.15,0,0,0,332.57,510Z"/></g><g class="cls-27"><path class="cls-28" d="M319.38,508.34c-.11.2-.24.4-.34.6,0-.1.12-.19.18-.29A3.12,3.12,0,0,0,319.38,508.34Z"/><path class="cls-28" d="M318.74,509.51l-.05.11-.05.1Z"/><path class="cls-28" d="M318.24,510.6l.25-.55Z"/><path class="cls-28" d="M318.65,509.74c0,.06-.06.09,0,0h0l-.15.33Z"/><path class="cls-28" d="M318.65,509.74l.12-.19Z"/><path class="cls-28" d="M318.68,510.09c-.05.11-.08.06-.17.29-.23.51-.39,1-.59,1.44-.08.23-.27.56-.34.79-.19.53-.6,1.9-.32,1.11.41-1.2.71-2,1.16-3a25.64,25.64,0,0,1,1.2-2.48c.13-.24.27-.44.41-.65a10,10,0,0,0-.55.87A17.72,17.72,0,0,0,318.68,510.09Z"/><path class="cls-28" d="M322.53,504.36l-.26.25a8.21,8.21,0,0,0-1.13,1.22l.17-.18c.21-.25.22-.28,0-.07.46-.47.89-.92,1.37-1.33A.48.48,0,0,0,322.53,504.36Z"/><path class="cls-28" d="M323,504l-.28.25h0L323,504Z"/><path class="cls-28" d="M317.32,513c-.56,1.49-1,3-1.47,4.32a.77.77,0,0,1-.14.31c-.08.08-.13.19-.23.25a.53.53,0,0,1-.56.12c-.08,0-.13-.07-.2-.1h0c-.1-.06-.08,0,0,0s.12.11.19.13-.13-.09-.19-.13a1.36,1.36,0,0,1-.24-.24,2.58,2.58,0,0,1-.36-.49,3.68,3.68,0,0,0,.36.49.94.94,0,0,0,.26.23l.09.05a2.68,2.68,0,0,1-.88-1.11l-.13-.28a4.29,4.29,0,0,1-.32-.86l-.07-.25v0l0-.1c-.09-.35-.17-.71-.23-1.08s-.08-.47-.11-.72v-.24a2.29,2.29,0,0,1,0-.41,5.36,5.36,0,0,0,0,.55c0,.25.09.55.1.84,0-.29-.1-.59-.1-.84a5.36,5.36,0,0,1,0-.55,3.11,3.11,0,0,1,.1-.57c.08-.18.15-.37.23-.53l-.22.58c-.05.18-.07.35-.11.52a2.29,2.29,0,0,0,0,.41v.24c0,.25.06.49.11.72a4.05,4.05,0,0,1,.09-2.13,9,9,0,0,1,2.06-2.82,26.91,26.91,0,0,1,2.63-2.27,29.16,29.16,0,0,1,2.92-2c.52-.29,1.05-.57,1.6-.81l.42-.16c.15-.07.24-.1.35,0a1.56,1.56,0,0,1,.48.69,16.53,16.53,0,0,1,.9,3.83,23.55,23.55,0,0,1,.21,3.82,16.14,16.14,0,0,1-.47,3.65,3.48,3.48,0,0,1-2,2.62,1.4,1.4,0,0,1-.37,0,.54.54,0,0,1-.26-.17,2.75,2.75,0,0,1-.45-.72,8.69,8.69,0,0,1-.6-1.69,10.85,10.85,0,0,1-.33-3.63,47.36,47.36,0,0,1,2.34-7.05c.44-1.2.51-1.46.44-1.46s-.26.28-.29.33a39.2,39.2,0,0,0-2.28,5.52c.37-1,.27-.63,0,.26a11.53,11.53,0,0,0-.7,3.36,11,11,0,0,0,.27,2.46,8.15,8.15,0,0,0,1,2.63,1.54,1.54,0,0,0,.62.59.94.94,0,0,0,.3.06l.2,0a2.5,2.5,0,0,0,.39-.11,2.7,2.7,0,0,0,1.26-.94,6.63,6.63,0,0,0,1.1-2.7,15.31,15.31,0,0,0,.3-3,22.68,22.68,0,0,0-.28-4.22,20.8,20.8,0,0,0-.4-2.06,7.48,7.48,0,0,0-.75-2,1.2,1.2,0,0,0-.52-.46.69.69,0,0,0-.45,0l-.25.1c-.34.13-.66.29-1,.44-.63.33-1.25.69-1.85,1.08a31.35,31.35,0,0,0-3.51,2.62,14.16,14.16,0,0,0-2.87,3.27,4.1,4.1,0,0,0-.58,1.43,4.83,4.83,0,0,0,0,1.38,8.44,8.44,0,0,0,1.07,3.22,8.82,8.82,0,0,1-1.05-3.14c-.1-.87.11.6.3,1.13.08.23.13.62.23.85a5.5,5.5,0,0,0,.75,1.41c.15.2.11.2.2.3a1.39,1.39,0,0,0,.5.34.72.72,0,0,0,.58-.06,1.73,1.73,0,0,0,.53-.71c.16-.35.26-.67.37-1l.19-.6.12-.4a.51.51,0,0,1-.11.16l.23-.65-.23.65a.51.51,0,0,0,.11-.16c.28-1,.63-2.08,1-3.09h0l-.68,1.78c.11-.26.11-.22,0,.08l-.11.23a13.61,13.61,0,0,1,.56-1.56l.11-.35a.46.46,0,0,1,.11-.18l.13-.35C317.64,512.22,317.32,513,317.32,513Z"/><path class="cls-28" d="M314.45,517.65a1.35,1.35,0,0,0,.21.2,3.29,3.29,0,0,1-.71-1A2.54,2.54,0,0,0,314.45,517.65Z"/></g><g class="cls-27"><path class="cls-28" d="M166.3,277.54l-.16,0h.09S166.28,277.55,166.3,277.54Z"/><path class="cls-28" d="M166,277.63h-.05Z"/><path class="cls-28" d="M165.71,277.72l.14,0Z"/><path class="cls-28" d="M165.94,277.67s0,0,0,0h0l-.09,0Z"/><path class="cls-28" d="M165.94,277.67h0Z"/><path class="cls-28" d="M165.92,277.85s0,0-.09,0l-.36.15c-.05,0-.17,0-.2,0a.3.3,0,0,0-.11.07c0,.07.07.09.05,0h0a5.28,5.28,0,0,1,.57-.2l.63-.26.19-.05-.26.05C166.22,277.69,166.09,277.79,165.92,277.85Z"/><path class="cls-28" d="M167.51,277.2l-.08,0a1.17,1.17,0,0,0-.39.12h.06c.08,0,.08,0,0,0a2.21,2.21,0,0,0,.46-.11S167.56,277.2,167.51,277.2Z"/><path class="cls-28" d="M167.66,277.19l-.09,0h0l.08,0Z"/><path class="cls-28" d="M165.11,278,165,278a3.52,3.52,0,0,1,.16,1,.11.11,0,0,1,0,.08s0,.06,0,.09a.76.76,0,0,1,0,.15v.06h0s0,0,0,0l0-.06,0,.06a.19.19,0,0,0,0,.08.8.8,0,0,1,0,.15l0-.15v-.12a2,2,0,0,1-.07.35v.08a.62.62,0,0,1-.1.2l0,.06h0v0l-.15.22a.49.49,0,0,1-.1.15l0,0-.06.09.12-.07c.06,0,.07-.13.14-.16s-.08.13-.14.16l-.12.07a1,1,0,0,1-.24.14.5.5,0,0,1,.24-.14l.06-.09,0,0a.49.49,0,0,0,.1-.15,1.46,1.46,0,0,1-.39.35,3.06,3.06,0,0,1-1.64.32,10.81,10.81,0,0,0-1.77.14,5.93,5.93,0,0,0-1.88.61,5,5,0,0,0-2.14,3.05,7.19,7.19,0,0,0-.23,1.89c.05.64.27.31.28.28.2-.38.08-.69.29-1.44-.13.52-.08-.41.17-.86a6,6,0,0,1,1.31-2.12,4.92,4.92,0,0,1,.55-.41,8.2,8.2,0,0,1,3.89-.79,2.41,2.41,0,0,0,1.1-.33,2,2,0,0,0,.62-.46,1.55,1.55,0,0,0,.35-.84,1.92,1.92,0,0,1-.34.82c-.15.18.07-.17.11-.31s.11-.13.12-.2a1.35,1.35,0,0,0,.08-.4c0-.07.05-.05.05-.09,0-.2-.05-.35,0-.48v-.26a.92.92,0,0,0,0-.16l0-.1a.11.11,0,0,1,0,.05l0-.17,0,.17a.11.11,0,0,0,0-.05,2.3,2.3,0,0,0-.14-.4,1.12,1.12,0,0,1,.22-.1h0L165,278a.51.51,0,0,1,0,.13c0-.06,0-.05,0,0v.05L165,278a.43.43,0,0,1,.17,0l.07,0s.05,0,.06,0l.09,0Z"/><path class="cls-28" d="M165.11,279.45v-.07c0,.1,0,.19-.06.29A.45.45,0,0,0,165.11,279.45Z"/></g><g class="cls-27"><path class="cls-28" d="M174.74,267.21l0-.1v.06Z"/><polygon class="cls-28" points="174.66 267.03 174.65 267.01 174.64 267 174.66 267.03"/><path class="cls-28" d="M174.57,266.87l0,.08A.2.2,0,0,0,174.57,266.87Z"/><path class="cls-28" d="M174.62,267s0,0,0,0h0l0-.05A.13.13,0,0,1,174.62,267Z"/><path class="cls-28" d="M174.62,267v0Z"/><path class="cls-28" d="M174.45,267s0,0,0-.06a1.07,1.07,0,0,1-.13-.19s0-.1,0-.13-.19-.22-.14-.11l.23.41a4,4,0,0,1,.23.34.42.42,0,0,0,0,.1l0-.14C174.6,267.18,174.51,267.13,174.45,267Z"/><path class="cls-28" d="M175,267.91l0-.05a.47.47,0,0,0-.09-.22v0s0,0,0,0a.84.84,0,0,0,.08.27A.05.05,0,0,0,175,267.91Z"/><path class="cls-28" d="M175,268l0-.05h0l0,.05Z"/><path class="cls-28" d="M174.37,266.56c-.1-.22-.22-.4-.31-.6,0,0,0,0,0,0s0,0,0-.06l0-.08,0,0h0s0,0,0,0v0a.07.07,0,0,0,0,0,.35.35,0,0,1,0-.08.35.35,0,0,1,0,.08l0,0h0l-.11-.19,0,0a.23.23,0,0,1-.06-.12l0,0h0l-.09-.14-.09-.07v0l-.06,0,0,.08c0,.05.09,0,.08.1s-.08-.05-.08-.1l0-.08a.46.46,0,0,1-.09-.15.2.2,0,0,1,.09.15l.06,0v0l.09.07-.19-.26a9.42,9.42,0,0,0-1.48-1.48,8.63,8.63,0,0,1-.78-.83A8.52,8.52,0,0,1,170,261a9.54,9.54,0,0,0-.58-.92c-.26-.27-.34,0-.34,0,0,.28.15.38.32.83-.13-.3.22.14.3.45.09.47.59.89.92,1.33a2.89,2.89,0,0,0,.3.33,22.06,22.06,0,0,0,1.83,1.67c.16.15.31.27.46.39s.16.24.23.33.2.26.3.37l-.28-.37c-.08-.09.1,0,.15.09s0,.1,0,.12l.16.17s0,.05,0,.06.16.13.18.2l.06.14,0,.08,0,0s0,0,0,0l0,.09,0-.09s0,0,0,0a3.48,3.48,0,0,1,.28.39h0a1.07,1.07,0,0,1-.09-.27s0,0,0,0v-.05a.34.34,0,0,1,.1.22l0,0s0,0,0,.05l0,0A.57.57,0,0,0,174.37,266.56Z"/><path class="cls-28" d="M173.91,265.72l0,0-.1-.16A.19.19,0,0,0,173.91,265.72Z"/></g><g class="cls-27"><path class="cls-28" d="M607.27,281.3l-.24.11.13,0A.3.3,0,0,0,607.27,281.3Z"/><path class="cls-28" d="M606.81,281.52l0,0,0,0Z"/><path class="cls-28" d="M606.4,281.73l.21-.11Z"/><path class="cls-28" d="M606.74,281.58s0,0,0,0h0l-.12.06Z"/><path class="cls-28" d="M606.74,281.58l.08,0Z"/><path class="cls-28" d="M606.7,281.78s-.05,0-.13,0a3.44,3.44,0,0,1-.56.25c-.08,0-.24,0-.32.08s-.72.32-.4.21l1.18-.44.95-.52a1.13,1.13,0,0,0,.26-.16,1.37,1.37,0,0,1-.36.19C607.15,281.49,607,281.64,606.7,281.78Z"/><path class="cls-28" d="M608.81,280.14l-.08.11a6.33,6.33,0,0,0-.46.44.25.25,0,0,0,.09,0c.09-.09.09-.11,0,0a6.2,6.2,0,0,0,.52-.5S608.86,280.1,608.81,280.14Z"/><path class="cls-28" d="M609,280l-.1.11h0l.1-.1Z"/><path class="cls-28" d="M605.49,282.09a17.06,17.06,0,0,1-1.7.44l-.13,0h-.13l-.25,0-.08,0h0s0,0,0,0h-.13l-.23,0,.23,0,.14,0h0l-.56.07-.12,0a1.7,1.7,0,0,1-.35,0h-.12l-.43,0-.27.05-.1,0-.16,0,.22,0c.09,0,.21-.06.32,0-.11,0-.23,0-.32,0l-.22,0a2.26,2.26,0,0,1-.45,0,1.35,1.35,0,0,1,.45,0l.16,0,.1,0,.27-.05-.84.05a26.36,26.36,0,0,1-5.43-.41,21.21,21.21,0,0,1-2.9-.77,18.78,18.78,0,0,1-5.1-2.41c-.3-.22-.75-.51-1.19-.8l-1.11-.88c-.81-.55-.56-.08-.53,0a10.38,10.38,0,0,0,1.72,1.55c-.67-.5.58.24,1.19.78a9.52,9.52,0,0,0,1.73,1c.66.31,1.4.55,2,.85l1.11.36a23.63,23.63,0,0,0,6.46,1.1c.62,0,1.16,0,1.67-.06l1.09-.06a6.81,6.81,0,0,0,1.28-.18,9.43,9.43,0,0,1-1.25.17c-.33,0,.22-.08.44-.11s.24,0,.33,0,.39-.08.6-.13.09,0,.13,0c.3-.05.51-.14.7-.16l.4-.08.24-.05.15,0a.15.15,0,0,1-.08,0l.26-.05-.26.05a.15.15,0,0,0,.08,0,10,10,0,0,0,1.19-.42h0a3.33,3.33,0,0,1-.7.21c.11,0,.1,0,0,0H605c.21-.05.4-.15.61-.18l.13-.06a.09.09,0,0,1,.08,0l.14-.05C605.8,282,605.49,282.09,605.49,282.09Z"/><path class="cls-28" d="M603.05,282.65l.12,0-.47.07A1.63,1.63,0,0,0,603.05,282.65Z"/></g><g class="cls-27"><path class="cls-28" d="M179.59,269.62v-.23A1.4,1.4,0,0,0,179.59,269.62Z"/><path class="cls-28" d="M179.57,268.74v0Z"/><path class="cls-28" d="M179.46,267.94l.07.4C179.51,268.23,179.49,268.1,179.46,267.94Z"/><path class="cls-28" d="M179.54,268.57c0-.05,0-.07,0,0h0a2.24,2.24,0,0,0,0-.24A.94.94,0,0,1,179.54,268.57Z"/><path class="cls-28" d="M179.54,268.57v0Z"/><path class="cls-28" d="M179.35,268.39c0-.08,0-.06,0-.22l-.2-1c-.06-.14-.08-.4-.14-.54s-.16-.49-.25-.69-.15-.27,0,0a10.43,10.43,0,0,1,.55,2.05,9.74,9.74,0,0,1,.19,1.81,2.74,2.74,0,0,1,0,.5,2.94,2.94,0,0,0,.05-.68A11.18,11.18,0,0,0,179.35,268.39Z"/><path class="cls-28" d="M179.05,273l0-.24a7.62,7.62,0,0,0,.27-1.07l-.06.15c-.05.21,0,.24,0,.06-.13.41-.23.81-.32,1.22C179,273.06,179,273.07,179.05,273Z"/><path class="cls-28" d="M178.93,273.32l.06-.24h0l0,.24Z"/><path class="cls-28" d="M179,266.3a18.45,18.45,0,0,0-1.19-2.78,1.76,1.76,0,0,1-.12-.2l-.09-.21-.2-.38-.08-.13h0c0-.07,0,0,0,0l.06.14-.06-.14-.09-.21L177,262c.08.13.15.25.2.35l.11.21,0,.06-.45-.86-.1-.18a4.77,4.77,0,0,1-.28-.54l-.07-.16v0l0-.06-.31-.66-.24-.42a1.66,1.66,0,0,1,0-.16,1.84,1.84,0,0,1-.13-.25l.11.36c0,.16.2.31.25.5-.05-.19-.2-.34-.25-.5l-.11-.36a5.13,5.13,0,0,1-.28-.72,3.75,3.75,0,0,1,.28.72,1.84,1.84,0,0,0,.13.25,1.66,1.66,0,0,0,0,.16l.24.42c-.22-.43-.4-.88-.59-1.33-.33-.73-.53-1.48-.79-2.21a22.21,22.21,0,0,1-.49-2.26,16,16,0,0,1-.26-2.31l-.06-1.19c0-.45,0-1,0-1.52l0-1.12,0-.57v-.13h0l0,0c-.14.45-.26.95-.42,1.38l-.53,1.29-.49.69c-.18.21-.38.41-.57.61-1.22,1.12-2.65,1.89-3.95,2.87a17.45,17.45,0,0,0-3.59,3.45,18.29,18.29,0,0,0-2.43,4.43c-.57,1.6,0,.85,0,.79a9.39,9.39,0,0,0,.7-1.42,17.77,17.77,0,0,1,1.14-2.07c-.4.59-.29.36,0-.17l.59-.92c.25-.31.51-.63.74-.87a24.31,24.31,0,0,1,2.45-2.32,34.47,34.47,0,0,1,3.05-2.18,11.1,11.1,0,0,0,1.57-1.26c.21-.22.44-.44.63-.68l.52-.74.1-.21v.61l.06,1a16.09,16.09,0,0,0,.18,1.94,17.62,17.62,0,0,0,.37,2,18.74,18.74,0,0,0,.9,2.74c.27.59.5,1.25.74,1.72.36.74.7,1.37,1.05,1.95-.37-.66-.64-1.15-1-1.91-.25-.51.23.33.41.66.08.14.15.39.23.52.17.31.33.58.52.9.09.14,0,.15.08.22.25.44.48.76.63,1.05l.28.62.18.38.13.24a1,1,0,0,1,0-.14c.06.12.12.31.17.43-.05-.12-.11-.31-.17-.43a1,1,0,0,0,0,.14,13.12,13.12,0,0,1,.8,2h0c-.14-.4-.22-.8-.38-1.21.07.18,0,.16,0,0l0-.17a3.78,3.78,0,0,1,.36,1l.09.23a.23.23,0,0,1,0,.14l.07.23C179.15,266.84,179,266.3,179,266.3Z"/><path class="cls-28" d="M177.22,262.38l.1.18-.38-.72A4.77,4.77,0,0,0,177.22,262.38Z"/></g></g></svg>