<svg xmlns="http://www.w3.org/2000/svg" viewBox="0 0 768 768"><metadata><?xpacket begin="﻿" id="W5M0MpCehiHzreSzNTczkc9d"?>
<x:xmpmeta xmlns:x="adobe:ns:meta/" x:xmptk="Adobe XMP Core 6.0-c002 79.164488, 2020/07/10-22:06:53        ">
   <rdf:RDF xmlns:rdf="http://www.w3.org/1999/02/22-rdf-syntax-ns#">
      <rdf:Description rdf:about=""
            xmlns:dc="http://purl.org/dc/elements/1.1/"
            xmlns:photoshop="http://ns.adobe.com/photoshop/1.0/"
            xmlns:xmpRights="http://ns.adobe.com/xap/1.0/rights/"
            xmlns:xmp="http://ns.adobe.com/xap/1.0/"
            xmlns:xmpMM="http://ns.adobe.com/xap/1.0/mm/"
            xmlns:stEvt="http://ns.adobe.com/xap/1.0/sType/ResourceEvent#">
         <dc:creator>
            <rdf:Seq>
               <rdf:li>orsolya veres</rdf:li>
            </rdf:Seq>
         </dc:creator>
         <dc:rights>
            <rdf:Alt>
               <rdf:li xml:lang="x-default">orsolya veres / www.fitmithanno.fun</rdf:li>
            </rdf:Alt>
         </dc:rights>
         <photoshop:Country>austria</photoshop:Country>
         <xmpRights:WebStatement>www.fitmithanno.fun</xmpRights:WebStatement>
         <xmp:MetadataDate>2021-01-31T20:34:35+01:00</xmp:MetadataDate>
         <xmpMM:InstanceID>xmp.iid:70832761-06d0-4906-802c-bdbdaaf4b21a</xmpMM:InstanceID>
         <xmpMM:DocumentID>xmp.did:70832761-06d0-4906-802c-bdbdaaf4b21a</xmpMM:DocumentID>
         <xmpMM:OriginalDocumentID>xmp.did:70832761-06d0-4906-802c-bdbdaaf4b21a</xmpMM:OriginalDocumentID>
         <xmpMM:History>
            <rdf:Seq>
               <rdf:li>
                  <rdf:Description>
                     <stEvt:action>saved</stEvt:action>
                     <stEvt:instanceID>xmp.iid:70832761-06d0-4906-802c-bdbdaaf4b21a</stEvt:instanceID>
                     <stEvt:when>2021-01-31T20:34:35+01:00</stEvt:when>
                     <stEvt:softwareAgent>Adobe Bridge 2021 (Macintosh)</stEvt:softwareAgent>
                     <stEvt:changed>/metadata</stEvt:changed>
                  </rdf:Description>
               </rdf:li>
            </rdf:Seq>
         </xmpMM:History>
      </rdf:Description>
   </rdf:RDF>
</x:xmpmeta>
                                                                                                    
                                                                                                    
                                                                                                    
                                                                                                    
                                                                                                    
                                                                                                    
                                                                                                    
                                                                                                    
                                                                                                    
                                                                                                    
                                                                                                    
                                                                                                    
                                                                                                    
                                                                                                    
                                                                                                    
                                                                                                    
                                                                                                    
                                                                                                    
                                                                                                    
                                                                                                    
                           
<?xpacket end="w"?></metadata>
<defs><style>.cls-1{fill:#e3f2eb;}.cls-2{fill:#e4c4af;}.cls-3{fill:#fee9d6;}.cls-4{fill:none;}.cls-5{fill:#f0d967;}.cls-6{fill:#ffe354;}.cls-7{fill:#5f7e3a;}.cls-8{fill:#928f00;}.cls-9{fill:#896e59;}.cls-10{fill:#b48559;}.cls-11{fill:#c4e4cd;}.cls-12{fill:#ef5160;}.cls-13{opacity:0.85;}.cls-14{fill:#202020;}</style></defs><g id="fill_color" data-name="fill color"><path class="cls-1" d="M405,348.72c-5.39,35.46-24,47.42-49.37,57.1a96.2,96.2,0,0,1-24.31-6.5l-.28-.12h0c-7.45-26.54-9.4-63.07.74-94.94,2.13-1,4.17-3.2,6-6l.11-.17a45.38,45.38,0,0,0,5.77-13.55c.4-1.55.72-3.08,1-4.58v0a32.89,32.89,0,0,0,.43-10.63,24.23,24.23,0,0,0,4.53-3.79c1.17,47.46,30.33,40.52,27.26-1.64a20.11,20.11,0,0,0,4.77,3.2c-1.25,8.74,4.36,25.47,11.28,32.17l.38.36.38.33a12.87,12.87,0,0,0,1.15.87,7.2,7.2,0,0,0,3.52,1.31A311.13,311.13,0,0,1,405,348.72Z"/><path class="cls-2" d="M370,252.41A41.83,41.83,0,0,0,357,249.19a38.84,38.84,0,0,0,.39-4.84,40.41,40.41,0,0,0,11.35-.61A37.07,37.07,0,0,0,370,252.41Z"/><path class="cls-3" d="M349.54,265.48A29.51,29.51,0,0,0,357,249.19,41.83,41.83,0,0,1,370,252.41a23.78,23.78,0,0,0,6.78,11.43C379.87,306,350.71,312.94,349.54,265.48Z"/><path class="cls-4" d="M148.81,264.52l-.31,0"/><path class="cls-5" d="M370.14,452.62c-2.72.93-5,1.59-6.83,2,0-.41-.05-.82-.08-1.23-.08-1.34-.13-2.69-.14-4l.68-.17c.41-.1.84-.22,1.3-.35h0l.54-.16,1.32-.39,1.84-.58,1.07-.35C370,449.12,370.05,450.86,370.14,452.62Z"/><path class="cls-6" d="M363.31,454.66c-11.41,2.75-9.05-2.5-19.34-4.73a12.4,12.4,0,0,1-2.84-1.3,13.14,13.14,0,0,1-6.3-11.29A182.83,182.83,0,0,0,331,399.2l.28.12c.95.42,1.93.82,2.92,1.19,1.62,9.19,3.37,21.66,3.3,32.91-.19,7.37,6,11.37,12.51,13,4.73,1.78,5.07,3.87,9,3.68l.42,0a4.45,4.45,0,0,0,.5,0l.53-.07.75-.12.44-.09.66-.14h0l.69-.16c0,1.34.06,2.69.14,4C363.26,453.84,363.28,454.25,363.31,454.66Z"/><path class="cls-4" d="M370.39,452.54l-.25.08c-.09-1.76-.19-3.5-.28-5.22l.11,0c.06.71.13,1.43.19,2.17C370.24,450.51,370.32,451.51,370.39,452.54Z"/><path class="cls-4" d="M370.5,452.5l-.11,0"/><path class="cls-7" d="M403.21,396.91c-.5,11.4-1,25.41-.69,33.5,0,.15,0,.31,0,.46s0,.45,0,.67a1.66,1.66,0,0,1,0,.32.11.11,0,0,1,0,.08c0,.14,0,.28,0,.42a.13.13,0,0,1,0,.06,1.88,1.88,0,0,1-.05.33.09.09,0,0,1,0,.07,4.89,4.89,0,0,1-.09.53c0,.19-.08.38-.13.57s-.1.41-.17.61a.89.89,0,0,1-.06.2,2.3,2.3,0,0,1-.12.34.17.17,0,0,1,0,.11,4.45,4.45,0,0,1-.19.51c-.1.25-.21.5-.33.74s-.24.48-.38.71-.21.37-.33.55-.14.22-.22.33c-.19.28-.39.55-.61.82l-.22.27c-.18.21-.35.41-.54.6s-.25.26-.38.38-.31.29-.47.43-.32.28-.49.41a13.58,13.58,0,0,1-1.16.83c1.5-15.4,2.72-30.45,3-42.42a37.4,37.4,0,0,0,6.34-4.61C405,395.49,404.11,396.22,403.21,396.91Z"/><path class="cls-8" d="M399.44,399.34c-.28,12-1.5,27-3,42.42l-.05,0c-.24.15-.48.3-.74.43l0,0c-.24.13-.49.26-.75.38s-.6.27-.91.39l-.31.11-.79.26q-.3.09-.6.15a.47.47,0,0,1-.17,0,1.05,1.05,0,0,1-.24.06h-.07l-.78.15h0c-.34.06-.68.09-1,.12s-.69,0-1,0c-2.06,0-14.19.13-19.19.74-.35-3.45-.75-6.53-1.21-9.2l-2-11-1.9,9.3a74.4,74.4,0,0,0-1.51,15.6l-.69.16h0l-.66.14-.44.09-.75.12L360,450a4.45,4.45,0,0,1-.5,0l-.42,0c-4,.19-4.31-1.9-9-3.68-6.49-1.59-12.7-5.59-12.51-13,.07-11.25-1.68-23.72-3.3-32.91-1-.37-2-.77-2.92-1.19a96.2,96.2,0,0,0,24.31,6.5C371.31,407.92,387.58,406.28,399.44,399.34Z"/><path class="cls-5" d="M404.66,434a14,14,0,0,1-4.26,10.62,8.21,8.21,0,0,1-.6.58l-.16.14a6.41,6.41,0,0,1-.58.45,8.61,8.61,0,0,1-1,.65,4.75,4.75,0,0,1-.59.31c-.29.14-.58.27-.89.39s-.4.15-.6.22l-.05,0c.18-1.87.37-3.74.55-5.61a13.58,13.58,0,0,0,1.16-.83c.17-.13.33-.27.49-.41s.32-.28.47-.43.26-.25.38-.38.36-.39.54-.6a2.61,2.61,0,0,0,.22-.27c.22-.27.42-.54.61-.82.08-.11.15-.22.22-.33s.23-.37.33-.55.26-.47.38-.71.23-.49.33-.74a4.45,4.45,0,0,0,.19-.51.17.17,0,0,0,0-.11,2.3,2.3,0,0,0,.12-.34.89.89,0,0,0,.06-.2c.07-.2.12-.41.17-.61s.09-.38.13-.57a4.89,4.89,0,0,0,.09-.53.09.09,0,0,0,0-.07,1.88,1.88,0,0,0,.05-.33.13.13,0,0,0,0-.06c0-.14,0-.28,0-.42a.11.11,0,0,0,0-.08,1.66,1.66,0,0,0,0-.32c0-.22,0-.45,0-.67s0-.31,0-.46c-.32-8.09.19-22.1.69-33.5.9-.69,1.76-1.42,2.57-2.18C405.23,408.68,404.24,422.76,404.66,434Z"/><path class="cls-6" d="M396.44,441.76c-.18,1.87-.37,3.74-.55,5.61l-.06,0a5.58,5.58,0,0,1-.58.18l-.91.25-.88.2-.91.16-.3.05-.18,0-.83.11-.66.07-.21,0c-.24,0-.49.05-.74.06l-.43,0-.33,0c-6.38.36-13.53-.44-18.37.94l-.34,0c-.06-.74-.13-1.46-.19-2.17l-.11,0-.15-2.7c5-.61,17.13-.72,19.19-.74.35,0,.7,0,1,0s.68-.06,1-.12h0l.78-.15h.07a1.05,1.05,0,0,0,.24-.06.47.47,0,0,0,.17,0c.21,0,.41-.1.6-.15l.79-.26L394,443c.31-.12.61-.25.91-.39s.51-.24.75-.38l0,0c.26-.13.5-.28.74-.43Z"/><path class="cls-2" d="M391,612c1.2,8.41,11.5,26.51,8.5,31.51a17.63,17.63,0,0,1-2.43,3.24c.39-10.57-7.15-26.85-8.57-34.24a79.82,79.82,0,0,1-1.3-12.18c-.87-23.75,6.16-51.88,2.3-80.82-1-7.59,3.12-39.9,6.39-72.13l.05,0a5.31,5.31,0,0,0,.6-.22c.31-.12.6-.25.89-.39a4.75,4.75,0,0,0,.59-.31,8.61,8.61,0,0,0,1-.65,6.41,6.41,0,0,0,.58-.45l.16-.14a8.21,8.21,0,0,0,.6-.58c-2.92,30.4-10.52,59.71-8.9,71.89C396,550.56,389.5,601.5,391,612Z"/><path class="cls-3" d="M397.07,646.74c-2.3,2.43-4.89,3.55-8.57,5.76l-10.05.25c-.4-16.16-.9-32.64-1.47-49.16h0c0-1-.07-1.94-.1-2.91-1.84-52.37-4.38-104.89-6.74-148l.25-.08c-.07-1-.15-2-.23-3l.34,0c4.84-1.38,12-.58,18.37-.94l.33,0,.43,0c.25,0,.5,0,.74-.06l.21,0,.66-.07.83-.11.18,0,.3-.05.91-.16.88-.2.91-.25a5.58,5.58,0,0,0,.58-.18l.06,0c-3.27,32.23-7.4,64.54-6.39,72.13,3.86,28.94-3.17,57.07-2.3,80.82a79.82,79.82,0,0,0,1.3,12.18C389.92,619.89,397.46,636.17,397.07,646.74Z"/><path class="cls-2" d="M371,654.9c.5-14.39,3.54-28.47,3.54-43.19,0-1.07,0-2.14-.05-3.21-1.7-53.49-8.29-108.16-11.19-153.84,1.87-.45,4.11-1.11,6.83-2,2.36,43.16,4.9,95.68,6.74,148,0,1,.07,1.94.1,2.91h0c.57,16.52,1.07,33,1.47,49.16,0,.62,0,1.24.05,1.86Z"/><path class="cls-3" d="M374.55,611.71c0,14.72-3,28.8-3.54,43.19l-1.17.05c-6.77-5.46-13.34-5.64-13.34-11.45,0-11,10-20.88,10-38,0-.5,0-1,0-1.55-.83-18.72-15.85-58.26-12-86.45,1.46-10.61-8.15-33.28-13.37-68.87a12.4,12.4,0,0,0,2.84,1.3c10.29,2.23,7.93,7.48,19.34,4.73,2.9,45.68,9.49,100.35,11.19,153.84C374.53,609.57,374.55,610.64,374.55,611.71Z"/><path class="cls-4" d="M370.5,655.5l-.66-.55"/><path class="cls-4" d="M330.11,225.58l-.22.16"/><path class="cls-3" d="M399.15,205.43a10.52,10.52,0,0,1-2.72-.17h0c0,.73.07,1.48.08,2.24a43,43,0,0,1-2.31,14.26c2.9,3,4.2,5.85,8.31,1.74,5-5,2-12,9-22C405,202.25,403.05,205.11,399.15,205.43Zm5.65,5.29c-3,1.11-4.24,4.15-7.05,7.43.82-4.07,2.17-7.54,6.53-10.2a3.46,3.46,0,0,1,.52,2.76Z"/><path class="cls-4" d="M394.19,221.76l0,0"/><path class="cls-4" d="M327.19,194.2l0,0"/><path class="cls-4" d="M142.5,264.5a2.52,2.52,0,0,0-.24-.37"/><path class="cls-9" d="M351.81,171.73l-2.56.87-.76.25c-.27.08-.53.17-.79.27h0l-.36.13a32.37,32.37,0,0,0-18.66,17.42,29.56,29.56,0,0,0-1.48,3.53,31.09,31.09,0,0,0-1.7,13.16h0a28.54,28.54,0,0,0-3.32,1c-4.46-15.6-1.76-32.28,21.8-44.25A12.1,12.1,0,0,0,351.81,171.73Z"/><path class="cls-10" d="M369.5,151.5a16.88,16.88,0,0,0-.83,2.8,1.7,1.7,0,0,0,0,.22c-3.16,7.62-13,14.19-12.13,2,5.5,6.5,11.32-1.38,9-7-3.24-7.88-6.92,1.85-19.38,6.5,3.52-5.54,10.1-10.76,13.65-11.42C365.5,143.5,370.69,145.54,369.5,151.5Z"/><path class="cls-10" d="M356.46,171.13c-.31,0-.61.06-.92.11l-.91.12q-.61.09-1.23.21c-.47.09-.93.18-1.4.29s-.7.16-1,.26-.46.11-.69.18l-1,.3,2.56-.87a12.1,12.1,0,0,1-7.86-7.6,5.52,5.52,0,0,1-.17-1.22C346.35,165.58,350.15,168.32,356.46,171.13Z"/><path class="cls-9" d="M399.15,205.42h0a10.52,10.52,0,0,1-2.72-.17h0a42.75,42.75,0,0,0-.87-6.52,37,37,0,0,0-2.59-7.88c-.27-.58-.55-1.15-.85-1.7-.12-.24-.25-.48-.38-.71a32.59,32.59,0,0,0-2.92-4.37c-.53-.67-1.09-1.32-1.66-1.94h0c-.29-.31-.58-.62-.88-.91A34.23,34.23,0,0,0,375.6,174c-.52-.23-1-.44-1.57-.63s-.95-.36-1.43-.52c-.77-.26-1.56-.49-2.34-.69l-1.22-.31-1.18-.24-.93-.17h0l-.15,0-.69-.1-.41-.06h0l-.16,0-.34-.05-.2,0-.71-.08c-.59-.06-1.18-.1-1.78-.13h-.05c-.76,0-1.52-.05-2.28,0h-.53a.33.33,0,0,0-.14,0l-.58,0-.57,0-.83.06c-.34,0-.67.05-1,.09-6.31-2.81-10.11-5.55-12.68-8.22h0a12.59,12.59,0,0,1,2.34-6.9c12.46-4.65,16.14-14.38,19.38-6.5,2.32,5.62-3.5,13.5-9,7-.86,12.21,9,5.64,12.13-2-1.93,10.11,10,11,15.87,14,5.57,3.19,10,6.39,13.11,9.85C404.17,185.59,405.07,193.92,399.15,205.42Z"/><path class="cls-4" d="M137.18,259.72l0,.1c-.11.44-.23.86-.37,1.29l-.34-.33c-.71-.69-1.41-1.35-2.07-1.94h0s-.05,0-.08-.06l-.06-.06h0l-.17-.16A7.25,7.25,0,0,1,137.18,259.72Z"/><path class="cls-6" d="M126.72,281c-41.14,26.09-70.87-46-19.87-54.79.18,2,.37,3.87.56,5.45-38.61,6.77-17.22,62.76,14.7,44.79a36.07,36.07,0,0,0,3.64,3.75l.2.17C126.22,280.58,126.48,280.79,126.72,281Z"/><path class="cls-6" d="M143.76,256.53a9.84,9.84,0,0,0-4-2.7.19.19,0,0,0-.08,0,11.05,11.05,0,0,0-2.14-.82,25.09,25.09,0,0,0-19.37-21.42c-.07-.38-.13-.75-.18-1.12-.23-1.55-.46-3.09-.68-4.61C128.33,226.87,144.09,238.92,143.76,256.53Z"/><path class="cls-6" d="M137.54,272.11c-.24.29-.48.57-.73.85-.48-.52-1-1.08-1.48-1.66l-.51-.58-1-1.21-.53-.61-.53-.61a5.71,5.71,0,0,0,.38-.48,40.43,40.43,0,0,0,4.34,4.18h0Z"/><path class="cls-6" d="M132.88,276.73c-.38.32-.77.63-1.17.94-1.28-1.47-2.61-3.14-4-4.68h0l.27-.21a22.64,22.64,0,0,0,2.87,2.57l0,0A10.16,10.16,0,0,0,132.88,276.73Z"/><path class="cls-4" d="M137.43,272a40.43,40.43,0,0,1-4.34-4.18,5.71,5.71,0,0,1-.38.48l-.44-.5-.59-.66-.59-.66-.06-.07-.27-.29-.07-.08-.06-.06s0,0,0,0h0l-.18-.19-.08-.09c-.18-.2-.36-.4-.55-.59l-.7-.71-.2-.2-.23-.22,0,0a0,0,0,0,0,0,0h0l0-.05,0,0,0,0-.12-.12-.17-.16-.39-.36-.13-.12-.18-.16-.05,0a2.32,2.32,0,0,0-.25-.21l-.07-.06,0,0h0l0,0h0l-.22-.18a4.29,4.29,0,0,0-.45-.33l-.34-.23a1.59,1.59,0,0,0-.29-.15l-.16-.06-.12,0a.9.9,0,0,0-.22-.06l-.09,0-.13,0-.13,0h-.63l-.26,0H124l-.14,0h-.07l-.11,0h0l-.12,0-.15.05h0l-.31.11h0l-.27.13h0l-.06,0-.08,0h0l-.21.13a4.27,4.27,0,0,0-.41.29l-.07.07a.27.27,0,0,0-.08.07l-.06.06-.1.1a2.09,2.09,0,0,0-.14.17.88.88,0,0,0-.12.17h0a.6.6,0,0,0-.06.11s0,0,0,0a1.15,1.15,0,0,0-.1.23.11.11,0,0,0,0,.08.06.06,0,0,0,0,0s0,0,0,0a.06.06,0,0,0,0,0v0l0,.15a2.28,2.28,0,0,0,0,.26,1.83,1.83,0,0,0,.38,1.1c.53.74,1.67,2.15,3.05,3.74l0,.06.06.07h0l0,0,0,0v0l0,0h0l0,0,0,0v0h0l.08.09.77.87.14.15h0l0,0,.17.2a.12.12,0,0,1,0,.05l0,0,0,0,.08.1,0,0,0,0,0,0,0,.05,0,0,.13.14.16.17h0l0,0,0,.05.06.06.11.12.2.21s0,.05.05.06h0a0,0,0,0,0,0,0h0l0,0,0,0,0,0,.22.24a4.89,4.89,0,0,0,.39.4l0,0,0,0,0,0,0,0,0,0,.1.11c1,1,1.93,1.91,2.79,2.63a22.64,22.64,0,0,1-2.87-2.57l-.27.21-.1-.1a.28.28,0,0,0-.09-.1l-.16-.18a.52.52,0,0,0-.1-.11l-.62-.68-.08-.09h0v0l-.13-.13-.13-.14-.24-.24c-.27-.27-.54-.54-.8-.77l0,0-.14-.13h0l-.14-.12,0-.05h0l0,0-.22-.19-.07-.07h0l-.1-.1-.09-.08,0,0a1,1,0,0,0-.18-.13l-.17-.13h0l-.14-.11h0a2.43,2.43,0,0,0-.35-.24l-.07-.05h0l-.08-.05a3,3,0,0,0-1.59-.39l-.31,0-.31.05-.24,0-.26.07-.15,0-.25.1a3.33,3.33,0,0,0-.5.25l0,0a2.31,2.31,0,0,0-.36.25l-.08.07a1.37,1.37,0,0,0-.22.2l0,0,0,0-.14.15a2.08,2.08,0,0,0-.29.46,0,0,0,0,1,0,0,1.06,1.06,0,0,0-.09.25.86.86,0,0,0-.06.23,1.84,1.84,0,0,0,.36,1.37l.24.32c.42.58,1,1.36,1.72,2.21l.36.44q.14.18.3.36t.54.63a48.41,48.41,0,0,0,3.89,4.07,36.07,36.07,0,0,1-3.64-3.75c-31.92,18-53.31-38-14.7-44.79-.19-1.58-.38-3.41-.56-5.45a1.91,1.91,0,0,1,.33-.06l.4-.07.27,0h0c.12,1.5.34,3.66.55,5.46l0,.22q0,.25.06.48c0,.29.07.55.11.78a3.69,3.69,0,0,0,0,.37,9,9,0,0,0,.26,1.41l2.33.19,2.35-.67,3.2-.27c4,0,1.62-.63,1.62-.63-.1-.6-.19-1.19-.28-1.78A25.09,25.09,0,0,1,137.54,253a11.05,11.05,0,0,1,2.14.82,16.91,16.91,0,0,0-6.72-1.35h-.05a4.45,4.45,0,0,0-3.35,1.33h0l-.06.06h0l0,0h0s0,0,0,0a.57.57,0,0,0-.08.13.21.21,0,0,0,0,.06.43.43,0,0,0,0,.07,0,0,0,0,0,0,0,.2.2,0,0,0,0,.08.3.3,0,0,0,0,.1,1.86,1.86,0,0,0-.1.25,3.35,3.35,0,0,0-.13,1.13,6.35,6.35,0,0,0-1.69.37l-.19.07-.09,0,0,0a1.93,1.93,0,0,0-1,1.05v0h0l0,0v0c-.29.91.15,2.11,1,3.44v0l0,.05v0a.35.35,0,0,0,0,.08s0,0,0,0a44.42,44.42,0,0,0,5.89,6.52l.24.23C134.94,269.55,136.62,271.07,137.43,272Z"/><path class="cls-3" d="M132.82,282.05a9.42,9.42,0,0,1-4.61-.19,11.33,11.33,0,0,1-2.26-1.52l-.2-.17a48.41,48.41,0,0,1-3.89-4.07q-.28-.32-.54-.63t-.3-.36l-.36-.44c-.64-.81-1.22-1.57-1.72-2.21l-.24-.32a1.84,1.84,0,0,1-.36-1.37.86.86,0,0,1,.06-.23,1.06,1.06,0,0,1,.09-.25,0,0,0,0,0,0,0,2.08,2.08,0,0,1,.29-.46l.14-.15,0,0,0,0a1.37,1.37,0,0,1,.22-.2l.08-.07a2.31,2.31,0,0,1,.36-.25l0,0a3.33,3.33,0,0,1,.5-.25l.25-.1.15,0,.26-.07.24,0,.31-.05.31,0A152.7,152.7,0,0,0,132.82,282.05Z"/><path class="cls-4" d="M125.75,280.17a36.07,36.07,0,0,1-3.64-3.75c-.28-.32-.54-.64-.79-.95q.25.31.54.63A48.41,48.41,0,0,0,125.75,280.17Z"/><path class="cls-4" d="M126.67,271.81l-.09-.09h0Z"/><path class="cls-4" d="M127.74,273h0l-.09-.11Z"/><path class="cls-2" d="M138.63,276.54a.41.41,0,0,1-.11.07.83.83,0,0,1-.16.09,3.91,3.91,0,0,1-.58.21c-4.9-4.38-10.44-11.13-14.27-15.39l.12,0h0l.11,0h.07l.14,0H124l.34,0h.55l.13,0,.13,0,.09,0a.79.79,0,0,1,.22.06l.12,0,.16.06a1.59,1.59,0,0,1,.29.15l.34.23a4.29,4.29,0,0,1,.45.33l.23.19,0,0h0l0,0,.07.06a2.32,2.32,0,0,1,.25.21l.05,0,.18.16.13.12.39.36.17.16.12.12h0l0,0,0,.05h0a0,0,0,0,1,0,0l0,0,.23.22.2.2.7.71c.19.19.37.39.55.59l.08.09.18.19,0,0,.06.06.07.08.27.29.06.07.59.66.59.66.44.5.53.61.53.61,1,1.21.51.58c.51.58,1,1.14,1.48,1.66l0,0c.54.6,1.07,1.15,1.55,1.63l0,0C139,275.42,139.18,276.09,138.63,276.54Z"/><path class="cls-3" d="M137.78,276.91l-.33.08h-.06l-.56.08-.27,0h-.24l-.4,0c-1.6.22-3.32-.53-5-1.78l0,0c-.86-.72-1.82-1.64-2.79-2.63h0l-.1-.1h0l0,0,0,0h0s0,0,0,0l0,0,0,0c-.13-.13-.26-.26-.38-.4l-.23-.24,0,0s0,0,0,0l0,0h0l-.11-.12-.31-.33h0l0-.05,0,0-.17-.18a1.22,1.22,0,0,1-.15-.17h0l0-.05,0,0,0,0,0,0-.09-.1,0,0,0,0s0,0,0-.05-.23-.27-.35-.39l-.77-.87-.08-.09,0,0,0,0h0s0,0,0,0v0l0,0,0,0h0l-.06-.07,0-.06c-1.26-1.57-2.32-3-3.05-3.74a1.83,1.83,0,0,1-.38-1.1,2.28,2.28,0,0,1,0-.26l0-.15v0a.06.06,0,0,1,0,0s0,0,0,0v0a.11.11,0,0,1,0-.08,1.15,1.15,0,0,1,.1-.23l0,0a.6.6,0,0,1,.06-.11h0a.88.88,0,0,1,.12-.17,2.09,2.09,0,0,1,.14-.17l.1-.1.06-.06a.27.27,0,0,1,.08-.07l.07-.07a4.27,4.27,0,0,1,.41-.29l.21-.13h0l.08,0,.06,0h0l0,0,.22-.1h0l.33-.11.15-.05C127.34,265.78,132.88,272.53,137.78,276.91Z"/><path class="cls-3" d="M123.81,261.45h0Z"/><path class="cls-3" d="M124.38,261.38l-.34,0,.26,0Z"/><path class="cls-3" d="M125.78,261.61l-.16-.06.11,0Z"/><path class="cls-4" d="M128.61,263.88h0Z"/><path class="cls-4" d="M130.88,275.34a22.64,22.64,0,0,1-2.87-2.57c-1.25-1.27-2.42-2.66-3.45-3.93l.34.39.77.87c.79.87,1.62,1.77,2.43,2.6h0C129.06,273.7,130,274.62,130.88,275.34Z"/><path class="cls-4" d="M130.62,266s0,0,0,0l0,0Z"/><path class="cls-4" d="M138.63,276.54c.55-.45.37-1.12-.21-1.89C139.32,275.51,139.23,276.13,138.63,276.54Z"/><path class="cls-3" d="M143.44,271.36a4.07,4.07,0,0,1-1.24,1.12h0a9.38,9.38,0,0,1-3.24.5,11.67,11.67,0,0,1-1.5-1h0c-.81-.92-2.49-2.44-4.32-4.19h0c-.68-.84-1.53-1.74-2.41-2.65l0,0,0,0c-1.53-1.76-2.89-3.35-3.75-4.19v0c-.86-1.33-1.3-2.53-1-3.44v0l0,0h0s0,0,0-.06,0,0,0,0a3,3,0,0,1,1.42-1c5.5,4,9.18,8.75,12.88,12.38A29.74,29.74,0,0,0,143.44,271.36Z"/><path class="cls-4" d="M125.93,257.28s0,0,0,.06v0Z"/><path class="cls-4" d="M126.87,260.86l-.06-.05h0a3.05,3.05,0,0,1-1.08-3l.06-.19a1.08,1.08,0,0,1,.08-.19C125.57,258.33,126,259.53,126.87,260.86Z"/><path class="cls-4" d="M129,255.77a8,8,0,0,0-1.58.45,3,3,0,0,0-1.42,1,2.54,2.54,0,0,1,1-1l0,0,.26-.13A3.67,3.67,0,0,1,129,255.77Z"/><path class="cls-4" d="M134.33,258.83l-1.28-.34a8.1,8.1,0,0,0,1,.06l.17.16h0l.06.06S134.31,258.81,134.33,258.83Z"/><path class="cls-4" d="M137.43,272a40.43,40.43,0,0,1-4.34-4.18l-.22-.24c-.74-.81-1.48-1.64-2.17-2.43.88.91,1.73,1.81,2.41,2.65h0C134.94,269.55,136.62,271.07,137.43,272Z"/><path class="cls-4" d="M142.59,267.47c-.34-.42-.73-.88-1.16-1.37-1.31-1.52-3-3.3-4.6-4.94a51.75,51.75,0,0,1,4.65,4.82A17.38,17.38,0,0,1,142.59,267.47Z"/><path class="cls-4" d="M143.73,270.87a1.82,1.82,0,0,1-.2.55,2.42,2.42,0,0,1-1.33,1.06,4.07,4.07,0,0,0,1.24-1.12A2.43,2.43,0,0,0,143.73,270.87Z"/><path class="cls-3" d="M148.38,263a14.48,14.48,0,0,1-5.61,4.75c0-.05-.09-.1-.13-.16l0-.07a17.38,17.38,0,0,0-1.11-1.49c.29-.61.55-1.22.78-1.85-.06-.08-.12-.17-.19-.25a12.18,12.18,0,0,0-4.34-3.78.05.05,0,0,0,0,0,6.13,6.13,0,0,0-.51-.36,7.25,7.25,0,0,0-3.14-1.17,8.1,8.1,0,0,1-1-.06H133c-2-.52-3.53-1-4-2.67a.06.06,0,0,1,0,0,3.35,3.35,0,0,1,.13-1.13,1.86,1.86,0,0,1,.1-.25,1.42,1.42,0,0,1,.08-.18,0,0,0,0,1,0,0,.43.43,0,0,1,0-.07.21.21,0,0,1,0-.06.57.57,0,0,1,.08-.13s0,0,0,0h0l0,0,.06-.06.22-.19a4.63,4.63,0,0,1,.59-.38l.15-.08.28-.13.23-.09.24-.09.06,0a8.06,8.06,0,0,1,.91-.25l.67-.11H133a16.91,16.91,0,0,1,6.72,1.35.19.19,0,0,1,.08,0A19.44,19.44,0,0,1,148.38,263Z"/><path class="cls-4" d="M129.43,253.92l0,0a3,3,0,0,0-.49,1.87,1.61,1.61,0,0,1-.05-.89.9.9,0,0,1,.08-.28,2,2,0,0,1,.1-.21.54.54,0,0,1,.1-.16.12.12,0,0,1,.05-.07A2,2,0,0,1,129.43,253.92Z"/><path class="cls-4" d="M137.69,260.08l-.54-.26a17.53,17.53,0,0,0-2.78-1h0l-1.28-.34a8.1,8.1,0,0,0,1,.06,7.25,7.25,0,0,1,3.14,1.17A6.13,6.13,0,0,1,137.69,260.08Z"/><path class="cls-4" d="M137.54,253a11.05,11.05,0,0,1,2.14.82,16.91,16.91,0,0,0-6.72-1.35l.65-.07.63,0a8.65,8.65,0,0,1,1,0l.3,0,.54.09a7.31,7.31,0,0,1,1.07.29Z"/><path class="cls-4" d="M138.63,276.54c.55-.45.37-1.12-.21-1.89C139.32,275.51,139.23,276.13,138.63,276.54Z"/><path class="cls-4" d="M142.59,267.47c-.34-.42-.73-.88-1.16-1.37a.61.61,0,0,0,0-.12A17.38,17.38,0,0,1,142.59,267.47Z"/><path class="cls-4" d="M143.73,270.87a1.82,1.82,0,0,1-.2.55,2.42,2.42,0,0,1-1.33,1.06,4.07,4.07,0,0,0,1.24-1.12A2.43,2.43,0,0,0,143.73,270.87Z"/><path class="cls-4" d="M149.5,267a14.51,14.51,0,0,0-.69-2.46H149A10.81,10.81,0,0,1,149.5,267Z"/><path class="cls-6" d="M142.26,264.13c-.23.63-.49,1.24-.78,1.85a51.75,51.75,0,0,0-4.65-4.82l-.05-.05c.14-.43.26-.85.37-1.29l.54.26a.05.05,0,0,1,0,0,27.07,27.07,0,0,1,4.34,3.78C142.14,264,142.2,264.05,142.26,264.13Z"/><path class="cls-4" d="M137.69,260.08l-.54-.26,0-.1A6.13,6.13,0,0,1,137.69,260.08Z"/><path class="cls-4" d="M141.48,266a.61.61,0,0,1,0,.12c-1.31-1.52-3-3.3-4.6-4.94A51.75,51.75,0,0,1,141.48,266Z"/><path class="cls-4" d="M137.18,259.72l0,.1c-.11.44-.23.86-.37,1.29l-.34-.33c-.71-.69-1.41-1.35-2.07-1.94h0s-.05,0-.08-.06l-.06-.06h0l-.17-.16A7.25,7.25,0,0,1,137.18,259.72Z"/><path class="cls-4" d="M137.54,253l-.38-.15a7.31,7.31,0,0,0-1.07-.29l-.54-.09-.3,0a8.65,8.65,0,0,0-1,0l-.63,0-.65.07h-.05l-.67.11a8.06,8.06,0,0,0-.91.25l-.06,0-.24.09-.23.09-.28.13-.15.08a3.15,3.15,0,0,0-.59.38l-.22.18h0l-.06.06h0l0,0h0s0,0,0,0h0a2,2,0,0,0-.19.24.12.12,0,0,0-.05.07.54.54,0,0,0-.1.16,1,1,0,0,0-.1.21.9.9,0,0,0-.08.28,1.61,1.61,0,0,0,.05.89,8,8,0,0,0-1.58.45,3,3,0,0,0-1.42,1s0,0,0,0,0,0,0,.06h0l0,0v0a1.08,1.08,0,0,0-.08.19l-.06.19a4.06,4.06,0,0,0,1.08,3h0a.9.9,0,0,0,.1.12v0a.35.35,0,0,0,0,.08s0,0,0,0a48,48,0,0,0,3.65,4l0,0,0,0c.88.91,1.73,1.81,2.41,2.65h0a5.71,5.71,0,0,1-.38.48l-.44-.5-.59-.66-.59-.66-.06-.07-.27-.29-.07-.08-.06-.06,0,0-.18-.19-.08-.09c-.18-.2-.36-.4-.55-.59l-.7-.71-.2-.2-.23-.22,0,0a0,0,0,0,0,0,0h0l0-.05,0,0,0,0-.12-.12-.17-.16-.39-.36-.13-.12-.18-.16-.05,0a2.32,2.32,0,0,0-.25-.21l-.07-.06,0,0h0l0,0h0l-.22-.18a4.29,4.29,0,0,0-.45-.33l-.34-.23a1.59,1.59,0,0,0-.29-.15l-.16-.06-.12,0a.9.9,0,0,0-.22-.06l-.09,0-.13,0-.13,0h-.55l-.34,0H124l-.14,0h-.07l-.11,0h0l-.12,0-.15.05h0l-.31.11h0l-.27.13h0l-.06,0-.08,0h0l-.21.13a4.27,4.27,0,0,0-.41.29l-.07.07a.27.27,0,0,0-.08.07l-.06.06-.1.1a2.09,2.09,0,0,0-.14.17.88.88,0,0,0-.12.17h0a.6.6,0,0,0-.06.11s0,0,0,0a1.15,1.15,0,0,0-.1.23.11.11,0,0,0,0,.08.06.06,0,0,0,0,0s0,0,0,0a.06.06,0,0,0,0,0v0l0,.15a2.28,2.28,0,0,0,0,.26,1.83,1.83,0,0,0,.38,1.1c.53.74,1.67,2.15,3.05,3.74l0,.06.06.07h0l0,0,0,0v0l0,0h0l0,0,0,0v0h0l.08.09.77.87.14.15h0l0,0,.17.2a.12.12,0,0,1,0,.05l0,0,0,0,.08.1h0l0,0,0,0,0,0h0l0,.05h0l0,0,.13.14.16.17h0l0,0,0,.05h0l.05.06h0l.09.11h0l.14.15,0,.06s0,.05.05.06h0l0,0,0,0,0,0,.22.24h0c.12.14.25.27.38.4l0,0,0,0,0,0,0,0,0,0h0l.1.1h0l-.08.06-.27.21h0l-.09-.11a.28.28,0,0,0-.09-.1l-.16-.18a.52.52,0,0,0-.1-.11l-.62-.68-.09-.09v0l-.13-.13-.13-.14-.24-.24c-.27-.27-.54-.54-.8-.77l0,0-.14-.13h0l-.14-.12,0-.05h0l0,0a2.18,2.18,0,0,0-.29-.26h0a.5.5,0,0,0-.11-.1l-.09-.08,0,0a1,1,0,0,0-.18-.13l-.17-.13h0l-.14-.11h0a2.43,2.43,0,0,0-.35-.24l-.07-.05h0l-.08-.05a3,3,0,0,0-1.59-.39l-.31,0-.31.05-.24,0-.26.07-.15,0-.25.1a3.33,3.33,0,0,0-.5.25l0,0a2.31,2.31,0,0,0-.36.25l-.08.07a1.37,1.37,0,0,0-.22.2l0,0,0,0-.14.15a2.08,2.08,0,0,0-.29.46,0,0,0,0,1,0,0,1.06,1.06,0,0,0-.09.25.86.86,0,0,0-.06.23,1.84,1.84,0,0,0,.36,1.37l.24.32c.42.58,1,1.36,1.72,2.21l.36.44q.14.18.3.36t.54.63l.26.31h0c-31.92,18-53.31-38-14.7-44.79a.78.78,0,0,1,.22,0,.47.47,0,0,1,.17,0,.2.2,0,0,1,.11,0c.17,0,.35-.06.53-.09l0,.22q0,.25.06.48c0,.29.07.55.11.78a3.69,3.69,0,0,0,0,.37,9,9,0,0,0,.26,1.41l2.33.19,2.35-.67,3.2-.27c4,0,1.62-.63,1.62-.63-.1-.6-.19-1.19-.28-1.78A25.09,25.09,0,0,1,137.54,253Z"/><path d="M116.83,234l-3.2.27-2.35.67-2.33-.19c-.5-5.06-.93-12.86-1.26-22.13v-.15c-.58-16.59-.84-37.87-.64-56.66v-.16c.2-17.41.79-32.66,1.9-40.05-.18,2.06-1.16,35.57-.64,46.52v-.65l0-1a12.25,12.25,0,0,0,.45,3.09s1.64-40.59,3.24-45.5c0,0-.62,7.79-.42,9.87l.48-3.63c0,1.57,0,5.28-.21,7.5.26-1.92.67-5,1-6.72.34,11.42-3.9,48.54,5,105.43.05.37.11.74.18,1.12.09.59.18,1.18.28,1.78C118.45,233.34,120.82,234,116.83,234Z"/><path d="M106.93,144.86l.91,80.63c-3.62-29.49-2.29-80.31-.43-111.59-.27,5.42-1.85,50-1.25,50.53C106.16,164.43,106.47,155.27,106.93,144.86Z"/><path d="M108.36,160.27c0,.11-.06,1.73,0,1.85S108.33,161.45,108.36,160.27Z"/><path d="M113.36,123.66A4.25,4.25,0,0,0,113,125C113.08,122,113.36,123.66,113.36,123.66Z"/><path d="M108,235.3c-3.44-37.4-4.06-83.84-1.41-124.53C106.87,139.82,107.62,205.67,108,235.3Z"/><path d="M108,235.3c-.18-1-.36-2.21-.54-3.67s-.38-3.41-.56-5.45c-1.43-15.76-2.53-43.72-1.94-59.94v-.17c0-1,.09-2,.14-2.95l.51,12.74,1.84,45.67v0l.18,4.49.22,5.52Z"/><path d="M109.77,118.74l-1.4,41.66-.06,1.72C108.52,153.85,109.18,126.47,109.77,118.74Z"/><path d="M112.87,172.15s1.31-41,1.83-44.42Z"/><path class="cls-3" d="M636.7,262.09s0,0,0,0h0a.36.36,0,0,1,0,.09h0l0,.09a1,1,0,0,1-.1.17h0c-.06.12-.13.24-.2.36-.25.43-.56.89-.92,1.39l-.1.14a1.71,1.71,0,0,0-.11.14,2.08,2.08,0,0,1-.15.2.86.86,0,0,0-.07.1,1.83,1.83,0,0,0-.13.16l-.23.29-.05.06,0,0-.07.09-.1.13a0,0,0,0,0,0,0l-.1.11s0,0,0,0l0,0-.07.09-.09.1-.28.33-.17.19-.29.33-.07.07-.09.1,0,0c-.09.11-.2.23-.31.34l-.06.06h0l0,.05,0,0,0,.05,0,.05a1.85,1.85,0,0,1-.14.14l-.08.09,0,0-.06.06-.18.19h0l-.15.15-.72.73,0,0-.05.05-.08.09h0a.38.38,0,0,0-.09.09h0l0,0h0l0,0h0v0h0l0,0h0v0h0l0,0,0,0,0,0,0,0,0,0,0,0-.33.31a2.55,2.55,0,0,0-.24.23h0l-.08.08-.2.18-.54.49,0,0-.83.75-2.23,2c-.39.36-.78.72-1.16,1.09-2.11,1.81-3.61,1.51-4.33.32.8-1.29,2.5-4,4.67-6.85h0c3-3.9,6.8-8.15,10.44-9.74h0l.07,0,.07,0,.08,0h0a1.8,1.8,0,0,1,.53.29.88.88,0,0,1,.22.21h0v0A4.93,4.93,0,0,1,636.7,262.09Z"/><path class="cls-4" d="M621,269.67l0,0a9.42,9.42,0,0,0-1,3.2,5.69,5.69,0,0,1,.08-.81.13.13,0,0,1,0-.06,1.7,1.7,0,0,1,0-.22,1.77,1.77,0,0,0,0-.2c0-.06,0-.12.05-.18l.06-.19a.14.14,0,0,1,0-.06s0,0,0,0a1.11,1.11,0,0,1,.1-.29v0a1.45,1.45,0,0,1,.09-.22c.06-.14.12-.27.19-.4h0l.07-.14a.05.05,0,0,1,0,0,2.38,2.38,0,0,1,.18-.3S621,269.68,621,269.67Z"/><path class="cls-4" d="M621.13,269.42h0Z"/><path class="cls-4" d="M622.87,266.85c-.2.26-.39.52-.58.79-.41.56-.78,1.17-1.15,1.78,0,0,0,0,0,0a.13.13,0,0,1,0-.07h0s0,0,0-.05l.07-.14.09-.15a2.39,2.39,0,0,1,.12-.22.41.41,0,0,0,0-.09l.1-.15.1-.15a.24.24,0,0,1,.06-.09.61.61,0,0,1,.07-.1l.19-.27h0c.05-.08.12-.16.18-.25l.2-.26.1-.12v0c.06-.06.11-.13.16-.19h0A2.09,2.09,0,0,1,622.87,266.85Z"/><path class="cls-4" d="M636.69,262.12c-.05.24-.1.49-.17.75a12.11,12.11,0,0,1-2.12,2.88s0,0,0,0c-1.24,1.36-2.81,2.88-4.24,4.21C633.74,266.56,635.77,264,636.69,262.12Z"/><path class="cls-4" d="M636.61,259.17a.88.88,0,0,0-.22-.21,1.8,1.8,0,0,0-.53-.29h0l-.08,0-.07,0-.07,0h0l-.11,0h-.17l-.47,0-.2,0-.19,0-.12,0-.36.08-.08,0h-.06l-.07,0-.39.11-.09,0h0c-.2.06-.41.13-.63.22l-.06,0-.15.06h0l-.26.1,0,0-.11,0,0,0h0l-.2.09-.1.05h0l-.07,0a4.39,4.39,0,0,0-.44.21l-.06,0-.37.2a13.12,13.12,0,0,1,1.2-.72h0l0,0,0,0,.11-.05.15-.07c1.54-.79,2.88-1.12,3.72-.71a1.46,1.46,0,0,1,.33.22A1.36,1.36,0,0,1,636.61,259.17Z"/><path class="cls-3" d="M640.74,268.94v0a8.84,8.84,0,0,1-1.15,2.3l0,0v0a19.77,19.77,0,0,1-2.65,2.4h0a20.3,20.3,0,0,0-2.4,1.75l-.09.07c-.87.62-1.72,1.21-2.43,1.74l.16.07c-3.25,2.51-6.72,4.67-6.76.73,2.61-3.66,6.11-8.26,15.35-11.63A4.53,4.53,0,0,1,640.74,268.94Z"/><path class="cls-4" d="M626.94,273.45c-.16.23-.3.46-.44.7l0,0A6.43,6.43,0,0,1,626.94,273.45Z"/><path class="cls-4" d="M632,277.28c.71-.53,1.56-1.12,2.43-1.74-.71.57-1.48,1.2-2.27,1.81Z"/><path class="cls-4" d="M638.09,265.45h0l-.16,0h0l-.22.06-.39.13-.09,0s0,0,0,0,0,0,0,0h0l-.28.1c-.86.43-1.83.94-2.85,1.54l-.73.44c-.32.19-.64.4-1,.62s-.61.41-.92.64c-.1.06-.18.13-.28.2C633.45,267.38,636.14,265.81,638.09,265.45Z"/><path class="cls-4" d="M640.73,269c-.05.27-.12.57-.21.89a5.58,5.58,0,0,1-.94,1.41A8.84,8.84,0,0,0,640.73,269Z"/><path class="cls-4" d="M617.71,271.09a.31.31,0,0,1-.09.07l-.07,0-.14.08-.11.05-.21.1h0l0,0a1.91,1.91,0,0,1-.44.15l-.13,0a2.54,2.54,0,0,1-1.5,0h-.05a1.7,1.7,0,0,1-.66-.42l-.08-.09-.06-.06v0l0,0-.05-.06a2.92,2.92,0,0,1-.44-1.59,6.58,6.58,0,0,1,.14-1.38,5.64,5.64,0,0,0,0,1.28h0C613.86,271.35,615.39,272.47,617.71,271.09Z"/><path class="cls-4" d="M617.73,271.08h0s0,0,0,0Z"/><path class="cls-4" d="M617.57,261.37c-.31.33-.61.67-.91,1,.22-.27.45-.53.68-.78A2.5,2.5,0,0,1,617.57,261.37Z"/><path class="cls-4" d="M625.26,257.2a5,5,0,0,1-.76.3l-.42.08A6.26,6.26,0,0,0,625.26,257.2Z"/><path class="cls-4" d="M626.59,255a3,3,0,0,0-.2-.47l0,0A1.87,1.87,0,0,1,626.59,255Z"/><path class="cls-4" d="M627.08,262.46l0,0v0l0,0h0l0,0h0l0,0-.11.11h0l-.05.05-.07.07-.09.09,0,0a2.11,2.11,0,0,0-.15.15s0,0,0,0l-.19.2,0,0-.27.26-.15.14,0,0-.1.1h0a.41.41,0,0,0-.1.09l-.17.16-.45.44-.15.14-.5.47-.2.19a21.84,21.84,0,0,1,2.64-2.56l.07-.07h0v0h0l0,0,.12-.11,0,0h0s0,0,0,0A.23.23,0,0,1,627.08,262.46Z"/><path class="cls-4" d="M627.1,262.44l0,0v0Z"/><path class="cls-4" d="M627.21,262.32h0l-.07.07,0,0Z"/><path class="cls-4" d="M627.33,262.2l.16-.17a2.19,2.19,0,0,1-.21.23Z"/><path class="cls-4" d="M628,253.94h0Z"/><path class="cls-4" d="M628,253.93h0Z"/><path class="cls-4" d="M628.17,253.91h0Z"/><path class="cls-4" d="M629.13,253.89a1.9,1.9,0,0,0-.35,0h-.27A1.82,1.82,0,0,1,629.13,253.89Z"/><path class="cls-4" d="M614.21,258.27l-.71.23"/><path class="cls-6" d="M629,271.05a14.59,14.59,0,0,0-2,2.28l-.06.08s0,0,0,0a6.43,6.43,0,0,0-.47.68l-.5-.35,2.23-2Z"/><path class="cls-4" d="M626.94,273.45c-.16.23-.3.46-.44.7l0,0A6.43,6.43,0,0,1,626.94,273.45Z"/><path class="cls-6" d="M620.33,258.73l0,0c-.2.16-.39.33-.58.51s-.39.34-.58.52c-.38.35-.75.72-1.11,1.09l-.47.49s0,0,0,0a2.5,2.5,0,0,0-.23.23c-.23.25-.46.51-.68.78h0l-.42.52a28.44,28.44,0,0,1-2-4.64l.73-.21c.18-.05.36-.1.53-.13l.53-.12.4-.07.12,0,.48-.06h.13l.22,0h0l.29,0h1.29l.67,0h.09l.23,0C620.06,258,620.19,258.39,620.33,258.73Z"/><path class="cls-4" d="M617.57,261.37c-.31.33-.61.67-.91,1,.22-.27.45-.53.68-.78A2.5,2.5,0,0,1,617.57,261.37Z"/><path class="cls-4" d="M618.73,257.59a11.58,11.58,0,0,0-1.73.06A8.65,8.65,0,0,1,618.73,257.59Z"/><path class="cls-4" d="M621.48,257.79c-.2.15-.38.29-.57.46h0l-.12.1-.44.37c-.14-.34-.27-.7-.4-1.05l.21,0,.39,0,.39,0H621Z"/><path class="cls-6" d="M618.56,250a7.72,7.72,0,0,1,2.67.42,15.83,15.83,0,0,0-2.59-.37h-.17a15.86,15.86,0,0,0-4.42.24l-.3,0c-.36.06-.71.13-1.06.21-1.5-18.39,12.24-27.29,26.26-28.69.06,2.47.15,4.66.26,6.47C628.53,229.7,618.18,235.7,618.56,250Z"/><path class="cls-4" d="M613.75,250.35c-.36.08-.71.17-1.06.27v-.06C613,250.48,613.39,250.41,613.75,250.35Z"/><path class="cls-6" d="M624,265.42c-.34.38-.67.79-1,1.21a1.92,1.92,0,0,0-.18.22,2.09,2.09,0,0,0-.14.17h0c-.05.06-.1.13-.16.19v0l-.1.12-.2.26c-.06.09-.13.17-.18.25h0l-.19.27a.61.61,0,0,0-.07.1.24.24,0,0,0-.06.09l-.1.15-.1.15a.41.41,0,0,1,0,.09,2.39,2.39,0,0,0-.12.22l-.09.15-.07.14s0,0,0,.05h0a.13.13,0,0,0,0,.07l0,0h0v0h0l0,0c-.24-.25-.48-.51-.71-.77l.55-.5.85-.76.51-.47.87-.8Z"/><path class="cls-4" d="M621.13,269.42h0Z"/><path class="cls-4" d="M622.87,266.85c-.2.26-.39.52-.58.79-.41.56-.78,1.17-1.15,1.78,0,0,0,0,0,0a.13.13,0,0,1,0-.07h0s0,0,0-.05l.07-.14.09-.15a2.39,2.39,0,0,1,.12-.22.41.41,0,0,0,0-.09l.1-.15.1-.15a.24.24,0,0,1,.06-.09.61.61,0,0,1,.07-.1l.19-.27h0c.05-.08.12-.16.18-.25l.2-.26.1-.12v0c.06-.06.11-.13.16-.19h0A2.09,2.09,0,0,1,622.87,266.85Z"/><path class="cls-4" d="M626.78,262.76h0l-.06.07h0l-.08.09,0,0a2.11,2.11,0,0,0-.15.15h0l0,0h0l-.21.2c-.15.16-.31.31-.48.47l-.09.1a.41.41,0,0,0-.1.09l-.17.16-.45.44-.15.14-.5.47-.2.19a21.84,21.84,0,0,1,2.64-2.56Z"/><path class="cls-4" d="M626.82,262.73l0,0h0v0Z"/><path class="cls-4" d="M627,262.59l-.1.11h0l0,0,0,0Z"/><path class="cls-6" d="M674.41,248.5c-3.2,25.62-22.14,37.54-42.28,28.85.79-.61,1.56-1.24,2.27-1.81l.09-.07c.8-.55,1.63-1.14,2.4-1.75h0c15.12,4.56,28.7-4.84,31.06-24.15.75-8.9-8-18.39-18-20.93-.18-2.29-.35-4.58-.51-6.83C663,224,675.4,236.64,674.41,248.5Z"/><path class="cls-4" d="M634.4,275.54c-.71.57-1.48,1.2-2.27,1.81l-.16-.07C632.68,276.75,633.53,276.16,634.4,275.54Z"/><path class="cls-4" d="M668,249.57c-2.36,19.31-15.94,28.71-31.06,24.15a7.26,7.26,0,0,0,2.65-2.4v0l0,0a8.84,8.84,0,0,0,1.15-2.3v0a3.93,3.93,0,0,0,.13-2.55,1.77,1.77,0,0,0-2.07-1h-.17l-.26,0-.17,0h-.15l-.16,0h0l-.22.06-.39.13-.09,0s0,0,0,0,0,0,0,0h0l-.28.1c-.86.43-1.83.94-2.85,1.54l-.73.44c-.32.19-.64.4-1,.62s-.61.41-.92.64c-.1.06-.18.13-.28.2l0,0h0l-.08.06a1.25,1.25,0,0,0-.19.15l-.06.05a.47.47,0,0,0-.09.06c-.23.18-.46.36-.68.56h0l-.1.07.08-.08h0a2.55,2.55,0,0,1,.24-.23l.33-.31,0,0h0l0,0,0,0,0,0,0,0,0,0h0v0h0l0,0h0v0h0l0,0h0l0,0h0a.08.08,0,0,0,0,0h0l0-.05h0l0-.05,0,0,.08-.08.72-.73.15-.15h0l.18-.19.06-.06,0,0,.08-.09a1.85,1.85,0,0,0,.14-.14l0-.05,0-.05,0,0,0-.05h0l.06-.06c.11-.11.22-.23.31-.34l0,0,.09-.1.07-.07.29-.33.17-.19L634,266h0l.08-.09.07-.09,0,0s0,0,0,0l.1-.11s0,0,0,0l.1-.13.07-.09,0,0,.05-.06.23-.29.13-.16a.86.86,0,0,1,.07-.1,2.08,2.08,0,0,0,.15-.2l.11-.14.1-.14c.36-.5.67-1,.92-1.39.07-.12.14-.24.2-.36h0l.1-.17a.41.41,0,0,0,0-.09.36.36,0,0,0,0-.09h0s0,0,0,0c.95-1.94.64-3-.44-3.4a2.14,2.14,0,0,0-.6-.11h-.34l-.47,0-.2,0-.19,0-.12,0-.36.08-.08,0h-.06l-.07,0-.39.11-.09,0h0c-.2.06-.41.13-.63.22l-.06,0-.15.06h0l-.26.1,0,0-.11,0,0,0h0l-.2.09-.1.05h0l-.07,0a4.39,4.39,0,0,0-.44.21l-.06,0-.37.2-.06,0h-.06l-.18.11a14.62,14.62,0,0,0-1.36.83l-.12.08h0l-.1.07-.08.06a1.3,1.3,0,0,0-.2.15c-.48.32-1,.68-1.43,1.06h0l0,0h0s0,0,0,0a.23.23,0,0,1,.07-.07h0v0l0,0s0,0,0,0l0,0,0,0h0l.06-.06.05-.06.16-.17,0,0,.12-.13h0l.63-.69.3-.34.13-.16c.16-.19.31-.37.44-.54s.14-.17.2-.26,0,0,0,0l.08-.1.07-.1,0,0,0,0a1.58,1.58,0,0,0,.15-.24l0-.05a.57.57,0,0,0,.08-.13l0,0a.53.53,0,0,1,.06-.1.41.41,0,0,1,.05-.09h0l0-.07c0-.07.07-.13.09-.19a.13.13,0,0,0,0-.07.41.41,0,0,0,.05-.09,5.48,5.48,0,0,0,.52-2.56,1.75,1.75,0,0,0-.05-.4,1.27,1.27,0,0,0-.06-.28h0a1.59,1.59,0,0,0-.07-.2l0-.07-.09-.17a.42.42,0,0,0-.07-.13,1.48,1.48,0,0,0-.25-.31,1.84,1.84,0,0,0-.22-.17h0l0,0-.07,0a1.34,1.34,0,0,0-.27-.13,2.26,2.26,0,0,0-.37-.11h0a1.9,1.9,0,0,0-.35,0h-.35l-.26,0H628l-.22.06-.15,0-.15,0a6.7,6.7,0,0,0-1,.44l0,0-.06-.13h0a2.1,2.1,0,0,0-.18-.37l-.18-.28-.07-.14-.1-.13-.15-.19a7.06,7.06,0,0,0-2.53-2l-.06,0-.13-.07a12.44,12.44,0,0,0-4.28-1.1,15.83,15.83,0,0,1,2.59.37,7.72,7.72,0,0,0-2.67-.42c-.38-14.32,10-20.32,20.65-21.68-.11-1.81-.2-4-.26-6.47l.32,0,.36,0,.24,0H640c.08,2.47.12,4.68.23,6.44,0,.47.06.85.08,1.16a4.23,4.23,0,0,0,0,.43v0c0,.11,0,.21,0,.29s0,.14,0,.2,0,.18,0,.21a.08.08,0,0,1,0,0l2.32.35,2.39-.63,3.21-.13c4,.26,1.66-.63,1.66-.63l0-.34c0-.19,0-.37,0-.56C660,231.18,668.71,240.67,668,249.57Z"/><path class="cls-4" d="M627,262.55h0Z"/><path class="cls-3" d="M625.54,257.05h0l-.27.14a6.26,6.26,0,0,1-1.18.38H624a12.35,12.35,0,0,1-3.1.17l-.39,0-.39,0-.21,0-.23,0h-.09l-.67,0h-1.26l-.28,0h0a.57.57,0,0,0-.22,0H617l-.48.06-.12,0-.4.07-.53.12c-.17,0-.35.08-.53.13l-.73.21a28.44,28.44,0,0,0,2,4.64h0l-.16.2a.79.79,0,0,0-.12.15,11.27,11.27,0,0,0-1.31,2A27.66,27.66,0,0,1,603,257.12c1.62-3.47,5.53-5.63,9.67-6.56v.06c.35-.1.7-.19,1.06-.27l.3,0a21.35,21.35,0,0,1,4.34-.24h.25a12.44,12.44,0,0,1,4.28,1.1l.13.07.06,0a10.5,10.5,0,0,1,1,.62l.41.32c.17.13.33.27.48.41l.29.28.14.15a8.86,8.86,0,0,1,.57.71l.18.28a2.1,2.1,0,0,1,.18.37h0l.06.13a3,3,0,0,1,.2.47v0s0,0,0,0A1.83,1.83,0,0,1,625.54,257.05Z"/><path class="cls-3" d="M617.71,271.09h0l-.1.07Z"/><path class="cls-3" d="M617.73,271.08h0s0,0,0,0Z"/><path class="cls-3" d="M621,269.67l0,0h0S621,269.68,621,269.67Z"/><path class="cls-4" d="M602.07,262.53h0a8.17,8.17,0,0,1,.45-3.94A11.5,11.5,0,0,0,602.07,262.53Z"/><path class="cls-4" d="M613.75,250.35c-.36.08-.71.17-1.06.27v-.06C613,250.48,613.39,250.41,613.75,250.35Z"/><path class="cls-4" d="M617.71,271.09a.31.31,0,0,1-.09.07l-.07,0-.14.08-.11.05-.21.1h0l0,0a1.91,1.91,0,0,1-.44.15l-.13,0a2.54,2.54,0,0,1-1.5,0h-.05a1.7,1.7,0,0,1-.66-.42l-.08-.09-.06-.06v0l0,0-.05-.06a2.92,2.92,0,0,1-.44-1.59,6.58,6.58,0,0,1,.14-1.38,5.64,5.64,0,0,0,0,1.28h0C613.86,271.35,615.39,272.47,617.71,271.09Z"/><path class="cls-4" d="M617.73,271.08h0s0,0,0,0Z"/><path class="cls-4" d="M618.73,257.59a11.58,11.58,0,0,0-1.73.06A8.65,8.65,0,0,1,618.73,257.59Z"/><path class="cls-4" d="M621,269.67l0,0a9.42,9.42,0,0,0-1,3.2,5.69,5.69,0,0,1,.08-.81.13.13,0,0,1,0-.06,1.7,1.7,0,0,1,0-.22,1.77,1.77,0,0,0,0-.2c0-.06,0-.12.05-.18l.06-.19a.14.14,0,0,1,0-.06s0,0,0,0a1.11,1.11,0,0,1,.1-.29v0a1.45,1.45,0,0,1,.09-.22c.06-.14.12-.27.19-.4h0l.07-.14a.05.05,0,0,1,0,0,2.38,2.38,0,0,1,.18-.3S621,269.68,621,269.67Z"/><path class="cls-4" d="M622.86,251.13l.06,0a12.44,12.44,0,0,0-4.28-1.1,15.83,15.83,0,0,1,2.59.37h0l.25.05A10.33,10.33,0,0,1,622.86,251.13Z"/><path class="cls-4" d="M625.26,257.2a5,5,0,0,1-.76.3l-.42.08A6.26,6.26,0,0,0,625.26,257.2Z"/><path class="cls-4" d="M626.59,255a3,3,0,0,0-.2-.47l-.06-.13h0a2.1,2.1,0,0,0-.18-.37l-.18-.28a8.86,8.86,0,0,0-.57-.71,2,2,0,0,1,.25.25l.15.19.1.13a4,4,0,0,1,.54.91A1.87,1.87,0,0,1,626.59,255Z"/><path class="cls-4" d="M621.48,257.79c-.2.15-.38.29-.57.46h0l-.12.1-.44.37c-.14-.34-.27-.7-.4-1.05l.21,0,.39,0,.39,0H621Z"/><path class="cls-4" d="M668,249.57c-2.36,19.31-15.94,28.71-31.06,24.15a7.26,7.26,0,0,0,2.65-2.4v0l0,0a8.84,8.84,0,0,0,1.15-2.3v0a3.93,3.93,0,0,0,.13-2.55,1.77,1.77,0,0,0-2.07-1h-.17l-.26,0-.17,0h-.15l-.16,0h0l-.22.06-.39.13-.09,0s0,0,0,0,0,0,0,0h0l-.28.1c-.86.43-1.83.94-2.85,1.54l-.73.44c-.32.19-.64.4-1,.62s-.61.41-.92.64c-.1.06-.18.13-.28.2l0,0h0l-.08.06a1.25,1.25,0,0,0-.19.15l-.06.05a.47.47,0,0,0-.09.06c-.23.18-.46.36-.68.56h0a34.23,34.23,0,0,0,4.23-4.16.32.32,0,0,0,.08-.09h0l.08-.09.08-.09s0,0,0,0l0,0h0l.08-.09h0v0a13.6,13.6,0,0,0,2.1-3.36.36.36,0,0,0,0-.09h0s0,0,0,0c.5-1.31.44-2.3-.07-2.89v0h0a.88.88,0,0,0-.22-.21,1.8,1.8,0,0,0-.53-.29h0l-.08,0-.07,0-.07,0h0l-.11,0h-.17a6.05,6.05,0,0,0-3.06.6l0,0-.15.07-.11.05,0,0,0,0h0a15.45,15.45,0,0,0-2.86,1.72l-.12.08h0l-.1.07-.08.06a1.3,1.3,0,0,0-.2.15,29,29,0,0,0-2.25,1.89l0,0-.27.26-.15.14,0,0-.1.1c-.37.35-.72.72-1.08,1.11-.09.08-.17.17-.25.25l-.05-.06.5-.47.15-.14.45-.44.17-.16a.41.41,0,0,1,.1-.09l.09-.1c.17-.16.33-.31.48-.47l.21-.2h0l0,0,.25-.26h0a.22.22,0,0,1,.06-.07h0v0h0l0,0,.12-.11h0v0h0s0,0,0,0a.23.23,0,0,1,.07-.07h0v0l0,0s0,0,0,0l0,0,0,0h0l.06-.06.05-.06.16-.17,0,0,.12-.13h0l.63-.69.3-.34.13-.16c.16-.19.31-.37.44-.54s.14-.17.2-.26,0,0,0,0l.08-.1.07-.1,0,0,0,0a1.58,1.58,0,0,0,.15-.24l0-.05a.57.57,0,0,0,.08-.13l0,0a.53.53,0,0,1,.06-.1.41.41,0,0,1,.05-.09h0l0-.07c0-.07.07-.13.09-.19a.13.13,0,0,0,0-.07.41.41,0,0,0,.05-.09,5.48,5.48,0,0,0,.52-2.56,1.75,1.75,0,0,0-.05-.4,1.27,1.27,0,0,0-.06-.28h0a1.59,1.59,0,0,0-.07-.2l0-.07-.09-.17a.42.42,0,0,0-.07-.13,1.48,1.48,0,0,0-.25-.31,1.84,1.84,0,0,0-.22-.17h0l0,0-.07,0a1.34,1.34,0,0,0-.27-.13,2.26,2.26,0,0,0-.37-.11h0a1.9,1.9,0,0,0-.35,0h-.35l-.26,0H628l-.22.06-.15,0-.15,0a6.7,6.7,0,0,0-1,.44l0,0-.06-.13h0a2.1,2.1,0,0,0-.18-.37l-.18-.28a8.86,8.86,0,0,0-.57-.71l-.14-.15-.29-.28c-.15-.14-.31-.28-.48-.41l-.41-.32a10.5,10.5,0,0,0-1-.62l-.06,0-.13-.07-.06,0a10,10,0,0,0-1.61-.68h0a7.72,7.72,0,0,0-2.67-.42c-.38-14.32,10-20.32,20.65-21.68l.15,0h.2l.67-.08c0,.47.06.85.08,1.16a4.23,4.23,0,0,0,0,.43v0c0,.11,0,.21,0,.29s0,.14,0,.2,0,.18,0,.21a.08.08,0,0,1,0,0l2.32.35,2.39-.63,3.21-.13c4,.26,1.66-.63,1.66-.63l0-.34c0-.19,0-.37,0-.56C660,231.18,668.71,240.67,668,249.57Z"/><path d="M651,117.14c-.11-4.59-6.26,57.74-1,112.4,0,0,2.33.89-1.66.63l-3.21.13-2.39.63-2.32-.35c-.71-26.19,3.61-114.67,7.94-137.3-.14.67-3.55,39.93-3.69,53l.11-1.28a17.56,17.56,0,0,0,.25,3.6s4.33-46.64,6.26-52.21c0,0-1.14,8.93-1.08,11.34l.72-4.15a94.56,94.56,0,0,1-.92,9.9c.3-1.76,1.1-6.44,1.69-8.92C651.55,106.52,651.31,110.27,651,117.14Z"/><path d="M644.7,146.24c0-.36.06-.83.11-1.42C644.83,144.86,644.7,146.16,644.7,146.24Z"/><path d="M645.56,103a116.56,116.56,0,0,1,1.38-11.58c-.64,6.37-5.16,57.47-4.6,58.11,0,0,.93-10.66,2.08-22.72L640,219.94C638.08,189.73,642.9,135.67,645.56,103Z"/><path d="M652.23,103a5.79,5.79,0,0,0-.5,1.56C652.06,101,652.23,103,652.23,103Z"/><path d="M646.29,87.71c-1.59,33.32-5.24,109.47-6.87,143.48C638.46,187.17,641,133.57,646.29,87.71Z"/><path d="M641.32,147.91,641,164.18v0l-1.19,51.91-.13,5.69-.14,6.5-.07,2.88q-.12-1.22-.21-2.85c-.11-1.81-.2-4-.26-6.47-.44-17.86.31-50.9,2-70C641.06,150.46,641.19,149.14,641.32,147.91Z"/><path d="M649,97.08,644.81,145l-.11,1.28C645.43,137,647.91,105.62,649,97.08Z"/><path d="M648.53,158.76s4-47.1,4.77-51Z"/><path class="cls-4" d="M370.16,447.3l-.19.06"/><path class="cls-2" d="M396.5,207.5a43,43,0,0,1-2.31,14.26c-8.14,23.07-35.86,28.56-53.5,16.31,20.33,2.88,47-13.72,54.86-39.33a42.75,42.75,0,0,1,.87,6.52C396.46,206,396.49,206.74,396.5,207.5Z"/><path class="cls-3" d="M395.55,198.74c-7.9,25.61-34.53,42.21-54.86,39.33a33.56,33.56,0,0,1-10.8-12.33,41.65,41.65,0,0,1-4.39-18.24l0-.13h0a31.09,31.09,0,0,1,1.7-13.16c8.19-12.94,22.19-18.9,35.75-18.37.31,0,.63,0,.94,0l.8.06c.92.07,1.84.18,2.75.31l1.05.17c.53.09,1,.19,1.57.3s.87.19,1.31.3l.19.05c.44.11.89.23,1.33.36h0c.48.14.95.28,1.42.44s.89.3,1.32.46l1.21.46.65.28a36.36,36.36,0,0,1,3.91,1.93c.39.22.78.44,1.16.68h0c.42.26.84.53,1.25.81s.62.42.93.64l.57.42c.76.56,1.5,1.16,2.21,1.78.37.32.73.64,1.08,1s.53.51.79.77c.47.47.92,1,1.37,1.46.28.31.55.63.82,1,.13.15.26.31.38.47.26.32.51.65.76,1l.2-.09A37,37,0,0,1,395.55,198.74Z"/><path class="cls-3" d="M325.5,207.5l0-.13a28.54,28.54,0,0,0-3.32,1c-5.37,2-8,4.52-13.65,3.12,11.82,7.09,7.23,10.38,13,15,3.1,2.48,5.83,1.11,8.39-.76A41.65,41.65,0,0,1,325.5,207.5Zm-8.19,6.94c4.54-1.58,5.89,1.22,7.46,5.86C322.51,217.46,319.2,216.23,317.31,214.44Z"/><path class="cls-6" d="M372.88,177.42c-.44-.13-.89-.25-1.33-.36l-.19-.05c-.44-.11-.87-.21-1.31-.3s-1-.21-1.57-.3l-1.05-.17c-.91-.13-1.83-.24-2.75-.31l-.8-.06c-.32,0-.63,0-.94,0-13.56-.53-27.56,5.43-35.75,18.37a29.56,29.56,0,0,1,1.48-3.53,32.37,32.37,0,0,1,18.66-17.42l.36-.13h0l.79-.27.76-.25,1-.3q.35-.11.69-.18c.34-.1.69-.18,1-.26s.93-.2,1.4-.29.82-.15,1.23-.21l.91-.12.92-.11q2.09.93,4.54,1.87S368.46,174.6,372.88,177.42Z"/><path class="cls-6" d="M367.86,171.62a38.24,38.24,0,0,0-8.27-.69A37.62,37.62,0,0,1,367.86,171.62Z"/><path class="cls-4" d="M347.69,173.12c.51-.19,1-.36,1.56-.52"/><path class="cls-3" d="M344.58,279.9v0c-.24,1.5-.56,3-1,4.58a45.38,45.38,0,0,1-5.77,13.55l-.11.17a19.08,19.08,0,0,1-6,6c3.63-7.07,3.79-17.42-6-18.73-43.37-5.27-66.38-.74-110.22-2-17.77-2-13.12-6.87-66.88-11.81,1.06-1.11,1.25-2.78.88-4.68v0a10.81,10.81,0,0,0-.51-2.45c83.3,5.71,135.36,21.21,196,4.74A41,41,0,0,1,344.58,279.9Z"/><path class="cls-4" d="M149.5,267a14.51,14.51,0,0,0-.69-2.46H149A10.81,10.81,0,0,1,149.5,267Z"/><path class="cls-3" d="M602,262.53c-30,.41-49.65,6.1-82.53,10-31.7.67-78.22,2.25-115,10.47-9.22,2.09-9.6,11.87-6.21,19.11a7.2,7.2,0,0,1-3.52-1.31,12.87,12.87,0,0,1-1.15-.87l-.38-.33-.38-.36c-6.92-6.7-12.53-23.43-11.28-32.17,6,3.43,14.45,2.28,20.74,2.42,15.11-.07,26.25-.51,77.19-8,33.71-5,43.83.9,123-2.91A8.17,8.17,0,0,0,602,262.53Z"/><path class="cls-4" d="M602.07,262.53h0a8.17,8.17,0,0,1,.45-3.94A11.5,11.5,0,0,0,602.07,262.53Z"/><path class="cls-7" d="M369.86,447.4l-1.07.35-1.84.58-1.32.39-.54.16h0c-.46.13-.89.25-1.3.35l-.68.17a74.4,74.4,0,0,1,1.51-15.6l1.9-9.3,2,11c.46,2.67.86,5.75,1.21,9.2Z"/><path class="cls-4" d="M399.5,394.5c0,1.55,0,3.16-.06,4.84"/><path class="cls-11" d="M405.78,394.73a37.4,37.4,0,0,1-6.34,4.61c-11.86,6.94-28.13,8.58-43.82,6.48,25.37-9.68,44-21.64,49.37-57.1C406,363.83,405.85,378.16,405.78,394.73Z"/><path class="cls-5" d="M393,190.86l-.2.09c-.25-.33-.5-.66-.76-1-.12-.16-.25-.32-.38-.47-.27-.33-.54-.65-.82-1-.45-.5-.9-1-1.37-1.46-.26-.26-.52-.52-.79-.77s-.71-.66-1.08-1c-.71-.62-1.45-1.22-2.21-1.78l-.57-.42c-.31-.22-.62-.44-.93-.64s-.83-.55-1.25-.81h0c-.38-.24-.77-.47-1.16-.68a36.36,36.36,0,0,0-3.91-1.93l-.65-.28-1.21-.46c-.43-.16-.88-.32-1.32-.46s-.94-.31-1.42-.44h0C368.46,174.6,361,173,361,173q-2.46-.94-4.54-1.87c.34,0,.67-.08,1-.09l.83-.06.57,0,.58,0a.33.33,0,0,1,.14,0,38.24,38.24,0,0,1,8.27.69l1.18.24,1.22.31c.78.2,1.57.43,2.34.69.48.16,1,.33,1.43.52s1.05.4,1.57.63a34.23,34.23,0,0,1,10.66,7.21c.3.29.59.6.88.91h0c.57.62,1.13,1.27,1.66,1.94a32.59,32.59,0,0,1,2.92,4.37c.13.23.26.47.38.71C392.41,189.71,392.69,190.28,393,190.86Z"/><path class="cls-4" d="M369.5,151.5a12.73,12.73,0,0,1-.87,3"/><path class="cls-4" d="M622.29,267.64h0l-.47-.13"/><path class="cls-4" d="M614.7,265.3l-.05,0"/><path class="cls-3" d="M630.21,258.5a.41.41,0,0,1-.05.09.13.13,0,0,1,0,.07c0,.09-.09.17-.14.26h0a.41.41,0,0,0-.05.09.53.53,0,0,0-.06.1l0,0a.57.57,0,0,1-.08.13l0,.05-.18.27,0,0-.07.1-.08.1s0,0,0,0-.13.17-.2.26-.28.35-.44.54l-.13.16-.3.34-.63.69h0l-.12.13,0,0-.16.17-.05.06-.06.06h0l0,0,0,0s0,0,0,0l0,0v0h0a.23.23,0,0,0-.07.07s0,0,0,0h0v0h0l-.12.11,0,0h0v0h0a.22.22,0,0,0-.06.07h0a21.84,21.84,0,0,0-2.64,2.56l0,0-.89.81-.87.8-.51.47-.85.76-.55.5-.1.1c-.67.6-1.26,1.15-1.77,1.64a2.52,2.52,0,0,1-.3.27l-.06.05,0,0h0l-.07,0-.16.1h0s0,0-.05,0l-.06,0h0c-2.32,1.38-3.85.26-4-1.86h0c.84-.89,1.88-2,3-3.18,4-4.12,9.61-9.31,13.88-10.79h0a1.27,1.27,0,0,1,.06.28,2.57,2.57,0,0,1,.05.4A5.48,5.48,0,0,1,630.21,258.5Z"/><path class="cls-4" d="M627,262.59l0,0s0,0,0,0Z"/><path class="cls-4" d="M628,253.94h0Z"/><path class="cls-2" d="M630.62,255.25c-4.27,1.48-9.83,6.67-13.88,10.79-1.16,1.19-2.2,2.29-3,3.18a5.64,5.64,0,0,1,0-1.28.5.5,0,0,1,0-.12c0-.17.08-.35.13-.54a9.9,9.9,0,0,1,.8-2,14.49,14.49,0,0,1,1.26-2,.79.79,0,0,1,.12-.15l.16-.2h0l.42-.52h0c.3-.34.6-.68.91-1,0,0,0,0,0,0l.47-.49c.36-.37.73-.74,1.11-1.09.19-.18.38-.36.58-.52s.38-.35.58-.51l0,0,.44-.37.12-.1h0c.19-.17.37-.31.57-.46a8.82,8.82,0,0,0,2.54-.2h.06l.42-.08a5,5,0,0,0,.76-.3l.27-.14h0a1.67,1.67,0,0,0,1.06-2s0,0,0,0v0a1.87,1.87,0,0,0-.16-.49,6.7,6.7,0,0,1,1-.44l.15,0,.15,0L628,254h.18l.26,0h.35a1.9,1.9,0,0,1,.35,0h0a2.26,2.26,0,0,1,.37.11,1.34,1.34,0,0,1,.27.13l.07,0,0,0h0a1.84,1.84,0,0,1,.22.17,2.6,2.6,0,0,1,.25.31.42.42,0,0,1,.07.13l.09.17,0,.07A1.59,1.59,0,0,1,630.62,255.25Z"/><path class="cls-2" d="M621.08,269.53s-.05.09-.08.14,0,0,0,0a2.38,2.38,0,0,0-.18.3.05.05,0,0,0,0,0l-.07.14h0c-.07.13-.13.26-.19.4a1.45,1.45,0,0,0-.09.22v0a1.11,1.11,0,0,0-.1.29s0,0,0,0a.14.14,0,0,0,0,.06l-.06.19c0,.06,0,.12-.05.18a1.77,1.77,0,0,1,0,.2,1.7,1.7,0,0,0,0,.22.13.13,0,0,0,0,.06,5.69,5.69,0,0,0-.08.81v0a.09.09,0,0,1,0,.05,4.37,4.37,0,0,0,0,1.14c-8.23,1.47-11.83-.76-13.45-5.63-1.69-3-4-3.55-4.47-6h0a11.5,11.5,0,0,1,.41-3.94,7.61,7.61,0,0,1,.54-1.47,27.66,27.66,0,0,0,11.63,8.16,8.28,8.28,0,0,0-.88,2.54.5.5,0,0,0,0,.12,6.58,6.58,0,0,0-.14,1.38,2.92,2.92,0,0,0,.44,1.59l.05.06,0,0v0l.06.06.08.09a1.7,1.7,0,0,0,.66.42H615a2.54,2.54,0,0,0,1.5,0l.13,0a1.91,1.91,0,0,0,.44-.15l0,0h0a.67.67,0,0,0,.21-.1l.11-.05.14-.08.07,0a.31.31,0,0,0,.09-.07h0a.07.07,0,0,0,.06,0s0,0,.05,0h0l.16-.1.07,0h0l0,0,.06-.05a10.66,10.66,0,0,0,2.07-1.91l.1-.1C620.6,269,620.84,269.28,621.08,269.53Z"/><path class="cls-2" d="M635.6,258.6c-3.64,1.59-7.49,5.84-10.44,9.74h0c-2.17,2.88-3.87,5.56-4.67,6.85A4,4,0,0,1,620,273a.09.09,0,0,0,0-.05v0a9.42,9.42,0,0,1,1-3.2l0,0c0-.05,0-.1.08-.14l0,0h0v0h0c.37-.61.74-1.22,1.15-1.78.19-.27.38-.53.58-.79a1.92,1.92,0,0,1,.18-.22c.39-.45.81-.91,1.27-1.37.08-.08.16-.17.25-.25a37.89,37.89,0,0,1,5.8-4.77l.18-.11h.06l.06,0,.37-.2.06,0a4.39,4.39,0,0,1,.44-.21l.07,0h0l.1-.05.2-.09h0l0,0,.11,0,0,0,.26-.1h0l.15-.06.06,0c.22-.09.43-.16.63-.22h0l.09,0,.39-.11.07,0h.06l.08,0,.36-.08.12,0,.19,0,.2,0,.47,0h.17Z"/><path class="cls-2" d="M640.72,266.45c-9.24,3.37-12.74,8-15.35,11.63a11,11,0,0,1,.13-1.58,5.17,5.17,0,0,1,1-2.37l0,0c.14-.24.28-.47.44-.7,0,0,0,0,0,0l.06-.08a23.63,23.63,0,0,1,3.66-3.72l.06-.05a1.25,1.25,0,0,1,.19-.15l.08-.06h0l0,0c.1-.07.18-.14.28-.2.31-.23.61-.44.92-.64s.64-.43,1-.62l.73-.44c1-.6,2-1.11,2.85-1.54l.28-.1h0s0,0,0,0,0,0,0,0l.09,0,.39-.13.22-.06h0l.16,0h.15l.17,0,.26,0h.17A1.78,1.78,0,0,1,640.72,266.45Z"/><path class="cls-2" d="M132.82,282.05a152.7,152.7,0,0,1-11.1-13.58,3,3,0,0,1,1.59.39l.08.05h0l.07.05.35.25.15.11h0c.19.15.38.3.57.47h0l.08.07.22.19,0,0h0l0,.05.14.12h0l.14.13,0,0c.26.23.53.5.8.77l.24.24.13.14.13.13v0l.09.09.62.68a.52.52,0,0,1,.1.11l.16.18a.41.41,0,0,0,.09.1l.09.11h0c1.36,1.54,2.69,3.21,4,4.68.66.75,1.3,1.45,1.93,2.06C135,281,134.21,281.72,132.82,282.05Z"/><path class="cls-2" d="M148.62,271.69a7.12,7.12,0,0,0-2.11,1.48c-2.16,2.09-3.62,5.05-7.64,4.69a11,11,0,0,1-3-.72l.4,0h.24l.27,0a4.19,4.19,0,0,0,.56-.08h.06l.34-.07a2.19,2.19,0,0,0,.57-.22.83.83,0,0,0,.16-.09.41.41,0,0,0,.11-.07c.6-.41.69-1-.21-1.89l0,0a11.47,11.47,0,0,0-1.55-1.63l0,0c.25-.28.49-.56.73-.85,1.18,1.36,3.19,1.22,4.64.38h0a2.42,2.42,0,0,0,1.33-1.06,1.82,1.82,0,0,0,.2-.55,2.18,2.18,0,0,0-.18-2.15q-.33-.45-.78-1a14.48,14.48,0,0,0,5.61-4.75,13.89,13.89,0,0,1,.61,1.58h-.18a14.51,14.51,0,0,1,.69,2.46v0A8,8,0,0,1,148.62,271.69Z"/><path class="cls-4" d="M137.79,276.92h0"/><path class="cls-4" d="M143.53,271.42l-.09-.06"/><path class="cls-2" d="M143.73,270.87a2.43,2.43,0,0,1-.29.49,29.74,29.74,0,0,1-3.18-2.76c-3.7-3.63-7.38-8.38-12.88-12.38a8,8,0,0,1,1.58-.45.06.06,0,0,0,0,0c.1,1.27,1.83,2.39,4,2.67h.06l1.28.34h0c.55.52,1.29,1.2,2.1,1.94l.34.33.05.05c1.64,1.64,3.29,3.42,4.6,4.94.43.49.82.95,1.16,1.37l0,.07.11.17A4.88,4.88,0,0,1,143.73,270.87Z"/><path class="cls-4" d="M142.77,267.7h0"/><path class="cls-2" d="M324.77,220.3c-2.26-2.84-5.57-4.07-7.46-5.86C321.85,212.86,323.2,215.66,324.77,220.3Z"/><path class="cls-2" d="M404.8,210.71h0c-3,1.11-4.24,4.15-7.05,7.43.82-4.07,2.17-7.54,6.53-10.2A3.46,3.46,0,0,1,404.8,210.71Z"/><path class="cls-12" d="M381.62,200.33c-1-.16-2.5.19-2.41-1.2a1.52,1.52,0,0,1,2.13-1.19C382.18,198.55,382.5,199.87,381.62,200.33Z"/><path class="cls-12" d="M389.62,203.33c-1-.16-2.5.19-2.41-1.2a1.52,1.52,0,0,1,2.13-1.19C390.18,201.55,390.5,202.87,389.62,203.33Z"/><path class="cls-12" d="M383.62,207.33c-1-.16-2.5.19-2.41-1.2a1.52,1.52,0,0,1,2.13-1.19C384.18,205.55,384.5,206.87,383.62,207.33Z"/><path class="cls-12" d="M332.62,205.33c-1-.16-2.5.19-2.41-1.2a1.52,1.52,0,0,1,2.13-1.19C333.18,203.55,333.5,204.87,332.62,205.33Z"/><path class="cls-12" d="M338.62,202.33c-1-.16-2.5.19-2.41-1.2a1.52,1.52,0,0,1,2.13-1.19C339.18,200.55,339.5,201.87,338.62,202.33Z"/><path class="cls-12" d="M337.62,208.33c-1-.16-2.5.19-2.41-1.2a1.52,1.52,0,0,1,2.13-1.19C338.18,206.55,338.5,207.87,337.62,208.33Z"/></g><g id="gesicht"><g class="cls-13"><path class="cls-14" d="M375.47,216.23a3.62,3.62,0,0,0-.32.22l.18-.09C375.4,216.32,375.42,216.27,375.47,216.23Z"/><polygon class="cls-14" points="374.88 216.68 374.83 216.73 374.79 216.77 374.88 216.68"/><path class="cls-14" d="M374.42,217.16l.24-.24A1.8,1.8,0,0,0,374.42,217.16Z"/><path class="cls-14" d="M374.81,216.81s-.06,0,0,0h0l-.13.15A1.12,1.12,0,0,1,374.81,216.81Z"/><path class="cls-14" d="M374.81,216.81l.12-.06A.34.34,0,0,0,374.81,216.81Z"/><path class="cls-14" d="M374.93,217.16c0,.06-.1,0-.17.08a7.46,7.46,0,0,1-.56.66c-.08.1-.3.17-.39.27s-.75.84-.39.53a14,14,0,0,0,1.28-1.26,4.69,4.69,0,0,1,1-1,.85.85,0,0,1,.36-.14,1.74,1.74,0,0,0-.5.17C375.36,216.58,375.2,216.86,374.93,217.16Z"/><path class="cls-14" d="M378.22,216.32l-.2,0a1.73,1.73,0,0,0-.87-.25l.13.08c.17,0,.2,0,.05-.05.34.11.64.26,1,.36C378.29,216.39,378.31,216.37,378.22,216.32Z"/><path class="cls-14" d="M378.5,216.49l-.2-.06h0l.19.05Z"/><path class="cls-14" d="M373.48,218.17a10.94,10.94,0,0,1-2,1.39.5.5,0,0,1-.16.11l-.18.05-.32.14-.1.06h0c-.05,0,0,0,0,0l.13,0-.13,0-.18.06a1.36,1.36,0,0,1-.3.13l.3-.13.18-.1,0,0a6.59,6.59,0,0,1-.73.3l-.15.06a1.42,1.42,0,0,1-.48.16l-.13.05h0a3.89,3.89,0,0,1-.58.18l-.36.16h-.14a1,1,0,0,1-.21.11h.31c.15,0,.27-.17.44-.13-.17,0-.29.14-.44.13h-.31a2,2,0,0,1-.62.12,1.69,1.69,0,0,1,.62-.12,1,1,0,0,0,.21-.11h.14l.36-.16-1.15.3a34.73,34.73,0,0,1-7.6.91,23.58,23.58,0,0,1-4.18-.44,42.4,42.4,0,0,1-7.65-2.3,21,21,0,0,0-4-1c-1.42,0-.74.47-.68.5.78.48,1.47.36,3.08,1-1.1-.4.9,0,1.88.55a27.29,27.29,0,0,0,5.64,1.81c.49.12,1,.22,1.62.32a25.94,25.94,0,0,0,9.29-.14,15.91,15.91,0,0,0,2.29-.58c.52-.12,1.08-.27,1.5-.38a11.21,11.21,0,0,0,1.72-.68,17.89,17.89,0,0,1-1.68.65c-.45.13.28-.2.56-.33.12-.07.35,0,.47-.11a7.8,7.8,0,0,0,.78-.37c.11-.07.14,0,.19,0,.38-.2.62-.45.87-.55l.52-.25.3-.17.19-.14a.22.22,0,0,1-.15,0l.33-.19-.33.19a.22.22,0,0,0,.15,0l.67-.59.64-.64h0a4.06,4.06,0,0,1-.84.62c.14-.07.14,0,0,.07l-.13,0a4.1,4.1,0,0,1,.71-.55l.13-.16c.08-.05.09,0,.13,0l.14-.15C373.87,217.92,373.48,218.17,373.48,218.17Z"/><path class="cls-14" d="M370.51,220l.14-.08a4.6,4.6,0,0,1-.61.25A1.08,1.08,0,0,0,370.51,220Z"/></g><g class="cls-13"><path class="cls-14" d="M346,191.89v-.18a.16.16,0,0,1,0,.09S346,191.86,346,191.89Z"/><path class="cls-14" d="M346,191.54v0Z"/><path class="cls-14" d="M346,191.22a.81.81,0,0,0,0,.16A1,1,0,0,0,346,191.22Z"/><path class="cls-14" d="M346,191.47s0,0,0,0h0v-.1A.46.46,0,0,1,346,191.47Z"/><path class="cls-14" d="M346,191.47l0,.06A.16.16,0,0,0,346,191.47Z"/><path class="cls-14" d="M345.61,191.4s.09,0,.06-.09a3.2,3.2,0,0,1-.07-.41c0-.06.08-.16.08-.26a.39.39,0,0,1,.08-.25.42.42,0,0,1,.35-.15c.2,0,.29,0,0-.06a.5.5,0,0,0-.57.3.73.73,0,0,0,0,.33l0,.41.13.73a1.34,1.34,0,0,1,0,.2l0-.27C345.76,191.75,345.63,191.6,345.61,191.4Z"/><path class="cls-14" d="M345.94,193.21l0-.09a.64.64,0,0,0,0-.43l-.05.06c0,.09,0,.1.06,0a1.23,1.23,0,0,0-.06.5S345.93,193.26,345.94,193.21Z"/><path class="cls-14" d="M345.88,193.37v-.1h0l0,.1Z"/><path class="cls-14" d="M345.93,190.59c.11-.15.3,0,.35.18a3.2,3.2,0,0,1,.23.6s.06,0,.06.08a.34.34,0,0,0,0,.1l0,.16v0h0s0,0,0,0l0-.07,0,.07v.09a.41.41,0,0,1,0,.16.5.5,0,0,1,0-.16l0-.09v0c0,.12,0,.25.06.37v.08a.29.29,0,0,1,0,.24v.36c0,.06,0,.13.05.19l-.06.07a.16.16,0,0,1,.05.1l.08-.13c.05-.07-.08-.15,0-.23-.08.08.05.16,0,.23l-.08.13a.48.48,0,0,1-.09.3.4.4,0,0,1,.09-.3.16.16,0,0,0-.05-.1l.06-.07c0-.06,0-.13-.05-.19a5.32,5.32,0,0,1-.06.56,3.15,3.15,0,0,1-.66,1.58c-.18.18-.41.27-.6.12s-.19-.37-.19-.69c0-.71.07-1.39.13-2.05.08-1,0-1.91.1-2.87l-.7.35a1.78,1.78,0,0,1,.46.68,3.3,3.3,0,0,1,.3,1.5c0,.53.48.41.53.36.42-.34.33-.73.29-1.65,0,.63-.28-.36-.49-1a1.49,1.49,0,0,0-.5-.74l-.8-.66-.09,1.11c0,.65.08,1.41,0,2.09,0,.24,0,.49,0,.78a17.87,17.87,0,0,0,0,2.2,2.27,2.27,0,0,0,.05.35,1.42,1.42,0,0,0,.17.47,1.14,1.14,0,0,0,.83.55,1.31,1.31,0,0,0,.95-.34,2.2,2.2,0,0,0,.49-.61,3.1,3.1,0,0,0,.25-1.26c0-.27.1-.56.11-.79a2.92,2.92,0,0,0-.15-.93,4.25,4.25,0,0,1,.13.91c0,.24-.12-.17-.16-.32s.08-.18,0-.25a1.83,1.83,0,0,0-.13-.42c0-.06.06-.07,0-.1-.06-.21-.22-.33-.24-.47l-.05-.28a1,1,0,0,0-.06-.16l-.07-.1a.16.16,0,0,1-.07.09l0-.17v0l0,.17a.16.16,0,0,0,.07-.09l-.07-.1a.65.65,0,0,0-.42-.3.27.27,0,0,0-.29.15.36.36,0,0,0,0,.24h0a.3.3,0,0,1,.13-.28.21.21,0,0,1,.29.09c-.05-.07,0-.09.05,0a.29.29,0,0,1,0,.09.28.28,0,0,0-.42,0,.39.39,0,0,0,0,.11c0,.05,0,0-.07.05v.1C345.81,190.77,345.91,190.56,345.93,190.59Z"/><path class="cls-14" d="M346.65,191.86l0-.08c0,.11,0,.21.05.32A.34.34,0,0,0,346.65,191.86Z"/></g><g class="cls-13"><path class="cls-14" d="M371.12,191.55v-.23l0,.11C371.08,191.49,371.11,191.51,371.12,191.55Z"/><path class="cls-14" d="M371.14,191.1v0Z"/><path class="cls-14" d="M371.15,190.7a.68.68,0,0,0,0,.2A1.12,1.12,0,0,0,371.15,190.7Z"/><path class="cls-14" d="M371.09,191s0,0,0,0h0v-.12A.36.36,0,0,1,371.09,191Z"/><path class="cls-14" d="M371.09,191l0,.08Z"/><path class="cls-14" d="M370.76,190.88s.09,0,.08-.12a1,1,0,0,1,.18-.64c.06-.12.26-.13.35-.18s1,0,.55-.15a.92.92,0,0,0-1.16.83,6.36,6.36,0,0,0,.07,1c0,.1,0,.18,0,.27l.05-.36C370.9,191.36,370.77,191.16,370.76,190.88Z"/><path class="cls-14" d="M371,193.3l0-.13a1.09,1.09,0,0,0,0-.57l-.05.09c0,.11,0,.12.05,0a2.52,2.52,0,0,0-.07.66S371,193.36,371,193.3Z"/><path class="cls-14" d="M371,193.5v-.13h0v.12Z"/><path class="cls-14" d="M371.59,190.12a.74.74,0,0,1,.65.34,1.29,1.29,0,0,1,.18.72.16.16,0,0,1,0,.12.36.36,0,0,0,0,.11l0,.22v.08h0s0,0,0,0a.3.3,0,0,1,0-.08l0,.08a1.17,1.17,0,0,0-.05.11.75.75,0,0,1,0,.21,1.25,1.25,0,0,1,0-.21v-.16l-.08.5v.1a.49.49,0,0,1-.08.31l0,.08h0v0l-.1.37a2.09,2.09,0,0,1,0,.25l-.07.07a.66.66,0,0,1,0,.15c0-.06.09-.11.13-.16s0-.21.07-.28c-.12.07,0,.21-.07.28s-.09.1-.13.16a1,1,0,0,1-.17.37.64.64,0,0,1,.17-.37.66.66,0,0,0,0-.15l.07-.07a2.09,2.09,0,0,0,0-.25c-.07.23-.14.47-.23.71s-.3.75-.48,1.11c-.09.18-.18.35-.25.46s-.14.27-.28.32-.27-.09-.33-.21a1.8,1.8,0,0,1-.12-.43c-.09-.4-.16-.8-.22-1.22a12.4,12.4,0,0,1,0-2.65c0-.45.12-1.1.14-1.17s.07-.39.26-.32.09.25.08.35,0,.11,0,.15l0,.56a24.27,24.27,0,0,0,.2,2.58c.24.86.61.37.63.33.3-.57.07-1,.18-2.08,0,.75-.28-.53-.1-1.26l.05-.2c0-.1,0-.24,0-.37a3.23,3.23,0,0,0-.05-.83,1,1,0,0,0-.77-.83,1,1,0,0,0-1,.51,2,2,0,0,0-.25.67c-.08.23-.08.53-.14.79a9.42,9.42,0,0,0-.09,1.09,10.92,10.92,0,0,0,.16,3c0,.24.1.48.16.73l.09.36.07.28a2,2,0,0,0,.11.32,1,1,0,0,0,.86.71,1,1,0,0,0,1-.62c.06-.11.13-.22.18-.33l.09-.21a2.72,2.72,0,0,0,.13-.37c.08-.24.14-.48.2-.72s.26-.67.33-.94a5.36,5.36,0,0,0,.16-1.19,8.2,8.2,0,0,1-.17,1.15c-.07.3-.06-.23-.05-.43s.13-.2.12-.29a2.58,2.58,0,0,0,0-.56c0-.08.09-.06.08-.11,0-.27-.09-.49-.07-.67a1.87,1.87,0,0,0,0-.41.78.78,0,0,0-.07-.25l-.09-.15a.2.2,0,0,1-.06.11,1,1,0,0,0-.13-.25,1,1,0,0,1,.13.25.2.2,0,0,0,.06-.11A1,1,0,0,0,372,190a.72.72,0,0,0-.66.09h0a.57.57,0,0,1,.68.07c-.08-.06-.06-.08.05,0a.41.41,0,0,1,0,.09,2.1,2.1,0,0,0-.57-.17.58.58,0,0,0-.11.07.09.09,0,0,1-.1,0l-.11.09A.75.75,0,0,1,371.59,190.12Z"/><path class="cls-14" d="M372.38,191.84v-.11l-.07.42A.57.57,0,0,0,372.38,191.84Z"/></g><g class="cls-13"><path class="cls-14" d="M364.53,201.11l0-.17a.29.29,0,0,1,0,.09S364.51,201.09,364.53,201.11Z"/><path class="cls-14" d="M364.48,200.79v0l0,0Z"/><path class="cls-14" d="M364.39,200.5a.66.66,0,0,0,0,.15A.56.56,0,0,0,364.39,200.5Z"/><path class="cls-14" d="M364.42,200.74s0,0,0,0h0l0-.08A.28.28,0,0,1,364.42,200.74Z"/><path class="cls-14" d="M364.42,200.74l0,.06S364.41,200.76,364.42,200.74Z"/><path class="cls-14" d="M364.07,200.74s.08,0,.05-.09-.11-.22-.16-.34,0-.16,0-.2-.3-.38-.22-.2a5.45,5.45,0,0,1,.27.69,4.11,4.11,0,0,1,.25.61,1.09,1.09,0,0,1,0,.18v-.25C364.29,201,364.13,200.91,364.07,200.74Z"/><path class="cls-14" d="M364.57,202.36l0-.09a.58.58,0,0,0,0-.41l0,.07c0,.08,0,.08.05,0a1.25,1.25,0,0,0,0,.47S364.56,202.4,364.57,202.36Z"/><path class="cls-14" d="M364.51,202.5v-.09h0l0,.09Z"/><path class="cls-14" d="M364.12,199.93a4.6,4.6,0,0,0-.5-1s-.06,0-.07-.05a.29.29,0,0,0,0-.09l-.1-.12,0,0h0s0,0,0,0a.13.13,0,0,0,0,.06v-.06a.2.2,0,0,0,0-.08.52.52,0,0,1-.1-.11.35.35,0,0,1,.1.11l.07,0,0,0-.23-.28-.07,0c-.07,0-.15-.09-.16-.16l-.05,0h0l0,0a1.12,1.12,0,0,0-.22-.16l-.18-.05,0-.07a.24.24,0,0,1-.12,0,1,1,0,0,1,.09.13c0,.07.16,0,.17.1,0-.11-.15,0-.17-.1a1,1,0,0,0-.09-.13.51.51,0,0,1-.24-.16.3.3,0,0,1,.24.16.24.24,0,0,0,.12,0l0,.07.18.05a2,2,0,0,0-.48-.27,4.83,4.83,0,0,0-3.47,0,8.86,8.86,0,0,0-1.81.76,8,8,0,0,0-2.67,2.72,3.49,3.49,0,0,0-.38,2c.25.69.61.23.63.21.3-.4.06-.68.42-1.34-.24.46-.15-.43.29-.75.6-.4.93-1.29,1.66-1.75.17-.11.33-.25.54-.38a6.85,6.85,0,0,1,3.49-1.08c.34,0,.63,0,.92,0a2,2,0,0,1,.52.28c.23.12.41.25.61.36a3.12,3.12,0,0,0-.59-.37c-.15-.09.17,0,.3,0s.05.15.1.17.21.09.3.17,0,.09,0,.1.31.13.35.25l.09.22.07.12.06.07.07-.08.05.15-.05-.15-.07.08a2.87,2.87,0,0,1,.43.64h0a1.34,1.34,0,0,1-.1-.45c0,.07,0,.07-.06,0l0-.08a.48.48,0,0,1,.13.38l.06.07s0,.05-.05.07l0,.08A1.55,1.55,0,0,0,364.12,199.93Z"/><path class="cls-14" d="M363.32,198.58l.05,0-.19-.23A.3.3,0,0,0,363.32,198.58Z"/></g><g class="cls-13"><path class="cls-14" d="M398.32,216.58l0-.12a.1.1,0,0,1,0,0S398.31,216.56,398.32,216.58Z"/><path class="cls-14" d="M398.38,216.34v0Z"/><path class="cls-14" d="M398.4,216.11a.5.5,0,0,0,0,.12A.37.37,0,0,0,398.4,216.11Z"/><path class="cls-14" d="M398.34,216.29s0,0,0,0h0v-.07A.21.21,0,0,1,398.34,216.29Z"/><path class="cls-14" d="M398.34,216.29l0,0Z"/><path class="cls-14" d="M398,216.16s.09,0,.07,0a1.51,1.51,0,0,1,0-.3c0-.05.11-.1.1-.15s-.07-.4-.1-.24-.05.4-.07.61l0,.54c0,.05,0,.1,0,.14l.08-.18C398.11,216.44,398,216.31,398,216.16Z"/><path class="cls-14" d="M398.09,217.51l0-.07a.35.35,0,0,0,.07-.31l-.05,0c0,.06,0,.07.05,0a.67.67,0,0,0-.12.35S398.07,217.54,398.09,217.51Z"/><path class="cls-14" d="M398,217.61v-.07h0v.07Z"/><path class="cls-14" d="M398.41,215.63c.06-.29.13-.57.21-.83,0,0,0-.05,0-.07l.05-.06,0-.11v0h0s0,0,0,0a.05.05,0,0,1,0,0l0,0a.1.1,0,0,0,0-.05.35.35,0,0,1,0-.11.2.2,0,0,1,0,.11v.09l.09-.26v-.06c0-.06,0-.13.07-.16l0,0h0l.08-.19s0-.1,0-.15l.06,0a.13.13,0,0,1,0-.09l-.12.07c-.06,0,.06.13,0,.16.1,0,0-.13,0-.16l.12-.07a.24.24,0,0,1,.12-.18c0,.09-.06.14-.12.18a.13.13,0,0,0,0,.09l-.06,0c0,.05,0,.1,0,.15,0-.13.11-.25.16-.38a8.82,8.82,0,0,1,1.37-2.22,6.34,6.34,0,0,1,1.07-.95,8.29,8.29,0,0,1,2.31-1.43,8.83,8.83,0,0,0,1.2-.68.37.37,0,0,0-.11-.62c-.42-.16-.53.12-1.16.25.41-.12-.14.35-.59.35-.69,0-1.19.72-1.8,1.09-.15.1-.29.24-.45.37a7.41,7.41,0,0,0-2.05,2.65,3.11,3.11,0,0,0-.22.83c-.06.19-.18.36-.23.5a3.24,3.24,0,0,0-.12.64l.14-.61c0-.16.08.14.07.26s-.12.08-.11.13a1.06,1.06,0,0,0,0,.31c0,.05-.09,0-.08,0s.07.29,0,.38l-.09.18s0,.07,0,.11v.08h.11l-.06.12.06-.12h-.11c0,.2,0,.43,0,.64h0a.65.65,0,0,1,.13-.34s0,0,0,0l.06,0c0,.11,0,.22-.08.3v.07s0,0-.07,0v.07A.85.85,0,0,0,398.41,215.63Z"/><path class="cls-14" d="M398.71,214.45v.05a1.8,1.8,0,0,1,.08-.21C398.72,214.31,398.71,214.38,398.71,214.45Z"/></g><g class="cls-13"><path class="cls-14" d="M325.27,221.39l0-.13a.17.17,0,0,1,0,.07S325.25,221.37,325.27,221.39Z"/><path class="cls-14" d="M325.2,221.14v0h0Z"/><path class="cls-14" d="M325.1,220.92a.36.36,0,0,0,0,.11A.19.19,0,0,0,325.1,220.92Z"/><path class="cls-14" d="M325.14,221.11s0,0,0,0h0l0-.07Z"/><path class="cls-14" d="M325.14,221.11l0,0S325.13,221.12,325.14,221.11Z"/><path class="cls-14" d="M324.8,221.16s.07,0,0-.09a1.11,1.11,0,0,1-.17-.27s0-.14,0-.18-.28-.33-.22-.17l.26.59.29.49a.74.74,0,0,1,0,.14l0-.2C325,221.37,324.87,221.29,324.8,221.16Z"/><path class="cls-14" d="M325.53,222.36l0-.05a.41.41,0,0,0-.09-.32l0,.06q0,.09.06,0a.7.7,0,0,0,.06.38S325.53,222.4,325.53,222.36Z"/><path class="cls-14" d="M325.51,222.49l0-.06h0l0,.07Z"/><path class="cls-14" d="M324.86,220.47l-.29-.86s-.05,0-.05-.06a.2.2,0,0,0,0-.07l0-.13,0,0h0s0,0,0,0,0,0,0,.06v-.06a.15.15,0,0,0,0-.07.37.37,0,0,1-.05-.11.34.34,0,0,1,.05.11l0,.06,0,0-.09-.28,0-.05c0-.06-.07-.12,0-.18l0,0h0v0l-.07-.21-.1-.12,0-.06a.16.16,0,0,1-.08-.06l0,.13c0,.06.13.07.06.16.07-.09-.09-.1-.06-.16l0-.13a.3.3,0,0,1,0-.23.22.22,0,0,1,0,.23.16.16,0,0,0,.08.06l0,.06.1.12-.13-.42a10.48,10.48,0,0,0-1.24-2.57,6.1,6.1,0,0,0-1.07-1.25,5.13,5.13,0,0,0-3.09-.81,4.44,4.44,0,0,0-.81.11l-.74.26a.35.35,0,0,0,0,.63c.41.25.57-.05,1.21,0-.43,0,.27-.29.68-.11.56.31,1.28.05,1.84.39.12.1.27.15.42.25a7.21,7.21,0,0,1,1.79,2.42c.14.27.32.48.46.7a4.63,4.63,0,0,1,.18.52,3.48,3.48,0,0,0,.29.58l-.27-.57c-.06-.16.15.06.22.15s0,.15,0,.18a1.34,1.34,0,0,0,.17.27s-.06.06,0,.08.23.21.24.31l0,.2a.56.56,0,0,0,0,.12l.05.07a.27.27,0,0,1,.08-.07v0a.27.27,0,0,0-.08.07c.11.17.24.37.34.56h0a.81.81,0,0,1-.07-.38c0,.06,0,.07-.05,0l0-.07a.42.42,0,0,1,.09.32l0,.06s0,0,0,.06l0,.07A1,1,0,0,0,324.86,220.47Z"/><path class="cls-14" d="M324.44,219.25l0,.05-.08-.23C324.36,219.12,324.4,219.19,324.44,219.25Z"/></g></g></svg>