<svg xmlns="http://www.w3.org/2000/svg" viewBox="0 0 768 768"><metadata><?xpacket begin="﻿" id="W5M0MpCehiHzreSzNTczkc9d"?>
<x:xmpmeta xmlns:x="adobe:ns:meta/" x:xmptk="Adobe XMP Core 6.0-c002 79.164488, 2020/07/10-22:06:53        ">
   <rdf:RDF xmlns:rdf="http://www.w3.org/1999/02/22-rdf-syntax-ns#">
      <rdf:Description rdf:about=""
            xmlns:dc="http://purl.org/dc/elements/1.1/"
            xmlns:photoshop="http://ns.adobe.com/photoshop/1.0/"
            xmlns:xmpRights="http://ns.adobe.com/xap/1.0/rights/"
            xmlns:xmp="http://ns.adobe.com/xap/1.0/"
            xmlns:xmpMM="http://ns.adobe.com/xap/1.0/mm/"
            xmlns:stEvt="http://ns.adobe.com/xap/1.0/sType/ResourceEvent#">
         <dc:creator>
            <rdf:Seq>
               <rdf:li>orsolya veres</rdf:li>
            </rdf:Seq>
         </dc:creator>
         <dc:rights>
            <rdf:Alt>
               <rdf:li xml:lang="x-default">orsolya veres / www.fitmithanno.fun</rdf:li>
            </rdf:Alt>
         </dc:rights>
         <photoshop:Country>austria</photoshop:Country>
         <xmpRights:WebStatement>www.fitmithanno.fun</xmpRights:WebStatement>
         <xmp:MetadataDate>2021-01-31T21:42:50+01:00</xmp:MetadataDate>
         <xmpMM:InstanceID>xmp.iid:e575e454-c9a2-4a22-a837-4c77ac1ba72a</xmpMM:InstanceID>
         <xmpMM:DocumentID>xmp.did:e575e454-c9a2-4a22-a837-4c77ac1ba72a</xmpMM:DocumentID>
         <xmpMM:OriginalDocumentID>xmp.did:e575e454-c9a2-4a22-a837-4c77ac1ba72a</xmpMM:OriginalDocumentID>
         <xmpMM:History>
            <rdf:Seq>
               <rdf:li>
                  <rdf:Description>
                     <stEvt:action>saved</stEvt:action>
                     <stEvt:instanceID>xmp.iid:e575e454-c9a2-4a22-a837-4c77ac1ba72a</stEvt:instanceID>
                     <stEvt:when>2021-01-31T21:42:50+01:00</stEvt:when>
                     <stEvt:softwareAgent>Adobe Bridge 2021 (Macintosh)</stEvt:softwareAgent>
                     <stEvt:changed>/metadata</stEvt:changed>
                  </rdf:Description>
               </rdf:li>
            </rdf:Seq>
         </xmpMM:History>
      </rdf:Description>
   </rdf:RDF>
</x:xmpmeta>
                                                                                                    
                                                                                                    
                                                                                                    
                                                                                                    
                                                                                                    
                                                                                                    
                                                                                                    
                                                                                                    
                                                                                                    
                                                                                                    
                                                                                                    
                                                                                                    
                                                                                                    
                                                                                                    
                                                                                                    
                                                                                                    
                                                                                                    
                                                                                                    
                                                                                                    
                                                                                                    
                           
<?xpacket end="w"?></metadata>
<defs><style>.cls-1{fill:#7d8b96;}.cls-2{fill:#bfc9d2;}.cls-3{fill:none;}.cls-4{fill:#caa869;}.cls-5{fill:#ffe354;}.cls-6{fill:#fee9d6;}.cls-7{fill:#e4edf2;}.cls-8{fill:#c4e4cd;}.cls-9{fill:#e3f2eb;}.cls-10{fill:#82c3eb;}.cls-11{fill:#e4c4af;}.cls-12{fill:#987562;}.cls-13{fill:#896e59;}.cls-14{fill:#928f00;}.cls-15{fill:#4e6a15;}.cls-16{opacity:0.85;}.cls-17{fill:#202020;}.cls-18{fill:#ef5160;}.cls-19{fill:#7d2b42;}</style></defs><g id="Layer_8" data-name="Layer 8"><g id="dumbbell"><polygon class="cls-1" points="249.13 525.06 249.6 525.22 249.5 525.5 246.63 531.23 246.62 531.23 246.56 531.39 243.94 537.83 229.38 544.88 215.18 539.11 212.78 532.49 226.36 538.01 242.53 530.18 248.2 516.22 250.34 522.1 249.13 525.06"/><polygon class="cls-1" points="341.34 556.1 334.94 571.83 320.38 578.88 306.18 573.11 303.95 566.97 316.36 572.01 332.53 564.18 338.73 548.91 341.34 556.1"/><polygon class="cls-2" points="338.73 548.91 332.53 564.18 316.36 572.01 303.95 566.97 300.66 557.9 303.54 550.82 294.81 547.82 246.63 531.23 249.5 525.5 249.6 525.22 297.32 541.65 305.7 544.54 306.05 544.66 307.06 542.17 321.62 535.12 335.82 540.89 338.73 548.91"/><polygon class="cls-2" points="248.2 516.21 248.2 516.22 242.53 530.18 226.36 538.01 212.78 532.49 209.66 523.9 216.06 508.17 230.62 501.12 244.82 506.89 248.2 516.21"/><polyline class="cls-3" points="246.63 531.23 246.56 531.39 246.5 531.5"/></g><g id="kb"><path class="cls-4" d="M544.82,620.76c-7.76,2.67-18.11,4.25-28.32-.26A35,35,0,0,1,504.84,612q3.2-1.34,6.66-2.54c3.75-1.3,7.4-2.35,10.91-3.19a39.33,39.33,0,0,1,13.53,5.93A38,38,0,0,1,544.82,620.76Z"/><path class="cls-4" d="M551.5,640.5c0,19.06-16.81,34.32-35,35-11.93.45-23.24-5.41-30.39-14.37,12.06,5.39,25.7,5.72,37.39.37,13.28-6.08,22.62-18.86,25.37-33.75A32.13,32.13,0,0,1,551.5,640.5Z"/><path class="cls-5" d="M548.87,627.75c-2.75,14.89-12.09,27.67-25.37,33.75-11.69,5.35-25.33,5-37.39-.37h0a33.73,33.73,0,0,1-7.6-23.62,31.69,31.69,0,0,1,2.65-10.39c.37-.85.78-1.68,1.22-2.5a113.5,113.5,0,0,1,14-8.57,36.89,36.89,0,0,1-1-5l-.06-.6a16.56,16.56,0,0,1,1.23-9,17.15,17.15,0,0,1,6.43-6.84c1.14-.76,2.35-1.45,3.57-2.16,5-2.91,12.58-7.29,19-4a11.45,11.45,0,0,1,3.9,3.32c-1.84.46-5.55,1.75-8.12,2.67a4.32,4.32,0,0,0-.82-.07q-.32,0-.63,0l-.59.08-.57.11c-2.88.67-6.29,2.64-8.62,4-3.78,2.19-6,3.55-7.2,6a7.36,7.36,0,0,0-.67,2.74c0,.11,0,.22,0,.33a19.74,19.74,0,0,0,.64,5.21c.67-.3,1.35-.59,2-.88a35,35,0,0,0,11.66,8.46c10.21,4.51,20.56,2.93,28.32.26A34.5,34.5,0,0,1,548.87,627.75Z"/><path class="cls-4" d="M535.94,612.24a39.59,39.59,0,0,0-8.41-4.39l-.63-2.5c2.42-.47,4.77-.85,7-1.15C534.59,606.88,535.27,609.56,535.94,612.24Z"/></g><path class="cls-5" d="M372.5,125.5c-17,2-32.67,16-34,34-1.56,21.13,9,40,38,40,18.93,0,35.62-15.4,37-34C415.5,138.5,394.34,122.93,372.5,125.5ZM406.43,165c-1.1,14.87-14.81,27.43-29.93,27.43-10.76,0-18.88-2.86-24.13-8.51-6.56-7.06-7.32-16.88-6.8-23.88,1.13-15.29,15-26,27.76-27.48a33.31,33.31,0,0,1,3.86-.23A29.67,29.67,0,0,1,399,141.46C404.56,147.43,407.13,155.57,406.43,165Z"/><path d="M382.93,135.18s2.36.64-1.64.44l-3.2.09-2.37.44-2.32-.25a13.65,13.65,0,0,1-.4-2.68c-.25-2.32-.59-6.6-1.11-14.42a87.26,87.26,0,0,1-1.24-14.67s.15-15.25-.3-31.08-1.4-32.24-.94-34.59c0,0,.45,9.59.7,19.48s.36,20,.72,21.25c0,0,.06-9.16,0-18.7s-.24-19.44.25-20.91c0,0,.38,8.92.77,18.22s.75,19,1.62,20.53c0,0,.09-8.22.18-16.95s.09-18,.71-20.06a75.58,75.58,0,0,0,.25,8l.24-3,.32,4.74L375,53.87s.14-1.88.33-3.82a17.46,17.46,0,0,1,.7-4.25s-.24-.83-.3,0,.06,3.35.68,10c0,0-.1,2-.09,5.72s.13,9.17.5,16.09C377.56,91.5,379.29,111.15,382.93,135.18Z"/><path d="M372.38,136.33s-.27-4.77-.66-11.85-1-16.43-1.68-25.62c0,0,0-10-.35-20.54s-.91-21.6-.88-23.75c0,0-.18-2.9-.34-6.66s-.31-8.4-.16-11.88"/><path d="M369.68,78.18c-.12,1.62.11,8.49.25,15s.21,12.53.21,12.53c0,4.84.6,12.48,1.16,18.94s1.08,11.72,1.08,11.72"/><path d="M372.9,77.25s-.06-7.2-.26-15.18-.55-16.77-.52-19.94"/><path d="M377.74,85.21s.11-8.34,0-17-.28-17.76-.14-19.18"/><path class="cls-6" d="M317.72,414.44h0c-13.86,23.85-17.19,40.09-17.22,51.05a67.12,67.12,0,0,1-2,19c-3,11.45-7.76,16.12-14,29-1.51,3.12-3.35,7.22-5.21,12.26h0c-6.14,6.65-10.48,16.36-10.77,24.25h0c.11-15.49,6.11-14.12,8-23.52a13.53,13.53,0,0,0,0-5.19c13-27.78,18-48.88,20-63.81,2.3-17.11,3.17-44.38,11-62a32.66,32.66,0,0,0,2.86-10.16,8.33,8.33,0,0,1,5.14,4.16C318.73,396,318.37,404.46,317.72,414.44Z"/><path class="cls-7" d="M367.69,609.51a16.46,16.46,0,0,1-7.19,4,15.93,15.93,0,0,1-5.13.47,13.32,13.32,0,0,1-1.62-.19c-.75-11.08-2-21.26-3.32-30.52a17.23,17.23,0,0,0,3.07.24,17.7,17.7,0,0,0,7.61-1.86C363.05,591.48,365.3,600.83,367.69,609.51Z"/><path class="cls-7" d="M360.75,579.81a17.64,17.64,0,0,1-7.25,1.69,18.13,18.13,0,0,1-3.36-.29q-.93-6.23-1.87-11.87a19.51,19.51,0,0,0,3.23.16,20.48,20.48,0,0,0,7.15-1.56Q359.61,574,360.75,579.81Z"/><path class="cls-8" d="M390.51,438.64c-1,.06-2.09.14-3.21.25a90.28,90.28,0,0,0-24.45,5.84A34.09,34.09,0,0,0,368,436c4.48-11.19,2.86-25.15-4.36-38.54,2.51,2.73,4.79,5.43,6.86,8C379.13,416.4,384.34,425.39,390.51,438.64Z"/><path class="cls-8" d="M341.49,377.43c-1.24.42-2.52.8-3.81,1.12a31.06,31.06,0,0,0-3.77-6.39Q337.84,374.71,341.49,377.43Z"/><path class="cls-9" d="M368,436a34.09,34.09,0,0,1-5.15,8.73c-.79.3-1.59.63-2.39,1q-2.94,1.26-6,2.8a90.58,90.58,0,0,0-26.74,20.95c-.81.93-1.57,1.83-2.26,2.7-2.81-8-5-13.68-6-17.65-3.68-14.75-2.53-28.4-1.78-40.05h0c.65-10,1-18.48-2.22-24.94a8.33,8.33,0,0,0-5.14-4.16c.06-.59.11-1.21.14-1.84a30,30,0,0,0-.18-5.13,49,49,0,0,1,11.18,5.13c8.25,5.13,12.95,11.51,16,10,2.17-1.07,2.05-5.4,2-7a21.55,21.55,0,0,0-1.82-7.95c1.29-.32,2.57-.7,3.81-1.12,3.19,2.36,6.22,4.81,9.08,7.29a157.4,157.4,0,0,1,13.07,12.74C370.86,410.85,372.48,424.81,368,436Z"/><path class="cls-7" d="M468.14,579.32a31.43,31.43,0,0,1-3.64,4.18,30.48,30.48,0,0,1-6.2,4.6c-4.34-7.16-8.87-14.48-13.52-21.77a23.32,23.32,0,0,0,4.72-2.83,22.34,22.34,0,0,0,3-2.81C458.12,568,463.56,574.42,468.14,579.32Z"/><path class="cls-6" d="M443.79,548.72a34.21,34.21,0,0,1-3.29,2.78,32.73,32.73,0,0,1-3.76,2.42c-7-10.59-14.14-20.91-21.24-30.42Q400.68,503.67,386,486.07a74.21,74.21,0,0,1,9.55-4.57c1.94-.77,3.84-1.42,5.69-2a9.1,9.1,0,0,0,5.36-4.29c4.81,11.06,10.62,24.23,17.95,40.27A223.61,223.61,0,0,0,443.79,548.72Z"/><path class="cls-7" d="M451.17,558.93a22.79,22.79,0,0,1-3.67,3.57,23.57,23.57,0,0,1-3.67,2.33c-2.34-3.65-4.7-7.3-7.09-10.91a32.73,32.73,0,0,0,3.76-2.42,34.21,34.21,0,0,0,3.29-2.78C446.23,552.26,448.71,555.68,451.17,558.93Z"/><path class="cls-10" d="M452.51,560.69a22.34,22.34,0,0,1-3,2.81,23.32,23.32,0,0,1-4.72,2.83c-.31-.5-.63-1-.95-1.5a23.57,23.57,0,0,0,3.67-2.33,22.79,22.79,0,0,0,3.67-3.57C451.62,559.53,452.06,560.11,452.51,560.69Z"/><path class="cls-11" d="M356.37,204.44a14.09,14.09,0,0,1-3.88-.75,5.69,5.69,0,0,1-3-2.19c-1.57-2.4-.16-5.08-2-9a12.07,12.07,0,0,0-1.64-2.58,15.91,15.91,0,0,0,1.61-.89,30.54,30.54,0,0,0,9.29,6.59A32.5,32.5,0,0,0,356.37,204.44Z"/><path class="cls-11" d="M321.5,338.5a22.18,22.18,0,0,1-.54,4.56A30.25,30.25,0,0,1,312.21,358a34.69,34.69,0,0,1-7.23,5.36,31.69,31.69,0,0,1-25.16,2.73A49.46,49.46,0,0,0,307,351a47.23,47.23,0,0,0,11.53-24A23.75,23.75,0,0,1,321.5,338.5Z"/><path class="cls-6" d="M318,326a35.69,35.69,0,0,0-7.75-9.17c-.32-2.7-.91-4.14-1.76-4.35a3.36,3.36,0,0,0-3.18.72,40.76,40.76,0,0,0-4.09-2.26,40.25,40.25,0,0,0-5-2l-.13,0c-6.55,1-17.47,4.26-24.62,14.54a34.76,34.76,0,0,0-6,18.58h0a26.48,26.48,0,0,0-5.08,2.12c-.57.29-1.14.57-1.73.82-.38.17-.76.33-1.15.47a13.91,13.91,0,0,1-1.41.43,20.09,20.09,0,0,1-10.59-.43,38.11,38.11,0,0,1,8.06,5.2,34.57,34.57,0,0,1,2.94,2.8c5,5.34,5.84,9.55,10,11,1.71.6,4.19.8,7.76-.7a33.41,33.41,0,0,0,5.56,2.26A49.46,49.46,0,0,0,307,351a47.23,47.23,0,0,0,11.53-24C318.37,326.65,318.19,326.33,318,326Zm-52,30a16.46,16.46,0,0,1-5-5.74,17.18,17.18,0,0,1,11.93,3A22.17,22.17,0,0,1,274,356a21.87,21.87,0,0,1,.75,3A16.68,16.68,0,0,1,266,356Z"/><path class="cls-11" d="M318,326a35.69,35.69,0,0,0-7.75-9.17c-.32-2.7-.91-4.14-1.76-4.35a3.36,3.36,0,0,0-3.18.72,40.76,40.76,0,0,0-4.09-2.26c.08-.15.17-.31.27-.46,1.12-1.82,2-2.38,3-4a14.13,14.13,0,0,0,2-6,29,29,0,0,0,5,10c2.73,3.49,4.69,4.25,6,7C318.36,319.31,319,322,318,326Z"/><path class="cls-5" d="M296.12,309c-6.55,1-17.47,4.26-24.62,14.54a34.76,34.76,0,0,0-6,18.58h0a26.48,26.48,0,0,0-5.08,2.12,36.13,36.13,0,0,1,6.26-23.29,35.48,35.48,0,0,1,20.63-13.72h0a43.45,43.45,0,0,1,6.09-1.09h0a14.42,14.42,0,0,1,2.68,2.77Z"/><path class="cls-12" d="M260,317c-1.38,4.47-3.4,4.91-8,13-.94,1.66-1.74,3.19-2.4,4.54a11.25,11.25,0,0,1-.23-1.33,11.48,11.48,0,0,1,.13-3.71,11.91,11.91,0,0,1,2.32-4.85c1.6-2.24,3.58-4.49,4.68-9.15,1-4.14.12-5.37.49-9a26.28,26.28,0,0,1,.51-3,29,29,0,0,1,2.58-7.77,11.05,11.05,0,0,1,.68-1.14A56.5,56.5,0,0,0,260,302C259.69,310.45,261.54,312,260,317Z"/><path class="cls-13" d="M293.37,306.11a43.45,43.45,0,0,0-6.09,1.09h0a35.48,35.48,0,0,0-20.63,13.72,36.13,36.13,0,0,0-6.26,23.29c-.57.29-1.14.57-1.73.82-.38.17-.76.33-1.15.47a13.91,13.91,0,0,1-1.41.43c-4-4.6-5.83-8.35-6.49-11.39.66-1.35,1.46-2.88,2.4-4.54,4.6-8.09,6.62-8.53,8-13,1.54-5-.31-6.55,0-15a56.5,56.5,0,0,1,.76-7.41,14.09,14.09,0,0,1,2.74-3.09c.48-.39,4.29-3.59,7.93-3.47a4.28,4.28,0,0,1,.87.09c1.55,1.5,3.79,4.29,3.7,7.88a12.13,12.13,0,0,1-.32,2.3c-.35,1.53-1.1,3.31-2.68,3.7a3.71,3.71,0,0,1-4-2,4.21,4.21,0,0,1,1.86-5.16c-2.9,1.66-4.13,4.63-3.36,6.66,1.06,2.76,5.77,3.54,8,2a4.55,4.55,0,0,0,1.52-2,13.82,13.82,0,0,0,4.48,2c3.6.86,5.7-.24,9,1A10.9,10.9,0,0,1,293.37,306.11Z"/><path class="cls-12" d="M277,301.52a4.55,4.55,0,0,1-1.52,2c-2.23,1.54-6.94.76-8-2-.77-2,.46-5,3.36-6.66A4.21,4.21,0,0,0,269,300a3.71,3.71,0,0,0,4,2c1.58-.39,2.33-2.17,2.68-3.7A12.13,12.13,0,0,0,276,296c.09-3.59-2.15-6.38-3.7-7.88a4.78,4.78,0,0,1,1.2.38C277.65,290.44,278.76,297.64,277,301.52Z"/><path class="cls-5" d="M376.38,486.09a49.05,49.05,0,0,0-17.88,7.41c-1.06.73-2.37,1.69-3.93,2.68a28.21,28.21,0,0,1-11.07,4.32c-2.87.41-5.07.2-7-1a9.32,9.32,0,0,1-3.79-5.21l-.09-.31c-2.56-8.67-5-15.88-7.12-21.83.69-.87,1.45-1.77,2.26-2.7q3.38,10.53,6.74,21.05c.71,1.53,2.51,4.84,6,6,1.73.58,4,.66,10-2,1.67-.74,3.05-1.43,4.26-2.1,3.91-2.16,6-4,9.74-5.9a38.86,38.86,0,0,1,9.12-3.21C374.54,484.32,375.48,485.25,376.38,486.09Z"/><path class="cls-5" d="M406.55,475.23a9.1,9.1,0,0,1-5.36,4.29c-1.85.56-3.75,1.21-5.69,2a74.21,74.21,0,0,0-9.55,4.57c-1.68,1-8.46,4.07-12.43,5.67,1.43-1.29,2.7-2.57,3.82-3.78h0l.65-.41c1.72-1.1,3.83-2.44,6-3.76h0a81.61,81.61,0,0,1,10.21-5.45c1.95-.76,3.95-1.46,5.95-2.06a5.74,5.74,0,0,0,3.93-4,5.91,5.91,0,0,0,.2-2.12,5.69,5.69,0,0,0-1.41-3.28v0l-.1-.11c-.28-.3-.56-.62-.84-.93-5.11-5.69-7.81-11.75-10.19-17.1-.94-2.11-2.87-6.48-4.48-9.78,1.12-.11,2.19-.19,3.21-.25h.07C395.1,446,397,455.16,404.5,463.5c.27.31.55.61.82.91A9.25,9.25,0,0,1,406.55,475.23Z"/><path class="cls-14" d="M404.33,470.11a5.91,5.91,0,0,1-.2,2.12,5.74,5.74,0,0,1-3.93,4c-2,.6-4,1.3-5.95,2.06A81.61,81.61,0,0,0,384,483.78h0c-2.19,1.32-4.3,2.66-6,3.76l-.65.41c.16-.19.33-.37.49-.55-.48-.41-1-.84-1.47-1.31-.9-.84-1.84-1.77-2.76-2.8a38.86,38.86,0,0,0-9.12,3.21c-3.78,1.9-5.83,3.74-9.74,5.9-1.21.67-2.59,1.36-4.26,2.1-6,2.66-8.27,2.58-10,2-3.49-1.16-5.29-4.47-6-6q-3.37-10.51-6.74-21.05A90.58,90.58,0,0,1,354.5,448.5q3-1.54,6-2.8a90.69,90.69,0,0,1,26.84-6.81c1.61,3.3,3.54,7.67,4.48,9.78,2.38,5.35,5.08,11.41,10.19,17.1.28.31.56.63.84.93l.1.11v0A5.69,5.69,0,0,1,404.33,470.11Z"/><path class="cls-6" d="M337.5,393.5c-3.05,1.51-7.75-4.87-16-10a49,49,0,0,0-11.18-5.13c-.07-.61-.16-1.22-.27-1.81A40,40,0,0,0,328,380a51.56,51.56,0,0,0,9.68-1.45,21.55,21.55,0,0,1,1.82,7.95C339.55,388.1,339.67,392.43,337.5,393.5Z"/><path class="cls-6" d="M355.5,265.5c-2.12,12.21-5.7,16.3-9,26-4.48,13.16-3.65,25.11-2,49,.31,4.53.76,9.61,1.41,15.17A108.37,108.37,0,0,1,335,343q-1.68-2.34-3.12-4.67c3.88-16.66,7.48-34.29,10.62-52.83,4.95-29.2,8.09-56.6,10-81.81a14.09,14.09,0,0,0,3.88.75c.18,1.1.53,1.86,1.13,2.06a2.25,2.25,0,0,0,2-.74,238.23,238.23,0,0,0-3,31.74C356.17,250.88,357.22,255.63,355.5,265.5Z"/><path class="cls-6" d="M350.57,384.72c-2.86-2.48-5.89-4.93-9.08-7.29a28.12,28.12,0,0,0,7.06-3.45Q349.43,379.17,350.57,384.72Z"/><path class="cls-11" d="M276.76,523.48a13.76,13.76,0,0,1-.26,3c-1.88,9.4-7.88,8-8,23.52,0,.16,0,.32,0,.48,0,1.94-1.89,2.71-3.84,2.52A34.48,34.48,0,0,1,266,541a40.41,40.41,0,0,1,7-13A52.67,52.67,0,0,1,276.76,523.48Z"/><path class="cls-6" d="M276.76,523.48A52.67,52.67,0,0,0,273,528a40.41,40.41,0,0,0-7,13,34.48,34.48,0,0,0-1.34,12c-2.05-.2-4.16-1.46-4.16-3.52,0-5.65,1.73-12.36,4.58-18.49a52.12,52.12,0,0,1,2.7-5.07,39.68,39.68,0,0,1,5.72-7.44c1.26-1.26,2.52.26,3,2.81A12,12,0,0,1,276.76,523.48Z"/><path class="cls-6" d="M285,529.26c-3.76,5.2-7.89,7.53-9.95,13.74a22.69,22.69,0,0,0-.68,11c-2.4.43-5.82-.77-5.82-3.09,0-.28,0-.57,0-.85.29-7.89,4.63-17.6,10.77-24.25h0a31.36,31.36,0,0,1,2.4-2.36C283.52,521.79,285.34,525.27,285,529.26Z"/><path class="cls-11" d="M293,531.49a8.77,8.77,0,0,1-.22,2.42c-1.82,7.76-7.6,6-7.6,19.06,0,1.36-1.26,2-2.75,2.06a20.89,20.89,0,0,1,.6-9c1.33-4.42,3.78-6.74,8-12C291.6,533.26,292.26,532.42,293,531.49Z"/><path class="cls-6" d="M293,531.49c-.71.93-1.37,1.77-2,2.51-4.22,5.26-6.67,7.58-8,12a20.89,20.89,0,0,0-.6,9c-2.12.09-4.7-1-4.9-2.88-1-9.65,5-16.65,12.38-24.78C291.23,525.88,292.87,528.34,293,531.49Z"/><path class="cls-6" d="M267.78,525.94a52.12,52.12,0,0,0-2.7,5.07,19.58,19.58,0,0,1-9.58-5.51c-2.63-2.85-5.61-8-4-10,1.06-1.32,4.06-1.16,6,0,2.26,1.35,2.18,3.5,4,6A12.91,12.91,0,0,0,267.78,525.94Z"/><path class="cls-10" d="M361.11,581.64a17.7,17.7,0,0,1-7.61,1.86,17.23,17.23,0,0,1-3.07-.24c-.09-.69-.19-1.37-.29-2a18.13,18.13,0,0,0,3.36.29,17.64,17.64,0,0,0,7.25-1.69Q360.92,580.72,361.11,581.64Z"/><path class="cls-15" d="M377.85,487.4c-.16.18-.33.36-.49.55h0c-1.12,1.21-2.39,2.49-3.82,3.78a59.89,59.89,0,0,1-19.2,11.73q.09-3.71.25-7.29c1.56-1,2.87-1.95,3.93-2.68a49.05,49.05,0,0,1,17.88-7.41C376.88,486.56,377.37,487,377.85,487.4Z"/><path class="cls-6" d="M358.65,567.94a20.48,20.48,0,0,1-7.15,1.56,19.51,19.51,0,0,1-3.23-.16c-1-6.12-2-11.73-2.77-16.84-2.75-17.72-6-32.63-9.19-45.15-1.21-4.68-2.42-9-3.6-13.06a9.32,9.32,0,0,0,3.79,5.21c1.93,1.2,4.13,1.41,7,1a28.21,28.21,0,0,0,11.07-4.32q-.17,3.58-.25,7.29a355.23,355.23,0,0,0,1.18,39C356.24,551.18,357.32,559.69,358.65,567.94Z"/><path class="cls-6" d="M349.5,187.5a14.19,14.19,0,0,1-2,1.53,15.91,15.91,0,0,1-1.61.89c-2.62,1.28-5.31,1.71-6.36.58-1.4-1.51.16-5.74,2.83-8.79h0a13.29,13.29,0,0,1,1.17-1.2c3.19-2.89,8.43-4.69,10-3S352.84,184.48,349.5,187.5Z"/><path class="cls-6" d="M366.35,180.35a79.92,79.92,0,0,0-5.68,24.2,11.52,11.52,0,0,1-1.21,1.21,2.25,2.25,0,0,1-2,.74c-.6-.2-.95-1-1.13-2.06a32.5,32.5,0,0,1,.39-8.82c.23-1.54.5-3,.74-4.12.94-4.44,2.42-11.44,6-12A3.55,3.55,0,0,1,366.35,180.35Z"/><path class="cls-11" d="M364.5,193.5c-.37,1.83-.59,3.29-.82,4.54a11.55,11.55,0,0,1-2.18,5.46c-.16.22-.46.61-.83,1.05a79.92,79.92,0,0,1,5.68-24.2l.15.15C368.29,182.39,366.15,185.3,364.5,193.5Z"/><path class="cls-6" d="M374.19,183.25a52.31,52.31,0,0,0-6.69,24.51c-.75,1-2.55,3.14-3.79,2.73-1.77-.6-.89-7.2.08-12.42.33-1.79.67-3.41.92-4.58.94-4.45,2.42-11.44,6-12a3.53,3.53,0,0,1,3,1A2.12,2.12,0,0,1,374.19,183.25Z"/><path class="cls-11" d="M373.78,187.41a43.75,43.75,0,0,0-2.28,8.09c-.27,1.29-.56,2.54-.81,3.72-.2,1-.37,1.92-.49,2.79a16.9,16.9,0,0,1-2.49,5.48l-.21.27a52.31,52.31,0,0,1,6.69-24.51C374.59,184.21,374.33,185.48,373.78,187.41Z"/><path class="cls-3" d="M363.79,198.07a.23.23,0,0,1-.11,0"/><path class="cls-6" d="M380.45,184.44a45.67,45.67,0,0,0-6,21.11c-1.26,1.11-3.23,2.38-3.95.95a8,8,0,0,1-.3-4.49c.12-.87.29-1.81.49-2.79.25-1.18.54-2.43.81-3.72a43.75,43.75,0,0,1,2.28-8.09c.9-2.07,2.09-3.66,3.72-3.91A3.13,3.13,0,0,1,380.45,184.44Z"/><g id="springschnurr"><g class="cls-16"><path class="cls-17" d="M395.89,585.27l-.26-2.4c0,.41,0,.81,0,1.22A5,5,0,0,0,395.89,585.27Z"/><path class="cls-17" d="M395.39,580.65l0-.42-.06-.36Z"/><path class="cls-17" d="M394.88,576.49c.07.74.15,1.44.24,2.12C395.08,578,395,577.31,394.88,576.49Z"/><path class="cls-17" d="M395.16,579.82c0-.26,0-.39.13,0v0l-.17-1.26C395.15,579.06,395.16,579.47,395.16,579.82Z"/><path class="cls-17" d="M395.16,579.82l0,.79C395.16,580.38,395.16,580.11,395.16,579.82Z"/><path class="cls-17" d="M394,578.88c-.07-.42.22-.35.07-1.18-.28-2-.59-3.61-.78-5.44-.15-.83,0-2.17-.1-3-.27-2-1.14-6.93-.84-4,.47,4.44.83,7.33,1.3,11.3.48,3.22.93,6.32,1.42,9.62.12.92.19,1.79.27,2.66-.08-1.14-.17-2.31-.27-3.61C395,583.54,394.38,581.53,394,578.88Z"/><path class="cls-17" d="M397.94,602.91l-.27-1.24a43.07,43.07,0,0,0-.73-5.75l0,.88c.15,1.12.25,1.23.19.24.12,2.29.4,4.43.73,6.62C397.89,603.52,398,603.53,397.94,602.91Z"/><path class="cls-17" d="M398,605l-.2-1.29a.11.11,0,0,1,0,.05L398,605Z"/><path class="cls-17" d="M393.73,567.65c-.56-5.55-1-10.79-1.41-15.91a4.78,4.78,0,0,1-.19-1.19c0-.4,0-.81,0-1.21-.05-.75-.11-1.49-.17-2.24l-.08-.78v0c-.06-.42-.1-.29-.12,0s0,.56,0,.79l0-.79c0-.35,0-.75,0-1.21-.07-.68-.14-1.39-.18-2.13.1.82.16,1.52.18,2.13q.07.65.15,1.26l.05.36-.36-5.1-.11-1.07a18.65,18.65,0,0,1-.18-3.22l-.06-.91v-.17l-.24-3.86c-.11-.83-.22-1.7-.34-2.55l.09-.87a10,10,0,0,1-.25-1.43c0,.7-.09,1.34-.1,1.94-.09.87.42,1.91.22,2.95.2-1-.31-2.08-.22-2.95,0-.6.07-1.24.1-1.94a27.57,27.57,0,0,1-.12-4.08,20.65,20.65,0,0,1,.12,4.08,10,10,0,0,0,.25,1.43l-.09.87c.12.85.23,1.72.34,2.55-.15-2.52-.3-5.07-.45-7.68-.44-8.38-.85-16.43-1.16-24.57s-.53-16.36-.23-25c.44-9.41,1.2-18.46,1.29-27.41a104.08,104.08,0,0,0-.72-13.16,76.9,76.9,0,0,0-2.7-12.68,74.56,74.56,0,0,0-5-12.05c-1.11-1.9-2.13-3.87-3.37-5.74s-2.51-3.73-3.89-5.55a73.41,73.41,0,0,0-9.2-9.85A91.79,91.79,0,0,0,355,380.5a21.57,21.57,0,0,0-4-2c-.8-.27-1.11-.22-1.16,0-.11.38.8,1.31,1,1.45,2,1.88,4,3.3,6.45,5.21a70,70,0,0,1,9.16,8.39c-2.57-2.73-1.45-1.91.87.32a50.67,50.67,0,0,1,7.38,9.15,114.49,114.49,0,0,1,8.13,15.62,63.56,63.56,0,0,1,4.42,18.82c.28,3.12.45,6.47.52,10.24-.1,9.8-.85,19.27-1.06,29s.35,19.57.79,30c.28,5.52.82,10.35,1.26,15,.25,3.38.37,7,.55,9.76.29,4.33.7,8.05,1.09,11.61-.35-4-.67-6.89-1-11.33-.22-3,.5,2,.73,4,.13.83-.09,2.17,0,3,.14,1.83.39,3.49.63,5.45.13.83-.17.76-.1,1.18.28,2.66.82,4.69.88,6.4.07,1.3.13,2.47.18,3.62.05.72.1,1.43.18,2.2l.2,1.44a1.28,1.28,0,0,1,.25-.68c0,.7.08,1.71.12,2.41,0-.7-.09-1.71-.12-2.41a1.28,1.28,0,0,0-.25.68c.47,3.51,1,7.54,1.51,11.29l0-.06c-.24-2.2-.42-4.34-.47-6.65,0,1,0,.88-.18-.24l.06-.88a38.62,38.62,0,0,1,.51,5.78l.22,1.25c0,.62-.07.61-.14.74l.15,1.3C393.83,570.56,393.73,567.65,393.73,567.65Z"/><path class="cls-17" d="M391.74,545c0,.3.07.67.11,1.06l-.3-4.28A17,17,0,0,0,391.74,545Z"/></g><g class="cls-16"><path class="cls-17" d="M410.68,549.08l-.53-2.54c.07.43.13.86.17,1.3A5.8,5.8,0,0,0,410.68,549.08Z"/><path class="cls-17" d="M409.65,544.2l-.09-.46-.11-.38Z"/><path class="cls-17" d="M408.64,539.79c.15.79.32,1.53.49,2.25C409,541.4,408.86,540.66,408.64,539.79Z"/><path class="cls-17" d="M409.32,543.33c0-.28,0-.43.13,0h0c-.11-.43-.21-.87-.32-1.32C409.21,542.52,409.28,543,409.32,543.33Z"/><path class="cls-17" d="M409.32,543.33l.07.84C409.38,543.92,409.35,543.64,409.32,543.33Z"/><path class="cls-17" d="M408.09,542.43c-.13-.44.17-.4-.08-1.27-.52-2-1-3.79-1.43-5.73-.25-.87-.23-2.33-.47-3.2-.51-2.06-2-7.28-1.32-4.16,1,4.69,1.72,7.74,2.67,11.94.86,3.39,1.68,6.67,2.56,10.14.22,1,.4,1.89.59,2.82-.23-1.21-.46-2.46-.71-3.83C409.59,547.32,408.75,545.23,408.09,542.43Z"/><path class="cls-17" d="M414.71,567.77l-.4-1.3a49.19,49.19,0,0,0-1.35-6.1l.07,1c.28,1.18.39,1.3.21.24.38,2.44.87,4.71,1.44,7C414.73,568.42,414.82,568.43,414.71,567.77Z"/><path class="cls-17" d="M415,569.94c-.12-.45-.23-.91-.35-1.35a.11.11,0,0,1,0,0L415,570Z"/><path class="cls-17" d="M406.41,530.47c-1.23-5.88-2.32-11.44-3.32-16.87a6.41,6.41,0,0,1-.33-1.25c0-.44-.08-.87-.14-1.3l-.42-2.37-.17-.83v0c-.12-.44-.14-.3-.13,0s0,.6.05.85l-.05-.85c0-.38-.08-.81-.15-1.3-.14-.72-.3-1.47-.41-2.26.18.87.32,1.61.41,2.26l.28,1.34.1.38c-.32-1.82-.63-3.62-.91-5.43l-.21-1.13a18,18,0,0,1-.48-3.44l-.14-1v.19l0-.37c-.21-1.37-.34-2.75-.52-4.13-.17-.88-.32-1.8-.47-2.72l.05-.94a9.9,9.9,0,0,1-.31-1.53c0,.76,0,1.45,0,2.09,0,.94.5,2,.37,3.17.13-1.13-.41-2.23-.37-3.17,0-.64,0-1.33,0-2.09a32.91,32.91,0,0,1-.33-4.37,23.84,23.84,0,0,1,.33,4.37,9.9,9.9,0,0,0,.31,1.53l-.05.94c.15.92.3,1.84.47,2.72-.27-2.7-.54-5.43-.82-8.23-.85-9-1.58-17.63-2.33-26.37-.39-4.37-.78-8.76-1.35-13.22a54.17,54.17,0,0,0-3.19-13.46,32.35,32.35,0,0,0-3.69-6.74,45.61,45.61,0,0,0-4.81-5.79,54.57,54.57,0,0,0-11.63-9c-8.41-4.91-17.4-7.53-26.37-9.51-4.5-1-9-1.79-13.61-2.61s-9.21-1.61-13.82-2.75c-1.76-.44-3.9-.95-6.11-1.69a16.91,16.91,0,0,1-6.06-3.16,5.4,5.4,0,0,1-1.57-2.43,5.69,5.69,0,0,1-.1-2.81,11.67,11.67,0,0,1,2.53-4.83c1.33-1.73,2.32-2.75,2.85-3.41s.63-1,.47-1.1-1.56.32-1.75.45A14.56,14.56,0,0,0,305,379a13.29,13.29,0,0,0-2.64,4,8.83,8.83,0,0,0-.3,6.18c.78,2.39,3,4.44,5.78,5.85-1.9-1-2.38-1.58-2.08-1.43a34,34,0,0,0,3.1,1.47c3.32,1.41,8.7,2.64,12.45,3.66,5.42,1.54,12.11,2.52,19,3.78a106.42,106.42,0,0,1,20.36,5.33,76.49,76.49,0,0,1,9.91,4.59,54.26,54.26,0,0,1,11.95,9.36,35.35,35.35,0,0,1,7.93,12.37,70,70,0,0,1,3.05,15c.61,5.26,1.08,10.68,1.56,16.25.53,5.92,1.29,11.09,1.94,16.05.4,3.63.71,7.53,1,10.48.54,4.68,1.3,8.65,2.07,12.43-.76-4.24-1.37-7.34-2-12.14-.18-1.59,0-1,.21.16s.61,3.07.8,4.12c.2.89.09,2.35.29,3.24.31,1.95.75,3.72,1.19,5.79.22.88-.08.83,0,1.27.57,2.83,1.34,4.95,1.61,6.78.21,1.38.41,2.63.6,3.84.13.77.27,1.53.44,2.34.12.49.24,1,.37,1.52a1.5,1.5,0,0,1,.16-.75c.12.75.3,1.81.42,2.56-.12-.75-.3-1.81-.42-2.56a1.5,1.5,0,0,0-.16.75c.9,3.71,1.93,8,2.88,11.91l0-.06c-.51-2.32-1-4.6-1.28-7.06.15,1.06,0,1-.21-.24l-.05-.94a45.94,45.94,0,0,1,1.21,6.12l.37,1.31c.1.67,0,.66,0,.81.1.45.2.91.31,1.37C406.86,533.56,406.41,530.47,406.41,530.47Z"/><path class="cls-17" d="M401.75,506.46l.23,1.12c-.26-1.51-.52-3-.76-4.56A19.62,19.62,0,0,0,401.75,506.46Z"/></g><path class="cls-5" d="M404.5,541.5a40.51,40.51,0,0,1,4,8,42.44,42.44,0,0,1,2,21c5.14,3.58,7.15,3.67,8,3,2.09-1.65-2.81-7.9-4-19-1.05-9.78,1.61-15.51-1-17C412.25,536.79,409.8,537.05,404.5,541.5Z"/><g class="cls-16"><path class="cls-17" d="M410.48,537.72a8.36,8.36,0,0,1,.81-.25l-.42.09A1.43,1.43,0,0,0,410.48,537.72Z"/><path class="cls-17" d="M412.06,537.35h0Z"/><path class="cls-17" d="M413.45,537.61a1.78,1.78,0,0,0-.69-.24A3,3,0,0,1,413.45,537.61Z"/><path class="cls-17" d="M412.35,537.3c.09,0,.13,0,0,0h0a2.08,2.08,0,0,1,.43,0A2.35,2.35,0,0,0,412.35,537.3Z"/><path class="cls-17" d="M412.35,537.3c-.08,0-.22,0-.27,0Z"/><path class="cls-17" d="M412.77,537c.17,0,.11.08.43.17a2.23,2.23,0,0,1,1.48,1.46,4.86,4.86,0,0,1,.15,1.12c.12.72.14,2.55.18,1.48a8.3,8.3,0,0,0-.16-2.17,2.51,2.51,0,0,0-1.2-1.79,2.84,2.84,0,0,0-1.84-.26,6.54,6.54,0,0,0-1.72.56c-.31.13-.59.27-.88.4.38-.17.77-.34,1.21-.5A5.21,5.21,0,0,1,412.77,537Z"/><path class="cls-17" d="M405.13,541.08l.32-.31c.58-.36,1.12-.81,1.68-1.23l-.28.14c-.33.24-.35.29-.05.1a15.12,15.12,0,0,0-1.92,1.42C404.93,541.19,404.94,541.22,405.13,541.08Z"/><path class="cls-17" d="M404.52,541.5l.36-.3h0l-.35.31Z"/><path class="cls-17" d="M414.65,540.32c0,2-.23,3.89-.33,5.73a2,2,0,0,1,0,.43,3.15,3.15,0,0,0-.05.43l0,.81V548h0c0,.15,0,.11,0,0a2,2,0,0,1,.05-.28l-.05.28c0,.13,0,.27,0,.44v.76c0-.29,0-.55,0-.76v-.59c0,.62,0,1.23,0,1.84v.38a9,9,0,0,1,0,1.17l0,.32v.06c0,.47,0,.93.07,1.4l.13.91,0,.32a3.27,3.27,0,0,1,.1.51v-.7a8.56,8.56,0,0,1-.09-1.06,8.56,8.56,0,0,0,.09,1.06v.7c.07.43.12,1,.15,1.46a6.23,6.23,0,0,1-.15-1.46,3.27,3.27,0,0,0-.1-.51l0-.32-.13-.91c.06.9.13,1.82.26,2.75a48.39,48.39,0,0,0,1.95,8.64c.44,1.4.94,2.78,1.42,4.2.24.7.48,1.41.67,2.14a3.75,3.75,0,0,1,.1,2.14c-.28.7-1.19.79-1.94.6a9.72,9.72,0,0,1-2.24-.87c-.72-.37-1.4-.8-2.08-1.23l-1-.66-.46-.33-.11-.08s0-.09,0-.13a40.75,40.75,0,0,0,.43-9.28,47.17,47.17,0,0,0-1.51-9.3,31.27,31.27,0,0,0-1.61-4.54,39.68,39.68,0,0,0-2.16-4.23c-1.81-2.68-1.3-1-1.23-.89.37.93.77,1.69,1.28,2.69a30.81,30.81,0,0,1,1.76,4.12c-.46-1.27-.21-.84.22.24a22.69,22.69,0,0,1,1.18,4.07c.65,3.62,1.56,8.81,1.14,13.35l-.15,1.76-.11.93-.06.49-.08.56a2.18,2.18,0,0,0-.05.61l.52.36.57.4c.37.25.74.5,1.12.74a23,23,0,0,0,2.34,1.3,8.09,8.09,0,0,0,2.68.83,2.5,2.5,0,0,0,1.63-.39,2,2,0,0,0,.81-1.57,8.22,8.22,0,0,0-.53-2.77c-.27-.86-.58-1.69-.87-2.52-.6-1.68-1.19-3.38-1.67-5.17s-1-3.55-1.29-5.17c-.21-1.19-.32-2.48-.39-3.46-.13-1.53-.19-2.86-.23-4.13,0,1.42.06,2.46.2,4,.11,1.05-.2-.72-.24-1.43,0-.3,0-.77,0-1.07,0-.65-.07-1.25-.08-1.95,0-.3.08-.27.08-.42,0-.95-.09-1.7,0-2.31l.13-1.29.07-.79v-.52a.52.52,0,0,1-.12.23l.1-.86-.1.86a.52.52,0,0,0,.12-.23,23.7,23.7,0,0,0-.08-4.11v0a9.19,9.19,0,0,1,0,2.4c0-.35.06-.31.05.1l-.07.31c0-.71,0-1.41.07-2.09l-.08-.45c0-.23,0-.22.05-.27l-.11-.47a7.56,7.56,0,0,1,.06.82C414.66,540.06,414.65,540.32,414.65,540.32Z"/><path class="cls-17" d="M414.22,548.47v-.38l0,1.55A8.31,8.31,0,0,0,414.22,548.47Z"/></g><path class="cls-5" d="M389.5,565.5a75.25,75.25,0,0,1,2,42c9.56,4.06,12.8,3.37,14,2,2.58-2.94-3.33-10-6-23a62.2,62.2,0,0,1-1-18Z"/><g class="cls-16"><path class="cls-17" d="M398,568.47l.38.12-.05.48.08-.47v0A1.87,1.87,0,0,0,398,568.47Z"/><path class="cls-17" d="M398.24,570.08l0,.2v.16Z"/><path class="cls-17" d="M398.17,572l0-1Q398.17,571.42,398.17,572Z"/><path class="cls-17" d="M398.26,570.47c0,.12,0,.17,0,0h0l0,.58Z"/><path class="cls-17" d="M398.26,570.47l.06-.35Z"/><path class="cls-17" d="M398.57,571c0,.19-.09.14-.08.52,0,.89,0,1.68,0,2.47,0,.38-.08,1-.05,1.35,0,.9.29,3.15.21,1.82-.1-2-.13-3.32-.09-5.12l0-1.74,0-.87.06-1-1-.3-1.14-.39,1.54.56.52.17,0,.63v.59Z"/><path class="cls-17" d="M390.37,565.87l.55.15a22.72,22.72,0,0,0,2.49.84l-.36-.17c-.49-.15-.55-.15-.13,0-1-.39-1.89-.7-2.84-1C390.13,565.74,390.11,565.77,390.37,565.87Z"/><path class="cls-17" d="M389.52,565.52l.56.18,0,0-.56-.17Z"/><path class="cls-17" d="M398.25,576a64.73,64.73,0,0,0,.63,7.2,2.44,2.44,0,0,1,.11.54,5,5,0,0,0,.06.54l.17,1,.07.35h0c0,.19,0,.13,0,0l0-.36,0,.36.07.54.21.95c-.09-.36-.16-.68-.21-.95l-.12-.56,0-.16c.14.76.29,1.52.46,2.27l.12.47c.13.55.29,1.08.33,1.43l.1.4V590l0,.15.47,1.69.39,1.1.07.39a4.2,4.2,0,0,1,.25.6l-.19-.85a11.41,11.41,0,0,1-.4-1.28,11.41,11.41,0,0,0,.4,1.28l.19.85c.19.52.41,1.2.56,1.76a10.3,10.3,0,0,1-.56-1.76,4.2,4.2,0,0,0-.25-.6l-.07-.39-.39-1.1c.32,1.1.66,2.21,1.05,3.32.61,1.8,1.28,3.55,2,5.27s1.39,3.41,1.88,5.17a6.37,6.37,0,0,1,.26,2.66,2.38,2.38,0,0,1-1.65,1.86,6.42,6.42,0,0,1-2.74.22,17.77,17.77,0,0,1-2.83-.52,45.13,45.13,0,0,1-5.9-2.06l-.7-.3c-.12-.06-.32-.08-.22-.25l.33-1.38c.23-1,.43-2,.62-3a79.64,79.64,0,0,0,.59-23.49,59.85,59.85,0,0,0-1-5.94c-.48-2.17-1.1-4.3-1.55-5.74-1.39-3.81-1.14-1.67-1.1-1.49.41,2.45,1.24,4.23,2.06,9.18-.58-3.37.81,2.43.88,5.67.25,4.65.69,11.29-.07,17-.18,1.42-.36,2.93-.66,4.62-.21,1.09-.43,2.17-.67,3.24l-.19.8-.14.62-.1.4s-.08.16,0,.17l.19.08,1.88.78a40.11,40.11,0,0,0,6.32,2,14.73,14.73,0,0,0,3.41.38,6.14,6.14,0,0,0,1.81-.31,3.19,3.19,0,0,0,2.24-3,6.88,6.88,0,0,0-.21-1.84,26.3,26.3,0,0,0-1.1-3.39c-.91-2.34-1.83-4.32-2.59-6.27-.55-1.42-1-3-1.38-4.17-.57-1.87-1-3.48-1.4-5,.4,1.75.75,3,1.34,4.93.4,1.27-.4-.85-.65-1.71-.12-.36-.16-1-.28-1.32-.2-.77-.4-1.53-.62-2.39-.1-.37,0-.34,0-.53-.26-1.17-.53-2.07-.62-2.84-.07-.58-.13-1.11-.17-1.62l-.11-1-.09-.65a.69.69,0,0,1-.07.31l-.07-1.09.07,1.09a.69.69,0,0,0,.07-.31c-.21-1.57-.36-3.41-.42-5.11v0c0,1,0,1.86.06,3,0-.45,0-.39.06.12l0,.39a18,18,0,0,1-.11-2.62l0-.57c0-.28,0-.27.06-.33v-.59C398.28,574.71,398.25,576,398.25,576Z"/><path class="cls-17" d="M399.42,586.23l-.1-.47c.11.64.24,1.27.38,1.91C399.67,587.32,399.53,586.78,399.42,586.23Z"/></g></g><g class="cls-16"><path class="cls-17" d="M364.91,469.89l.07.16a.31.31,0,0,1,0-.1S364.94,469.9,364.91,469.89Z"/><path class="cls-17" d="M365,470.2l0,0v0Z"/><path class="cls-17" d="M365.18,470.47a.61.61,0,0,0-.07-.14A.37.37,0,0,0,365.18,470.47Z"/><path class="cls-17" d="M365.1,470.24s0,0,0,0h0l.05.08A.28.28,0,0,1,365.1,470.24Z"/><path class="cls-17" d="M365.1,470.24v-.07S365.1,470.21,365.1,470.24Z"/><path class="cls-17" d="M365.44,470.18s-.06.05,0,.1a2.1,2.1,0,0,1,.22.33c.05.05,0,.18,0,.22s.35.4.26.21l-.39-.73-.38-.59a1.07,1.07,0,0,1-.07-.19l.06.26C365.18,469.92,365.35,470,365.44,470.18Z"/><path class="cls-17" d="M364.49,468.67l.06.07a.59.59,0,0,0,.14.4l0-.08q-.06-.1-.06,0a1.09,1.09,0,0,0-.12-.47S364.48,468.62,364.49,468.67Z"/><path class="cls-17" d="M364.49,468.51l0,.08h0l-.05-.09Z"/><path class="cls-17" d="M365.52,471l.48,1.05s.06,0,.06.07a.28.28,0,0,0,0,.09l.07.15,0,.05h0s0,0,0,0v0a.28.28,0,0,0,0,.09.61.61,0,0,1,.07.14.46.46,0,0,1-.07-.14l-.05-.07,0,0,.15.33,0,.07c.05.08.11.15.09.22l0,.06v0l.12.26.13.14v.07l.09.07v-.16c0-.07-.15-.08-.11-.18,0,.1.12.11.11.18v.16a.46.46,0,0,1,.1.29.36.36,0,0,1-.1-.29l-.09-.07v-.07l-.13-.14.24.5a35.29,35.29,0,0,0,1.74,3.17l1,1.73c.63,1.14,1.54,1.93,2.17,3.11a12.63,12.63,0,0,0,1.2,1.51c.53.39.62-.15.62-.19,0-.54-.33-.65-.69-1.4.26.5-.42-.17-.57-.72-.17-.81-1.1-1.42-1.57-2.21-.11-.2-.27-.38-.42-.61-.71-1.23-1.54-2.26-2.26-3.57a7.85,7.85,0,0,0-.64-.87c-.13-.21-.21-.46-.3-.64s-.3-.49-.45-.71l.42.71c.1.18-.18-.08-.26-.19s0-.18-.05-.22a3.29,3.29,0,0,0-.23-.33s0-.08,0-.1-.29-.24-.32-.36l-.07-.26a.35.35,0,0,0-.06-.14l-.07-.09s0,.06-.07.09l0-.17,0,.17s.06-.05.07-.09c-.15-.21-.32-.45-.47-.68h0a1.38,1.38,0,0,1,.15.46c0-.07,0-.07.05,0v.08a.59.59,0,0,1-.16-.39l-.07-.07c0-.05,0-.06,0-.08l0-.08A1.28,1.28,0,0,0,365.52,471Z"/><path class="cls-17" d="M366.22,472.52l0-.07.13.29A.35.35,0,0,0,366.22,472.52Z"/></g><path class="cls-11" d="M341.49,377.43q-3.64-2.71-7.58-5.27a31.06,31.06,0,0,1,3.77,6.39A51.56,51.56,0,0,1,328,380a40,40,0,0,1-17.95-3.44A39.51,39.51,0,0,0,305,363.33a34.69,34.69,0,0,0,7.23-5.36,16.7,16.7,0,0,0,6.29,5.53c2.14,1,4.24,2.1,6.29,3.22l.78-2.93q2.39-9,4.67-18.5v0l.27-1.12v0q.69-2.88,1.37-5.8,1.44,2.32,3.12,4.67a108.37,108.37,0,0,0,10.91,12.67c.65,5.63,1.5,11.75,2.64,18.31A28.12,28.12,0,0,1,341.49,377.43Z"/><path class="cls-11" d="M274.75,359a16.68,16.68,0,0,1-8.75-3,16.46,16.46,0,0,1-5-5.74,17.18,17.18,0,0,1,11.93,3A22.17,22.17,0,0,1,274,356,21.87,21.87,0,0,1,274.75,359Z"/><path class="cls-11" d="M285,529.26a11.94,11.94,0,0,1-.22,1.31c-1.93,8.51-8.12,6.86-8.12,21.19,0,1.26-1,2-2.29,2.2a22.69,22.69,0,0,1,.68-11C277.06,536.79,281.19,534.46,285,529.26Z"/><path class="cls-11" d="M378.5,195.5c-.34,1.69-.55,2.95-.76,4a10.66,10.66,0,0,1-2.24,5,7.68,7.68,0,0,1-1.05,1.05,45.67,45.67,0,0,1,6-21.11l.05.06C382.5,187.5,380.15,187.3,378.5,195.5Z"/><g id="R_schuh" data-name="R schuh"><path class="cls-18" d="M502.93,594.66a17.15,17.15,0,0,0-6.43,6.84,16.56,16.56,0,0,0-1.23,9,103.9,103.9,0,0,0-17.42,10.86c-5.82-10.17-12.44-21.49-19.55-33.22a30.48,30.48,0,0,0,6.2-4.6,31.43,31.43,0,0,0,3.64-4.18c5.3,5.7,9.45,9.38,11.36,10.18A68.75,68.75,0,0,0,502.93,594.66Z"/><path class="cls-2" d="M556.5,603.5a113.75,113.75,0,0,0-22.57.7c-2.26.3-4.61.68-7,1.15-1.47.28-3,.61-4.49,1-3.51.84-7.16,1.89-10.91,3.19-3.05,1.06-5.95,2.21-8.7,3.42a19.74,19.74,0,0,1-.64-5.21c0-.11,0-.22,0-.33a102.07,102.07,0,0,1,23.63-6.4c1.3-.2,2.53-.35,3.69-.48a18,18,0,0,1,1.6-5.89,16.94,16.94,0,0,1,2.51-3.92h0c3.77-4.45,9.42-6.47,13.88-5.19C553.4,587.19,558.1,594.89,556.5,603.5Z"/><path class="cls-7" d="M496.33,616a113.5,113.5,0,0,0-14,8.57L480.5,626c-.86-1.53-1.75-3.08-2.65-4.67a103.9,103.9,0,0,1,17.42-10.86l.06.6A36.89,36.89,0,0,0,496.33,616Z"/><path class="cls-19" d="M533.61,590.69a16.94,16.94,0,0,0-2.51,3.92,18,18,0,0,0-1.6,5.89c-1.16.13-2.39.28-3.69.48a102.07,102.07,0,0,0-23.63,6.4,7.36,7.36,0,0,1,.67-2.74c1.22-2.46,3.42-3.82,7.2-6,2.33-1.35,5.74-3.32,8.62-4l.57-.11.59-.08q.31,0,.63,0a4.32,4.32,0,0,1,.82.07c2.57-.92,6.28-2.21,8.12-2.67C530.87,591.46,532.27,591.08,533.61,590.69Z"/></g><g id="L_schuh" data-name="L schuh"><path class="cls-7" d="M344.68,670.73a26,26,0,0,0,.94,4.37,43.49,43.49,0,0,1-6.12.4c-6,0-13,0-15-5-.08-.21-.16-.42-.22-.63-1.84-5.88,2.34-14.22,9.22-17.37a15,15,0,0,1,5.75-1.38A19,19,0,0,1,349.7,654a20.68,20.68,0,0,0-4.7,9A21.84,21.84,0,0,0,344.68,670.73Z"/><path class="cls-19" d="M377.63,640.55h0a37,37,0,0,0-11.13,8.94c-4.59,5.51-5.29,9.84-8.56,13.79a21.58,21.58,0,0,0-7.44-8.79,8.36,8.36,0,0,0-.8-.53c3.14-3.69,7.14-6.51,10.3-10,4.62-5.06,9-13.21,9.79-27.12C372.38,625.64,375.06,633.6,377.63,640.55Z"/><path class="cls-18" d="M369.79,616.88C369,630.79,364.62,638.94,360,644c-3.16,3.46-7.16,6.28-10.3,10a19,19,0,0,0-10.45-2.85A149.59,149.59,0,0,0,354,618.42c-.08-1.57-.18-3.11-.29-4.64a13.32,13.32,0,0,0,1.62.19,15.93,15.93,0,0,0,5.13-.47,16.46,16.46,0,0,0,7.19-4C368.38,612,369.08,614.48,369.79,616.88Z"/><path class="cls-2" d="M379.5,645.5a39.93,39.93,0,0,0-13,10c-4.14,4.89-4.46,8.16-7.42,12.1a23,23,0,0,1-2.58,2.9c-2.59,2.49-6.28,4-10.88,4.6a26,26,0,0,1-.94-4.37A21.84,21.84,0,0,1,345,663a20.68,20.68,0,0,1,4.7-9,8.36,8.36,0,0,1,.8.53,21.58,21.58,0,0,1,7.44,8.79c3.27-3.95,4-8.28,8.56-13.79a37,37,0,0,1,11.13-8.94Q378.58,643.13,379.5,645.5Z"/></g><g id="sommersprossen"><path class="cls-18" d="M276.05,343.76c-1-.16-2.5.19-2.41-1.2a1.52,1.52,0,0,1,2.13-1.19C276.61,342,276.93,343.3,276.05,343.76Z"/><path class="cls-18" d="M281.05,339.76c-1-.16-2.5.19-2.41-1.2a1.52,1.52,0,0,1,2.13-1.19C281.61,338,281.93,339.3,281.05,339.76Z"/><path class="cls-18" d="M282.05,345.76c-1-.16-2.5.19-2.41-1.2a1.52,1.52,0,0,1,2.13-1.19C282.61,344,282.93,345.3,282.05,345.76Z"/></g><g id="gesicht"><g class="cls-16"><path class="cls-17" d="M310,336.79l-.18.16.12-.06A.15.15,0,0,0,310,336.79Z"/><polygon class="cls-17" points="309.64 337.09 309.61 337.12 309.59 337.15 309.64 337.09"/><path class="cls-17" d="M309.34,337.38l.16-.14A.64.64,0,0,0,309.34,337.38Z"/><path class="cls-17" d="M309.61,337.18s-.05,0,0,0h0l-.09.09Z"/><path class="cls-17" d="M309.61,337.18l.08,0Z"/><path class="cls-17" d="M309.75,337.51s-.08-.05-.13,0a3.83,3.83,0,0,1-.38.41c-.06.07-.23.07-.28.14s-.47.55-.23.37.57-.49.86-.77l.66-.73.21-.18-.3.22C310,337.08,309.94,337.31,309.75,337.51Z"/><path class="cls-17" d="M311.3,335.6l-.06.11a1.24,1.24,0,0,0-.42.4l.1,0c.07-.09.06-.12,0-.06a1.93,1.93,0,0,0,.5-.44S311.35,335.56,311.3,335.6Z"/><path class="cls-17" d="M311.49,335.49l-.09.1h0l.08-.11Z"/><path class="cls-17" d="M308.7,338c-.44.35-.86.65-1.29.93,0,0,0,.07-.09.09l-.12,0-.19.12-.06.05h0s0,0,0,0h0l-.12,0a.57.57,0,0,1-.18.12l.18-.12.1-.07,0,0-.44.26-.09.06a.54.54,0,0,1-.29.15l-.08,0h0l-.34.18-.2.17h-.1a.33.33,0,0,1-.1.11l.21,0c.1,0,.12-.18.25-.15-.13,0-.15.15-.25.15l-.21,0a1,1,0,0,1-.38.15.59.59,0,0,1,.38-.15.33.33,0,0,0,.1-.11h.1l.2-.17c-.22.12-.45.22-.69.34a24.48,24.48,0,0,1-4.62,1.7,23.82,23.82,0,0,1-7.75.41c-.66-.12-1.9-.22-2.53-.33-.88,0-.53.48-.49.51.48.44.93.34,2,.67-.75-.2.57-.15,1.28.12,1,.43,2.57.11,3.86.06a8.82,8.82,0,0,0,1.06-.12,20.1,20.1,0,0,0,5.79-1.63,8.9,8.9,0,0,0,1.34-.77c.3-.17.64-.3.89-.43a7.26,7.26,0,0,0,1-.67c-.33.23-.58.4-1,.64s.13-.22.29-.34.23,0,.29-.09a4.64,4.64,0,0,0,.44-.36c.06-.06.1,0,.13,0,.22-.17.32-.39.48-.46l.33-.17.18-.12.11-.11a.18.18,0,0,1-.11,0l.21-.12-.21.12a.18.18,0,0,0,.11,0l.82-.81h0a1.8,1.8,0,0,1-.56.36c.09,0,.1,0,0,.06h-.1a1.36,1.36,0,0,1,.48-.34l.07-.1a.08.08,0,0,1,.1,0l.1-.09A2.7,2.7,0,0,0,308.7,338Z"/><path class="cls-17" d="M306.85,339.3l.08-.06-.37.22A.57.57,0,0,0,306.85,339.3Z"/></g><g class="cls-16"><path class="cls-17" d="M310.53,318.41v-.25a.79.79,0,0,1,0,.13A.25.25,0,0,0,310.53,318.41Z"/><path class="cls-17" d="M310.51,317.92v-.08Z"/><path class="cls-17" d="M310.44,317.49a.83.83,0,0,0,0,.22A.89.89,0,0,0,310.44,317.49Z"/><path class="cls-17" d="M310.45,317.84s0,0,0,0h0l0-.13A.51.51,0,0,1,310.45,317.84Z"/><path class="cls-17" d="M310.45,317.84l0,.08Z"/><path class="cls-17" d="M310.1,317.76c0-.05.08,0,.06-.13a4.09,4.09,0,0,1-.13-.56c0-.09.06-.23,0-.32s-.26-.7-.21-.39.14.75.2,1.16.14.65.2,1a1.31,1.31,0,0,1,0,.28l0-.38A4.29,4.29,0,0,0,310.1,317.76Z"/><path class="cls-17" d="M310.57,320.28l0-.13a1.26,1.26,0,0,0,0-.61l0,.09c0,.12,0,.13,0,0a2.37,2.37,0,0,0,0,.7S310.56,320.35,310.57,320.28Z"/><path class="cls-17" d="M310.51,320.49v-.13h0l0,.14Z"/><path class="cls-17" d="M310.25,316.56c-.08-.58-.16-1.12-.28-1.65,0,0-.05-.06-.05-.12a.57.57,0,0,0,0-.13l-.06-.23,0-.08h0s0,0,0,0a.28.28,0,0,1,0,.09v-.09a.62.62,0,0,0,0-.13,1.72,1.72,0,0,1-.07-.21.74.74,0,0,1,.07.21l.05.12,0,0c0-.18-.1-.35-.15-.52a.46.46,0,0,0-.05-.1.7.7,0,0,1-.12-.33l0-.09v0a1.62,1.62,0,0,0-.21-.36,1,1,0,0,0-.22-.18l0-.1-.16-.06a.93.93,0,0,1,.11.19c0,.09.21.08.2.22,0-.14-.18-.13-.2-.22a.93.93,0,0,0-.11-.19l-.38-.23a.43.43,0,0,1,.38.23l.16.06,0,.1a1,1,0,0,1,.22.18,1.38,1.38,0,0,0-.65-.56,3.49,3.49,0,0,0-2.62.16,5.61,5.61,0,0,0-2,1.83,19.1,19.1,0,0,0-1.43,2.55c-.81,1.71-1.15,3.4-1.86,5.17a21.87,21.87,0,0,0-.67,2.68c-.06.95.45.57.49.53.47-.48.37-1,.85-2-.3.74-.09-.63.34-1.29.62-.95.76-2.5,1.29-3.72.14-.29.24-.63.39-1a22.27,22.27,0,0,1,1.37-2.57,3.6,3.6,0,0,1,2.07-1.7l.33-.09.34,0a2.44,2.44,0,0,1,.66,0l.23,0s.1,0,.14.07a1.73,1.73,0,0,1,.23.24,4.84,4.84,0,0,1,.55.93,3.18,3.18,0,0,0-.52-.92c-.16-.19.21,0,.32.22s0,.22.07.29.17.3.26.48,0,.09,0,.13c.09.25.27.43.28.61l0,.37a1.66,1.66,0,0,0,0,.22l0,.15a.25.25,0,0,1,.09-.09v0a.25.25,0,0,0-.09.09c.12.35.23.76.32,1.15h0a2.7,2.7,0,0,1,0-.7c0,.11,0,.1-.05,0l0-.09a1.13,1.13,0,0,1,.07.6l.05.13c0,.06,0,.06-.06.08l0,.13A2.2,2.2,0,0,0,310.25,316.56Z"/><path class="cls-17" d="M309.79,314.22l0,.11a3.66,3.66,0,0,0-.13-.44A.65.65,0,0,0,309.79,314.22Z"/></g><g class="cls-16"><path class="cls-17" d="M274.54,354.41l-.13-.12a.26.26,0,0,1,0,.09A.08.08,0,0,0,274.54,354.41Z"/><path class="cls-17" d="M274.29,354.18l0,0h0Z"/><path class="cls-17" d="M274,354l.12.1A.63.63,0,0,0,274,354Z"/><path class="cls-17" d="M274.21,354.18s0,0,0,0h0l-.08,0A.18.18,0,0,1,274.21,354.18Z"/><path class="cls-17" d="M274.21,354.18l0,.06Z"/><path class="cls-17" d="M273.94,354.39s0-.08,0-.1-.24-.12-.35-.19-.07-.17-.13-.19-.49-.17-.32-.05.45.28.68.45l.61.36a1.59,1.59,0,0,1,.13.13l-.16-.2C274.29,354.5,274.1,354.49,273.94,354.39Z"/><path class="cls-17" d="M275.45,355.34l-.09,0a.63.63,0,0,0-.29-.31v.08c.06.05.09,0,.05,0a1.43,1.43,0,0,0,.31.38S275.47,355.38,275.45,355.34Z"/><path class="cls-17" d="M275.51,355.49l-.07-.06h0l.08.05Z"/><path class="cls-17" d="M273.48,353.67l-.94-.68s-.07,0-.09,0l-.06-.08-.13-.09-.05,0h0s0,0,0,0l0,.06,0-.06a.13.13,0,0,0-.06-.07l-.13-.08a.41.41,0,0,1,.13.08l.09,0h0l-.31-.2-.07,0c-.08,0-.16-.07-.19-.14l-.06,0h0l0,0-.24-.15-.18,0,0-.07a.22.22,0,0,1-.11,0c0,.05.05.1.08.14s.17,0,.19.1c0-.12-.15,0-.19-.1s-.05-.09-.08-.14a.51.51,0,0,1-.25-.17.33.33,0,0,1,.25.17.22.22,0,0,0,.11,0l0,.07.18,0a5.5,5.5,0,0,0-.48-.28,16.09,16.09,0,0,0-3.35-1.4c-.66-.2-1.31-.39-1.95-.54a32,32,0,0,0-3.84-.37,8.39,8.39,0,0,0-2,.22c-.62.28-.2.62-.17.64.45.27.72,0,1.53.13-.55-.05.38-.28.91-.06.74.32,1.77,0,2.66.22.22.05.46.06.73.11a23.83,23.83,0,0,1,4,1.11,9.68,9.68,0,0,0,1,.31,6.37,6.37,0,0,1,.6.35,6.2,6.2,0,0,0,.75.35c-.25-.14-.45-.21-.73-.36s.19,0,.32,0,.1.15.16.16a1.79,1.79,0,0,0,.37.15c.06,0,0,.09,0,.1s.36.05.45.14l.19.19.12.09.1,0a.36.36,0,0,1,0-.11l.13.13-.13-.13a.36.36,0,0,0,0,.11,6.5,6.5,0,0,1,.75.37h0a1.41,1.41,0,0,1-.35-.34c.05.06,0,.08-.05,0l0-.07a.57.57,0,0,1,.33.26l.09,0s0,.06,0,.09l.08.05A1.28,1.28,0,0,0,273.48,353.67Z"/><path class="cls-17" d="M272.12,352.73l.07,0-.26-.18C272,352.66,272,352.7,272.12,352.73Z"/></g><g class="cls-16"><path class="cls-17" d="M285.94,325.33l-.17-.08a.23.23,0,0,1,.07.07S285.9,325.34,285.94,325.33Z"/><path class="cls-17" d="M285.62,325.16l0,0h0Z"/><path class="cls-17" d="M285.35,325l.13.1A.49.49,0,0,0,285.35,325Z"/><path class="cls-17" d="M285.54,325.17s0-.05,0,0h0l-.09,0A.16.16,0,0,1,285.54,325.17Z"/><path class="cls-17" d="M285.54,325.17l0,.06Z"/><path class="cls-17" d="M285.28,325.39s0-.08,0-.11a1.41,1.41,0,0,1-.4-.32c-.06-.06,0-.22-.09-.29s-.37-.76-.3-.42a1.81,1.81,0,0,0,.28.64,1.87,1.87,0,0,0,.36.39,2.29,2.29,0,0,0,.81.35l.22.08-.28-.14C285.71,325.49,285.49,325.52,285.28,325.39Z"/><path class="cls-17" d="M287.32,325.69l-.11,0a.83.83,0,0,0-.47-.08l.07.06c.09,0,.1,0,0-.05a1.5,1.5,0,0,0,.54.12S287.36,325.7,287.32,325.69Z"/><path class="cls-17" d="M287.47,325.76h0Z"/><path class="cls-17" d="M284.89,324.48a1.22,1.22,0,0,1-.11-.62.73.73,0,0,1,.07-.29.54.54,0,0,1,.07-.13c0-.05.05-.1.1,0s0,0,.06,0l.05.06.05,0,.14.1.05,0h0s0,0,0-.05l-.07-.08.07.08.08.09.14.09-.14-.09-.08,0h0l.32.22.07,0c.08,0,.17.09.19.16l.06,0v0l.26.2a1,1,0,0,1,.2.08l0,.08a.19.19,0,0,1,.12,0,1.19,1.19,0,0,0-.08-.16c0-.08-.19,0-.2-.14,0,.12.17.06.2.14a1.19,1.19,0,0,1,.08.16.61.61,0,0,1,.24.24.47.47,0,0,1-.24-.24.19.19,0,0,0-.12,0l0-.08a1,1,0,0,0-.2-.08l.49.39c.52.44,1,.87,1.5,1.32a10.44,10.44,0,0,1,1.36,1.47c.18.31.2.61,0,.74a.64.64,0,0,1-.71,0c-1.06-.8-2.37-1.49-2.89-2.72a4.37,4.37,0,0,1-.52-1.71c-.11-.59-.53-.38-.57-.32-.38.43-.24.84-.08,1.81-.12-.65.34.37.55,1,.27,1,1.53,1.61,2.34,2.25a5,5,0,0,0,.78.51,1.43,1.43,0,0,0,1.83-.27,1.24,1.24,0,0,0,.2-1.07,2.22,2.22,0,0,0-.36-.74,9,9,0,0,0-.92-.93l-.94-.86a7.32,7.32,0,0,0-1.06-.69c-.23-.16-.45-.38-.64-.51a7.7,7.7,0,0,0-1-.58c.49.3.63.36.95.58s-.21,0-.36-.07-.09-.17-.16-.2a5.84,5.84,0,0,0-.56-.28c-.08,0-.07-.13-.12-.15a1.5,1.5,0,0,0-.44-.15.12.12,0,0,1-.1,0c-.05,0-.08,0-.12.06l-.1.13a.61.61,0,0,0-.09.2l0,.15a.21.21,0,0,1,.11,0,.8.8,0,0,0-.07.2.8.8,0,0,1,.07-.2.21.21,0,0,0-.11,0,1.74,1.74,0,0,0,.34,1.11h0a.83.83,0,0,1-.14-.56c0,.08,0,.07-.06,0l0-.06a2.67,2.67,0,0,1,.12.49l.07.08c0,.06,0,.07,0,.09l.07.09Z"/><path class="cls-17" d="M285.45,323.66l-.06,0,.27.19A.42.42,0,0,0,285.45,323.66Z"/></g><g class="cls-16"><path class="cls-17" d="M295.79,316.74l-.11-.13,0,.09S295.76,316.73,295.79,316.74Z"/><polygon class="cls-17" points="295.58 316.49 295.56 316.46 295.53 316.45 295.58 316.49"/><path class="cls-17" d="M295.37,316.26a.64.64,0,0,0,.1.13A.38.38,0,0,0,295.37,316.26Z"/><path class="cls-17" d="M295.5,316.47s0,0,0,0h0l-.06-.06Z"/><path class="cls-17" d="M295.5,316.47v.07A.17.17,0,0,0,295.5,316.47Z"/><path class="cls-17" d="M295.18,316.62s.06-.07,0-.11a1.55,1.55,0,0,1-.3-.33c-.05-.05,0-.19-.05-.24s-.36-.45-.27-.23a3.57,3.57,0,0,0,.49.78,3.93,3.93,0,0,0,.58.5l.15.15-.17-.22C295.53,316.81,295.33,316.77,295.18,316.62Z"/><path class="cls-17" d="M296.82,317.5h-.1a.75.75,0,0,0-.36-.22l0,.08c.07,0,.09,0,0,0a1,1,0,0,0,.42.27S296.86,317.53,296.82,317.5Z"/><path class="cls-17" d="M296.94,317.61l-.09,0h0l.09,0Z"/><path class="cls-17" d="M295,315.74a3.36,3.36,0,0,1-.29-1.14.1.1,0,0,1,0-.08.36.36,0,0,0,0-.09v-.2l-.08,0h0s0,0,0,0v-.06l0,0v0a0,0,0,0,1,0,0l0-.06v.09a.35.35,0,0,0,.05.08l.12.11a.65.65,0,0,1-.12-.11l-.08-.06h0l.26.28.07.05c.07,0,.15.1.16.18l0,.05v0l.2.21.18.1v.07l.11,0c0-.05,0-.11,0-.15s-.18,0-.17-.15c0,.12.15.07.17.15s0,.1,0,.15a.48.48,0,0,1,.19.25.37.37,0,0,1-.19-.25l-.11,0v-.07l-.18-.1.4.42c.86.9,1.72,1.71,2.61,2.61.16.15.25.42,0,.54s-.3.06-.62-.05a5.4,5.4,0,0,1-1.55-.85,3.64,3.64,0,0,1-.61-.63,2.49,2.49,0,0,1-.23-.37s0-.07,0-.07a.08.08,0,0,1,.06,0h.21c.67-.12.35-.55.32-.57a.93.93,0,0,0-.66-.27l-1.43-.16c.25,0,.34.06.34.08s0,0-.06,0h-.08s-.07,0,0,0a6.16,6.16,0,0,1,.37,1.1,4.5,4.5,0,0,0,.16.44,2,2,0,0,0,.18.32,2.68,2.68,0,0,0,.54.58,9.25,9.25,0,0,0,1.38.89,3.59,3.59,0,0,0,.82.3,1.79,1.79,0,0,0,.84.12,1.19,1.19,0,0,0,.85-.45,1,1,0,0,0,.15-.9,1.23,1.23,0,0,0-.24-.45,3.64,3.64,0,0,0-.31-.33c-.54-.48-1.09-1-1.64-1.51a7.28,7.28,0,0,0-.91-.67c-.19-.16-.36-.38-.5-.52a4.61,4.61,0,0,0-.69-.55l.66.54c.16.15-.2,0-.32-.09s-.06-.18-.12-.21a3.54,3.54,0,0,0-.35-.23c-.06,0,0-.09,0-.1l-.09-.06-.69-.37.16.58a1.65,1.65,0,0,1,.1.4,2.8,2.8,0,0,0,0,.29,1.1,1.1,0,0,0,0,.18l.05.1a.31.31,0,0,1,.09-.07l0,.19,0-.19a.31.31,0,0,0-.09.07,4.7,4.7,0,0,0,.46.78h0a1,1,0,0,1-.15-.48c0,.08,0,.08-.05,0l0-.08a.85.85,0,0,1,.15.41l.07.07c0,.05,0,.06,0,.08l.06.09A2.7,2.7,0,0,0,295,315.74Z"/><path class="cls-17" d="M294.7,314.35l-.06-.05.22.23C294.85,314.45,294.78,314.4,294.7,314.35Z"/></g></g></g><g id="schuh"><g class="cls-16"><path class="cls-17" d="M351,647.2h-.1l.05,0S351,647.22,351,647.2Z"/><path class="cls-17" d="M350.79,647.17h0Z"/><path class="cls-17" d="M350.61,647.17h.09A.13.13,0,0,0,350.61,647.17Z"/><path class="cls-17" d="M350.75,647.21a0,0,0,0,1,0,0h-.06Z"/><path class="cls-17" d="M350.75,647.21l0,0Z"/><path class="cls-17" d="M350.66,647.54s0-.08,0-.07a.77.77,0,0,1-.25,0s-.08-.1-.12-.08-.32.12-.19.13.32,0,.5,0l.43-.06.12,0-.15-.06C350.89,647.42,350.78,647.54,350.66,647.54Z"/><path class="cls-17" d="M351.76,647.36l-.06,0a.23.23,0,0,0-.25,0l0,0s.06,0,0,0a.43.43,0,0,0,.28.09A.1.1,0,0,0,351.76,647.36Z"/><path class="cls-17" d="M351.84,647.43s0,0-.06,0h.06Z"/><path class="cls-17" d="M350.21,647.21l-.69-.1s0,0-.06,0a.1.1,0,0,0,0,0l-.09,0h0s0,0,0,0l0,0,0,0,0,0h-.1a.16.16,0,0,1,.1,0h.07l-.22-.05H349s-.11,0-.14,0h0l-.17,0a.28.28,0,0,1-.12,0l0-.05a.1.1,0,0,1-.07,0,.73.73,0,0,0,.08.09c0,.05.09-.08.13,0,0-.09-.1,0-.13,0a.73.73,0,0,1-.08-.09.18.18,0,0,1-.17-.07c.08,0,.13,0,.17.07a.1.1,0,0,0,.07,0l0,.05a.28.28,0,0,0,.12,0l-.33-.06c-.72-.16-1.39-.23-2.15-.38-.4-.08-.79-.17-1.17-.28a13.67,13.67,0,0,1-2.22-.51,5,5,0,0,0-1.14-.18c-.4.11-.26.55-.24.57.19.38.4.21.86.48-.32-.16.27-.19.55.08.4.43,1.08.22,1.62.38.14,0,.29.05.45.08a23.43,23.43,0,0,0,2.57.32,2.81,2.81,0,0,0,.66-.05,2.2,2.2,0,0,1,.42.09,2.23,2.23,0,0,0,.52,0h-.5c-.13,0,.1-.11.19-.13s.09.1.13.08a.71.71,0,0,0,.24,0s0,.08.05.07.22-.11.29-.08l.15.07h.16a.37.37,0,0,1,0-.11l.1,0-.1,0a.37.37,0,0,0,0,.11,4.34,4.34,0,0,1,.52-.08h0a.56.56,0,0,1-.29-.1s0,0,0,0l0,0c.09,0,.18,0,.25,0l.06,0s0,0,0,.08h.05A.49.49,0,0,0,350.21,647.21Z"/><path class="cls-17" d="M349.22,647.08h0l-.18,0C349.11,647.09,349.17,647.08,349.22,647.08Z"/></g><g class="cls-16"><path class="cls-17" d="M354.57,642.38l-.13,0,.06,0S354.54,642.39,354.57,642.38Z"/><path class="cls-17" d="M354.32,642.33h0Z"/><path class="cls-17" d="M354.08,642.31l.12,0Z"/><path class="cls-17" d="M354.26,642.37s0,0,0,0h-.07A.09.09,0,0,1,354.26,642.37Z"/><path class="cls-17" d="M354.26,642.37l0,0Z"/><path class="cls-17" d="M354.15,642.69s0-.09,0-.07a1.67,1.67,0,0,1-.31,0c-.05,0-.11-.1-.16-.09s-.4.09-.24.11.41,0,.63.05l.55,0,.14,0-.19-.08C354.43,642.59,354.3,642.69,354.15,642.69Z"/><path class="cls-17" d="M355.53,642.59l-.08,0a.38.38,0,0,0-.31-.06l0,.05c.06,0,.07,0,0-.05a.7.7,0,0,0,.36.12S355.56,642.61,355.53,642.59Z"/><path class="cls-17" d="M355.63,642.67h0Z"/><path class="cls-17" d="M353.59,642.32c-.31,0-.6-.1-.87-.15,0,0-.05,0-.07,0l-.06-.05-.13,0h0s0,0,0,0l0,0,0,0-.06,0h-.12a.23.23,0,0,1,.12,0h.09l-.28-.06h-.06c-.06,0-.13,0-.17,0h-.06l-.21,0-.14,0,0-.06-.09,0,.09.09c0,.06.12-.08.16,0,0-.1-.12,0-.16,0l-.09-.09a.3.3,0,0,1-.21-.09.22.22,0,0,1,.21.09l.09,0,0,.06.14,0-.41-.09c-.91-.21-1.75-.33-2.69-.53-.51-.11-1-.23-1.48-.37a19.89,19.89,0,0,1-2.79-.68,7.86,7.86,0,0,0-1.42-.26.37.37,0,0,0-.31.55c.24.4.51.24,1.08.55-.39-.19.34-.18.69.12.51.46,1.36.3,2,.5.17,0,.36.07.57.11,1.05.3,2.08.31,3.21.52a3.9,3.9,0,0,0,.84,0c.19,0,.38.1.53.12a2.91,2.91,0,0,0,.65,0c-.22,0-.39,0-.63,0s.13-.1.24-.11.11.11.15.09a1.1,1.1,0,0,0,.31,0c.05,0,0,.08.06.07s.28-.1.37-.06l.19.08.12,0h.08a.18.18,0,0,1,0-.1l.13.05-.13-.05a.18.18,0,0,0,0,.1c.2,0,.43,0,.65,0h0a.7.7,0,0,1-.35-.12s0,.06,0,0l0,0a.38.38,0,0,1,.31.06l.08,0s0,0,0,.08h.08A1.67,1.67,0,0,0,353.59,642.32Z"/><path class="cls-17" d="M352.35,642.12h.06l-.24,0S352.28,642.12,352.35,642.12Z"/></g><g class="cls-16"><path class="cls-17" d="M355.77,638l-.12,0,.06,0S355.75,638,355.77,638Z"/><path class="cls-17" d="M355.55,638h0Z"/><path class="cls-17" d="M355.35,638h0Z"/><path class="cls-17" d="M355.5,638s0,0,0,0h-.06A.09.09,0,0,1,355.5,638Z"/><path class="cls-17" d="M355.5,638l0,0Z"/><path class="cls-17" d="M355.44,638.36s0-.08-.05-.06a1.29,1.29,0,0,1-.25.06s-.1-.08-.14-.06-.32.16-.19.15l.52-.06.45-.09.12,0-.16-.06C355.66,638.23,355.56,638.35,355.44,638.36Z"/><path class="cls-17" d="M356.59,638.17l-.06,0a.3.3,0,0,0-.27-.06l0,.06c.06,0,.07,0,0-.05a.61.61,0,0,0,.3.11S356.62,638.19,356.59,638.17Z"/><path class="cls-17" d="M356.67,638.25h0Z"/><path class="cls-17" d="M354.93,638.08h-.75s0,0-.05,0l-.06,0h-.14a0,0,0,0,0,0,0l0,0,0,0-.06,0h-.1a.12.12,0,0,1,.1,0l.06,0h-.28a.14.14,0,0,1-.15,0h-.23l-.12.07,0,0a.15.15,0,0,1-.06,0l.09.08s.09-.1.14,0c0-.08-.1.06-.14,0l-.09-.08a.2.2,0,0,1-.19,0c.07,0,.13,0,.19,0a.15.15,0,0,0,.06,0l0,0,.12-.07h-.36a14.56,14.56,0,0,1-2.28-.15,4.24,4.24,0,0,1-1.15-.41c-.72-.37-1.41-.61-2.24-1.08a2.63,2.63,0,0,0-1.45-.12.36.36,0,0,0-.08.63c.31.29.46.07.92.32-.31-.15.28-.21.52.13s1,.45,1.55.77a4.15,4.15,0,0,0,.47.2,6.43,6.43,0,0,0,2.91.41,2.63,2.63,0,0,0,.71-.16c.16,0,.33,0,.46,0a2.25,2.25,0,0,0,.54-.11l-.53.09c-.14,0,.09-.13.18-.16s.11.08.15.06a1.52,1.52,0,0,0,.25-.09s0,.08.05.06.22-.15.3-.13l.16,0h.11l.06,0a.38.38,0,0,1,0-.1l.11,0-.11,0a.38.38,0,0,0,0,.1,3,3,0,0,1,.53-.15h0a.59.59,0,0,1-.31-.06s0,.05,0,.05l0,0a.26.26,0,0,1,.27,0l.06,0s0,0,0,.07h.06A.64.64,0,0,0,354.93,638.08Z"/><path class="cls-17" d="M353.87,638.11h-.16S353.81,638.12,353.87,638.11Z"/></g><g class="cls-16"><path class="cls-17" d="M356.16,634l-.08,0,.05,0S356.15,634,356.16,634Z"/><path class="cls-17" d="M356,634.07h0Z"/><path class="cls-17" d="M355.86,634.15a.11.11,0,0,0,.08,0A.13.13,0,0,0,355.86,634.15Z"/><path class="cls-17" d="M356,634.13s0,0,0,0h0l0,0Z"/><path class="cls-17" d="M356,634.13l0,0Z"/><path class="cls-17" d="M356.07,634.46s0-.07-.07,0a.63.63,0,0,1-.2.13s-.11-.06-.14,0-.27.2-.14.18a2.87,2.87,0,0,0,.47-.17,2.22,2.22,0,0,0,.33-.28l.11,0-.16,0C356.2,634.25,356.18,634.4,356.07,634.46Z"/><path class="cls-17" d="M356.69,633.64v.06c-.1,0-.13.08-.17.15h.06s0-.06,0-.05a.26.26,0,0,0,.21-.15S356.71,633.63,356.69,633.64Z"/><path class="cls-17" d="M356.79,633.62l0,0h0l0,0Z"/><path class="cls-17" d="M355.56,634.32a2.12,2.12,0,0,1-.61,0s0,0-.05,0l0,0h-.12a0,0,0,0,0,0,0l0,0,0,0,0,0h.06l-.19,0h-.05c-.05,0-.09,0-.12,0h0v0l-.14,0-.11,0,0,0a.09.09,0,0,1-.07,0l.06.1s.09-.08.12,0c0-.09-.1,0-.12,0l-.06-.1a.14.14,0,0,1-.14-.08c.07,0,.11,0,.14.08a.09.09,0,0,0,.07,0l0,0,.11,0-.29-.09a16,16,0,0,0-1.9-.45l-1.07-.24c-.7-.16-1.34,0-2.07-.25a3.14,3.14,0,0,0-1.06.05c-.34.19-.1.58-.09.6.25.33.4.12.84.29-.3-.09.2-.24.49,0s.95.06,1.43.18c.12,0,.25,0,.4,0,.73.18,1.43.11,2.2.3a2.4,2.4,0,0,0,.6,0c.13,0,.26.09.38.11a1.29,1.29,0,0,0,.48,0h-.47c-.12,0,.11-.11.19-.12s.07.09.11.08a.66.66,0,0,0,.23,0s0,.08,0,.07.21-.13.28-.1l.15,0h.09l.07,0a.3.3,0,0,1,0-.1l.1,0-.1,0a.3.3,0,0,0,0,.1,4.39,4.39,0,0,0,.44-.21h0a.32.32,0,0,1-.27,0s0,.05,0,.06l0-.05c.08,0,.15-.07.23,0l.05,0s0,0,0,.06l.05,0Z"/><path class="cls-17" d="M354.68,634.34h.05l-.17,0A.1.1,0,0,0,354.68,634.34Z"/></g><g class="cls-16"><path class="cls-17" d="M357.36,630.19h-.09s0,0,.05,0S357.35,630.21,357.36,630.19Z"/><path class="cls-17" d="M357.19,630.21h0Z"/><path class="cls-17" d="M357,630.26h.08A.12.12,0,0,0,357,630.26Z"/><path class="cls-17" d="M357.16,630.26s0,0,0,0h0l-.05,0Z"/><path class="cls-17" d="M357.16,630.26l0,0Z"/><path class="cls-17" d="M357.18,630.61s0-.09-.06-.06a.78.78,0,0,1-.2.11s-.09-.07-.12,0-.25.2-.14.17l.44-.12.35-.19h.1l-.14,0C357.34,630.43,357.28,630.57,357.18,630.61Z"/><path class="cls-17" d="M358.05,630.12l0,0c-.08,0-.15,0-.22,0l0,0s0,0,0-.06a.34.34,0,0,0,.26,0S358.08,630.13,358.05,630.12Z"/><path class="cls-17" d="M358.14,630.16l-.05,0h0l0,0Z"/><path class="cls-17" d="M356.7,630.41c-.21,0-.41.06-.61.07,0,0,0,0,0,0l-.05,0h-.12s0,0,0,0l0,0,0,0-.05,0h-.08a.08.08,0,0,1,.08,0l.05,0h-.19l0,0s-.09,0-.12,0h-.19l-.1.06,0-.05a.08.08,0,0,1-.05.05l.08.08s.07-.1.12,0c-.05-.09-.08.05-.12,0l-.08-.08a.15.15,0,0,1-.16,0c.06,0,.11,0,.16,0a.08.08,0,0,0,.05-.05l0,.05.1-.06H355a9.18,9.18,0,0,1-1.88-.21,8,8,0,0,1-1-.33c-.65-.26-1.29-.28-2-.59a2.69,2.69,0,0,0-1.13,0c-.36.2-.09.58-.08.61.25.32.39.1.8.32-.28-.13.22-.23.46,0s.9.21,1.37.41a3.64,3.64,0,0,0,.39.11,7.5,7.5,0,0,0,2.37.34,1.76,1.76,0,0,0,.62-.14c.13,0,.28,0,.39,0a1.3,1.3,0,0,0,.46-.12l-.45.1c-.12,0,.08-.13.15-.16s.09.08.12,0a.43.43,0,0,0,.21-.09s0,.07.06.06.17-.17.24-.15l.14,0h.09l0,0a1,1,0,0,1,0-.1l.1,0-.1,0a1,1,0,0,0,0,.1c.13-.08.28-.15.42-.22h0a.43.43,0,0,1-.27,0s0,0,0,0l0,0a.21.21,0,0,1,.23,0l0,0s0,0,0,.07l.05,0A.74.74,0,0,0,356.7,630.41Z"/><path class="cls-17" d="M355.83,630.52h-.13S355.78,630.54,355.83,630.52Z"/></g><g class="cls-16"><path class="cls-17" d="M357.63,627.69l-.08,0,0,0S357.61,627.71,357.63,627.69Z"/><path class="cls-17" d="M357.47,627.65h0Z"/><path class="cls-17" d="M357.32,627.66h0Z"/><path class="cls-17" d="M357.43,627.7s0,0,0,0h0Z"/><path class="cls-17" d="M357.43,627.7l0,0Z"/><path class="cls-17" d="M357.35,628s0-.09,0-.07a.61.61,0,0,1-.18,0s-.06-.09-.09-.07-.24.13-.14.13l.36,0,.33-.07a.19.19,0,0,1,.08,0l-.1-.07C357.53,627.91,357.44,628,357.35,628Z"/><path class="cls-17" d="M358.2,627.89l-.05,0c0-.08-.11-.08-.18-.07v0s0,0,0,0a.27.27,0,0,0,.2.12S358.22,627.91,358.2,627.89Z"/><path class="cls-17" d="M358.25,628h0Z"/><path class="cls-17" d="M357,627.71l-.54,0s0,0,0,0,0,0,0,0h-.1s0,0,0,0l0,0,0,0,0,0h-.16s-.08,0-.1,0h-.17l-.09,0,0,0-.05,0,.06.08s.07-.1.1,0c0-.1-.07,0-.1,0l-.06-.08a.15.15,0,0,1-.14-.06c.06,0,.1,0,.14.06l.05,0,0,0,.09,0-.25,0a7,7,0,0,1-1.59-.32,4.6,4.6,0,0,1-.78-.44,17.49,17.49,0,0,0-1.71-.78,1.73,1.73,0,0,0-1.1,0c-.32.27,0,.59,0,.61.27.28.35.06.69.25-.23-.11.18-.23.37.05s.69.25,1.05.51c.09.06.2.09.31.15a4.58,4.58,0,0,0,2.06.57,1.37,1.37,0,0,0,.54-.11,3.26,3.26,0,0,1,.33,0,1.18,1.18,0,0,0,.39-.07l-.38,0c-.1,0,.07-.12.14-.15s.07.09.1.07a.64.64,0,0,0,.18-.06s0,.07,0,.06.16-.14.22-.11l.11.05h.08l0,0a.2.2,0,0,1,0-.11l.08,0-.08,0a.2.2,0,0,0,0,.11,1.53,1.53,0,0,1,.38-.12h0a.3.3,0,0,1-.22-.08s0,0,0,.06l0-.05a.13.13,0,0,1,.19,0l0,0s0,0,0,.07h0A.44.44,0,0,0,357,627.71Z"/><path class="cls-17" d="M356.25,627.67h0l-.14,0S356.21,627.68,356.25,627.67Z"/></g><g class="cls-16"><path class="cls-17" d="M358.35,623.63h-.08l0,0S358.33,623.65,358.35,623.63Z"/><polygon class="cls-17" points="358.21 623.6 358.19 623.6 358.18 623.6 358.21 623.6"/><path class="cls-17" d="M358.08,623.6h0Z"/><path class="cls-17" d="M358.17,623.64a.06.06,0,0,1,0,0h0Z"/><path class="cls-17" d="M358.17,623.64l0,0Z"/><path class="cls-17" d="M358.09,624s0-.08,0-.07a.41.41,0,0,1-.18.05s-.05-.1-.08-.08-.23.12-.14.13H358l.31-.07.08,0-.1-.06C358.25,623.85,358.17,624,358.09,624Z"/><path class="cls-17" d="M358.87,623.78l0,0c0-.08-.11-.06-.17,0l0,.06s0,0,0-.06a.3.3,0,0,0,.19.1S358.89,623.8,358.87,623.78Z"/><path class="cls-17" d="M358.92,623.85h0Z"/><path class="cls-17" d="M357.79,623.65l-.48-.09s0,0,0,0,0,0,0,0l-.07,0h0s0,0,0,0v0l0,0h.06l-.16,0h0s-.08,0-.1,0h0l-.11,0-.09.05,0-.06a.08.08,0,0,1-.05.05l.05.08c0,.05.07-.08.09,0,0-.09-.07,0-.09,0l-.05-.08a.12.12,0,0,1-.12-.07c.06,0,.09,0,.12.07a.08.08,0,0,0,.05-.05l0,.06.09-.05-.24,0c-.5-.14-1-.18-1.5-.29-.29-.06-.56-.13-.83-.21a7.45,7.45,0,0,1-1.57-.37,2.26,2.26,0,0,0-.81-.08c-.28.14-.17.56-.16.59.15.36.29.17.62.4-.22-.13.18-.21.38,0s.76.14,1.14.27a2.61,2.61,0,0,0,.31,0,12.9,12.9,0,0,0,1.79.2,1.5,1.5,0,0,0,.47-.08,1.38,1.38,0,0,1,.29.08,1.05,1.05,0,0,0,.36,0h-.35c-.09,0,.08-.12.14-.13s.05.09.08.07a.42.42,0,0,0,.18,0s0,.07,0,.07.17-.13.22-.09l.1.06h.11v-.11l.07.05-.07-.05v.11l.37-.1h0a.25.25,0,0,1-.19-.08s0,0,0,0l0,0c.07,0,.13,0,.17,0l0,0a.17.17,0,0,1,0,.07h0A.46.46,0,0,0,357.79,623.65Z"/><path class="cls-17" d="M357.1,623.54h0l-.13,0S357.06,623.55,357.1,623.54Z"/></g><g class="cls-16"><path class="cls-17" d="M348.17,620.66l.69-.44-.37.19A1.78,1.78,0,0,0,348.17,620.66Z"/><path class="cls-17" d="M349.52,619.83l.13-.07.11-.07Z"/><path class="cls-17" d="M350.79,619.15l-.65.33Z"/><path class="cls-17" d="M349.76,619.65c.08,0,.13,0,0,0h0l.38-.21Z"/><path class="cls-17" d="M349.76,619.65l-.26.1Z"/><path class="cls-17" d="M349.92,619.18c.13-.08.14,0,.39-.13.61-.33,1.13-.59,1.72-.84.26-.13.72-.2,1-.34.63-.27,2.06-1.19,1.18-.72-1.33.7-2.29,1-3.55,1.64a20.47,20.47,0,0,0-2.87,1.79l-.75.55c.32-.23.66-.46,1-.7S349.1,619.63,349.92,619.18Z"/><path class="cls-17" d="M343.72,624.8l.24-.36c.46-.46.88-1,1.34-1.49l-.25.19c-.26.28-.27.33,0,.1a11.21,11.21,0,0,0-1.52,1.72C343.56,624.94,343.58,625,343.72,624.8Z"/><path class="cls-17" d="M343.26,625.33l.25-.37h0l-.25.37Z"/><path class="cls-17" d="M353.58,617.85a24.34,24.34,0,0,0,4.59-3,1.58,1.58,0,0,1,.33-.26l.36-.2.66-.4.24-.14h0c.12-.08.08-.07,0,0l-.25.11.25-.11.38-.19.63-.37c-.24.15-.45.28-.63.37l-.37.24-.11.07,1.53-.89.31-.2c.35-.25.69-.51.93-.64l.24-.2-.05,0,.1-.08a5.77,5.77,0,0,0,.93-1,4.55,4.55,0,0,0,.41-.79s.12-.17.17-.26l.13-.49a6.61,6.61,0,0,1-.31.6c-.17.24-.22.64-.51.87.29-.23.34-.63.51-.87a6.61,6.61,0,0,0,.31-.6,6.39,6.39,0,0,0,.22-1.4,2.55,2.55,0,0,1-.22,1.4l-.13.49c-.05.09-.17.26-.17.26a4.55,4.55,0,0,1-.41.79,4.71,4.71,0,0,0,1-2.5,3,3,0,0,0-.62-2.11,2.08,2.08,0,0,0-.91-.66,1.5,1.5,0,0,0-1.14,0,5.21,5.21,0,0,0-1.56,1.5c-.44.56-.86,1.13-1.25,1.71a26.17,26.17,0,0,0-2.09,3.74c-.3.66-.59,1.33-.84,2-.12.34-.24.7-.36,1l-.16.54-.13.44s0,.07,0,.09h-.32l-.6.06a9.61,9.61,0,0,0-1.21.25c-.79.21-1.54.49-2.28.75a9.29,9.29,0,0,1-4.4.74,6.16,6.16,0,0,1-3.69-1.93,6,6,0,0,1-1.52-3.76,5.41,5.41,0,0,1,.28-2c.23-.63.63-1,1.2-1a6.94,6.94,0,0,1,1.92.76c.67.34,1.34.69,2,1.09,1,.58,2.46,1.43,3.83,2.37a43.05,43.05,0,0,1,3.55,2.65c2.39,1.87,1.48.55,1.39.42-1.2-1.5-2.42-2.36-5.54-4.64,2.14,1.53-1.71-.92-3.86-2.19-.38-.24-.79-.48-1.23-.71a6.88,6.88,0,0,0-1.49-.65,2.42,2.42,0,0,0-1-.07,1.89,1.89,0,0,0-1,.52,3.41,3.41,0,0,0-.85,1.79A7.06,7.06,0,0,0,343,618a6.83,6.83,0,0,0,3.53,1.52,10.71,10.71,0,0,0,5.19-.94,18,18,0,0,1,2.3-.74,7.53,7.53,0,0,1,1.14-.19h.55c.17,0,.45.09.44-.19l.25-.94a25.16,25.16,0,0,1,4.57-8.92c.58-.76,1.11-1.39,1.63-1.34a1.72,1.72,0,0,1,1.33,1.25,3.66,3.66,0,0,1-.58,2.86,8.74,8.74,0,0,1-2.82,2.52,8.23,8.23,0,0,0,2.79-2.43c.48-.82-.19.66-.73,1.08a8,8,0,0,1-.82.58c-.5.36-1,.69-1.53,1.06-.24.16-.26.06-.38.14-.79.48-1.35,1-1.85,1.3l-1,.72-.6.46-.39.31a.58.58,0,0,1,.24-.05l-.68.46.68-.46a.58.58,0,0,0-.24.05,13.54,13.54,0,0,1-3.31,2h0c.69-.3,1.37-.59,2.09-.94-.31.15-.29.11.05-.09l.27-.12a6.79,6.79,0,0,1-1.77.92l-.39.2c-.2.07-.2,0-.25,0l-.42.19C352.64,618.2,353.58,617.85,353.58,617.85Z"/><path class="cls-17" d="M360.14,613.58l-.31.19,1.28-.74A8.35,8.35,0,0,0,360.14,613.58Z"/></g><g class="cls-16"><path class="cls-17" d="M518.79,594.69l0,0h0S518.8,594.71,518.79,594.69Z"/><polygon class="cls-17" points="518.71 594.74 518.7 594.75 518.7 594.76 518.71 594.74"/><path class="cls-17" d="M518.65,594.81s0,0,0,0S518.66,594.79,518.65,594.81Z"/><path class="cls-17" d="M518.72,594.79l0,0h0v0Z"/><path class="cls-17" d="M518.72,594.79l0,0Z"/><path class="cls-17" d="M518.91,595.08s-.06-.07-.06,0,0,.1,0,.12-.09,0-.09,0,0,.2,0,.16a2,2,0,0,0,.13-.18,1.89,1.89,0,0,1,.09-.21l0,0h-.08S518.94,595,518.91,595.08Z"/><path class="cls-17" d="M519.13,594.54v0c-.07,0-.09,0-.11,0l0,0s0,0,0,0a.11.11,0,0,0,.14,0S519.15,594.54,519.13,594.54Z"/><polygon class="cls-17" points="519.2 594.57 519.18 594.59 519.19 594.6 519.2 594.57 519.2 594.57"/><path class="cls-17" d="M518.56,595l-.25.21s0,0,0,0h0l0,0v0h0s0,0,0,0l0,0,0,0h0l0,0s0,0,0,0l0,0h0l-.08.06v0s0,.06-.06,0h0l-.07.05a.17.17,0,0,1,0,.07l0,0a.14.14,0,0,1,0,.06l.08,0c.05,0,0-.09,0,0-.08,0,0,.06,0,0l-.08,0s0,0-.09,0,0-.05.09,0a.14.14,0,0,0,0-.06l0,0a.17.17,0,0,0,0-.07l-.12.1a4.69,4.69,0,0,0-.71.76c-.13.15-.26.3-.4.44-.27.3-.28.66-.63,1a1.14,1.14,0,0,0-.17.56c.12.23.55.19.57.19.37,0,.19-.16.44-.32-.14.12-.19-.17.09-.22s.22-.42.41-.6a.91.91,0,0,0,.09-.17c.28-.26.33-.62.59-.91.06-.07.05-.2.08-.3s.11-.08.14-.11a.41.41,0,0,0,.1-.21c0,.06-.06.12-.11.19s-.06-.11-.05-.16.09,0,.08,0,0-.08,0-.13.06.05.06,0,0-.17,0-.17h.08s0,0,0,0v0l-.07-.07h0l.07.07a2,2,0,0,1,.08-.26h0a.11.11,0,0,1-.14,0s0,0,0,0l-.05,0s0-.09.1-.06v0s0,0,.06,0v0Z"/><path class="cls-17" d="M518.21,595.3v0l-.07.05S518.2,595.32,518.21,595.3Z"/></g><g class="cls-16"><path class="cls-17" d="M527.33,592.38l-.07.06h.06S527.33,592.4,527.33,592.38Z"/><path class="cls-17" d="M527.2,592.48h0v0Z"/><path class="cls-17" d="M527.1,592.6s0,0,.06-.05A.13.13,0,0,0,527.1,592.6Z"/><path class="cls-17" d="M527.21,592.54a0,0,0,0,1,0,0h0l0,0Z"/><path class="cls-17" d="M527.21,592.54h0Z"/><path class="cls-17" d="M527.4,592.82s-.06-.06-.07,0a.88.88,0,0,1-.12.19s-.12,0-.13,0-.12.28,0,.21.2-.2.31-.31l.19-.34a.24.24,0,0,1,.08-.06l-.13.06C527.44,592.6,527.46,592.74,527.4,592.82Z"/><path class="cls-17" d="M527.8,592V592c-.1,0-.12.08-.15.15h.06s0-.06,0,0a.32.32,0,0,0,.2-.15A.11.11,0,0,0,527.8,592Z"/><path class="cls-17" d="M527.89,591.94l0,0h0l0,0Z"/><path class="cls-17" d="M526.91,592.87a5.81,5.81,0,0,1-.49.32s0,0,0,0h0l-.08,0,0,0h0a.05.05,0,0,0,0,0h0l-.06,0a.07.07,0,0,1,.06,0l0,0h0l-.17.08,0,0s-.06.07-.11,0h0l-.13.06-.06.1-.05,0a.14.14,0,0,1,0,.07l.1,0s0-.12.09-.06c-.08-.06,0,.09-.09.06l-.1,0a.18.18,0,0,1-.15,0c0-.07.09-.06.15,0a.14.14,0,0,0,0-.07l.05,0,.06-.1-.26.12c-.56.23-1.06.49-1.64.78l-.93.48a9.27,9.27,0,0,0-1.54,1.38,2.12,2.12,0,0,0-.43,1c.09.41.54.26.56.26.38-.13.21-.32.54-.59-.2.2-.14-.28.21-.35s.54-.61.94-.83c.09,0,.17-.14.27-.21.6-.31,1.06-.74,1.75-1.07a1.75,1.75,0,0,0,.43-.38A3,3,0,0,1,526,594a1.37,1.37,0,0,0,.34-.29c-.12.09-.2.17-.34.26s0-.14.06-.2.11,0,.12,0a.47.47,0,0,0,.14-.17s.07,0,.08,0,.07-.22.14-.23l.13,0,.08,0,0-.05-.08-.07.09,0-.09,0,.08.07.26-.37h0a.31.31,0,0,1-.23.1s0,0,0,0l-.05,0c0-.06.08-.12.18-.11l0,0s0,0,.06,0l0,0A.46.46,0,0,0,526.91,592.87Z"/><path class="cls-17" d="M526.22,593.33l0,0-.14.07S526.19,593.36,526.22,593.33Z"/></g><g class="cls-16"><path class="cls-17" d="M499.48,594.1l-.05,0,0,0S499.48,594.12,499.48,594.1Z"/><polygon class="cls-17" points="499.38 594.13 499.38 594.13 499.37 594.15 499.38 594.13"/><path class="cls-17" d="M499.31,594.19l0,0A0,0,0,0,0,499.31,594.19Z"/><path class="cls-17" d="M499.39,594.18l0,0h0l0,0Z"/><path class="cls-17" d="M499.39,594.18l0,0Z"/><path class="cls-17" d="M499.51,594.5s0-.07-.05,0,0,.1-.07.11-.07,0-.08,0-.05.2,0,.17l.17-.16a2.14,2.14,0,0,0,.13-.19h0S499.55,594.46,499.51,594.5Z"/><path class="cls-17" d="M499.85,594v0c-.06,0-.09,0-.12,0l0,0s0,0,0,0,.11,0,.15,0S499.87,594,499.85,594Z"/><polygon class="cls-17" points="499.92 594.05 499.89 594.07 499.9 594.08 499.92 594.05 499.92 594.05"/><path class="cls-17" d="M499.18,594.36l-.3.15s0,0,0,0l0,0,0,0v0h0l0,0,0,0,0,0h0l0,0,0,0,0,0h0l-.1,0v0s0,0-.07,0h0l-.08,0s0,0,0,.07l-.05,0a.18.18,0,0,1,0,.06l.07,0c.05,0,0-.1.05,0s0,.07-.05,0l-.07,0s-.05,0-.1,0,0,0,.1,0a.18.18,0,0,0,0-.06l.05,0s0,0,0-.07l-.15.07a5.2,5.2,0,0,0-.88.62l-.5.36c-.34.24-.45.6-.86.83a1.1,1.1,0,0,0-.3.52c.06.25.48.32.5.33.37,0,.22-.13.52-.23-.18.09-.15-.21.13-.21s.33-.37.56-.52a.92.92,0,0,0,.14-.14c.33-.21.47-.56.81-.8a.71.71,0,0,0,.14-.29c.05-.05.13-.05.18-.08a.55.55,0,0,0,.15-.19c-.06.06-.09.11-.16.17s0-.13,0-.17.09,0,.09,0,0-.07,0-.12.06.06.06,0,0-.17.05-.16h.08l.05,0v0l-.06-.08h0l.06.08a1.49,1.49,0,0,1,.14-.24h0a.13.13,0,0,1-.15,0s0,0,0,0l0,0c0-.05.05-.09.12-.05v0a.15.15,0,0,1,0,.06l0,0A.31.31,0,0,0,499.18,594.36Z"/><path class="cls-17" d="M498.76,594.59l0,0-.09,0S498.74,594.62,498.76,594.59Z"/></g><g class="cls-16"><path class="cls-17" d="M495.26,593.59l-.05,0h0S495.26,593.61,495.26,593.59Z"/><polygon class="cls-17" points="495.17 593.65 495.16 593.65 495.16 593.66 495.17 593.65"/><path class="cls-17" d="M495.11,593.73l0,0Z"/><path class="cls-17" d="M495.18,593.7l0,0h0v0Z"/><path class="cls-17" d="M495.18,593.7h0Z"/><path class="cls-17" d="M495.38,594s-.06-.06-.06,0,0,.11,0,.13-.1,0-.1,0,0,.22,0,.17.1-.14.16-.21.05-.15.09-.23l.05,0-.09,0C495.37,593.79,495.42,593.92,495.38,594Z"/><path class="cls-17" d="M495.6,593.38v0c-.08,0-.09,0-.11.07l0,0s0,0,0,0a.15.15,0,0,0,.15,0S495.62,593.38,495.6,593.38Z"/><polygon class="cls-17" points="495.68 593.4 495.66 593.42 495.66 593.43 495.68 593.4 495.68 593.4"/><path class="cls-17" d="M495,593.92l-.28.23s0,0,0,0h-.05l0,0v0h0l0,0h0l0,0,0,0v0l-.1.07v0s0,.06-.07,0l0,0h0l-.07,0a.17.17,0,0,0,0,.07l-.05,0s0,0,0,.06l.09,0s0-.1,0,0c-.08,0,0,.07,0,0l-.09,0s0,0-.1,0,0,0,.1,0,0,0,0-.06l.05,0a.17.17,0,0,1,0-.07l-.15.09c-.32.21-.57.46-.88.7a5.91,5.91,0,0,1-.52.35c-.36.21-.52.56-1,.7-.17.06-.33.31-.42.43s.37.44.39.45c.34.14.26-.06.58-.1-.2,0-.09-.25.2-.2s.43-.36.69-.5c.06,0,.1-.1.17-.15.39-.22.57-.61.92-.91a.78.78,0,0,0,.15-.32c0-.06.14-.08.18-.12a.62.62,0,0,0,.14-.23,2.12,2.12,0,0,1-.15.21c0,.05,0-.12,0-.17s.09,0,.09,0,0-.08.05-.13.06,0,.06,0,0-.18,0-.19H495l0,0v0l-.07-.07h0l.07.07a2.31,2.31,0,0,1,.1-.28h0a.16.16,0,0,1-.15,0s0,0,0,0l0,0s0-.1.11-.07v-.05s0,0,.05.05l0,0A.53.53,0,0,0,495,593.92Z"/><path class="cls-17" d="M494.63,594.25v0l-.08.06C494.61,594.31,494.62,594.28,494.63,594.25Z"/></g><g class="cls-16"><path class="cls-17" d="M491.46,592.92l-.06,0,0,0S491.45,593,491.46,592.92Z"/><polygon class="cls-17" points="491.35 592.96 491.35 592.96 491.34 592.97 491.35 592.96"/><path class="cls-17" d="M491.28,593l0,0Z"/><path class="cls-17" d="M491.35,593a.06.06,0,0,1,0,0h0l0,0Z"/><path class="cls-17" d="M491.35,593l0,0Z"/><path class="cls-17" d="M491.47,593.33s0-.08-.05-.05-.05.09-.08.11-.08-.06-.09,0-.07.21,0,.17.12-.1.19-.15l.15-.19h0C491.5,593.16,491.51,593.29,491.47,593.33Z"/><path class="cls-17" d="M491.85,592.84v0c-.06,0-.1,0-.13,0l0,0s0,0,0-.05a.15.15,0,0,0,.16,0S491.87,592.85,491.85,592.84Z"/><polygon class="cls-17" points="491.92 592.88 491.89 592.9 491.89 592.91 491.92 592.89 491.92 592.88"/><path class="cls-17" d="M491.13,593.18l-.32.15s0,0,0,0l0,0-.05,0v0h0s0,0,0,0l0,0,0,0h0s0,0,0,0,0,0,0,0l0,0h0l-.11,0v0s0,0-.08,0h0l-.08,0s0,.06,0,.08l0,0v.06l.08,0s0-.1.05,0,0,.07-.05,0l-.08,0s0,0-.1,0,.05,0,.1,0v-.06l0,0s0-.05,0-.08l-.16.08a5.22,5.22,0,0,0-.95.63l-.53.36c-.36.24-.49.62-.92.85a1.24,1.24,0,0,0-.34.54c.05.27.47.34.49.35.38.05.24-.13.54-.23-.18.08-.14-.23.15-.22s.35-.39.6-.54a1.05,1.05,0,0,0,.15-.15c.36-.21.52-.58.88-.81a.81.81,0,0,0,.17-.3s.14,0,.19-.08a.47.47,0,0,0,.17-.2,1.53,1.53,0,0,1-.18.18c-.05,0,0-.13,0-.17s.08,0,.09,0,0-.08.06-.12.05,0,.05,0,0-.18.07-.17H491a0,0,0,0,0,0,0l0,0-.06-.09h0l.06.09a1.4,1.4,0,0,1,.15-.24h0a.15.15,0,0,1-.16,0s0,0,0,.05l0,0s.06-.09.12,0l0,0s0,0,0,0l0,0Z"/><path class="cls-17" d="M490.68,593.41v0l-.09,0S490.66,593.44,490.68,593.41Z"/></g><g class="cls-16"><path class="cls-17" d="M487.93,592.07h-.06s0,0,0,0S487.93,592.09,487.93,592.07Z"/><polygon class="cls-17" points="487.82 592.1 487.81 592.1 487.8 592.12 487.82 592.1"/><path class="cls-17" d="M487.72,592.16l0,0A.06.06,0,0,0,487.72,592.16Z"/><path class="cls-17" d="M487.81,592.15s0,0,0,0h0l0,0Z"/><path class="cls-17" d="M487.81,592.15l0,0Z"/><path class="cls-17" d="M487.91,592.48s0-.08-.05-.05-.06.1-.1.12-.08-.06-.1,0-.09.21,0,.18.15-.11.24-.17l.18-.2h0S488,592.43,487.91,592.48Z"/><path class="cls-17" d="M488.39,592l0,0c-.07,0-.11,0-.15,0l0,0s0,0,0-.05a.17.17,0,0,0,.18,0S488.41,592,488.39,592Z"/><path class="cls-17" d="M488.46,592l0,0h0l0,0Z"/><path class="cls-17" d="M487.54,592.33l-.38.17s0,0,0,0l0,0-.05,0h0a.05.05,0,0,0,0,0l0,0,0,0h0l-.05,0s0,0,.05,0l0,0h0l-.13.05,0,0s0,0-.08,0h0l-.09,0,0,.08-.05,0s0,0,0,.06l.08.05s0-.11.06-.05,0,.07-.06.05l-.08-.05s-.06,0-.12,0,.07,0,.12,0,0,0,0-.06l.05,0,0-.08-.19.08a7.35,7.35,0,0,0-1.12.69l-.62.4c-.42.26-.61.67-1.09.92a1.66,1.66,0,0,0-.43.59c0,.29.44.39.46.39.38.07.26-.13.59-.25-.2.1-.11-.25.19-.24s.44-.44.73-.61a2.32,2.32,0,0,0,.18-.16c.42-.25.66-.65,1.1-.91a1.86,1.86,0,0,0,.23-.32c.06,0,.16-.06.22-.1a.67.67,0,0,0,.21-.2c-.08.06-.13.12-.22.18s0-.13,0-.17.08,0,.09,0a.43.43,0,0,0,.09-.13s.05,0,.05,0,0-.18.09-.18h.1a.07.07,0,0,0,.06,0l0,0-.06-.09h0l.06.09a2.56,2.56,0,0,1,.2-.26h0a.19.19,0,0,1-.18,0s0,0,0,.05l0,0c0-.05.07-.09.15-.05v0s0,0,0,.06l0,0A.43.43,0,0,0,487.54,592.33Z"/><path class="cls-17" d="M487,592.59l0,0-.11,0S487,592.61,487,592.59Z"/></g><g class="cls-16"><path class="cls-17" d="M484.2,591l-.05,0,0,0S484.2,591,484.2,591Z"/><polygon class="cls-17" points="484.09 591.06 484.08 591.06 484.08 591.07 484.09 591.06"/><path class="cls-17" d="M484,591.12l.05,0A.06.06,0,0,0,484,591.12Z"/><path class="cls-17" d="M484.09,591.11s0,0,0,0h0l0,0Z"/><path class="cls-17" d="M484.09,591.11l0,0Z"/><path class="cls-17" d="M484.2,591.43s0-.07-.05,0,0,.1-.09.12-.09,0-.09,0-.09.22,0,.18l.22-.16.17-.21h0C484.25,591.25,484.25,591.39,484.2,591.43Z"/><path class="cls-17" d="M484.64,590.91l0,.05c-.07-.05-.11,0-.14,0l0,0s0,0,0,0a.19.19,0,0,0,.18,0Z"/><polygon class="cls-17" points="484.7 590.95 484.68 590.97 484.68 590.98 484.71 590.96 484.7 590.95"/><path class="cls-17" d="M483.84,591.29l-.36.17s0,0,0,0l-.05,0-.05,0v0h0s0,0,0,0l0,0,0,0h0s0,0,0,0a.05.05,0,0,1,0,0l0,0v0l-.12,0,0,0s0,0-.08,0h0l-.09,0,0,.08,0,0s0,.05,0,.06l.08,0s0-.11.06,0,0,.07-.06,0l-.08,0a.09.09,0,0,1-.11,0c0-.06.06,0,.11,0s0,0,0-.06l0,0,0-.08-.18.07a9.09,9.09,0,0,0-1.09.61c-.2.12-.41.23-.62.34-.42.21-.63.58-1.12.75a1.6,1.6,0,0,0-.47.5c0,.28.38.44.4.45.36.12.27-.09.61-.15-.21.06-.08-.26.21-.21s.47-.37.76-.51a.83.83,0,0,0,.19-.15c.43-.2.68-.58,1.11-.82.11-.07.16-.21.23-.31s.16-.06.21-.09a.67.67,0,0,0,.21-.2l-.21.18c-.06,0,0-.13,0-.18s.09.05.09,0a.43.43,0,0,0,.09-.13s.05.06.05,0,0-.18.08-.17h.1l.05,0,0,0-.06-.08h0l.06.08a1.5,1.5,0,0,1,.19-.25h0a.16.16,0,0,1-.17,0s0,0,0,.05l0,0s.06-.09.14,0v0s0,0,0,0l0,0A.61.61,0,0,0,483.84,591.29Z"/><path class="cls-17" d="M483.33,591.54l0,0-.1,0S483.31,591.57,483.33,591.54Z"/></g><g class="cls-16"><path class="cls-17" d="M479.6,589l-.05,0,0,0S479.6,589,479.6,589Z"/><polygon class="cls-17" points="479.5 589.03 479.49 589.03 479.49 589.05 479.5 589.03"/><path class="cls-17" d="M479.42,589.1l.05,0S479.44,589.08,479.42,589.1Z"/><path class="cls-17" d="M479.5,589.08s0,0,0,0h0l0,0Z"/><path class="cls-17" d="M479.5,589.08l0,0Z"/><path class="cls-17" d="M479.64,589.39s0-.07-.05,0,0,.1-.07.12-.09-.05-.09,0-.06.21,0,.17.12-.11.19-.17l.14-.21.06,0h-.09C479.67,589.21,479.69,589.34,479.64,589.39Z"/><path class="cls-17" d="M480,588.86l0,0c-.06,0-.09,0-.12,0l0,0s0,0,0-.05a.15.15,0,0,0,.16,0S480,588.86,480,588.86Z"/><polygon class="cls-17" points="480.07 588.89 480.04 588.91 480.05 588.92 480.07 588.89 480.07 588.89"/><path class="cls-17" d="M479.29,589.28l-.32.18s0,0,0,0h0l-.05,0v0h0l0,0,0,0,0,0h0s0,0,0,0,0,0,0,0l0,0h0l-.11.05v0s0,0-.08,0h0l-.08,0s0,.05,0,.08l0,0a.06.06,0,0,1,0,.06l.08,0c.05,0,0-.11.06-.05-.08-.06,0,.07-.06.05l-.08,0s-.05,0-.1,0,.05,0,.1,0a.06.06,0,0,0,0-.06l0,0s0-.06,0-.08l-.16.09a6.65,6.65,0,0,0-.95.68l-.54.38c-.37.25-.51.63-1,.85a1.31,1.31,0,0,0-.37.54c0,.26.45.36.47.37.37.07.24-.12.55-.22-.19.09-.12-.23.17-.22s.38-.4.64-.56a1.21,1.21,0,0,0,.16-.16c.37-.23.55-.61.92-.88.09-.08.11-.21.17-.31s.14-.07.19-.11a.53.53,0,0,0,.16-.2l-.17.19c-.05,0,0-.13,0-.18s.08,0,.09,0a.39.39,0,0,0,.06-.13s.05,0,.06,0,0-.18.05-.18h.09l.05,0v0l-.06-.07h0l.06.07a2.07,2.07,0,0,1,.15-.25h0a.18.18,0,0,1-.17,0s0,0,0,0l-.05,0s.06-.09.13,0v0s0,0,0,.05l0,0A.45.45,0,0,0,479.29,589.28Z"/><path class="cls-17" d="M478.84,589.55v0l-.09.05C478.81,589.61,478.82,589.58,478.84,589.55Z"/></g><g class="cls-16"><path class="cls-17" d="M483.22,583.06l-.64.38.34-.16A1.29,1.29,0,0,0,483.22,583.06Z"/><path class="cls-17" d="M482,583.78l-.12.07-.09.07Z"/><path class="cls-17" d="M480.89,584.46l.56-.33C481.29,584.21,481.1,584.33,480.89,584.46Z"/><path class="cls-17" d="M481.79,584c-.08,0-.12,0,0,0h0l-.33.21Z"/><path class="cls-17" d="M481.79,584l.22-.09Z"/><path class="cls-17" d="M481.68,584.42c-.11.07-.13,0-.34.12a14.15,14.15,0,0,1-1.46.88c-.23.14-.64.22-.87.35-.54.29-2,.9-1.12.6a18.94,18.94,0,0,0,3.19-1.56l2.51-1.62c.25-.15.48-.27.72-.39l-1,.5C482.86,583.54,482.38,584,481.68,584.42Z"/><path class="cls-17" d="M488.31,581.05l-.38.1a5.72,5.72,0,0,0-1.72.5l.27,0c.33-.12.36-.15.06-.07.69-.18,1.33-.34,2-.45A.35.35,0,0,0,488.31,581.05Z"/><path class="cls-17" d="M488.94,581l-.39.05h0l.4-.06Z"/><path class="cls-17" d="M478.48,585.75a8.72,8.72,0,0,1-4.76.73,1,1,0,0,1-.38,0l-.29-.11-.08,0s0,0,0-.06l.1-.12.2-.25.13-.17h0c.06-.1,0-.08,0,0l-.2.19.2-.19a3.18,3.18,0,0,0,.25-.26q.19-.25.42-.51a6.38,6.38,0,0,1-.42.51l-.23.3-.05.08,1-1.18.21-.25a5.63,5.63,0,0,1,.68-.73l.2-.2-.05,0,.08-.07.83-.85.51-.6.23-.15a2.36,2.36,0,0,1,.28-.35l-.48.36c-.22.15-.35.49-.64.65.29-.16.42-.5.64-.65l.48-.36a7.57,7.57,0,0,1,.95-.82,6,6,0,0,1-.95.82,2.36,2.36,0,0,0-.28.35l-.23.15-.51.6c.55-.55,1.11-1.09,1.7-1.64.95-.87,1.93-1.66,2.9-2.48a3.38,3.38,0,0,0,1.09-1.6,1.72,1.72,0,0,0-.56-1.87,2.32,2.32,0,0,0-2-.33,3.61,3.61,0,0,0-1.64,1.12,23.4,23.4,0,0,0-2.15,3.33c-1.22,2.18-2.22,4.38-3.21,6.52l.59.21c.13-.38.25-.75.37-1.12.42-1.32.82-2.58,1.21-3.83.2-.64.39-1.26.59-1.89a7.85,7.85,0,0,0,.37-2,3.3,3.3,0,0,0-.68-2.1,2.43,2.43,0,0,0-2.12-.87,3.41,3.41,0,0,0-2.08.94,4.23,4.23,0,0,0-1.12,2,8.93,8.93,0,0,0,.21,4.31,13.62,13.62,0,0,0,1.69,3.83c.85,1.15,1.23,1.27,1.29,1.18s-.08-.47-.11-.53c-.37-.78-.73-1.41-1.14-2.27a10.92,10.92,0,0,1-1-3.62c.16,1.13,0,.74-.16-.23a5,5,0,0,1,.49-3.38,2.74,2.74,0,0,1,1.76-1.22,1.53,1.53,0,0,1,1.81.85,3.74,3.74,0,0,1,0,2.62c-.28,1-.59,2-.89,2.89s-.6,1.94-.94,3.06c-.13.39-.25.77-.37,1.14l1.08.41c1.17-2.57,2.27-5.06,3.63-7.44.71-1.16,1.37-2.48,2.39-3a1.64,1.64,0,0,1,1.55,0,1,1,0,0,1,.41,1.26,3.9,3.9,0,0,1-1.28,1.63c-.57.51-1.11,1-1.63,1.51-.77.72-1.62,1.46-2.22,2.07a35.52,35.52,0,0,0-2.38,2.71c.79-1,1.38-1.63,2.34-2.63.64-.66-.37.54-.76,1-.16.21-.52.44-.68.65-.37.42-.69.84-1.06,1.32-.15.21-.2.13-.28.24l-.47.62-.39.58c-.13.11.11.09.19.13l.32.06.55.11.37.08.29,0a5.35,5.35,0,0,0,.55,0,5.54,5.54,0,0,0,.7,0l.46-.08a.37.37,0,0,1-.22-.07c.22,0,.53-.05.75-.09-.22,0-.53.07-.75.09a.37.37,0,0,0,.22.07,13.08,13.08,0,0,0,3.33-1.21h0a8,8,0,0,1-1.94.68c.3-.06.27,0-.06.08l-.27,0c.58-.18,1.14-.41,1.69-.56l.35-.19c.18-.06.18,0,.23,0l.36-.18Z"/><path class="cls-17" d="M473.68,585.4l-.19.25.85-1A5.35,5.35,0,0,0,473.68,585.4Z"/></g></g></svg>