<svg id="Layer_1" data-name="Layer 1" xmlns="http://www.w3.org/2000/svg" viewBox="0 0 1686 1686"><defs><style>.cls-1{fill:#fff;}</style></defs><path d="M19.75,1846c1.41-13.7,2.95-27.4,4.21-41.11q3.63-39.45,7-78.91c.9-10.37,1.66-20.77,2.35-31.16,1.33-19.83,2.07-39.71,4-59.49A291.21,291.21,0,0,1,53,1563.77a426,426,0,0,1,37.17-78c6.41-10.44,12-21.49,19.39-31.19,13.47-17.71,27-35.56,45.45-48.72,7.08-5,13.35-11.18,20.1-16.69,5.19-4.24,9.86-9.39,17-10.46a3.7,3.7,0,0,0,2.41-1.12c5.75-9.45,15.82-13.08,24.54-18.61,12.62-8,24.86-16.61,37.38-24.8,8.69-5.68,17.56-11.08,27-17-4.2-4.68-3.06-10.5-1.38-16A26.73,26.73,0,0,1,293.43,1286c4.66-2.88,9.56-5.83,14.76-7.26,13.36-3.67,24.33-11.52,35.62-18.9a130.69,130.69,0,0,0,14.05-10c4.82-4.14,10-8.36,13.36-13.6,6.24-9.69,13.45-17.17,25.19-19.79,5-1.12,9.47-4.32,14.4-5.92a234.09,234.09,0,0,1,23.78-6.62c8.55-1.81,16.48.38,23.22,6.13,2.92,2.5,5.66,2.18,9.3,1.19,14.66-4,29.48-7.37,44.24-11l.91,2.16c-9,5.58-18,11.12-27,16.74-6.25,3.91-12.49,7.83-18.6,12-5.29,3.57-7.47,7.85-5.6,14.89,1.62,6.14,2,12.23,5.61,18.09,2.45,4,1.54,10,2,15.2a19.11,19.11,0,0,0,5.2,12.32c3.73,4,6.6,8.87,9.16,13.73,8.15,15.51,15.67,31.35,24.05,46.72,4.1,7.51,5.93,15.81,10.23,23.39s4.85,17.5,6.61,26.47c3.28,16.73,9.78,32.24,17.46,47.3,2.22,4.35,5.54,8.15,7.63,12.55,7.87,16.57,15.17,33.42,23.25,49.88,3.46,7,8.43,13.33,12.52,20.08,4.39,7.25,8.46,14.68,12.82,22,3.58,6,7.31,11.9,11.09,17.77,5.76,8.95,11.49,17.93,17.48,26.73,7.4,10.86,15.16,21.47,22.56,32.33,5.3,7.78,10.08,15.9,15.43,23.64,4.47,6.47,9.36,12.65,14.19,18.86,5.06,6.5,10.15,13,15.46,19.27,6.06,7.19,12.36,14.17,18.6,21.21,4.22,4.77,8.59,9.43,12.77,14.24,5.59,6.42,10.85,13.15,16.65,19.37,5.59,6,11.67,11.55,17.58,17.25,5.05,4.86,10.51,9.33,15.17,14.54,11.72,13.09,26,23,39.71,33.75,11.48,9,22.56,18.46,33.94,27.57,2.79,2.24,6,3.9,9.07,5.83ZM426.2,1266l1.83-11.82-1.82-.11V1266l7,6.36C431.86,1269,430.53,1265.66,426.2,1266Zm19.69-16.23-1.21,1.3,5.83,2.76.57-1.19Z"/><path d="M1571.51,1491.67h-5c0-7.41-.1-14.26.09-21.1,0-1.27,1.2-2.51,1.85-3.76l-.12-.16c3.27,1.1,4.79,3.28,4.83,6.82.07,6.2,2.42,11.33,5.69,16.83,3.13,5.26,7,10.54,7.63,17.79s4.85,14,7.52,21c.32.84,1.34,2,1.09,2.37-3.31,5,1.24,7.74,3.13,11.23.58,1.08,1.85,2.73,1.51,3.22-5.22,7.51,3.54,12,4,18.55.54,8,4.12,15.72,5.93,23.67.62,2.74-1,8-.08,8.34,6,2.39,2.61,9,6.16,12.19.89.79,2.26,1.64,2.37,2.59.82,6.55,1.4,13.12,2,19.69.1,1.18-.91,3-.4,3.52,3.91,4.12,2.65,10.07,5.4,14.53,4.8,7.81,5.31,16.64,6.6,25.41,1.18,8,3.56,15.92,5.31,23.89,1,4.78,2.3,9.57,2.71,14.42.66,7.66,5.34,13.52,8.26,20.15,1.13,2.59,2.15,4.59-2.25,6.34,5,3.3,6.35,6.91,5.4,12.58-.73,4.36,2,9.39,3.52,14,2.19,6.82,4.65,13.54,6.93,20.33a38.27,38.27,0,0,1,2,6.94c1.1,8.14,1.6,16.37,3,24.45,1.69,9.55,4.1,19,6.19,28.45H997.48c1.23-1.73,2.22-3.69,3.7-5.15,14.82-14.58,30.37-28.47,44.39-43.78,12.16-13.27,23-27.86,33.7-42.35,10.53-14.22,20.87-28.66,30.09-43.74,7.93-13,15.11-26.42,17.09-42.14,2.11-16.72,4.26-33.61,8.66-49.81,4.71-17.34,5.87-35,8.58-52.58,2-13,2.35-26.15,3.4-39.24.5-6.11.69-12.26,1.43-18.35,1.68-14,3.92-27.89,5.32-41.89.81-8.16.14-16.46.67-24.67.37-5.78,1.64-11.5,2.52-17.24.23-1.51,1-3.11.64-4.49-2.36-10.59.93-20.54,3-30.68a166.07,166.07,0,0,0,3.42-21.8c3-42.6,5.8-85.22,8.63-127.84.72-10.74-2.93-20.73-6.67-30.33-3.58-9.15-11.28-15-20.85-18.27q-31.41-10.67-62.65-21.79c-16.35-5.85-32.57-12.07-50.14-18.6,2.25-.83,3-1.35,3.76-1.35,16.21,0,32.43-.1,48.64.28,30.36.72,59.41,8.12,88.17,17.35,10.45,3.35,21.46,5,32.3,7,15.6,2.83,30.92,6.25,45.9,11.83,8.51,3.16,15.32,6.77,21.43,13.83,4.35,5,8.8,10.92,14.39,14.44,7.12,4.48,15.57,7.44,24.48,5.42,4.2-1,7.88-1,11,2.27h-8.28c-.07.71-.15,1.42-.22,2.13l10.55,2.76c-1.86,3-3.07,5.77,1.92,6.93,2-3.27.27-5.12-2.18-6.71q-1-2.67-2.08-5.36l11.37,4.87c-1.16-5-5.3-6.61-8.62-9.88,4.5-1.32,7.71.81,11.14,2.34,3,1.33,6.2,3.07,9.29,3,8.11-.15,15.1,3.81,22.73,5.24,1.12.21,2.63,1.37,3.21,1,7.12-4.8,8,1.38,10.35,5.43-3.19,4.39-7.68,1.41-12,2.62l2.91,6.49c-4.8,3-7.56-2.87-12.44-2.79,6.07,9.38,11.68,18,17.3,26.72-1,4.76-10.52,3.8-5.69,10.89l9.3,1.29c3.1,13.87,6.21,27.77,9.12,40.82.83-2.82.78-13-.36-18-2-8.95-4.25-17.87-5.94-26.89-.49-2.62.55-5.53,1.13-10.19,8.53,6,15.18,11.34,22.39,15.69,7,4.22,16.16,3.82,24.35,9.92l-7.31,2c0,1-.2,2,0,2.13,4.6,2.13,8.54,4.84,10.09,10.08a3.38,3.38,0,0,0,1.92,1.88c5.94,2,12,2.89,18,.44l-.26.18c4-1.08,7.54-1.08,10.92,2.33,2.5,2.52,6.07,4,9.23,6l11-2.78c.35,3.95.64,7.26.94,10.58a7.42,7.42,0,0,0-2.39,1c-.46.43-.45,1.38-.65,2.1.88-.24,2-.23,2.56-.8s.18-1.67.23-2.54c.89,1.54,1.78,3.07,2.49,4.28l9.6.8c-.42,3.78-.74,6.67-1.2,10.77,2.59.62,5.34,1.1,8,2a37.66,37.66,0,0,1,5.2,2.6l-7.12,3.47c5.93,2.06,7-.11,6.89-3.71,1.53,1.47,4,2.74,4.4,4.47,1,4.78,2.81,8.39,7.49,10.66,1.6.77,3.56,3.85,3.16,5.24-2.56,8.88,7.85,12.5,7.87,20.25,0,.75,2.43,1.49,4,2.39-.58,2.15-1.16,4.31-1.88,7l9.9,1.44-8.83,6.81c7,4,9.81,9.46,12.11,15.32-2.12-.48-4.2-1-6.28-1.47l-.12,1.41h6.58c.35,4.92.83,9.37,3.9,14,2.52,3.82,1.51,9.9,2.4,14.92.56,3.17,2.09,6.17,2.59,9.35,1.3,8.32,3.38,16.73,3.12,25-.4,12.38-2.55,24.69-3.92,37a6.11,6.11,0,0,0,.44,1.84c2.94-.13,4.11-1.7,4.22-4.58.11-2.68.8-5.34.78-8,0-7,3.3-11.89,9.29-15.16l7.14,2.62C1573.26,1489.28,1573.26,1489.28,1571.51,1491.67Zm-118.38-168.24q1.15,2.4,2.33,4.81c.87-1.44,1.1-2.67.61-3.1a11.17,11.17,0,0,0-3.2-1.47c-.09-5.29-2.84-6.61-7.29-5.5l2.57,8.33Zm-156.3-89.72c4.63-5.74,7.12-3.75,9.82-1.14s6.26,4.1,11.82,4.58c-5-10.48-15.14-7.28-22.15-13.52C1296.5,1227.26,1296.59,1228.89,1296.83,1233.71ZM1321,1242c1.87,2.42,2.73,4.65,3.84,4.78,6.32.74,12.7,1,20.07,1.46-2.76-5.26-7.21-2.86-10.51-3.6C1330.65,1243.81,1326.84,1243.15,1321,1242Zm21.53-13.57,12.93,4.48C1354.42,1227.38,1354.42,1227.38,1342.55,1228.45Zm7.68,12.11c.19-.9.37-1.8.55-2.7l-9.08-1.81c-.14.59-.27,1.17-.41,1.75C1344.26,1238.76,1346.37,1242.56,1350.23,1240.56ZM1324.17,1257c.21-.83.43-1.65.65-2.47l-9-1.84-.39,1.49Zm5.58,11.82,1.93,1.49c2.63-.79,3.91-2.31,2.08-7C1332,1265.75,1330.86,1267.27,1329.75,1268.79Zm-1.69,9.84c-1.5-.7-2.79-1.71-3.22-1.43a3.46,3.46,0,0,0-1.37,2.77c.07.69,1.45,1.23,2.24,1.83C1326.35,1281,1327,1280.09,1328.06,1278.63Zm10.63-17.62c2-3.59,1.16-5.48-3.14-6.38.55,1.85,1,3.4,1.51,4.9C1337.23,1260,1337.82,1260.24,1338.69,1261Zm-34.75,50.67,0,1.57c.48.31,1.17,1,1.41.87a12.29,12.29,0,0,0,2.08-1.76Zm56-59.19,1.92.25.51-4-1.46-.28C1360.58,1249.83,1360.25,1251.16,1359.93,1252.49Zm-62.56,78a11,11,0,0,0,2.08-.56,17.33,17.33,0,0,0-.39-2.45C1298.58,1328.29,1298.1,1329.15,1297.37,1330.44Zm166.22,17.15c-.53-1.26-.68-2.16-1.21-2.6-.25-.21-1.35.34-1.83.79a1.66,1.66,0,0,0,.37,1.51A8.89,8.89,0,0,0,1463.59,1347.59Z"/><path d="M743.64,239.32c2.09-.46,4.22-.76,6.25-1.41a15.65,15.65,0,0,1,14.57,2.15c5.74,3.87,6.7,3.51,13.33.58,1.52,6,2.69,11.73.28,17.67-1.14-3.92-2.26-7.84-3.8-13.2l-3.84,5.56L752.77,245,755.51,256c4-.76,7.13-1.05,10.07-2.05,1.76-.59,3.15-2.29,4.71-3.48a57.76,57.76,0,0,0,4.46,6.28c.76.84,2.36.9,3.59,1.31l1.58,5.34h-4.08c.48,10.31,2.08,20.51-7.84,27.8-1.18.86-1.17,3.33-1.71,5.06l.2-.26c-1.12,1.32-3.1,2.57-3.22,4-.4,4.79-.15,9.63-.15,15.46-2.14.55-5.48,1.41-4.22,6.61,1.12,4.62,2.76,7.31,7.91,6.91.57-.61,1.73-1.28,1.72-1.93-.13-9.2,7.22-14.3,11.37-21.14,0,0-.17-.17-.17-.17,3.17-6.14,8.34-11.75,5.21-19.57,1.91-3.73,4.23-7.31,5.63-11.23,1.48-4.17,2.07-8.64,3.31-14.12l8.65,11.71,8.24-24,2.06.25c.23,4,.48,8.09.69,12.13.05.9-.41,2.27,0,2.65,5.59,4.83,3.2,10.88,3.32,16.87.3,15.49,1.66,31,2.43,46.44.16,3.3-.44,6.64-.77,11.07,2.17-.74,4.4-.81,4.87-1.76,2.53-5.15,4.63-10.51,7.07-16.26H824.1c0-2.44-.08-4.51,0-6.57a15.32,15.32,0,0,1,1.17-5.55c.28,1.61.55,3.22,1,5.8,3-2.06,5.93-5.41,9.61-1.68,4.17,4.23-3.51,4.55-2.12,8.27l4.88,1.87c-3.69,5.48-3,11-2.14,17.19.66,5-3.43,10.65-5.86,17.23,11.24-9.77,11.37-10.86,14.08-22.72,1.24-5.41,4.6-10.36,7.1-15.46,1-2.14,2.37-4.15,3.56-6.22,3.57-1.57,3.57-1.57,2.37-6.35-.87,2.67-1.51,4.63-2.14,6.59-3.53-1-8.17.87-10.22-3.95l0,.1c3.65,2.41,6.1,1.66,7.54-3.21l-7.53-1.39c3.17-7.53,6.31-15,10.13-24.11l-8.51,9.47c-10.35-4.58-8.95-17.82-17.29-23.69l-5.18,4.49,0,0V258.3l7.86,2c-1.72-2.21-2.54-3.27-3.15-4.07,2.69-2.48,4.94-5.25,7.81-7,3.27-2,7.09-3.12,10.68-4.62,0,.84-.07,1.67-.09,2.51-3.22,1.39-7.35,1.26-10.2,6.23l11-1.41c-.47-2.25-.77-3.66-1.07-5.07h9.83c-1.91,8.13-9.37,8-12.87,12.11l4.83,7.26c4.34-9.61,12-13.19,20.52-15.8-.84,4.65-1.53,8.49-2.22,12.32l1.49.78,5.51-6.31,1.84,4.45c8.41-1.65,8.41-1.65,11.23,7.17.66-2.7,1.15-4.73,1.64-6.73,8.94,1.68,10.82,5.17,7.83,13.74-.15.63-.22,1.6-.56,1.7-8.71,2.65-10.42,10.14-9.23,17.07s-.48,11.91-3.7,17.19c-3,4.93-6,9.87-9.17,14.69-4.41,6.7-4.31,9.83.91,16.31-.89,2.62-1.81,5.22-2.73,7.81l2.53.41v-8.48c4.71-7.23,9.54-14.38,14.06-21.72,2.05-3.32,5.28-7.23,4.87-10.48-1-7.75,2-14.94,1.6-22.49-.18-4.05.83-8.15,1.31-12.22L908.15,272c4.62.94,7.51,10.9,16.11,6.46l6,8.19-19,7.78.6,1.9c4.74.19,9.19-.05,13.67-3s7.15-1.89,9.36,2.84,3.72,9.5,6.94,13.8c3.08,4.11.57,8.24-6.66,12.93L929,299.35l-20.28,6.71.36,1.16,12.74,1c4.27,7.4,6.64,16.77,4.94,28.05-5.75-6.45-1.21-15-6.17-21.1-1.39,6.53-2.75,12.87-4.42,20.71-.2.2-1.75,1.66-3.81,3.6,4.18,6.24,9.06,11.8,11.9,18.26,3.23,7.34,3,15.46.24,23.73-6.16-2.91-5.06-9.11-6.65-13.56-2.19-6.14-5-14.47-9.34-20.54.48,12.88.93,25.12,1.41,38-1.26-1.82-2.42-3.51-4.11-6L904,385.68a17.69,17.69,0,0,1,2.42,1.52c2.74,2.51,4.9,5.07,5,9.33s1.5,8.43,2.3,12.65c1,5.19,1.68,10.08-2.43,14.73-2.8,3.17-2.2,9.26.64,15.78.76-4.89,1.32-8.44,1.91-12.25,1.14.72,1.92.93,2,1.31,3.46,14,6.32,27.85-1,41.72-2.57,4.88-3.8,10.47-6.1,17.06-1.28-3.94.5-8.59-5.55-8.75C901,478.72,899,473,896,468.36c-3.56,9.18-9.53,12.45-16.32,15.73-4.26,2.05-9.08.83-13,4.2-3.36,2.93-8.07,6.44-11.92,6.16-5.76-.43-7.43,2.54-9.1,6.27-3.74.24-5.77-.38-5.27-4.48.32-2.62-.24-5.36-.42-8.23l-14.5,7.62c-.7-2.31-.73-4.9-2-6.11a7.94,7.94,0,0,0-6-1.63,8.51,8.51,0,0,0-7.13,7.45c-.49,3-.1,6.21-.1,9.75L798,511.49c-1.09-3.88-2.06-7.61-3.23-11.27-.28-.85-1.23-1.49-1.88-2.21-1.37-1.51-2.75-3-4.29-4.68-2.49,4.54-4.77,9.46-7.72,13.94-4.47,6.78-7.32,14.39-15.75,18.67-4.93,2.5-10.42,8-8.75,16.27-5.25,2.25-9.86,4.55-14.7,6.22-4.34,1.49-5,4.81-5.53,9.23l-9.45,1.68c-.49,8.26-6.12,13-13.11,17.64-9.06,6-16.41,14.71-25.6,20.48-10.58,6.63-13.83,15.49-12.44,27.13l-5.08,2.16c-2,4.1.51,10.11,5.06,12.8l-6.9,9.51c5.47,1.82,9.45,10.2,18.07,4l-4.28-8.54c5.15,3.93,10.84-3.84,13.57,5-1.34,1-3.08,2.09-4.61,3.42-3.67,3.21-3.55,5.86-.12,9.8,1.19,1.37,1.8,3.25,2.64,4.82-6.74,4.6-7.57-2.09-10.27-4.15-4.76-.45-8.22,1.28-10.54,4.91-2.71,4.25-5.09,8.74-11.09,2-3.7,10.51-7,19.26-9.82,28.18-1.14,3.65-1.54,6.91-6.4,7.65-1.57.24-3.77,3.44-3.8,5.31-.08,5-1.83,8.79-6.78,11.51,11.61,12,1,17-8.26,23.18l8.47,6.62-.24-.18c2.91,5.06,6.71,5.55,11.49,2,5.9,3.13,4.92,16.52,16.37,11.09,1.23,7.66,2.12,8.79,8.17,8.7a8.38,8.38,0,0,1,5.49,1.49c2.83,1.83,6.86,1.81,11.06,2.73.45,1.48,1.06,3.45,1.85,6,6.34-1,9.31,4,13.86,7.22,6.08,4.28,6,8.87,5.63,16,3.6-.85,6.47-1.17,9.05-2.21,6.8-2.77,14-1.09,18.19,4.55.54.73,1.72,1.74,1.54,2.12-2.16,4.57,1.25,8,2.11,12,.3,1.36-.35,2.93-.64,5h9l-3.41,6.08,6.18,8c4.79-1.11,6.2-9.3,13.39-7.65,3.51,4.83,5.8,10.12,1,16.83h14.9c4.17,10,14.33,9,21.88,6.84,8.28-2.33,15.36-1,23,.57,3,.62,5.94,1.54,9,2.13,4.53.88,8.66,2.15,9,7.91,5.32-2.47,2.19-11,10.09-10.61l3.75,6.25c2-3.65,3.63-6.51,5.42-9.73,8.47-2.86,15.69-8.73,22.25-15.46,2.93-3,5.43-6.44,8.22-9.6,3.62-4.09,7.59-7.64,9.43-13.34,1.33-4.12,5-7.71,8.16-10.92a21.51,21.51,0,0,0,5.76-11.2,54,54,0,0,1,4.78-12.86,11.81,11.81,0,0,1,5.82-5.48c4.46-1.54,8.63-2.68,10.57-7.75.44-1.14,3.11-2.06,4.72-2a27,27,0,0,0,20.42-8,27,27,0,0,1,4.06-2.69l5.14,4.16a34.48,34.48,0,0,1,3.31-1.3c7.15-2.07,9.21-1.05,12.79,5.07,1.87,3.19,4.49,6,7.8,10.24-.14,1.65-.62,5.26-.73,8.89-.2,6.17.9,7.42,7,7.88,6.36.48,11.95,2.22,16.18,7.47a28,28,0,0,0,17.2,9.93,15.72,15.72,0,0,1,5.93,2.3c3.3,2.31,3.35,5.69.19,8.41-1.83,1.59-4.16,2.59-6.11,4.07s-4.17,2.84-5.33,4.81c-7.17,12.1-18.07,20.36-28.82,28.81-3.53,2.77-6.62,6.17-10.35,8.59a26.73,26.73,0,0,1-9.86,3.89c-7.35,1.24-7.4,1-6.6,10.53L988,877.11c2.51,3.14,6.56,3.62,11,2.54,6.5-1.56,13-2.41,19.26-5.65,5.81-3,13-3.48,19.55-4.84,6-1.22,12.08-1.9,17.25-5.75,7.4-5.52,9.83-12.37,6.6-21-1.27-3.41-3.32-6.54-5.13-9.73-2.27-4-4.92-7.81-6.91-11.94-2.37-4.92-.74-8,4.57-9.66,6.64-2.11,8-3.54,7.9-9.86a52.26,52.26,0,0,0-1.43-9.05c-.57-2.93-1.3-5.83-2.27-10.15a57.34,57.34,0,0,1,6.58,2c2.43,1.12,4.63,2.76,7.09,3.82,3.85,1.66,5.86,4.28,7.8,8.23,3.42,6.95,7.86,14,18.38,13.54,2.73,9.68,5.36,19.37,8.21,29,1,3.37.35,5.79-2.31,8.17a26.63,26.63,0,0,0-8.71,15.82c-.69,4.26-3,7.09-6.12,9.86-5.31,4.71-9.84,10.07-9.49,17.88-3.13,2-5.43,1.42-6.56-1.93s-2-7.08-2.87-10.65c-2.24-8.93-3.32-9.56-11.93-6.66-.86.29-1.66.77-3.49,1.63-1.13,7-2.47,14.48-3.53,22-2.13,15.18-2.15,30.65-6.65,45.53-2,6.74-5.3,12.4-11.06,16.46-6.17,4.36-11.53,10.11-19.55,11.36-1.46.23-3.55.68-4.14,1.72-5.52,9.74-14.88,9.28-24,9.46l-2.74-4.95c-4.45,8.51-10.43,13.36-19.54,14.17-4.46.39-9.09,1.15-11.12,6.68-.66,1.8-3.73,2.72-6.15,4.34v6.76c-1.11.46-1.94,1.12-2.74,1.08-7.74-.32-15.53-.31-23.18-1.32a12.67,12.67,0,0,0-11.87,4.49l-21.22-7.74c.87,7.08-5.6,15.55,6.09,20.48l-6.17,4.23c2.29,6.4,7.07,11.06,11.7,15.81,3,3.07,6.33,5.85,9.08,9.13,3.69,4.39,7.93,7.52,13.6,8.89a20.22,20.22,0,0,1,7.45,3.4c7.54,5.79,16,8.17,25.38,9.34a79.58,79.58,0,0,1,21.87,6c7.27,3.2,14.55,1.25,21.76,2.14,3.54.44,7.12.57,10.68.75,1.18,0,2.59.19,3.53-.35,8.9-5.11,18.39-1.39,27.58-1.94,3.59-.22,7.2,0,11.85,0-2.85,5.28-7.08,8.69-11.46,11.63-15.75,10.58-32.78,18.24-51.84,20.28-11.89,1.27-22.7,5.89-33,11.15-5.32,2.71-9.16,8.76-13,13.82-6.63,8.74-12.88,17.77-19,26.91-2.7,4-4.45,8.71-6.91,12.93-1.66,2.87-3.34,6-5.81,8-5.22,4.36-7.79,9.82-9,16.29a11.24,11.24,0,0,1-2.81,5.53c-1.88,1.89-2.8,3.45-2.46,6.35.51,4.32.07,8.68-5.23,10.47-1,.34-2.34,1.82-2.28,2.69.42,6.23-3.33,9.4-8.07,12.12-1,.55-2.26,2.13-2,2.85,1.82,6.23-2.63,9.18-5.91,13.12-1.69,2-1.58,5.58-2.35,8.7-5.05,2.84-10,2.68-14.2-4.33-1.26,3.44-2.09,4.74-2.16,6.08-.26,5.64-3.16,8.24-8.7,8.53-4.87.25-9.08,1.82-10.67,7.12-3.6-4-7.54-3.57-11.44-.66-2.18,1.63-1,3.17.62,4.47a38.4,38.4,0,0,1-30.17,5.89c-10.16-2.15-20.21-4.86-31.92-7.72l5,5.72H755.16c-.47-2.89-.88-5.46-1.39-8.57l-9.9,3.23c0,3.56-.52,6.8.13,9.79.72,3.29,2.51,6.36,4.22,10.47-3,6.39-7.51,13.67-6.85,24.19l6.65-4.91,6.24,15L744.17,1341c-.19-1.92,1.62-4.88-2.94-4.87,1.16,1.77,2.11,3.23,3.07,4.68-1.53,7.8,6.21,10.61,9.27,17l-7.42.7c.9,4.14,1.89,8,2.53,11.86,1,6.24-1.25,7.28-7.71,6.59-7.39-.79-12.59-4.47-18-8.91-2.44-2-6.15-2.47-9.14-3.91s-6.07-3.4-9.14-5c-.45-.24-1.24.28-1.8.14-6-1.55-11.53-3.28-12.88-10.91-.93-5.24-3.41-10.21-5.49-16.17l-22.34-6.27c.55-1.77,1.59-3.47,1.44-5.06s-1.12-3.81-2.4-4.52-3.52,0-4.81.84c-7.33,4.87-8.29,7.74-6.35,16.83a10.28,10.28,0,0,1-.2,2.72c-4.85-1.26-9.84-1.88-14.15-3.93-2.77-1.32-4.73-4.61-6.69-7.28-2.59-3.53-4.83-7.32-7.89-12l-4.83,9.21c-4.62-.21-8.58-1.19-11.65-4.58l-.26.25c1.88-2,3.75-3.93,5.62-5.91,2.55-2.7,3.06-5.25-1.16-7.85l-5.3,4.15,0,.06c-.56-6.23.83-12.93-4.36-18,3.67-.3,7.36-.58,10.93-.86-1.08-3.14-1.88-5.37-2.6-7.63-1.22-3.78-2.25-7.63-3.58-11.36-1.92-5.37-6.09-7.41-11.52-7.17-2.39.1-4.76.49-7.24.76,13.22,6.39,18.22,12.23,17.76,20.83l-4.8-1.89c.48,2.86.88,5.21,1.28,7.57-1.51.16-3.05.22-4.53.51-8.49,1.67-12.87,0-16.12-8-2.25-5.51-6.17-7.65-11.35-8.84a3.39,3.39,0,0,1-2.11-1.71c-2-5-4.81-8.66-10.67-9.73-2.28-.42-4.54-2.67-6.18-4.62-6.08-7.23-15.5-12.46-14.91-23.87,0-1.11.25-2.22.59-5.22,5.26,5.83,10.09,10.07,13.42,15.27a24.49,24.49,0,0,0,8.17,8.12c3.56,2.21,6.43,5.55,9.51,8.49,2.57,2.45,5,3.49,7.77.27a10.16,10.16,0,0,1,2.56-2.47c5.32-2.94,4.91-2.46.92-6.45-2-2-2.06-5.91-3-9l-.23.26c.9-2.76,1.8-5.52,2.66-8.13l-5.61-2.1c.71-1.82.94-4.71,2.21-5.29,5.8-2.62,4.93-6.91,3.78-11.57-.72-3-.63-3,3.31-7,1.29,2.84,2.42,5.34,3.59,7.9,4-1,4.84-3.85,5.18-7.59a39.88,39.88,0,0,1,5.18-16.34c2.77-4.94,2.63-11.53,4-18.67,4.19-1.89,7.3-10.78,16.19-4.68.79-5.55,2.76-9.79-2.41-14a6.43,6.43,0,0,1,.78-10.42c2.4-1.66,3.16-3.34,2.78-6.12a6.07,6.07,0,0,1,1-4.31c4.1-4.8,4.16-10.23,2.29-15.63-1.8-5.19,1.95-8.75,2.85-13.11s-5.48-8.19-.95-12.84a5.11,5.11,0,0,0,.94-1.45c-7.19-5.93.25-14.42-3.92-21.33-2.88-4.76-.1-10.38,3.3-15.49l-4.37-2.13c0-4.49-.25-9.3.05-14.07.61-9.86-5.22-18-6.76-27.37a80.21,80.21,0,0,0-5.61-18.64c-.55,2.21-1.11,4.41-1.87,7.45-5.12-4.29-11.1,3.61-16.32-1.77l-17,5.08c-3.79-7.15,2.18-17.92-9.55-20.12.44-2.16.83-4.1,1.45-7.23l-6.22,3c-.73-5-1.45-9.95-2.18-15l4.8,1.9.58-6.61-8.84-1.94c.49-2.21.9-4.08,1.18-5.36l-16-13.35,1.08-2c5,1.41,10.14,2.44,14.95,4.32,8.35,3.27,16.05,3.16,23.22-2.72,3.32-2.73,6.79-5.29,10-8.18,3.84-3.5,4.19-5.44,2.77-11.84-7.18,5.22-14.91,6-23,3-5.34-1.93-9.62-5.56-9.21-11.35.63-8.8-3.14-16.57-4.64-25.73,9.39-.54,16.76,5.59,25.55,6.42,1.18-5.48-3.09-7-6.8-8.68l2.35-5.52c-1-.46-2-1.35-2.59-1.13-8.91,3.3-15.81-1-22.61-5.79-1.26-.88-2.49-1.8-3.8-2.62-3.79-2.36-7.34-3.35-12-1.18a13.76,13.76,0,0,1-18.26-5.91,72,72,0,0,1-7.09-18.76c-2.89-13.34-4.84-26.88-7.18-40.32H483.36c-2.66,8.54-2.05,17.16-2,25.71a46.28,46.28,0,0,0,.88,8.13c.33,1.73.77,4.26,2,4.87,6.06,3.11,8,9.29,11,14.46,6.16,10.55,14.36,18.18,26.32,21.39,1.48.4,3.2.49,4.38,1.33a96.71,96.71,0,0,1,9.21,7.45c4.14,3.82.1,7.37-.78,11a59.29,59.29,0,0,1-2.46,6.75c-6.15.94-9.44-3.34-12.68-6.39-6.6-6.24-12.07-13.66-18.69-19.88-8.65-8.13-14.53-17.92-19.65-28.4A24.68,24.68,0,0,0,477,843c-4.57-5.19-9.26-10.28-13.77-15.53-1.13-1.32-2.44-3.06-2.48-4.64-.11-4.29-1.89-7.51-4.56-10.69a9,9,0,0,1-1.9-6c.73-9.24-5.45-16.73-6.18-25.55,0-.1-.54-.16-1.55-.43a44.25,44.25,0,0,0,3.53,30.13c6.3,13,12.49,26,18.27,39.2A124.16,124.16,0,0,0,487,880c5.23,6.24,8.88,13.85,13,21,2.93,5.07,3.57,5.65,9.69,5.62,1.81,4.87,3.63,9.74,5.69,15.24a27.33,27.33,0,0,1-4.14-1.41c-1.06-.53-2.18-2.34-2.78-2.14-8.49,2.87-11.08-4.47-15.35-8.73-9.88-9.85-15.28-22.86-23.67-33.75a133.15,133.15,0,0,0-9.89-11.34c-.53-.54-2.56.36-4,.61.48-11-4.94-19.6-11.09-28.23-7.1-10-13.55-20.42-15.9-32.75-1.07-5.57-2.85-10.71-7.94-13.9-3.06-1.92-2.26-5-3-7.76-2.64-9.57-6.11-18.9-9.26-28.34-7.56,0-7.56,0-9.53,9.32-6-5.95-8-13.75-11.47-20.71-1-2-1.95-4-3-5.86-.88-1.58-2.52-3-2.76-4.61-1.33-9.06-6.89-17.16-6-26.71a4.44,4.44,0,0,0-.67-2.56c-4.73-7.75-4.33-16.85-6.75-25.19a106.47,106.47,0,0,1-4.49-30c0-.83-1.15-1.62-1.25-2.49-.23-1.87-.36-5.41-.14-5.44,5-.69,2.59-4,2.28-6.29-2.51-19.38-2.35-38.27,7.63-56.08,3.56-6.36,5.55-13.6,8.26-20.43-.44.07-.67,0-.67-.19.63-6.79,6.24-19.22,11.26-24.31.55,2.67,2,5.3,1.29,7.12-2.05,5.42-2.47,10.91-2.83,16.57-.29,4.52-1.76,9-1.94,13.5,0,1.29,2.34,3.43,4,3.9,3.91,1.13,5.95,2,5.67,4.77-.48,4.62.11,10-6.12,12.43,3.77,1.39,4,4,3.55,7.43,5.22-1.43,6.79-4.77,6.62-9.4-.14-3.89-.13-7.79-.47-11.66-.42-4.76-1.71-9.5-1.61-14.22.28-12.92,1.08-25.82,1.68-38.86-2.64-3.66-6.17-4.76-11.63-1.45l3.39-8.69,6.3,1.57,2.05-7.24L396.25,511c-.41-4.21,1-9.13-4.1-11.17l.23.24c2.75-3.56,6-6.85,8.14-10.73,6.22-11.21,12-22.69,18.05-34,.82-1.53,2.6-3.85,3.67-3.71,6,.74,7.4-5.83,12-7.2,1-.3,2.09-2.25,2.2-3.53,1.52-16.38,10.53-29.18,19.86-41.77,2.46-3.32,6.3-5.61,8.87-8.88,1.21-1.54.91-4.27,1.3-6.46,4.44-3.14,9.9-5.16,11.83-11l4.42-4.34,5.71-4.7-.23-.22a48.33,48.33,0,0,0-2.44,6.4c-.34,1.44.13,3.08.24,4.62-2.31,1.18-5.4,1.77-6.78,3.63-7.11,9.56-14.26,19.16-20.42,29.34-3.62,6-5.42,13.05-7.22,20.21,9-6.95,19.48-12,24.73-22.81,2.28-4.7,5.26-8.85,10.77-11.3l-2,5.65c2.48-.72,4.19-1.3,5.95-1.71,2.15-.51,4.34-.89,6.49-1.32l1.8-1.22a16.82,16.82,0,0,1,3-2.16c4.11-1.8,6.9-4.7,10-8S518.63,379,521,375c2.17-3.66,4.2-8.06,10.6-8.48-2,7-5.64,12-9.55,16.83-.5.63-2.14.74-2.22,1.25-1,6.18-1.74,12.38-2.84,20.6l9.66-8.52c-3.37,5.86-2.25,14.24-9.85,17.28-2.17,10.17-9.24,17.6-14.39,26.12-1.15,1.89-.47,4.82-1.4,6.93-3.9,8.78-8.06,17.43-12.19,26.1-2.56,5.38-6.17,10.39-4.72,17.36l23-41c1.8,0,4.37.73,5.93-.22,1.39-.84,2.27-3.53,2.3-5.42.16-10.32,4.71-19.21,10.41-27,5.47-7.48,7.84-15.46,9.26-24.19a15.51,15.51,0,0,1,2.76-7.21c10-12.32,20.33-24.44,30.57-36.6a13.28,13.28,0,0,1,2.8-2.37c7-4.68,14-9.52,19-16.44l-.94,5.37c11.8-5.76,14.39-8.24,16-16.49-2.7,1.93-4.22,5.1-6.68,7.17s-5.7,2.86-8.6,4.22c4.29-8.71,13.4-12.2,20-18.38,5.76-5.39,12.27-10,18.48-14.87,2.08-1.64,4.91-2.59,3.38-6.44-.37-.92,1.5-3.23,2.84-4.24,5.53-4.17,11.31-8,16.86-12.15,1.67-1.24,2.92-3.07,4.33-4.6-5.19-5.06-5.17-5.35.53-12.36,10.1,1.89,10.1,1.89,14.56-8.42h23.27c1.41,2.15,2.73,5.05-1.14,8.81-2.93,2.85-4.54,7.07-6.69,10.73-1,2.61-2,5.18-3.06,7.75,4.24-1.72,5.75-4.22,2.83-7.87,1.4-.51,3.22-.63,4.15-1.6,6-6.32,12-12.71,17.74-19.3,4.53-5.22,9.07-9.12,16.93-8,6.18.9,12.62,0,18.95-.08-.64,4.09-1.13,8.14,3.37,11.13Q745.45,244.89,743.64,239.32ZM772.1,470.39c-2.94,2.77-2.94,2.77-1.21,6.48.33-2.24.66-4.48,1-6.7,3.93-.2,3.93-.2,4.25-4.93Zm-88-149.27c3.34-.41,7.22.65,9.16-3.46,3.46.37,7.26,1.86,10.32.92,10.82-3.31,21.39-7.41,32-11.36.81-.3,1.19-1.75,1.91-2.9-8.93-1.21-15.1,8.64-24,4.53-.22-.1-.82.9-1.34,1.1-3.88,1.46-7.82,2.73-11.65,4.3-2.42,1-4.67,2.41-7,3.62-3.54-.19-7.07-.33-9.11,3.47-4.32.85-6.23,3.43-5.58,7.83-2.19-2.65-3.37-7.27-8.12-5.52-2.89,1.06-5.34,3.32-7.18,4.52l3,6.62c4-2,8.06-3.91,12.06-5.89ZM482.7,407.73l8-1.51c-3.66-2.44-7.53-5.19-7.75,1.77l-5.6.3c1.95,1.25,3,2.18,3.2,2A15.13,15.13,0,0,0,482.7,407.73ZM467,547c6.89-.51,7.71-1.26,9.19-8.26-3,2.76-6,5.58-9,8.49q-2.82,5.87-5.63,11.72C465.38,555.8,469.57,552.7,467,547ZM404.11,722.14l5.33.28c-1.15-3.73-2.05-6.66-3-9.59l-1.08-.1q-.64,4.71-1.28,9.43c.24,3.35.49,6.71.74,10.06l2.36-.42Q405.67,727,404.11,722.14ZM376.57,618.22v8.5l1.86-.33-2.25-7.9,6.89-17.85q3.21-10.12,6.44-20.24l-2-.8c-1.61,7.62-9.07,12.62-8.74,21.54,2-.22,3.16-.35,4.26-.44C377.2,605.19,376.44,611.54,376.57,618.22ZM697.49,297.74c-3.43.7-6.9,1.26-10.29,2.13-5.85,1.48-11.64,3.16-17.46,4.76-5.89,3.63-11.6,9.86-17.7,10.26-8.68.57-10.88,5.24-13.65,11.3-.94,2.07-3,4.8-4.84,5.07-6.41.94-8,5.08-8.92,10.52,8.85-.24,12.47-8.14,18.8-11.81,8.62-5,13.27-15,22.77-19.3,1.74-.79,2.38-4,3.53-6.05,2.41,2.54,4.64,4.27,8.5,1.78a18.55,18.55,0,0,1,9.24-2.83c4.86-.1,7.9-2.23,10.12-6.17,1.08,4,4,5.51,7.71,4.62,6.89-1.68,13.66-3.84,20.48-5.8a3,3,0,0,0-2.67-.89c-7.16-.1-14.84,3.93-21.29-2.69-.3-.3-2.59,1.36-4.49,2.39l5.33,3.56C699.78,298.06,698.66,297.86,697.49,297.74ZM630.7,442c6,1.82,11.89,7.52,18.31.79l-4.68-4.42-4.7,3.8c-5.25-17.94-5.25-17.94-10.33-17.82.51,5.9,1,11.8,1.63,17.77-.13,1.49-.24,3-.4,4.48-.12,1.08-.32,2.15-.69,4.57C633.49,447.15,633.39,444.53,630.7,442Zm120-87.19c.61-2.4,1.22-4.79,1.79-7.24,5.59-8.36,6.55-10.94,5.8-16.46-3.45,5.4-6.93,10.22-5.56,16.73-1.33,1.13-3.06,2-3.91,3.42a136.86,136.86,0,0,0-15.76,36.62c-.55,2.09-.71,4.29-1.05,6.44a15.25,15.25,0,0,0,4.94-6.75c4.62-10.91,9.16-21.85,13.74-32.76,3.66,1.26,3.66,1.26,4.21-1.34Zm141.33,46.85-.16-.3-.36,10.07-2.4.47-3.1-7.35-2.7-5.3-1.4.1-1.6,14.35A263.6,263.6,0,0,1,867.88,380c-1.72-6-4-12.46-.34-18.84l1.2-8.23c-3.26,3.93-2,6.19-1,8.44h-4.56c-.26-4.06-.48-7.64-.79-12.54-1.49,2.1-3.06,3.29-3,4.35q.83,9.88,2.29,19.72c1.34,9,3.44,17.94,4.24,27,.63,7.09,1,14,5.05,20.16,2.38,3.63-1.73,4.05-2.82,5.93L874.81,442l2.84-4.44c2.05,13.51,3.81,25.08,5.56,36.66,1.95-6.89-1.33-14,3.63-21l4.32,7.8c-.39-9.58.5-18.86-4.82-27.53-5.6-9.12-4.61-19.28-.28-29,.27,4.12-1,10.05,1.15,12,5.08,4.49,5.29,9.85,5.65,15.35,2.77.92,4.44,1,4.89-2.25.92-6.69,2.54-13.29,3.19-20,.52-5.42,1.08-11.2-.24-16.34a43.67,43.67,0,0,1-.35-19.09c.51-2.94,1-5.89,1.68-10.27-5.41,6.76-8.52,12.64-8,19.94.08,1.13-.95,2.3-1,3.49C892.61,392.1,892.38,396.87,892.08,401.64Zm-7.08-107c-4.92-.56-7.85-2.55-7-8.28.4-2.61-.36-5.39-.59-8.09a35.73,35.73,0,0,0-1.4,13.93,21.52,21.52,0,0,1-6,17.53c-5,5.5-9.13,11.83-14.27,18.64h6.32l-13.84,28.18c2.57.79,4.4.67,4.87-.19,1.44-2.63,2.26-5.6,3.48-8.36,1.08-2.42,1.91-6.27,3.66-6.81,5.2-1.59,5.57-5.24,5.4-9.3-.18-4.32,1.62-7.62,4.49-10.49a54.41,54.41,0,0,0,14.76-26.75c-1.44-1.69,2.15-5.57-4.33-6.26ZM817,923.1c-2.14,3-3.51,4.13-3.78,5.47-1.23,5.95-2.86,11.94-3,18a67,67,0,0,0,12.94,42c4.48,6.17,5.18,14.62,12,19.32.31.22.34,1.16.2,1.69-1.4,5.17,1.75,7.82,5.32,10.63a44.34,44.34,0,0,1,9,8.95c2.38,3.4,5,4.41,8.6,3.27,6.13-2,11.74-1.49,17.43,2.83a17.16,17.16,0,0,0-1.26-7.62,112.09,112.09,0,0,0-6.07-12c-2-3.33-3.88-8.11-6.88-9.12a13.6,13.6,0,0,1-8.7-8.74c-4.42-11.85-15.24-21.28-13.57-35.43-5.33-6.47-7-13.94-8.6-22.15C829.47,934.2,822.38,929.48,817,923.1Zm214.41-39.89c-5.18,2.94-10.09,6.86-15.69,8.64-8.2,2.59-15.35,5.8-19,14.57-3.89-2.13-6.5-6.95-11.5-4.57A122.31,122.31,0,0,0,973,908.2a9.17,9.17,0,0,0-3.84,4.84c-3,11.5,5.92,20.75,17.79,18.69,6-1,12-2.57,18-3.46,8.08-1.2,15.11-3.42,15.83-13,6.93.68,9.11,0,11.27-3.08C1037.2,904.86,1037,891.65,1031.4,883.21ZM990,795.43c-8.26-5.45-16.52-11.15-25-16.44-7.51-4.68-12.7-4.14-19.13,1.76a128.24,128.24,0,0,0-9.4,10.09c-3.06,3.49-4,7.17-2.07,11.88,1.32,3.23-.1,8.42,1.94,10.28,2.33,2.13,7.47.79,10.81,2.27,7.6,3.36,14.71,3.68,21.86-.84a9.27,9.27,0,0,1,3.43-1.28C981.78,811.74,988.3,807.24,990,795.43ZM426.52,478.77c.33.79.59,3.61,2.05,4.52,3.91,2.45,3.84,5.49,3.52,9.47a104.26,104.26,0,0,0,.23,17.31c.68,7.82,3,15.66,2.61,23.38-.47,8.69-3.07,17.29-5,25.87-1.39,6.06-3.27,12-5.43,19.81l14.85-5.35c-.66-2.11-1.16-3.73-1.65-5.31,6.51-3.32,8.71-6.87,7.51-12.89-1.71-8.61-.62-17.85-5.85-25.72-.93-1.41-.69-3.58-1.08-5.37a100,100,0,0,1-1.74-33.77c1.07-8.87-.33-18.58,6.62-26.11,2.63-2.85,3.26-6.29,2.73-10.35-.3-2.3,1.36-5.07,2.69-7.29s3.3-4,5-5.89l-1.28-1.43c-3.42,2.71-7.68,4.84-10.06,8.28-3.27,4.72-5,10.49-7.58,15.71C432.37,468.17,429.85,472.58,426.52,478.77Zm385.12-60.53c-4.57-7.07-7-12.86-3.39-19.75.75-1.43.27-3.54.18-5.33,0-.47-.73-.91-1.28-1.56l-2.72,2-2.14-4.47c-5.84,8-1.76,19.25-10,25.53-.71.54-.57,2.32-.63,3.53a21.43,21.43,0,0,0,.25,3.19l1.75.68,6.22-10.64c.93,2.92,2,5.64,2.64,8.47.59,2.62,2,6.86.87,7.78-5.46,4.52-.88,9.5-1.83,13.11l14.14-20.62,5.22,2.29c1.69-5.09,2.62-10.22,5-14.54,3-5.37,3-8.54-.46-14.5-3-5.19-6.12-10.64-4.49-17.3.49-2-.11-4.22-.21-6.35l-2.74-.25c2.65,13.33-4.57,24.29-6.65,36.68,2-3.67,4.05-7.34,6.51-11.78C820,403.86,815.87,410.47,811.64,418.24Zm-273.19,5.47c-2.51,5.15-5.08,10.44-8.58,17.66-.85-5.93-1.36-9.53-2.08-14.57-2.22,7.38-3.93,13-5.63,18.69-.42,1.41-1.61,3.41-1.07,4.15,4.26,5.93,1,10.23-2.53,14.72-.85,1.07-.89,2.78-1.33,4.31l7.42,1.9c.21-3,.42-5.82.7-9.72l3.51,6c1.6-4.54,2.77-7.88,4-11.33,2.73,2.28,5.64,3.52,7.78.3C546.51,447.05,552,438,558,428.5l-7.9-2.71c2.87,5.34,2.79,5.21-1.29,7.45-1.5.82-2.6,2.4-3.82,3.68-1.36,1.44-2.66,2.95-4,4.42l-1.62-.91c2.48-5.5,5-11,7.19-16Zm-67.13,59.17c2.16-1.38,3-1.6,3.1-2,2.22-7.31,6.15-13.11,13.48-16.2a4.7,4.7,0,0,0,2.2-2.55c2.08-5.74,4.29-11.46,5.88-17.34,2.47-9.06,3.94-18.42,9.68-26.3.92-1.27,1-3.13,2-6.06-10.91,4.25-12.28,13.83-16,22.11-3.1-5-5.43-2.24-6.57-.14-2.52,4.64-5.45,8.66-10.3,11-.37.18-.4,1.06-.68,1.88h4.82C478.61,459.12,474,470.07,471.32,482.88Zm483,424.28c-.94.61-2,1.17-2.89,1.89-8.59,6.74-7.33,15.71,2.76,19.81.84.34,1.64,1,2.49,1.07,2.58.1,6.47,1,7.46-.33a10.34,10.34,0,0,0,1.34-8.35C963.52,915.51,960.32,910.26,954.3,907.16ZM803.19,354.71l-.64-.24c-3.16,5.39-5.94,11-9.57,16.09-5.06,7-8,12.37-7.92,18.8,2.87-7.88,11.65-7.7,13.39-14.81C800.07,368,801.61,361.33,803.19,354.71ZM404.06,665.36c4.76-8,10-33.66,7.83-39.52C408,638.7,404.33,651.62,404.06,665.36ZM557.13,908.2c2.87-6.94,3.61-7.75,9-7.27,2.59.23,5.62.86,7.46,2.45,1.69,1.47,2,4.47,3.19,7.25,7-9.64-4.64-9.87-6.24-13.84a81.4,81.4,0,0,1-8.45,1.34C555.38,898.49,553.82,901.5,557.13,908.2Zm388.9-27c-6.49-.51-12.31-.45-18.14,2.6,3.58,1.89,11,2.73,14.11,1.33C943.61,884.45,944.7,882.6,946,881.25ZM407.48,592.78c1.72-2.89,5.25-5.86,8.33-8.19,1.84-1.38,4.73-2.66,3.17-7.16-2,1.94-3.22,3.53-4.82,4.53-2,1.26-4.51,1.74-6.45,3.07C404.9,587,402.15,589.31,407.48,592.78ZM820.84,458c6.95-7.79,7.32-13.24,2.57-18.23ZM600.39,512.88c3.58-10.55,3.77-15.26,1.1-23.1C601.12,497.48,600.8,504.27,600.39,512.88Zm94.4,72.31c-7.33.73-9.47,3.33-9,10.51ZM898.16,328.73c2.23,8.12,2.77,8.45,8.86,5.41Zm-47.92,75,.48,10.3C856.46,408.62,856.46,408.62,850.24,403.77ZM601.48,469.94c-3.06,6.39-3,8,1,12.68C602.12,478.15,604.61,474.16,601.48,469.94Zm116.33,82.58c-6.58,2.41-6.6,5.66-3.28,10.2ZM594.56,1244.31l.86-1.24a51.09,51.09,0,0,0-6.7-4.52c-.41-.2-2.05,2.09-3.6,3.74ZM421.45,609l-5-5.64-3.25,8.95ZM635.88,786l-7.46,4.32C633.3,794.79,633.3,794.79,635.88,786ZM629,762.76c-1.34,6.93-1.34,6.93,3.2,8a18.29,18.29,0,0,0-.28-4.27C631.6,765.47,630.58,764.71,629,762.76ZM824.46,353.47c6.29-5.54,6.29-5.54,2.19-10.73C825.92,346.33,825.2,349.82,824.46,353.47ZM656,419.78l-5.13,9.54C657.37,428.07,657.37,428.07,656,419.78ZM409.24,683.2c-4,5.18-4,5.18-.95,9.67C408.61,689.58,408.89,686.74,409.24,683.2ZM737.32,1270l2.4.7c.47-1.62.95-3.24,1.42-4.86l-2.44-.71ZM708.08,814.12q1.62,1.46,3.22,2.93l3.05-4.06-2.65-2.37Zm25,545.74-2.1.13,1.7,6.9,1.83-.42Q733.77,1363.16,733.06,1359.86ZM869.12,274.91l1.66-.31c-.79-1.74-1.57-3.48-2.36-5.21l-2.68,1.87ZM589.49,905.8l.33-2.54h-5.59l-.18,1.73ZM567.93,847c-2.15,3-2.42,5.16-.56,7.28.44.5,1.43.51,2.74.93C569.35,852.38,568.76,850.18,567.93,847ZM760.81,513.57h-.93c-.15,3.3-.3,6.61-.44,9.91l1.37,0ZM554.38,832.83l-2.2.72,1.76,5.87,1.85-.56ZM799.23,499.3l2.56.22v-5.27l-3.24.46C798.78,496.24,799,497.77,799.23,499.3Zm-209.08-7.13c2.2-1,7-.65,3.16-5.35Zm267.72-75.94-2.11.16q.21,3,.4,6.06l2.13-.17ZM654.19,1310.35c-1.31-1-2.21-2.08-2.56-1.92a10.39,10.39,0,0,0-2.38,2.1c.62.6,1.31,1.74,1.85,1.67C652,1312.08,652.85,1311.21,654.19,1310.35ZM723.4,824.8c-1.47-.72-2.45-1.54-2.83-1.32a9.41,9.41,0,0,0-2.1,2.28c.65.37,1.41,1.17,1.91,1C721.3,826.54,722.06,825.74,723.4,824.8Zm-60.76-437,1.35-1.93-5.15-3.27-1.05,1.55Zm-27.21,933.09c-.69,1.7-1.46,2.71-1.21,3.16a9.57,9.57,0,0,0,2.37,2.23c.36-.72,1.15-1.55,1-2.15C637.35,1323.16,636.49,1322.37,635.43,1320.86ZM587.91,517.49l1.83.07c.64-3,1.28-6,1.93-9.07l-1.81-.35Zm139,27.16L724.69,543l-3,4.76,1.78,1.2ZM403.76,704.33l1.8.57q.87-2.94,1.73-5.88l-1.55-.49ZM619.15,314.51l-1-1.63-5.9,3.55.94,1.49Zm21.4,454,2.22-2.11a7.49,7.49,0,0,0-1.93-1.31c-.33-.1-1.32.64-1.3,1A9.5,9.5,0,0,0,640.55,768.47ZM911.78,461.61l1.84-.18-.84-5.21-1.45.16ZM733.24,294.77l1.78-1.31c-.44-.26-.88-.73-1.32-.73s-1,.41-1.43.65ZM878.85,978.19c-1.2,4.17-1.2,4.17,1.47,6.22C879.81,982.24,879.46,980.77,878.85,978.19ZM735.73,482.45l.47.91,4.31-2.13c-.18-.36-.36-.72-.53-1.08Zm-5.34,815.76,1.53-1.45-3.21-2.45-.9,1ZM430.7,588.14l2,.7,1-5.14-1.56-.39ZM683,782.75c-.27-.57-.54-1.14-.82-1.71l-2.86,2c.31.38.76,1.14.9,1.09A24.78,24.78,0,0,0,683,782.75ZM450.71,546.54l-1.48-.49L448,550.7l1,.31ZM590,1259.33c.48-.28,1.22-.46,1.37-.86s-.27-1-.44-1.59l-2,1.14Zm163.91,14.33a13.79,13.79,0,0,0-1.37-.59,5.28,5.28,0,0,0-.37.72,12.42,12.42,0,0,0,1.36.59A4.11,4.11,0,0,0,753.92,1273.66Zm74.58-797.8-1.31.71c.28.47.46,1.12.88,1.36.23.13.85-.42,1.3-.66Zm146.69,502c.37.35.79,1,1.09,1,.47-.08.86-.64,1.28-1-.34-.35-.75-1-1-1C976.07,976.93,975.67,977.45,975.19,977.84ZM886.41,276.07h-.71V281h.71ZM694.64,794.75l-.6-1.25c-.42.31-1,.54-1.19,1s.36.81.56,1.23ZM447.71,565.81l-1.39-.29c0,1,0,2,0,3a2.18,2.18,0,0,0,.7.14C447.29,567.72,447.5,566.77,447.71,565.81Z"/><path d="M951.83,710.72c-1.72,1.71-3.2,4.46-5.21,4.94-6,1.42-8.13,5.71-10,11.13,1.51-14.25-8-24.27-11.27-36.49l-2,.29c-.45,6.95-.9,13.9-1.38,21.2a42.35,42.35,0,0,1-5.36,3.06c-2.94,1.18-5.32.37-7-2.57-2.33-4.17-4.83-8.25-7.48-12.74a7.48,7.48,0,0,0,1.44-1.1c1.3-1.41,3.78-3.31,3.48-4.31-.64-2.08-3-5.4-4.25-5.24-6.84.9-12.16-2.53-17.57-6.08l-1,1.48,5.68,8.18c-4.73,1.2-8.62,2.29-12.55,3.16-5.14,1.12-10.12,5.06-15.66.7-.71-.56-2.86.51-4.26,1-15.58,5.85-22.5,1.44-24.23-15.9l7.54-2.39c-3.57-5.45-9-7.55-13.67-5.08-2.94,1.55-5.52,3.81-8.2,5.84-3.36,2.56-7,4.91-9.89,7.92a20.7,20.7,0,0,0-5.06,8.28c-3.55,12.58-6.89,17.58-17.56,24.33-2.61,1.65-4.27,2.82-4.11,7,.11,2.56-5.11,5.18-9.7,4.74-3.82-.37-7.72.37-11.59.46-6.89.18-13.78.27-20.67.34-1.18,0-2.55-.66-3.51-.26-7.44,3.15-13,0-18-5.08-4.25-4.29-8.33-8.76-12.4-13.22-3.09-3.4-2.69-7.35-1.21-11.23.65-1.69,2.91-3.35,2.66-4.69-1.54-8.1,2.43-13.28,7.75-18.64,1.8-1.81,3.15-4,5.62-5.32,6.68-3.6,6.69-3.82,4.86-11.81,6.66-.23,13-1.11,12.8-10.17,0-1.18,3.33-3.75,4.28-3.4,5.53,2.05,8.62-1.82,12.29-4.34,1-.69,1.76-1.74,2.77-2.41,7.77-5.2,15.56-10.35,23.35-15.52.51.63,1,1.25,1.54,1.87l-8.76,8.69c5.71.23,9.79-1.82,13.63-4.49,4.91-3.41,9.37-7.2,16.18-6.77,3,.19,6.08-2.4,9.15-3.7,4.49-1.9,8.82-4.17,14-1.68,1.68.81,4.24.34,6.24-.17,8-2,15.87-4.88,24-6.39a90.63,90.63,0,0,1,20.09-1.22c7.27.3,14.48,1.84,21.74,2.6,3.26.34,6.62-.2,9.87.19,2.44.3,4.07,5.23,7.42,1.28.21-.24,1.68.43,2.44.88,6,3.49,11.81,7.36,18,10.42,3.29,1.62,7.26,1.85,11.56,2.86-1.43,6.28-3.74,12.89-4.26,19.63-.59,7.81-3.1,16.4,4.07,23,2.22,2,2.51,4.3.5,6.42-4.45,4.72-3.4,9.08-.24,14.09s4.74,10.64,3.24,16.69l-4.27-2.42-.49,1.62ZM779.42,667.2c6.5-.29,11.77-.47,17-.82a4,4,0,0,0,2.25-1.51c3.5-4.09,8.23-4.67,13.19-5.27a16.55,16.55,0,0,0,8.12-3.39c2.78-2.27,1.7-6-1.73-7.23a11,11,0,0,0-4.49-.58C800.11,649.29,787.81,652.9,779.42,667.2Zm51.47-17.57L829,648.44c-2.61,1.37-3.7,3.3-1.41,8C829.05,653.36,830,651.49,830.89,649.63Z"/><path d="M989.62,651.94c1.51-2.38,2.72-5,4.59-7.09,6.85-7.48,13.48-15.24,21-21.93a48.77,48.77,0,0,1,16.6-9.54c11.73-3.83,24-5.78,36.18-1.81a15.74,15.74,0,0,1,10.32,19.31c-1.47,5-3,10-5.43,14.56-1.21,2.22-4.6,3.24-7.18,4.93l-7-4.51c-.48-3.38-.93-6.62-1.39-9.86l-1.34-.32c-.75,1.72-1.43,3.47-2.26,5.15-2.92,5.92-7.36,6.27-11,.77-2.84-4.35-5.42-8.87-8.31-13.63-7.5.16-12.51,11.24-21.27,5.61l-21.49,19.84Zm50.67-24.4c-.14.84-.29,1.68-.44,2.53l6.08,1c.14-.78.27-1.55.41-2.32Z"/><path d="M482.74,368.46l-4.42,4.34c-8.79,1.54-10.1,2.79-11.57,11-5.71-1.73-3.58-5.29-1.77-8.44,5.59-9.73,13.9-16.82,23-23,1.48-1,3.31-1.65,4.53-2.91,7.39-7.58,16.5-11.3,26.81-12.58.81-.1,1.55-.84,2.95-1.65l-2.38-4.49c4.45-6.61,5-7,16.93-12l-3.5,6.09,4.53-.34-.17-.24c-.22,1.16,0,2.71-.72,3.41-12.32,12.57-24.58,25.21-37.25,37.41-3.65,3.52-8.54,5.74-12.85,8.55,2.21-2.88,4.42-5.76,7.06-9.22l-5.73-.84.23.22c-.4-1.92-.8-3.84-1.36-6.5C482.67,360.64,482.52,364.48,482.74,368.46Z"/><path d="M975.32,354.74c-4.08,2.56-7.13,5.4-5.68,11.08.55,2.17-.68,4.78-1,6.71l-12.69,10.4,8.95-.94c.07.54.39,1.33.15,1.58-6,6.23-8.91,13.42-7.87,22.26a20.32,20.32,0,0,1-1,9.94c-1.29,3.05-4.2,5.42-7.24,9.11-2.57-17.7-5.56-34.13,2.55-50.12.55-1.09,1.54-2.4,1.31-3.37-2.37-10.2,6.54-11.81,12-15.86,3-2.2,6.47-3.72,10.29-5.87V355Zm-22.19,49.11c-4.39,3.22-3.88,6-1.59,9.22C952,410.43,952.45,407.8,953.13,403.85Z"/><path d="M962.58,316c-1.28.78-3,1.28-3.73,2.42a54.66,54.66,0,0,0-3.4,7.21l.34-.34c-2.34,2.28-4.56,2-5.71-1-2.19-5.6,2.65-18.15,7.93-21.68a30.18,30.18,0,0,0,6.3-5.05c2.19-2.56,4.19-4.13,7.83-3,3.08,1,4.55,2.2,3.72,5.73-.24,1,1.11,3.06,2.22,3.58,2.49,1.18,1.12,1.83.73,3.62-.6,2.7,1.4,2.67,2.93.57v0c1.81,4.88-.56,8.14-4.31,10.71-3.57,2.45-7.28,4.7-10.94,7-1.72-4.18-2.94-7.13-4.15-10.08l5.6-2.74L966.41,311Zm7.74-11.35-1.17-1.06-2.52,2.74a13.47,13.47,0,0,0,1.23,1C968.73,306.47,969.52,305.53,970.32,304.62Z"/><path d="M424.84,428.14l-15.15,30.48c-1.13-15.47,4.31-27.51,15.13-35.64a13.58,13.58,0,0,0,3-3.18c5.95-8.87,11.71-17.85,17.77-26.63,2-2.85,4.67-5.19,7.43-8.19.56,1.78,1,2.45.85,2.81-3.45,7.13-6.87,14.28-10.54,21.3-3.11,5.93-6.6,11.66-9.82,17.55C431.69,430,431,430.33,424.84,428.14Z"/><path d="M1053.28,376.73c.92,2,2.79,4.22,2.56,6.13-.58,4.81.7,8.2,4.64,11a31.79,31.79,0,0,1,5.75,5.89c2.17,2.65,3.57,5.38,2.38,9.23-.81,2.63-.16,5.72-.16,9.64l-5.37,4.23c-3.47-2.52-5.36-4.65-4.08-9.36,1.22-4.45-1-6-6.89-6.48-2.09-6.13-5.59-12.24-6-18.54-.47-8,1.62-16.06,2.69-24.1,0,0,1.09.1,2.33.21-.57,2.54-1.13,5-1.69,7.5l4,4.79c-4.57,3.47-4.57,3.47-3.42,9.4C1050.89,384,1052.09,380.34,1053.28,376.73Z"/><path d="M1046.07,582.44c3.48,3.25,7.39,3.89,11.94,2.51a35.09,35.09,0,0,1,11.86-1.56c-1.73.71-3.53,1.31-5.19,2.16-6.8,3.47-13.61,6.93-20.32,10.57-9,4.89-17.84,10.09-26.91,14.85-3.05,1.59-6.59,2.25-9.91,3.34l-1.09-2.23,39.77-29.57Z"/><path d="M775.88,743c2.52-7,6.78-8,12-8,5.68,0,11.39-1.1,17-.84,6.84.32,13.64,1.57,22.26,2.63-6,6.48-12,6.19-17.67,7-5.93.83-11.84,1.77-17.75,2.75S782.91,739.09,775.88,743Z"/><path d="M634.9,267.32c2.94-3.9,5.67-8.16,12.55-7l3.17,9.11-34,26.44c-4.27-2.94-3.09-5.21-.83-7.33,5.58-5.22,11.26-10.32,16.79-15.58a26.2,26.2,0,0,0,3-4.16c.86.15,2.17.72,2.49.38a21.07,21.07,0,0,0,2.38-3.81,15.44,15.44,0,0,0-3.95-.09C635.82,265.42,635.42,266.61,634.9,267.32Z"/><path d="M992.87,316.24c.58-1.34.87-3.56,1.81-3.88,5.26-1.78,10.68-3.1,16.27-4.64,1.14,2.64,1.94,4.52,2.82,6.56,1.88-.18,3.76-.81,5.42-.43,3.38.78,5.18,4.93,2.71,7-2.7,2.26-3.18,4.87-4.1,7.73-.37,1.16-2.72,2.88-3.17,2.62-4.8-2.79-7.73,2.46-12.53,2.59l4.88-15.44c-5,1.45-3.16,7.7-7.87,6.63l.25.28c-.8-8.31-.8-8.31-6.72-9.14Zm19.39,11.12c5.17-2.82,5-5.66,2.57-10.56C1013.84,320.89,1013.19,323.53,1012.26,327.36Z"/><path d="M392.15,499.81c-.58,2.37-.81,4.89-1.79,7.07-7.51,16.78-15.16,33.49-22.8,50.2-.22.47-.93.7-2.65,1.92,1.45-6.22,2.89-11.32,3.81-16.52,2.58-14.61,11.34-26.17,18.73-38.38,1-1.72,3.27-2.71,4.94-4Z"/><path d="M1040.84,363.07l-6.21,3.53c-6.05-10.09,0-27.76,12.11-33.43,1.81,9.54-3.75,17.63-4.27,26.36C1041.93,360.69,1041.38,361.88,1040.84,363.07Z"/><path d="M577.44,307.74c-.17-1.68-.67-3-.28-3.34,4.87-4.54,9.22-10.66,15-12.86a32.94,32.94,0,0,0,12.43-8.14c5-5.28,11.12-8,17.88-10.71C618.34,279.73,586.55,304.58,577.44,307.74Z"/><path d="M975.09,355c2.86-2.83,5.94-4.78,6.44-10,.59-6,4.83-11.28,10.23-15.28,3.44,9,1.61,15.93-4.41,21-2.17,1.83-3.39,4.86-4.88,7.43s-2.67,5.12-4,7.73c-6.85-3-4.18-7.26-3.13-11.16Z"/><path d="M352.55,625.17c-2-21.85,6.31-39.79,11.94-60.66.66,4,1.56,6.1,1.23,8-.78,4.49-2.38,8.83-3.2,13.31-1.48,8-3.4,16.11-3.67,24.22C358.66,615.84,355.39,619.22,352.55,625.17Z"/><path d="M713.85,667.1c-3.34-5.89-5.54-9.77-7.76-13.7,5.9-3.46,11.37-7.33,19.54-2.85Z"/><path d="M388,469.51c1.8-15.45,11.32-27.15,19.83-41.06.17,7.18,0,7-4,11.41-1.29,1.41-1.37,3.87-2.24,5.74-3.86,8.3-7.8,16.57-11.71,24.85Z"/><path d="M1454.54,1307.22l-18.61-9.85c5.06-5.95,9.37.84,14.14-.75,4-1.34,9.27,1.1,15.4,2.09-4.06,4.17-10.25,3.28-11.18,8.68Z"/><path d="M946.88,299.43l-6.57.38c1.83-2.73,3.42-6.24,4.2-6.07,6.29,1.4,11-5.93,18.29-2.28-.76,1.53-1.18,4.11-2.45,4.65-6.08,2.56-11.58,5.54-13.65,12.74l-1.85-1C945.48,305.29,946.1,302.69,946.88,299.43Z"/><path d="M1029.46,334.27c-1.39-7.64-2.53-13.89-3.67-20.17,6.14-1.44,9.42-.51,10,4.27.56,4.17-.4,8.64-1.33,12.83C1034.26,332.34,1031.71,333,1029.46,334.27Z"/><path d="M918,487.75l2.59-7.11,4.89,3.84c6.2-5.86,5.49-14.48,9.57-21.17,3.93,6.61,4.08,11.43-1.8,16.95C928.8,484.42,926.25,490.38,918,487.75Z"/><path d="M537.88,324.47c3.74-7.83,10.8-12.36,17.5-17.11,1.73-1.23,4.56-.89,6.89-1.27l-.44-.59c-2.83,3.52-5.45,7.25-8.55,10.51a105.88,105.88,0,0,1-9,7.76c-2,1.73-4.21,2.55-6.58.48Z"/><path d="M368.08,483.48a43.47,43.47,0,0,1,16.32-23.66,43.72,43.72,0,0,1-13.15,22.65c-.76.69-2.26.58-3.41.84Z"/><path d="M981.83,382.41c1.46-13.44,2.49-14.77,12.54-16.15-2.34,5.18-4.51,10.24-7,15.16-.42.85-2,1.25-3.21,1.51C983.46,383.09,982.59,382.6,981.83,382.41Z"/><path d="M561.83,305.5l.44.59c.18-1.13,0-2.89.59-3.3,6.75-4.28,12.86-9.87,22.74-11.5-1.82,2.24-2.61,3.67-3.8,4.56a139.08,139.08,0,0,1-13.32,9.27C566.76,306.11,564.08,305.42,561.83,305.5Z"/><path d="M955.79,325.26l-.34.34,4.36-1.72c1.16,9.5-4.5,16.6-5.94,24.87C950.49,340.39,953.87,332.9,955.79,325.26Z"/><path d="M938.34,338.58c-2.11-11.16-1-13.59,7.62-15.89C945.43,328.85,941.75,336.53,938.34,338.58Z"/><path d="M1061.52,309l-7.65,8.12-6.81-9.13c4.67-6.25,9.36.17,13.82-1.14Z"/><path d="M1414.33,1270.53l11.81,4.38c.09.74.17,1.48.26,2.22-1.77,1.06-3.77,3.25-5.26,2.94C1417.1,1279.26,1414.78,1276.23,1414.33,1270.53Z"/><path d="M1063.09,358.7c-.75,2.56,2.57,6.64-2.24,7.57-3.82.74-5.13-2.65-6.1-5.54a9.23,9.23,0,0,1,.32-7c.74,1.8,1.48,3.61,2.16,5.25h6Z"/><path d="M779.73,305.67s.15.18.17.17l-4.11-4.9,4.29-6.33-4.66.72,1.45-7.64,8.28-1.13Q782.44,296.12,779.73,305.67Z"/><path d="M1017.73,417.79c-1.38-1.84-3.65-3.54-4-5.56-1-6.27-1.25-12.65-1.83-19.42,4.22,2.42,4.61,6.49,4.86,10.61.29,4.79.55,9.59.83,14.38Z"/><path d="M499.3,395l-1.8,1.22c-3.26-6.21-.65-10.31,9.12-12.25Z"/><path d="M944.19,354.83c-1.08-5.74-3.56-11.57,1.92-17.83.31,2.17.92,3.68.64,5-.69,3.18-2.15,6,.75,9.21,1.77,2,.78,3.05-2.87,4.6C944.48,355.49,944.33,355.16,944.19,354.83Z"/><path d="M1040.84,363.07c.54-1.19,1.09-2.38,1.63-3.54.62-1.49,1.24-3,2.4-5.81,4.38,8-1.74,11.16-4.21,15.84C1038.23,367,1039,365,1040.84,363.07Z"/><path d="M827.14,245.42c2.14-2.28,3.52-5.72,8.44-5.35-1.08,3-1.64,5.56-3,7.72-.9,1.49-3.3,3.62-4.2,3.28-2.82-1.09-2.75-3.56-1-5.91Z"/><path d="M958.18,721.61c-1.46,2.78-2.27,5-3.68,6.69-.61.75-2.57.81-3.72.48-.53-.15-1.07-2.19-.74-3C951.14,722.89,952.81,720.46,958.18,721.61Z"/><path d="M702.61,635.93c.76-3.56,1.51-7.13,2.39-11.3l7.87,4.38c-2.72,1.62-4.64,2.48-6.19,3.78-1.12,1-1.76,2.48-2.61,3.75Z"/><path class="cls-1" d="M466.75,383.83c1.47-8.24,2.78-9.49,11.57-11-1.93,5.82-7.39,7.84-11.83,11Z"/><path d="M1029.26,397.36c-6.08-3.56-5.1-7.69-3.09-13C1030.42,388.16,1032,391.7,1029.26,397.36Z"/><path d="M1056.42,297.62l-13.23,8.09C1049.79,295,1049.79,295,1056.42,297.62Z"/><path d="M1345.51,1215.77l3.3,2.74c-.54.6-.89,1.34-1.28,1.37-4.53.25-7.87-.88-7.1-7h9.72Z"/><path d="M1063.23,359l2.27-6,7.23,15.3c-3.22-.69-6-1-7-4.8-.42-1.68-1.73-3.13-2.66-4.71A2.21,2.21,0,0,0,1063.23,359Z"/><path d="M1013.43,374.22c-2.1-4.35-1.91-8.29,2.32-12.21C1019.52,367.5,1016.06,370.74,1013.43,374.22Z"/><path d="M369.81,577.2c-.79-5.59-.84-11,4.56-14.49Z"/><path d="M995.4,304.34h-9.16C988.81,297.48,989.51,297.37,995.4,304.34Z"/><path d="M678.13,633.76l11.71-6.3C685.67,636.68,683.82,637.58,678.13,633.76Z"/><path d="M1023.54,407.12c-2-5.33-5.5-8-5-13.64C1023.2,396.9,1025.78,400,1023.54,407.12Z"/><path class="cls-1" d="M779.73,305.67q2.71-9.56,5.42-19.11c.08,0,0-.16-.21-.46C788.07,293.92,782.9,299.53,779.73,305.67Z"/><path d="M904.59,264c7.23-5.53,7.44,1.16,10.45,1.75l-.81,2Z"/><path d="M603.6,1308.68c-4.41-1.48-9.54-1.82-12.07-7.39,6.07-.06,9.38,3.17,12.05,7.44Z"/><path d="M689.87,617c-2.64-7.32-2.64-7.32,3.49-10.87-1.45,4.16-2.58,7.39-3.7,10.62Z"/><path d="M1046.22,582.51l15.25-4.44c-4.31,5-9.73,5.06-15.36,4.39Z"/><path d="M1036.9,393.6q-1.29-5.58-2.57-11.17l2.26-.51q1.11,5.61,2.23,11.23Z"/><path d="M939.41,285.63c-4.39,0-7.73-1.24-7.85-6.87,5.82-1,6.85,2.85,7.56,7.08Z"/><path d="M1311.58,1203.65c-2.35,7.55-2.35,7.55-7.35,5.18Z"/><path d="M935.45,265.38H921.83C925.68,264.94,929.44,260.72,935.45,265.38Z"/><path d="M980.31,337.7c.2-3,.11-6,.77-8.9.22-.92,2.47-1.36,4.94-.77-1.89,3.22-3.79,6.43-5.71,9.6C980.28,337.57,980.31,337.7,980.31,337.7Z"/><path d="M1443.57,1292.51l-8.41-3.39c5.4-3.38,7.32-1.06,9.27,1.18Z"/><path d="M836.23,290.15c-3.07,1.23-5.46.89-5.57-3-.06-2,.59-4.05,1.15-7.53,1.82,4.39,3.1,7.51,4.39,10.63Z"/><path class="cls-1" d="M824.15,1284.77c-1.59-1.3-2.8-2.84-.62-4.47,3.9-2.91,7.84-3.31,11.44.66l-.56.08c-3.94.11-8.12-.48-10.51,3.85Z"/><path class="cls-1" d="M488.22,363.54l5.73.84c-2.64,3.46-4.85,6.34-7.06,9.22a2.35,2.35,0,0,0-.88,1c-.1-1.55-.57-3.19-.23-4.63A48.33,48.33,0,0,1,488.22,363.54Z"/><path d="M1032.16,693.6c-5.5-1.55-5.5-1.55-4-7.58Z"/><path d="M604.7,1318l-8.91-3.58,7.44-2.46c.46,2.36.83,4.32,1.21,6.29Z"/><path d="M1034.39,435.59l4.32,8.06C1033.33,442,1033.33,442,1034.39,435.59Z"/><path d="M932.14,441.73V451C929.72,446.18,929.72,446.18,932.14,441.73Z"/><path d="M944.19,354.83c.14.33.29.66.44,1,2.27,3.87,1,5.48-3.79,5.23C940.9,358.34,939,354.92,944.19,354.83Z"/><path d="M1006.63,381.4c.26-2.76.53-5.52.79-8.28.92,3,3.43,6,1.83,8.9Z"/><path d="M1063.9,527c-1-4.25-1.72-7.37-2.61-11.21C1065.74,521.61,1065.74,521.61,1063.9,527Z"/><path d="M467,404.09l7.18-6.45,1.35,1.3q-3.45,3.53-6.91,7Z"/><path d="M938.53,449.68c-.53,2.45-1,4.91-2,9.08C933.4,453.84,936.45,451.69,938.53,449.68Z"/><path d="M939.12,285.84h9.59c0,.27.09.54.14.81l-12.18,3.72,2.71-4.73S939.12,285.84,939.12,285.84Z"/><path d="M823.9,1284.89c2.39-4.33,6.57-3.74,10.51-3.85C831.82,1284.84,828.46,1286.51,823.9,1284.89Z"/><path class="cls-1" d="M634.9,267.32c.52-.71.92-1.9,1.56-2.05a15.44,15.44,0,0,1,3.95.09,21.07,21.07,0,0,1-2.38,3.81c-.32.34-1.63-.23-2.49-.38A7.18,7.18,0,0,0,634.9,267.32Z"/><path d="M1030.45,417c-1.64-3.42-3-6.66,3.18-7.52Z"/><path d="M1404.45,1272.49l-5.59-1.53.11-1.59a12,12,0,0,1,3.59-.23c.94.24,1.68,1.26,2.51,1.93C1404.86,1271.54,1404.66,1272,1404.45,1272.49Z"/><path d="M824.58,269.91c1.3,1.95,2.61,3.89,4.22,6.28l-4.84,4.3c.27-4.48.46-7.52.64-10.55Z"/><path d="M1045.73,369.82c-.2,3.76-.33,6.23-.5,9.46C1041.3,375.53,1041.3,375.53,1045.73,369.82Z"/><path d="M635.37,752.79c.44-1.91.87-3.83,1.45-6.36,1.27.74,3.29,1.29,3.4,2.09.48,3.68-1.77,4.68-5.06,4.1A2.18,2.18,0,0,0,635.37,752.79Z"/><path d="M967.18,722.42c.75,1.49,1.47,2.4,1.58,3.38,0,.47-1.06,1.07-1.65,1.61a9.9,9.9,0,0,1-1.79-2.58C965.19,724.41,966.21,723.63,967.18,722.42Z"/><path d="M1568.4,1466.81c-.4-3.52-.79-7-1.2-10.79,5.92,3.24,1.66,7,1,10.59Z"/><path d="M1031.72,344.93l-4,9.8C1027,350.55,1027.46,347.89,1031.72,344.93Z"/><path d="M971.06,337c1.6,5.25-3.51,6.15-6.71,8.19l6.89-7.93Z"/><path d="M569.81,336.82,562.55,341l5-6.34Z"/><path d="M427.38,442.63l-2.84,5.63-2.15-1.16q1.68-2.69,3.34-5.37Z"/><path d="M939.83,384.53l3-6.7,2,.8c-.87,2.42-1.73,4.85-2.59,7.27Z"/><path d="M971.24,337.29c3.88-4.08,3.88-4.08,9,.37,0,0,0-.09,0,0-3.14,1.18-6.3,2.11-9.24-.57A2.77,2.77,0,0,1,971.24,337.29Z"/><path d="M999.11,325c-.22,1.45-.45,2.9-.67,4.34l-2-.05c-.08-1.65-.17-3.31-.25-5l3.14.94Z"/><path d="M937.15,269l6.16-1.13c.16.68.32,1.37.49,2.05l-5.88,1.65Z"/><path d="M367.84,483.31c.19,1.07.9,2.76.49,3.09a68.32,68.32,0,0,1-7.16,4.58,13.26,13.26,0,0,1,6.92-7.49Z"/><path class="cls-1" d="M743.64,239.32q1.82,5.56,3.62,11.13c-4.5-3-4-7-3.37-11.13Z"/><path d="M827.14,245.42l.31-.26c-.82-.36-1.94-.5-2.4-1.13a7.58,7.58,0,0,1-.8-3c0-.05.66-.38.79-.28.79.6,1.78,1.15,2.17,2S827.19,244.52,827.14,245.42Z"/><path d="M820.93,710.79l5.66.75c-.06.54-.13,1.08-.19,1.62l-5.69-.77Z"/><path d="M799.37,234.68c-.42,1.43-.84,2.86-1.33,4.27a8.5,8.5,0,0,1-1.31-.37c.3-1.49.68-3,1-4.44Z"/><path d="M992.64,316.11l-6,5.37c.38-5.42,3.16-5.48,6.16-5.25Z"/><path d="M845.39,308.25l-4.72,6.47-1.38-.22c.38-2.19.76-4.38,1.12-6.48,2.16.18,3.57.3,5,.38A.31.31,0,0,0,845.39,308.25Z"/><path d="M379.74,556.83c0,.2.23.26.67.19-.18.22-.33.6-.55.64-1.28.25-2.57.41-3.86.6l0-1.64Z"/><path d="M438.83,392.84l4.1-4.46,1.14,1.07-4.19,4.38Z"/><path d="M687.53,679.22l3.44,1.47-1.15,2.07-3.09-2.3Z"/><path d="M536.06,357.91l-3.74,3.36-1.06-1.15,3.62-3.47Z"/><path d="M768.27,1324.77c-.8.76-1.75,1.88-1.91,1.77a13,13,0,0,1-2.24-2.16c.63-.49,1.31-1.42,1.89-1.36S767.34,1324,768.27,1324.77Z"/><path d="M932.47,271l-6.76,1.73c-.17-.77-.35-1.54-.52-2.31l6.75-1.22C932.12,269.83,932.29,270.43,932.47,271Z"/><path d="M696.69,247.88l3.34-4.07c.43.38,1.29,1,1.23,1.11-.77,1.45-1.68,2.82-2.55,4.21Z"/><path d="M766.29,296.22l3.67-2,1.24,1c-1,1.17-2,2.35-3,3.52-.54-.94-1.09-1.89-1.65-2.82Z"/><path d="M963.48,997.05l1.75,1a6.67,6.67,0,0,1-1.58,1.52c-.26.13-.91-.51-1.38-.8C962.68,998.22,963.08,997.62,963.48,997.05Z"/><path d="M898.28,1036.74a11.46,11.46,0,0,1-.77-2.53c0-.39.76-1.22.9-1.16a9.84,9.84,0,0,1,1.8,1.19Z"/><path d="M493.91,382.71l-3.54,4.48-1.95-1.89,3.79-4.41C492.78,381.49,493.34,382.1,493.91,382.71Z"/><path d="M681.62,1353.33l-1,1.58a8,8,0,0,1-1.56-1.56c-.13-.24.47-.88.73-1.34C680.42,1352.45,681,1352.89,681.62,1353.33Z"/><path d="M693.51,623.38c-.07-1.36-.14-2.73-.22-4.09a15.16,15.16,0,0,1,2.07,2.26c.21.34-.25,1.08-.4,1.64Z"/><path d="M354,509.59c-.63,1.29-1.25,2.59-1.88,3.89l-1.42-.67,1.86-3.91Z"/><path d="M689.66,616.76c-2.5,2.84-4.32,1.73-7.4-2.38l7.6,2.61Z"/><path d="M798.42,253.5c-.81-1.15-1.53-1.74-1.55-2.36s.81-1,1.27-1.53c.36.38,1,.75,1,1.14A11.07,11.07,0,0,1,798.42,253.5Z"/><path d="M962.64,339.52c.76-1.68,1.53-3.35,2.29-5l1.69.85L964,340.2Z"/><path d="M659.38,1351.59l-2-2.57.94-.78,2.12,2.49Z"/><path d="M1395.82,1258.19c.78.38,1.67.68,1.65.82a10.7,10.7,0,0,1-.79,2c-.47-.23-1.33-.43-1.34-.67A8.08,8.08,0,0,1,1395.82,1258.19Z"/><path d="M844.92,710.34l-3.57,1.33-.38-1.25,3.69-1C844.74,709.76,844.83,710.05,844.92,710.34Z"/><path d="M1017.62,417.8l-1.48,8.16c-3.19-3.82-.39-5.83,1.55-8.15C1017.73,417.79,1017.62,417.8,1017.62,417.8Z"/><path d="M1036.21,427.73c.16.81.32,1.56.47,2.31-.52,0-1.22.22-1.51,0a2.15,2.15,0,0,1-.54-1.57C1034.64,428.22,1035.45,428.05,1036.21,427.73Z"/><path d="M1005.84,406.57l-1.14,1.24a6.3,6.3,0,0,1-.79-1.94c0-.25.88-.57,1.36-.87Z"/><path d="M537.6,342.05l3.61-2.48a10.85,10.85,0,0,1-.77,2.44C540.32,342.24,539.44,342.05,537.6,342.05Z"/><path d="M664.29,254.65c-.59-.56-1.35-1.07-1.28-1.25a14.14,14.14,0,0,1,1.34-2.31c.52.54,1.53,1.17,1.45,1.6C665.66,253.4,664.84,254,664.29,254.65Z"/><path d="M428.82,403.63l1.78-3,1.2.74c-.64,1-1.27,2-1.91,2.93Z"/><path d="M837.09,1287.83c-.36-.4-.94-.76-1-1.2s.53-.79.83-1.19c.36.4.94.76,1,1.21S837.39,1287.43,837.09,1287.83Z"/><path d="M573.51,1243.77l-3.09-.57,1.16-2,1.69,2.82S573.51,1243.77,573.51,1243.77Z"/><path d="M560.6,1237.41l.88,1.24c-.5.23-1,.7-1.47.61s-.61-.78-.91-1.2Z"/><path d="M587,1301.92l-.78,1.35a9,9,0,0,1-1-1.14c-.06-.11.31-.7.41-.68A7.65,7.65,0,0,1,587,1301.92Z"/><path d="M1320,1208.79a9.47,9.47,0,0,1-2.35,1.19c-.33,0-1.15-.77-1.08-1,.19-.64.73-1.65,1.13-1.64C1318.36,1207.35,1319,1208.06,1320,1208.79Z"/><path d="M572.15,1209c-.25.46-.51.92-.76,1.39l-1.29-.76,1.06-1.81Z"/><path d="M356.91,499.5l2.65-3.16,1.07.92-2.7,3.12Z"/><path d="M492.18,321.43l4-2.18c.23.35.45.7.67,1.06l-3.66,2.63Z"/><path class="cls-1" d="M951.83,710.72l-4.66-.56.49-1.62,4.27,2.42Z"/><path d="M1004.54,653.57l-1,1.68a9.8,9.8,0,0,1-1.63-1.73c-.13-.23.52-.89.81-1.35Z"/><path d="M721.84,631.11,719,632.56l-.5-1,2.89-1.34Z"/><path d="M836.2,290.24v8.08c-2-2.72-.66-5.4,0-8.13C836.23,290.15,836.2,290.24,836.2,290.24Z"/><path d="M981.74,308.09c2.67,1,6.24,1.25,4.34,6.3l-4.34-6.34Z"/><path class="cls-1" d="M426.15,1266.1c4.38-.44,5.71,2.94,7,6.3l-7-6.36Z"/><path class="cls-1" d="M426.21,1266V1254.1l1.82.11c-.61,3.94-1.22,7.88-1.85,11.86Z"/><path class="cls-1" d="M445.89,1249.8l5.19,2.87-.57,1.19-5.83-2.76Z"/><path class="cls-1" d="M1296.83,1233.71c-.24-4.82-.33-6.45-.51-10.08,7,6.24,17.18,3,22.15,13.52-5.56-.48-9-1.89-11.82-4.58S1301.46,1228,1296.83,1233.71Z"/><path class="cls-1" d="M1321,1242c5.82,1.13,9.63,1.79,13.4,2.64,3.3.74,7.75-1.66,10.51,3.6-7.37-.48-13.75-.72-20.07-1.46C1323.75,1246.67,1322.89,1244.44,1321,1242Z"/><path class="cls-1" d="M1453.12,1323.43l-5,3.07-2.57-8.33c4.45-1.11,7.2.21,7.29,5.5Z"/><path class="cls-1" d="M1342.55,1228.45c11.87-1.07,11.87-1.07,12.93,4.48Z"/><path class="cls-1" d="M1350.23,1240.56c-3.86,2-6-1.8-8.94-2.76.14-.58.27-1.16.41-1.75l9.08,1.81C1350.6,1238.76,1350.42,1239.66,1350.23,1240.56Z"/><path class="cls-1" d="M1324.17,1257l-8.76-2.82.39-1.49,9,1.84C1324.6,1255.32,1324.38,1256.14,1324.17,1257Z"/><path class="cls-1" d="M1329.75,1268.79c1.11-1.52,2.22-3,4-5.47,1.83,4.65.55,6.17-2.08,7Z"/><path class="cls-1" d="M1324.35,1227.43c2.43,1.6,4.12,3.45,2.16,6.72-5-1.16-3.78-4-1.92-6.93Z"/><path class="cls-1" d="M1324.59,1227.22l-10.55-2.76c.07-.71.15-1.42.22-2.13h8.28l-.29-.26q1,2.68,2.08,5.36Z"/><path class="cls-1" d="M1328.06,1278.63c-1.08,1.46-1.71,2.32-2.35,3.17-.79-.6-2.17-1.14-2.24-1.83a3.46,3.46,0,0,1,1.37-2.77C1325.27,1276.92,1326.56,1277.93,1328.06,1278.63Z"/><path class="cls-1" d="M1338.69,1261c-.87-.77-1.46-1-1.63-1.48-.55-1.5-1-3-1.51-4.9C1339.85,1255.53,1340.67,1257.42,1338.69,1261Z"/><path class="cls-1" d="M1571.51,1491.67c1.75-2.39,1.75-2.39,6.87,2.32l-7.14-2.62Z"/><path class="cls-1" d="M1510,1343.39c.06,3.6-1,5.77-6.89,3.71l7.12-3.47Z"/><path class="cls-1" d="M1303.94,1311.68l3.46.68a12.29,12.29,0,0,1-2.08,1.76c-.24.13-.93-.56-1.41-.87Z"/><path class="cls-1" d="M1452.87,1323.67a11.17,11.17,0,0,1,3.2,1.47c.49.43.26,1.66-.61,3.1l-2.34-4.81Z"/><path class="cls-1" d="M1359.93,1252.49c.32-1.33.65-2.66,1-4l1.46.28-.51,4Z"/><path class="cls-1" d="M1486.17,1323.22c-.05.87.22,2-.23,2.54s-1.68.56-2.56.8c.2-.72.19-1.67.65-2.1a7.42,7.42,0,0,1,2.39-1Z"/><path class="cls-1" d="M1297.37,1330.44c.73-1.29,1.21-2.15,1.69-3a17.33,17.33,0,0,1,.39,2.45A11,11,0,0,1,1297.37,1330.44Z"/><path class="cls-1" d="M1463.59,1347.59a8.89,8.89,0,0,1-2.67-.3,1.66,1.66,0,0,1-.37-1.51c.48-.45,1.58-1,1.83-.79C1462.91,1345.43,1463.06,1346.33,1463.59,1347.59Z"/><path class="cls-1" d="M1548.42,1416.92h-6.58l.12-1.41c2.08.5,4.16,1,6.28,1.47Z"/><path class="cls-1" d="M817,923.1c5.39,6.38,12.48,11.1,13.63,17,1.6,8.21,3.27,15.68,8.6,22.15-1.67,14.15,9.15,23.58,13.57,35.43a13.6,13.6,0,0,0,8.7,8.74c3,1,4.9,5.79,6.88,9.12a112.09,112.09,0,0,1,6.07,12,17.16,17.16,0,0,1,1.26,7.62c-5.69-4.32-11.3-4.8-17.43-2.83-3.57,1.14-6.22.13-8.6-3.27a44.34,44.34,0,0,0-9-8.95c-3.57-2.81-6.72-5.46-5.32-10.63.14-.53.11-1.47-.2-1.69-6.8-4.7-7.5-13.15-12-19.32a67,67,0,0,1-12.94-42c.16-6,1.79-12,3-18C813.48,927.23,814.85,926.12,817,923.1Z"/><path class="cls-1" d="M1031.4,883.21c5.64,8.44,5.8,21.65.67,29-2.16,3.1-4.34,3.76-11.27,3.08-.72,9.57-7.75,11.79-15.83,13-6.05.89-12,2.42-18,3.46-11.87,2.06-20.75-7.19-17.79-18.69A9.17,9.17,0,0,1,973,908.2a122.31,122.31,0,0,1,12.18-6.35c5-2.38,7.61,2.44,11.5,4.57,3.68-8.77,10.83-12,19-14.57C1021.31,890.07,1026.22,886.15,1031.4,883.21Z"/><path class="cls-1" d="M990,795.43c-1.65,11.81-8.17,16.31-17.58,17.72a9.27,9.27,0,0,0-3.43,1.28c-7.15,4.52-14.26,4.2-21.86.84-3.34-1.48-8.48-.14-10.81-2.27-2-1.86-.62-7-1.94-10.28-1.93-4.71-1-8.39,2.07-11.88a128.24,128.24,0,0,1,9.4-10.09c6.43-5.9,11.62-6.44,19.13-1.76C973.43,784.28,981.69,790,990,795.43Z"/><path class="cls-1" d="M426.52,478.77c3.33-6.19,5.85-10.6,8.1-15.13,2.58-5.22,4.31-11,7.58-15.71,2.38-3.44,6.64-5.57,10.06-8.28l1.28,1.43c-1.7,1.94-3.7,3.7-5,5.89s-3,5-2.69,7.29c.53,4.06-.1,7.5-2.73,10.35-6.95,7.53-5.55,17.24-6.62,26.11a100,100,0,0,0,1.74,33.77c.39,1.79.15,4,1.08,5.37,5.23,7.87,4.14,17.11,5.85,25.72,1.2,6-1,9.57-7.51,12.89.49,1.58,1,3.2,1.65,5.31l-14.85,5.35c2.16-7.79,4-13.75,5.43-19.81,2-8.58,4.57-17.18,5-25.87.42-7.72-1.93-15.56-2.61-23.38a104.26,104.26,0,0,1-.23-17.31c.32-4,.39-7-3.52-9.47C427.11,482.38,426.85,479.56,426.52,478.77Z"/><path class="cls-1" d="M886.06,404.51c-4.33,9.73-5.32,19.89.28,29,5.32,8.67,4.43,18,4.82,27.53l-4.32-7.8c-5,7-1.68,14.1-3.63,21-1.75-11.58-3.51-23.15-5.56-36.66L874.81,442,868.15,426c1.09-1.88,5.2-2.3,2.82-5.93-4-6.12-4.42-13.07-5.05-20.16-.8-9-2.9-18-4.24-27q-1.45-9.83-2.29-19.72c-.09-1.06,1.48-2.25,3-4.35.31,4.9.53,8.48.79,12.54h4.56l-.1-.11c-3.77,6.28-1.45,12.77.27,18.74a263.6,263.6,0,0,0,12.48,33.7l1.6-14.35,1.4-.1,2.7,5.3Zm-1.8,39.95-1.92-.92c-.15.52-.58,1.23-.39,1.51a7.1,7.1,0,0,0,1.72,1.29C883.84,445.83,884,445.31,884.26,444.46Z"/><path class="cls-1" d="M811.64,418.24c4.23-7.77,8.32-14.38,6.28-23.79-2.46,4.44-4.48,8.11-6.51,11.78,2.08-12.39,9.3-23.35,6.65-36.68l2.74.25c.1,2.13.7,4.37.21,6.35-1.63,6.66,1.5,12.11,4.49,17.3,3.44,6,3.46,9.13.46,14.5-2.4,4.32-3.33,9.45-5,14.54l-5.22-2.29-14.14,20.62c.95-3.61-3.63-8.59,1.83-13.11,1.11-.92-.28-5.16-.87-7.78-.64-2.83-1.71-5.55-2.64-8.47l-6.22,10.64-1.75-.68a21.43,21.43,0,0,1-.25-3.19c.06-1.21-.08-3,.63-3.53,8.22-6.28,4.14-17.55,10-25.53l2.14,4.47,2.72-2c.55.65,1.25,1.09,1.28,1.56.09,1.79.57,3.9-.18,5.33C804.62,405.38,807.07,411.17,811.64,418.24Z"/><path class="cls-1" d="M538.45,423.71l8.13.74c-2.24,5-4.71,10.48-7.19,16l1.62.91c1.33-1.47,2.63-3,4-4.42,1.22-1.28,2.32-2.86,3.82-3.68,4.08-2.24,4.16-2.11,1.29-7.45l7.9,2.71c-6,9.48-11.5,18.55-17.38,27.37-2.14,3.22-5,2-7.78-.3-1.22,3.45-2.39,6.79-4,11.33l-3.51-6c-.28,3.9-.49,6.75-.7,9.72l-7.42-1.9c.44-1.53.48-3.24,1.33-4.31,3.53-4.49,6.79-8.79,2.53-14.72-.54-.74.65-2.74,1.07-4.15,1.7-5.66,3.41-11.31,5.63-18.69.72,5,1.23,8.64,2.08,14.57C533.37,434.15,535.94,428.86,538.45,423.71Z"/><path class="cls-1" d="M471.32,482.88c2.7-12.81,7.29-23.76,7.6-35.58H474.1c.28-.82.31-1.7.68-1.88,4.85-2.38,7.78-6.4,10.3-11,1.14-2.1,3.47-4.91,6.57.14,3.69-8.28,5.06-17.86,16-22.11-.91,2.93-1,4.79-2,6.06-5.74,7.88-7.21,17.24-9.68,26.3-1.59,5.88-3.8,11.6-5.88,17.34a4.7,4.7,0,0,1-2.2,2.55c-7.33,3.09-11.26,8.89-13.48,16.2C474.29,481.28,473.48,481.5,471.32,482.88Z"/><path class="cls-1" d="M897,275.61c-.48,4.07-1.49,8.17-1.31,12.22.35,7.55-2.58,14.74-1.6,22.49.41,3.25-2.82,7.16-4.87,10.48-4.52,7.34-9.35,14.49-14.06,21.72l.18.23c-5.2-6.45-5.3-9.58-.89-16.28,3.17-4.82,6.16-9.76,9.17-14.69,3.22-5.28,4.87-10.41,3.7-17.19s.52-14.42,9.23-17.07c.34-.1.41-1.07.56-1.7Z"/><path class="cls-1" d="M885,294.67a54.6,54.6,0,0,1-14.78,26.75c-2.87,2.87-4.67,6.17-4.49,10.49.17,4.06-.2,7.71-5.4,9.3-1.75.54-2.58,4.39-3.66,6.81-1.22,2.76-2,5.73-3.48,8.36-.47.86-2.3,1-4.87.19l13.84-28.18H855.8c5.14-6.81,9.26-13.14,14.27-18.64a21.52,21.52,0,0,0,6-17.53,35.73,35.73,0,0,1,1.4-13.93c.23,2.7,1,5.48.59,8.09-.87,5.73,2.06,7.72,7,8.28Z"/><path class="cls-1" d="M886.06,404.53l3.1,7.35,2.4-.47q.18-5,.37-10.05l3.91,8.12V396.34l-1.22-.23c-.85,1.84-1.69,3.68-2.54,5.53.3-4.77.53-9.54.93-14.3.1-1.19,1.13-2.36,1-3.49-.55-7.3,2.56-13.18,8-19.94-.72,4.38-1.17,7.33-1.68,10.27a43.67,43.67,0,0,0,.35,19.09c1.32,5.14.76,10.92.24,16.34-.65,6.71-2.27,13.31-3.19,20-.45,3.27-2.12,3.17-4.89,2.25-.36-5.5-.57-10.86-5.65-15.35-2.2-1.94-.88-7.87-1.15-12Z"/><path class="cls-1" d="M954.3,907.16c6,3.1,9.22,8.35,11.16,14.09a10.34,10.34,0,0,1-1.34,8.35c-1,1.28-4.88.43-7.46.33-.85,0-1.65-.73-2.49-1.07-10.09-4.1-11.35-13.07-2.76-19.81C952.32,908.33,953.36,907.77,954.3,907.16Z"/><path class="cls-1" d="M669.72,304.61c-1.14,2.08-1.78,5.27-3.52,6.06C656.7,315,652.05,325,643.43,330c-6.33,3.67-9.95,11.57-18.8,11.81.91-5.44,2.51-9.58,8.92-10.52,1.85-.27,3.9-3,4.84-5.07,2.77-6.06,5-10.73,13.65-11.3,6.1-.4,11.81-6.63,17.7-10.26Z"/><path class="cls-1" d="M599.45,1290.94c-.4-2.36-.8-4.71-1.28-7.57l4.8,1.89c.46-8.6-4.54-14.44-17.76-20.83,2.48-.27,4.85-.66,7.24-.76,5.43-.24,9.6,1.8,11.52,7.17,1.33,3.73,2.36,7.58,3.58,11.36.72,2.26,1.52,4.49,2.6,7.63-3.57.28-7.26.56-10.93.86Z"/><path class="cls-1" d="M752.59,347.6c-.62,2.4-1.23,4.79-1.84,7.19l0,0c-4.57,10.93-9.11,21.87-13.73,32.78a15.25,15.25,0,0,1-4.94,6.75c.34-2.15.5-4.35,1.05-6.44a136.86,136.86,0,0,1,15.76-36.62c.85-1.41,2.58-2.29,3.91-3.42Z"/><path class="cls-1" d="M630.85,442q-.78-8.87-1.55-17.71c5.08-.12,5.08-.12,10.33,17.82l4.7-3.8,4.68,4.42c-6.42,6.73-12.3,1-18.31-.79Z"/><path class="cls-1" d="M693.47,317.88c2.33-1.22,4.58-2.63,7-3.63,3.83-1.57,7.77-2.84,11.65-4.3.52-.2,1.12-1.2,1.34-1.1,8.94,4.11,15.11-5.74,24-4.53-.72,1.15-1.1,2.6-1.91,2.9-10.61,3.95-21.18,8-32,11.36-3.06.94-6.86-.55-10.33-.93Z"/><path class="cls-1" d="M803.19,354.71c-1.58,6.62-3.12,13.24-4.74,19.84-1.74,7.11-10.52,6.93-13.39,14.81-.06-6.43,2.86-11.77,7.92-18.8,3.63-5,6.41-10.7,9.57-16.09Z"/><path class="cls-1" d="M404.06,665.36c.27-13.74,3.93-26.66,7.83-39.52C414,631.7,408.82,657.35,404.06,665.36Z"/><path class="cls-1" d="M697.53,297.65l5.13.94L697.33,295c1.9-1,4.19-2.69,4.49-2.39,6.45,6.62,14.13,2.59,21.29,2.69a3,3,0,0,1,2.67.89c-6.82,2-13.59,4.12-20.48,5.8-3.69.89-6.63-.6-7.72-4.58A1.49,1.49,0,0,0,697.53,297.65Z"/><path class="cls-1" d="M557.13,908.2c-3.31-6.7-1.75-9.71,5-10.07a81.4,81.4,0,0,0,8.45-1.34c1.6,4,13.22,4.2,6.24,13.84-1.14-2.78-1.5-5.78-3.19-7.25-1.84-1.59-4.87-2.22-7.46-2.45C560.74,900.45,560,901.26,557.13,908.2Z"/><path class="cls-1" d="M678.54,328.92l-12.09,5.87-3-6.62c1.84-1.2,4.29-3.46,7.18-4.52,4.75-1.75,5.93,2.87,8.12,5.52Z"/><path class="cls-1" d="M770.28,250.42c-1.55,1.2-2.94,2.9-4.7,3.49-2.94,1-6.11,1.29-10.07,2.05L752.77,245l17.66,5.64Z"/><path class="cls-1" d="M383.09,600.66l-4.34.48c-.33-8.92,7.13-13.92,8.74-21.54l2,.8q-3.22,10.11-6.49,20.26S383.09,600.66,383.09,600.66Z"/><path class="cls-1" d="M669.74,304.63c5.82-1.6,11.61-3.28,17.46-4.76,3.39-.87,6.86-1.43,10.31-2.17,0-.05,0-.22.07-.26-2.21,3.9-5.25,6-10.11,6.13a18.55,18.55,0,0,0-9.24,2.83c-3.86,2.49-6.09.76-8.51-1.78Z"/><path class="cls-1" d="M946,881.25c-1.33,1.35-2.42,3.2-4,3.93-3.07,1.4-10.53.56-14.11-1.33C933.72,880.8,939.54,880.74,946,881.25Z"/><path class="cls-1" d="M407.48,592.78c-5.33-3.47-2.58-5.83.23-7.75,1.94-1.33,4.45-1.81,6.45-3.07,1.6-1,2.81-2.59,4.82-4.53,1.56,4.5-1.33,5.78-3.17,7.16C412.73,586.92,409.2,589.89,407.48,592.78Z"/><path class="cls-1" d="M589.91,330.31c2.9-1.36,6.23-2.22,8.6-4.22s4-5.24,6.68-7.17c-1.57,8.25-4.16,10.73-16,16.49l.94-5.37Z"/><path class="cls-1" d="M820.84,458l2.57-18.23C828.16,444.78,827.79,450.23,820.84,458Z"/><path class="cls-1" d="M600.39,512.88c.41-8.61.73-15.4,1.1-23.1C604.16,497.62,604,502.33,600.39,512.88Z"/><path class="cls-1" d="M694.79,585.19l-9,10.51C685.32,588.52,687.46,585.92,694.79,585.19Z"/><path class="cls-1" d="M376.57,618.22c-.13-6.68.63-13,6.48-17.54,0,0-.08,0,0,0q-3.37,8.9-6.84,17.83Z"/><path class="cls-1" d="M752.78,347.82c-1.37-6.51,2.11-11.33,5.56-16.73.75,5.52-.21,8.1-5.78,16.49C752.59,347.6,752.78,347.82,752.78,347.82Z"/><path class="cls-1" d="M898.16,328.73l8.86,5.41C900.93,337.18,900.39,336.85,898.16,328.73Z"/><path class="cls-1" d="M850.24,403.77c6.22,4.85,6.22,4.85.48,10.3Z"/><path class="cls-1" d="M601.48,469.94c3.13,4.22.64,8.21,1,12.68C598.52,477.94,598.42,476.33,601.48,469.94Z"/><path class="cls-1" d="M717.81,552.52l-3.28,10.2C711.21,558.18,711.23,554.93,717.81,552.52Z"/><path class="cls-1" d="M594.56,1244.31l-9.44-2c1.55-1.65,3.19-3.94,3.6-3.74a51.09,51.09,0,0,1,6.7,4.52Z"/><path class="cls-1" d="M421.45,609l-8.23,3.31,3.25-8.95Z"/><path class="cls-1" d="M635.88,786c-2.58,8.77-2.58,8.77-7.46,4.32Z"/><path class="cls-1" d="M847.44,246.83c.3,1.41.6,2.82,1.07,5.07l-11,1.41c2.85-5,7-4.84,10.2-6.23Z"/><path class="cls-1" d="M770.43,250.67l3.84-5.56c1.54,5.36,2.66,9.28,3.8,13.2l.26-.28c-1.22-.42-2.82-.48-3.58-1.32a57.76,57.76,0,0,1-4.46-6.28Z"/><path class="cls-1" d="M404.11,722.15l1.29-9.42,1.08.1c.91,2.93,1.81,5.86,3,9.59l-5.33-.28Z"/><path class="cls-1" d="M629,762.76c1.6,2,2.62,2.71,2.92,3.69a18.29,18.29,0,0,1,.28,4.27C627.64,769.69,627.64,769.69,629,762.76Z"/><path class="cls-1" d="M824.46,353.47c.74-3.65,1.46-7.14,2.19-10.73C830.75,347.93,830.75,347.93,824.46,353.47Z"/><path class="cls-1" d="M656,419.78c1.39,8.29,1.39,8.29-5.13,9.54Z"/><path class="cls-1" d="M409.24,683.2c-.35,3.54-.63,6.38-.95,9.67C405.25,688.38,405.25,688.38,409.24,683.2Z"/><path class="cls-1" d="M737.32,1270l1.38-4.87,2.44.71c-.47,1.62-.95,3.24-1.42,4.86Z"/><path class="cls-1" d="M482.74,368.46c-.22-4-.07-7.82,4.35-11.2.56,2.66,1,4.58,1.36,6.5Z"/><path class="cls-1" d="M467.09,547.15l9.08-8.4c-1.48,7-2.3,7.75-9.19,8.26Z"/><path class="cls-1" d="M708.08,814.12l3.62-3.5,2.65,2.37-3.05,4.06Q709.7,815.58,708.08,814.12Z"/><path class="cls-1" d="M733.06,1359.86q.71,3.3,1.43,6.61l-1.83.42L731,1360Z"/><path class="cls-1" d="M869.12,274.91l-3.38-3.65,2.68-1.87c.79,1.73,1.57,3.47,2.36,5.21Z"/><path class="cls-1" d="M589.49,905.8l-5.44-.81.18-1.73h5.59Z"/><path class="cls-1" d="M467,547c2.59,5.69-1.6,8.79-5.45,12,1.88-3.9,3.75-7.81,5.59-11.76Z"/><path class="cls-1" d="M567.93,847c.83,3.15,1.42,5.35,2.18,8.21-1.31-.42-2.3-.43-2.74-.93C565.51,852.19,565.78,850.05,567.93,847Z"/><path class="cls-1" d="M760.81,513.57v9.93l-1.37,0c.14-3.3.29-6.61.44-9.91Z"/><path class="cls-1" d="M554.38,832.83l1.41,6-1.85.56-1.76-5.87Z"/><path class="cls-1" d="M799.23,499.3c-.22-1.53-.45-3.06-.68-4.59l3.24-.46v5.27Z"/><path class="cls-1" d="M482.93,408c.22-7,4.09-4.21,7.75-1.77l-8,1.51Z"/><path class="cls-1" d="M590.15,492.17l3.16-5.35C597.19,491.52,592.35,491.21,590.15,492.17Z"/><path class="cls-1" d="M857.87,416.23l.42,6-2.13.17q-.2-3-.4-6.06Z"/><path class="cls-1" d="M654.19,1310.35c-1.34.86-2.17,1.73-3.09,1.85-.54.07-1.23-1.07-1.85-1.67a10.39,10.39,0,0,1,2.38-2.1C652,1308.27,652.88,1309.34,654.19,1310.35Z"/><path class="cls-1" d="M723.4,824.8c-1.34.94-2.1,1.74-3,2-.5.14-1.26-.66-1.91-1a9.41,9.41,0,0,1,2.1-2.28C721,823.26,721.93,824.08,723.4,824.8Z"/><path class="cls-1" d="M662.64,387.77l-4.85-3.65,1.05-1.55,5.15,3.27Z"/><path class="cls-1" d="M635.43,1320.86c1.06,1.51,1.92,2.3,2.16,3.24.15.6-.64,1.43-1,2.15a9.57,9.57,0,0,1-2.37-2.23C634,1323.57,634.74,1322.56,635.43,1320.86Z"/><path class="cls-1" d="M587.91,517.49l2-9.35,1.81.35c-.65,3-1.29,6-1.93,9.07Z"/><path class="cls-1" d="M726.87,544.65,723.48,549l-1.78-1.2,3-4.76Z"/><path class="cls-1" d="M403.76,704.33l2-5.8,1.55.49q-.85,2.94-1.73,5.88Z"/><path class="cls-1" d="M619.15,314.51l-6,3.41-.94-1.49,5.9-3.55Z"/><path class="cls-1" d="M855.61,312.2c.63-2,1.27-3.92,2.14-6.59,1.2,4.78,1.2,4.78-2.37,6.35Z"/><path class="cls-1" d="M404.11,722.14q1.56,4.83,3.11,9.66l-2.36.42-.75-10.06Z"/><path class="cls-1" d="M684.35,321.34c2-3.8,5.56-3.66,9.11-3.46a2.2,2.2,0,0,0-.2-.23c-1.93,4.12-5.81,3.06-9.15,3.47Z"/><path class="cls-1" d="M640.55,768.47a9.5,9.5,0,0,1-1-2.46c0-.32,1-1.06,1.3-1a7.49,7.49,0,0,1,1.93,1.31Z"/><path class="cls-1" d="M875.12,342.52V351l-2.53-.41c.92-2.59,1.84-5.19,2.73-7.81Z"/><path class="cls-1" d="M911.78,461.61l-.45-5.23,1.45-.16.84,5.21Z"/><path class="cls-1" d="M376.57,618.22l-.39.27,2.25,7.9-1.86.33Z"/><path class="cls-1" d="M733.24,294.77l-1-1.39c.48-.24,1-.66,1.43-.65s.88.47,1.32.73Z"/><path class="cls-1" d="M678.76,329.17c-.65-4.4,1.26-7,5.59-7.83l-.24-.22q-2.79,3.88-5.59,7.79Z"/><path class="cls-1" d="M878.85,978.19c.61,2.58,1,4,1.47,6.22C877.65,982.36,877.65,982.36,878.85,978.19Z"/><path class="cls-1" d="M735.73,482.45l4.25-2.3c.17.36.35.72.53,1.08l-4.31,2.13Z"/><path class="cls-1" d="M686.12,268.27c2.92,3.65,1.41,6.15-2.83,7.87,1-2.57,2.07-5.14,3.06-7.75A1,1,0,0,0,686.12,268.27Z"/><path class="cls-1" d="M771.88,470.14l-1,6.73c-1.73-3.71-1.73-3.71,1.21-6.48Z"/><path class="cls-1" d="M630.7,442c2.69,2.55,2.79,5.17-.86,9.17.37-2.42.57-3.49.69-4.57.16-1.49.27-3,.36-4.51A1.43,1.43,0,0,0,630.7,442Z"/><path class="cls-1" d="M730.39,1298.21l-2.58-2.88.9-1,3.21,2.45Z"/><path class="cls-1" d="M430.7,588.14l1.47-4.83,1.56.39-1,5.14Z"/><path class="cls-1" d="M683,782.75a24.78,24.78,0,0,1-2.78,1.38c-.14,0-.59-.71-.9-1.09l2.86-2C682.5,781.61,682.77,782.18,683,782.75Z"/><path class="cls-1" d="M450.71,546.54,449,551l-1-.31,1.27-4.65Z"/><path class="cls-1" d="M590,1259.33l-1-1.31,2-1.14c.17.54.59,1.17.44,1.59S590.49,1259.05,590,1259.33Z"/><path class="cls-1" d="M482.7,407.73a15.13,15.13,0,0,1-2.17,2.58c-.19.16-1.25-.77-3.2-2l5.6-.3Z"/><path class="cls-1" d="M753.92,1273.66a4.11,4.11,0,0,1-.38.72,12.42,12.42,0,0,1-1.36-.59,5.28,5.28,0,0,1,.37-.72A13.79,13.79,0,0,1,753.92,1273.66Z"/><path class="cls-1" d="M750.75,354.79l4.2-1.34c-.55,2.6-.55,2.6-4.21,1.33Z"/><path class="cls-1" d="M867.71,361.35c-1-2.25-2.23-4.51,1-8.44-.58,4-.89,6.11-1.17,8.28Z"/><path class="cls-1" d="M772.1,470.39l4-5.15c-.32,4.73-.32,4.73-4.26,4.92Z"/><path class="cls-1" d="M828.5,475.86l.87,1.41c-.45.24-1.07.79-1.3.66-.42-.24-.6-.89-.88-1.36Z"/><path class="cls-1" d="M975.19,977.84c.48-.39.88-.91,1.36-1,.26-.05.67.62,1,1-.42.36-.81.92-1.28,1C976,978.85,975.56,978.19,975.19,977.84Z"/><path class="cls-1" d="M886.41,276.07V281h-.71v-4.94Z"/><path class="cls-1" d="M694.64,794.75l-1.23.93c-.2-.42-.68-.95-.56-1.23s.77-.64,1.19-1Z"/><path class="cls-1" d="M744.3,1340.8c-1-1.45-1.91-2.91-3.07-4.68,4.56,0,2.75,3,2.94,4.87Z"/><path class="cls-1" d="M447.71,565.81c-.21,1-.42,1.91-.66,2.86a2.18,2.18,0,0,1-.7-.14c0-1,0-2,0-3Z"/><path class="cls-1" d="M885,294.66l-4.39-6.25c6.48.69,2.89,4.57,4.34,6.26Z"/><path class="cls-1" d="M779.42,667.2c8.39-14.3,20.69-17.91,34.37-18.8a11,11,0,0,1,4.49.58c3.43,1.27,4.51,5,1.73,7.23a16.55,16.55,0,0,1-8.12,3.39c-5,.6-9.69,1.18-13.19,5.27a4,4,0,0,1-2.25,1.51C791.19,666.73,785.92,666.91,779.42,667.2Z"/><path class="cls-1" d="M830.89,649.63c-.92,1.86-1.84,3.73-3.33,6.77-2.29-4.66-1.2-6.59,1.41-8Z"/><path class="cls-1" d="M1040.29,627.54l6,1.19c-.14.77-.27,1.54-.41,2.32l-6.08-1C1040,629.22,1040.15,628.38,1040.29,627.54Z"/><path class="cls-1" d="M953.13,403.85c-.68,3.95-1.14,6.58-1.59,9.22C949.25,409.9,948.74,407.07,953.13,403.85Z"/><path class="cls-1" d="M970.32,304.62c-.8.91-1.59,1.85-2.46,2.7a13.47,13.47,0,0,1-1.23-1l2.52-2.74Z"/><path class="cls-1" d="M962.58,316l3.83-4.93,1.53,1.93-5.6,2.74Z"/><path class="cls-1" d="M1053.28,376.73c-1.19,3.61-2.39,7.23-3.17,9.56-1.15-5.93-1.15-5.93,3.42-9.4Z"/><path class="cls-1" d="M1012.26,327.36c.93-3.83,1.58-6.47,2.57-10.56C1017.24,321.7,1017.43,324.54,1012.26,327.36Z"/><path d="M884.26,444.46c-.26.85-.42,1.37-.59,1.88a7.1,7.1,0,0,1-1.72-1.29c-.19-.28.24-1,.39-1.51Z"/><path d="M892.08,401.64c.85-1.85,1.69-3.69,2.54-5.53l1.22.23v13.14l-3.91-8.12Z"/></svg>