<svg id="Layer_1" data-name="Layer 1" xmlns="http://www.w3.org/2000/svg" viewBox="0 0 1686 1686"><metadata><?xpacket begin="﻿" id="W5M0MpCehiHzreSzNTczkc9d"?>
<x:xmpmeta xmlns:x="adobe:ns:meta/" x:xmptk="Adobe XMP Core 6.0-c002 79.164488, 2020/07/10-22:06:53        ">
   <rdf:RDF xmlns:rdf="http://www.w3.org/1999/02/22-rdf-syntax-ns#">
      <rdf:Description rdf:about=""
            xmlns:dc="http://purl.org/dc/elements/1.1/"
            xmlns:photoshop="http://ns.adobe.com/photoshop/1.0/"
            xmlns:xmpRights="http://ns.adobe.com/xap/1.0/rights/"
            xmlns:xmp="http://ns.adobe.com/xap/1.0/"
            xmlns:xmpMM="http://ns.adobe.com/xap/1.0/mm/"
            xmlns:stEvt="http://ns.adobe.com/xap/1.0/sType/ResourceEvent#">
         <dc:creator>
            <rdf:Seq>
               <rdf:li>orsolya veres</rdf:li>
            </rdf:Seq>
         </dc:creator>
         <dc:rights>
            <rdf:Alt>
               <rdf:li xml:lang="x-default">orsolya veres / www.fitmithanno.fun</rdf:li>
            </rdf:Alt>
         </dc:rights>
         <photoshop:Country>austria</photoshop:Country>
         <xmpRights:WebStatement>www.fitmithanno.fun</xmpRights:WebStatement>
         <xmp:MetadataDate>2021-01-31T20:33:18+01:00</xmp:MetadataDate>
         <xmpMM:InstanceID>xmp.iid:c34c1181-c81f-4983-80a9-d0f27983461f</xmpMM:InstanceID>
         <xmpMM:DocumentID>xmp.did:c34c1181-c81f-4983-80a9-d0f27983461f</xmpMM:DocumentID>
         <xmpMM:OriginalDocumentID>xmp.did:c34c1181-c81f-4983-80a9-d0f27983461f</xmpMM:OriginalDocumentID>
         <xmpMM:History>
            <rdf:Seq>
               <rdf:li>
                  <rdf:Description>
                     <stEvt:action>saved</stEvt:action>
                     <stEvt:instanceID>xmp.iid:c34c1181-c81f-4983-80a9-d0f27983461f</stEvt:instanceID>
                     <stEvt:when>2021-01-31T20:33:18+01:00</stEvt:when>
                     <stEvt:softwareAgent>Adobe Bridge 2021 (Macintosh)</stEvt:softwareAgent>
                     <stEvt:changed>/metadata</stEvt:changed>
                  </rdf:Description>
               </rdf:li>
            </rdf:Seq>
         </xmpMM:History>
      </rdf:Description>
   </rdf:RDF>
</x:xmpmeta>
                                                                                                    
                                                                                                    
                                                                                                    
                                                                                                    
                                                                                                    
                                                                                                    
                                                                                                    
                                                                                                    
                                                                                                    
                                                                                                    
                                                                                                    
                                                                                                    
                                                                                                    
                                                                                                    
                                                                                                    
                                                                                                    
                                                                                                    
                                                                                                    
                                                                                                    
                                                                                                    
                           
<?xpacket end="w"?></metadata>
<path d="M1221.44,1686.83l425-.76q-.81-6.64-1.56-13.31c-1.44-12.72-1.46-25.59-2.7-38.33-1.72-17.73-4.43-35.37-5.89-53.11-1.81-22-6.31-43.46-10.51-65-2.93-15.06-7.32-29.84-11.35-44.67-2.49-9.13-5.67-18.07-8.25-27.18-.92-3.25-1.56-6.25-5-7.89-.95-.45-1.78-2.34-1.73-3.53.23-5.69-2.36-10.18-5.23-14.78s-5.35-9.85-7.91-14.84c-1.61-3.13-4.07-5.76-5.85-8.5-2.87-4.42-8.81-6.92-8.87-13.52,0-1.71-3.62-3.4-6.07-5.52.59-1.61,1.36-3.75,2.22-6.1-.8-.56-1.48-1.46-2.13-1.44-5.66.19-7.08-6.54-12.1-7.36a1.9,1.9,0,0,1-.25-1.53c3-4.72-1.16-7.79-3.77-8.11-7.68-1-8.91-5.13-6.86-12.63l-5.86,3.47-8-6.16,4.46-2.61c-5.28-1.86-9.39-2.59-12.63-4.67-3-1.93-5.14-5.29-7.6-8,3.54-3.34-3.7-8.1,2.48-11.59-9,4-11.61-3.54-16.27-6.42-4.88,4.49-4.88,4.49-7.66-.06a11.76,11.76,0,0,1,3-1.54,23.35,23.35,0,0,1,4.35-.07c-4.4-3.3-7.89-8.51-14.6-7-5-6.34-14.76-4.14-19.59-11a7.35,7.35,0,0,0-5.33-2.68c-7,.1-10.93-3.52-13-10.24-7.71,1.89-12.7-1.67-16.61-8.72a21.78,21.78,0,0,1-2,2.83,16.34,16.34,0,0,1-2.85,1.62c-.38-1.73-.64-3-.95-4.3-.25-1.08-.56-2.14-.89-3.39l-8.79,4.5c-1.25-5.54-1.35-11.92-9.63-9.69-1-3.1-1.87-5.88-2.89-9.11-1.85,0-3.92-.37-5.82.06-6.9,1.57-10.36-4.61-15-7.3a14.67,14.67,0,0,0-9.89-2.09c.57-2.21,1.17-3.55,1.22-4.92.12-3.34-.65-6.15-5-4.91-3.2.91-4.82-1-6.8-3-7.19-7.37-14.7-14.27-24.44-18.46-2.59-1.11-4.73-4.25-6.12-7a39.35,39.35,0,0,1-3.08-10.16c-.86-4.21-2.25-5.2-5.63-1.9-.62.61-2.44,0-3.7,0-1.91-.11-3.83-.25-5.74-.37-1.21,2.5-1.59,5.67-6.07,4.58-1.28-.31-3.29,2.38-5.67,4.24-1.67-1.85-4.74-3.65-4.88-5.66-.49-7.06-7-9.89-9.77-15.27s-6.79-10.45-10.6-15.38c-4.92-6.35-9.76-12.85-15.38-18.54-8.55-8.65-18.09-15.68-30.91-17.4-6.68-.89-13.24-3.44-19.6-5.92-17-6.62-34.26-9.71-52.34-6.15-4.84,1-9.83,1.91-14.43,6.67,3.47,2.8,6.19,5.39,9.29,7.4,8,5.2,16.11,10.28,24.32,15.16,13,7.72,19,18.38,15.58,33.76-.73,3.32,0,7.16.77,10.58a160.16,160.16,0,0,1,4,41.4,123.55,123.55,0,0,0,2.39,28c2.47,12.45,4.49,25.48,2.51,38.67-2.86,19.11-4.65,38.38-7.05,57.57-.66,5.28-1.81,10.5-2.8,15.74-3.28,17.51-6.62,35-9.87,52.52-1.2,6.44-1.92,13-3.38,19.36-2,8.61-4.35,17.13-6.67,25.65-1.79,6.55-3.69,13.06-5.65,19.56-2.13,7.07-4.24,14.14-6.6,21.13-3,8.89-6.11,17.75-9.46,26.52-1.86,4.87-4.32,9.51-6.48,14.27-3.05,6.71-6.28,13.35-9,20.2-1.16,2.91-.67,6.51-1.94,9.34-1.13,2.5-4.26,4.08-5.48,6.57-4.26,8.76-8.17,17.69-12,26.64-.74,1.72-.55,3.84-.87,6.5-3.43,1.46-7.39,3.47-6.52,9.25a4.19,4.19,0,0,1-2,3.46c-5.86,2.17-4.75,6.82-4.21,11.76-4.73,1.67-8.91,4.07-6.57,10.25l-7.85,2.94c-.25,3.62-.73,7.31-5.34,8.93-1.4.49-2.85,3.34-2.78,5,.25,6.12-2.87,8.63-8.61,9-.23,2.5-.44,4.82-.66,7.22l-9.4,4.77v2.84l158.72-.29c1-3.31,1.86-6.09,2.71-8.88l-.09-.21.16,0c1.41-3.59,2.78-7.29,7.89-5.93a50.12,50.12,0,0,1,5.23,2.1l-4.28,5c-3.43-.46-6.14-.83-8.84-1.17a.36.36,0,0,0,0,.09l0,.1a31.17,31.17,0,0,1,2.14,5.34C1223.64,1685.25,1223,1686.34,1221.44,1686.83Zm292.47-93.08,2.15,2.84c-.34.27-.68.54-1,.8l-2.18-2.81Zm-152.65-357.6c2.19,3.31,6.22,5.34,9.07,8.28,1.7,1.75,2.74,4.12,4.82,7.35h-20.68c-2-6.36-6.17-10.26-11.8-12.84-6.55-3-10.86-7.45-8.33-15.8-5.83-1-9.34-3.77-9.74-10.37C1340.86,1215.73,1352.69,1223.24,1361.26,1236.15ZM1302,1198.57a2.72,2.72,0,0,1,1.9,1.33c.19.43-.65,1.87-.79,1.84a21.17,21.17,0,0,1-3.37-1.41C1300.87,1199.37,1301.46,1198.51,1302,1198.57Zm-101-23.82-.7,0v-4.87l1.08.05C1201.16,1171.5,1201,1173.13,1200.91,1174.75ZM1144,1653.87l-1.32-.28.45-3.88,2,.17C1144.72,1651.21,1144.36,1652.54,1144,1653.87Zm56.65-143.32c.69-4.3,1.31-8,1.92-11.8C1209,1505.42,1208.4,1507.82,1200.65,1510.55Zm58.94-356.5a10.7,10.7,0,0,1,1.36,1.62c-.4.3-.85.89-1.2.84a10.34,10.34,0,0,1-2.3-.94A13.6,13.6,0,0,1,1259.59,1154.05Zm-19,382.61-3.22,1.37c-.19-.68-.39-1.35-.59-2l3.4-.69C1240.34,1535.76,1240.48,1536.21,1240.61,1536.66Zm-3.66-50.5,1.07.3c-.28.84-.56,1.67-.83,2.51l-.86-.26C1236.54,1487.86,1236.75,1487,1237,1486.16Zm0,73.86.11-.41q-.48-2.73-.95-5.46l2.31.15c-.45,1.77-.91,3.55-1.36,5.31,0,.1,0,.21.05.31l-.08.2c1.73,2.08,3,4.09-2.14,5.42.88-2.26,1.51-3.85,2.14-5.42Zm-13.65-403.71c9.05,5.36,10.11,10.61,4.82,19.25C1230.7,1168.9,1229.45,1163,1223.34,1156.31Zm8.62,505.38.11.17-.2.12c-.54,2.6-1.19,5.13-6.22,3.88l6.22-3.88c0-.09,0-.17.05-.26l0,0a17.48,17.48,0,0,0-2.2-3.27c-2.13-2.11-1.79-3.86.34-5.56a.36.36,0,0,0-.07-.1c-4.11-2.17-6.89-6.43-4.73-9.19,3.74-4.77.92-8.93.27-13.18l9-7.71-5-1.68c1-3,1.92-6,2.83-8.92a1.74,1.74,0,0,0-.11-.18v0l-3.79-2.23c1.73-8.78,3.49-17.69,5.25-26.6,2.47,2,4.56,4.28,4.2,6.09-1.49,7.66-3.71,15.18-5.66,22.74l.15.09a.49.49,0,0,1,0,.11c2.42,3.83,4.81,7.64,6.12,9.73-1.56,6.38-4.6,11.5-3.29,15,2.81,7.53-.37,11.67-5.29,15.9l0,0,.11.06,0,0c.72,1.1,1.26,2.45,2.26,3.15C1235.62,1658.29,1234.53,1660,1232,1661.69Zm79.64-477.83h.08l.07-.14ZM769.31,1681.78c-4.7-5-8.74-10.54-13.07-15.85-9.55-11.7-19.26-23.27-28.59-35.15-4.94-6.3-9.16-13.16-13.82-19.69s-9.4-13-14.19-19.44-9.8-12.7-14.5-19.19c-2.78-3.83-5.19-7.93-7.71-11.94-9.47-15.1-19.09-30.12-28.31-45.36a261.89,261.89,0,0,1-25.31-57c-18.3-57.76-37-115.38-54.77-173.32-10.7-35-24.85-68.44-39.75-101.7-6-13.35-12-26.72-17-40.45-3-8.32-3-17.45-2.27-26.33.44-5.53,4.75-8,9.36-9.79,11.43-4.37,22.91-8.6,34.39-12.86,21.72-8.08,43.46-16.13,64.83-24.06.89-4.69-.59-6.35-4.58-6.12-5.33.31-10.66.53-16,.5-7,0-14.16-.82-20.95-.89-7.86-.08-15.81-1.44-23.72-.57-6.13.68-12.26,1.28-18.39,1.91-2.39,6.17-7.52.36-11.19,2.59-3.91,2.37-8.64,3.48-13.08,4.91-3.14,1-9.68,6.36-11.35,9.71l-3.34-1c-.54.37-1.28.6-1.45,1-1.74,4.36-4,7.91-9.53,7.54a5.71,5.71,0,0,0-3.32,1.17c-6.12,4.39-6.18,4-11.15,5.11-4.54,1-9.09.83-13.29,5-3.71,3.71-6.78,6.56-6.58,11.93,0,.1-2.07,13.52-2,14.25l-9.54-3.64c3.49,8.13-3.93,11.85-5.68,18.55a96.26,96.26,0,0,0,9.86,1.72c3.57.27,5.64,1.63,5.7,5.37,3-1.23,4.8-.46,5.76,4.91l-5.5-4.71-11.19,13.81.09,0c2.45-.91,4.82-2.19,7.35-2.62,8.12-1.37,10.47.28,12.59,8.37a50.7,50.7,0,0,1,.76,5.16l-8.77-.44c2.6-1.86,3.69-2.65,5-3.59l-4.21-6.88H438.18l9.44,10.48-29.9,12.85c3.84,2.27,7.44.67,10.9-.19,3.09-.77,6.4.65,8.88-3.92,3-5.49,8.33-5,12.61-.52,3.67,4.1,3.82,5.29-.29,6.82-6.35,2.35-13,4-19.51,5.77-1.65.46-3.44.39-7.54.81,3.27,2.06,4.66,3.62,6.19,3.78,7.37.75,14.68.58,21.8-2.06,6.13-2.27,13.53,1.57,16.07,9l-6.79-2.24-7.54-2.48c.95,3.64,1.07,6.27-3.58,6-6.14-.33-12.17-1.58-18.57.34-2.6.78-8.82-2.42-9.45-4.84-1.22-4.68-4.71-5.06-7.52-7-3.25-2.21-7-4.31-2.28-9.05-3.11.28-5.7,1.19-7.78.51s-3.54-2.93-5.15-4.39c.9-4.81,4.31-4.94,7.62-4.78,7.38.34,13.2-2.56,18.32-7.73,2-2,4.93-3.16,7.31-4.87a14.43,14.43,0,0,0,4.44-4.9c-7.17,1.11-12.93,4.68-18,9.32a18.55,18.55,0,0,1-12,5.18,27.4,27.4,0,0,0-7.79,1.8c-8.63,3.2-11,1.6-10.9-7.58-9,1.16-9.55.83-12.3-6.93-4.58.36-8-.59-11.37-4.72-2.08-2.56-7.41-3.22-11.33-3.35s-8,1.45-13.5,2.58c2.16-3.45,4-6.34,5.79-9.23l-.8-.72-8,5.79-1.61-.93c.7-1.9,1.08-4,2.16-5.65a86.92,86.92,0,0,1,5.53-7.11l-12.4,9c-.56-1-1.13-1.94-2.15-3.67l-4,5.09-2.85-3.1-4.1,3.48c-.83-2-1.46-3.44-2.38-5.65-1.1,2.7-1.94,4.78-3,7.45-2.81-5.52-7.77,1.89-9.92-1.84-3.48,2.69-6.69,7-10.54,7.69-5.29.93-7.35,5.19-11.14,7.47s-7,6.07-10.44,9.2a15.12,15.12,0,0,0-4.15,5.36c1.92-.56,3.89-1,5.76-1.69,11.4-4.27,22.59-9.24,34.23-12.67,7-2,14.68-2.25,22.07-2.31,4.21,0,9,.64,11.31,5.62.45,1,1.87,2.41,2.54,2.26,5.4-1.21,8.41,4,12.41,4.69,6.54,1,10.91,5.26,16.29,7.89-1.72-2.88-3.47-5.73-5.15-8.64-.92-1.61-1.69-3.31-3-5.85,9.45-.53,14.71,5.09,20.5,9.31,11.74,8.55,19.66,20.25,26.72,32.71,4.95,8.75,10.57,17.12,15.61,25.83,1.72,3,2.31,6.6,3.85,9.72,3.64,7.39,8,14.47,11.21,22,4.1,9.64,7.52,19.59,10.86,29.53.79,2.31.12,5.12.12,7.58,1.56.77,4.68,1.43,4.86,2.55.63,3.94,3.35,7.64,1.31,12-4.32,9.23-1.35,18.37.83,27.46.27,1.12,1.38,2.13,1.42,3.21.37,11.75.6,23.5.87,35.26l0,0c-4.39,6-3.41,12.83-.81,18.68,2.37,5.36,2.92,9.9,1,15.28a17.61,17.61,0,0,0-.69,8.19c.6,3.94,2.09,7.45.22,11.76-.78,1.8,2.15,5.19,3.73,8.59l-2.52,2.29c2.7,4.86,5.46,9.7,1,15-.36.43-.8,1.22-.64,1.6,2.42,5.67.77,11.29.09,17a3.43,3.43,0,0,0,1.47,2.86c4,1.59,2,4.51,1.51,6.8s-3.71,4.61.59,6.49c.25.11.42,1.15.2,1.47-4.77,7.08-1.88,14.65-1.62,22.07,0,.5-1.54,1.07-2.4,1.61-4.18-5.76-1.49-12.48-2.23-18.69-1.05-8.8-.51-17.79-.5-26.7,0-6.14.68-12.3.3-18.41-.34-5.48-2-10.87-2.57-16.36-1-10.23-1.46-20.51-2.32-30.76-.56-6.65-1.49-13.28-2.1-19.93-.66-7.12-1.47-14.26-1.62-21.4-.31-14.58-1.12-29.18-5.44-43.1-3.93-12.65-6.57-25.84-13.48-37.47-2-3.41-3.64-7-5.45-10.58-.38,3.37-.76,6.75-1.15,10.12,2.07.87,2.75,2.2,2.27,4.73-.93,4.84-1.3,9.78-2,15.16-5-4.58-9.32,5.45-15.49.74.94-3.45,1.26-6.22-3.38-8.88s1.75-4.61,2.94-7c-4.36-4.41-8.08,2.79-12.13.51,1.62-3,3.25-6,4.93-9.07l3.56,1.21c.24-.84.63-1.53.46-1.71-1.94-2.19-3.45-4.85-7.23-2-1.46,1.12-4.52.18-8.64.18l6.29-6.85-8.19,1.05-4.49,8.67c-1.25-1.52-2-2.41-2.69-3.26l-3.68,3.75c-.3-4.21-.68-7.54-.71-10.88a34.52,34.52,0,0,1,.86-5.64l-.17.13,4.1-7.25-1.35-1.27-6.12,4.26c-.47-.21-1.34-.37-1.4-.68-.7-3.76-2.77-5.78-6.72-5.41-4.49.42-7.24-1.69-8.75-5.94l-6.15,5.46-1.18-.91c.88-1.8,1.76-3.6,2.66-5.46-3.52-1.79-5,.91-6.94,2.49-.56,3.37-1.12,6.75-1.8,11-1.86-1-3-1.67-4.17-2.33-.95-.55-1.88-1.14-3-1.82-.71,6.48,0,7.16,8.75,7.93-.47,1.58-.91,3-1.43,4.79,1.13,1.56,2.58,3.53,4,5.51l-.13-.22c5.54,3.59.13,7.48.87,10.46l-7.2-5.32c.36,3.43.73,6.87,1.23,11.55l7.57,2-9,15.64c4.84-1.15,8.7-2.25,11.83,2-2.59,2-5.19,4-7.76,6-3.27,2.54-5.51,2.22-6.92-1.47-1.52-4-1.14-9.11-6.82-10.31-.93-6.13-1.87-12.26-2.94-19.21-3.16-.78-8.27-1.28-9.34-8l6.17-2.38c-4.13-4-10.49-3.58-12.22-9.1l-7.9-1.23c-2,6.32-4.17,12.94-6.81,21.14-1-3.38-1.45-4.94-2.56-8.75-1.8,6.43-3,10.83-4.27,15.22l.1-.15c-1.12,7.83-1.13,7.73-9.33,8.45-2.22.19-4.36,1.25-6.49,1.9-3.7-5.79-3.56-9,1.71-10.9,3.94-1.4,2.84-3.73,3-6.12-1.54.86-3.09,1.71-4.63,2.55-.31-1-1.12-2.19-.84-3,.89-2.43,2.7-2.57,4.72-1.16-.7-3.09.77-4.82,3.42-6.21a55.1,55.1,0,0,0,6.09-4.27l-17.5-3.91.16.1c-3.54,0-5.94-1.4-6.86-5.16-.36-1.46-1.72-2.66-2.63-4l-7,3.48c1.32,3.2.69,6.16-1.08,9-.29-3-.58-6-.88-9l-4-2.81c-1.34,5.74-3.7,9-9.65,10.19-4.62,1-7.8,6.23-14,5.73-1.95-.16-4.35,5-6.51,7.76,1,.26,2,.53,3.33.9-1.95,3.08-3.5,5.54-4.89,7.76l-5.82-1c0-1.73-.49-3.7.18-5.13.42-.89,2.59-1,4-1.39-4.17-4.34-7.14-3.85-9.44,1-2.65,5.62-5.81,11-8.75,16.48l.11-.16v4l7-.42c-1.46,3.08-2.43,5.13-3.39,7.18l.11-.19,6.31.91c.27,2.11.56,4.21.83,6.32l0,0c-1.53,2.71-3.06,5.45-5,8.85-.38-2.25-.65-3.84-.87-5.12l-8.1-.57-4.08-12.36c-2.22,2.46-4.43,3.28-6.6-.06a3.85,3.85,0,0,1,.34.82c.52,2.73,1,5.47,1.53,8.21h-8.82c-.5,4.19-3.12,8.23,3,11.7,2.39,1.34,3.58,6.13,1.77,10.12-1.55,3.43-2.5,7.14-3.75,10.82,8,.51,8.73-.53,6-8.19,5-2.43,6.08,3.26,10,4-2,5.52-3.76,10.39-5.53,15.25-2.78,4.56-5.64,9.07-8.28,13.71-.59,1-.49,2.46-.67,3.74l-.15.06a57,57,0,0,0,.32,6c.44,2.85,1.15,5.65,1.84,9-6.62,2.34-12.62,3.48-18.48.34-2.13-1.14-2.87-3.73-.65-6,10.86,4,10.86,4,13.34-1.82l-7.67-.75,1.16-3.22-12.36-2.11.24.21c-1.62,1.33-3.23,2.66-4.81,4,2.63-.92,4.55-.54,5.21,3.21h-6.74c-.46,1.28-.54,3.15-1.44,3.73-8.43,5.39-8.48,5.33-7.07,14.83l-.13-.16c1.74,3-.66,4-2.43,5.63-4.37,4.12-7.75,8.78-4.11,16.09-4.64-.42-9.07-1.06-10,4.49-.78,4.59,2,6.38,7.69,7.31-3.1,2.84-5,4.81-7.14,6.49-3.39,2.66-3.63,6,.38,7,4.85,1.3,3.9,4.38,4.29,7.37-8.14,5.19-8.35,5.84-4.59,16l-9.07,4.4c-2.11,10.56-2.11,10.56,8.38,10.09-.12,2.06-.25,4.08-.44,7.07l-5.93-3.63-3.18,7.3h-8.29c.67,1.25.89,2.23,1.49,2.61s1.75.23,2.58.51c5.12,1.73,5.24,2.81,1,7.65,4.18,3.64,5.48,8.33,5.56,14.58l-8.1-12.5-3.11,9.11,7.19,3.28c-5.31,1.32-4.38,8.66-9.77,9.43-.33,0-.18,3.47-.24,5.46l7.47-.76-6.68,7.14,7.6,2-3.16,5.12-6.71-.44-1.26,5.32-8.33-.37c2.11,4.78,2.77,8.47.62,12.88-1.32,2.73.61,7,1.68,10.53-.68,4.09-7.75,7.1-2,12.8l.05,0q-2,4.1-4,8.21l-6.53,2.45c-.08.62-.15,1.24-.23,1.86h0l-2.14,3.7,13,9.06c-.53,3.77-3.64,2.44-6.59,2.37-.13,2.66-.25,5.17-.39,8.13-3-.51-5.46-.93-7.91-1.37a6.23,6.23,0,0,0-.68.68c-4.33,2.16-4.33,2.16-7,7.63l4.64,5.78c-6.43,3.06-9.48,8.15-6,14.76,4,7.5.35,10.7-4.54,14.45a21.35,21.35,0,0,0-2.64,2.92l712.67-1.27Q772.08,1684.71,769.31,1681.78Zm-686.75-61,5.21.56C84.61,1624.17,83.42,1623,82.56,1620.8Zm9.83-3.21-2.4-.85,2.65.06C92.55,1617.07,92.47,1617.33,92.39,1617.59Zm-6,69-6.53-.68c.06-.64.11-1.27.17-1.91l6.56,1.2C86.47,1685.68,86.41,1686.14,86.34,1686.61Zm.31-29.86-.6-4.45,1.38-.18.57,4.46ZM97,1609.88l-1,1.37-2.48-2.83Zm-1.3,13.67h4.6c0,.4,0,.8,0,1.2l-4.58.29C95.74,1624.55,95.73,1624.05,95.71,1623.55Zm5.22,8.66-2.35,5.26-1.93-1,2.82-5Zm-1.26,21.5c-.53.26-1.3,0-3.88,0L102,1651C100.58,1652.71,100.23,1653.43,99.67,1653.71Zm9.2-34c-.34-1-.67-1.89-1-2.83l1.38-.53,1.55,2.57Zm12.93-24.86c-.67-.14-1.72-.68-1.75-1.11,0-.7.61-1.44,1.3-2.82a16.19,16.19,0,0,1,1.73,3.06C123.13,1594.15,122.18,1594.9,121.8,1594.82Zm5.08-76.93-7.21-2.88.8-2,7.23,2.83C127.43,1516.54,127.15,1517.22,126.88,1517.89Zm1.68,51-.78-.06v-3.4l1-.1C128.74,1566.48,128.65,1567.66,128.56,1568.85Zm8.45-105c1.66-7.38,1.66-7.38,7.29-8Zm16.68-29.87-3.36-2.91.93-1.12,3.49,2.76C154.4,1433.08,154.05,1433.51,153.69,1433.93Zm4.63-7.32-.82-1.37,4.66-2.61.7,1.17Zm22.08-36.15c2.39-2,3.46-6.74,9.68-3.85Zm-.44,30.8-2.05-.77,3.69-9.42,1.69.4Zm6.53-14,2.36-7C193.15,1404.64,193.15,1404.64,186.49,1407.26Zm21.38-83.87c.91-.89,1.81-1.79,2.72-2.7l1.11,1.67Zm-19.5,22.81-1.27-1.93,7.89-4.11C195.45,1346.23,190.34,1344.09,188.37,1346.2ZM200,1363.85h-1.22c-.13-1.49-.26-3-.38-4.45l1.87.09Zm3.37,46.84-1.21-.52c.48-1.48,1-3,1.43-4.43l1.82.55Zm4.58,8.88c-.32,0-.66-.71-1-1.11.36-.41.73-.82,1.09-1.24l1.29,1.49C208.87,1419,208.42,1419.55,208,1419.57Zm2-83.93-1.5-5.25c1.17,1.46,2.34,2.9,3.52,4.35Zm43.71-53.56c2-.36,4.4-.9,4.37,2.17,0,.87-2.6,2.63-3.66,2.4C251,1285.94,252.45,1283.86,253.67,1282.08Zm-26.37,7.78c1.27.38,2.16,2,3.21,3.14-1,.89-1.9,2.41-2.93,2.49s-2-1.44-4.85-3.76C224.81,1290.81,226.29,1289.56,227.3,1289.86Zm2.55,13-3.39,2.51-1.44-1.77,3.31-2.77ZM229.73,1443c.32-2.24.61-4.19.93-6.4l-7.11-6.2c10,.72,11.87,9,14.84,16.66Zm9-144.77c.86-1,1.71-2,2.57-3,.65.75,1.3,1.51,1.94,2.27l-3.26,2.2Zm3.34,155c-.23-.23.51-1.39,1.19-3.06l4.67,4.86c-.54.62-1.08,1.23-1.61,1.85A48,48,0,0,1,242.11,1453.25Zm20.83,22.43-2.81-7.11-.28-.19-.12-.14c-5.77.17-8.82-3.8-12.34-8,4.3.79,8.41,3.56,12.34,8H260l.13.33C264.18,1471.41,264.15,1471.51,262.94,1475.68Zm48.95-192.91,2.71,4.76-1.67,1q-1.38-2.15-2.78-4.29Zm-4.75,45.84,4.43,2.08C308.46,1333,306.08,1333.67,307.14,1328.61ZM305,1344.87l6.34.56c-.07.49-.13,1-.2,1.48l-6.27-1.08C304.93,1345.51,305,1345.19,305,1344.87Zm-7.5-31.17,1.66.58q-.93,2.45-1.85,4.91l-1.21-.36Q296.81,1316.27,297.51,1313.7Zm1,25.8,1,1.1-2.49,2.8-1.43-1.81Zm-2,7.48,6.44,4.78.22-.11.17.13,11-1.56a58,58,0,0,1,1.81,6.37c.55,3.55-3.69,7.41-6.45,5.62v-5.67c-2.24-1.67-4.31-3.23-6.38-4.76l-.31,0-.08-.06-10.24,5.31Zm7.74,18.15c-.6.78-1.19,1.56-1.78,2.35l-.95-.58a26.35,26.35,0,0,1,1.37-2.44A9.07,9.07,0,0,1,304.31,1365.13Zm-6.25-3.72v8.17C295.67,1365.15,295.67,1365.15,298.06,1361.41Zm-8.06,4c-1,.44-2.84-1.1-4.29-1.73l3.82-4.46C292.43,1361.92,293,1364.11,290,1365.45Zm-3,19.09-2.06,2.82-1.08-.72,1.86-3Zm3-70c-2.14,7.1-2.14,7.1-11.32,4.92Zm-16,10.57c6.93,1.78,6.93,1.78,7,6.34l-8.07-4.56C273.24,1326.26,273.61,1325.67,274,1325.07Zm.82,11.12c1,.44,1.84,3.27,1.33,4.26-1.92,3.74-4.09,1.59-6.55-.54C270.9,1337.89,271,1334.44,274.79,1336.19Zm-5.9,143.08c-.26-.42-.73-.86-.71-1.27s.64-.61,1-.92c.28.42.78.85.76,1.26S269.26,1479,268.89,1479.27Zm-2.05-108.89c.27-.36.53-.73.8-1.1l8.1,1.77c-4.74-4.33,4.47-5.77,1.44-9.31-2.87-3.36,3.12-6,.38-9.11l6.84-1.25c-1.28,6.68-2.62,12.83-3.61,19-1,6-4.35,7.75-9.64,4.37C269.47,1373.7,268.27,1371.87,266.84,1370.38Zm13.06,121.19c-1.92-2.26-3.2-3.33-3.91-4.69-.86-1.67-1.24-3.59-2.44-7.28l13.7,12Zm9.1-67.66,5.26-2.33c.22.55.44,1.1.65,1.64l-5.38,2C289.35,1424.79,289.17,1424.35,289,1423.91Zm3.69,233.36-.36-1.58,3.92-.79c.11.45.21.9.32,1.35ZM294.83,1443c3.74-5.4,6-2.65,8.35-1.57Zm6.12-37.91c.84-3.44,1.45-5.89,2.06-8.33l-.13-.07-.06-.38-2.9-2.71,2.21-1.3.69,4,.24.23a1.74,1.74,0,0,0-.05.22C307.23,1399.3,307.05,1400.4,301,1405.13Zm13.81-1.18c-.75.29-1.92-.55-3.89-1.24a31.78,31.78,0,0,1,4-2.92c.23-.11,1.66,1.18,1.55,1.58C316.21,1402.35,315.57,1403.64,314.76,1404Zm-2-32.27c-.34,3.67-.69,7.34-1.12,12-6.28-4.47-8.3-.86-9.48,4.46l-1.83-.78q-1.59-7.17-3.18-14.36c3.1-1.27,5.47-1.81,7.33-3.09,3.56-2.46,6.05-.77,8.58,1.53-.15-2.55-.42-5.17,3.89-6.33C315.47,1368.06,319.67,1373.19,312.74,1371.68Zm12.94-11.89,1,1.22-3.39,3-1.21-1.43Zm2.61,168.82-2.71-1.52.79-.87,2.36,1.7C328.59,1528.15,328.44,1528.38,328.29,1528.61ZM319.54,1386c5.92-5.22,5.92-5.22,11.27-3.79Zm19.31,39.82a12.09,12.09,0,0,1-2.12-.89l.87-1.62a11.07,11.07,0,0,1,1.88,1.27A2.67,2.67,0,0,1,338.85,1425.86Zm15-160.4,8.28,1.35-8.28,4.4Zm7,115.24-2-1.17c.29-.77.47-1.26.65-1.75a7.89,7.89,0,0,1,1.82,1.43C361.55,1379.45,361.06,1380.19,360.87,1380.7Zm-3.12-5.7c-1.52-4.21-2.29-6.37-3-8.51l-.2,0,.12-.37c-.38-2-.78-4.1-1.53-8.08,1.94,2.34,2.92,3,2.84,3.51a31.57,31.57,0,0,1-1.31,4.57c0,.08,0,.16.05.24l0,.09,6.69-1.39C360.27,1368.19,359.37,1370.63,357.75,1375Zm-7.36-18.6c-.24-3.83-.42-6.88-.61-9.92h-.15l.14-.13v0c-1.9-2.92-4.32-5.64-5.52-8.82a11.55,11.55,0,0,1,.34-7.53c.42-1.14,3.2-1.41,6.43-2.66-4.47,7.21,2,10.1,3.07,15-1.43,1.34-2.88,2.68-4.32,4,0,0,0,.09,0,.13a15.64,15.64,0,0,1,2.35,0c.52,5.14,4.56,3.86,7.65,4.3,1.24.18,2.45.5,3.67.76,0,.55,0,1.09.05,1.64Zm13.83-80.28-.12-1.35,4.55-.46c0,.44.08.88.11,1.33Zm96.31,249.42c3.81,7.33,3.28,12.29-2.17,15.57C457.47,1535.48,458.67,1530.47,460.53,1525.54Zm-3.74,47.34c1.63-5.53.59-11,.22-16.57a29.21,29.21,0,0,1,.88-8.78c.33-1.32,2.05-2.29,3.14-3.42.86,1.37,2.48,2.76,2.45,4.1a144.07,144.07,0,0,1-1.32,15c-.55,4.13-1.46,8.2-2.22,12.3l-1.68,0C457.74,1574.62,456.59,1573.56,456.79,1572.88ZM457,1666a11.76,11.76,0,0,1-3.14-1.46,17.4,17.4,0,0,1,1.93-2.28,9.68,9.68,0,0,1,2.58,2.11C458.45,1664.47,457.4,1666.05,457,1666Zm-2.45-35.5c-.37-2.58-1.65-5.29,3.95-4.52Zm3.49-24.82c-3.09-10.85-3.06-11.3.93-18.24-3.61-1.28-4.09-3.31-1.53-6.09a2.09,2.09,0,0,0-.14-.17l.19,0c.33-3.53.43-3.5,6.18-1.69l-6.18,1.69c0,.06,0,.13,0,.19l0,0a19.17,19.17,0,0,1,2.88,3.66c.25.49-.86,1.67-1.34,2.53l5,7.78Zm95.5-247.51c.09.5.19,1,.29,1.51l-4.31.86-.3-1.46Zm-10.89-21.3c3.58,4.13,3.58,4.13-1.8,9.23C541.5,1342.77,542,1340.33,542.65,1336.87Zm-10.86-17.71,8.75,11.33C531.48,1332.62,529.12,1329.6,531.79,1319.16Zm4.82,26.52-3.73,1c-.14-.46-.29-.91-.43-1.37l3.5-1.26Zm-50.49-132.37c.4,6.64.4,6.64-4.91,6.06C482.64,1217.6,483.78,1216.21,486.12,1213.31Zm-13.53-17.22c6.89,4.75,7.06,5,7.28,10.86l-7.66-6C472.27,1200.13,472.42,1198.22,472.59,1196.09Zm-12.65-12.3,5.85-1.22c1.3,2.68,2.4,5,3.49,7.24l-.75.71Zm-17.65,35.07c-.23.28-2.33-.46-3.13-1.19-2-1.88-3.84-4-5.52-5.84,2.72-4.54,5.74-2.3,8.48-2,5,.51,9.91,1.17,14.88,1.44,6.36.34,12.73.36,19.51.53-.18,2.87-.29,4.54-.47,7.28-6-1.47-11.28.1-15.73-3.17C455.05,1221.08,447.45,1212.37,442.29,1218.86Zm4.72,1.87,39.33,4.34c-.62,2.78-1.12,5-1.63,7.21l.1.06,6.19-2c-1.66,3.42-3.84,3.48-6.19,2l-.12,0a.36.36,0,0,0,0-.1h0c-7.36-.5-14.92.4-21.79-3.58-1.24-.72-3.42-.27-5,.16C449.55,1231.09,447.4,1229.52,447,1220.73Zm12.42,173.18v-8C460.67,1388.44,462,1391,459.43,1393.91Zm39-112.31c-1.32-5.55-1.91-11-9.28-12.49-2.87-.59-5.11-4.22-8.28-7,.69-1.71,1.64-4,2.22-5.46-3.31-1.5-6.59-2.85-9.73-4.46-2.92-1.51-4-4.08-5.44-7.12-1.83-3.79-7.31-5.81-11.47-8.78.73-1.44,1.48-2.91,2.38-4.66,7.07,2,13.52,4.44,20.19,5.44,5.87.88,9.19,5.19,13.65,7.94.23.14-.62,2-1,3.12l-.14-.16c1.66,4,5.06,8.18,4.57,11.86-.69,5.22,1.61,7.76,4.62,10.62s4.54,5.93,1.68,9.44l6.6,3.9-7.09,2.45C500.52,1284.41,498.8,1283.16,498.43,1281.6ZM509.29,1323l-.92-1,2.89-2.5.89,1Zm10.77-19.69-.22-.35c-1.32-.86-2.62-1.78-4-2.52-7.72-4.11-8.18-4.93-6.06-13.81,3.78,6.13,6.94,11.24,10.06,16.33l.36.23c0,.1,0,.21,0,.31l9,10.47-1.58,1.19a13.83,13.83,0,0,1-7.46-11.66Zm5.62,46.82,2.2,3.54-1.67,1-2.2-3.54Zm3.13,16.23h9.06c.23.42.46.84.7,1.26l-12.56,6C527.23,1370.5,528,1368.48,528.81,1366.37ZM528,1474.16c-.56-1.25-1.11-2.5-2-4.39,1.41.56,2.31.76,2.31,1A28.48,28.48,0,0,1,528,1474.16Zm10.18-86.07.09-.06.37-.17c2.12-3.32-1.77-3.47-3.65-5.47,4.27-.33,8-2.65,12.69,1.37-3.55,1.62-6.3,2.88-9,4.1-.07.11-.14.23-.23.35l-.23-.12-8.57,5.48C531.51,1388.05,533.62,1385.66,538.22,1388.09Zm3.18,10.49c2.91,5.52,5.86,2,8.77,1.62l.16-.18.31-.12c2.11-3.26,4.59-5.5,8.75-3.29l.08,0,.18-.07c.49-3.34,2.06-4.92,7.44-3l-7.44,3,0,.22-.23-.12-8.75,3.29-.17.27-.3,0c-1.86,2-3.47,4.43-5.7,5.86-2.93,1.87-6.39,2.89-10,4.44C533.15,1404.86,539.29,1403.61,541.4,1398.58Zm3,21.46,3.06,11.16-8.58-7.62Zm.57,21c-.15-.56-.3-1.11-.44-1.67,1.29-.28,2.58-.58,3.88-.77a7.38,7.38,0,0,1,.36,1.38C547.53,1440.43,546.25,1440.75,545,1441.08Zm8.23,7.25-2.05-.16.39-5.24,2.24.26C553.6,1444.9,553.41,1446.61,553.21,1448.33Zm-3.35-28.78c3.61-4.7,8.35-3.38,12.6-3.45C558.85,1418.45,555.72,1422.82,549.86,1419.55Zm12.87,16.65c1.06-6.21,1.87-6.5,10.32-3.92Zm11.47-45.77q-1.07-2.07-2.12-4.16l1.59-.55c.52,1.45,1,2.91,1.54,4.36ZM587,1524.89c-.68-.1-1.72-.5-1.84-1s.52-1.32,1.05-2.46a15.79,15.79,0,0,1,1.94,2.51C588.23,1524.11,587.37,1524.94,587,1524.89Zm20.64-27.23a2.2,2.2,0,0,1-1.39.62c-.3,0-.62-.45-1.1-.83l2.22-1C607.49,1496.85,607.82,1497.48,607.66,1497.66ZM425,1281.78l.06.13c0-.1,0-.21,0-.31Zm-1.32,10.15.21.23s0-.09,0-.13Zm-36.35-11.8h0l.09-.17Zm-.18-111.38v.16l.12,0Zm-7.06,116.71.07.08.11-.12Zm-5.29-123.63a.88.88,0,0,1,.05.15H375Zm-5.56,21,.2.33.17-.15Zm-24.72,75.39.09-.07s0,0,0-.08Zm-2.4-120.14-.42.52.55-.4ZM312.27,1274.8l0,.06.15,0Zm-50.57-5.41h0l.21-.11Zm-7,3.42-.17.17.2-.1Zm-1.93,0v0l.16.11Zm-149,281.2.13.14V1554Zm-21.34,65,.15-.06s0-.07,0-.1Z"/><path d="M842,253.14l-6.12-5.83-11.45-15,8.38-1.51c1.9,8.8,6.41,14.95,13.63,17.95a19.06,19.06,0,0,1,8.68,7c2.8,3.87,5.57,7.91,11.19,7.77,1.08,4.6,1.08,4.6,5.45,7.85-.79-4.06-2.34-6.47-5.62-7.7-2.25-3.78-4.19-7.79-6.8-11.29C850.9,241,844.68,228,833.08,219.17c-1-.76-1.54-2.15-2.29-3.24a37,37,0,0,1,14.42,4.18c6.75,3.51,13.28,7.45,19.81,11.38a48.7,48.7,0,0,1,7.72,5.65c3.44,3.15,6.76,5.13,11.85,3.75,4.4-1.2,9.13-1.26,13.73-1.66.55,0,1.2.92,2.13,1.69l-3.6,1c.34,2.22.67,4.44,1.08,7.12-8.32,3.26-15.35-.33-22.68-2.29,2.32,2.58,4.64,5.15,6.69,7.44,10.14-2.54,18,1.08,23.94,8.26,2.47,3,4.26,4.47,8,3.59,1.33-.31,3.64-.18,4.2.64,3.35,4.92,9.52,4.9,13.85,8.41,6.62,5.34,15.42,6.54,23.6,9a304.36,304.36,0,0,0-31.87-19c-7-3.63-13.23-7.7-17.2-15.27,16.09,3,28.63,13.7,44.09,16.65.28.05.49.36.76.47q11.4,4.75,22.82,9.48l-.18-.12c3.47,3.61,6.4,3.92,8.55-1.24l-6.79-7.56,1.22-1.66c6.87,2.24,12.27,7.51,18.75,10.53,6.33,3,12.65,5.86,18,11.23,1.27-3.54,2-5.71,3.1-8.68l14.08,4.78a48.6,48.6,0,0,0-14.43-8.88c-13-5.21-25.36-11.34-36.36-20-1.2-.95-1.89-2.53-3.56-4.85h9.38c-8.18-3.83-14.53-6.82-20.87-9.8l-.12.14c5.91.14,11.84,0,17.71.52s11.53,1.73,17.3,2.64l.52-2a60,60,0,0,0-6-2.83c-3.63-1.28-7.34-2.36-11-3.44-2.41-.7-2.52-2.08-1.4-4l-.24,0c2.24.4,4.79,1.68,6.69,1,8.53-2.9,16.39-1,24.06,2.58,9.59,4.49,20.11,6.64,29.37,11.95a5.56,5.56,0,0,0,4.28.54c5-2,9.75-.6,13.75,1.54,6.73,3.59,14.11,4.18,21.16,6.21l6.6,3c-2.55-3.86-4.4-4.18-6.7-2.85-.56-1-.87-2.55-1.69-2.89-7.14-2.92-14.39-5.55-21.55-8.43-9-3.6-19.28-4.47-26-12.73a5,5,0,0,0-3.18-1.48c-5.3-.44-9.11-5-14.92-4.75-2.74.11-5.61-3-8.42-4.65a4.29,4.29,0,0,1,3.74-1.29c5.8.91,11.59,2.73,17.37,2.68,9.21-.08,17.56,1.55,25.48,6.49a142.65,142.65,0,0,0,17.5,8.72c4.23,1.89,8.71,2,15,.33l-9.57-4a48.46,48.46,0,0,1,19.08,2.57c13.62,5.14,27.05,10.83,40.36,16.75,8.09,3.6,17.14,6.43,19.93,18.22,2.64-5.23,5.6-4.89,8.6-2.89,7.38,4.95,14.8,9.86,22,15.07,9.62,6.95,19.73,13.44,28.35,21.5,6.65,6.21,13.06,12.65,20.09,18.5,6.59,5.49,13.07,11,17.06,19.14,2.49,5.06,9.15,7.64,9.45,14.47,0,.84,1.73,1.53,2.46,2.45,2.2,2.78,4.71,5.42,6.37,8.5,4.49,8.33,8.82,16.77,12.7,25.4a13.22,13.22,0,0,1,.32,8.48c-1.57,5.24-.91,9.79,1.42,14.62,1.76,3.65,2.6,7.75,3.74,11.68,5,17.4,8.13,35.48,17.57,51.32,3.58,6,1.68,12.15,1.86,18.65-7.32-4.62-14.27-9.23-20.19-14.91-10-9.59-14.68-13.52-21-14.49,2.17,2,3.59,3.43,5.15,4.69,3.44,2.81,2.65,5.57.06,8.38-.39-7.33-6.25-5.34-10.48-6.14l-2.82,4.33c.9,5.59,4.31,8.72,9.58,10.49a15.85,15.85,0,0,1,6.7,4.06c2.47,2.81,4.94,3.8,8.7,4.54,2.83.55,4.58,5.77,7.21,8.54,1.08,1.14,3.24,1.21,4.85,1.92,2.69,1.19,5.32,2.5,9.81,4.62,8-.95,8.77-.41,10.11,8.28l-4.64,1c1,3.29,2,5.89,2.62,8.58s.75,5.47,1.11,8.32l-3.79,2.2c3.29,6,7.23,11.34,2.89,17.64h-14.67c-5,11.73-6.48,23.17-2,34.93a14.6,14.6,0,0,1,.83,2.55c1.24,6.65.58,12.66-5.38,17.14-1.61,1.21-2.78,3-4.22,4.6a79.29,79.29,0,0,1,3.39,8.52c1.92,7,1.32,15.36-3.69,19.16-6.06,4.59-5.78,8.71-4.67,14.46.85,4.43,1.38,8.94-.37,13.61-2-5-4.09-10.07-6.56-16.18-2.87,4.12-5,7-4,11.38.94,4.12-.06,7.57-5.68,10.09l-5.88-7.22c-2.67,4.78-4.82,9.46-1.38,13.62-.82,7.25-6.27,8.76-10.84,10.82,0,3.64.43,6.93-.07,10.07-3.17,20.35-5.79,36.92-21,57.13a10.12,10.12,0,0,0-1.29,2.32c-5.8,14.83-11.57,29.66-17.6,45.13l-9.66-1.49c-2.84,6.81-2.84,6.81-16.18,10.6a49.32,49.32,0,0,1-3-4c-5.3-8.76-5-10.88,2.71-17,7-5.54,14-11.08,21.26-16.23a19.54,19.54,0,0,0,7.52-10.65c1.34-4.11,4-7.77,5.83-11.74,1.47-3.17,3.2-6.4,3.74-9.78.65-4,.23-8.13.12-12.2a65,65,0,0,0-.76-10.66c-.65-3.25-2.27-6.18-5.75-5.86-1.35,2.94-1.76,6.23-3.55,7.36-7.94,5-3.8,14-7.39,20.37,3,9.48-.68,18.18-3.49,26.85-3,9.11-11.6,13.16-20.75,10.31-1.93-.6-3.81-1.37-5.59-2L1157.3,799l-16-5.66c.87-7.59,2.37-10.87,8.38-18.62,2.83-3.36,6-6.5,8.42-10.14,2.93-4.43,2.85-9.23-.11-15.19l-7.74,9.28,2.31,3.88c-7.2,2.79-2,8.19-2.73,12.31l-4.4-3.26c-5.9.83-7.71,6.44-11.28,10.19h.21c-.22-2.79-.58-5.59-.63-8.39s.4-5.79.27-8.67c-.22-4.63-2.86-6-7.16-4.75a13.1,13.1,0,0,0-1.36-1l-1-9c.23.54.31,1.29.72,1.57a13.76,13.76,0,0,0,2.79,1.33,1.7,1.7,0,0,0,.42-.63,13.26,13.26,0,0,0-2.24-2.07c-.42-.26-1.15,0-1.74,0l-7.4.12a12.9,12.9,0,0,0,.94-2.81c.13-1.91,0-3.84,0-5.76l-.19-.25a54,54,0,0,0-2.57-5.69c-5-8.32-5-8.3,2.67-14.08-3.07-8.72-7.67-17.86,1.59-24.68-.6-8.41-1.12-15.85-1.64-23.09l-4.8-1.29,4.66-7.07-7.25-1c-1.26-3.6-2.51-6.62-3.37-9.75-1.9-6.93-7.07-12.13-8.88-19.52-1.59-6.53-3.06-15.17-12.09-18.2,1.15-2.61,3-5.11-.49-7.12-.94-.55-1.35-2.64-1.39-4-.2-7.26-3.8-12.64-8-18.35-3.49-4.71-8.72-9.68-5.69-17.39,1-2.5-1.17-6.17-1.73-9.33-.41-2.32-1.55-5.21-.63-6.91,2.33-4.29-.32-6.7-2.37-9.53-1-1.37-2-2.72-3.3-4.49,6.54-4.5,4.34-10.93,5.17-16.49-3.82-1.68-7.89-2.31-10.05-4.68-3.29-3.62-5.26-8.45-7.8-12.77,1.27.48,2.69,1.48,4,1.34,1.09-.11,2-1.55,3-2.41-.88-.64-1.8-1.24-2.62-1.94-2.51-2.16-5.29-2.74-8.65-2.92-4.3-.22-5.38-3.95-5.86-7.79-.51-4.09-1.32-8.15-2.08-12.2-.81-4.32-2.11-8.57-2.5-12.92-.5-5.43-1.05-10.25-6.07-14-2.78-2.1-3.69-6.51-6-9.39-3.5-4.3-6.92-9.14-11.48-12-5.55-3.48-12.24-5.13-18.1-7.44v-5.07c-9.4.39-9.4.39-13.12,5.21-7-2-15-3-21.45-6.68a34.12,34.12,0,0,0-19.37-4.67c-1.94.07-4.53-.18-5.76-1.38-4.71-4.55-12.69-2.49-16.66-8.58-.59-.91-3.68-1.06-5.09-.42-7,3.17-13.46.37-20-1.43-3.42-.94-6.62-2.65-9.95-3.93-1.91-.73-4-2.14-5.78-1.8-7.14,1.38-13.49-1.53-19.36-4.18a77.11,77.11,0,0,1-20.07-13.08c-5.79-5.29-10.51-12-14.71-18.69-2.23-3.55-5.29-5.87-8.31-5.13-7.34,1.78-10-3.53-13.6-7.44-6.36-6.85-6.64-9.58-2.29-18.77l6.08,5.53,21.44-2.61c.48-3.73.88-6.85,1.35-10.56a26,26,0,0,0-5,7.91c-5.55-4.71-8.91-10.72-12.21-16.87-3.09-5.75-11.21-6.69-13.06-13.86,2.45,8.71,2.43,8.81-3.4,12.11l1.9,3.72L776.89,312v6.89l-11-5.55c.49,4.92.86,8.71,1.35,13.7-3.78-3.32-6-5.81-8.7-7.49s-5.17-4.61-8.86-2.15c-.84-1.88-1.67-3.77-2.69-6.09-1.9,3.72-1.5,5.79,2.83,5.94l-2.1,5.68.13-.17-5,2.85-5.39-4.22c.13,4.84-4.08,8.11-1.52,12.42,3,5,.77,8.27-3.88,11.6-1.77-1.54-3.93-2.75-5.13-4.58q-7.82-11.94-15.06-24.22c-.92-1.56-1-3.89-.77-5.8.67-6.8,2.34-13.57,2.31-20.35-.08-17.47,6.64-32.38,16.11-46.4a13,13,0,0,1,8.8-6.06v9.6c4.73-3.81,11.27-6.5,12.78-10.91,2.22-6.46,6.9-8.68,11.61-10.76C771,222.24,780,220,788.5,216.58c6.38-2.57,11.49-1.36,16.19,3.2l4.89-1.09q2.56,2.77,5.17,5.55c-.17.55-.72,1.33-.54,1.6,5.76,8.31,12.1,16.08,20.95,21.38.21.12.57,0,.86,0C834.1,252.35,837.91,252.91,842,253.14Zm114,61.5,2-2.42-4.17-2c-.58-3.11-2.55-3.34-5.29-1.71l5.43,1.57Q955,312.39,956,314.64Zm-135.8-.39,6.45,1.74c.44-1,.87-2,1.48-3.47L846.84,325c-.2-6.22,0-10.62-6.12-12.39-1.93-.56-3.34-3.13-4.84-4.91-2.31-2.73-4.37-5.66-6.74-8.32-2.16-2.42-4.8-3.56-7.95-1.62a1.27,1.27,0,0,0-.35,1.34C817.27,303.85,817.27,303.85,820.21,314.25Zm31.84-15-4.8-.75c-.88,3.17-1.78,6.42-2.81,10.11,4.1-.63,7.59-1,11-1.75,4.09-.91,5.27-3.69,2.8-7-2.6-3.47-5.69-6.58-9.46-10.87C850,292.88,850.86,295.56,852.05,299.26Zm451.11,239c-2.09-3.5-5.27-3-8.07.15,2.22,5.81,4.57,11.35,13.24,12.72C1306.42,546.24,1305.35,541.93,1303.16,538.29Zm-64.41-173.06-1.38,1.34c2.84,5,4.54,11.08,13.31,11.59ZM862.15,313c2,3.3,4.68,4.42,7.87,1.9.66-.53.7-3,.05-3.81-3-3.59-5.48-.78-7.93.41C862.14,312.45,862,312.8,862.15,313Zm5.13-31.22c-3.21,6.64-2.64,7.45,7.81,9.85Zm374,195.16c1.91,5.53,6,7.72,10.45,9.24l1.19-1.86Zm4.87-11.11c1.83,5.07,1.83,5.07,9.13,5ZM853.53,313.14C851,319.38,851,319.38,856,323.4,855,319.45,854.46,317.06,853.53,313.14Zm207.2,202.07a7.41,7.41,0,0,0,4.35,4.29c-.33-2.26-.67-4.51-1.1-7.42C1062.76,513.21,1060.53,514.62,1060.73,515.21Zm-18.18-224.63c-1-4.9-3.12-4.88-6-3.39ZM839.6,304.15l1.69-1.44-3.14-4.37-2.55,2.29ZM1292.75,603l1.44-.46q-.75-2.5-1.52-5l-1.67.34ZM906.06,295l-1.07.82,2.19,3.3,1.43-1.36Zm87.62-43.85-.45,1.08,4.31,1.85.51-1.23ZM783.05,305.52l1.2.62,2.1-4-1.71-.78ZM890.78,310l-1.14.47a7.41,7.41,0,0,0,.72,2.32,8.05,8.05,0,0,0,2,1.48l.77-1Zm-6.73-4.55c.3-.6,1-1.48.82-1.72a5.63,5.63,0,0,0-1.9-1.18l-.69,1.61Zm212.67-57.3c.18-.34.35-.68.53-1l-3-1.64c-.18.46-.36.92-.55,1.38ZM1036.4,227.7l.18-1.07-3.53-.61-.18,1.08Z"/><path d="M936.42,1094.09l-4.06,6c.37,2.29.75,4.57,1,6.35,7.09-.57,13.69-1.1,20.29-1.6,4.21-.33,5-3.56,5.83-6.77l3-4.61c.89,1.46,2.91,3.47,2.52,4.23-2.42,4.69-3.27,10.73-9.72,12.41-2.12.55-4,1.89-6,2.87-3.73-.74-5.76,1.7-6,4.58-.13,1.55,2.43,3.31,3.89,5.13,4.3-3.38,5.47-6.32,1.82-9.92,4.72.25,7.42,2.84,7.83,7.61,5.2-1.2,9.4-2.2,13.13-5.71,2.57-2.42,7-2.9,10.54-4.24l-.23-.28-10.73,16.05-7.28,1.19c-4.24,7.85-4.24,7.85,1,13.08h-6c-2.75,3.73-2.93,6.92,2.25,10.36,1.3-3.75,2.46-7.13,3.63-10.51,2.33,1.43,5,4.44,6.93,4,6.93-1.57,8.19,2.62,9.3,7.54l.15-.25c-3.49,2.9-3.7-3.09-6.14-1.81l-18.92,9c-1.85,1.67-1.85,1.67,0,4.29v-4.25c5.19,5.49,11,5.78,17.74.81-1.38,4.44-2.36,7.57-3.44,11.06h7.89c-6.33,5.34-10.29,4.23-13.39-1.55l-5,3c-3.65-2.17-6.88-4.08-10.14-6-3.51,6.9-5.24,7.39-15.14,4.9l-6.82,5.88,2.81,6.42-.14-.16c-1.56,5.17,5.57.54,5.16,5.11-2.5.57-5.58,2.36-7.53,1.52-7.16-3-14.4-1.4-21.75-1V1181c-7.32-.8-13.89-1.76-20.5-2.13-3.35-.19-6.75.69-9.79,1-5.15-7.81-9.85-16.21-15.84-23.55-3.66-4.47-5.53-8.13-1.29-14.11-8.45,1.48-9.7-4.79-12.56-9.65a17.42,17.42,0,0,1-2,2.36,20.35,20.35,0,0,1-2.71,1.47c0-3.66.93-7-.28-9.23-1.09-2-4.51-2.7-6.92-4-1-.55-2.13-1.06-4.74-2.35l8-3.14c-1.14-10-12.54-12.73-15.3-21.72-.18-.61-3.12-.37-5-.55-.88-8.55-5.73-14.53-12.17-18.23-5-2.87-7.54-6.81-10-11.36l3-3.2-1.33-.9c-.59,1.31-1.19,2.63-1.78,4-3.72-4.28-.57-8.21,1.25-12-1.23-.9-1.88-1.75-2.65-1.88-5.82-1-10.62-3.19-14.12-8.39-1.28-1.91-4.36-3-6.83-3.66a116.78,116.78,0,0,0-13.17-2.52,104,104,0,0,1-35.17-12.5,7.76,7.76,0,0,1-3.38-5.3c-.09-1,2.72-2.78,4.49-3.3a21.66,21.66,0,0,1,7.07-.4c2.61.15,5.22,1.11,7.78,1,6.21-.33,12.26-.7,18.2,2.11a11.51,11.51,0,0,0,7.77.4c5.45-1.75,10.65-4.29,16.58-6.77,5.58,2.71,11.76,4,17.63-1.23a4.19,4.19,0,0,1,3.36-.86c4.09,1.13,6.65-1.43,9.72-3.25,1.77-1,5.11-2,6.17-1.14,2.76,2.3,4.86.83,7.43.33,4.85-.94,10.12-.59,14.63-2.32,6.56-2.5,15.73-1.64,17.36-12,.49-3.07,3.73-3.45,6.64-2.42l1.74-.83,7.35,2L898,970.75c5.18,3.38,9.83.44,14-2s7.49-6.25,11.52-9.75l-5.07-1.51c2.33-8.54,9.93-.9,13.56-4.9l-1.3-6.52c8.48-2.63,17.19-3.44,23.58-11.23-6.24-.32-12.13,3.17-16.47-1.76l5.51-10.1c7.38,1.41,7.61,1.24,7.51-6.09l4.16,1.69c1.36-1.74,2.73-3.48,4.08-5.18-2.63-1.52-5.24-3.07-9.3-5.48l20-4.58c-1.26-5.1-2.21-9-3.16-12.85l-.05-.07c3-2,5.05-4,5.33-8.38.4-6.07,2.51-12,3.89-18l-.14.17c6.87-.35,6.42-7.52,10.78-12.6v12.62c-3.76,5.18-3.76,5.18,2,10.19,1-3.06,1.78-5.69,2.61-8.32l4.37,1.78-.13-.16c.7,1.88,1.41,3.76,2.58,6.91l11-8.5-6.38-3.83.17.15c1.87-3.21,3.73-6.42,5.33-9.19l-6.36-7.14,2.78-7.05-.16.11c4.79-2.21,4.91-2.64,1.9-6.7l5.61,1.52-.14-.12,3.14,3.81.12-.14c-1.2,1.39-3.47,2.85-3.4,4.17a33.31,33.31,0,0,0,2.33,10.14c.93,2.35,3.62,4.18.82,6.88,2.6,5.17-.22,9.72-3,15.52,6.53-2.24,11.27-1.54,16.12,1,1.41.73,4.7,3.68,6.82-.12l-.17.1,2.19.25c1.18,5.57,2.2,10.42,3.21,15.2-1.74.85-4.49,1.4-5.75,3.07-1,1.27-.59,5.54.11,5.78,6.44,2.21,5.31,5.84,2.76,10.34-1,1.72-1.06,4-1.55,6l-2.14-1.43c-.62,6.52,1.12,7.78,9.75,7.21l0,.09,2.27,7.44-7.62,1.57c-.42,3.33-.91,7.25-1.4,11.18l.08-.15c-3.47,4,3.32,4.39,2.49,7.58-5.31,4.78-5.42,11.39-5.55,18l-6.07-2.89c-1.82,3.94-3.44,7.49-5.07,11l.18-.12c-5.55-.36-5.67,3.48-6.1,8.21l4.3-1-.19-.08,8.81,4.05c.91-3.28,1.53-5.47,2.14-7.65l-.21,0c1.51,1.23,3,2.47,4.53,3.71l-2.28,5.76,9.7-2.23c-.48,3.78-.8,6.36-1.13,8.94-1.86-4.42-4.72-3.08-8.27-1.21.67,1.65,1.29,3.16,1.9,4.69l-4.73.27L1039,1010a21.67,21.67,0,0,0-14.5,0c0-3.15.11-6.3,0-9.44,0-.43-.71-.84-1.09-1.25-2.75,5.56-2.75,5.56,1.28,10.49-2.1,2-4.23,2.33-6-.32-1.4-2.17-2.46-4.57-3.68-6.87l-11.29,8.58,10.45-.51,6.21,10.24,4.34-1.86,6.89,5.2c.4-3.83-2-7.88,3.76-9.92,1.66,3.72,3.32,7.43,5.31,11.9l7.12-6-.16.16.1-.15c2.29,3.33-.15,5.47-2.11,7.53-1.35,1.41-3.79,2.06-4.59,3.64-3.55,7-9.63,8.85-16.7,9.15l-2.41,3.21c-3.43,2.32-6.86,3.82-10.79-.34l4.56-3c-2.61-2.88-5.24-4-8.68-2.49l2.42-8.24c-6.89.58-10.73,5.51-15.55,8.44l.15-.09c-1.69.94-3.87,1.49-4.94,2.88-1.95,2.54-2.64,6.26-4.92,8.29-5.24,4.66-3.63,9.14-1.16,12.92l-12,9.54,2.18,2.26c-4.71-.25-8.06-7.08-13.68-2.87l.13-.06c-4.17-2.53-8.34-1.29-12.51,0l5.42-5.72c-5,1.75-5,1.75-5.13,5.59,4.94,7.41,4.93,7.39-3.37,10.16-5,1.66-7.45,5.18-7.48,10.42Zm40.64-208.35c-2.25,1.54-4,3.74-6,5.68l1.31,1.72,8.74-6c4.21,5.49,4.5,5.59,11.36,3.36a11.57,11.57,0,0,0-1.75-1.8,12.57,12.57,0,0,0-2.43-1c1.81-3.23,4.46-2.58,7.07-2.1l3.06,7.6,11.16-3.5a21.55,21.55,0,0,1-1.37-4.22c-.29-3.06-1.46-5-4.81-5.31-3.09-.3-5.14.74-6.31,3.68-.31.75-1.23,1.26-1.87,1.89l-1.54-7.64-11.21,2.75q-.72,3.21-1.46,6.41C979.65,886.75,977.7,885.3,977.06,885.74Zm37.65,16.15c9.79-4.76,12.11-9.67,6.89-15.53-3.6,3.54-6.25,8.89-13.55,7.57Zm-47.82,5.49c.6,6.33,4,3.45,6,4.15l.81-2.49Zm36.89,113c.77-.62,1-1.9,1.45-2.91-.75-.31-1.6-1-2.21-.83-.82.22-1.46,1.12-3.14,2.52C1002,1019.89,1003.37,1020.72,1003.78,1020.39ZM867.29,1158.82a6.23,6.23,0,0,0,.72-1.93c0-.28-.93-1-1.18-.84a8.6,8.6,0,0,0-1.9,1.63Zm111.17-258c.22,0,.59-.81.89-1.25a14.45,14.45,0,0,0-2-1.19,10.32,10.32,0,0,0-1,1.53A9.42,9.42,0,0,0,978.46,900.82Zm54.46,27.54c.19,0,.54-.73.81-1.12a10.71,10.71,0,0,0-1.87-1.09c-.12,0-.55.73-1,1.35A9.64,9.64,0,0,0,1032.92,928.36Zm-48.21,107.5a17.59,17.59,0,0,0,2.91-.27c.18,0,.14-1,.35-2.72Zm34.14.31c.13-.47.53-1.14.35-1.39a6.5,6.5,0,0,0-1.61-1.22c-.13.49-.26,1-.49,1.79Z"/><path d="M929.74,825.51c-.91,5.34-1.82,10.7-3.09,18.12l-7.3-9.77c-6.39,5-12.29,9.71-18.27,14.29-1.39,1.07-3.1,2.54-4.61,2.48-6.67-.26-10.92,4.24-15.87,7.39-2.26,1.44-4.59,2.79-6.73,4.39-2.64,2-5.11,4.2-8.77,7.24-1.31.15-4.94-.47-7.05,1-7.19,5.15-15.84,6.45-23.7,9.7-10.7,4.42-22,7.46-33,11-4.12,1.33-9,1.09-11.17,6.13-.41.92-2.53,1.43-3.9,1.52-6.21.38-12.57-.18-18.61,1-7.17,1.36-12.62-3-18.87-4.36a129.44,129.44,0,0,1-25.25-8.74c-5.57-2.56-10-7-13.39-12.66a231.06,231.06,0,0,1-22-50.56c-1.52-5-4.56-9-8.89-10.61-5.39-2-8.25-5.35-10.1-10.26-.43-1.16-.83-2.33-1.25-3.52-9.89,6.62-3.63,15.76-7.45,23.1-10-10.77-16.66-23.11-22.87-34.49,1.64-6.61,3.18-12.76,4.84-19.4,1.77-1,4.73-1.8,6.24-3.73,5.41-6.89,12.07-12,19.46-16.59a22.08,22.08,0,0,0,8.6-9.82c2-5,5.79-7.51,9.56-10.22,3.57-2.58,5.92-1.22,7.24,2.94,3.73,11.82.16,22.17-6.08,32.07-6.43,10.22-12.82,20.47-19.07,30.45,2.3,3.26,4,6,6.09,8.57,3.5,4.38,8.23,5.3,13.63,4.77,13-1.3,26-2.61,39.09-3.41a34.47,34.47,0,0,1,13.25,1.69c12.61,4.49,25.43,5.25,38.65,4.43,6.46-.4,13.07.55,19.53,1.48,18.26,2.62,36,7.92,54.59,9.34a203.9,203.9,0,0,0,27.53-.17c8.65-.48,13.31-5.37,17.45-11.75-2.91-2.19-6.25-3.59-7.78-6.09-3-4.86-3.37-11.61-10.94-12.52-.54-.06-.69-2.14-1.31-3.09a14.87,14.87,0,0,0-3.3-4.08c-4.45-3.25-9.08-6.25-13.65-9.34-.41-1.17-.83-2.34-1.24-3.5l-.74.42,2.24,2.88a12.56,12.56,0,0,1-2.86,2.11c-12.34,4.46-24.73,8.81-37.08,13.23-2.2.78-4.3,1.8-6.49,2.61-1.66.62-4,2-5,1.43-5.56-3.53-11.51,3.22-16.84-.92-5.73,3.12-10.14-.3-14.91-2.74-2.58-1.33-5.6-1.82-8.45-2.58-1.69-.45-4.15-.1-5-1.15-4.18-4.83-10.5-6.63-14.91-10.51-5.72-5-12-8.73-18.37-12.46-7.36-4.3-15-8.19-22.34-12.46-1.36-.79-2.17-2.54-3.84-4.59,2.93-1.91,5.53-5,7.69-4.73,4.38.57,8.52,3,12.12,4.35,3.73-1.48,6.9-2.9,10.17-4,6.72-2.27,14.93-2.73,19.83-7s9.7-4.5,15.1-5.57c2.44,4.44,4.41,9,10.51,8.53,1.27-.1,2.69,1.13,4,1.89a94.07,94.07,0,0,0,36.84,12.84c9.07,1.21,14.32-2.35,15.9-11.28.54-3.06,1.12-6.1,1.76-9.56,8.1,2,6.91,9.35,10.19,13.5,3.88,4.9,2.73,10.44-.68,16.82,7.85-3.2,7.37,2.22,8.12,7.32l6.84-7.42c3.22,2.15,7,3.74,9.45,6.5,4.9,5.52,9.13,11.52,17.32,12.47,1.1.13,2,1.93,3,3a57.27,57.27,0,0,0,4.59,4.87,89.69,89.69,0,0,0,22.17,13.71c4.61,2,6.68,5.29,6.33,10.57-.18,2.66,1.41,5.43,2.14,8.17.44,1.64.75,3.31,1.11,5ZM746.57,876.43l10.4-3.91c-3.76-5.28-7.34-4.19-11.08-1-4.65-6.49-11.7-4.73-19.41-6.91,1.12,3.15,1.56,5.49,2,5.49,5.87.06,11.44,4.54,17.51,1.26C746.17,872.85,746.33,874.3,746.57,876.43Zm-32.15-30.27c4.45,5.52,6.49,6.18,13,3.59a58.69,58.69,0,0,0,6.73-3.74c3.21,4.93-2.36,5.19-4.07,8.36a132.25,132.25,0,0,0,25.19,3.92c5.89.3,11.74,1.23,17.61,1.81,7.36.73,15,2.72,20.7-3.93,9.23,1.18,18.81,6.92,26.27-3.75,2.65,1.46,5.4,2.87,8,4.45,4.05,2.4,7.46.74,8.94-2.73s2.2-7.68,1.39-11.14c-1.3-5.53-8.32-6.46-12.08-2a46.1,46.1,0,0,0-3.45,5.64c-4.45-4.49-4.18-11.78-11.3-13.5-7.4-1.79-11.21,1.7-14.36,9.55-3.07-8.36-6.54-13.87-14.64-13.78-6.46.07-13.21-2-18.81,3.63-7-7.38-15.23-10.28-24.91-9.59-1.56.11-3.21-1.18-4.85-1.73-1.94-.65-4.29-2.18-5.81-1.6-4.22,1.61-7.88.6-11.83-1.54C709.37,828.29,708.92,839.32,714.42,846.16Zm8.77,23.8c-1.58-5.13-1.58-5.13-8.22-3.92Zm41.15-2.32-1.13.09v5.51l1.94-.18Z"/><path d="M632.77,312.85l.7,1,6-4.19-4.6-1.28L631,302.58c7.11-.88,11.95-7.06,19.19-3.77.33.15,1.68-1.93,2.55-3l-.18.13c6.3,3.54,10.66-2.72,17.89-4.25-9.75,14-19.09,26.33-22.38,41.22,7.3,1.93,13.82,2.21,17.21-5.47l7.32,4.37-.14-.18c-.59,4.93-1.19,9.87-2,16.57,5.78-4.38,4.56-9.65,6.28-13.65s3.81-8,5.74-11.92l.73-.73c2.69-1.79,5-5,9-2.11l3.67-7.9-.11.14c1-1.67,2-3.34,3.66-6,3.83,8.17,4.86,16.89,11.4,22.7.79.71.38,2.77.54,4.2l-.27.4c-.55.7-1.39,1.32-1.59,2.1-.9,3.53-1.57,7.21-6.3,7.3-3.83.08-7.85-3.67-9.36-8.29l-6.34,2.28c3.88,3.34,7.79,6.41,11.29,9.9,1.08,1.09,1,3.31,1.47,5,2.14-1.11,4.55-3.44,6.45-3.08,2.54.48,4.67,3.05,7,4.73l.09-.17a8.1,8.1,0,0,0-2,8.12c.64,2.52.26,6.33-1.31,8.18a68.3,68.3,0,0,1-13.63,12.69,41.11,41.11,0,0,0-9.15,7.76c-1.86,2.23-4.4,3.89-6.58,5.88-1.51,1.39-3.33,2.68-4.29,4.41-7,12.52-13.83,25.15-20.7,37.72l-3.28-1.54c-.54,3.49-.61,6.48-1.5,9.19-6.06,18.48-7.46,38.15-15.19,56.33-2.43,5.72-3.67,12.27-6.78,18l-6.1,3.8c3.3.35,8.09,2.5,6-3.91,2.37,1.17,4.72,3.18,2.06,5.32-3.42,2.76-2.79,5.9-2.88,9.35s-.79,7-1.29,11L623.56,543l-6.42,5.68c-1.93-5.17-3.41-9.15-4.66-12.51l-4.28-.36c1.63-3.93,3-7.16,4.37-10.52-1.33-1.6-3.55-3.06-3.62-4.61a30.71,30.71,0,0,1,1.33-10.88c1.05-3.13.91-5-1-8-2.79-4.41-4.47-9.14-1.52-15.24,4.14-8.56,2.28-18.42,2.69-28a37.16,37.16,0,0,0-6.43,8.2c-2.92,4.74-6.24,8.61-13.12,6.55,1.88-4.31,3.74-8.54,5.73-13.1l-7.4-4.13c.67-1.57,1.23-2.94,1.83-4.28,3.43-7.73,9.69-14.52,7.62-24.11-.27-1.22,1.36-3.41,2.69-4.34,5.87-4.09,6.2-10.47,7.47-16.57,1.56-7.51,3.51-14.94,5-22.47,1.22-6.22,4.78-12.63-.61-18.67l.16.15,5.37-10.65-.14-.15c-.36,3.69-.72,7.37-1,10.82,7.56-9.88,7.71-10.4,5.8-21.84-1.09.76-2,1.41-3,2.05l.14.06c-1.51-5.13-.66-9.95,1.57-14.74.71-1.51,1.19-3.72.59-5.09-.68-1.55-2.7-2.51-4.43-4l16.75-14C634.28,309.78,633.52,311.31,632.77,312.85Zm9.12,129.23c.92,4.39,1.59,7.66,2.27,10.92l1,.24,1.57-8a10.29,10.29,0,0,0,2.24-2c.29-.48-.13-1.41-1.12-2.22l-.87,4.4Zm-11.41,3.28c1.39-11.55,2.63-21.81,3.87-32.06l-2.33-.45C625.69,422.82,624.79,433.19,630.48,445.36Zm14.21-85c-8.2,6.13-4,13.66-1.72,20.8C643.55,374.13,644.13,367.16,644.69,360.34Zm-2.94,50c-3.15,4.42-4.19,8.59-2.92,13.72H644ZM638,361.75l7.78-5.75-3.2-9.91C640.91,351.75,639.63,356.14,638,361.75ZM640.63,438c5.85-4.29,5.86-4.68-.67-10.36C640.25,432.08,640.43,434.78,640.63,438Zm25-91.2a16.74,16.74,0,0,0,2-11.72C666.74,338.93,663.44,342.47,665.64,346.77Zm-23.13,53.1a4.33,4.33,0,0,0-.45,1.45c.34,3.88,2.55,4.3,5.05,4.13l.86-2.37Zm8.07-51.81c-.08,1-.37,1.68-.13,2,1,1.33,2.17,2.53,3.78,4.36C654.25,351,654.18,348.59,650.58,348.06Zm-15.33,60.19c3-3.63,1.82-5.74-1.35-7.64ZM615,409.75l1.21.15c.1-1.15.19-2.3.28-3.46l-.89-.11Zm15-51.94c.29-.6.57-1.2.85-1.79l-1.51-.7-.59,1.4Z"/><path d="M963,568.06c-4.49-5.15-9.55-3.33-14.46-4a110.06,110.06,0,0,0-12.33-.58c-7.37-.12-14.8-.71-22.09.06-3.58.38-9.22.3-9.74,5.91-.57,6,5,5.8,8.69,7,9.82,3.22,19.73,6.13,29.55,9.35,4.77,1.57,9.34,3.76,14.11,5.3,12.39,4,25,7.5,37.19,11.88,2.88,1,7.44,2.22,6.83,7.75-.18,1.66,2.25,4.26,4.11,5.36,4.79,2.82,9.91,5.09,14.93,7.51,4.62,2.23,6.55,10.77,3.38,14.61-1.92,2.33-3.59,4.87-5.79,7.9-4.37,1.46-9.49,2.41-14.66-.48-4.43-2.48-8.93-4.35-14.25-2.29a6.74,6.74,0,0,1-5.15-.81c-6-3.67-13.21-5.46-18-11.23-1.06-1.29-2.91-2.66-4.43-2.69-4.64-.09-6.14-3.26-7.32-6.68-4.6-13.43-15.3-19.42-28.76-24.2L918,618.08l-5.91-6.3c-5.16,4.62-5.32,4.17-15.81,7.74-4.13,1.41-6.54,1.21-9-2.07-.84-1.13-1.78-2.18-2.68-3.28-5.58,4.82-13.92,5.71-23.57,1.89l11.58-12.95c-6.27-.85-10.71,2.27-15.63,3.7-5.11,1.49-10.81,1-15.38,1.3-1.79,2.06-3.1,5-4.93,5.42-6.19,1.23-5.18-6.21-8.35-8.26l-11,2.48c-.87-4.51-2.19-8.15-2.09-11.77s1.59-7.33,2.53-11.27L812.59,581c2.68-3.67,4.52-7.6,7.57-10,3.3-2.58,4.51-5.15,3.39-8.44,3.8-2.39,7.15-4.3,10.27-6.52s5.69-5,8.88-6.94c2.83-1.71,6.25-2.43,9.28-3.86,2.42-1.13,4.52-3,7-3.93,3.81-1.36,7.58-1.5,9.12,3.92,8.65-6,18.51-5.78,27.81-6.13,5.79-.22,12.28-.28,18,3.81,3.32,2.37,8.6,3.36,12.75,2.88a30.88,30.88,0,0,1,18.46,3.38c10.17,5.61,22.38,4.77,32.09,11.31,1.3.88,3.5.37,5.27.6,2,.27,4.25.28,6.11,1.06,14.14,5.91,25,15.76,33.06,28.64,1.19,1.9,1.7,4.23,2.31,5.78-2.9.5-5.23.89-7.55,1.31s-4.71,1.66-6.7,1.12c-6.25-1.66-12.66-3-17.26-8.51-3-3.55-6.87-6.38-10.35-9.53.5-1.56.95-2.94,1.58-4.92C977.41,576.25,967.77,573.59,963,568.06Zm-57.88,33.25c3.4,2.16,5.39.5,7.92-2.63C908.65,596.2,906.48,597.18,905.07,601.31Z"/><path d="M1134.17,781.8h.21c-1.68,2.32-3.86,4.43-5,7-3.11,7.34-5.77,14.87-8.72,22.61l-4.37.38c-2.68,6.16-4.19,12.8-8,17.54-3.62,4.44-3.76,9.83-6.61,14.22a3,3,0,0,0-.19,2.51c5.18,10,.12,18.77-4.12,27a45,45,0,0,0-5.31,22.06h3.69c2.09-3.91,4.07-7.9,6.34-11.7.64-1.07,2.14-1.61,3.24-2.4.8,1.39,2.14,2.74,2.26,4.19.17,2-.6,4.09-.94,6.15-1.21,7.35-2.6,14.67-3.56,22.05-.85,6.59-.26,7.53,5.83,10.38,4.51,2.12,9,5.18,14.82,1.48v-6l4.32-1.57-9.65-9.22c4.08-9.39,12.58-7.31,21.41-7.48l-3.82-4.46c2.29-2.34,4.56-4.6,6.78-6.92,1.64-1.72,1.47-1.74.8-8.5-.17-1.78.79-3.66,1.42-6.3l6,3.34c1.89-1.67,3.59-3.62,5.69-4.92,4.51-2.79,9.37-5,13.82-7.9,3.42-2.22,3.24-2.5-.55-8.31-14,10.84-25.86,2.56-38.45-5.31-.74-4-1.3-9-2.66-13.71-1-3.62-3.15-6.94-4.68-10.43-2-4.55-2.89-9.08.5-13.48,2.45-3.19,5-3.84,7.69.3,2.75-5.05,5.11-9.37,7.69-14.09-3.8-4.52-7.31-9.62-4.51-16.51C1135.74,783.45,1134.66,782.51,1134.17,781.8Z"/><path d="M712.7,568.17l4.93,7.09-.6,2.24c-8.76-6.36-17.64-11.55-27.6-5.21-.07,1-.21,1.3-.09,1.52,1,1.91,3.21,4,2.89,5.63a12.7,12.7,0,0,1-4.3,6.52c-3.66,3.08-7.74,1.77-11.21-2.93-1.13-1.52-2.44-2.9-4.16-4.93-4.39,8.3-8.79,15.41-18.17,17.77-.32-1.69-.63-3.3-.94-4.93l-5.33,2.82c-1-3.78-1.71-6.94-2.66-10-1.08-3.53-1.9-6.88,1.3-9.9a4.09,4.09,0,0,0,1-3.15c-.86-5.09,2.36-7.89,6-9.95a72,72,0,0,1,13-5.73c11.62-3.85,23.57-2.33,35.36-1.17,5.56.55,11,2.24,15.51,6.21,7.6,6.69,15.49,13.06,23.16,19.67a31.14,31.14,0,0,1,3.65,4.54C733.08,581,725.61,571.08,712.7,568.17Zm-29.14,2.09a8.83,8.83,0,0,0-2,2.16c.77.28,1.58.84,2.31.76s1.49-.79,2.89-1.6C684.91,570.77,684,570,683.56,570.26Z"/><path d="M672.44,331.67l.15.18-.06-14.39,7.67-10.14c-5.26,1.72-7.7,5.2-7.53,10.27-3.24-1.84-3.89-4.22-1.62-7.32q4.23-5.75,8.31-11.59a12.05,12.05,0,0,0,.9-2.84l-6.89-.42c2.68-5.39,4.52-10.36,7.44-14.58s7-7.79,10.67-11.81l2.55,2.72c2.12-3.2,3.76-7.13,6.65-9.62s3.25-9,9.92-6c.3,2.27,1.36,5,.88,7.47-1.91,9.83-3.45,19.87-6.85,29.2-1.88,5.16-7.16,9.08-11,13.62l2.13,5.61.11-.14-13.9,1.6,1.19,8.41-.73.73C676.76,323,675.43,328.28,672.44,331.67Zm24.18-38.34c5.94-2.24,4.36-7.36,4.51-11.81a15,15,0,0,0,2.72-2.17c.5-.62.48-1.65,1.09-4.12-1.7,1.67-2.61,2.2-3,3a16.12,16.12,0,0,0-.71,3.45C694,287,694,287,696.62,293.33Z"/><path d="M1004.2,839.13l.16-.11c-1.6-.11-3.74-.93-4.7-.2-4.16,3.15-5.83,3.3-8.2-.37a25.05,25.05,0,0,1-1.69-4.07l-10.83,6.23c.65-5.72-1-9.49-5.21-13.52.51,3.3.82,5.33,1.13,7.37-2.8-2.84-5.42-6.46-4.72-9.23.77-3,4.64-5.2,7-7.57.23-3.41-5.36-5.32-2.15-9.66a12.32,12.32,0,0,1,2.47,1.67c5,6,5.08,6.15,10.12.28,2-2.35,4-3.25,7-2.42,2.73.77,5.55,1.23,8.81,1.93-.78,6.37-1.33,12.22-2.25,18-.72,4.52,2,4.92,5.27,5.06C1005.63,834.73,1004.92,836.93,1004.2,839.13Zm-18.79-17.45c-.66-.81-1.31-2.25-2-2.27-1,0-2,1-3,1.54.51.77,1,1.55,1.75,2.69Z"/><path d="M616.64,551.06c1.75,1.89,3,3.22,3,3.25-5.68,5.69-.09,12.26-1.45,18.34s-1.39,12.13-2.29,18.17A74,74,0,0,1,613.18,603c-1.13,3.4-.52,5.66,3.46,8.21,1.71-2.44,4.22-4.52,4.76-7,3.3-15.16,7.2-30.33,4.16-46.07C624.79,554.14,622.4,552,616.64,551.06Z"/><path d="M351.45,1203l-7.37,1.33c-.7,3.24-1.44,6.73-2.31,10.79L336.3,1213c-11.49,9.54-13.45,14.09-12.35,28.83l3.66-3.06,1.67,5.31c.76-.46,2-.81,2-1.3a26.81,26.81,0,0,0,.09-5.94,59.55,59.55,0,0,0-1.4-6.31l8.44,7.28c1-6.78,1.84-12.82,2.56-17.8l10.19,1.45.63-1.53-3.19-3.51c4.31-3.85,2.58-8.92,2.66-13.65Z"/><path d="M1142.21,815.56c-.8-.27-2.06-1-2.35-.75-7.66,7.3-8.25,17-1.61,24.64,4.79,5.53,15.27,4.78,19-1.74,1.82-3.23,2.44-7.12,3.65-10.86-2.34-.29-4.34.07-5.18-.75-7.35-7.22-13-6.09-17.91,4.55-2.19-4.24-1.77-7.34,2-9.23,3-1.46,2.52-3.64,2.3-6Z"/><path d="M712.22,538.18c-5.41-6.41-12.05-10.22-19-14,.19,1,.37,2,.67,3.61l-21.22-1.56c3.22,3.31,11.57,7.7,18.34,9.27C697.55,537.07,703.72,541.62,712.22,538.18Z"/><path d="M1035.37,982.63c3.45.76,6.91,1.5,10.35,2.28,3,.68,5.92,1.32,7.11-3.25a28.74,28.74,0,0,0-3-1.7,18.46,18.46,0,0,0-3.07-.69c.22-1.19.42-2.26.63-3.34,1.19-6.28-.35-8-6.62-7.57a45,45,0,0,1-6-.45c-1.52,2.34-3.06,4.67-4.46,6.78a18,18,0,0,1-2.07.39c-2,.12-4.08.2-6.11.29l.18-.12-1.8,7.26-.19-.08,10.95-3.6-.21,0c1.12-.27,2.33-.93,3.34-.7,1.21.28,2.25,1.31,3.37,2Z"/><path d="M959.53,1098l3-4.61c0-.53.2-1.44-.05-1.58-4-2.41-8.15-4.71-13-7.48l-4.25,7.48c-2.82.47-5.57-4.3-8.65-.42-.07.92-.13,1.8-.19,2.67l3,5Z"/><path d="M711.4,333l-.27.4c-.72,5.78-1.09,11.4,3.92,15.87.43.38-.84,2.67-1.32,4.08l.09-.17,4.73,5c4.15-9.52,3-17.31-2.17-24.67C714.92,331.4,713.29,330.92,711.4,333Z"/><path d="M1142.11,815.4c6.25,5.58,12.84,4.48,19.91,1.22.45-3.67.87-7.16,1.5-12.32-4.31,2.7-7.5,5-10.93,6.78s-6.9,3-10.37,4.48Z"/><path d="M804.69,219.78l4.89-1.09c3.56,1.14,8.6.46,8.07,6.59l9.61,2.86c-.38-3.66-.68-6.52-1-9.35-1.43.07-2.95.4-4.25,0-.41-.12-.23-2.19-.33-3.36l-15.86-6.66C805.5,212.18,805.1,216,804.69,219.78Z"/><path d="M949.09,821.22c-2.53-3.58-3.91-6.6-6.23-8.49s-5.63-3.77-8.5-3.77c-3.48,0-5.08,3.36-5.6,6.17,4.23,2.4,7.7,5,11.6,6.37C942.74,822.35,945.77,821.39,949.09,821.22Z"/><path d="M1034.72,849.79c-6-3-12-3.88-19.3-.2,6.35,4.38,10.61,10.73,20.15,6.89-.29-2.07-.63-4.47-1-6.86Z"/><path d="M261.7,1269.39l13.06-10.64-8.18-3.89c-4.32,3.23-8.07,7.91-14,4.4l5.82,6.51-.16-.16,3.71,3.68Z"/><path d="M981.77,197c11.41,5.38,24,2.68,36.51,0Z"/><path d="M1020.19,827.8l7.54,15.89c5.41-3.12.92-8.13,2.92-10.31l-8.49-7Z"/><path d="M1000.56,1054.91l-8,1.58c2.73,1,4.49,1.32,5.84,2.24s2.16,2.38,4.48,5.09c1.28-7.09,2.26-12.51,3.25-18C1000.11,1046.75,1000.11,1046.75,1000.56,1054.91Z"/><path d="M1001.26,1087.66c-3.33-.17-5.89-.41-8.45-.4-5.65,0-5.79.31-4.16,6.84C993.88,1095,999.2,1096.09,1001.26,1087.66Z"/><path d="M980.55,1110.38l-.23-.28c3.87,2.36,7.65,5.22,12.61,2.59-.32-5.11-11.69-1.68-5-11.21C982.05,1103.67,978.61,1105,980.55,1110.38Z"/><path d="M979.38,1151.82l.15-.25,6.88,3.68c.36,2.56.69,4.87,1,7.19l1.5.31c1.78-3.32,3.57-6.63,5.54-10.3C989.3,1148.92,984.42,1149,979.38,1151.82Z"/><path d="M1034.38,875.16l5.71-4.55c-2-4.65-3.18-10.28-10.88-9.58,1.82,4.77,3.59,9.39,5.34,14Z"/><path d="M1125.5,759c-1.66.61-3.49,1-4.92,1.91s-2.3,2.45-3.43,3.71l5.75,4.67-.14-.15c6.06-2.06,6.35-2.69,4.13-9.12A12.64,12.64,0,0,0,1125.5,759Z"/><path d="M966.58,890.47l-.05-.07v-6c-8.23-.42-8.23-.42-8.71,6.8C960.81,892.51,963.73,892.82,966.58,890.47Z"/><path d="M391.42,1140.87l-22.05,11.69C378.19,1154,385.35,1150.68,391.42,1140.87Z"/><path d="M870.21,218.38c4.51,6.28,11.42,2.88,17.18,4.49C882.93,216.91,876.27,218.88,870.21,218.38Z"/><path d="M274.22,1274.59c5.08-.95,4.24-5.35,5.67-8.6h-9c-.08,1.61-.22,4.12-.37,6.62Z"/><path d="M1024.4,1040.61l-2.41,3.21c.92,1.46,1.76,4.16,2.71,4.2,2,.09,4.2-1,6.1-2.1.31-.17-.09-3-.88-3.52C1028.34,1041.39,1026.27,1041.16,1024.4,1040.61Z"/><path d="M357,1199.52l-5.57,3.45-.15-.19,8.42,7c1.41-2.14,2.63-4,4-6.13l-6.9-4.3Z"/><path d="M374.81,1161.83c5.13-1,10.31-1.71,15.37-2.94,4.18-1,4.12-1.27,5.4-5.33-5.45,1.34-11.3,2.54-17,4.32-1.5.47-2.46,2.67-3.66,4.09Z"/><path d="M387.16,1168.75c3.54-.07,7.14.23,10.6-.31,4.81-.75,8.66-3.06,9.23-8.86-4.29,4.59-9.46,6.45-15.55,6.45-1.39,0-2.77,1.86-4.15,2.86Z"/><path d="M1015,1079.19c9.76-1.41,13-5,12.5-13.86l-12.35,14Z"/><path d="M423,1278.56c.32-5.09-1-9.5-5.25-12.7l.16-.14c-1.71,3.38-5.44,6.9,1.3,9.36,1.35.49,1.95,3,2.89,4.6A8.83,8.83,0,0,0,423,1278.56Z"/><path d="M387.34,1280.13l-10.87-7.22.17-.14q1.82,6.33,3.64,12.65l-.18,0,7.34-5.5Z"/><path d="M297.1,1268.52l-2.64,14.09C300.3,1277.43,300.57,1276,297.1,1268.52Z"/><path d="M369.62,1183.05a79.73,79.73,0,0,0,.19,8.62c.13,1.06,1.49,2,2.29,2.95,1-1.17,2.79-2.29,2.86-3.52.22-3.83-1.78-6.58-5.51-7.9Z"/><path d="M339.94,1244.08c-3.93-.63-5.15,1.62-5.38,5,6.68,2.7,8,1.92,7.25-4.13Z"/><path d="M1259.72,475.06l-2.82,4.33,13.81,6.11c-.11-1.83-.2-3.17-.28-4.5C1266.12,480.35,1262.23,479,1259.72,475.06Z"/><path d="M188.15,1373.49h0c-.77-2.74-1.54-5.48-2.39-8.48l-5.83,1.67C182.17,1370.12,181.74,1375.47,188.15,1373.49Z"/><path d="M282.21,1261.76l9.21-5.54C285.1,1253.31,285.1,1253.31,282.21,1261.76Z"/><path d="M1043,921.53l0,.09c3.52-2,2-4.65,1.51-7.18l-9.4,1Z"/><path d="M312.27,1274.8c3.17-5.29,3.17-5.29-2.14-9.23-3.85,4.29-.7,6.78,2.3,9.31Z"/><path d="M360.52,1235.51c1.59-2.29,2.23-3.8,3.36-4.68,1.41-1.1,2.19-2,1.21-3-1.16-1.21-2.7-2.06-5.5-4.11C360,1228.25,360.2,1231.39,360.52,1235.51Z"/><path d="M157.68,1383.9c2.65-3.57,1.8-7.09-.16-10.59l.3.14-5.27,2.11,5.29,8.48Z"/><path d="M787.36,207.83c-4.46-1.48-7.16,2-10.56,3.57l.57,1.88L788,210C787.77,209.26,787.56,208.55,787.36,207.83Z"/><path d="M747.85,322.76c1.66,3.11,3.32,6.22,5.77,10.83,1.36-9.45.36-10.81-5.9-10.67Z"/><path d="M82.44,1619c-.22-2.49-.44-5-.85-9.67l-6.53,9.51H82.6Z"/><path d="M77.71,1643.35a6.23,6.23,0,0,1,.68-.68l3.07-6.33C74.53,1637.57,74.46,1637.73,77.71,1643.35Z"/><path d="M224.39,1280.25l9,.4-5.78-8.49c-1,2.7-2.09,5.46-3.14,8.22Z"/><path d="M1031.36,1064.27l6.9,2.84c.34-1,1.21-2.27.91-3C1038,1061.14,1035.92,1061.22,1031.36,1064.27Z"/><path d="M1034.6,849.62c5.6,1.1,5.49,5.75,5.39,10.4l2.1-.68c-.62-3.23-.72-6.7-2-9.62-1.08-2.41-3.58-3.14-5.33.08Z"/><path d="M998.61,1115l3.3,7.93c1.9-4.79,2.66-7.61-.94-9.07Z"/><path d="M979.94,843.13c-4,3-3.32,5.37-.74,8.48C981.69,849.05,982.44,846.8,979.94,843.13Z"/><path d="M955,918.56c1.36-1.74,2.73-3.48,4.08-5.18-2-2.15-4.38-1.69-5.62.32C952.83,914.64,954.37,916.9,955,918.56Z"/><path d="M1311.75,1183.73l-.15.13c-.41-3.95-.41-3.95-3.76-7.24-.95,1.49-1.85,2.88-3,4.7Z"/><path d="M982.07,231.12l-.24,0,4.42-.43c-2.86-3.2-2.86-3.2-8.37-2.84Z"/><path d="M156.79,1392.6l-.24-.21,5.38-.28-4.25-8.21.16.14-4.66,2Z"/><path d="M720.87,242.62,713,247.27C718.25,248.11,718.25,248.11,720.87,242.62Z"/><path d="M157.82,1373.45l-.3-.14,7.15-4.63-4.94-2.61.13-.14C159.19,1368.44,155.32,1370.08,157.82,1373.45Z"/><path d="M434.73,1152.38,444,1149C436.55,1146.4,436.55,1146.4,434.73,1152.38Z"/><path d="M149.52,1393.88c1.73-2.78,2-4.89-.7-6.31a2.59,2.59,0,0,0-2.3.9C144.74,1391.27,146.17,1392.79,149.52,1393.88Z"/><path d="M997.91,1072.44l-7.65-3.6C992.51,1074.25,992.51,1074.25,997.91,1072.44Z"/><path d="M402,1238.78l5.73,7.55C408.38,1241.76,408.38,1241.76,402,1238.78Z"/><path d="M113.7,1491.14l3.62-6.92c-2,0-3.78-.22-3.85,0a60.81,60.81,0,0,0-1.24,6.51Z"/><path d="M212.53,1274.11l-4.59,8.22C212.9,1281.85,214.48,1279.85,212.53,1274.11Z"/><path d="M417.78,1265.86q-1.87-5.61-3.77-11.24c-1.69,5-.67,8.9,3.93,11.1Z"/><path d="M673.35,278.45l5.11-6.72C673.82,271.66,672.44,274.11,673.35,278.45Z"/><path d="M1015.14,1079.35c-2.71.23-5.89-.67-7.79,3.37,4.3,1.56,7.15,1.67,7.64-3.53Z"/><path d="M890.64,231.43l-4.76-3.32c-.43,2.07-.75,3.66-1.08,5.25l4.81.28C890,232.91,890.3,232.17,890.64,231.43Z"/><path d="M1022.88,808.43l5.35-3.44c-.3-.61-.61-1.21-.92-1.82a17,17,0,0,0-3.44,1.26,14,14,0,0,0-2.37,2.38Z"/><path d="M180.08,1381.5c-.35-2.85-.56-4.56-.83-6.78-.87.55-1.73.8-2,1.35C175.6,1379.12,175.65,1379.15,180.08,1381.5Z"/><path d="M1040.08,1011.94c1.2,4.07,2,8.55,7.78,8.34l-.15.16h0Z"/><path d="M1047.69,1020.43h0l.09-.15,8.62-1.59c-.21-.69-.41-1.38-.61-2.07C1052.16,1015.27,1050.2,1018.6,1047.69,1020.43Z"/><path d="M1109,700.35a22.57,22.57,0,0,0,4.33-2.37c.28-.23-.68-2-1.08-3l-4.46,3.51C1108.18,699.08,1108.59,699.71,1109,700.35Z"/><path d="M321.9,1224.39l4.47-7.06c-4.7.45-5.49,3.22-6.36,5.94Z"/><path d="M1036.33,941.66c3.53,1.08,6.22.9,4.94-4.84l-5,5Z"/><path d="M1200,819.39c-1.24,1.24-2.51,2.44-3.63,3.77a7.86,7.86,0,0,0,1.62,1.69c1.45-1,2.78-2.14,4.14-3.26Z"/><path d="M188.23,1314.08l1.86,5.4c.41-4.42,3.25-6.4,7.25-7.23l-.11.16c-1.56-2.45-3.15-4.2-5.74-.93A18.25,18.25,0,0,1,188.23,1314.08Z"/><path d="M339.94,1244.08l1.87.83,3.66-2.31C341.19,1239.84,341.19,1239.84,339.94,1244.08Z"/><path d="M338.48,1204.35l-8.82,7C334,1211.46,335.59,1208.65,338.48,1204.35Z"/><path d="M384.43,1206.49c-1.71-6.91-1.71-6.91-6-4.33Z"/><path d="M959.38,264.4l6,1c.18-.68.35-1.35.53-2l-5.88-1.8C959.79,262.49,959.58,263.44,959.38,264.4Z"/><path d="M258.37,1265.77l-7.24-.86c.64,2.8,1.23,5.43,1.82,8l-.16-.14h1.93l-.17.17,3.66-7.37Z"/><path d="M652.54,296l2.38-4.07c-1.16-.4-2-1-2.58-.82a31.14,31.14,0,0,0-4.45,2.82l4.83,1.93Z"/><path d="M1014.83,837.5l6.35,4.07c1.27-4.67,1.08-4.78-6.46-3.94Z"/><path d="M590.09,405.2l3.65-4.93-1.4-1L588.5,404Z"/><path d="M359.81,1258.7c6-.4,5.7-2.56,4.26-6.72C362.48,1254.48,361.54,1256,359.81,1258.7Z"/><path d="M1064.15,972.41l-5.94,3,.48,1.38,6.51-2.12Z"/><path d="M232.28,1254.85l1.54,2.06,2.18-1.68c-.46-.57-.9-1.57-1.4-1.6C233.94,1253.59,233.24,1254.3,232.28,1254.85Z"/><path d="M945.63,219.43l6.44,1.38a13.26,13.26,0,0,0,.21-1.71c-2.11-.59-4.24-1.11-6.36-1.63Z"/><path d="M922,215l7.83,2.46.3-2-8.24-.28Z"/><path d="M967,222.37l-7.1-1.86-.32,1.25,7.07,2C966.8,223.27,966.91,222.82,967,222.37Z"/><path d="M356.85,1199.38c.56-.13,1.42-.08,1.62-.41a40.61,40.61,0,0,0,1.8-3.9,9.64,9.64,0,0,0-2.06-.7,15.55,15.55,0,0,0-1.55,3.49c-.14.48.22,1.1.36,1.66Z"/><path d="M940.36,187.07l-6.76,3.84.69,1.31,7.11-3.34Z"/><path d="M1068.63,228.8l-6.69-3.12c.49,1.7.52,2.87.93,3a49.64,49.64,0,0,0,5.33,1.4Z"/><path d="M907.36,235.81l-2.6-4.27-1.34.44a9.49,9.49,0,0,0,.63,3.09c.43.74,1.5,1.11,2.29,1.65Z"/><path d="M672.17,284.11c-1.26,0-2.52,0-3.78.07a5.79,5.79,0,0,0,0,1.5c1.23.22,2.49.31,3.74.43C672.14,285.45,672.15,284.78,672.17,284.11Z"/><path d="M399.76,1273.08c-3.08-2.24-5-.8-6.62,1.41.27.61.55,1.21.83,1.81l5.95-3.38Z"/><path d="M159.73,1366.07c-1.62-1.5-3.23-3-5.43-5.08.72,4.74.72,4.74,5.55,4.94Z"/><path d="M356.32,1141.9l6.32-2.12c-.09-.36-.18-.72-.28-1.08l-6.73,1.48Z"/><path d="M342.13,1138.12l11-1.56c-.12-.54-.23-1.07-.35-1.61l-10.53,3.3Z"/><path d="M1043.63,1054.94l-4.5-.26c-.06.49-.13,1-.19,1.45l4.56.88Z"/><path d="M983.26,216.56l-6.35-1.23c-.11.41-.21.82-.31,1.23l6.13,1.83C982.9,217.78,983.08,217.17,983.26,216.56Z"/><path d="M864.2,989.75l1.74-.83c0-1.24-.08-2.49-.11-3.73l-2.22.17C863.81,986.83,864,988.29,864.2,989.75Z"/><path d="M1068.4,965.1c.88-1.08,1.77-1.81,2.07-2.74.1-.33-1.22-1.13-1.89-1.71a12.07,12.07,0,0,0-2,2.44C1066.49,963.35,1067.55,964.17,1068.4,965.1Z"/><path d="M1078.28,926.83l3.66,3.1,1.07-1.09-3.26-3.67Z"/><path d="M1111.94,754l1.81-3.63c-.59-1.22-1.17-2.43-2.52-5.21l-3,9.51-.15-.12Z"/><path d="M423.69,1291.93l.21.23-8.4,2.56C421,1297.62,422.26,1294.56,423.69,1291.93Z"/><path d="M1027.86,207.41h8.39c0-.18,0-.35,0-.52h-8.4Z"/><path d="M340.52,1301.84l-2.1,1.65,1.84,2.17c.55-.57,1.42-1.09,1.54-1.74S341.08,1302.7,340.52,1301.84Z"/><path d="M281.31,1304.68h-5.14c0,.53,0,1.07,0,1.6h5.11Z"/><path d="M1002.61,862.4c-3.8,0-6.61,1.26-7.27,5.43l-.13-.16c3.86.12,5.65-2.51,7.23-5.42Z"/><path d="M982.17,208l-4.54-1.21-.51,2.3,4.56.9Z"/><path d="M141.94,1418.35c-3.31-1.12-6.16-1.18-7.42,3.42,3.65.83,5.47-1.38,7.29-3.58Z"/><path d="M929.79,825.09l0,.42,6,1.39C934.2,822.66,932.07,823.23,929.79,825.09Z"/><path d="M1011.57,833.83c1.69-3.73,1.69-3.73-.59-7.58.24,2.56.48,5.13.73,7.69Z"/><path d="M181.9,1314.18h6.49C186.26,1309.68,186,1309.68,181.9,1314.18Z"/><path d="M191.35,1302.52a12.52,12.52,0,0,0,3.41,1.07c.43,0,.85-1.18,1.28-1.82a8.74,8.74,0,0,0-2.61-1.55C193,1300.14,192.37,1301.34,191.35,1302.52Z"/><path d="M1087.65,907q2.4,1.27,4.82,2.53l.87-1.52q-2.27-1.4-4.51-2.81C1088.43,905.76,1088,906.36,1087.65,907Z"/><path d="M863.44,211.64q1.38,1.74,2.77,3.46l1.27-.53a9.06,9.06,0,0,0-.71-2.55,7.27,7.27,0,0,0-1.88-1.5Z"/><path d="M1044,1042.44c-.35,1.29-.71,2.57-1.06,3.85l1.67.59c.51-1.33,1-2.66,1.54-4Z"/><path d="M921.91,215.09c-3-2.32-6.24-2.91-9.88-.13h10Z"/><path d="M788,332.91l-3.85-2-.79,1.09,3.26,2.84Z"/><path d="M118.31,1448.49l-3.66,3.6,2,2.26,4.06-3.09Z"/><path d="M274.22,1274.59l-3.69-2c-.57.83-1.79,1.83-1.62,2.42.38,1.28,1.48,2.35,2.29,3.52l-.16-.1C272.11,1277.16,273.17,1275.88,274.22,1274.59Z"/><path d="M756.16,216.11l5.12-2.88-.59-1.07-5.25,2.62Z"/><path d="M103.91,1554.16l-5.29,5.56c3.92-.11,3.92-.11,5.16-5.7Z"/><path d="M237.52,1264.94c-.48,1.26-.75,2-1,2.74a7,7,0,0,0,2.09.65c.27,0,.87-1.06.73-1.41C239.06,1266.29,238.37,1265.83,237.52,1264.94Z"/><path d="M1002.58,1039.79l-8.62-1.65.14-.09c1.71,1.1,3.32,2.49,5.18,3.15C1000.11,1041.5,1001.47,1040.31,1002.58,1039.79Z"/><path d="M346.43,1248.61a18.73,18.73,0,0,0,3.3,1.91c.23.08,1.27-1.15,1.16-1.59a2.34,2.34,0,0,0-1.64-1.35C348.65,1247.47,347.92,1248,346.43,1248.61Z"/><path d="M1091.75,227.14l4.8,1.84c.15-.4.3-.8.46-1.2l-4.8-1.85C1092.06,226.34,1091.9,226.74,1091.75,227.14Z"/><path d="M340.66,1288.24l6.2-5.22.12.22C342.46,1281.86,341.58,1285.07,340.66,1288.24Z"/><path d="M224.51,1280.38c-2.61-.23-5.72-2.75-7.9,2.61l7.77-2.75Z"/><path d="M620.55,346.06c-.59,3-1.19,6-1.78,9.06l-.15-.15c4.5-2.21,2.38-5.74,1.79-9Z"/><path d="M1015.33,1278.65c.44-1.33.87-2.65,1.31-4a12,12,0,0,0-2.75,0c-.35.07-.53.91-.78,1.4Z"/><path d="M399.92,1272.92c.1,1.38.19,2.76.4,5.68l2.68-3.89c-1.08-.54-2.16-1.08-3.23-1.63Z"/><path d="M223.19,1274.3c-.41-1.37-.83-2.74-1.25-4.12l-1.59.41c.33,1.4.67,2.79,1,4.19Z"/><path d="M1118,741.74l-.19-.25-3.49,0,.24,1.51Z"/><path d="M1094.75,766.92l-3.37-3.91-1.13.65a7.51,7.51,0,0,0,1,2.25C1091.69,766.33,1092.55,766.32,1094.75,766.92Z"/><path d="M1122.9,769.3l-4.8,2,1,1.54,3.66-3.65Z"/><path d="M884.52,211.78c-1.1-.46-2.2-.94-3.33-1.32a14.91,14.91,0,0,0-.64,1.48l3.4,1.27Z"/><path d="M966.9,812.55l1.55,1.36c.3-.42.93-1,.82-1.24a7.9,7.9,0,0,0-1.35-1.69Z"/><path d="M964.11,843h-3.69a12.19,12.19,0,0,0,.15,1.55c1.2,0,2.39-.06,3.59-.12C964.14,844,964.13,843.51,964.11,843Z"/><path d="M1156.58,880.28l-4.3.57.21,1.56,4.3-.55Z"/><path d="M1095.76,895.18h-3.69c-1.7,2.62.56,3.13,2.1,3.17C1096.14,898.39,1097.65,897.45,1095.76,895.18Z"/><path d="M397.65,1226.88c-.53-1.17-1.06-2.35-1.58-3.52l-1.15.5c.5,1.18,1,2.37,1.49,3.55Z"/><path d="M1042,994.9l-6.45,3.66C1040.19,1001.55,1040.59,1001.32,1042,994.9Z"/><path d="M450.23,1181.62c-5.7-1.19-1.43,3.33-1.82,5,.56-1.71,1.12-3.43,1.67-5.14Z"/><path d="M836.77,999.35c.23-.43.73-1,.61-1.25s-.79-.65-1.22-1l-.88,1.71Z"/><path d="M928.79,1183.13l5.38-.55c-3.1-3.69-4.14-1.39-5.24.71Z"/><path d="M1010.56,1150.3l-1.18,4.12a15.43,15.43,0,0,0,2.17-1.64C1011.69,1152.63,1011.21,1151.88,1010.56,1150.3Z"/><path d="M783.54,1054.46a7.87,7.87,0,0,0-1,2.49c0,.59.72,1.17,1.11,1.75a11.37,11.37,0,0,0,1.56-1.93C785.35,1056.57,784.68,1056,783.54,1054.46Z"/><path d="M371.11,1142.69,365.8,1144l.19,1.25,5.45-1Z"/><path d="M971.75,1133.39c-.45.7-1,1.25-.92,1.5a7.29,7.29,0,0,0,1.3,1.62c.27-.41.84-.9.76-1.21A7.87,7.87,0,0,0,971.75,1133.39Z"/><path d="M791.82,205.46l4.91,2.18.61-1.15-4.48-2.69Z"/><path d="M959.54,1071.07l.13-.06c.6,1.12,1.21,2.24,1.82,3.36l1.23-1.21Z"/><path d="M1007,1038l-4.65,1.9C1004.32,1040.21,1007.54,1043.66,1007,1038Z"/><path d="M904,1197.26h-3a6.08,6.08,0,0,0,1.34,1.64c.31.2,1-.21,1.53-.34C903.84,1198.13,903.89,1197.69,904,1197.26Z"/><path d="M386.64,1209.41a21.11,21.11,0,0,0,1.95,2.54c.18.18,1-.22,1.45-.34l-1.75-3.44Z"/><path d="M345.75,1233.84l3.41-2.61-.83-1.14-3.49,2.52Z"/><path d="M107.43,1504.09c-.46.29-1.32.64-1.29.84a6.24,6.24,0,0,0,.86,1.76c.36-.42.91-.81,1-1.29S107.65,1504.53,107.43,1504.09Z"/><path d="M302.26,1230l-3.32,1.94c.21.41.41.83.61,1.25l3.79-1.51Z"/><path d="M986.24,864.1l4.65,1.91C991.53,860,988.12,863.92,986.24,864.1Z"/><path d="M975.61,864.16c-1.72-3.13-3.26-1.87-6.5,1l6.64-1.2Z"/><path d="M996.45,207.16l-1.44.67c.32.42.68,1.22,1,1.19a6,6,0,0,0,1.84-.83Z"/><path d="M1012.47,814.93c.44-.29,1.13-.51,1.24-.89s-.29-1-.47-1.5l-1.79,1.2Z"/><path d="M362.72,1242.58l3.15-.79c-.08-.36-.15-.72-.22-1.07l-3.21.5C362.53,1241.68,362.63,1242.13,362.72,1242.58Z"/><path d="M420.8,1244.94l1.75,1.52c.17-.45.54-1,.45-1.33s-.62-.88-.95-1.31Z"/><path d="M109.4,1477.06c-.68.41-1.49.73-1.46.91a8.58,8.58,0,0,0,.78,1.93c.45-.23,1.29-.48,1.28-.71A8.09,8.09,0,0,0,109.4,1477.06Z"/><path d="M1108.18,754.63l-2.18,5.06,2,.5v-5.67Z"/><path d="M1112.68,758.44c2.25-.48,5.2.16,5.81-3.77l-4.87.93C1113.31,756.54,1113,757.49,1112.68,758.44Z"/><path d="M344.53,1258.26l-5.14-.41c.09.63.18,1.26.26,1.88l5-1.61Z"/><path d="M909.79,622.1l-3.7-.21-.12,1.38,3.67.44Z"/><path d="M613.39,365.77l-2.7,3.44,1.87.83c.23-1.48.45-3,.67-4.42Z"/><path d="M423,1278.56a8.83,8.83,0,0,1-.9,1.12c-.38,1.27-.77,2.54-1.15,3.81l1.14.7c1-.86,2-1.72,3-2.59l-.1.18Z"/><path d="M414.43,1290.2l1.91-2.44-1.41-1.39-1.85,2.86Z"/><path d="M290.75,1301.24a10.58,10.58,0,0,0-3.34-.41c-.85.17-1.54,1.12-1.56,2.88,1.67-.87,3.33-1.73,5-2.61Z"/><path d="M175.19,1318.66l-2.31,1.86.52.93,3-1.38Z"/><path d="M1525.9,1325.54c-.13-1.24-.26-2.47-.38-3.71l-1.34.16.48,3.68Z"/><path d="M707.13,297.19l-.57,5.12,1.39.15.54-5.12Z"/><path d="M999.13,272.38l4.8,3.74c.28-.42.56-.85.83-1.28L999,272.53Z"/><path d="M974,276.22c3.27-2.81,1-3.33-2.64-4.14l2.82,4.26Z"/><path d="M999,272.53l-4.46-2.92-.63,1.43,5.21,1.34Z"/><path d="M165,1334.21l-2,2.27a8.33,8.33,0,0,0,2.4-.06c.34-.09.46-.93.69-1.43Z"/><path d="M951.08,241.17l-3.17-1.63c-.21.4-.42.8-.64,1.2l3.15,1.63Z"/><path d="M964.94,240.21l-6-2.82c-.19.63-.38,1.26-.58,1.89l6.71.8Z"/><path d="M820.84,299.07l8.1,5.37c-2.34-4.42-3.91-6.87-7.75-6.71A1.27,1.27,0,0,0,820.84,299.07Z"/><path d="M932.36,1100.05c4.22,3,5.27,2.85,7-1q-1.51-2.52-3-5Z"/><path d="M491.7,1248.09l-11-2.38c5.43,5.48,5.43,5.48,10.82,2.22Z"/><path d="M200.91,1323l-4-3.5-1.24,1c.32,1.57.65,3.15,1.12,5.46l4.22-3.12Z"/></svg>