<svg id="Layer_1" data-name="Layer 1" xmlns="http://www.w3.org/2000/svg" viewBox="0 0 1686 1686"><defs><style>.cls-1{fill:#fff;}</style></defs><path d="M835.9,1845.67c3-1.93,6.28-3.59,9.07-5.83,11.38-9.11,22.46-18.59,33.94-27.57,13.7-10.72,28-20.66,39.71-33.75,4.66-5.21,10.12-9.68,15.17-14.54,5.91-5.7,12-11.25,17.58-17.25,5.8-6.22,11.06-13,16.65-19.37,4.18-4.81,8.55-9.47,12.77-14.24,6.24-7,12.53-14,18.6-21.21,5.3-6.29,10.4-12.77,15.46-19.27,4.83-6.2,9.72-12.39,14.19-18.86,5.35-7.73,10.13-15.86,15.43-23.64,7.4-10.86,15.16-21.47,22.56-32.33,6-8.8,11.72-17.78,17.48-26.72,3.78-5.88,7.5-11.78,11.09-17.78,4.35-7.27,8.43-14.7,12.82-22,4.08-6.75,9.06-13,12.52-20.08,8.08-16.46,15.38-33.31,23.25-49.88,2.09-4.4,5.41-8.2,7.63-12.55,7.68-15.06,14.18-30.57,17.46-47.3,1.76-9,2.28-18.85,6.61-26.47s6.13-15.88,10.23-23.39c8.38-15.37,15.9-31.21,24.05-46.72,2.56-4.86,5.43-9.78,9.16-13.73a19.11,19.11,0,0,0,5.2-12.32c.44-5.15-.47-11.25,2-15.2,3.63-5.86,4-12,5.61-18.09,1.87-7-.31-11.32-5.6-14.89-6.11-4.12-12.35-8-18.6-12-9-5.62-18-11.16-27-16.73l.9-2.17c14.77,3.61,29.59,7,44.25,11,3.64,1,6.38,1.31,9.3-1.19,6.74-5.75,14.67-7.94,23.22-6.13a231.58,231.58,0,0,1,23.78,6.63c4.92,1.59,9.41,4.79,14.4,5.91,11.74,2.63,19,10.1,25.18,19.79,3.38,5.25,8.55,9.46,13.37,13.6a130.69,130.69,0,0,0,14,10c11.28,7.38,22.26,15.23,35.62,18.9,5.2,1.43,10.1,4.38,14.75,7.26a26.7,26.7,0,0,1,11.33,15.24c1.68,5.47,2.82,11.29-1.38,16,9.43,5.93,18.3,11.33,27,17,12.52,8.18,24.76,16.77,37.38,24.79,8.72,5.53,18.78,9.16,24.54,18.61a3.68,3.68,0,0,0,2.41,1.12c7.18,1.07,11.85,6.22,17,10.46,6.75,5.51,13,11.65,20.1,16.69,18.5,13.17,32,31,45.45,48.72,7.37,9.7,13,20.75,19.39,31.2a426.26,426.26,0,0,1,37.17,77.94A291.31,291.31,0,0,1,1655.9,1635c1.9,19.78,2.64,39.66,4,59.49.69,10.4,1.45,20.79,2.35,31.16q3.4,39.46,7,78.91c1.26,13.72,2.79,27.41,4.21,41.11ZM1260,1272.07l7-6.36v-11.94l-1.82.11,1.83,11.82C1262.65,1265.33,1261.32,1268.71,1260,1272.07Zm-17.89-19.73.57,1.19,5.83-2.76-1.21-1.3Z"/><path d="M114.8,1493.66l7.14-2.62c6,3.27,9.34,8.11,9.29,15.17,0,2.66.67,5.32.77,8,.12,2.88,1.28,4.45,4.23,4.58a6,6,0,0,0,.44-1.84c-1.37-12.35-3.52-24.66-3.92-37-.27-8.31,1.82-16.72,3.12-25,.5-3.18,2-6.18,2.59-9.35.89-5-.13-11.1,2.4-14.92,3.07-4.64,3.55-9.09,3.9-14h6.58c0-.47-.08-.94-.13-1.41-2.07.5-4.15,1-6.27,1.47,2.3-5.85,5.11-11.35,12.11-15.32l-8.83-6.81,9.89-1.44c-.71-2.69-1.29-4.86-1.87-7,1.6-.9,4-1.64,4-2.39,0-7.75,10.43-11.37,7.87-20.25-.41-1.39,1.56-4.47,3.16-5.24,4.68-2.27,6.47-5.88,7.49-10.66.37-1.73,2.87-3,4.39-4.47-.05,3.6,1,5.78,6.9,3.71L183,1343.3a38.11,38.11,0,0,1,5.19-2.6c2.63-.86,5.38-1.34,8-2-.46-4.1-.78-7-1.21-10.77l9.61-.8c.71-1.21,1.6-2.74,2.49-4.28.05.87-.22,2,.23,2.54s1.68.56,2.56.8c-.2-.72-.19-1.67-.65-2.1a7.42,7.42,0,0,0-2.39-1c.3-3.32.59-6.63.94-10.58l11.05,2.78c3.16-2,6.73-3.42,9.23-5.95,3.38-3.4,6.89-3.4,10.92-2.33l-.26-.18c6.07,2.45,12.08,1.51,18-.44a3.38,3.38,0,0,0,1.92-1.88c1.54-5.24,5.48-8,10.09-10.08.23-.1,0-1.14,0-2.13l-7.31-2c8.19-6.11,17.35-5.71,24.35-9.93,7.21-4.35,13.86-9.64,22.39-15.69.57,4.66,1.62,7.57,1.13,10.19-1.69,9-3.92,17.94-5.94,26.89-1.14,5-1.19,15.17-.36,18,2.91-13,6-27,9.12-40.81l9.3-1.3c4.83-7.09-4.65-6.13-5.69-10.89,5.62-8.67,11.23-17.34,17.3-26.72-4.88-.08-7.64,5.77-12.44,2.79,1-2.19,1.88-4.18,2.91-6.49-4.32-1.21-8.82,1.77-12-2.61,2.39-4.06,3.23-10.24,10.35-5.44.58.39,2.09-.77,3.21-1,7.63-1.43,14.62-5.39,22.73-5.24,3.09.06,6.31-1.68,9.29-3,3.43-1.53,6.64-3.66,11.14-2.34-3.32,3.27-7.46,4.9-8.62,9.88l11.37-4.87c-.69,1.79-1.38,3.58-2.09,5.36-2.44,1.59-4.13,3.44-2.17,6.72,5-1.17,3.78-4,1.92-6.93l10.55-2.77c-.07-.71-.15-1.42-.22-2.13h-8.29c3.16-3.32,6.84-3.21,11-2.26,8.91,2,17.36-1,24.48-5.43,5.59-3.52,10-9.41,14.39-14.44,6.11-7.06,12.91-10.67,21.43-13.83,15-5.58,30.3-9,45.9-11.83,10.84-2,21.85-3.66,32.3-7,28.76-9.23,57.8-16.63,88.17-17.34,16.2-.39,32.42-.25,48.64-.29.75,0,1.51.52,3.76,1.35-17.57,6.54-33.79,12.75-50.14,18.6q-31.23,11.16-62.65,21.79c-9.57,3.26-17.27,9.12-20.85,18.28-3.74,9.59-7.39,19.58-6.68,30.32,2.84,42.62,5.61,85.24,8.64,127.84a166.49,166.49,0,0,0,3.42,21.81c2.1,10.13,5.39,20.08,3,30.67-.3,1.38.42,3,.65,4.49.88,5.74,2.15,11.47,2.52,17.24.53,8.21-.14,16.51.67,24.67,1.4,14,3.64,27.92,5.32,41.89.73,6.09.93,12.24,1.42,18.35,1.06,13.09,1.41,26.29,3.41,39.24,2.71,17.53,3.87,35.24,8.58,52.58,4.4,16.2,6.55,33.1,8.66,49.81,2,15.73,9.16,29.18,17.09,42.14,9.22,15.08,19.56,29.52,30.09,43.74,10.74,14.5,21.54,29.08,33.7,42.35,14,15.31,29.57,29.2,44.39,43.78,1.48,1.46,2.47,3.42,3.7,5.15H20.51c2.09-9.48,4.5-18.9,6.19-28.45,1.42-8.08,1.93-16.31,3-24.45a38.27,38.27,0,0,1,2-6.94c2.28-6.78,4.74-13.51,6.93-20.33,1.49-4.64,4.25-9.67,3.52-14-.95-5.67.39-9.28,5.39-12.58-4.39-1.75-3.37-3.75-2.24-6.34,2.92-6.63,7.6-12.49,8.25-20.15A113.68,113.68,0,0,1,56.28,1698c1.75-8,4.13-15.84,5.31-23.89,1.28-8.76,1.79-17.6,6.6-25.41,2.75-4.46,1.49-10.41,5.39-14.53.52-.55-.49-2.34-.39-3.52.55-6.57,1.13-13.14,1.94-19.69.12-1,1.49-1.79,2.37-2.59,3.56-3.18.16-9.8,6.17-12.19.9-.36-.7-5.6-.08-8.34,1.81-8,5.39-15.69,5.93-23.67.44-6.53,9.2-11,4-18.55-.34-.49.93-2.14,1.51-3.22,1.89-3.49,6.44-6.2,3.13-11.23-.25-.38.77-1.53,1.09-2.37,2.67-7,6.94-13.86,7.52-21s4.5-12.53,7.63-17.79c3.27-5.5,5.62-10.62,5.69-16.83,0-3.54,1.56-5.72,4.82-6.82l-.11.16c.65,1.25,1.82,2.49,1.85,3.76.19,6.84.09,13.7.09,21.1h-5.06C119.91,1489,119.91,1489,114.8,1493.66ZM245,1326.17l2.57-8.33c-4.46-1.11-7.2.21-7.3,5.5a11.11,11.11,0,0,0-3.19,1.47c-.49.43-.26,1.66.61,3.1.78-1.61,1.55-3.21,2.33-4.81ZM396.86,1223.3c-7,6.24-17.18,3-22.15,13.52,5.56-.48,9-1.89,11.82-4.58s5.19-4.59,9.82,1.14C396.59,1228.56,396.67,1226.93,396.86,1223.3Zm-38.1,21c-3.3.74-7.75-1.66-10.52,3.6,7.38-.48,13.76-.72,20.08-1.46,1.11-.13,2-2.36,3.84-4.78C366.34,1242.82,362.52,1243.48,358.76,1244.33ZM337.7,1232.6l12.93-4.48C338.76,1227.05,338.76,1227.05,337.7,1232.6Zm14.18,4.88c-.13-.59-.26-1.17-.4-1.76l-9.09,1.81c.19.9.37,1.8.56,2.7C346.81,1242.23,348.92,1238.44,351.88,1237.48Zm25.89,16.34-.39-1.49-9,1.84c.22.82.43,1.65.65,2.47ZM359.42,1263c-1.83,4.65-.56,6.17,2.08,7l1.93-1.49C362.32,1266.94,361.21,1265.42,359.42,1263Zm8.05,18.48c.79-.6,2.16-1.14,2.24-1.83a3.48,3.48,0,0,0-1.37-2.77c-.43-.28-1.73.73-3.22,1.43C366.2,1279.76,366.83,1280.62,367.47,1281.47Zm-11.35-22.27c.55-1.5.95-3,1.51-4.89-4.3.9-5.13,2.78-3.14,6.37C355.36,1259.91,356,1259.64,356.12,1259.2ZM385.78,1312a12.29,12.29,0,0,0,2.08,1.76c.24.13.92-.56,1.41-.87,0-.52,0-1,0-1.57Zm-53.5-63.86-1.46.27.51,4,1.92-.25C332.93,1250.83,332.6,1249.5,332.28,1248.17Zm61.84,78.93a17.33,17.33,0,0,0-.39,2.45,10.56,10.56,0,0,0,2.08.57ZM232.26,1347a1.66,1.66,0,0,0,.37-1.51c-.48-.45-1.58-1-1.84-.79-.53.44-.67,1.34-1.2,2.6A8.89,8.89,0,0,0,232.26,1347Z"/><path d="M945.92,250.12c4.5-3,4-7,3.37-11.13,6.32.09,12.77,1,19,.08,7.86-1.15,12.4,2.75,16.93,8,5.73,6.59,11.71,13,17.74,19.3.93,1,2.74,1.09,4.15,1.6-2.93,3.65-1.42,6.15,2.83,7.87-1-2.57-2.08-5.14-3.06-7.75-2.15-3.66-3.76-7.87-6.7-10.73-3.86-3.75-2.54-6.66-1.13-8.81h23.27c4.46,10.31,4.46,10.31,14.56,8.42,5.7,7,5.72,7.3.53,12.36a34.43,34.43,0,0,0,4.33,4.61c5.55,4.13,11.33,8,16.86,12.14,1.34,1,3.21,3.32,2.84,4.24-1.53,3.85,1.29,4.8,3.38,6.44,6.21,4.9,12.71,9.49,18.47,14.87,6.63,6.18,15.74,9.67,20,18.38-2.9-1.36-6.23-2.22-8.6-4.22s-4-5.24-6.68-7.16c1.57,8.25,4.16,10.72,16,16.48-.38-2.17-.66-3.77-1-5.37,5.11,6.92,12,11.76,19.06,16.44a13,13,0,0,1,2.79,2.37c10.25,12.16,20.54,24.28,30.58,36.6a15.51,15.51,0,0,1,2.76,7.21c1.42,8.73,3.79,16.71,9.26,24.19,5.7,7.79,10.25,16.68,10.41,27,0,1.89.91,4.58,2.29,5.42,1.57.95,4.14.22,5.94.22l23,41c1.46-7-2.15-12-4.71-17.36-4.13-8.67-8.29-17.32-12.19-26.1-.94-2.1-.25-5-1.4-6.93-5.15-8.52-12.22-15.95-14.39-26.12-7.6-3-6.48-11.42-9.85-17.28l9.65,8.52c-1.09-8.22-1.86-14.42-2.83-20.6-.08-.51-1.72-.62-2.22-1.24-3.91-4.84-7.61-9.82-9.55-16.84,6.39.42,8.43,4.82,10.6,8.48,2.36,4,5.78,6.68,8.74,9.86s5.88,6.22,10,8a16.82,16.82,0,0,1,3,2.16l1.8,1.22c2.15.43,4.33.81,6.49,1.32,1.75.41,3.47,1,5.95,1.71l-2-5.65c5.5,2.46,8.49,6.6,10.77,11.3,5.25,10.83,15.71,15.86,24.73,22.81-1.8-7.16-3.6-14.23-7.22-20.21-6.16-10.18-13.31-19.77-20.42-29.34-1.38-1.86-4.47-2.45-6.78-3.63.11-1.54.58-3.18.24-4.62a48.33,48.33,0,0,0-2.44-6.4l-.23.22,5.71,4.7,4.42,4.34c1.93,5.82,7.39,7.84,11.83,11,.39,2.19.09,4.92,1.3,6.46,2.57,3.27,6.41,5.56,8.87,8.89,9.32,12.58,18.34,25.39,19.85,41.76.12,1.28,1.19,3.23,2.21,3.53,4.62,1.37,6,8,12,7.2,1.08-.14,2.86,2.18,3.68,3.71,6.08,11.3,11.82,22.78,18.05,34,2.16,3.88,5.39,7.17,8.13,10.73l.24-.23c-5.12,2-3.7,6.95-4.1,11.16l-4.68-2.69c.86,3,1.4,5,2,7.24l6.3-1.57,3.39,8.69c-5.46-3.31-9-2.21-11.63,1.46.6,13,1.4,25.93,1.68,38.85.1,4.72-1.19,9.46-1.61,14.22-.34,3.87-.33,7.77-.47,11.66-.17,4.63,1.4,8,6.62,9.4-.45-3.48-.22-6,3.55-7.43-6.23-2.48-5.64-7.81-6.12-12.43-.28-2.75,1.76-3.64,5.67-4.77,1.64-.47,4-2.61,4-3.9-.18-4.52-1.65-9-1.94-13.5-.36-5.65-.79-11.15-2.83-16.57-.69-1.82.74-4.45,1.29-7.12,5,5.09,10.63,17.52,11.26,24.31,0,.2-.23.26-.68.19,2.71,6.83,4.71,14.07,8.27,20.44,10,17.8,10.14,36.69,7.62,56.07-.3,2.34-2.71,5.6,2.28,6.29.22,0,.1,3.57-.13,5.44-.11.87-1.25,1.67-1.25,2.49a106.41,106.41,0,0,1-4.49,30c-2.42,8.34-2,17.44-6.75,25.19a4.44,4.44,0,0,0-.67,2.56c.89,9.55-4.67,17.65-6,26.71-.24,1.63-1.88,3-2.75,4.61-1.08,1.92-2,3.9-3,5.86-3.48,7-5.48,14.76-11.47,20.71-2-9.32-2-9.32-9.53-9.31-3.16,9.43-6.62,18.77-9.26,28.33-.77,2.78,0,5.84-3,7.76-5.1,3.19-6.87,8.33-7.94,13.9-2.36,12.33-8.8,22.8-15.9,32.75-6.16,8.63-11.57,17.26-11.09,28.23-1.46-.25-3.49-1.15-4-.61a133.15,133.15,0,0,0-9.89,11.34c-8.39,10.89-13.79,23.9-23.67,33.75-4.27,4.26-6.87,11.6-15.35,8.74-.6-.21-1.73,1.6-2.78,2.13a27.33,27.33,0,0,1-4.14,1.41c2.06-5.5,3.88-10.37,5.69-15.24,6.12,0,6.76-.55,9.69-5.62,4.12-7.13,7.77-14.74,13-21a124.46,124.46,0,0,0,18.69-30.46c5.78-13.2,12-26.24,18.27-39.2a44.23,44.23,0,0,0,3.53-30.12c-1,.26-1.54.32-1.55.42-.73,8.82-6.91,16.31-6.18,25.55a9.05,9.05,0,0,1-1.9,6c-2.67,3.18-4.45,6.4-4.56,10.69,0,1.58-1.35,3.32-2.48,4.64-4.51,5.25-9.2,10.34-13.77,15.53a24.68,24.68,0,0,0-3.89,5.11c-5.12,10.48-11,20.28-19.66,28.4-6.61,6.22-12.09,13.64-18.68,19.88-3.24,3-6.54,7.33-12.68,6.39a61.33,61.33,0,0,1-2.47-6.75c-.87-3.59-4.91-7.14-.77-11a95.47,95.47,0,0,1,9.21-7.45c1.18-.84,2.9-.93,4.38-1.33,12-3.21,20.16-10.84,26.32-21.39,3-5.17,4.92-11.35,11-14.46,1.19-.61,1.63-3.14,2-4.87a45.34,45.34,0,0,0,.87-8.13c.08-8.55.69-17.17-2-25.71h-13.07c-2.34,13.44-4.3,27-7.18,40.32a71.81,71.81,0,0,1-7.09,18.76,13.76,13.76,0,0,1-18.26,5.91c-4.66-2.17-8.22-1.18-12,1.19-1.31.81-2.54,1.73-3.8,2.62-6.8,4.77-13.7,9.09-22.61,5.78-.6-.22-1.61.67-2.59,1.13l2.35,5.52c-3.71,1.67-8,3.2-6.8,8.68,8.79-.83,16.16-7,25.55-6.42-1.5,9.16-5.27,16.93-4.64,25.73.41,5.79-3.87,9.42-9.21,11.35-8.1,2.92-15.83,2.18-23-3.05-1.43,6.4-1.07,8.34,2.77,11.84,3.17,2.89,6.64,5.45,10,8.18,7.17,5.88,14.86,6,23.22,2.72,4.81-1.88,10-2.91,14.95-4.32l1.08,2-16,13.35c.28,1.28.69,3.16,1.18,5.37l-8.84,1.93c.21,2.4.38,4.35.58,6.61l4.8-1.9c-.73,5.06-1.45,10-2.18,15l-6.22-3c.62,3.13,1,5.07,1.44,7.23-11.73,2.2-5.75,13-9.54,20.12l-17-5.08c-5.22,5.38-11.2-2.52-16.32,1.78-.76-3-1.32-5.25-1.87-7.45a80,80,0,0,0-5.61,18.63c-1.54,9.32-7.37,17.51-6.76,27.37.29,4.77.05,9.58.05,14.07l-4.37,2.13c3.4,5.11,6.18,10.73,3.3,15.49-4.17,6.91,3.27,15.4-3.92,21.33a4.88,4.88,0,0,0,.94,1.45c4.53,4.65-1.87,8.46-1,12.84s4.66,7.92,2.86,13.11c-1.87,5.4-1.81,10.83,2.29,15.63a6.07,6.07,0,0,1,1,4.31c-.38,2.79.38,4.46,2.78,6.12a6.43,6.43,0,0,1,.78,10.42c-5.17,4.24-3.2,8.48-2.41,14,8.88-6.1,12,2.79,16.19,4.68,1.39,7.14,1.25,13.73,4,18.67a39.88,39.88,0,0,1,5.18,16.35c.34,3.73,1.21,6.55,5.18,7.58,1.17-2.56,2.3-5.06,3.59-7.9,3.94,4.05,4,4.07,3.3,7-1.14,4.66-2,9,3.79,11.57,1.27.58,1.5,3.47,2.21,5.3l-5.61,2.09c.85,2.61,1.76,5.37,2.66,8.13l-.24-.26c-.94,3-1,7-3,9-4,4-4.4,3.51.92,6.45a10.16,10.16,0,0,1,2.56,2.47c2.73,3.22,5.2,2.18,7.77-.27,3.08-2.94,5.95-6.28,9.5-8.49a24.52,24.52,0,0,0,8.18-8.12c3.33-5.2,8.16-9.44,13.41-15.27.35,3,.54,4.11.6,5.22.59,11.42-8.83,16.64-14.91,23.87-1.64,2-3.9,4.2-6.19,4.62-5.85,1.07-8.67,4.73-10.66,9.73a3.39,3.39,0,0,1-2.11,1.71c-5.18,1.19-9.1,3.33-11.35,8.84-3.25,7.92-7.63,9.63-16.12,8-1.48-.29-3-.35-4.53-.51.4-2.36.8-4.71,1.28-7.57l-4.81,1.9c-.45-8.61,4.55-14.45,17.77-20.84-2.49-.27-4.86-.66-7.24-.76-5.43-.24-9.6,1.8-11.52,7.17-1.33,3.74-2.37,7.58-3.58,11.36-.72,2.26-1.53,4.49-2.6,7.63,3.57.28,7.25.56,10.93.86-5.19,5.12-3.8,11.82-4.36,18.05l0-.05-5.3-4.16c-4.22,2.6-3.71,5.15-1.16,7.85,1.87,2,3.74,3.94,5.62,5.91l-.26-.25c-3.07,3.39-7,4.37-11.65,4.58l-4.83-9.21c-3.06,4.73-5.3,8.52-7.89,12.05-2,2.67-3.92,6-6.69,7.28-4.31,2-9.3,2.67-14.15,3.93a9.88,9.88,0,0,1-.2-2.72c1.94-9.09,1-12-6.35-16.83-1.29-.86-3.67-1.46-4.81-.83s-2.25,2.88-2.4,4.51.89,3.29,1.44,5.06l-22.34,6.28c-2.08,6-4.56,10.92-5.49,16.16-1.35,7.64-6.86,9.36-12.89,10.91-.55.15-1.34-.38-1.79-.14-3.07,1.62-6,3.5-9.14,5s-6.7,1.89-9.15,3.91c-5.35,4.44-10.55,8.12-17.94,8.91-6.46.69-8.74-.35-7.71-6.59.64-3.89,1.63-7.72,2.53-11.86l-7.42-.7c3.06-6.34,10.8-9.15,9.27-17,1-1.45,1.91-2.9,3.07-4.67-4.56,0-2.75,2.94-2.94,4.86l-10.09-3.15c2.33-5.59,4.26-10.21,6.24-15l6.64,4.91c.67-10.52-3.81-17.8-6.85-24.18,1.72-4.12,3.51-7.18,4.22-10.48.65-3,.14-6.23.14-9.79l-9.9-3.23c-.51,3.11-.92,5.68-1.39,8.57H926.15l5-5.72c-11.72,2.86-21.76,5.57-31.92,7.72a38.4,38.4,0,0,1-30.18-5.89c1.6-1.3,2.81-2.84.63-4.47-3.9-2.91-7.84-3.31-11.44.66-1.59-5.3-5.8-6.87-10.67-7.12-5.54-.29-8.44-2.89-8.7-8.53-.07-1.34-.9-2.64-2.16-6.08-4.21,7-9.16,7.17-14.21,4.34-.76-3.13-.65-6.67-2.34-8.71-3.28-3.94-7.73-6.89-5.91-13.12.21-.71-1.09-2.3-2.05-2.85-4.74-2.72-8.49-5.89-8.07-12.11.06-.87-1.29-2.36-2.28-2.7-5.3-1.79-5.74-6.15-5.23-10.47.34-2.9-.58-4.46-2.46-6.34a11.32,11.32,0,0,1-2.81-5.54c-1.25-6.46-3.82-11.93-9-16.28-2.47-2.06-4.15-5.19-5.81-8.06-2.46-4.22-4.22-8.88-6.91-12.93-6.08-9.13-12.33-18.17-19-26.91-3.83-5.06-7.68-11.11-13-13.82-10.29-5.26-21.1-9.88-33-11.15-19.06-2-36.09-9.7-51.84-20.28-4.38-2.94-8.61-6.35-11.46-11.63,4.65,0,8.26-.18,11.85,0,9.19.55,18.68-3.17,27.58,1.94a6.84,6.84,0,0,0,3.52.35c3.57-.18,7.15-.31,10.69-.75,7.21-.89,14.49,1.06,21.76-2.14a79.48,79.48,0,0,1,21.87-6c9.35-1.17,17.84-3.55,25.38-9.34a20.38,20.38,0,0,1,7.45-3.4c5.67-1.37,9.91-4.5,13.6-8.89,2.75-3.28,6.08-6.06,9.08-9.13,4.63-4.75,9.41-9.41,11.7-15.81l-6.17-4.23c11.68-4.93,5.22-13.4,6.09-20.47l-21.22,7.73a12.67,12.67,0,0,0-11.87-4.49c-7.65,1-15.44,1-23.18,1.33-.8,0-1.64-.63-2.74-1.09v-6.76c-2.42-1.62-5.49-2.54-6.15-4.34-2-5.52-6.66-6.29-11.12-6.68-9.11-.81-15.1-5.66-19.54-14.17l-2.74,5c-9.15-.18-18.51.28-24-9.46-.59-1-2.68-1.49-4.15-1.72-8-1.24-13.37-7-19.54-11.36-5.76-4.06-9-9.72-11.06-16.46-4.5-14.88-4.52-30.35-6.65-45.53-1.06-7.55-2.4-15.07-3.53-22-1.83-.86-2.63-1.34-3.49-1.63-8.61-2.9-9.7-2.27-11.93,6.66-.89,3.57-1.7,7.18-2.87,10.66s-3.44,3.95-6.56,1.92c.35-7.81-4.18-13.17-9.49-17.88-3.12-2.77-5.43-5.6-6.12-9.86A26.63,26.63,0,0,0,589,846.46c-2.66-2.38-3.31-4.8-2.31-8.17,2.85-9.62,5.48-19.31,8.21-29,10.52.46,15-6.59,18.38-13.54,1.94-4,4-6.57,7.8-8.23,2.46-1.06,4.66-2.7,7.09-3.82a57.34,57.34,0,0,1,6.58-2c-1,4.32-1.7,7.22-2.27,10.15a52.26,52.26,0,0,0-1.43,9c-.08,6.32,1.26,7.75,7.9,9.86,5.31,1.69,6.94,4.75,4.57,9.66-2,4.13-4.64,7.94-6.91,11.94-1.81,3.19-3.86,6.32-5.14,9.73-3.22,8.63-.79,15.48,6.61,21,5.17,3.85,11.25,4.53,17.25,5.76,6.6,1.35,13.74,1.83,19.55,4.83,6.26,3.24,12.76,4.09,19.26,5.65,4.47,1.08,8.51.6,11-2.54L718.79,880c.8-9.56.75-9.28-6.6-10.53a26.89,26.89,0,0,1-9.86-3.88c-3.74-2.42-6.82-5.82-10.35-8.6-10.75-8.45-21.65-16.71-28.82-28.81-1.16-2-3.42-3.37-5.33-4.81s-4.28-2.48-6.12-4.07c-3.15-2.72-3.1-6.1.2-8.41a15.48,15.48,0,0,1,5.93-2.29,28.06,28.06,0,0,0,17.2-9.94c4.22-5.25,9.82-7,16.17-7.47,6.08-.46,7.17-1.71,7-7.88-.11-3.63-.59-7.24-.74-8.89,3.32-4.29,5.94-7,7.81-10.24,3.58-6.12,5.64-7.14,12.78-5.07,1.16.33,2.25.88,3.32,1.3l5.14-4.16a27,27,0,0,1,4.06,2.69,26.93,26.93,0,0,0,20.42,8c1.61,0,4.28.87,4.72,2,1.93,5.08,6.11,6.21,10.57,7.75a11.85,11.85,0,0,1,5.82,5.48A54.42,54.42,0,0,1,776.87,795a21.44,21.44,0,0,0,5.76,11.2c3.21,3.21,6.83,6.8,8.16,10.92,1.84,5.71,5.81,9.25,9.43,13.35,2.79,3.15,5.29,6.58,8.22,9.59,6.56,6.73,13.78,12.6,22.24,15.46l5.43,9.73c1.86-3.09,2.89-4.82,3.75-6.25,7.9-.41,4.77,8.14,10.09,10.61.36-5.76,4.49-7,9-7.91,3-.58,5.95-1.51,8.95-2.13,7.59-1.58,14.67-2.9,22.94-.57,7.56,2.13,17.71,3.19,21.89-6.83h14.9c-4.77-6.72-2.48-12,1-16.84,7.19-1.65,8.6,6.54,13.39,7.65l6.17-8-3.4-6.08h9c-.3-2-.94-3.6-.64-5,.85-4,4.27-7.4,2.11-12-.18-.38,1-1.39,1.54-2.12,4.17-5.64,11.39-7.31,18.19-4.55,2.57,1,5.44,1.36,9,2.21-.37-7.12-.45-11.72,5.63-16,4.55-3.2,7.52-8.24,13.86-7.22.79-2.56,1.39-4.53,1.85-6,4.2-.92,8.23-.9,11.06-2.73a8.38,8.38,0,0,1,5.49-1.49c6,.09,6.94-1,8.17-8.7,11.45,5.43,10.47-8,16.37-11.09,4.78,3.54,8.57,3.06,11.48-2l-.23.18,8.47-6.62c-9.25-6.18-19.87-11.21-8.26-23.18-5-2.72-6.7-6.47-6.78-11.5,0-1.88-2.23-5.08-3.8-5.32-4.86-.74-5.26-4-6.4-7.65-2.79-8.92-6.12-17.67-9.82-28.18-6,6.76-8.38,2.27-11.09-2-2.32-3.63-5.79-5.36-10.54-4.91-2.7,2.06-3.53,8.75-10.27,4.15.84-1.57,1.45-3.45,2.64-4.82,3.43-3.94,3.55-6.59-.12-9.8-1.53-1.33-3.27-2.43-4.61-3.41,2.73-8.9,8.42-1.13,13.57-5.06l-4.29,8.54c8.63,6.21,12.61-2.17,18.08-4l-6.9-9.51c4.55-2.69,7-8.69,5.06-12.8l-5.08-2.16c1.39-11.64-1.86-20.5-12.44-27.13-9.19-5.76-16.54-14.44-25.6-20.48-7-4.65-12.62-9.38-13.11-17.64l-9.45-1.68c-.52-4.41-1.19-7.74-5.53-9.23-4.84-1.67-9.45-4-14.7-6.22,1.67-8.25-3.82-13.77-8.75-16.27-8.43-4.27-11.28-11.89-15.75-18.67-3-4.48-5.24-9.4-7.72-13.94l-4.29,4.68c-.66.72-1.61,1.36-1.88,2.21-1.17,3.66-2.14,7.4-3.23,11.27l-12.31-6.4c0-3.54.39-6.72-.1-9.75a8.51,8.51,0,0,0-7.13-7.45,7.94,7.94,0,0,0-6,1.63c-1.31,1.21-1.34,3.8-2,6.12l-14.5-7.63c-.18,2.87-.74,5.61-.42,8.23.5,4.1-1.53,4.72-5.27,4.48-1.68-3.73-3.34-6.7-9.1-6.27-3.85.29-8.56-3.23-11.92-6.15-3.87-3.38-8.69-2.16-13-4.21-6.79-3.28-12.76-6.55-16.32-15.73-3,4.61-5,10.36-7.16,10.42-6,.16-4.27,4.82-5.55,8.75-2.3-6.59-3.53-12.18-6.1-17.06-7.3-13.87-4.44-27.74-1-41.72.09-.38.87-.59,2-1.3.59,3.8,1.15,7.35,1.91,12.24,2.84-6.52,3.44-12.61.64-15.78-4.11-4.65-3.42-9.54-2.43-14.73.8-4.22,2.21-8.42,2.3-12.65s2.25-6.82,5-9.32a16.77,16.77,0,0,1,2.42-1.52L787.4,379c-1.69,2.46-2.85,4.15-4.11,6,.48-12.85.93-25.1,1.41-38-4.4,6.07-7.15,14.41-9.34,20.54-1.59,4.45-.49,10.65-6.65,13.57-2.72-8.27-3-16.4.24-23.74,2.84-6.46,7.72-12,11.9-18.26L777,335.53c-1.68-7.85-3-14.19-4.42-20.71-5,6.06-.42,14.64-6.17,21.09-1.7-11.28.67-20.65,4.94-28.05l12.74-1,.36-1.16L764.21,299,758,322.62c-7.23-4.69-9.74-8.82-6.66-12.93,3.22-4.3,4.76-9.14,6.94-13.8s4.75-5.86,9.36-2.84,8.93,3.18,13.67,3l.6-1.9-19-7.78,6-8.19c8.6,4.44,11.49-5.51,16.1-6.46l11.2,3.57c.48,4.07,1.49,8.17,1.31,12.22-.35,7.55,2.58,14.75,1.6,22.49-.41,3.25,2.82,7.16,4.87,10.48,4.52,7.34,9.35,14.5,14.06,21.72v8.48l2.52-.41c-.91-2.59-1.83-5.19-2.72-7.81,5.22-6.48,5.32-9.6.91-16.31-3.17-4.82-6.16-9.76-9.17-14.69-3.22-5.28-4.88-10.4-3.71-17.19s-.51-14.42-9.22-17.07c-.34-.1-.41-1.07-.56-1.7-3-8.57-1.11-12.06,7.83-13.74.48,2,1,4,1.64,6.73,2.82-8.82,2.82-8.82,11.23-7.17l1.84-4.45,5.5,6.31,1.5-.78c-.69-3.83-1.38-7.67-2.22-12.32,8.54,2.61,16.17,6.2,20.52,15.8,1.85-2.79,3.33-5,4.83-7.25-3.51-4.16-11-4-12.87-12.12h9.83c-.3,1.41-.6,2.82-1.07,5.07l11,1.41c-2.85-5-7-4.84-10.2-6.23,0-.84-.05-1.67-.09-2.5,3.59,1.49,7.41,2.6,10.68,4.61,2.87,1.76,5.12,4.53,7.81,7L860.72,260l7.86-2V269.6l0,0-5.18-4.49c-8.34,5.87-6.94,19.11-17.29,23.69l-8.51-9.47,10.12,24.12-7.52,1.38c1.44,4.87,3.88,5.62,7.54,3.21l0-.1c-2,4.82-6.69,2.95-10.22,3.95-.63-2-1.27-3.92-2.14-6.59-1.21,4.79-1.21,4.79,2.37,6.36,1.19,2.06,2.51,4.07,3.56,6.21,2.5,5.1,5.86,10,7.1,15.46,2.71,11.86,2.84,13,14.08,22.72-2.43-6.57-6.52-12.21-5.86-17.23.82-6.23,1.55-11.71-2.14-17.19l4.88-1.87c1.39-3.72-6.29-4-2.12-8.27,3.67-3.73,6.57-.38,9.61,1.68.43-2.58.7-4.19,1-5.8a15.32,15.32,0,0,1,1.17,5.55c.09,2.06,0,4.13,0,6.57H862.7c2.45,5.75,4.55,11.11,7.08,16.26.47.95,2.7,1,4.87,1.76-.33-4.43-.93-7.77-.77-11.06.76-15.49,2.13-31,2.43-46.45.12-6-2.27-12,3.32-16.87.44-.38,0-1.75,0-2.65.21-4,.45-8.08.69-12.13l2.06-.25,8.24,24c3.29-4.45,5.55-7.51,8.64-11.71,1.25,5.48,1.84,10,3.32,14.12,1.4,3.92,3.72,7.5,5.63,11.23-3.13,7.82,2,13.43,5.2,19.57a1.29,1.29,0,0,1-.16.18c4.15,6.83,11.5,11.93,11.37,21.13,0,.65,1.15,1.32,1.72,1.93,5.15.4,6.79-2.29,7.9-6.9,1.27-5.21-2.07-6.06-4.21-6.61,0-5.84.25-10.68-.15-15.47-.12-1.4-2.1-2.65-3.23-4l.21.26c-.54-1.72-.53-4.2-1.71-5.06-9.92-7.29-8.32-17.49-7.84-27.8h-4.08l1.58-5.33c1.22-.42,2.83-.48,3.59-1.32a56.8,56.8,0,0,0,4.46-6.28c1.56,1.19,3,2.89,4.7,3.48,2.95,1,6.12,1.29,10.08,2l2.74-10.93-17.67,5.64-3.83-5.56c-1.54,5.36-2.66,9.28-3.8,13.2-2.42-5.94-1.24-11.72.28-17.67,6.63,2.93,7.59,3.29,13.33-.58a15.65,15.65,0,0,1,14.57-2.15c2,.66,4.16.95,6.25,1.41Q947.73,244.55,945.92,250.12ZM917,464.91c.32,4.74.32,4.74,4.24,4.93.36,2.22.69,4.46,1,6.7,1.73-3.71,1.73-3.71-1.21-6.48C919.9,468.57,918.73,467.07,917,464.91Zm97.64-136.34c4,2,8,3.94,12.05,5.89l3-6.62c-1.84-1.2-4.29-3.45-7.19-4.52-4.75-1.75-5.92,2.87-8.11,5.52.64-4.4-1.26-7-5.58-7.83-2-3.8-5.57-3.66-9.11-3.47-2.35-1.21-4.6-2.62-7-3.62-3.83-1.57-7.78-2.84-11.65-4.3-.53-.2-1.12-1.2-1.34-1.1-8.94,4.11-15.11-5.74-24-4.52.72,1.14,1.1,2.59,1.91,2.89,10.61,3.95,21.18,8.05,32,11.36,3.06.94,6.86-.55,10.32-.92,1.93,4.11,5.82,3.05,9.15,3.46Zm198,81.41c.2.16,1.26-.77,3.21-2l-5.6-.3c-.22-7-4.1-4.21-7.75-1.77l8,1.51A15.55,15.55,0,0,0,1212.64,410Zm19,148.66L1226,546.91c-3-2.91-6-5.73-9-8.49,1.48,7,2.3,7.75,9.19,8.27C1223.61,552.37,1227.8,555.47,1231.65,558.64ZM1286,731.47l2.37.42q.38-5,.74-10.06l-1.29-9.42-1.07.09c-.91,2.93-1.81,5.86-3,9.59l5.33-.28Zm24.22-131.1c1.1.09,2.29.22,4.26.44.33-8.92-7.13-13.92-8.74-21.54l-2,.8q3.22,10.11,6.44,20.24,3.45,8.93,6.88,17.85-1.11,3.95-2.24,7.9l1.86.33v-8.5C1316.74,611.21,1316,604.86,1310.17,600.37ZM990.51,298.26l5.34-3.56c-1.9-1-4.19-2.69-4.49-2.39-6.45,6.62-14.13,2.59-21.29,2.69a3,3,0,0,0-2.67.89c6.82,2,13.59,4.12,20.48,5.8,3.68.89,6.63-.6,7.71-4.62,2.22,3.94,5.26,6.07,10.12,6.17a18.58,18.58,0,0,1,9.24,2.83c3.86,2.49,6.08.76,8.5-1.78,1.15,2.07,1.79,5.26,3.52,6,9.51,4.35,14.16,14.32,22.77,19.31,6.34,3.66,10,11.56,18.81,11.8-.91-5.44-2.51-9.58-8.92-10.52-1.86-.27-3.9-3-4.84-5.06-2.77-6.07-5-10.74-13.65-11.31-6.1-.4-11.82-6.63-17.7-10.26-5.82-1.6-11.61-3.27-17.46-4.76-3.39-.87-6.86-1.43-10.29-2.13C994.52,297.53,993.4,297.73,990.51,298.26Zm72.82,152.56c-.36-2.42-.56-3.49-.68-4.57-.16-1.49-.27-3-.4-4.48.6-6,1.11-11.87,1.63-17.77-5.08-.12-5.08-.12-10.33,17.82l-4.7-3.8-4.68,4.42c6.42,6.73,12.3,1,18.31-.79C1059.79,444.2,1059.69,446.82,1063.33,450.82Zm-125.1-97.7c.55,2.6.55,2.6,4.2,1.34,4.59,10.91,9.13,21.85,13.75,32.76a15.2,15.2,0,0,0,4.94,6.75c-.34-2.15-.5-4.35-1-6.44a136.86,136.86,0,0,0-15.76-36.62c-.86-1.41-2.58-2.29-3.91-3.42,1.37-6.51-2.12-11.33-5.56-16.73-.75,5.52.21,8.1,5.8,16.46.56,2.45,1.18,4.84,1.79,7.24ZM800.17,387c-.1-1.19-1.13-2.36-1-3.49.55-7.3-2.56-13.18-8-19.94.71,4.39,1.17,7.33,1.68,10.27a43.82,43.82,0,0,1-.35,19.09c-1.32,5.14-.76,10.92-.24,16.34.65,6.71,2.26,13.31,3.19,20,.45,3.27,2.12,3.17,4.89,2.25.36-5.5.57-10.86,5.65-15.35,2.2-1.94.87-7.87,1.15-12,4.33,9.72,5.32,19.88-.28,29-5.32,8.67-4.43,17.95-4.82,27.53l4.32-7.8c5,7,1.68,14.1,3.63,21,1.75-11.58,3.51-23.15,5.56-36.66l2.84,4.44c2.26-5.45,4.44-10.73,6.65-16.07-1.08-1.88-5.2-2.3-2.81-5.93,4-6.12,4.42-13.07,5-20.16.8-9,2.9-18,4.24-27q1.46-9.82,2.29-19.72c.09-1.06-1.48-2.25-3-4.35-.31,4.9-.53,8.48-.79,12.54h-4.56c1-2.25,2.23-4.51-1-8.44.59,4,.9,6.11,1.21,8.23,3.7,6.38,1.37,12.87-.34,18.85a265.55,265.55,0,0,1-12.48,33.69L811.22,399l-1.4-.1-2.7,5.3-3.1,7.35-2.4-.47c-.12-3.36-.24-6.71-.37-10.07l-.15.3C800.8,396.54,800.57,391.77,800.17,387Zm12.4-98.93c-6.48.69-2.89,4.57-4.33,6.26A54.41,54.41,0,0,0,823,321.09c2.87,2.87,4.67,6.17,4.49,10.5-.17,4.05.2,7.7,5.39,9.29,1.76.55,2.59,4.4,3.66,6.81,1.23,2.77,2.05,5.73,3.49,8.36.46.86,2.3,1,4.87.19l-13.84-28.18h6.32c-5.14-6.81-9.26-13.14-14.27-18.64a21.52,21.52,0,0,1-6-17.53,35.92,35.92,0,0,0-1.4-13.93c-.23,2.7-1,5.48-.59,8.09.87,5.73-2.06,7.72-7,8.29C809.39,292.6,810.61,290.87,812.57,288.08Zm50,651.68c-1.6,8.21-3.27,15.68-8.61,22.15,1.68,14.15-9.15,23.58-13.56,35.43a13.6,13.6,0,0,1-8.7,8.74c-3,1-4.91,5.79-6.88,9.12a112.16,112.16,0,0,0-6.08,12,17.3,17.3,0,0,0-1.25,7.62c5.69-4.32,11.3-4.79,17.43-2.83,3.57,1.14,6.22.13,8.6-3.27a44.34,44.34,0,0,1,9-9c3.57-2.81,6.72-5.46,5.32-10.63-.14-.52-.11-1.47.2-1.69,6.79-4.7,7.5-13.15,12-19.32a66.94,66.94,0,0,0,12.94-42c-.16-6-1.79-12-3-18-.27-1.34-1.64-2.45-3.78-5.47C870.8,929.15,863.71,933.87,862.56,939.76ZM661.1,911.87c2.17,3.1,4.35,3.76,11.28,3.08.72,9.57,7.75,11.79,15.83,13,6,.89,12,2.42,18,3.46,11.87,2.07,20.76-7.19,17.8-18.68a9.15,9.15,0,0,0-3.84-4.85A126.67,126.67,0,0,0,708,901.52c-5-2.38-7.61,2.44-11.5,4.57-3.68-8.77-10.84-12-19-14.57-5.6-1.78-10.51-5.7-15.69-8.64C656.14,891.32,656,904.53,661.1,911.87Zm59.71-99a9.16,9.16,0,0,1,3.42,1.28c7.16,4.52,14.27,4.2,21.87.84,3.34-1.48,8.48-.14,10.81-2.27,2-1.86.62-7,1.94-10.28,1.93-4.71,1-8.39-2.07-11.88a128.24,128.24,0,0,0-9.4-10.09c-6.43-5.9-11.62-6.44-19.13-1.76-8.5,5.29-16.76,11-25,16.44C704.88,806.91,711.4,811.42,720.81,812.82Zm537.75-349.51c-2.58-5.22-4.31-11-7.58-15.71-2.38-3.44-6.64-5.57-10.07-8.28l-1.27,1.43c1.7,1.94,3.7,3.71,5,5.89s3,5,2.69,7.29c-.53,4.07.1,7.51,2.72,10.35,7,7.54,5.55,17.24,6.63,26.11a100,100,0,0,1-1.74,33.77c-.4,1.79-.15,4-1.08,5.37-5.23,7.87-4.14,17.11-5.86,25.72-1.19,6,1,9.57,7.52,12.89-.49,1.58-1,3.2-1.65,5.31l14.85,5.35c-2.16-7.79-4-13.74-5.43-19.81-2-8.58-4.57-17.18-5-25.87-.42-7.72,1.93-15.55,2.61-23.38a104.14,104.14,0,0,0,.23-17.3c-.32-4-.39-7,3.52-9.48,1.46-.91,1.72-3.73,2.05-4.52C1263.33,472.25,1260.81,467.84,1258.56,463.31Zm-383.3-69.19c2.46,4.44,4.48,8.11,6.51,11.78-2.08-12.39-9.3-23.35-6.66-36.68l-2.73.25c-.1,2.13-.7,4.37-.22,6.35,1.64,6.66-1.49,12.11-4.49,17.3-3.43,6-3.45,9.13-.45,14.51,2.4,4.31,3.33,9.44,5,14.53l5.22-2.29L891.6,440.5c-1-3.62,3.62-8.6-1.83-13.12-1.11-.92.27-5.16.87-7.78.64-2.82,1.71-5.55,2.64-8.47l6.22,10.64,1.75-.68a22.85,22.85,0,0,0,.25-3.19c-.06-1.21.08-3-.63-3.53-8.22-6.28-4.14-17.54-10-25.53l-2.14,4.47-2.72-2c-.55.65-1.26,1.09-1.28,1.56-.1,1.79-.57,3.91.17,5.33,3.64,6.89,1.19,12.68-3.38,19.75C877.31,410.14,873.21,403.53,875.26,394.12Zm271.34,30,7.19,16-1.62.9c-1.33-1.47-2.63-3-4-4.41s-2.32-2.87-3.82-3.69c-4.09-2.24-4.16-2.11-1.29-7.45l-7.9,2.71c6,9.48,11.5,18.55,17.38,27.38,2.14,3.22,5,2,7.78-.31,1.21,3.45,2.39,6.79,4,11.33,1.39-2.39,2.14-3.7,3.5-6.05.29,3.9.5,6.75.71,9.72l7.42-1.9c-.44-1.53-.49-3.24-1.33-4.31-3.53-4.49-6.79-8.79-2.53-14.71.54-.75-.65-2.75-1.08-4.16-1.69-5.66-3.4-11.31-5.62-18.69-.72,5-1.24,8.64-2.08,14.57l-8.58-17.66ZM1214.26,447h4.82c-.28-.82-.31-1.69-.68-1.88-4.85-2.38-7.78-6.4-10.3-11-1.14-2.1-3.47-4.91-6.58.14-3.69-8.28-5-17.86-16-22.11.91,2.93,1,4.79,2,6.06,5.74,7.88,7.21,17.24,9.67,26.3,1.6,5.88,3.81,11.6,5.88,17.34a4.73,4.73,0,0,0,2.21,2.55c7.32,3.09,11.26,8.89,13.48,16.2.13.42.94.64,3.09,2C1219.16,469.74,1214.57,458.79,1214.26,447ZM727.72,920.92a10.34,10.34,0,0,0,1.34,8.35c1,1.28,4.88.43,7.46.33.84,0,1.65-.73,2.49-1.07,10.09-4.1,11.35-13.07,2.76-19.81-.91-.72-1.95-1.28-2.9-1.89C732.86,909.93,729.66,915.18,727.72,920.92Zm167-546.7c1.74,7.11,10.52,6.93,13.39,14.81.06-6.42-2.86-11.76-7.92-18.79-3.63-5.05-6.41-10.71-9.57-16.1l-.64.25C891.57,361,893.11,367.62,894.73,374.22Zm386.56,251.29c-2.14,5.86,3.07,31.51,7.83,39.52C1288.85,651.29,1285.19,638.37,1281.29,625.51ZM1131.08,897.8a81.4,81.4,0,0,1-8.45-1.34c-1.6,4-13.22,4.2-6.24,13.85,1.14-2.79,1.5-5.79,3.19-7.26,1.84-1.59,4.87-2.22,7.46-2.45,5.4-.48,6.13.33,9,7.27C1139.35,901.18,1137.8,898.16,1131.08,897.8Zm-379.9-12.95c3.07,1.4,10.53.56,14.11-1.32-5.83-3.06-11.65-3.12-18.14-2.61C748.48,882.27,749.57,884.12,751.18,884.85ZM1285.47,584.7c-1.94-1.33-4.45-1.81-6.45-3.07-1.6-1-2.81-2.59-4.82-4.53-1.56,4.5,1.33,5.78,3.17,7.16,3.08,2.33,6.61,5.3,8.33,8.19C1291,589,1288.28,586.62,1285.47,584.7ZM869.77,439.46c-4.75,5-4.38,10.44,2.57,18.23Zm221.92,50c-2.67,7.84-2.48,12.55,1.1,23.1C1092.38,503.94,1092.06,497.16,1091.69,489.45Zm-84.25,105.92c.42-7.18-1.72-9.78-9.05-10.51ZM786.15,333.81c6.1,3.05,6.64,2.71,8.87-5.4Zm56.31,79.94.48-10.31C836.72,408.29,836.72,408.29,842.46,413.75Zm248.25,68.55c4-4.69,4-6.3,1-12.69C1088.57,473.84,1091.06,477.82,1090.71,482.3ZM978.65,562.39c3.32-4.54,3.3-7.79-3.28-10.2ZM1108.06,1242c-1.55-1.65-3.19-3.94-3.6-3.73a50.79,50.79,0,0,0-6.71,4.51l.87,1.24Zm171.9-630c-1.26-3.47-2.07-5.68-3.26-9-1.88,2.14-3.1,3.52-5,5.64ZM1064.75,790l-7.45-4.32C1059.88,794.46,1059.88,794.46,1064.75,790Zm-3.47-23.89a18.29,18.29,0,0,0-.28,4.27c4.54-1,4.54-1,3.2-8C1062.6,764.38,1061.58,765.14,1061.28,766.12ZM866.52,342.41c-4.09,5.19-4.09,5.2,2.2,10.73C868,349.49,867.26,346,866.52,342.41ZM1042.33,429l-5.13-9.54C1035.8,427.74,1035.8,427.74,1042.33,429Zm242.56,263.55c3-4.49,3-4.49-1-9.67C1284.29,686.41,1284.57,689.25,1284.89,692.54ZM954.48,1264.77l-2.44.71c.47,1.62,1,3.24,1.42,4.86l2.4-.7Zm27-454.48-2.65,2.37,3,4.06,3.21-2.93Zm-22.79,555.85,1.83.42,1.7-6.9-2.1-.13C959.65,1361.73,959.17,1363.94,958.69,1366.14ZM827.44,270.93l-2.68-1.87c-.79,1.73-1.57,3.47-2.36,5.21l1.66.31Zm281.69,633.73-.18-1.73h-5.59l.33,2.54Zm13.94-49.75c1.31-.42,2.3-.43,2.73-.93,1.87-2.12,1.6-4.26-.55-7.28C1124.42,849.85,1123.83,852.05,1123.07,854.91ZM932.37,523.17l1.37,0c-.15-3.3-.29-6.61-.44-9.91h-.93Zm205,315.36,1.85.56q.88-2.93,1.75-5.87l-2.19-.72ZM894.62,494.38l-3.23-.46v5.27L894,499C894.17,497.44,894.4,495.91,894.62,494.38Zm205.25-7.89c-3.89,4.7,1,4.4,3.16,5.36ZM834.89,422l2.13.17.39-6.06-2.1-.16Zm207.19,889.92c.54.07,1.23-1.07,1.84-1.66a10,10,0,0,0-2.37-2.11c-.35-.16-1.26.91-2.56,1.92C1040.33,1310.88,1041.16,1311.75,1042.08,1311.87ZM972.79,826.46c.51.14,1.27-.65,1.92-1a9.41,9.41,0,0,0-2.1-2.28c-.39-.22-1.36.6-2.83,1.32C971.12,825.41,971.88,826.22,972.79,826.46Zm62.6-442.67-1.05-1.55-5.16,3.27c.46.64.91,1.29,1.36,1.93Zm20.2,940c-.15.6.64,1.43,1,2.15a9.75,9.75,0,0,0,2.37-2.23c.25-.45-.52-1.46-1.21-3.16C1056.69,1322.05,1055.83,1322.83,1055.59,1323.77Zm47.73-816-1.81.35c.64,3,1.29,6.05,1.93,9.07l1.83-.07ZM969.7,548.67l1.78-1.2c-1-1.58-2-3.17-3-4.76l-2.18,1.61ZM1287.44,698.2l-1.56.49,1.74,5.88,1.8-.57ZM1080,317.59l.94-1.49-5.9-3.55-1,1.64Zm-26.41,448.09c0-.32-1-1-1.29-1a7.49,7.49,0,0,0-1.93,1.31l2.21,2.11A8.83,8.83,0,0,0,1053.63,765.68ZM781.85,456.05l-1.45-.16c-.28,1.74-.56,3.47-.85,5.21l1.85.18Zm179.06-163c-.48-.23-1-.66-1.43-.65s-.88.47-1.32.73l1.78,1.32C960.36,293.83,960.64,293.44,960.91,293.05Zm-148.06,691c2.68-2.05,2.68-2.05,1.47-6.22C813.71,980.44,813.37,981.91,812.85,984.08ZM953.2,479.82c-.17.36-.35.72-.53,1.08L957,483l.47-.91ZM965.37,1295l-.9-1-3.22,2.45,1.54,1.45ZM1261,583l-1.55.39,1,5.15,2-.71ZM1012.92,783.8c.14.06.59-.71.9-1.09l-2.87-2-.81,1.7A24.78,24.78,0,0,0,1012.92,783.8Zm231.29-233.12,1-.31-1.26-4.65-1.48.49Zm-140,707-2-1.14c-.17.54-.59,1.17-.44,1.59s.89.58,1.37.86Zm-164.59,16.36a11.78,11.78,0,0,0,1.37-.59,4.43,4.43,0,0,0-.37-.71,11.71,11.71,0,0,0-1.37.58A4.7,4.7,0,0,0,939.63,1274.05ZM863.81,476.94c.45.24,1.07.79,1.3.66.41-.24.6-.89.87-1.36l-1.3-.71ZM716.63,976.51c-.27-.06-.67.62-1,1,.42.36.81.92,1.28,1,.3,0,.72-.61,1.09-1C717.51,977.12,717.11,976.6,716.63,976.51Zm90.14-695.84h.71v-4.93h-.71Zm193,514.68c.21-.42.69-1,.57-1.22s-.77-.65-1.19-1l-.6,1.25Zm246.37-227a2.18,2.18,0,0,0,.7-.14c0-1,0-2,0-3l-1.39.29C1245.68,566.44,1245.89,567.4,1246.13,568.34Z"/><path d="M746,709.83l-.49-1.62-4.28,2.42c-1.5-6,.1-11.7,3.25-16.68s4.21-9.38-.24-14.1c-2-2.12-1.72-4.38.5-6.42,7.17-6.58,4.66-15.17,4.07-23-.52-6.74-2.83-13.35-4.27-19.63,4.31-1,8.28-1.23,11.57-2.86,6.21-3.05,12-6.93,18-10.42.76-.45,2.23-1.12,2.43-.88,3.36,4,5-1,7.43-1.28,3.25-.39,6.61.15,9.87-.19,7.26-.76,14.47-2.3,21.74-2.6a90.63,90.63,0,0,1,20.09,1.22c8.1,1.52,16,4.34,24,6.39,2,.51,4.56,1,6.24.17,5.21-2.49,9.53-.22,14,1.69,3.06,1.29,6.19,3.88,9.15,3.69,6.81-.43,11.27,3.36,16.18,6.77,3.83,2.67,7.92,4.72,13.63,4.49-3.47-3.44-6.12-6.06-8.76-8.69l1.54-1.86Q923.37,634.2,935,642c1,.68,1.76,1.72,2.77,2.41,3.67,2.52,6.76,6.39,12.29,4.34.95-.35,4.3,2.22,4.28,3.4-.19,9.06,6.14,9.94,12.8,10.17-1.83,8-1.82,8.21,4.86,11.81,2.47,1.33,3.82,3.51,5.62,5.32,5.31,5.36,9.29,10.54,7.75,18.64-.25,1.34,2,3,2.65,4.69,1.49,3.88,1.89,7.83-1.2,11.23-4.07,4.46-8.15,8.93-12.4,13.22-5,5-10.62,8.23-18.05,5.08-1-.4-2.33.27-3.51.26-6.89-.07-13.78-.16-20.67-.33-3.87-.1-7.78-.84-11.59-.47-4.59.44-9.81-2.18-9.7-4.73.16-4.16-1.5-5.32-4.11-7-10.68-6.75-14-11.75-17.56-24.33a20.77,20.77,0,0,0-5.06-8.28c-2.92-3-6.53-5.36-9.9-7.92-2.67-2-5.25-4.29-8.19-5.83-4.72-2.48-10.11-.38-13.67,5.08l7.54,2.38c-1.73,17.34-8.65,21.75-24.23,15.9-1.41-.52-3.55-1.59-4.27-1-5.54,4.35-10.51.42-15.65-.71-3.93-.87-7.82-2-12.56-3.15L809,684c-.33-.49-.67-1-1-1.48-5.41,3.55-10.73,7-17.57,6.09-1.26-.17-3.61,3.15-4.25,5.23-.3,1,2.18,2.9,3.48,4.32a7.74,7.74,0,0,0,1.44,1.09c-2.65,4.49-5.15,8.57-7.49,12.74-1.64,2.94-4,3.76-7,2.57a43.2,43.2,0,0,1-5.37-3.06c-.47-7.3-.92-14.25-1.37-21.2l-2-.28c-3.28,12.21-12.78,22.23-11.28,36.48-1.89-5.42-4.06-9.71-10-11.13-2-.48-3.49-3.23-5.21-4.94Zm133.38-61.76a11,11,0,0,0-4.49.58c-3.43,1.27-4.51,5-1.74,7.23a16.62,16.62,0,0,0,8.13,3.39c5,.61,9.69,1.18,13.19,5.28a4,4,0,0,0,2.24,1.5c5.26.36,10.54.53,17,.82C905.37,652.58,893.07,649,879.39,648.07Zm-13.77,8c2.29-4.66,1.2-6.59-1.41-8l-1.92,1.19C863.21,651.17,864.13,653,865.62,656.07Z"/><path d="M701.42,653.09l-21.49-19.84c-8.76,5.63-13.77-5.45-21.27-5.61-2.89,4.77-5.47,9.28-8.31,13.63-3.59,5.5-8,5.15-11-.76-.83-1.68-1.51-3.44-2.26-5.16l-1.34.32c-.46,3.24-.91,6.48-1.39,9.86l-7,4.51c-2.58-1.68-6-2.71-7.18-4.93-2.45-4.51-4-9.58-5.43-14.55a15.74,15.74,0,0,1,10.32-19.32c12.22-4,24.44-2,36.18,1.81a48.93,48.93,0,0,1,16.6,9.54c7.57,6.69,14.2,14.45,21,21.93,1.88,2.05,3.09,4.71,4.6,7.09ZM646.84,628.4c.14.77.27,1.55.41,2.32l6.08-1-.45-2.53Z"/><path d="M1210.44,368.13l4.42,4.34c8.79,1.54,10.1,2.79,11.57,11,5.71-1.73,3.58-5.29,1.77-8.44-5.59-9.73-13.9-16.81-23-23-1.48-1-3.32-1.65-4.54-2.91-7.38-7.57-16.49-11.3-26.8-12.58-.82-.1-1.55-.84-2.95-1.65.82-1.54,1.58-3,2.37-4.49-4.44-6.61-5-7-16.92-12,1.38,2.4,2.35,4.09,3.49,6.09l-4.52-.34.17-.23c.22,1.15,0,2.7.72,3.4,12.32,12.57,24.58,25.21,37.25,37.42,3.64,3.51,8.53,5.73,12.85,8.54l-7.07-9.22,5.74-.84-.23.22c.4-1.92.8-3.84,1.36-6.5C1210.51,360.31,1210.66,364.15,1210.44,368.13Z"/><path d="M718.09,354.7v-5.37c3.82,2.15,7.3,3.67,10.28,5.87,5.5,4.05,14.42,5.66,12,15.86-.23,1,.76,2.28,1.31,3.37,8.11,16,5.12,32.42,2.55,50.12-3-3.69-5.95-6.06-7.24-9.11a20.45,20.45,0,0,1-1-9.94c1-8.84-1.86-16-7.86-22.26-.24-.25.08-1,.15-1.58l9,.94-12.69-10.4c-.33-1.92-1.56-4.54-1-6.71,1.45-5.68-1.6-8.52-5.69-11.07Zm23.55,58c2.29-3.17,2.8-6-1.59-9.22C740.73,407.47,741.19,410.11,741.64,412.74Z"/><path d="M726.77,310.71l-1.53,1.93,5.6,2.74c-1.22,2.95-2.43,5.9-4.15,10.08-3.67-2.34-7.38-4.59-10.94-7-3.75-2.57-6.12-5.83-4.31-10.71v.05c1.53,2.1,3.52,2.14,2.93-.57-.39-1.79-1.77-2.44.72-3.62,1.12-.52,2.47-2.57,2.23-3.58-.83-3.53.64-4.76,3.72-5.73,3.64-1.15,5.64.43,7.83,3a30.14,30.14,0,0,0,6.3,5c5.28,3.53,10.12,16.08,7.93,21.69-1.15,2.95-3.37,3.23-5.71.95l.34.34a55.26,55.26,0,0,0-3.4-7.21c-.73-1.14-2.45-1.63-3.73-2.42ZM725.32,307a13.47,13.47,0,0,0,1.23-1L724,303.23l-1.17,1.06C723.66,305.2,724.45,306.14,725.32,307Z"/><path d="M1268.34,427.81l15.14,30.48c1.14-15.47-4.3-27.51-15.12-35.64a13.19,13.19,0,0,1-3-3.18c-5.95-8.86-11.71-17.85-17.78-26.63-2-2.85-4.66-5.19-7.42-8.19-.56,1.78-1,2.45-.86,2.81,3.46,7.13,6.88,14.29,10.55,21.3,3.11,5.93,6.6,11.67,9.82,17.55C1261.49,429.67,1262.23,430,1268.34,427.81Z"/><path d="M639.89,376.4c-.91,2.05-2.78,4.22-2.55,6.13.57,4.81-.7,8.2-4.64,11a31.85,31.85,0,0,0-5.75,5.9c-2.17,2.64-3.57,5.37-2.38,9.22.81,2.64.16,5.72.16,9.64,1.2.95,3.3,2.61,5.37,4.23,3.47-2.52,5.36-4.65,4.07-9.36-1.21-4.45,1.06-6,6.9-6.48,2.09-6.12,5.59-12.24,6-18.54.47-8-1.63-16.06-2.69-24.1,0,0-1.09.1-2.33.21.57,2.54,1.13,5,1.69,7.5l-4.05,4.79c4.56,3.47,4.56,3.47,3.42,9.4C642.29,383.63,641.09,380,639.89,376.4Z"/><path d="M647.11,582.11c-3.48,3.25-7.39,3.89-11.94,2.52a34.85,34.85,0,0,0-11.86-1.57c1.73.72,3.52,1.31,5.19,2.16,6.8,3.48,13.61,6.93,20.32,10.57,9,4.89,17.84,10.09,26.91,14.85,3,1.6,6.59,2.25,9.91,3.34.36-.74.72-1.49,1.09-2.23L647,582.18Z"/><path d="M917.3,742.64c-2.52-7-6.78-8-12-8-5.69,0-11.4-1.1-17.05-.84-6.84.32-13.64,1.57-22.26,2.63,6,6.48,12,6.2,17.67,7,5.93.83,11.84,1.77,17.75,2.75S910.27,738.76,917.3,742.64Z"/><path d="M1058.27,267c-2.94-3.9-5.66-8.16-12.54-7l-3.17,9.11,34,26.44c4.27-2.93,3.09-5.21.83-7.33-5.58-5.22-11.26-10.32-16.79-15.58a25.58,25.58,0,0,1-3-4.16c-.86.15-2.17.72-2.49.38a21.07,21.07,0,0,1-2.38-3.81,15.44,15.44,0,0,1,4-.09C1057.36,265.09,1057.76,266.28,1058.27,267Z"/><path d="M700.54,315.78c-5.92.83-5.92.83-6.72,9.14l.25-.28c-4.71,1.07-2.9-5.18-7.87-6.63l4.88,15.44c-4.8-.12-7.74-5.38-12.53-2.59-.45.26-2.8-1.46-3.17-2.62-.92-2.86-1.4-5.47-4.1-7.72-2.47-2.07-.67-6.22,2.71-7,1.66-.38,3.54.25,5.42.43.88-2,1.68-3.92,2.81-6.56,5.6,1.54,11,2.86,16.28,4.64.94.32,1.23,2.54,1.81,3.88Zm-22.19.69c-2.41,4.9-2.6,7.74,2.57,10.56C680,323.2,679.34,320.56,678.35,316.47Z"/><path d="M1301,499.49c.58,2.36.81,4.88,1.79,7.06,7.51,16.78,15.16,33.49,22.8,50.2.22.47.93.7,2.65,1.92-1.45-6.21-2.9-11.32-3.81-16.52-2.58-14.61-11.34-26.17-18.73-38.38-1-1.71-3.27-2.71-4.94-4Z"/><path d="M652.34,362.74l6.21,3.53c6.05-10.08,0-27.76-12.11-33.43-1.81,9.54,3.75,17.63,4.27,26.36C651.25,360.36,651.8,361.55,652.34,362.74Z"/><path d="M1115.74,307.41c.17-1.68.67-3,.28-3.34-4.87-4.54-9.22-10.66-15-12.86a32.82,32.82,0,0,1-12.43-8.14c-5-5.28-11.12-8-17.88-10.71C1074.84,279.41,1106.63,304.25,1115.74,307.41Z"/><path d="M718.09,354.7c-2.86-2.84-6-4.78-6.45-10-.58-6-4.82-11.28-10.22-15.28-3.44,9.05-1.61,15.93,4.41,21,2.17,1.82,3.39,4.85,4.88,7.42s2.67,5.12,4,7.73c6.84-3,4.18-7.25,3.13-11.15Z"/><path d="M1340.63,624.84c2-21.85-6.31-39.79-11.94-60.65-.66,4-1.56,6.09-1.23,8,.77,4.49,2.38,8.83,3.2,13.31,1.48,8,3.4,16.11,3.67,24.22C1334.52,615.51,1337.79,618.89,1340.63,624.84Z"/><path d="M979.33,666.77c3.34-5.89,5.54-9.77,7.76-13.7-5.9-3.46-11.37-7.33-19.54-2.85C971.18,655.33,974.56,660.06,979.33,666.77Z"/><path d="M1305.18,469.18c-1.8-15.45-11.32-27.15-19.83-41.06-.17,7.19,0,7,4,11.41,1.29,1.42,1.38,3.87,2.25,5.74,3.85,8.3,7.8,16.57,11.71,24.85Z"/><path d="M238.64,1306.89l18.61-9.85c-5.06-6-9.37.84-14.14-.75-4-1.34-9.27,1.1-15.4,2.09,4.06,4.17,10.25,3.28,11.17,8.68Z"/><path d="M746.3,299.1l6.57.38c-1.83-2.73-3.43-6.24-4.2-6.07-6.29,1.4-11-5.93-18.29-2.28.76,1.53,1.18,4.11,2.45,4.65,6.08,2.56,11.58,5.54,13.65,12.74l1.84-1Z"/><path d="M663.72,334c1.39-7.64,2.52-13.9,3.67-20.18-6.14-1.44-9.42-.51-10.06,4.27-.55,4.17.41,8.64,1.33,12.83C658.92,332,661.47,332.65,663.72,334Z"/><path d="M775.2,487.42l-2.59-7.11-4.89,3.84c-6.2-5.86-5.5-14.48-9.57-21.17-3.93,6.61-4.08,11.43,1.8,16.95C764.38,484.09,766.92,490.05,775.2,487.42Z"/><path d="M1155.3,324.14c-3.74-7.83-10.8-12.36-17.5-17.11-1.73-1.23-4.56-.89-6.89-1.27l.43-.59c2.83,3.53,5.45,7.25,8.56,10.51a105.74,105.74,0,0,0,9,7.76c2.06,1.73,4.22,2.55,6.59.48Z"/><path d="M1325.1,483.16a43.57,43.57,0,0,0-16.32-23.67,43.72,43.72,0,0,0,13.15,22.65c.76.69,2.26.58,3.41.84Z"/><path d="M711.35,382.08c-1.47-13.44-2.49-14.77-12.54-16.15,2.34,5.18,4.51,10.24,7,15.16.42.85,2.05,1.25,3.21,1.51C709.72,382.76,710.58,382.27,711.35,382.08Z"/><path d="M1131.34,305.17l-.43.59c-.18-1.13,0-2.89-.6-3.3-6.74-4.28-12.85-9.87-22.74-11.5,1.83,2.24,2.61,3.67,3.81,4.56a139.08,139.08,0,0,0,13.32,9.27C1126.42,305.78,1129.1,305.09,1131.34,305.17Z"/><path d="M737.39,324.93l.34.34-4.36-1.72c-1.16,9.5,4.5,16.6,5.94,24.87C742.69,340.06,739.31,332.57,737.39,324.93Z"/><path d="M754.84,338.25c2.11-11.16.94-13.59-7.62-15.89C747.75,328.52,751.43,336.2,754.84,338.25Z"/><path d="M631.66,308.63l7.65,8.12,6.81-9.13c-4.67-6.25-9.37.17-13.82-1.14Z"/><path d="M278.85,1270.2,267,1274.58c-.09.74-.17,1.48-.26,2.23,1.77,1,3.77,3.24,5.26,2.94C276.08,1278.93,278.4,1275.91,278.85,1270.2Z"/><path d="M630.09,358.37c.75,2.56-2.57,6.64,2.24,7.57,3.82.74,5.13-2.65,6.09-5.54a9.18,9.18,0,0,0-.31-7c-.74,1.8-1.49,3.61-2.16,5.25h-6Z"/><path d="M913.44,305.34a1.29,1.29,0,0,1-.16.18c1.32-1.59,2.66-3.18,4.11-4.91l-4.29-6.33,4.66.73-1.45-7.64L908,286.23Q910.73,295.79,913.44,305.34Z"/><path d="M675.45,417.46c1.37-1.84,3.65-3.54,4-5.56,1-6.26,1.25-12.65,1.83-19.41-4.22,2.41-4.61,6.48-4.86,10.6-.29,4.79-.55,9.59-.83,14.38Z"/><path d="M1193.88,394.7l1.8,1.22c3.25-6.21.65-10.31-9.12-12.25Z"/><path d="M749,354.5c1.08-5.73,3.56-11.57-1.92-17.83-.31,2.17-.92,3.68-.64,5,.69,3.18,2.15,6-.75,9.21-1.77,2-.78,3.05,2.87,4.6C748.7,355.16,748.85,354.83,749,354.5Z"/><path d="M652.34,362.74c-.54-1.19-1.09-2.38-1.63-3.54-.62-1.49-1.24-3-2.4-5.81-4.38,8.05,1.74,11.16,4.21,15.84C655,366.62,654.16,364.65,652.34,362.74Z"/><path d="M866,245.1c-2.13-2.29-3.51-5.73-8.43-5.36,1.08,3,1.64,5.56,2.94,7.72.91,1.49,3.31,3.62,4.2,3.28,2.82-1.09,2.76-3.56,1-5.91Z"/><path d="M735,721.28c1.46,2.78,2.27,5,3.68,6.69.61.75,2.57.82,3.72.48.53-.15,1.07-2.18.74-3C742,722.56,740.37,720.13,735,721.28Z"/><path d="M990.57,635.6c-.76-3.56-1.51-7.12-2.39-11.3l-7.87,4.38c2.72,1.62,4.64,2.48,6.18,3.78,1.13.95,1.77,2.48,2.62,3.75Z"/><path class="cls-1" d="M1226.43,383.5c-1.47-8.24-2.78-9.49-11.57-11,1.93,5.82,7.39,7.84,11.83,11Z"/><path d="M663.92,397c6.08-3.56,5.1-7.69,3.09-13C662.76,387.83,661.15,391.37,663.92,397Z"/><path d="M636.76,297.29,650,305.38C643.39,294.65,643.39,294.65,636.76,297.29Z"/><path d="M347.66,1215.44l-3.29,2.74c.54.6.89,1.35,1.28,1.37,4.53.26,7.87-.88,7.1-7H343Z"/><path d="M630,358.63l-2.27-6-7.23,15.3c3.22-.69,6-1,6.94-4.8.43-1.68,1.74-3.12,2.67-4.71A2.21,2.21,0,0,1,630,358.63Z"/><path d="M679.75,373.89c2.1-4.35,1.91-8.29-2.32-12.21C673.66,367.17,677.12,370.41,679.75,373.89Z"/><path d="M1323.37,576.87c.79-5.59.84-11-4.56-14.48Z"/><path d="M697.78,304h9.16C704.36,297.15,703.67,297,697.78,304Z"/><path d="M1015,633.43l-11.71-6.3C1007.51,636.35,1009.36,637.25,1015,633.43Z"/><path d="M669.64,406.79c2-5.33,5.5-8,5-13.64C670,396.57,667.39,399.67,669.64,406.79Z"/><path class="cls-1" d="M913.44,305.34q-2.7-9.55-5.41-19.11c-.08,0,0-.16.2-.46C905.11,293.59,910.28,299.2,913.44,305.34Z"/><path d="M788.59,263.68c-7.23-5.53-7.44,1.16-10.45,1.76l.81,2Z"/><path d="M1089.58,1308.36c4.41-1.48,9.54-1.83,12.07-7.4-6.07,0-9.39,3.17-12.05,7.44Z"/><path d="M1003.31,616.68c2.64-7.32,2.64-7.32-3.49-10.87,1.45,4.16,2.57,7.39,3.7,10.62Z"/><path d="M647,582.18l-15.24-4.44c4.3,5,9.73,5.06,15.36,4.39Z"/><path d="M656.28,393.27q1.29-5.58,2.57-11.17l-2.26-.51q-1.11,5.61-2.23,11.23Z"/><path d="M753.77,285.3c4.39,0,7.73-1.23,7.85-6.87-5.82-1-6.86,2.85-7.56,7.08Z"/><path d="M381.59,1203.32c2.36,7.55,2.36,7.55,7.36,5.18C386.81,1207,385,1205.73,381.59,1203.32Z"/><path d="M757.73,265.05h13.62C767.49,264.61,763.74,260.39,757.73,265.05Z"/><path d="M712.87,337.37c-.2-3-.11-6-.78-8.9-.21-.92-2.46-1.36-4.93-.77,1.89,3.22,3.79,6.43,5.71,9.6C712.9,337.24,712.87,337.37,712.87,337.37Z"/><path d="M249.61,1292.18l8.41-3.39c-5.4-3.38-7.32-1.06-9.27,1.18Z"/><path d="M856.94,289.82c3.08,1.23,5.47.89,5.58-3,.06-2-.59-4.05-1.15-7.53-1.82,4.39-3.11,7.51-4.39,10.63Z"/><path class="cls-1" d="M869,1284.44c1.6-1.3,2.81-2.84.63-4.47-3.9-2.91-7.84-3.31-11.44.66l.56.09c3.93.1,8.12-.48,10.51,3.84Z"/><path class="cls-1" d="M1205,363.21l-5.74.84,7.07,9.22a2.35,2.35,0,0,1,.88,1c.1-1.55.57-3.19.23-4.63A48.33,48.33,0,0,0,1205,363.21Z"/><path d="M661,693.27c5.49-1.55,5.49-1.55,4-7.58Z"/><path d="M1088.48,1317.71l8.91-3.58-7.44-2.46c-.46,2.36-.84,4.32-1.21,6.29Z"/><path d="M658.79,435.27l-4.32,8.05C659.85,441.71,659.85,441.71,658.79,435.27Z"/><path d="M761,441.4v9.26C763.46,445.86,763.46,445.86,761,441.4Z"/><path d="M749,354.5c-.14.33-.29.66-.44,1-2.27,3.87-.95,5.48,3.79,5.23C752.28,358,754.23,354.59,749,354.5Z"/><path d="M686.55,381.07q-.4-4.14-.79-8.28c-.92,3-3.43,6-1.83,8.9Z"/><path d="M629.28,526.66c1-4.25,1.72-7.37,2.61-11.21C627.44,521.28,627.44,521.28,629.28,526.66Z"/><path d="M1226.18,403.76l-7.19-6.45-1.34,1.31,6.91,7Z"/><path d="M754.65,449.35c.52,2.46,1.05,4.91,2,9.08C759.77,453.51,756.73,451.36,754.65,449.35Z"/><path d="M754.06,285.51h-9.59c-.05.27-.09.54-.14.81L756.51,290c-1.48-2.58-2.09-3.65-2.72-4.73Z"/><path d="M869.28,1284.56c-2.39-4.32-6.58-3.74-10.51-3.84C861.36,1284.51,864.72,1286.18,869.28,1284.56Z"/><path class="cls-1" d="M1058.27,267c-.51-.71-.91-1.9-1.55-2.05a15.44,15.44,0,0,0-4,.09,21.07,21.07,0,0,0,2.38,3.81c.32.34,1.63-.23,2.49-.38A7.75,7.75,0,0,1,1058.27,267Z"/><path d="M662.73,416.65c1.64-3.42,3-6.66-3.18-7.52Z"/><path d="M288.73,1272.16l5.59-1.52-.11-1.6a12,12,0,0,0-3.59-.23c-.94.24-1.68,1.26-2.51,1.93C288.32,1271.21,288.52,1271.69,288.73,1272.16Z"/><path d="M868.6,269.58c-1.3,1.95-2.61,3.89-4.22,6.29l4.84,4.29c-.27-4.48-.46-7.51-.64-10.55Z"/><path d="M647.45,369.49c.19,3.76.32,6.23.5,9.46C651.87,375.2,651.87,375.2,647.45,369.49Z"/><path d="M1057.81,752.46c-.44-1.91-.87-3.83-1.45-6.36-1.27.74-3.3,1.29-3.4,2.09-.48,3.68,1.77,4.68,5.06,4.11Z"/><path d="M726,722.09c-.75,1.49-1.47,2.4-1.58,3.39-.06.46,1.06,1.06,1.65,1.6a9.86,9.86,0,0,0,1.79-2.57C728,724.08,727,723.31,726,722.09Z"/><path d="M124.78,1466.48c.39-3.52.79-7,1.2-10.79-5.92,3.24-1.66,7-1.06,10.59Z"/><path d="M661.46,344.6l4,9.81C666.15,350.22,665.72,347.56,661.46,344.6Z"/><path d="M722.12,336.7c-1.6,5.25,3.51,6.15,6.71,8.19l-6.9-7.93Z"/><path d="M1123.37,336.49l7.26,4.15-5-6.34Z"/><path d="M1265.79,442.3l2.85,5.63,2.14-1.16-3.33-5.37Z"/><path d="M753.35,384.2l-3-6.7-2,.8,2.59,7.27Z"/><path d="M721.93,337c-3.87-4.08-3.87-4.08-9,.37,0,0,0-.09,0,0,3.14,1.18,6.3,2.11,9.24-.57A2.67,2.67,0,0,0,721.93,337Z"/><path d="M694.07,324.64c.22,1.45.45,2.9.67,4.34l2-.05c.08-1.65.16-3.3.25-5l-3.14.95Z"/><path d="M756,268.7l-6.16-1.13c-.16.68-.32,1.37-.49,2.05l5.88,1.65Z"/><path d="M1325.34,483c-.19,1.07-.9,2.76-.49,3.09a66.72,66.72,0,0,0,7.16,4.58,13.29,13.29,0,0,0-6.92-7.49Z"/><path class="cls-1" d="M949.54,239q-1.81,5.56-3.62,11.13c4.5-3,4-7,3.37-11.13A2.09,2.09,0,0,1,949.54,239Z"/><path d="M866,245.1l-.31-.27c.83-.36,1.95-.5,2.41-1.12a7.63,7.63,0,0,0,.8-3s-.66-.38-.79-.28c-.79.6-1.78,1.15-2.17,2S866,244.19,866,245.1Z"/><path d="M872.25,710.46l-5.66.75c.06.54.13,1.08.19,1.62l5.69-.77Z"/><path d="M893.8,234.35c.43,1.43.85,2.86,1.34,4.27a8.5,8.5,0,0,0,1.31-.37c-.3-1.49-.68-3-1.05-4.44Z"/><path d="M700.54,315.78l6,5.37c-.38-5.42-3.16-5.48-6.16-5.25Z"/><path d="M847.79,307.92l4.72,6.47,1.38-.22c-.38-2.19-.76-4.38-1.12-6.48-2.16.18-3.57.31-5,.38A.31.31,0,0,1,847.79,307.92Z"/><path d="M1313.44,556.5c0,.2-.23.26-.68.19.19.22.34.6.56.65,1.28.24,2.57.4,3.86.59l0-1.64Z"/><path d="M1254.35,392.51c-1.37-1.49-2.74-3-4.1-4.46l-1.14,1.07,4.19,4.38Z"/><path d="M1005.65,678.89l-3.44,1.47c.38.69.76,1.38,1.15,2.07l3.09-2.3Z"/><path d="M1157.12,357.58l3.74,3.36,1.06-1.15-3.63-3.47Z"/><path d="M924.91,1324.44c.8.76,1.75,1.88,1.91,1.77a13,13,0,0,0,2.24-2.15c-.63-.5-1.31-1.43-1.89-1.36S925.84,1323.67,924.91,1324.44Z"/><path d="M760.71,270.7l6.76,1.73c.17-.77.35-1.54.52-2.31l-6.75-1.21C761.06,269.5,760.89,270.1,760.71,270.7Z"/><path d="M996.49,247.55l-3.34-4.07c-.43.38-1.3,1-1.23,1.11.77,1.45,1.68,2.82,2.55,4.21Z"/><path d="M926.89,295.89l-3.67-2-1.24,1,3,3.53c.54-.95,1.08-1.9,1.65-2.83C926.68,295.63,926.89,295.89,926.89,295.89Z"/><path d="M729.7,996.72l-1.75,1a6.67,6.67,0,0,0,1.58,1.52c.26.13.91-.51,1.38-.8C730.5,997.89,730.1,997.29,729.7,996.72Z"/><path d="M794.9,1036.41a11.55,11.55,0,0,0,.77-2.52c0-.4-.76-1.23-.9-1.17a9.84,9.84,0,0,0-1.8,1.19Z"/><path d="M1199.27,382.38l3.54,4.48,2-1.89-3.79-4.41C1200.4,381.17,1199.83,381.77,1199.27,382.38Z"/><path d="M1011.55,1353l1,1.58a8,8,0,0,0,1.56-1.56c.13-.24-.47-.88-.74-1.34Z"/><path d="M999.67,623.05c.07-1.36.14-2.73.22-4.09a15.16,15.16,0,0,0-2.07,2.26c-.21.34.25,1.08.4,1.64Z"/><path d="M1339.14,509.26l1.88,3.89,1.42-.67-1.86-3.91Z"/><path d="M1003.52,616.43c2.5,2.84,4.32,1.73,7.4-2.38-3.68,1.27-5.64,1.93-7.6,2.62Z"/><path d="M894.76,253.17c.81-1.15,1.53-1.74,1.55-2.35s-.82-1-1.27-1.54c-.37.38-1,.75-1,1.14A11.07,11.07,0,0,0,894.76,253.17Z"/><path d="M730.54,339.19c-.77-1.68-1.53-3.35-2.29-5l-1.69.85q1.29,2.43,2.57,4.86Z"/><path d="M1033.8,1351.26l2-2.57-.94-.78-2.12,2.49Z"/><path d="M297.36,1257.86c-.78.38-1.67.68-1.65.82a10.08,10.08,0,0,0,.79,2c.47-.22,1.33-.43,1.34-.67A8.16,8.16,0,0,0,297.36,1257.86Z"/><path d="M848.26,710l3.57,1.32.38-1.25-3.69-1C848.43,709.43,848.35,709.72,848.26,710Z"/><path d="M675.56,417.47l1.48,8.16c3.19-3.81.38-5.83-1.56-8.15C675.45,417.46,675.56,417.47,675.56,417.47Z"/><path d="M657,427.4c-.16.82-.32,1.56-.47,2.31.52,0,1.21.22,1.51,0a2.15,2.15,0,0,0,.54-1.57C658.54,427.89,657.73,427.72,657,427.4Z"/><path d="M687.34,406.24l1.14,1.24a6.3,6.3,0,0,0,.79-1.94c0-.25-.88-.57-1.36-.87Z"/><path d="M1155.58,341.72l-3.61-2.48a10.85,10.85,0,0,0,.77,2.44C1152.86,341.91,1153.74,341.72,1155.58,341.72Z"/><path d="M1028.89,254.32c.59-.56,1.35-1.07,1.28-1.25a14.14,14.14,0,0,0-1.34-2.31c-.52.54-1.53,1.17-1.45,1.6C1027.52,253.07,1028.34,253.66,1028.89,254.32Z"/><path d="M1264.36,403.3c-.59-1-1.19-2-1.79-3l-1.19.74c.63,1,1.27,2,1.91,2.93Z"/><path d="M856.09,1287.5c.36-.4.94-.76,1-1.2s-.53-.79-.83-1.18c-.36.39-.94.75-1,1.2S855.78,1287.1,856.09,1287.5Z"/><path d="M1119.66,1243.44l3.1-.57-1.16-2-1.69,2.83Z"/><path d="M1132.58,1237.08c-.3.41-.59.83-.88,1.24.49.23,1,.7,1.47.61s.61-.78.91-1.2Z"/><path d="M1106.15,1301.59l.78,1.35a8.17,8.17,0,0,0,1-1.14c.07-.11-.3-.7-.4-.68A7.65,7.65,0,0,0,1106.15,1301.59Z"/><path d="M373.14,1208.46a9.3,9.3,0,0,0,2.35,1.19c.33,0,1.15-.77,1.08-1-.19-.64-.73-1.65-1.13-1.64C374.82,1207,374.21,1207.74,373.14,1208.46Z"/><path d="M1121,1208.7l.76,1.39,1.29-.76-1.07-1.81Z"/><path d="M1336.27,499.17c-.88-1.05-1.77-2.1-2.65-3.16l-1.07.92,2.7,3.12Z"/><path d="M1201,321.11l-4-2.19-.66,1.06,3.66,2.63Z"/><path class="cls-1" d="M741.35,710.39l4.66-.56-.49-1.62-4.28,2.42Z"/><path d="M688.64,653.24l1,1.68a9.47,9.47,0,0,0,1.63-1.73c.13-.22-.52-.89-.81-1.35Z"/><path d="M971.34,630.78l2.84,1.45.5-1-2.89-1.34Z"/><path d="M857,289.91V298c2-2.72.66-5.4,0-8.13Z"/><path d="M711.44,307.76c-2.67,1-6.24,1.25-4.34,6.3l4.34-6.34Z"/><path class="cls-1" d="M1267,1265.77c-4.38-.44-5.71,2.94-7,6.3l7-6.36Z"/><path class="cls-1" d="M1267,1265.71v-11.94l-1.82.11c.61,3.94,1.22,7.88,1.85,11.86Z"/><path class="cls-1" d="M1247.29,1249.47l-5.19,2.87.57,1.19,5.83-2.76Z"/><path class="cls-1" d="M396.35,1233.38c.24-4.82.32-6.45.51-10.08-7,6.24-17.18,3-22.15,13.52,5.56-.48,9-1.89,11.82-4.58S391.72,1227.65,396.35,1233.38Z"/><path class="cls-1" d="M372.16,1241.69c-5.82,1.13-9.64,1.79-13.4,2.64-3.3.74-7.75-1.66-10.52,3.6,7.38-.48,13.76-.72,20.08-1.46C369.43,1246.34,370.29,1244.11,372.16,1241.69Z"/><path class="cls-1" d="M240.06,1323.1l5,3.07,2.57-8.33c-4.46-1.11-7.2.21-7.3,5.5Z"/><path class="cls-1" d="M350.63,1228.12c-11.87-1.07-11.87-1.07-12.93,4.48Z"/><path class="cls-1" d="M343,1240.23c3.86,2,6-1.79,8.93-2.75-.13-.59-.26-1.17-.4-1.76l-9.09,1.81C342.58,1238.43,342.76,1239.33,343,1240.23Z"/><path class="cls-1" d="M369,1256.64l8.76-2.82-.39-1.49-9,1.84C368.58,1255,368.79,1255.82,369,1256.64Z"/><path class="cls-1" d="M363.43,1268.46c-1.11-1.52-2.22-3-4-5.47-1.83,4.65-.56,6.17,2.08,7Z"/><path class="cls-1" d="M368.83,1227.1c-2.43,1.6-4.12,3.45-2.16,6.73,5-1.17,3.78-4,1.92-6.93Z"/><path class="cls-1" d="M368.59,1226.9l10.55-2.77c-.07-.71-.15-1.42-.22-2.13h-8.29l.3-.26c-.69,1.79-1.38,3.58-2.09,5.36Z"/><path class="cls-1" d="M365.12,1278.3c1.08,1.46,1.71,2.32,2.35,3.17.79-.6,2.16-1.14,2.24-1.83a3.48,3.48,0,0,0-1.37-2.77C367.91,1276.59,366.61,1277.6,365.12,1278.3Z"/><path class="cls-1" d="M354.49,1260.68c.87-.77,1.46-1,1.63-1.48.55-1.5.95-3,1.51-4.89C353.33,1255.21,352.5,1257.09,354.49,1260.68Z"/><path class="cls-1" d="M121.66,1491.34c-1.75-2.39-1.75-2.39-6.86,2.32l7.14-2.62Z"/><path class="cls-1" d="M183.18,1343.06c-.05,3.6,1,5.78,6.9,3.71L183,1343.3Z"/><path class="cls-1" d="M389.23,1311.35l-3.45.68a12.29,12.29,0,0,0,2.08,1.76c.24.13.92-.56,1.41-.87C389.26,1312.4,389.25,1311.88,389.23,1311.35Z"/><path class="cls-1" d="M240.3,1323.34a11.11,11.11,0,0,0-3.19,1.47c-.49.43-.26,1.66.61,3.1.78-1.61,1.55-3.21,2.34-4.81Z"/><path class="cls-1" d="M333.25,1252.16c-.32-1.33-.65-2.66-1-4l-1.46.27.51,4Z"/><path class="cls-1" d="M207,1322.89c.05.87-.22,2,.23,2.54s1.68.56,2.56.8c-.2-.72-.19-1.67-.65-2.1a7.42,7.42,0,0,0-2.39-1Z"/><path class="cls-1" d="M395.81,1330.12l-1.69-3a17.33,17.33,0,0,0-.39,2.45A10.56,10.56,0,0,0,395.81,1330.12Z"/><path class="cls-1" d="M229.59,1347.26a8.89,8.89,0,0,0,2.67-.3,1.66,1.66,0,0,0,.37-1.51c-.48-.45-1.58-1-1.84-.79C230.26,1345.1,230.12,1346,229.59,1347.26Z"/><path class="cls-1" d="M144.76,1416.59h6.58c0-.47-.08-.94-.13-1.41-2.07.5-4.15,1-6.27,1.47Z"/><path class="cls-1" d="M876.19,922.77c-5.39,6.38-12.48,11.1-13.63,17-1.6,8.21-3.27,15.68-8.61,22.15,1.68,14.15-9.15,23.58-13.56,35.43a13.6,13.6,0,0,1-8.7,8.74c-3,1-4.91,5.79-6.88,9.12a112.16,112.16,0,0,0-6.08,12,17.3,17.3,0,0,0-1.25,7.62c5.69-4.32,11.3-4.79,17.43-2.83,3.57,1.14,6.22.13,8.6-3.27a44.34,44.34,0,0,1,9-9c3.57-2.81,6.72-5.46,5.32-10.63-.14-.52-.11-1.47.2-1.69,6.79-4.7,7.5-13.15,12-19.32a66.94,66.94,0,0,0,12.94-42c-.16-6-1.79-12-3-18C879.7,926.9,878.33,925.79,876.19,922.77Z"/><path class="cls-1" d="M661.78,882.88c-5.64,8.44-5.8,21.65-.68,29,2.17,3.1,4.35,3.76,11.28,3.08.72,9.57,7.75,11.79,15.83,13,6,.89,12,2.42,18,3.46,11.87,2.07,20.76-7.19,17.8-18.68a9.15,9.15,0,0,0-3.84-4.85A126.67,126.67,0,0,0,708,901.52c-5-2.38-7.61,2.44-11.5,4.57-3.68-8.77-10.84-12-19-14.57C671.87,889.74,667,885.82,661.78,882.88Z"/><path class="cls-1" d="M703.23,795.1c1.65,11.81,8.17,16.32,17.58,17.72a9.16,9.16,0,0,1,3.42,1.28c7.16,4.52,14.27,4.2,21.87.84,3.34-1.48,8.48-.14,10.81-2.27,2-1.86.62-7,1.94-10.28,1.93-4.71,1-8.39-2.07-11.88a128.24,128.24,0,0,0-9.4-10.09c-6.43-5.9-11.62-6.44-19.13-1.76C719.75,784,711.49,789.65,703.23,795.1Z"/><path class="cls-1" d="M1266.66,478.44c-3.33-6.19-5.85-10.6-8.1-15.13-2.58-5.22-4.31-11-7.58-15.71-2.38-3.44-6.64-5.57-10.07-8.28l-1.27,1.43c1.7,1.94,3.7,3.71,5,5.89s3,5,2.69,7.29c-.53,4.07.1,7.51,2.72,10.35,7,7.54,5.55,17.24,6.63,26.11a100,100,0,0,1-1.74,33.77c-.4,1.79-.15,4-1.08,5.37-5.23,7.87-4.14,17.11-5.86,25.72-1.19,6,1,9.57,7.52,12.89-.49,1.58-1,3.2-1.65,5.31l14.85,5.35c-2.16-7.79-4-13.74-5.43-19.81-2-8.58-4.57-17.18-5-25.87-.42-7.72,1.93-15.55,2.61-23.38a104.14,104.14,0,0,0,.23-17.3c-.32-4-.39-7,3.52-9.48C1266.07,482.05,1266.33,479.23,1266.66,478.44Z"/><path class="cls-1" d="M807.12,404.2l2.7-5.3,1.4.1,1.6,14.35a265.55,265.55,0,0,0,12.48-33.69c1.71-6,4-12.47.27-18.75l-.1.11H830c.26-4.06.48-7.64.79-12.54,1.49,2.1,3.06,3.29,3,4.35q-.82,9.89-2.29,19.72c-1.34,9-3.44,17.94-4.24,27-.63,7.09-1,14-5,20.16-2.39,3.63,1.73,4.05,2.81,5.93-2.21,5.34-4.39,10.62-6.65,16.07l-2.84-4.44c-2,13.51-3.81,25.08-5.56,36.66-2-6.89,1.33-14-3.63-21l-4.32,7.8c.39-9.58-.5-18.86,4.82-27.53,5.6-9.12,4.61-19.28.28-29ZM809.5,446a6.74,6.74,0,0,0,1.73-1.29c.19-.28-.24-1-.39-1.51l-1.92.92Z"/><path class="cls-1" d="M881.54,417.91c-4.23-7.77-8.33-14.38-6.28-23.79,2.46,4.44,4.48,8.11,6.51,11.78-2.08-12.39-9.3-23.35-6.66-36.68l-2.73.25c-.1,2.13-.7,4.37-.22,6.35,1.64,6.66-1.49,12.11-4.49,17.3-3.43,6-3.45,9.13-.45,14.51,2.4,4.31,3.33,9.44,5,14.53l5.22-2.29L891.6,440.5c-1-3.62,3.62-8.6-1.83-13.12-1.11-.92.27-5.16.87-7.78.64-2.82,1.71-5.55,2.64-8.47l6.22,10.64,1.75-.68a22.85,22.85,0,0,0,.25-3.19c-.06-1.21.08-3-.63-3.53-8.22-6.28-4.14-17.54-10-25.53l-2.14,4.47-2.72-2c-.55.65-1.26,1.09-1.28,1.56-.1,1.79-.57,3.91.17,5.33C888.56,405.05,886.11,410.84,881.54,417.91Z"/><path class="cls-1" d="M1154.73,423.38l-8.13.74,7.19,16-1.62.9c-1.33-1.47-2.63-3-4-4.41s-2.32-2.87-3.82-3.69c-4.09-2.24-4.16-2.11-1.29-7.45l-7.9,2.71c6,9.48,11.5,18.55,17.38,27.38,2.14,3.22,5,2,7.78-.31,1.21,3.45,2.39,6.79,4,11.33,1.39-2.39,2.14-3.7,3.5-6.05.29,3.9.5,6.75.71,9.72l7.42-1.9c-.44-1.53-.49-3.24-1.33-4.31-3.53-4.49-6.79-8.79-2.53-14.71.54-.75-.65-2.75-1.08-4.16-1.69-5.66-3.4-11.31-5.62-18.69-.72,5-1.24,8.64-2.08,14.57Z"/><path class="cls-1" d="M1221.85,482.55c-2.69-12.81-7.28-23.76-7.59-35.58h4.82c-.28-.82-.31-1.69-.68-1.88-4.85-2.38-7.78-6.4-10.3-11-1.14-2.1-3.47-4.91-6.58.14-3.69-8.28-5-17.86-16-22.11.91,2.93,1,4.79,2,6.06,5.74,7.88,7.21,17.24,9.67,26.3,1.6,5.88,3.81,11.6,5.88,17.34a4.73,4.73,0,0,0,2.21,2.55c7.32,3.09,11.26,8.89,13.48,16.2C1218.89,481,1219.7,481.17,1221.85,482.55Z"/><path class="cls-1" d="M796.22,275.28c.48,4.07,1.49,8.17,1.31,12.22-.35,7.55,2.58,14.75,1.6,22.49-.41,3.25,2.82,7.16,4.87,10.48,4.52,7.34,9.35,14.5,14.06,21.72l-.18.23c5.2-6.45,5.3-9.57.89-16.28-3.17-4.82-6.16-9.76-9.17-14.69-3.22-5.28-4.88-10.4-3.71-17.19s-.51-14.42-9.22-17.07c-.34-.1-.41-1.07-.56-1.7Z"/><path class="cls-1" d="M808.22,294.34A54.6,54.6,0,0,0,823,321.09c2.87,2.87,4.67,6.17,4.49,10.5-.17,4.05.2,7.7,5.39,9.29,1.76.55,2.59,4.4,3.66,6.81,1.23,2.77,2.05,5.73,3.49,8.36.46.86,2.3,1,4.87.19l-13.84-28.18h6.32c-5.14-6.81-9.26-13.14-14.27-18.64a21.52,21.52,0,0,1-6-17.53,35.92,35.92,0,0,0-1.4-13.93c-.23,2.7-1,5.48-.59,8.09.87,5.73-2.06,7.72-7,8.29Z"/><path class="cls-1" d="M807.12,404.2l-3.1,7.35-2.4-.47q-.18-5-.37-10.05c-1.07,2.23-2.14,4.43-3.92,8.12V396l1.23-.23c.85,1.84,1.69,3.68,2.54,5.53-.3-4.77-.53-9.54-.93-14.3-.1-1.19-1.13-2.36-1-3.49.55-7.3-2.56-13.18-8-19.94.71,4.39,1.17,7.33,1.68,10.27a43.82,43.82,0,0,1-.35,19.09c-1.32,5.14-.76,10.92-.24,16.34.65,6.71,2.26,13.31,3.19,20,.45,3.27,2.12,3.17,4.89,2.25.36-5.5.57-10.86,5.65-15.35,2.2-1.94.87-7.87,1.15-12Z"/><path class="cls-1" d="M738.87,906.83c-6,3.1-9.21,8.35-11.15,14.09a10.34,10.34,0,0,0,1.34,8.35c1,1.28,4.88.43,7.46.33.84,0,1.65-.73,2.49-1.07,10.09-4.1,11.35-13.07,2.76-19.81C740.86,908,739.82,907.44,738.87,906.83Z"/><path class="cls-1" d="M1023.46,304.28c1.14,2.08,1.78,5.27,3.51,6.06,9.51,4.35,14.16,14.32,22.77,19.31,6.34,3.66,10,11.56,18.81,11.8-.91-5.44-2.51-9.58-8.92-10.52-1.86-.27-3.9-3-4.84-5.06-2.77-6.07-5-10.74-13.65-11.31-6.1-.4-11.82-6.63-17.7-10.26Z"/><path class="cls-1" d="M1093.73,1290.61c.4-2.36.8-4.71,1.28-7.57l-4.81,1.9c-.45-8.61,4.55-14.45,17.77-20.84-2.49-.27-4.86-.66-7.24-.76-5.43-.24-9.6,1.8-11.52,7.17-1.33,3.74-2.37,7.58-3.58,11.36-.72,2.26-1.53,4.49-2.6,7.63,3.57.28,7.25.56,10.93.86Z"/><path class="cls-1" d="M940.59,347.27c.61,2.4,1.23,4.79,1.84,7.19h0c4.57,10.92,9.11,21.86,13.73,32.77a15.2,15.2,0,0,0,4.94,6.75c-.34-2.15-.5-4.35-1-6.44a136.86,136.86,0,0,0-15.76-36.62c-.86-1.41-2.58-2.29-3.91-3.42Z"/><path class="cls-1" d="M1062.33,441.71q.78-8.85,1.55-17.71c-5.08-.12-5.08-.12-10.33,17.82l-4.7-3.8-4.68,4.42c6.42,6.73,12.3,1,18.31-.79Z"/><path class="cls-1" d="M999.71,317.55c-2.33-1.22-4.58-2.63-7-3.63-3.83-1.57-7.78-2.84-11.65-4.3-.53-.2-1.12-1.2-1.34-1.1-8.94,4.11-15.11-5.74-24-4.52.72,1.14,1.1,2.59,1.91,2.89,10.61,3.95,21.18,8.05,32,11.36,3.06.94,6.86-.55,10.33-.93Z"/><path class="cls-1" d="M890,354.39c1.58,6.61,3.12,13.23,4.74,19.83,1.74,7.11,10.52,6.93,13.39,14.81.06-6.42-2.86-11.76-7.92-18.79-3.63-5.05-6.41-10.71-9.57-16.1Z"/><path class="cls-1" d="M1289.12,665c-.27-13.74-3.93-26.66-7.83-39.52C1279.15,631.37,1284.36,657,1289.12,665Z"/><path class="cls-1" d="M995.65,297.32l-5.14.94,5.34-3.56c-1.9-1-4.19-2.69-4.49-2.39-6.45,6.62-14.13,2.59-21.29,2.69a3,3,0,0,0-2.67.89c6.82,2,13.59,4.12,20.48,5.8,3.68.89,6.63-.6,7.72-4.58A1.49,1.49,0,0,1,995.65,297.32Z"/><path class="cls-1" d="M1136.05,907.87c3.3-6.69,1.75-9.71-5-10.07a81.4,81.4,0,0,1-8.45-1.34c-1.6,4-13.22,4.2-6.24,13.85,1.14-2.79,1.5-5.79,3.19-7.26,1.84-1.59,4.87-2.22,7.46-2.45C1132.44,900.12,1133.17,900.93,1136.05,907.87Z"/><path class="cls-1" d="M1014.64,328.6l12.08,5.86,3-6.62c-1.84-1.2-4.29-3.45-7.19-4.52-4.75-1.75-5.92,2.87-8.11,5.52Z"/><path class="cls-1" d="M922.89,250.09c1.56,1.2,3,2.9,4.7,3.49,2.95,1,6.12,1.29,10.08,2l2.74-10.93-17.67,5.64Z"/><path class="cls-1" d="M1310.08,600.33l4.35.48c.33-8.92-7.13-13.92-8.74-21.54l-2,.8c2.15,6.74,4.29,13.49,6.49,20.26C1310.21,600.35,1310.08,600.33,1310.08,600.33Z"/><path class="cls-1" d="M1023.44,304.3c-5.82-1.6-11.61-3.27-17.46-4.76-3.39-.87-6.86-1.43-10.31-2.17,0-.05,0-.22-.07-.26,2.21,3.9,5.25,6,10.11,6.13a18.58,18.58,0,0,1,9.24,2.83c3.86,2.49,6.08.76,8.5-1.78Z"/><path class="cls-1" d="M747.15,880.92c1.33,1.35,2.42,3.2,4,3.93,3.07,1.4,10.53.56,14.11-1.32C759.46,880.47,753.64,880.41,747.15,880.92Z"/><path class="cls-1" d="M1285.7,592.45c5.33-3.47,2.58-5.83-.23-7.75-1.94-1.33-4.45-1.81-6.45-3.07-1.6-1-2.81-2.59-4.82-4.53-1.56,4.5,1.33,5.78,3.17,7.16C1280.45,586.59,1284,589.56,1285.7,592.45Z"/><path class="cls-1" d="M1103.27,330c-2.9-1.36-6.23-2.22-8.6-4.22s-4-5.24-6.68-7.16c1.57,8.25,4.16,10.72,16,16.48-.38-2.17-.66-3.77-1-5.37Z"/><path class="cls-1" d="M872.34,457.69l-2.57-18.23C865,444.45,865.39,449.9,872.34,457.69Z"/><path class="cls-1" d="M1092.79,512.55c-.41-8.61-.73-15.39-1.1-23.1C1089,497.29,1089.21,502,1092.79,512.55Z"/><path class="cls-1" d="M998.39,584.86l9.05,10.51C1007.86,588.19,1005.72,585.59,998.39,584.86Z"/><path class="cls-1" d="M1316.61,617.89c.13-6.68-.63-13-6.48-17.54-.05,0,.08,0,0,0q3.38,8.89,6.84,17.83Z"/><path class="cls-1" d="M940.4,347.49c1.37-6.51-2.12-11.33-5.56-16.73-.75,5.52.21,8.1,5.77,16.49Z"/><path class="cls-1" d="M795,328.41l-8.87,5.4C792.25,336.86,792.79,336.52,795,328.41Z"/><path class="cls-1" d="M842.94,403.44c-6.22,4.85-6.22,4.85-.48,10.31Z"/><path class="cls-1" d="M1091.7,469.61c-3.13,4.23-.64,8.21-1,12.69C1094.66,477.61,1094.76,476,1091.7,469.61Z"/><path class="cls-1" d="M975.37,552.19l3.28,10.2C982,557.85,982,554.6,975.37,552.19Z"/><path class="cls-1" d="M1098.62,1244l9.44-2c-1.55-1.65-3.19-3.94-3.6-3.73a50.79,50.79,0,0,0-6.71,4.51Z"/><path class="cls-1" d="M1271.72,608.63l8.24,3.31c-1.26-3.47-2.07-5.68-3.26-9C1274.82,605.13,1273.6,606.51,1271.72,608.63Z"/><path class="cls-1" d="M1057.3,785.69c2.58,8.77,2.58,8.77,7.45,4.32Z"/><path class="cls-1" d="M845.74,246.5c-.3,1.41-.6,2.82-1.07,5.07l11,1.41c-2.85-5-7-4.84-10.2-6.23Z"/><path class="cls-1" d="M922.74,250.34l-3.83-5.56c-1.54,5.36-2.66,9.28-3.8,13.2l-.26-.28c1.21-.42,2.82-.48,3.58-1.32a56.8,56.8,0,0,0,4.46-6.28Z"/><path class="cls-1" d="M1289.06,721.83l-1.29-9.42-1.07.09c-.91,2.93-1.81,5.86-3,9.59l5.33-.28Z"/><path class="cls-1" d="M1064.2,762.43c-1.6,2-2.62,2.71-2.92,3.69a18.29,18.29,0,0,0-.28,4.27C1065.54,769.36,1065.54,769.36,1064.2,762.43Z"/><path class="cls-1" d="M868.72,353.14c-.74-3.65-1.46-7.14-2.2-10.73C862.43,347.6,862.43,347.61,868.72,353.14Z"/><path class="cls-1" d="M1037.2,419.45c-1.4,8.29-1.4,8.29,5.13,9.54Z"/><path class="cls-1" d="M1283.94,682.87c.35,3.54.63,6.38,1,9.67C1287.93,688.05,1287.93,688.05,1283.94,682.87Z"/><path class="cls-1" d="M955.86,1269.64l-1.38-4.87-2.44.71c.47,1.62,1,3.24,1.42,4.86Z"/><path class="cls-1" d="M1210.44,368.13c.22-4,.07-7.82-4.35-11.2-.56,2.66-1,4.58-1.36,6.5Z"/><path class="cls-1" d="M1226.09,546.82l-9.08-8.4c1.48,7,2.3,7.75,9.19,8.27Z"/><path class="cls-1" d="M985.09,813.79l-3.61-3.5-2.65,2.37,3,4.06Z"/><path class="cls-1" d="M960.12,1359.53c-.47,2.2-1,4.41-1.43,6.61l1.83.42,1.7-6.9Z"/><path class="cls-1" d="M824.06,274.58l3.38-3.65-2.68-1.87c-.79,1.73-1.57,3.47-2.36,5.21Z"/><path class="cls-1" d="M1103.69,905.47l5.44-.81-.18-1.73h-5.59Z"/><path class="cls-1" d="M1226.2,546.69c-2.59,5.68,1.6,8.78,5.45,11.95-1.88-3.91-3.75-7.82-5.59-11.77C1226.09,546.82,1226.2,546.69,1226.2,546.69Z"/><path class="cls-1" d="M1125.25,846.7c-.83,3.15-1.42,5.35-2.18,8.21,1.31-.42,2.3-.43,2.73-.93C1127.67,851.86,1127.4,849.72,1125.25,846.7Z"/><path class="cls-1" d="M932.37,513.24v9.93l1.37,0c-.15-3.3-.29-6.61-.44-9.91Z"/><path class="cls-1" d="M1138.8,832.5l-1.41,6,1.85.56q.88-2.93,1.75-5.87Z"/><path class="cls-1" d="M894,499c.22-1.53.45-3.06.67-4.59l-3.23-.46v5.27Z"/><path class="cls-1" d="M1210.25,407.66c-.22-7-4.1-4.21-7.75-1.77l8,1.51Z"/><path class="cls-1" d="M1103,491.85l-3.16-5.36C1096,491.19,1100.83,490.89,1103,491.85Z"/><path class="cls-1" d="M835.31,415.9l-.42,6.05,2.13.17.39-6.06Z"/><path class="cls-1" d="M1039,1310c1.34.86,2.17,1.73,3.09,1.85.54.07,1.23-1.07,1.84-1.66a10,10,0,0,0-2.37-2.11C1041.2,1307.94,1040.29,1309,1039,1310Z"/><path class="cls-1" d="M969.78,824.47c1.34.94,2.1,1.75,3,2,.51.14,1.27-.65,1.92-1a9.41,9.41,0,0,0-2.1-2.28C972.22,822.93,971.25,823.75,969.78,824.47Z"/><path class="cls-1" d="M1030.54,387.44l4.85-3.65-1.05-1.55-5.16,3.27C1029.64,386.15,1030.09,386.8,1030.54,387.44Z"/><path class="cls-1" d="M1057.75,1320.53c-1.06,1.52-1.92,2.3-2.16,3.24-.15.6.64,1.43,1,2.15a9.75,9.75,0,0,0,2.37-2.23C1059.21,1323.24,1058.44,1322.23,1057.75,1320.53Z"/><path class="cls-1" d="M1105.27,517.16l-2-9.35-1.81.35c.64,3,1.29,6.05,1.93,9.07Z"/><path class="cls-1" d="M966.31,544.32l3.39,4.35,1.78-1.2c-1-1.58-2-3.17-3-4.76Z"/><path class="cls-1" d="M1289.42,704l-2-5.8-1.56.49,1.74,5.88Z"/><path class="cls-1" d="M1074,314.19l6,3.4.94-1.49-5.9-3.55Z"/><path class="cls-1" d="M837.57,311.87c-.63-2-1.27-3.92-2.14-6.59-1.21,4.79-1.21,4.79,2.37,6.36Z"/><path class="cls-1" d="M1289.07,721.81l-3.12,9.66,2.37.42q.38-5,.74-10.06Z"/><path class="cls-1" d="M1008.83,321c-2-3.8-5.56-3.66-9.11-3.46a2.2,2.2,0,0,1,.2-.23c1.92,4.12,5.81,3.06,9.15,3.47Z"/><path class="cls-1" d="M1052.62,768.14a8.83,8.83,0,0,0,1-2.46c0-.32-1-1-1.29-1a7.49,7.49,0,0,0-1.93,1.31Z"/><path class="cls-1" d="M818.06,342.19v8.48l2.52-.41c-.91-2.59-1.83-5.19-2.72-7.81Z"/><path class="cls-1" d="M781.4,461.28l.45-5.23-1.45-.16c-.28,1.74-.56,3.47-.85,5.21Z"/><path class="cls-1" d="M1316.61,617.89l.39.27-2.25,7.9,1.86.33Z"/><path class="cls-1" d="M959.94,294.45c.42-.62.7-1,1-1.4-.48-.23-1-.66-1.43-.65s-.88.47-1.32.73Z"/><path class="cls-1" d="M1014.42,328.84c.64-4.4-1.26-7-5.59-7.83l.24-.22,5.59,7.79Z"/><path class="cls-1" d="M814.32,977.86c-.61,2.58-1,4-1.47,6.22C815.53,982,815.53,982,814.32,977.86Z"/><path class="cls-1" d="M957.45,482.12l-4.25-2.3c-.17.36-.35.72-.53,1.08L957,483Z"/><path class="cls-1" d="M1007.06,267.94c-2.93,3.65-1.42,6.15,2.83,7.87-1-2.57-2.08-5.14-3.06-7.75A1.76,1.76,0,0,1,1007.06,267.94Z"/><path class="cls-1" d="M921.3,469.81l1,6.73c1.73-3.71,1.73-3.71-1.21-6.48Z"/><path class="cls-1" d="M1062.48,441.65c-2.69,2.55-2.79,5.17.85,9.17-.36-2.42-.56-3.49-.68-4.57-.16-1.49-.27-3-.36-4.51A1.43,1.43,0,0,1,1062.48,441.65Z"/><path class="cls-1" d="M962.79,1297.88l2.58-2.88-.9-1-3.22,2.45Z"/><path class="cls-1" d="M1262.47,587.81,1261,583l-1.55.39,1,5.15Z"/><path class="cls-1" d="M1010.14,782.42a24.78,24.78,0,0,0,2.78,1.38c.14.06.59-.71.9-1.09l-2.87-2Z"/><path class="cls-1" d="M1242.47,546.21l1.74,4.47,1-.31-1.26-4.65Z"/><path class="cls-1" d="M1103.17,1259l1-1.31-2-1.14c-.17.54-.59,1.17-.44,1.59S1102.69,1258.72,1103.17,1259Z"/><path class="cls-1" d="M1210.48,407.4a15.55,15.55,0,0,0,2.16,2.58c.2.16,1.26-.77,3.21-2l-5.6-.3Z"/><path class="cls-1" d="M939.26,1273.33a4.7,4.7,0,0,0,.37.72,11.78,11.78,0,0,0,1.37-.59,4.43,4.43,0,0,0-.37-.71A11.71,11.71,0,0,0,939.26,1273.33Z"/><path class="cls-1" d="M942.43,354.46l-4.2-1.34c.55,2.6.55,2.6,4.21,1.33Z"/><path class="cls-1" d="M825.47,361c1-2.25,2.23-4.51-1-8.44.59,4,.9,6.11,1.17,8.28A1.64,1.64,0,0,1,825.47,361Z"/><path class="cls-1" d="M921.08,470.06c-1.18-1.49-2.35-3-4.05-5.15.32,4.74.32,4.74,4.26,4.92Z"/><path class="cls-1" d="M864.68,475.53l-.87,1.41c.45.24,1.07.79,1.3.66.41-.24.6-.89.87-1.36Z"/><path class="cls-1" d="M718,977.51c-.48-.39-.88-.91-1.36-1-.27-.06-.67.62-1,1,.42.36.81.92,1.28,1C717.2,978.52,717.62,977.86,718,977.51Z"/><path class="cls-1" d="M806.77,275.74v4.93h.71v-4.93Z"/><path class="cls-1" d="M998.54,794.42l1.22.93c.21-.42.69-1,.57-1.22s-.77-.65-1.19-1Z"/><path class="cls-1" d="M948.88,1340.47c1-1.45,1.91-2.9,3.07-4.67-4.56,0-2.75,2.94-2.94,4.86Z"/><path class="cls-1" d="M1245.47,565.48c.21,1,.42,1.92.66,2.86a2.18,2.18,0,0,0,.7-.14c0-1,0-2,0-3Z"/><path class="cls-1" d="M808.18,294.34c1.21-1.74,2.43-3.47,4.39-6.26-6.48.69-2.89,4.57-4.34,6.26Z"/><path class="cls-1" d="M913.76,666.87c-8.39-14.29-20.69-17.91-34.37-18.8a11,11,0,0,0-4.49.58c-3.43,1.27-4.51,5-1.74,7.23a16.62,16.62,0,0,0,8.13,3.39c5,.61,9.69,1.18,13.19,5.28a4,4,0,0,0,2.24,1.5C902,666.41,907.26,666.58,913.76,666.87Z"/><path class="cls-1" d="M862.29,649.3c.92,1.87,1.84,3.73,3.33,6.77,2.29-4.66,1.2-6.59-1.41-8Z"/><path class="cls-1" d="M652.88,627.21l-6,1.19c.14.77.27,1.55.41,2.32l6.08-1Z"/><path class="cls-1" d="M740.05,403.52c.68,4,1.14,6.59,1.59,9.22C743.93,409.57,744.44,406.74,740.05,403.52Z"/><path class="cls-1" d="M722.86,304.29c.8.91,1.59,1.85,2.46,2.7a13.47,13.47,0,0,0,1.23-1L724,303.23Z"/><path class="cls-1" d="M730.6,315.64l-3.83-4.93-1.53,1.93,5.6,2.74Z"/><path class="cls-1" d="M639.89,376.4c1.2,3.61,2.4,7.23,3.18,9.56,1.14-5.93,1.14-5.93-3.42-9.4Z"/><path class="cls-1" d="M680.92,327c-.93-3.83-1.58-6.47-2.57-10.56C675.94,321.37,675.75,324.21,680.92,327Z"/><path d="M808.92,444.13c.26.85.42,1.37.59,1.88a6.86,6.86,0,0,0,1.72-1.29c.19-.28-.24-1-.39-1.51Z"/><path d="M801.1,401.31c-.85-1.85-1.69-3.69-2.54-5.53l-1.23.23v13.14c1.78-3.69,2.85-5.89,3.92-8.12C801.25,401,801.1,401.31,801.1,401.31Z"/></svg>