<svg id="Layer_4" data-name="Layer 4" xmlns="http://www.w3.org/2000/svg" viewBox="0 0 768 768"><metadata><?xpacket begin="﻿" id="W5M0MpCehiHzreSzNTczkc9d"?>
<x:xmpmeta xmlns:x="adobe:ns:meta/" x:xmptk="Adobe XMP Core 6.0-c002 79.164488, 2020/07/10-22:06:53        ">
   <rdf:RDF xmlns:rdf="http://www.w3.org/1999/02/22-rdf-syntax-ns#">
      <rdf:Description rdf:about=""
            xmlns:dc="http://purl.org/dc/elements/1.1/"
            xmlns:photoshop="http://ns.adobe.com/photoshop/1.0/"
            xmlns:xmpRights="http://ns.adobe.com/xap/1.0/rights/"
            xmlns:xmp="http://ns.adobe.com/xap/1.0/"
            xmlns:xmpMM="http://ns.adobe.com/xap/1.0/mm/"
            xmlns:stEvt="http://ns.adobe.com/xap/1.0/sType/ResourceEvent#">
         <dc:creator>
            <rdf:Seq>
               <rdf:li>orsolya veres</rdf:li>
            </rdf:Seq>
         </dc:creator>
         <dc:rights>
            <rdf:Alt>
               <rdf:li xml:lang="x-default">orsolya veres / www.fitmithanno.fun</rdf:li>
            </rdf:Alt>
         </dc:rights>
         <photoshop:Country>austria</photoshop:Country>
         <xmpRights:WebStatement>www.fitmithanno.fun</xmpRights:WebStatement>
         <xmp:MetadataDate>2021-02-07T14:35:31+01:00</xmp:MetadataDate>
         <xmpMM:InstanceID>xmp.iid:bbb495e5-caf5-4361-83c3-80a42ab4fb73</xmpMM:InstanceID>
         <xmpMM:DocumentID>xmp.did:bbb495e5-caf5-4361-83c3-80a42ab4fb73</xmpMM:DocumentID>
         <xmpMM:OriginalDocumentID>xmp.did:bbb495e5-caf5-4361-83c3-80a42ab4fb73</xmpMM:OriginalDocumentID>
         <xmpMM:History>
            <rdf:Seq>
               <rdf:li>
                  <rdf:Description>
                     <stEvt:action>saved</stEvt:action>
                     <stEvt:instanceID>xmp.iid:bbb495e5-caf5-4361-83c3-80a42ab4fb73</stEvt:instanceID>
                     <stEvt:when>2021-02-07T14:35:31+01:00</stEvt:when>
                     <stEvt:softwareAgent>Adobe Bridge 2021 (Macintosh)</stEvt:softwareAgent>
                     <stEvt:changed>/metadata</stEvt:changed>
                  </rdf:Description>
               </rdf:li>
            </rdf:Seq>
         </xmpMM:History>
      </rdf:Description>
   </rdf:RDF>
</x:xmpmeta>
                                                                                                    
                                                                                                    
                                                                                                    
                                                                                                    
                                                                                                    
                                                                                                    
                                                                                                    
                                                                                                    
                                                                                                    
                                                                                                    
                                                                                                    
                                                                                                    
                                                                                                    
                                                                                                    
                                                                                                    
                                                                                                    
                                                                                                    
                                                                                                    
                                                                                                    
                                                                                                    
                           
<?xpacket end="w"?></metadata>
<defs><style>.cls-1{fill:#d2d3d5;}.cls-2{fill:#7d2b42;}.cls-3{fill:#ef5160;}.cls-4{fill:#fff;}.cls-5{fill:#b48559;}.cls-6{fill:#987562;}.cls-7{fill:#896e59;}.cls-8{fill:#bfc9d2;}.cls-9{fill:#e4edf2;}.cls-10{fill:#ffe354;}.cls-11{fill:#7d8b96;}.cls-12{fill:none;}.cls-13{opacity:0.85;}.cls-14{fill:#f16774;}.cls-15{fill:#202020;}</style></defs><path class="cls-1" d="M384.69,151.19c-4,16.32-10.9,29.77-19.79,40.5a88.48,88.48,0,0,1-33.51,25c-41.33,17.73-94.68,5.09-122.9-32.2-41.14-54.36,13.17-87.49,21.83-64.74,1.41,3.7-3.61,6.58-6.06,3.48l-.06-.07c-10.27-13.39-28.2,9.86-26,24.46,3.68,24.52,17.68,44.35,27.94,47.19a2.33,2.33,0,0,0,2.94-2.64c-2.49-12.78.09-28.72,12.3-35.85,4.44-2.59,16.45.13,12.47,6.62-1.36,1.34-2.9.07-4.74-.42C236,159,233,175.87,233.24,184.16,231.8,212,263.19,219,286.41,220.34a2,2,0,0,0,1.5-3.38c-15.73-16.24-12.65-55.14,12.1-41.69a4.69,4.69,0,0,1,2.4,3.69c.4,4.39-3.08,2.43-6.36.74a8,8,0,0,0-8.64.77c-8.92,7.08-3.67,23.8,2.8,31.87,8.74,12.4,25.16,5.43,36.61,1.23q2.81-1.12,5.5-2.46a86.41,86.41,0,0,0,26.11-19.84A91.28,91.28,0,0,0,379,153.19a16.5,16.5,0,0,0-1.91-12.81c-8.27-13.32-31.21-20.7-36.16-2.57-.06,2-2.57,4.89-3.72,3.31C332,134,344.59,123.37,354,123c11-.43,26.7,16.65,28.07,10.13,4.81-23-6.11-69.48-38.81-60.21-22.65,5.92-11.2,26.28-17.74,28.18s-2.28-20.79,3.08-26.25c5.81-5.55,14.21-8.06,22.14-7.87,26,2.73-51.74-46-52.93-.12-.21,8.24-7.65,9.67-8.1,2-2-18,17.5-31.33,34.24-27.56C371.28,51.91,395.66,106.44,384.69,151.19Z"/><path class="cls-2" d="M442.5,207.5c-.53,10.75-15,14.64-25.66,12.17h0a16.79,16.79,0,0,1-9.09-4.92h0a17.78,17.78,0,0,1-2.44-4.25,18.5,18.5,0,0,0,7.54,3.43h0c10.69,2.47,25.13-1.42,25.66-12.17a11.73,11.73,0,0,0-.47-2.92A11.13,11.13,0,0,1,442.5,207.5Z"/><path class="cls-3" d="M438.5,201.76c-.53,10.75-15,14.64-25.66,12.17h0a18.5,18.5,0,0,1-7.54-3.43C399.67,196,427,190.16,438,198.84A11.73,11.73,0,0,1,438.5,201.76Z"/><path class="cls-3" d="M438.5,201.76c-.53,10.75-15,14.64-25.66,12.17h0a18.5,18.5,0,0,1-7.54-3.43C399.67,196,427,190.16,438,198.84A11.73,11.73,0,0,1,438.5,201.76Z"/><path class="cls-4" d="M376.41,234.44l-3.91,6.06A57.16,57.16,0,0,1,376.41,234.44Z"/><path class="cls-4" d="M335,241.21c.16.45.33.88.5,1.29a43.46,43.46,0,0,0,2.95,6A51.87,51.87,0,0,1,335,241.21Zm37.5-.71,3.91-6.06A57.16,57.16,0,0,0,372.5,240.5Zm6.84-27a34.49,34.49,0,0,0,4.84,8l.14.18.05.06.1.12h0s0,0,0,0l.2.24h0a.86.86,0,0,1,.07.1h0a.57.57,0,0,1,.12.15s0,0,0,0l.54.65,0,.06.09.1,0,0h0l.07.09s0,0,0,0h0l.2.25.2.23A55.24,55.24,0,0,1,379.34,213.46Zm-.48-7.45a4.9,4.9,0,0,1,1.64-1.51,10.58,10.58,0,0,1,2.28-1A5.09,5.09,0,0,0,378.86,206Zm28.87,8.73a16.79,16.79,0,0,0,9.09,4.92A19.45,19.45,0,0,1,407.73,214.74Z"/><path class="cls-5" d="M431.35,219.34a27.14,27.14,0,0,1-14.51.33h0a16.79,16.79,0,0,1-9.09-4.92h0a42.32,42.32,0,0,0-10.46,3c-.8.33-1.59.69-2.38,1.08-1.05.52-2.07,1.07-3.09,1.68h0a49.1,49.1,0,0,0-5.38,3.66l-.09-.1a.76.76,0,0,0,.08.11c-1.12.87-2.22,1.81-3.29,2.8-.88.81-1.74,1.67-2.57,2.56a52.43,52.43,0,0,0-4.08,4.88c-9.24-5.37-17.4-15.3-9.95-20.89a8,8,0,0,1,4.82-1.85l.48,0a5.93,5.93,0,0,1,.72.1,6.09,6.09,0,0,1,.71.17,3.81,3.81,0,0,1,.44.15.9.9,0,0,1,.21.08,3.56,3.56,0,0,1,.41.17c.22.1.45.21.67.33h0l0,0a19.6,19.6,0,0,1,4,3.11q.21.19.42.42l.2.2a.47.47,0,0,1,.1.1l.05,0,.07.07a4,4,0,0,1,.35.36h0c.17.17.34.35.5.53l0,0,.37.39.11.12c.14.16.29.32.43.49a.52.52,0,0,1,.1.11c.08.09.17.18.24.27l.05,0c.44.5.89,1,1.34,1.55.06.06.11.13.16.19l.06.06.31.37.07.08.07.09.11.12a34.49,34.49,0,0,1-4.84-8l-.06-.14c-1.39-3.12-1.59-5.54-.44-7.27,0,0,0,0,0,0a5.09,5.09,0,0,1,3.92-2.55h0a7.89,7.89,0,0,1,5.81.32,37.2,37.2,0,0,0-11.13-8.27,43.67,43.67,0,0,0-12.6-3.81,37.76,37.76,0,0,0-6.47-.42c-6.42.11-12.81,1.89-17.93,6.23a25.58,25.58,0,0,0-8.18,13.61,35.65,35.65,0,0,0-.93,5.56,48.6,48.6,0,0,0,.1,9.5c.05.49.11,1,.17,1.46s.12,1,.2,1.43a5.4,5.4,0,0,0,.09.58,64,64,0,0,0,2.39,9.72c.12.35.24.7.36,1l.3.82a51.87,51.87,0,0,0,3.45,7.25,49.73,49.73,0,0,0,2.9,4.44c.32.44.65.88,1,1.31s.69.86,1.05,1.28a53.57,53.57,0,0,0,5.76,5.81s0,0,0,0l1.25,1.05c.42.34.86.68,1.29,1A61.47,61.47,0,0,0,357,267c21.65,3.89,42.94-.88,58.05-14,12-10.41,17.14-23.5,19.4-31.65C433.41,220.63,432.39,220,431.35,219.34ZM372.5,240.5a57.16,57.16,0,0,1,3.91-6.06Z"/><path class="cls-6" d="M447.5,243.5c-.62,16.16-23.68,30-47.34,32.78a69.24,69.24,0,0,1-14.66.22c-.69-.07-1.4-.15-2.1-.24A68.29,68.29,0,0,1,357,267c21.65,3.89,42.94-.88,58.05-14,12-10.41,17.14-23.5,19.4-31.65C441.89,226.79,447.84,235,447.5,243.5Z"/><path d="M394.88,218.8c-1.05.52-2.07,1.07-3.09,1.68h0a6,6,0,0,1-3.93-2.13,8.05,8.05,0,0,1-.62-.67c-.2-.23-.39-.47-.58-.72l-.28-.39c-.18-.25-.35-.51-.52-.78h0a4.23,4.23,0,0,1-.24-.4,13.38,13.38,0,0,1-1.18-2.65s0,0,0-.06c-.84-2.76-.3-5.2,2.95-5.2a1.83,1.83,0,0,0-.28.1.92.92,0,0,0-.24.13h0a1.57,1.57,0,0,0-.63,1.55.76.76,0,0,0,0,.15c0,.1,0,.21.06.32a2.68,2.68,0,0,0,.07.27,5.32,5.32,0,0,0,2.77,3.18.9.9,0,0,0,.22.06,1.45,1.45,0,0,0,1.3-.24,1.8,1.8,0,0,0,.57-1.92,5,5,0,0,0-1.07-2.31,2.89,2.89,0,0,0-.24-.25,3,3,0,0,0-.33-.28C392.82,209.78,396.26,215.89,394.88,218.8Z"/><path class="cls-4" d="M394.88,218.8c1.38-2.91-2.06-9-5.33-10.56a3,3,0,0,1,.33.28,2.89,2.89,0,0,1,.24.25,3.63,3.63,0,0,1,1.07,2.31c.07,1.3-.71,2.34-1.87,2.16a.9.9,0,0,1-.22-.06,4.17,4.17,0,0,1-2.05-1.64,4.88,4.88,0,0,1-.72-1.54,2.68,2.68,0,0,1-.07-.27c0-.11,0-.22-.06-.32s0-.1,0-.15a1.72,1.72,0,0,1,.63-1.55h0a.92.92,0,0,1,.24-.13,1.83,1.83,0,0,1,.28-.1c-3.25,0-3.79,2.44-2.95,5.2,0,0,0,0,0,.06a13.38,13.38,0,0,0,1.18,2.65,4.23,4.23,0,0,0,.24.4h0c.16.26.33.52.52.78l.28.39c.18.25.38.49.58.72a8.05,8.05,0,0,0,.62.67,6,6,0,0,0,3.93,2.13,49.1,49.1,0,0,0-5.38,3.66l-.09-.1-.09-.1-.05-.07-.2-.23-.21-.25h0l-.09-.11,0,0a.43.43,0,0,0-.09-.1c-.21-.24-.41-.48-.58-.71l0,0a.57.57,0,0,0-.12-.15h0l-.08-.1-.2-.24s0,0,0,0h0l-.1-.12-.05-.06-.14-.18a34.49,34.49,0,0,1-4.84-8l-.06-.14c-1.19-3-1.34-5.52-.44-7.27,0,0,0,0,0,0a5.09,5.09,0,0,1,3.92-2.55h0a15.52,15.52,0,0,1,5.81.32,43.64,43.64,0,0,1,8.63,13.95C396.46,218.05,395.67,218.41,394.88,218.8Z"/><path d="M383.1,227c-.88.81-1.74,1.67-2.57,2.56-5.06,1-13-13-5.17-13a1.83,1.83,0,0,0-.28.1l-.06,0h0a.51.51,0,0,0-.16.09h0l-.15.12a1.75,1.75,0,0,0-.44,1.75.4.4,0,0,0,0,.15,1,1,0,0,0,0,.17h0a.1.1,0,0,0,0,.09,5.32,5.32,0,0,0,2.77,3.18.9.9,0,0,0,.22.06,1.45,1.45,0,0,0,1.3-.24,1.8,1.8,0,0,0,.57-1.92,4.9,4.9,0,0,0-1.06-2.3,2.89,2.89,0,0,0-.24-.25.41.41,0,0,0-.1-.09.28.28,0,0,0-.09-.07l-.1-.09C380.62,218.78,383.74,223.94,383.1,227Z"/><path class="cls-4" d="M383.1,227c.64-3-2.48-8.17-5.5-9.67l.1.09a.28.28,0,0,1,.09.07.41.41,0,0,1,.1.09,2.89,2.89,0,0,1,.24.25,3.59,3.59,0,0,1,1.06,2.3c.07,1.3-.71,2.34-1.87,2.16a.9.9,0,0,1-.22-.06,4.17,4.17,0,0,1-2.05-1.64,4.48,4.48,0,0,1-.72-1.54.1.1,0,0,1,0-.09h0a1,1,0,0,1,0-.17.4.4,0,0,1,0-.15,1.92,1.92,0,0,1,.44-1.75l.15-.12h0a.51.51,0,0,1,.16-.09h0l.06,0a1.83,1.83,0,0,1,.28-.1c-7.87,0,.11,14.07,5.17,13a52.43,52.43,0,0,0-4.08,4.88c-9.24-5.37-17.4-15.3-9.95-20.89a8,8,0,0,1,4.82-1.85l.48,0a5.93,5.93,0,0,1,.72.1,6.09,6.09,0,0,1,.71.17,3.81,3.81,0,0,1,.44.15.9.9,0,0,1,.21.08,3.56,3.56,0,0,1,.41.17c.22.1.45.21.67.33h0l0,0a19.6,19.6,0,0,1,4,3.11q.21.19.42.42l.2.2a.47.47,0,0,1,.1.1l.05,0,.07.07a4,4,0,0,1,.35.36h0c.17.17.34.35.5.53l0,0,.37.39.11.12c.14.16.29.32.43.49a.52.52,0,0,1,.1.11c.08.09.17.18.24.27l.05,0c.44.5.89,1,1.34,1.55.06.06.11.13.16.19l.06.06.31.37.07.08.07.09.25.3.05.06.1.12h0s0,0,0,0l.21.24.08.1h0s0,0,0,0h0a.57.57,0,0,1,.12.15s0,0,0,0l.54.65,0,.06.09.1,0,0h0l.09.11h0l.2.25.2.23.05.07.17.21C385.27,225,384.17,226,383.1,227Z"/><path class="cls-7" d="M448.71,323.87a27.34,27.34,0,0,1-12.21,4.63c-10.41,1.15-16.94-4.89-30-10a93,93,0,0,0-18.94-5.16,30.28,30.28,0,0,0,2.94-11.84c.5-9.81-3-18.46-7.1-25.24.7.09,1.41.17,2.1.24a69.24,69.24,0,0,0,14.66-.22c1.08,6.82,3.62,14.3,9.34,20.22,4.93,5.1,10.05,6.79,15.41,8.56,4.37,1.46,8.91,3,13.59,6.44A37.24,37.24,0,0,1,448.71,323.87Z"/><path class="cls-7" d="M472.75,493.39a68.38,68.38,0,0,1-9.91,3.66,60,60,0,0,1-24.35,2.35,72.16,72.16,0,0,1-10.07-1.75,74.59,74.59,0,0,1-19.5-7.94A159.34,159.34,0,0,0,474.5,460.5a154.58,154.58,0,0,0,32.06-32.89l6.87,1.18C515.29,452.64,499.83,481,472.75,493.39Z"/><path class="cls-6" d="M506.56,427.61A154.58,154.58,0,0,1,474.5,460.5a159.34,159.34,0,0,1-65.58,29.21h0a63,63,0,0,1-19.13-17c16.91-4.79,35.91-13.48,52.72-29.19A122.65,122.65,0,0,0,462.07,420Z"/><path class="cls-6" d="M499.41,391.7a96.67,96.67,0,0,1-23.23-1.18,145,145,0,0,0,4.71-17.24c5.52,5.36,10.5,9.49,14.9,14.21Z"/><path class="cls-5" d="M476.18,390.52a122.22,122.22,0,0,1-28.68-9,192.16,192.16,0,0,0,19.44,13c-8.32-3.91-9.87-2.47-27.44-4a112.81,112.81,0,0,0,16,8.5l-18,4.5c3.58,1.27,8.57,2.76,14.55,4.38-3.54.71-27.54,5.62-27.55,5.62L462.07,420A122.65,122.65,0,0,1,442.5,443.5c-16.81,15.71-35.81,24.4-52.72,29.19a48.38,48.38,0,0,1-5.28-9.19c-10.42-35.15,17.42-32.47-9-114.11,5.26,2.7,10.77,4.42,17,3.11,7.7-1.72,16-7.48,16-12-2.43-6.28-13.58-11.15-27.85-15,2.39-4.45,5-8,6.91-12.13a93,93,0,0,1,18.94,5.16c13.06,5.11,19.59,11.15,30,10a27.34,27.34,0,0,0,12.21-4.63c.81,1.46,1.57,3,2.31,4.51,2.33,4.87,4.37,10,6.79,14.94a65.9,65.9,0,0,0,4.69,8.18q1.88,2.73,3.7,5.16a135.8,135.8,0,0,0,14.69,16.62A145,145,0,0,1,476.18,390.52Z"/><path class="cls-4" d="M474.08,362.24c-2.94-2-5.6-3.91-7.88-5.58l7,4.58Z"/><path class="cls-4" d="M499.41,391.7l-3.62-4.21C497,388.83,498.25,390.22,499.41,391.7Z"/><path class="cls-4" d="M380.65,325.47l-.16.3,0-.34Z"/><path class="cls-6" d="M326.5,255.5a70.75,70.75,0,0,1,0-26.56,43.36,43.36,0,0,1,5-2.77c.05.49.11,1,.17,1.46s.12,1,.2,1.43a5.4,5.4,0,0,0,.09.58,64,64,0,0,0,2.39,9.72c.12.35.24.7.36,1l.3.82a51.87,51.87,0,0,0,3.45,7.25,49.73,49.73,0,0,0,2.9,4.44c.32.44.65.88,1,1.31s.69.86,1.05,1.28a53.57,53.57,0,0,0,5.76,5.81s0,0,0,0l1.25,1.05c.42.34.86.68,1.29,1-6.26,6.85-10.21.55-18.21,1.13-1.32.56-2.61,1.14-3.89,1.75A64.54,64.54,0,0,1,326.5,255.5Z"/><path class="cls-6" d="M408.5,340.5c0,4.52-8.3,10.28-16,12-6.25,1.31-11.76-.41-17-3.11-5.51-2.82-10.72-6.72-16.19-9.34-12-6.05-25.18-10.39-38.63-13.78,9-2.83,15.45-5.84,19.91-8.89,4.24.68,8.61,1.42,13,2.21,9.3,1.67,18.64,3.58,26.95,5.84l.14,0C394.92,329.35,406.07,334.22,408.5,340.5Z"/><path class="cls-4" d="M334.34,239.36a56.6,56.6,0,0,1-2.39-9.72A64,64,0,0,0,334.34,239.36Z"/><path class="cls-4" d="M349.15,261.3a47.87,47.87,0,0,1-5.76-5.81A53.57,53.57,0,0,0,349.15,261.3Z"/><path class="cls-4" d="M570.5,431.5h0l-.2-.05-.1,0-.22-.05-.86-.17.33.05h0A3.36,3.36,0,0,1,570.5,431.5Z"/><path class="cls-4" d="M522.37,418.77c-19.64-6.34-38.34-14.13-55.38-24.2,3.21,1.51,7.43,3.82,14,7.4A357.14,357.14,0,0,0,522.37,418.77Z"/><path class="cls-4" d="M570.5,431.5h0l-.2-.05-.1,0-.22-.05-.49-.11A3.36,3.36,0,0,1,570.5,431.5Z"/><path class="cls-4" d="M586,404.57a21.13,21.13,0,0,1-8.27-4.38A21.93,21.93,0,0,0,586,404.57Z"/><path class="cls-4" d="M603.48,403.18a21.83,21.83,0,0,1-2.29.91,18.57,18.57,0,0,0,2.13-.94Z"/><path class="cls-4" d="M604.1,414.85l-17.46,4.36C594.26,417.24,599.34,415.68,604.1,414.85Z"/><path class="cls-4" d="M639.5,409.5c-4.37,1.48-8.63,3.08-12.93,4.12Z"/><path class="cls-4" d="M569.45,431.27h0l-.33-.05.86.17.22.05.1,0,.2.05h0A3.36,3.36,0,0,0,569.45,431.27Z"/><path class="cls-4" d="M452.49,407.79c1.1.38,2.41.81,4,1.26q-2.26-.58-4.38-1.17Z"/><path class="cls-4" d="M512.18,421.87c18.72,3.78,37.16,7.17,48.24,8.75C549.12,429.11,531.16,425.8,512.18,421.87Z"/><path class="cls-4" d="M600.35,422.4l-1-.1.31-.1Z"/><path class="cls-4" d="M639.5,409.5c-4.37,1.48-8.63,3.08-12.93,4.12Z"/><path class="cls-8" d="M569,431.19c-2.27-.13-5.15-.47-8.51-1l-1.48-.25-.1,0h0l-.18,0-.45-.08c-10.83-1.84-25.9-5.35-41.88-9.82l-3.41-.94a503.31,503.31,0,0,1-49.57-16.68l-.38-.16c-2.62-1.07-5.13-2.14-7.51-3.21a112.81,112.81,0,0,1-16-8.5c17.57,1.57,19.12.13,27.44,4l.05,0c3.21,1.51,7.43,3.82,14,7.4a357.14,357.14,0,0,0,41.42,16.8l.27.09A410.19,410.19,0,0,0,569,431.19Z"/><path class="cls-9" d="M570.42,431.5a71,71,0,0,1-9.72-.84l-.28,0-1.08-.15-1.72-.24-2-.31-2.19-.33-.39-.06-.9-.15-1.32-.21-.95-.16h0l-3.17-.54-2.91-.5-3-.54-1.54-.28-4.75-.88-.55-.1-2.72-.52-1.63-.31-.41-.08-4.69-.91-3.45-.69-3.49-.7-1.76-.36-1.63-.34h0l-.11,0-.51-.11h-.05l-.58-.12-.43-.09-.21,0-4.65-1c-18-3.8-36.52-8.06-50.78-11.78l-.3-.08q-2.26-.58-4.38-1.17h0c-6-1.62-11-3.11-14.55-4.38l18-4.5.48-.12c2.1,1.09,4.46,2.2,7,3.33l.38.16C476.44,408,494.84,414,513,419.05l3.41.94c15.68,4.28,30.88,7.81,41.88,9.82l.45.08.18,0h0l.1,0,1.48.25A99.14,99.14,0,0,0,570.42,431.5Z"/><path class="cls-4" d="M600.35,422.4l-1-.1.31-.1Z"/><path class="cls-4" d="M604.1,414.85l-17.46,4.36C594.26,417.24,599.34,415.68,604.1,414.85Z"/><path class="cls-10" d="M664.5,412.5l-83,28-68.07-11.71L424.5,413.5s24-4.91,27.55-5.62h0q2.12.58,4.38,1.17l.3.08c10.59,3.09,30.5,7.61,50.78,11.78l4.65,1,.21,0,.43.09.58.12h.05l.48.09.14,0h0l1.63.34,1.76.36,3.49.7,3.45.69,4.69.91.41.08,1.63.31,2.72.52.55.1,4.75.88,1.54.28,3,.54,2.91.5,3.17.54h0l.95.16,1.32.21.9.15.39.06,2.19.33,2,.31,1.72.24,1.08.15.28,0c5.06.73,8.5,1.06,9.72.84h.08l28.86-9.2,1,.1a0,0,0,0,0,0,0c5.08,1.36,10,.22,15-1.47h0c4.38-1.5,8.74-3.44,13.15-4.42-2.49-.55-4.72-1-6.76-1.34l4.79-1.53h0c4.3-1,8.56-2.64,12.93-4.12l-1-.18Z"/><path d="M628.5,416.5c-4.41,1-8.77,2.92-13.15,4.42h0c-4.93,1.69-9.88,2.83-15,1.47a0,0,0,0,1,0,0l-.68-.2-14.17-2.7,1.14-.29,17.46-4.36,5.4-1.35c.85.28,1.7.5,2.54.69h0a27.17,27.17,0,0,0,7.08.57h0c.83.12,1.68.25,2.58.4C623.78,415.51,626,416,628.5,416.5Z"/><path class="cls-4" d="M586,404.57a21.13,21.13,0,0,1-8.27-4.38A21.93,21.93,0,0,0,586,404.57Z"/><path class="cls-4" d="M603.48,403.18a21.83,21.83,0,0,1-2.29.91,18.57,18.57,0,0,0,2.13-.94Z"/><path class="cls-9" d="M639.5,409.5l-12.93,4.12h0l-4.79,1.53c-.9-.15-1.75-.28-2.58-.4h0a27.17,27.17,0,0,1-7.08-.57h0c-.84-.19-1.69-.41-2.54-.69l-5.4,1.35c-4.76.83-9.84,2.39-17.46,4.36l-1.14.29,14.17,2.7-.31.1-28.86,9.2a3.36,3.36,0,0,0-1-.23h0c-15.94-3.51-31.64-7.52-46.77-12.4l-.27-.09A357.14,357.14,0,0,1,481,402c-6.53-3.58-10.75-5.89-14-7.4l-.05,0a192.16,192.16,0,0,1-19.44-13c22.22,9.8,38,11.06,51.91,10.2a172.56,172.56,0,0,1,17.69-1.54,77,77,0,0,1,21,2.14c13.36,2.17,26,4.24,37.87,6.21h0c.27.3.54.58.83.86s.57.55.87.81h0a21.13,21.13,0,0,0,8.27,4.38c.38.11.76.21,1.15.3l.72.16a24.59,24.59,0,0,0,13.36-.94,21.83,21.83,0,0,0,2.29-.91c10.48,1.8,19.28,3.35,28.35,5l6.6,1.17h.07Z"/><path class="cls-5" d="M631.83,408.14c-9.07-1.61-17.87-3.16-28.35-5l-.16,0a18.57,18.57,0,0,1-2.13.94,26.37,26.37,0,0,1-13.36.94l-.72-.16c-.39-.09-.77-.19-1.15-.3a21.93,21.93,0,0,1-8.27-4.38h0q-.45-.39-.87-.81c-.29-.28-.56-.56-.83-.86h0c-10.39-8.53-1.27-23.22,9.53-17,3,4.56,8.82,12,16.94,11.89.2,0,.4,0,.6,0,6.65-.18,14.59-3.48,20.46-1.87C627.61,392.63,633.94,398,631.83,408.14Z"/><path class="cls-6" d="M538.1,392.3a77,77,0,0,0-21-2.14v-.29l-43.89-28.63-7-4.58q-1.83-2.43-3.7-5.16a65.9,65.9,0,0,1-4.69-8.18c-2.42-4.92-4.46-10.07-6.79-14.94,14.13,4.83,21.16,12.58,29.25,21.47A136.36,136.36,0,0,0,497.5,366.5c9,7.57,22.64,13.23,35.27,21.89l.06,0Z"/><path class="cls-4" d="M538.1,392.3l-5.27-3.87C534.61,389.66,536.37,390.94,538.1,392.3Z"/><path class="cls-4" d="M474.08,362.24c-2.94-2-5.6-3.91-7.88-5.58l7,4.58Z"/><path class="cls-4" d="M436.48,602.71a1,1,0,0,0,0,.17v-.15Z"/><path class="cls-4" d="M441.38,673.23c0-.1,0-.2,0-.3a585.27,585.27,0,0,1-4.74-61.63c0-.13,0-.26,0-.39l0,.38,4.3,56,.43,5.59h0Z"/><path class="cls-7" d="M443.21,536.86c-3-1-5.82-2.14-8.54-3.33a221.66,221.66,0,0,0-6.27-35.79l0-.09a72.16,72.16,0,0,0,10.07,1.75v.05C440.41,511.13,442,524,443.21,536.86Z"/><path class="cls-6" d="M445.5,592.5c-.09,1.49-.18,3-.25,4.48h0q-4.56,2.93-8.77,5.72c.58-18.83.7-44.64-1.81-69.18,2.72,1.19,5.57,2.31,8.54,3.33,1.25,13.4,2.05,26.75,2.29,38.64C454.65,577.21,454.66,590.73,445.5,592.5Z"/><path class="cls-4" d="M446,666.91v.24c0-.08,0-.15,0-.23a558.38,558.38,0,0,1-1.1-61.69Z"/><path class="cls-7" d="M492.5,686.5c-11.8,18.68-33.14,17.92-46,8.64C458.84,697.07,471.22,693,479,684a32,32,0,0,0,7-13.81A32.43,32.43,0,0,1,492.5,686.5Z"/><path class="cls-5" d="M486,670.19A32,32,0,0,1,479,684c-7.78,9-20.16,13.07-32.53,11.14a26.71,26.71,0,0,1-9-10.64,32.73,32.73,0,0,1,3.84-11.57v0h0a26.17,26.17,0,0,1,4.62-6h0C457.12,656.14,475.91,657.46,486,670.19Z"/><path class="cls-6" d="M446,666.92a26.17,26.17,0,0,0-4.62,6l-.43-5.59-4.3-56q4-3.21,8.17-6.17l.08.11A558.38,558.38,0,0,0,446,666.92Z"/><path class="cls-7" d="M481,543c-2.93,0-5.92-.05-9-.27-3.89-15.57-7.16-31.63-9.2-45.66a68.38,68.38,0,0,0,9.91-3.66C478.31,515.44,477.19,526.82,481,543Z"/><path class="cls-7" d="M401.5,699.5q-3-4.66-5.42-9a53.5,53.5,0,0,0,24.8-33.86C431.23,671.27,424.84,695.6,401.5,699.5Z"/><path class="cls-5" d="M491.5,583.5c-2.11,1.49-6.31-.77-7-1a198.58,198.58,0,0,0-39.71,22.62q-4.12,3-8.17,6.17s0,0,0,0a247.18,247.18,0,0,0-35.55,34.35c9.17,1,15.78,5.23,19.83,11a53.5,53.5,0,0,1-24.8,33.86c-9.9-18.1-11.27-32.37-4.54-45.88,6.82-13.68,21.94-26.58,44.92-41.87l0,0q4.22-2.81,8.77-5.72h0c10.38-6.81,22.48-14.14,36.25-21.48-3.34-10-6.57-21.24-9.46-32.79,3.07.22,6.06.3,9,.27h0c.42,1.78.9,3.61,1.46,5.52,2.31,9.26,5.78,20.56,10,29C493.5,579.5,493.34,582.2,491.5,583.5Z"/><path class="cls-4" d="M401.05,645.65a28.61,28.61,0,0,0-4.55-.15"/><path class="cls-9" d="M276.4,390.6l.24.6c-30.44,12.24-61.33,20.8-83.14,16.3-6.37-1.74-24-5.5,26.15-29,12.49-5.85,29.18-12.92,51.3-21.49C275.89,365.58,278.39,376.81,276.4,390.6Z"/><path class="cls-11" d="M271,357c-22.12,8.57-38.81,15.64-51.3,21.49-10.25-24.74-1.35-38.2,12.24-41.1l.79-.16C245.49,334.92,262.12,341.71,271,357Z"/><path class="cls-8" d="M276.4,390.6l-55.9-10.1c-.3-.67-.58-1.33-.85-2,12.49-5.85,29.18-12.92,51.3-21.49C275.89,365.58,278.39,376.81,276.4,390.6Z"/><line class="cls-12" x1="220.5" y1="380.5" x2="276.4" y2="390.6"/><path class="cls-9" d="M359.29,340.05l-3,13.12c-14.18,7.28-33.24,17.3-53.88,26.84q-4,1.85-8.06,3.66c-5.84,2.6-11.77,5.14-17.72,7.53l-.24-.6c2-13.79-.51-25-5.45-33.58-8.83-15.31-25.46-22.1-38.27-19.77,17.54-5.29,36.44-11.66,55.07-17.82C311.59,323.69,337.55,329.05,359.29,340.05Z"/><path class="cls-4" d="M287.75,319.43c-18.63,6.16-37.53,12.53-55.07,17.82-1.4.43-2.8.84-4.18,1.25l3.39-1.09Z"/><path class="cls-9" d="M353.65,319.73,325.48,315l-.14,0-15.78-2.65c15.64-6.18,33.3-9.74,44,7.26Z"/><path class="cls-4" d="M359.29,340.05a37,37,0,0,1-3,13.12"/><g class="cls-13"><path class="cls-14" d="M212.66,370.49l-.49.15a.72.72,0,0,1,.3.07C212.6,370.73,212.61,370.61,212.66,370.49Z"/><path class="cls-14" d="M211.71,370.78l-.09,0-.05.07A.71.71,0,0,1,211.71,370.78Z"/><path class="cls-14" d="M210.91,371.21a1.14,1.14,0,0,0,.42-.18A.76.76,0,0,0,210.91,371.21Z"/><path class="cls-14" d="M211.62,371.07c-.07-.05-.12-.11-.06-.19h0l-.24.15A.92.92,0,0,1,211.62,371.07Z"/><path class="cls-14" d="M211.62,371.07c.08.05.18.08.22.11A.91.91,0,0,0,211.62,371.07Z"/><path class="cls-14" d="M212,372.74c-.07.08-.21-.37-.34-.21a4,4,0,0,1-1,.73c-.13.17-.58-.24-.71-.07-.35.27-1.14,1.25-.55,1,.87-.4,1.4-.73,2.18-1.11.58-.42,1.13-.87,1.73-1.28a1.86,1.86,0,0,1,.56-.15l-.8.06C212.7,371.71,212.5,372.44,212,372.74Z"/><path class="cls-14" d="M216.32,369.44c-.06.09-.19.25-.19.25-.5-.19-.85.09-1.19.36l.25.16c.22-.11.2-.25,0-.27a2.23,2.23,0,0,0,1.44-.23C216.52,369.6,216.47,369.46,216.32,369.44Z"/><path class="cls-14" d="M216.84,369.58l-.25.13s0,0,0,0l.24-.16Z"/><path class="cls-14" d="M209.28,372.28c-1.11.43-2.18.8-3.22,1.14-.05.11-.07.24-.19.22a.72.72,0,0,0-.3-.07l-.46.14-.15.1h0c-.07.08,0,.14.06.19a.91.91,0,0,1,.22.11L205,374a.7.7,0,0,0-.29,0,1.14,1.14,0,0,1-.42.18.76.76,0,0,1,.42-.18l.23-.15.06-.07-1.05.31-.2.12c-.22.15-.45.3-.68.14l-.19.05,0,0-.09,0-.79.23a6,6,0,0,1-.42.45l-.26-.16a.56.56,0,0,1-.2.33c.18.08.37.18.52.23s.22-.59.58-.24c-.36-.35-.32.4-.58.24s-.34-.15-.52-.23a.94.94,0,0,1-.9.08c.24-.31.58-.22.9-.08a.56.56,0,0,0,.2-.33l.26.16a6,6,0,0,0,.42-.45l-1.59.46c-3.47.95-6.55,2.15-10.12,3.23-1.94.57-3.83,1-5.71,1.44-3.75.78-6.77,2.59-10.78,2.77-1.52.12-4,1.28-5.31,1.81-1.51,1.41.13,3,.25,3.08,1.7,1.24,2.22,0,4.81.15-1.72,0,.73-1.47,2.58-.87,2.71.95,5.16-1.52,7.88-2a21.64,21.64,0,0,0,2.11-.7c4.19-.88,7.6-3,11.82-4.38a13.12,13.12,0,0,0,2.77-1.76,15,15,0,0,1,2-.58A9.39,9.39,0,0,0,205,376c-.77.38-1.31.71-2.17,1.11-.59.25.2-.73.54-1,.14-.17.58.24.72.07a4,4,0,0,0,1-.73c.13-.17.28.29.35.21.5-.3.7-1,1.09-1l.8-.07a1.53,1.53,0,0,0,.45-.13l.25-.22a1.53,1.53,0,0,1-.31-.43c.15,0,.39,0,.54,0-.15,0-.39,0-.54,0a1.53,1.53,0,0,0,.31.43,22.37,22.37,0,0,1,2-1.54l0,0a2.23,2.23,0,0,1-1.44.23c.24,0,.26.16,0,.27a2.26,2.26,0,0,0-.26-.16c.35-.28.7-.55,1.19-.36l.2-.25c.15,0,.2.16.27.27l.24-.13A3.23,3.23,0,0,0,209.28,372.28Z"/><path class="cls-14" d="M204.72,374l.2-.11-.89.25C204.27,374.26,204.49,374.11,204.72,374Z"/></g><path class="cls-3" d="M197.13,376.93c1.64-15.81-2.49-33.8.37-46.43-1.91,2.51-18.41,9.13-22,9-4.92,16,1.3,29.24.14,45.36Z"/><path class="cls-4" d="M273.58,682.75l1.55.07h-1.54l-3.37,0-8.28,0c-14.87.06-29.55-.19-42.44-2.41l42.3,1.76,8.36.35Z"/><g class="cls-13"><path class="cls-15" d="M264.44,682l-1.12-.06a3.69,3.69,0,0,1,.56.11A1.26,1.26,0,0,0,264.44,682Z"/><path class="cls-15" d="M262.29,681.92h-.19l-.17,0Z"/><path class="cls-15" d="M260.35,681.9c.35,0,.67,0,1,0A7.33,7.33,0,0,0,260.35,681.9Z"/><path class="cls-15" d="M261.9,682c-.12,0-.18-.08,0-.1h-.58A3.86,3.86,0,0,1,261.9,682Z"/><path class="cls-15" d="M261.9,682l.35.1A2.47,2.47,0,0,0,261.9,682Z"/><path class="cls-15" d="M261.37,682.85c-.2,0-.14-.22-.53-.18-.91,0-1.69.11-2.54.07-.39,0-1-.25-1.37-.21-.92,0-3.25.25-1.88.29l5.25.08,4.49-.11c.43,0,.83,0,1.23.07l-1.66-.18C263.57,682.58,262.61,682.85,261.37,682.85Z"/><path class="cls-15" d="M272.63,682.52l-.59.06a9.85,9.85,0,0,0-2.67-.15l.39.14c.52,0,.59-.06.13-.13a19,19,0,0,0,3.07.27C272.9,682.64,272.91,682.57,272.63,682.52Z"/><path class="cls-15" d="M273.56,682.72H273l0,0h.58Z"/><path class="cls-15" d="M256.23,682l-7.37-.33a1.2,1.2,0,0,1-.55,0,5.54,5.54,0,0,0-.56-.11l-1,0h-.38c-.19,0-.14.06,0,.1l.36.1-.36-.1a3.71,3.71,0,0,0-.55-.09l-1,0a6.14,6.14,0,0,1,1,0h.58l.17,0-2.36-.13h-.49a4.75,4.75,0,0,1-1.49-.11l-.42,0,.08,0-.16,0-1.78-.11c-.39,0-.79.07-1.19.09l-.4-.14a2.26,2.26,0,0,1-.67.1c.32.08.61.17.88.23s.91-.2,1.37,0c-.46-.24-1,.1-1.37,0s-.56-.15-.88-.23a8,8,0,0,1-1.87-.2,4.93,4.93,0,0,1,1.87.2,2.26,2.26,0,0,0,.67-.1l.4.14c.4,0,.8-.06,1.19-.09l-3.55-.21c-5.7-.35-11.08-.59-16.83-.87l-.1.93c1.9.33,3.94.67,6,.95,4.34.61,8.52,1,12.62,1.4,8.2.71,15.7.43,24,1,3.17.2,9.08,0,12.13,0,.37,0,.68-.08.94-.13l.06-2.72c-2.8.33-1.06,1.26-.89,1.32a7.34,7.34,0,0,0,.82.29v-.5c-2.19-.52-4.24-.16-8.8-.59,3.5.27-2.58.58-5.88,0-4.78-.9-11.58-.2-17.45-.65-1.46-.12-3-.14-4.77-.25-6.31-.57-12.3-1-18.49-2l-.3,2.82c2.75.08,5.56.18,8.46.32,2.55.11,4.79,0,6.94-.06,1.57,0,3.23.22,4.51.27,2,.08,3.72.07,5.38,0l-5.25-.07c-1.37,0,1-.27,1.87-.3.39,0,1,.25,1.38.21.85,0,1.63,0,2.54-.07.39,0,.33.21.53.19,1.24,0,2.2-.27,3-.18l1.66.18q.5,0,1,.06l.67,0a.64.64,0,0,1-.29-.27l1.11.13-1.11-.13a.64.64,0,0,0,.29.27c1.64-.08,3.52-.12,5.27-.15l0,0a18.9,18.9,0,0,1-3.06-.27c.45.07.39.14-.13.13l-.4-.14a9.9,9.9,0,0,1,2.68.15l.59,0c.28,0,.27.12.32.18H258C257.57,682.16,256.23,682,256.23,682Z"/><path class="cls-15" d="M245.75,681.51h.49l-2-.11A4.7,4.7,0,0,0,245.75,681.51Z"/></g><path class="cls-4" d="M315.5,684.5l-3.14-.13-1.71-.07-11.13-.47-8-.33-9.67-.4-1.44-.06-5.28-.22c1.76,0,3.51,0,5.26,0h1.45c3.26,0,6.49,0,9.68.09q4.05.06,8,.24c3.76.17,7.43.43,11,.79l1.84.2Q313.94,684.29,315.5,684.5Z"/><g class="cls-13"><path class="cls-15" d="M308.92,683.46l-.81-.07a2.64,2.64,0,0,1,.4.12A.69.69,0,0,0,308.92,683.46Z"/><path class="cls-15" d="M307.37,683.33l-.15,0-.12,0Z"/><path class="cls-15" d="M306,683.29a5.74,5.74,0,0,0,.71,0A3.78,3.78,0,0,0,306,683.29Z"/><path class="cls-15" d="M307.07,683.43c-.08,0-.12-.09,0-.1h-.42A2,2,0,0,1,307.07,683.43Z"/><path class="cls-15" d="M307.07,683.43l.26.1Z"/><path class="cls-15" d="M306.65,684.24c-.14,0-.09-.22-.38-.18a16.34,16.34,0,0,1-1.84,0c-.28,0-.7-.26-1-.23-.67,0-2.36.22-1.37.28l3.79.13,3.26-.07a8.38,8.38,0,0,1,.89.09l-1.19-.2C308.26,684,307.54,684.25,306.65,684.24Z"/><path class="cls-15" d="M314.83,684.23l-.43,0a5.14,5.14,0,0,0-1.92-.28l.27.16c.38,0,.43,0,.1-.13a10.16,10.16,0,0,0,2.2.42C315,684.36,315,684.29,314.83,684.23Z"/><path class="cls-15" d="M315.49,684.46l-.44,0,0,0,.43,0Z"/><path class="cls-15" d="M303,683.29c-1.87-.12-3.62-.28-5.34-.33a.69.69,0,0,1-.41.06l-.4-.1-.75,0h-.27c-.14,0-.1.06,0,.1a1.28,1.28,0,0,1,.26.1l-.26-.1-.4-.08a5.82,5.82,0,0,1-.72,0,4.18,4.18,0,0,1,.72,0l.43,0,.12,0-1.72-.08h-.35a2.4,2.4,0,0,1-1.08-.09l-.31,0,.06,0-.12,0-1.29-.06c-.28,0-.57.1-.86.13l-.29-.12a1.48,1.48,0,0,1-.49.11c.23.08.45.16.64.21s.66-.24,1,0c-.34-.23-.71.13-1,0s-.41-.13-.64-.21a4,4,0,0,1-1.36-.13,2.83,2.83,0,0,1,1.36.13,1.48,1.48,0,0,0,.49-.11l.29.12c.29,0,.58-.09.86-.13l-2.58-.09c-2.27-.08-4.47-.13-6.68-.18l-6.73,0v1l3.25.19c3.15.2,6.18.43,9.15.69,5.93.53,11.35.43,17.33,1.29,2.29.31,6.57.37,8.79.44,3-.28,1.49-1.37,1.35-1.43-1.79-1-3.24-.53-6.94-1.2,2.52.4-1.9.49-4.27-.22-3.42-1.06-8.4-.53-12.66-.94-1.07-.1-2.21-.11-3.48-.18-4.22-.37-8.26-.45-12.44-.56l0,2.88c2.36,0,4.79-.1,7.29-.07,1.84,0,3.46-.2,5-.3,1.13,0,2.34.1,3.26.1,1.45,0,2.7,0,3.9-.09l-3.8.05c-1,0,.69-.32,1.35-.35.28-.05.72.23,1,.19.61,0,1.18-.08,1.84-.12.28,0,.24.19.38.17a18.53,18.53,0,0,1,2.17-.23l1.2.14c.24,0,.48,0,.74,0l.49,0a.48.48,0,0,1-.21-.27l.8.14-.8-.14a.48.48,0,0,0,.21.27c1.18,0,2.54-.08,3.81-.09l0,0a10,10,0,0,1-2.21-.3c.33.08.28.14-.1.13l-.28-.14a5.48,5.48,0,0,1,1.94.17l.42,0c.21,0,.19.13.23.19l.44,0A9.35,9.35,0,0,0,303,683.29Z"/><path class="cls-15" d="M295.35,682.91h.36l-1.44-.07A2.58,2.58,0,0,0,295.35,682.91Z"/></g><g class="cls-13"><path class="cls-15" d="M347.54,690.52l-1,.13a4,4,0,0,1,.49,0A.93.93,0,0,0,347.54,690.52Z"/><path class="cls-15" d="M345.68,690.77l-.17,0-.14,0Z"/><path class="cls-15" d="M344,691.05c.3,0,.58-.07.86-.12A6.51,6.51,0,0,0,344,691.05Z"/><path class="cls-15" d="M345.36,690.94c-.11,0-.16-.05,0-.1h0l-.5.09Z"/><path class="cls-15" d="M345.36,690.94l.32,0Z"/><path class="cls-15" d="M345.05,691.83c-.17,0-.16-.19-.49-.1-.78.17-1.45.35-2.19.45-.33.09-.89-.11-1.22,0-.78.18-2.78.7-1.59.56,1.8-.23,3-.45,4.57-.68,1.29-.24,2.53-.56,3.85-.85.37-.06.73-.1,1.08-.13l-1.47.11C346.9,691.2,346.12,691.64,345.05,691.83Z"/><path class="cls-15" d="M354.64,689.47l-.49.17a7.76,7.76,0,0,0-2.31.38l.37.06c.44-.1.48-.17.07-.15a13.74,13.74,0,0,0,2.68-.35C354.89,689.53,354.89,689.46,354.64,689.47Z"/><path class="cls-15" d="M355.47,689.47l-.51.11,0,0,.51-.13Z"/><path class="cls-15" d="M340.46,691.7c-2.24.26-4.36.42-6.42.6a1,1,0,0,1-.48.11,4.23,4.23,0,0,0-.5,0l-.9,0-.32.05h0c-.16,0-.11.07,0,.1l.32.06-.32-.06a3.73,3.73,0,0,0-.5,0c-.27,0-.56.06-.86.07a4.7,4.7,0,0,1,.86-.07l.51-.07.15,0-2.07.12-.43.05a3.64,3.64,0,0,1-1.3,0l-.37,0h-.07l-1.56.05c-.34.06-.68.13-1,.18l-.36-.1a1.8,1.8,0,0,1-.57.15c.28.06.54.12.79.16s.77-.28,1.19-.07c-.42-.21-.84.17-1.19.07s-.51-.1-.79-.16a5.72,5.72,0,0,1-1.65,0,3.77,3.77,0,0,1,1.65,0,1.8,1.8,0,0,0,.57-.15l.36.1c.35,0,.69-.12,1-.18l-3.11.09c-6.78.12-13,.25-20.06,0-3.8-.17-7.46-.39-11-.76-7.1-.73-13.64-1-20.68-2.63-2.7-.61-7.76-1.35-10.36-1.9-3.57-.32-2,1-1.83,1.15a9.54,9.54,0,0,0,3.17,1.24c1.24.32,2.77.6,5,1.22-1.49-.4-.91-.45.39-.26.65.09,1.48.24,2.32.44a19.39,19.39,0,0,1,2.4.63,28.2,28.2,0,0,0,7.22,1.35c2.67.28,5.47.36,8,.68,1.29.18,2.67.21,4.22.32,8,.77,15.5.55,24,.47,2.23-.07,4.2-.34,6.07-.53,1.38-.11,2.85-.06,4-.12a43.24,43.24,0,0,0,4.7-.48c-1.61.16-2.79.32-4.59.43-1.21.07.82-.35,1.61-.46.34-.06.89.16,1.22.08.75,0,1.42-.21,2.21-.33.33-.08.31.16.48.13,1.08-.14,1.89-.5,2.59-.49l1.47,0c.29,0,.58,0,.89-.07l.58-.12a.5.5,0,0,1-.29-.22l1,0-1,0a.5.5,0,0,0,.29.22l4.54-.85h0a12.08,12.08,0,0,1-2.7.15c.41,0,.37.09-.09.15l-.36-.09a8.91,8.91,0,0,1,2.34-.21l.5-.14c.25,0,.25.08.31.14l.52-.09C341.65,691.71,340.46,691.7,340.46,691.7Z"/><path class="cls-15" d="M331.31,692.52l.43,0-1.73.09A3.42,3.42,0,0,0,331.31,692.52Z"/></g><path class="cls-4" d="M299.59,675.58c.4-42.85.79-83.75,1.19-124.34Z"/><path class="cls-4" d="M301.81,444.53v.16c-.11,11.52-.22,22.94-.33,34.32l.32-34.32Z"/><path class="cls-4" d="M302.33,389.83c-.17,18.54-.34,36.73-.52,54.7Z"/><path class="cls-11" d="M302.42,380l-.09,9.82-.13,13.84-.13,13.72v1L301.94,431l-.13,13.52v.16l-8-5.36q.07-7.53.14-15.1.06-5.94.11-11.92l.27-28.64Q298.42,381.85,302.42,380Z"/><path class="cls-8" d="M301.8,444.69,301.48,479l-.11,11.35-.12,12.77-.1,10-.37,38.16c-.4,40.59-.79,81.49-1.19,124.34l-.07,7.54q-3.94-.18-8-.24l.16-16.85,1.16-122.59.36-37.15.22-23.73q.22-21.49.42-43.23Z"/><path class="cls-4" d="M291.68,666c.38-41.93.77-82.35,1.16-122.59Z"/><path class="cls-4" d="M294,424.23q-.08,7.57-.14,15.1-.21,21.76-.42,43.23l.41-43.23Z"/><g class="cls-13"><path class="cls-15" d="M274.3,690.86l0-.57c0,.1-.06.19-.1.29A.31.31,0,0,0,274.3,690.86Z"/><path class="cls-15" d="M274.35,689.76v-.1l0-.09Z"/><path class="cls-15" d="M274.27,688.77a2.75,2.75,0,0,0,0,.5A2.19,2.19,0,0,0,274.27,688.77Z"/><path class="cls-15" d="M274.23,689.56c0-.06.07-.09.1,0h0l0-.3A1.14,1.14,0,0,1,274.23,689.56Z"/><path class="cls-15" d="M274.23,689.56l-.09.18A.76.76,0,0,0,274.23,689.56Z"/><path class="cls-15" d="M273.37,689.31c0-.09.21-.07.16-.27a8.61,8.61,0,0,1-.21-1.27c-.06-.19.2-.51.14-.71-.08-.46-.51-1.6-.44-.91.14,1,.17,1.7.25,2.63a18.7,18.7,0,0,1,.29,2.25,4.34,4.34,0,0,1-.06.63l.15-.84C273.74,690.42,273.46,689.94,273.37,689.31Z"/><path class="cls-15" d="M273.75,695.05l0-.31a2.72,2.72,0,0,0,.23-1.36l-.15.19c0,.27,0,.31.13.08a4.81,4.81,0,0,0-.37,1.54C273.63,695.17,273.7,695.19,273.75,695.05Z"/><path class="cls-15" d="M273.53,695.5l0-.31h0v.31Z"/><path class="cls-15" d="M274,686.67c-.1-1.31-.2-2.55-.29-3.76a.35.35,0,0,1-.11-.27,1.47,1.47,0,0,0,.05-.29l-.05-.53,0-.18h0c0-.1-.07-.07-.1,0a.85.85,0,0,1-.06.19l.06-.19a1.29,1.29,0,0,0,0-.29,3.76,3.76,0,0,1-.07-.5,1.93,1.93,0,0,1,.07.5l.07.29,0,.08-.12-1.2,0-.25a1.36,1.36,0,0,1-.05-.76l0-.21v0l-.12-.91c-.08-.19-.17-.38-.23-.57l.08-.22a.88.88,0,0,1-.17-.32,3.36,3.36,0,0,0-.12.48c-.09.22.31.41.12.69.19-.28-.21-.47-.12-.69a3.36,3.36,0,0,1,.12-.48,2,2,0,0,1,0-1,1.42,1.42,0,0,1,0,1,.88.88,0,0,0,.17.32l-.08.22c.06.19.15.38.23.57l-.23-1.8a107.35,107.35,0,0,0-2.38-11.5c-.24-1.09-.52-2.15-.8-3.19s-.5-2.09-.8-3.1c-1.07-4.1-2.81-7.53-4.23-11.64-.15-.4-.35-.86-.59-1.36s-.57-1-.88-1.51-.63-1-.94-1.47l-.91-1.16c-1.65-1.52-1.73.08-1.73.17a3.58,3.58,0,0,0,.69,1.9,13,13,0,0,1,1.28,2.62c-.33-.82,0-.62.38,0a7.36,7.36,0,0,1,1,2.6,13.13,13.13,0,0,0,1.33,4,33.79,33.79,0,0,1,1.73,4.27c.18.72.48,1.45.76,2.29,1.16,4.46,2.67,8.48,3.63,13.24.26,1.25.71,2.31,1,3.36.17.77.19,1.62.3,2.26.18,1,.39,1.84.58,2.65-.14-.92-.31-1.58-.52-2.6-.13-.68.38.43.52.87.09.19-.12.53-.05.72a8.91,8.91,0,0,0,.33,1.25c.08.19-.16.19-.12.29.13.61.5,1,.48,1.46a7.79,7.79,0,0,1,0,.85,4.61,4.61,0,0,0,0,.52l.09.33a.51.51,0,0,1,.24-.18l0,.57,0-.57a.51.51,0,0,0-.24.18c.2.81.43,1.75.56,2.63h0a6.39,6.39,0,0,1,0-1.57c0,.23-.1.21-.14-.06l.11-.21a2.67,2.67,0,0,1,.07,1.37l.09.29c0,.15-.11.14-.17.18l0,.3A5.67,5.67,0,0,0,274,686.67Z"/><path class="cls-15" d="M273.48,681.34l0,.24-.09-1A1.22,1.22,0,0,0,273.48,681.34Z"/></g><g class="cls-13"><path class="cls-15" d="M282.09,691l0-.42a.67.67,0,0,1-.1.21C282,690.92,282.05,691,282.09,691Z"/><path class="cls-15" d="M282.16,690.22v-.07l0-.07Z"/><path class="cls-15" d="M282.13,689.48a2.41,2.41,0,0,0,0,.38A1,1,0,0,0,282.13,689.48Z"/><path class="cls-15" d="M282.05,690.07c0-.05.08-.07.1,0h0l0-.22A1,1,0,0,1,282.05,690.07Z"/><path class="cls-15" d="M282.05,690.07s-.07.11-.09.13Z"/><path class="cls-15" d="M281.21,689.85c0-.08.22-.05.17-.2a4.77,4.77,0,0,1-.15-1c-.05-.15.22-.37.17-.52-.06-.35-.36-1.23-.36-.71,0,.77.07,1.28.1,2s.15,1.12.21,1.71a2.32,2.32,0,0,1,0,.46l.14-.62C281.53,690.69,281.24,690.32,281.21,689.85Z"/><path class="cls-15" d="M281.72,694.15l-.06-.22a1.5,1.5,0,0,0,.12-1l-.13.14c0,.2.06.23.13.06a2.85,2.85,0,0,0-.25,1.16C281.6,694.25,281.68,694.26,281.72,694.15Z"/><path class="cls-15" d="M281.53,694.5v-.23h0l0,.23Z"/><path class="cls-15" d="M282,687.91c0-1,0-1.91,0-2.81,0-.07-.1-.12-.07-.21a1,1,0,0,0,.09-.22v-.39l0-.14h0c0-.08-.07,0-.1,0a.64.64,0,0,1-.08.14l.08-.14a.65.65,0,0,0,.06-.21,2.36,2.36,0,0,1,0-.38.84.84,0,0,1,0,.38l0,.22,0,.06v-.9l0-.18a.72.72,0,0,1,0-.57v-.16l0,0,0-.06v-.69c-.05-.14-.11-.29-.15-.44l.11-.16a.46.46,0,0,1-.13-.25c-.07.13-.14.24-.19.35s.26.33,0,.52c.22-.19-.15-.36,0-.52s.12-.22.19-.35a1.22,1.22,0,0,1,.08-.72.79.79,0,0,1-.08.72.46.46,0,0,0,.13.25l-.11.16c0,.15.1.3.15.44v-1.35c0-3-.22-5.68-.44-8.75-.09-1.63-.18-3.22-.28-4.84-.15-3.15-1-5.9-1.05-9.15a21.51,21.51,0,0,0-1.08-4.58c-.82-1.42-1.58-.32-1.62-.24-.58,1.17.12,1.74.07,3.76,0-1.36.8.81.46,2.16-.51,1.94.66,4.32.77,6.56,0,.56.15,1.14.23,1.8.16,3.44.88,6.58,1.07,10.2a19.48,19.48,0,0,0,.51,2.59c.06.59,0,1.23,0,1.71a13.11,13.11,0,0,0,.25,2l-.2-2c0-.51.32.35.4.69.05.15-.21.39-.15.53a5.76,5.76,0,0,0,.2,1c.06.15-.18.14-.15.21.07.47.37.82.31,1.12l-.11.64a2.38,2.38,0,0,0,0,.38l.06.26a.49.49,0,0,1,.25-.12c0,.13-.06.3-.08.42,0-.12.07-.29.08-.42a.49.49,0,0,0-.25.12,17.56,17.56,0,0,1,.34,2h0a2.63,2.63,0,0,1,.17-1.16c-.06.17-.13.15-.14,0l.12-.15a1.49,1.49,0,0,1-.05,1l.07.22c0,.11-.11.1-.17.12v.23A3.66,3.66,0,0,0,282,687.91Z"/><path class="cls-15" d="M282,683.91l0,.19,0-.76C281.87,683.48,281.91,683.69,282,683.91Z"/></g><g class="cls-13"><path class="cls-15" d="M262.41,683.54l0-.24a.42.42,0,0,1-.06.14C262.3,683.5,262.36,683.51,262.41,683.54Z"/><path class="cls-15" d="M262.34,683.09v0l0,0Z"/><path class="cls-15" d="M262.19,682.7a.59.59,0,0,0,.06.2A.35.35,0,0,0,262.19,682.7Z"/><path class="cls-15" d="M262.21,683s.06,0,.1,0h0l-.06-.12A.5.5,0,0,1,262.21,683Z"/><path class="cls-15" d="M262.21,683a.46.46,0,0,0-.07.1A.86.86,0,0,0,262.21,683Z"/><path class="cls-15" d="M261.36,683.11s.2-.07.13-.14a1.66,1.66,0,0,1-.29-.49c-.07-.07.17-.25.1-.32s-.53-.58-.46-.3.26.68.38,1,.34.56.49.86a1.27,1.27,0,0,1,0,.26l0-.36C261.81,683.49,261.46,683.36,261.36,683.11Z"/><path class="cls-15" d="M262.64,685.26l-.11-.1a.48.48,0,0,0-.08-.56l-.1.11c0,.1.11.1.14,0a.91.91,0,0,0,0,.67C262.55,685.34,262.62,685.33,262.64,685.26Z"/><path class="cls-15" d="M262.53,685.49l0-.12h0l.06.11Z"/><path class="cls-15" d="M261.8,681.9c-.13-.53-.23-1-.31-1.53-.06,0-.11,0-.1-.1a.25.25,0,0,0,.06-.13l0-.22a.43.43,0,0,1,0-.07h0s-.07,0-.1,0l-.07.09.07-.09a.33.33,0,0,0,0-.13.65.65,0,0,1-.05-.2.31.31,0,0,1,.05.2l.06.11,0,0c0-.16-.05-.33-.07-.49a.69.69,0,0,1,0-.1c-.06-.11-.12-.22,0-.32s0-.06,0-.09l0,0,0,0c0-.13,0-.25,0-.38a2,2,0,0,1-.19-.22l.1-.1a.23.23,0,0,1-.15-.12c-.05.09-.12.16-.15.23s.27.13.07.28c.2-.15-.17-.17-.07-.28s.1-.14.15-.23a.44.44,0,0,1,0-.41c.13.13.07.28,0,.41a.23.23,0,0,0,.15.12l-.1.1a2,2,0,0,0,.19.22c0-.25-.07-.49-.1-.75-.2-1.63-.55-3.1-.8-4.78-.13-.92-.21-1.8-.26-2.68-.09-1.75-.74-3.22-.52-5.06a9.22,9.22,0,0,0-.48-2.52c-.57-.76-1.48-.1-1.53-.05-.74.71-.18,1-.45,2.18.13-.79.67.41.23,1.22-.68,1.18.34,2.43.37,3.7a8.52,8.52,0,0,0,.18,1c.11,2,.87,3.62,1.23,5.62a5.91,5.91,0,0,0,.65,1.36,7,7,0,0,1,.13.95,3.62,3.62,0,0,0,.43,1.06c-.13-.37-.25-.63-.38-1s.34.13.45.31-.16.25-.09.32a2,2,0,0,0,.28.48c.07.07-.16.11-.13.15.11.24.45.37.43.55s0,.25,0,.37a1.52,1.52,0,0,0,0,.21l.09.13a.68.68,0,0,1,.24-.12c0,.07,0,.18,0,.25s0-.18,0-.25a.68.68,0,0,0-.24.12,9.8,9.8,0,0,1,.6,1h0a.93.93,0,0,1,0-.66c0,.1-.09.1-.13,0l.1-.11c.1.18.21.35.08.56l.11.11c0,.06-.1.08-.16.1a.61.61,0,0,0,.05.12A1.84,1.84,0,0,0,261.8,681.9Z"/><path class="cls-15" d="M261.33,679.73a1,1,0,0,1,0,.1l-.06-.42C261.22,679.51,261.27,679.62,261.33,679.73Z"/></g><g class="cls-13"><path class="cls-15" d="M310.94,684l-.18-.54a1.45,1.45,0,0,1,0,.3C310.79,683.89,310.86,683.93,310.94,684Z"/><polygon class="cls-15" points="310.59 682.95 310.56 682.85 310.51 682.78 310.59 682.95"/><path class="cls-15" d="M310.2,682a3,3,0,0,0,.18.48A1.7,1.7,0,0,0,310.2,682Z"/><path class="cls-15" d="M310.41,682.8c0-.07,0-.11.1,0h0l-.13-.28A1.69,1.69,0,0,1,310.41,682.8Z"/><path class="cls-15" d="M310.41,682.8c0,.06,0,.16,0,.2A1.23,1.23,0,0,0,310.41,682.8Z"/><path class="cls-15" d="M309.52,682.81c-.06-.08.18-.13.06-.31a5.93,5.93,0,0,1-.53-1.23c-.1-.19.07-.57,0-.75-.19-.44-.82-1.55-.62-.86.32,1.05.56,1.72.85,2.65l1.06,2.13a5.1,5.1,0,0,1,.2.63l-.19-.87C310.25,683.79,309.79,683.42,309.52,682.81Z"/><path class="cls-15" d="M312.46,688l-.2-.24a2.67,2.67,0,0,0-.55-1.27l0,.23c.12.24.2.24.15,0a4.86,4.86,0,0,0,.54,1.51C312.42,688.14,312.49,688.11,312.46,688Z"/><path class="cls-15" d="M312.52,688.47l-.14-.27,0,0,.16.27Z"/><path class="cls-15" d="M309.45,680a30.46,30.46,0,0,1-.81-3.75.36.36,0,0,1-.12-.27,1.53,1.53,0,0,0,0-.3l-.09-.53-.06-.18h0c0-.09-.08-.06-.1,0a1.17,1.17,0,0,1-.05.2l.05-.2a2.51,2.51,0,0,0,0-.3,2.61,2.61,0,0,1-.08-.5,2.05,2.05,0,0,1,.08.5,2.63,2.63,0,0,0,.08.3l0,.08c-.08-.4-.1-.81-.15-1.22l-.05-.25a1.31,1.31,0,0,1-.05-.77l0-.22v0l-.1-.93c-.07-.19-.15-.39-.21-.59l.09-.22a1,1,0,0,1-.15-.33c-.05.17-.12.33-.16.48s.31.44.12.71c.19-.27-.21-.49-.12-.71s.11-.31.16-.48a2.08,2.08,0,0,1,0-1,1.39,1.39,0,0,1,0,1,1,1,0,0,0,.15.33l-.09.22c.06.2.14.4.21.59-.07-.6-.1-1.21-.13-1.84a111.63,111.63,0,0,1-.19-11.89c.07-1.13.12-2.23.23-3.32s.24-2.14.36-3.21c.59-4.19.71-8.08,2-12.19.48-1.57.93-4.56,1.31-6.07.1-2.13-1.15-1.35-1.23-1.26-1.17,1.07-1,2.19-2,4.73.33-.88.4-.51.28.26a9.2,9.2,0,0,1-.84,2.78c-1.3,2.34-1.06,6-1.53,9.07-.13.76-.17,1.59-.25,2.51-.64,4.78-.33,9.28-.16,14.34a20.86,20.86,0,0,0,.6,3.62c.12.82.05,1.71.15,2.38a22.53,22.53,0,0,0,.58,2.78c-.18-1-.34-1.65-.52-2.72-.11-.72.37.46.5.92.08.2-.14.55-.06.75a9.64,9.64,0,0,0,.36,1.29c.08.19-.16.21-.12.31.17.63.57,1.07.58,1.49l.06.88a5.34,5.34,0,0,0,.09.53l.13.33a.45.45,0,0,1,.22-.21l0,.59,0-.59a.45.45,0,0,0-.22.21c.28.82.71,1.73,1,2.59l0,0a5.2,5.2,0,0,1-.27-1.59c0,.25-.06.23-.15,0l.07-.23a2.89,2.89,0,0,1,.32,1.36l.15.28c0,.15-.07.16-.12.21l.1.3A5.68,5.68,0,0,0,309.45,680Z"/><path class="cls-15" d="M308.32,674.68l.06.25c-.05-.34-.07-.68-.11-1A1.34,1.34,0,0,0,308.32,674.68Z"/></g><g class="cls-13"><path class="cls-15" d="M323,692.45l-.18-.37a.53.53,0,0,1,0,.22C322.87,692.39,322.94,692.41,323,692.45Z"/><polygon class="cls-15" points="322.67 691.74 322.64 691.67 322.6 691.63 322.67 691.74"/><path class="cls-15" d="M322.35,691.1a1.16,1.16,0,0,0,.14.34A.94.94,0,0,0,322.35,691.1Z"/><path class="cls-15" d="M322.5,691.66c0-.06.05-.09.1,0h0l-.11-.18A.55.55,0,0,1,322.5,691.66Z"/><path class="cls-15" d="M322.5,691.66a1.15,1.15,0,0,0,0,.16A.88.88,0,0,0,322.5,691.66Z"/><path class="cls-15" d="M321.66,691.83c-.05-.06.18-.14.07-.25a5,5,0,0,1-.52-.83c-.1-.11.06-.43,0-.54-.22-.29-.78-1-.61-.54.3.73.57,1.18.87,1.82a14.52,14.52,0,0,0,1,1.42,2.39,2.39,0,0,1,.2.43l-.2-.62C322.36,692.43,321.88,692.25,321.66,691.83Z"/><path class="cls-15" d="M324.44,695.09l-.18-.13a1.38,1.38,0,0,0-.53-.83l0,.19c.12.15.19.13.14,0a2.62,2.62,0,0,0,.53,1C324.42,695.24,324.48,695.2,324.44,695.09Z"/><path class="cls-15" d="M324.52,695.47l-.14-.17v0l.15.16Z"/><path class="cls-15" d="M321.58,689.77c-.33-.9-.57-1.77-.82-2.62-.06,0-.13-.08-.12-.18a.83.83,0,0,0,0-.22l-.08-.38,0-.12h0c-.05-.06-.08,0-.1,0a.75.75,0,0,1-.05.16s0-.11.05-.16a.75.75,0,0,0,0-.22,1.29,1.29,0,0,1-.1-.35,1.11,1.11,0,0,1,.1.35l.08.21,0,0-.18-.86-.06-.17c-.09-.2-.17-.4-.09-.55l0-.16v0c-.05-.22-.07-.44-.1-.66a3.11,3.11,0,0,1-.22-.4l.09-.17a.52.52,0,0,1-.16-.22c-.05.13-.11.25-.14.36s.3.28.11.5c.19-.22-.2-.33-.11-.5s.09-.23.14-.36a1.14,1.14,0,0,1,0-.71.78.78,0,0,1,0,.71.52.52,0,0,0,.16.22l-.09.17a3.11,3.11,0,0,0,.22.4l-.19-1.3a68.76,68.76,0,0,1-.72-8.46,37.43,37.43,0,0,1,.24-4.67c.36-3,.32-5.77,1.55-8.53.24-.52.42-1.3.7-2l.34-1.08.37-.82c.25-1.41-.93-1.32-1-1.26a2.06,2.06,0,0,0-1.17,1,21.3,21.3,0,0,1-1.06,2c.36-.6.41-.32.25.23a5,5,0,0,1-.84,2,6.05,6.05,0,0,0-1,3.08c-.05,1.17-.11,2.38-.25,3.5-.08.56-.07,1.16-.12,1.83-.37,3.49.19,6.71.57,10.34a12.94,12.94,0,0,0,.74,2.55c.15.57.15,1.22.24,1.69a8.92,8.92,0,0,0,.64,1.95c-.2-.67-.42-1.15-.58-1.91-.11-.51.36.3.5.61.09.13-.12.42,0,.55a5.32,5.32,0,0,0,.4.89c.09.13-.15.17-.11.23.17.45.55.72.57,1l.08.63a1.78,1.78,0,0,0,.1.38l.13.22a.45.45,0,0,1,.21-.18c0,.12,0,.3,0,.42,0-.12,0-.3,0-.42a.45.45,0,0,0-.21.18c.33.54.63,1.19,1,1.75h0a2.16,2.16,0,0,1-.25-1.13c0,.18-.07.18-.14,0l.07-.19a1.68,1.68,0,0,1,.28,1l.16.18c0,.11-.06.13-.12.18l.11.2A3.42,3.42,0,0,0,321.58,689.77Z"/><path class="cls-15" d="M320.46,686l.06.18-.14-.73A.69.69,0,0,0,320.46,686Z"/></g><g class="cls-13"><path class="cls-15" d="M329.39,690.47l-.13-.48a2.35,2.35,0,0,1,0,.26C329.25,690.37,329.32,690.41,329.39,690.47Z"/><polygon class="cls-15" points="329.16 689.53 329.14 689.44 329.1 689.37 329.16 689.53"/><path class="cls-15" d="M328.89,688.69a2.7,2.7,0,0,0,.12.43A1.41,1.41,0,0,0,328.89,688.69Z"/><path class="cls-15" d="M329,689.39c0-.06.05-.1.1,0h0l-.09-.25A1.17,1.17,0,0,1,329,689.39Z"/><path class="cls-15" d="M329,689.39a1.43,1.43,0,0,1-.05.18A1.21,1.21,0,0,0,329,689.39Z"/><path class="cls-15" d="M328.13,689.38c-.05-.08.19-.12.09-.28a7.64,7.64,0,0,1-.44-1.1c-.09-.17.1-.49,0-.66-.14-.39-.65-1.39-.52-.77.19.93.42,1.52.66,2.35.25.65.5,1.28.81,1.93a3.75,3.75,0,0,1,.15.55l-.13-.77C328.71,690.27,328.31,689.92,328.13,689.38Z"/><path class="cls-15" d="M330.5,694l-.17-.21a2,2,0,0,0-.43-1.14l0,.21c.1.21.17.21.14,0a4,4,0,0,0,.4,1.35C330.45,694.18,330.52,694.15,330.5,694Z"/><path class="cls-15" d="M330.53,694.48l-.13-.25v0l.13.24Z"/><path class="cls-15" d="M328.27,686.91c-.21-1.16-.44-2.24-.55-3.32-.06-.08-.12-.13-.11-.24a.86.86,0,0,0,.05-.27l-.05-.47,0-.16h0c0-.09-.08-.06-.1,0a.75.75,0,0,1-.07.18l.07-.18a1,1,0,0,0,0-.26,3.11,3.11,0,0,1-.07-.44,1.48,1.48,0,0,1,.07.44l.07.26,0,.07-.11-1.07-.05-.22a1,1,0,0,1,0-.68v-.23l0-.81c-.06-.17-.13-.35-.19-.53l.11-.19a.62.62,0,0,1-.15-.29,3.22,3.22,0,0,0-.16.42c-.1.19.28.38.07.62.21-.24-.17-.43-.07-.62a3.22,3.22,0,0,1,.16-.42,1.62,1.62,0,0,1,0-.87,1.18,1.18,0,0,1,0,.87.62.62,0,0,0,.15.29l-.11.19c.06.18.13.36.19.53l-.09-1.62c-.11-3.53-.29-6.79-.11-10.45,0-1,.15-2,.22-2.91s.2-1.89.35-2.81c.54-3.65.66-7.09,2.09-10.55.14-.33.24-.74.39-1.18s.29-.91.43-1.38a21.77,21.77,0,0,1,.82-2.48c.29-1.81-1-1.4-1.07-1.33-1.22.74-1.2,1.76-2.33,3.91.75-1.47.16,1.28-.7,2.65-1.42,2-1.13,5.29-1.66,8-.12.67-.12,1.4-.21,2.22-.61,4.21-.28,8.17-.16,12.6a24.42,24.42,0,0,0,.54,3.18c.09.72.07,1.5.12,2.08a13.53,13.53,0,0,0,.46,2.45c-.17-.84-.27-1.45-.41-2.39-.07-.63.35.41.46.82.07.17-.17.48-.1.65a6.25,6.25,0,0,0,.33,1.13c.08.18-.16.19-.12.27.13.56.49.95.48,1.32v.78c0,.15,0,.31.07.46l.12.3a.53.53,0,0,1,.22-.18l0,.52,0-.52a.53.53,0,0,0-.22.18c.28.71.54,1.54.81,2.31v0a3.88,3.88,0,0,1-.12-1.41c0,.21-.08.2-.14,0l.09-.2a2.11,2.11,0,0,1,.18,1.21l.13.25c0,.13-.08.14-.14.18l.09.27A6.93,6.93,0,0,0,328.27,686.91Z"/><path class="cls-15" d="M327.5,682.18l.05.22-.09-.9A1.08,1.08,0,0,0,327.5,682.18Z"/></g><g class="cls-13"><path class="cls-15" d="M401.68,689.1l-.22-.41a1,1,0,0,1,0,.25C401.53,689,401.6,689.06,401.68,689.1Z"/><polygon class="cls-15" points="401.28 688.3 401.25 688.22 401.19 688.17 401.28 688.3"/><path class="cls-15" d="M400.86,687.6a2.18,2.18,0,0,0,.2.37A1.23,1.23,0,0,0,400.86,687.6Z"/><path class="cls-15" d="M401.1,688.21c0-.06,0-.1.09,0h0l-.14-.2A1,1,0,0,1,401.1,688.21Z"/><path class="cls-15" d="M401.1,688.21c0,.06,0,.14,0,.17A.91.91,0,0,0,401.1,688.21Z"/><path class="cls-15" d="M400.25,688.41c-.06-.06.17-.15,0-.28a6.64,6.64,0,0,1-.64-.89c-.12-.12,0-.47-.11-.6-.21-.32-.9-1.11-.66-.58.38.8.69,1.29,1.09,2,.38.53.73,1,1.15,1.56a2.37,2.37,0,0,1,.25.47l-.26-.67C401,689.08,400.54,688.86,400.25,688.41Z"/><path class="cls-15" d="M403.41,692.06l-.2-.15a1.88,1.88,0,0,0-.63-.94v.21c.14.17.21.15.14,0a3.54,3.54,0,0,0,.64,1.14C403.39,692.22,403.46,692.17,403.41,692.06Z"/><path class="cls-15" d="M403.52,692.47l-.16-.19v0l.17.18Z"/><path class="cls-15" d="M399.92,686.14c-.43-1-.87-1.93-1.18-2.88-.07,0-.14-.09-.15-.19a.69.69,0,0,0,0-.25l-.14-.41-.07-.14h0c-.06-.06-.09,0-.1,0a.52.52,0,0,1,0,.18s0-.12,0-.18a1.06,1.06,0,0,0,0-.24,2.27,2.27,0,0,1-.16-.39,1,1,0,0,1,.16.39l.12.22,0,.06-.32-.94-.09-.19a.89.89,0,0,1-.15-.62l-.05-.17v0l-.21-.72c-.1-.14-.2-.28-.29-.43l.06-.2a.46.46,0,0,1-.2-.23c0,.16-.06.3-.07.42s.35.28.2.55c.15-.27-.26-.35-.2-.55s0-.26.07-.42A1.29,1.29,0,0,1,397,678a1,1,0,0,1,.14.79.46.46,0,0,0,.2.23l-.06.2c.09.15.19.29.29.43l-.42-1.44c-.81-3.16-1.61-6.05-2.19-9.38a49.76,49.76,0,0,1-.6-5.27c-.2-3.4-.82-6.52-.12-9.91.08-.65.2-1.56.26-2.46a22.33,22.33,0,0,1,.27-2.39c-.11-1.69-1.26-1.1-1.33-1-1,.89-.79,1.8-1.44,4,.43-1.47.42,1.13-.13,2.54-1,2.08,0,5,0,7.53,0,.64.16,1.29.24,2,.27,3.93,1.38,7.43,2.4,11.41A19,19,0,0,0,395.7,678c.22.64.36,1.34.53,1.86a11.83,11.83,0,0,0,.93,2.11c-.33-.72-.55-1.25-.87-2.07-.2-.55.42.29.61.63.1.14-.07.47,0,.61a4.81,4.81,0,0,0,.53,1c.11.13-.12.2-.07.27.24.47.67.74.73,1.08l.15.7a3.39,3.39,0,0,0,.15.41l.17.24a.51.51,0,0,1,.19-.22l.11.47-.11-.47a.51.51,0,0,0-.19.22c.41.58.84,1.26,1.23,1.9l0,0a3.45,3.45,0,0,1-.39-1.25c0,.19,0,.2-.14,0l0-.2a1.82,1.82,0,0,1,.42,1l.17.2c0,.12-.05.15-.1.2l.13.22A5.62,5.62,0,0,0,399.92,686.14Z"/><path class="cls-15" d="M398.25,682l.09.19-.26-.8C398,681.61,398.14,681.82,398.25,682Z"/></g><g class="cls-13"><path class="cls-15" d="M478.32,691.75l-.38.15h.22C478.26,691.89,478.28,691.82,478.32,691.75Z"/><path class="cls-15" d="M477.58,692l-.07,0-.05,0Z"/><path class="cls-15" d="M476.91,692.28a1.31,1.31,0,0,0,.35-.12A1.21,1.21,0,0,0,476.91,692.28Z"/><path class="cls-15" d="M477.48,692.17c-.05,0-.09,0,0-.1h0l-.2.09A.54.54,0,0,1,477.48,692.17Z"/><path class="cls-15" d="M477.48,692.17l.16,0Z"/><path class="cls-15" d="M477.58,693c-.07.05-.13-.18-.25-.09a4.94,4.94,0,0,1-.88.46c-.13.09-.42-.08-.55,0-.31.14-1.11.64-.6.52a15.22,15.22,0,0,0,1.91-.68,14.38,14.38,0,0,0,1.52-.86,4,4,0,0,1,.45-.16l-.63.15C478.25,692.43,478,692.84,477.58,693Z"/><path class="cls-15" d="M481.09,690.52l-.15.18a1.45,1.45,0,0,0-.87.47l.18,0c.16-.11.15-.18,0-.14a2.72,2.72,0,0,0,1.06-.45C481.23,690.56,481.2,690.5,481.09,690.52Z"/><path class="cls-15" d="M481.47,690.48l-.18.13h0l.17-.14Z"/><path class="cls-15" d="M475.51,692.92a22.08,22.08,0,0,1-2.71.51c-.06.05-.1.11-.2.1a.9.9,0,0,0-.22-.06l-.38,0-.13,0h0c-.07,0,0,.07,0,.1l.14.07-.14-.07a.78.78,0,0,0-.22,0,1.36,1.36,0,0,1-.36.06,1,1,0,0,1,.36-.06l.22-.06.06,0-.88.09-.18,0c-.21,0-.42.09-.56,0h-.16l0,0-.06,0-.67,0c-.14.05-.28.12-.43.16l-.15-.11a.61.61,0,0,1-.25.14l.34.17c.16.11.33-.26.52,0-.19-.22-.36.15-.52,0l-.34-.17a1,1,0,0,1-.7-.11.84.84,0,0,1,.7.11.61.61,0,0,0,.25-.14l.15.11c.15,0,.29-.11.43-.16-.43,0-.87,0-1.32,0a41.86,41.86,0,0,1-8.42-1c-.78-.23-1.54-.43-2.27-.68l-2.11-.88c-2.66-1.31-5.25-2.35-7.17-4.66a13.08,13.08,0,0,0-1.49-1.54c-.57-.54-1-1.16-1.41-1.55-1.23-.86-1.6.3-1.59.41a2.12,2.12,0,0,0,.47,1.49c.3.42.59.82,1.31,1.85-.77-1.14,1.07.29,1.7,1.54,1,1.87,3.66,2.76,5.67,3.81a12.82,12.82,0,0,0,1.73.75c3.28,1.55,6.67,1.78,10.36,2.1a11.3,11.3,0,0,0,2.69-.27c.6,0,1.25.07,1.74,0a10.08,10.08,0,0,0,2.05-.34c-.7.13-1.21.2-2,.29-.53,0,.35-.33.69-.42.14-.06.39.19.54.13a3.6,3.6,0,0,0,.95-.27c.14-.08.15.16.22.13.46-.12.78-.48,1.09-.45l.65,0a1.26,1.26,0,0,0,.38-.06l.24-.11a.53.53,0,0,1-.16-.23h0a.53.53,0,0,0,.16.23c.58-.28,1.25-.54,1.87-.8l0,0a2.62,2.62,0,0,1-1.16.12c.18,0,.17.08,0,.14l-.17-.09a1.5,1.5,0,0,1,1-.18l.2-.12c.11,0,.12.07.16.13l.22-.08A5,5,0,0,0,475.51,692.92Z"/><path class="cls-15" d="M471.64,693.61l.18-.05-.73.07C471.23,693.73,471.44,693.67,471.64,693.61Z"/></g><g class="cls-13"><path class="cls-15" d="M434.55,242.9l-.24.4a.77.77,0,0,1,.19-.16C434.57,243.06,434.55,243,434.55,242.9Z"/><path class="cls-15" d="M434.08,243.68l0,.07,0,.07Z"/><path class="cls-15" d="M433.66,244.38a1.91,1.91,0,0,0,.24-.34A1.28,1.28,0,0,0,433.66,244.38Z"/><path class="cls-15" d="M434.09,243.88c-.06,0-.1,0-.08-.06h0l-.12.22A.9.9,0,0,1,434.09,243.88Z"/><path class="cls-15" d="M434.09,243.88c.06,0,.13-.07.16-.08Z"/><path class="cls-15" d="M434.68,244.52c0,.08-.21-.07-.27.1a6.66,6.66,0,0,1-.5,1c-.06.18-.43.23-.49.4-.15.39-.6,1.34-.21.88.56-.72.82-1.27,1.27-2a15.77,15.77,0,0,0,.79-1.83,3,3,0,0,1,.28-.46l-.45.58C434.86,243.5,435,244,434.68,244.52Z"/><path class="cls-15" d="M436.17,239.82l0,.26a1.81,1.81,0,0,0-.47,1l.17-.11c.08-.21,0-.26-.1-.1a3.54,3.54,0,0,0,.64-1.17C436.31,239.75,436.24,239.72,436.17,239.82Z"/><path class="cls-15" d="M436.46,239.5l-.07.24h0l.06-.25Z"/><path class="cls-15" d="M432.81,245.94c-.7.85-1.4,1.63-2.11,2.35,0,.08,0,.16-.12.21a.88.88,0,0,0-.24.11l-.33.29-.1.12h0c-.05.08,0,.09.06.08l.17,0-.17,0a.8.8,0,0,0-.22.12,2.76,2.76,0,0,1-.3.29,1.15,1.15,0,0,1,.3-.29l.16-.2,0-.06-.76.66-.15.16c-.15.2-.31.38-.51.38l-.15.11h0l-.06,0-.62.44c-.11.14-.21.29-.32.42h-.21a.56.56,0,0,1-.15.27l.42-.07c.21,0,.16-.43.46-.38-.3,0-.25.37-.46.38l-.42.07a1.35,1.35,0,0,1-.71.4,1.08,1.08,0,0,1,.71-.4.56.56,0,0,0,.15-.27h.21c.11-.13.21-.28.32-.42l-1.23.89a36.87,36.87,0,0,1-8.74,4.25c-.89.23-1.75.49-2.62.66l-2.6.35c-3.39.21-6.58.46-9.8-.78a15.25,15.25,0,0,0-2.37-.74c-.87-.29-1.71-.63-2.3-.83-1.72-.25-1.36,1-1.29,1.09a2.64,2.64,0,0,0,1.32,1.15l2.32,1.12c-1.4-.67,1.22-.24,2.53.67a7.58,7.58,0,0,0,3.65.88c1.38,0,2.81-.07,4.13-.15.67,0,1.37-.1,2.15-.19,1-.13,2-.3,3-.5s1.91-.6,2.86-.93,1.84-.81,2.78-1.22,1.83-1,2.79-1.44a16,16,0,0,0,2.43-1.94c.57-.39,1.19-.81,1.65-1.14a8.74,8.74,0,0,0,1.7-1.68,15.41,15.41,0,0,1-1.69,1.61c-.47.38.15-.5.41-.8.1-.15.49-.11.59-.26a6.36,6.36,0,0,0,.69-.89c.09-.16.24,0,.28,0,.37-.42.46-.92.75-1.11a5.88,5.88,0,0,0,.58-.46A2.34,2.34,0,0,0,432,248l.15-.27a.42.42,0,0,1-.27-.07l.38-.31-.38.31a.42.42,0,0,0,.27.07c.36-.64.85-1.29,1.18-2h0a4.26,4.26,0,0,1-.39.53,2.86,2.86,0,0,1-.55.42c.17-.11.2,0,.07.13l-.21.05A2.21,2.21,0,0,1,433,246l.09-.25c.09-.09.15,0,.22,0l.14-.22A4.12,4.12,0,0,0,432.81,245.94Z"/><path class="cls-15" d="M429.74,249.22l.14-.16-.64.56C429.42,249.6,429.58,249.41,429.74,249.22Z"/></g><path class="cls-5" d="M340.57,317.38c-4.46,3.05-10.88,6.06-19.91,8.89-11-2.78-22.18-4.92-32.91-6.84-5.88-1.05-11.64-2-17.17-3l-2.35-.42-2.73-.5c-5.63.81-23.57-1.93-11-14,21-18,64-36,66-47,.86-4.75-2.57-11.53,0-18a15.71,15.71,0,0,1,6-7.56,70.75,70.75,0,0,0,0,26.56,64.54,64.54,0,0,0,3.11,10.75c-15,7.22-28.12,18.69-63.11,40.25l2.87.36,2.38.3c13.9,1.77,26.46,3.49,37.81,5.17,4.16.81,9.59,1.68,15.78,2.65l.14,0C330.16,315.73,335.26,316.52,340.57,317.38Z"/></svg>